<?xml version="1.0" encoding="UTF-8" standalone="no"?>
<!DOCTYPE svg PUBLIC "-//W3C//DTD SVG 1.1//EN"
 "http://www.w3.org/Graphics/SVG/1.1/DTD/svg11.dtd">
<!-- Generated by graphviz version 2.43.0 (0)
 -->
<!-- Title: es.alrodmue.model.Team Pages: 1 -->
<svg width="494pt" height="577pt"
 viewBox="0.00 0.00 494.00 577.00" xmlns="http://www.w3.org/2000/svg" xmlns:xlink="http://www.w3.org/1999/xlink">
<g id="graph0" class="graph" transform="scale(1 1) rotate(0) translate(4 573)">
<title>es.alrodmue.model.Team</title>
<!-- Node1 -->
<g id="Node000001" class="node">
<title>Node1</title>
<g id="a_Node000001"><a xlink:title=" ">
<polygon fill="#999999" stroke="transparent" points="293.5,-154 159.5,-154 159.5,0 293.5,0 293.5,-154"/>
<text text-anchor="start" x="164.5" y="-142" font-family="Helvetica,sans-Serif" font-size="10.00">es.alrodmue.model.Team</text>
<text text-anchor="start" x="224.5" y="-127" font-family="Helvetica,sans-Serif" font-size="10.00"> </text>
<text text-anchor="start" x="172.5" y="-112" font-family="Helvetica,sans-Serif" font-size="10.00">+</text>
<text text-anchor="start" x="194.5" y="-112" font-family="Helvetica,sans-Serif" font-size="10.00">addMatch()</text>
<text text-anchor="start" x="172.5" y="-97" font-family="Helvetica,sans-Serif" font-size="10.00">+</text>
<text text-anchor="start" x="194.5" y="-97" font-family="Helvetica,sans-Serif" font-size="10.00">addPlayer()</text>
<text text-anchor="start" x="172.5" y="-82" font-family="Helvetica,sans-Serif" font-size="10.00">+</text>
<text text-anchor="start" x="194.5" y="-82" font-family="Helvetica,sans-Serif" font-size="10.00">getMatchList()</text>
<text text-anchor="start" x="172.5" y="-67" font-family="Helvetica,sans-Serif" font-size="10.00">+</text>
<text text-anchor="start" x="194.5" y="-67" font-family="Helvetica,sans-Serif" font-size="10.00">getPlayerList()</text>
<text text-anchor="start" x="172.5" y="-52" font-family="Helvetica,sans-Serif" font-size="10.00">+</text>
<text text-anchor="start" x="194.5" y="-52" font-family="Helvetica,sans-Serif" font-size="10.00">getPlayerList()</text>
<text text-anchor="start" x="172.5" y="-37" font-family="Helvetica,sans-Serif" font-size="10.00">+</text>
<text text-anchor="start" x="194.5" y="-37" font-family="Helvetica,sans-Serif" font-size="10.00">removePlayer()</text>
<text text-anchor="start" x="172.5" y="-22" font-family="Helvetica,sans-Serif" font-size="10.00">+</text>
<text text-anchor="start" x="194.5" y="-22" font-family="Helvetica,sans-Serif" font-size="10.00">getInstance()</text>
<text text-anchor="start" x="175" y="-7" font-family="Helvetica,sans-Serif" font-size="10.00">&#45;</text>
<text text-anchor="start" x="194.5" y="-7" font-family="Helvetica,sans-Serif" font-size="10.00">Team()</text>
<polygon fill="#666666" stroke="#666666" points="159.5,-137 159.5,-137 293.5,-137 293.5,-137 159.5,-137"/>
<polygon fill="#666666" stroke="#666666" points="159.5,-122 159.5,-122 293.5,-122 293.5,-122 159.5,-122"/>
<polygon fill="none" stroke="#666666" points="159.5,0 159.5,-154 293.5,-154 293.5,0 159.5,0"/>
</a>
</g>
</g>
<!-- Node2 -->
<g id="Node000002" class="node">
<title>Node2</title>
<g id="a_Node000002"><a xlink:href="classes_1_1alrodmue_1_1model_1_1Team.xhtml" target="_top" xlink:title=" ">
<polygon fill="white" stroke="transparent" points="293.5,-355 159.5,-355 159.5,-201 293.5,-201 293.5,-355"/>
<text text-anchor="start" x="164.5" y="-343" font-family="Helvetica,sans-Serif" font-size="10.00">es.alrodmue.model.Team</text>
<text text-anchor="start" x="224.5" y="-328" font-family="Helvetica,sans-Serif" font-size="10.00"> </text>
<text text-anchor="start" x="172.5" y="-313" font-family="Helvetica,sans-Serif" font-size="10.00">+</text>
<text text-anchor="start" x="194.5" y="-313" font-family="Helvetica,sans-Serif" font-size="10.00">addMatch()</text>
<text text-anchor="start" x="172.5" y="-298" font-family="Helvetica,sans-Serif" font-size="10.00">+</text>
<text text-anchor="start" x="194.5" y="-298" font-family="Helvetica,sans-Serif" font-size="10.00">addPlayer()</text>
<text text-anchor="start" x="172.5" y="-283" font-family="Helvetica,sans-Serif" font-size="10.00">+</text>
<text text-anchor="start" x="194.5" y="-283" font-family="Helvetica,sans-Serif" font-size="10.00">getMatchList()</text>
<text text-anchor="start" x="172.5" y="-268" font-family="Helvetica,sans-Serif" font-size="10.00">+</text>
<text text-anchor="start" x="194.5" y="-268" font-family="Helvetica,sans-Serif" font-size="10.00">getPlayerList()</text>
<text text-anchor="start" x="172.5" y="-253" font-family="Helvetica,sans-Serif" font-size="10.00">+</text>
<text text-anchor="start" x="194.5" y="-253" font-family="Helvetica,sans-Serif" font-size="10.00">getPlayerList()</text>
<text text-anchor="start" x="172.5" y="-238" font-family="Helvetica,sans-Serif" font-size="10.00">+</text>
<text text-anchor="start" x="194.5" y="-238" font-family="Helvetica,sans-Serif" font-size="10.00">removePlayer()</text>
<text text-anchor="start" x="172.5" y="-223" font-family="Helvetica,sans-Serif" font-size="10.00">+</text>
<text text-anchor="start" x="194.5" y="-223" font-family="Helvetica,sans-Serif" font-size="10.00">getInstance()</text>
<text text-anchor="start" x="175" y="-208" font-family="Helvetica,sans-Serif" font-size="10.00">&#45;</text>
<text text-anchor="start" x="194.5" y="-208" font-family="Helvetica,sans-Serif" font-size="10.00">Team()</text>
<polygon fill="#666666" stroke="#666666" points="159.5,-338 159.5,-338 293.5,-338 293.5,-338 159.5,-338"/>
<polygon fill="#666666" stroke="#666666" points="159.5,-323 159.5,-323 293.5,-323 293.5,-323 159.5,-323"/>
<polygon fill="none" stroke="#666666" points="159.5,-201 159.5,-355 293.5,-355 293.5,-201 159.5,-201"/>
</a>
</g>
</g>
<!-- Node2&#45;&gt;Node1 -->
<g id="edge1_Node000001_Node000002" class="edge">
<title>Node2&#45;&gt;Node1</title>
<g id="a_edge1_Node000001_Node000002"><a xlink:title=" ">
<path fill="none" stroke="#63b8ff" d="M226.5,-200.91C226.5,-189.51 226.5,-177.68 226.5,-166.05"/>
<polygon fill="none" stroke="#63b8ff" points="226.5,-166.04 222.5,-160.04 226.5,-154.04 230.5,-160.04 226.5,-166.04"/>
</a>
</g>
<text text-anchor="middle" x="251" y="-175" font-family="Helvetica,sans-Serif" font-size="10.00" fill="grey"> &#45;instance</text>
</g>
<!-- Node2&#45;&gt;Node2 -->
<g id="edge2_Node000002_Node000002" class="edge">
<title>Node2&#45;&gt;Node2</title>
<g id="a_edge2_Node000002_Node000002"><a xlink:title=" ">
<path fill="none" stroke="#63b8ff" d="M293.84,-295.18C304.34,-292.61 311.5,-286.89 311.5,-278 311.5,-272.86 309.11,-268.78 305.06,-265.75"/>
<polygon fill="none" stroke="#63b8ff" points="304.82,-265.65 297.72,-266.89 293.84,-260.82 300.94,-259.57 304.82,-265.65"/>
</a>
</g>
<text text-anchor="middle" x="336" y="-275.5" font-family="Helvetica,sans-Serif" font-size="10.00" fill="grey"> &#45;instance</text>
</g>
<!-- Node3 -->
<g id="Node000003" class="node">
<title>Node3</title>
<g id="a_Node000003"><a xlink:title=" ">
<polygon fill="white" stroke="transparent" points="231,-462 0,-462 0,-402 231,-402 231,-462"/>
<text text-anchor="start" x="5.5" y="-450" font-family="Helvetica,sans-Serif" font-size="10.00">ObservableList&lt; es.alrodmue.model.players.</text>
<text text-anchor="start" x="94.5" y="-439" font-family="Helvetica,sans-Serif" font-size="10.00">Player &gt;</text>
<text text-anchor="start" x="114" y="-424" font-family="Helvetica,sans-Serif" font-size="10.00"> </text>
<text text-anchor="start" x="114" y="-409" font-family="Helvetica,sans-Serif" font-size="10.00"> </text>
<polygon fill="#bfbfbf" stroke="#bfbfbf" points="0.5,-434 0.5,-434 231.5,-434 231.5,-434 0.5,-434"/>
<polygon fill="#bfbfbf" stroke="#bfbfbf" points="0.5,-419 0.5,-419 231.5,-419 231.5,-419 0.5,-419"/>
<polygon fill="none" stroke="#bfbfbf" points="0,-402 0,-462 231,-462 231,-402 0,-402"/>
</a>
</g>
</g>
<!-- Node3&#45;&gt;Node1 -->
<g id="edge7_Node000001_Node000003" class="edge">
<title>Node3&#45;&gt;Node1</title>
<g id="a_edge7_Node000001_Node000003"><a xlink:title=" ">
<path fill="none" stroke="#63b8ff" d="M104.44,-401.98C89.11,-356.92 66.37,-268.32 95.5,-201 107.21,-173.94 128.12,-150.1 149.85,-130.79"/>
<polygon fill="none" stroke="#63b8ff" points="150.08,-130.6 152.03,-123.66 159.19,-122.79 157.24,-129.73 150.08,-130.6"/>
</a>
</g>
<text text-anchor="middle" x="123" y="-275.5" font-family="Helvetica,sans-Serif" font-size="10.00" fill="grey"> &#45;playerList</text>
</g>
<!-- Node3&#45;&gt;Node2 -->
<g id="edge3_Node000002_Node000003" class="edge">
<title>Node3&#45;&gt;Node2</title>
<g id="a_edge3_Node000002_Node000003"><a xlink:title=" ">
<path fill="none" stroke="#63b8ff" d="M136.9,-401.69C144.68,-391.04 153.92,-378.38 163.47,-365.31"/>
<polygon fill="none" stroke="#63b8ff" points="163.73,-364.96 164.04,-357.75 170.81,-355.26 170.5,-362.47 163.73,-364.96"/>
</a>
</g>
<text text-anchor="middle" x="185" y="-376" font-family="Helvetica,sans-Serif" font-size="10.00" fill="grey"> &#45;playerList</text>
</g>
<!-- Node4 -->
<g id="Node000004" class="node">
<title>Node4</title>
<g id="a_Node000004"><a xlink:title=" ">
<polygon fill="white" stroke="transparent" points="283,-569 200,-569 200,-520 283,-520 283,-569"/>
<text text-anchor="start" x="205.5" y="-556.5" font-family="Helvetica,sans-Serif" font-size="10.00">ObservableList</text>
<text text-anchor="start" x="240" y="-541.5" font-family="Helvetica,sans-Serif" font-size="10.00"> </text>
<text text-anchor="start" x="240" y="-526.5" font-family="Helvetica,sans-Serif" font-size="10.00"> </text>
<polygon fill="#bfbfbf" stroke="#bfbfbf" points="200.5,-551.5 200.5,-551.5 283.5,-551.5 283.5,-551.5 200.5,-551.5"/>
<polygon fill="#bfbfbf" stroke="#bfbfbf" points="200.5,-536.5 200.5,-536.5 283.5,-536.5 283.5,-536.5 200.5,-536.5"/>
<polygon fill="none" stroke="#bfbfbf" points="200,-520 200,-569 283,-569 283,-520 200,-520"/>
</a>
</g>
</g>
<!-- Node4&#45;&gt;Node3 -->
<g id="edge4_Node000003_Node000004" class="edge">
<title>Node4&#45;&gt;Node3</title>
<g id="a_edge4_Node000003_Node000004"><a xlink:title=" ">
<path fill="none" stroke="orange" d="M206.48,-512.79C188.44,-496.96 166.55,-477.77 148.77,-462.17"/>
<polygon fill="orange" stroke="orange" points="204.64,-515.83 214.47,-519.79 209.26,-510.57 204.64,-515.83"/>
</a>
</g>
<text text-anchor="start" x="192.5" y="-494" font-family="Helvetica,sans-Serif" font-size="10.00" fill="grey"> &lt; es::alrodmue::model</text>
<text text-anchor="middle" x="250" y="-483" font-family="Helvetica,sans-Serif" font-size="10.00" fill="grey">::players::Player &gt;</text>
</g>
<!-- Node5 -->
<g id="Node000005" class="node">
<title>Node5</title>
<g id="a_Node000005"><a xlink:title=" ">
<polygon fill="white" stroke="transparent" points="486,-462 249,-462 249,-402 486,-402 486,-462"/>
<text text-anchor="start" x="254.5" y="-450" font-family="Helvetica,sans-Serif" font-size="10.00">ObservableList&lt; es.alrodmue.model.matches.</text>
<text text-anchor="start" x="347" y="-439" font-family="Helvetica,sans-Serif" font-size="10.00">Match &gt;</text>
<text text-anchor="start" x="366" y="-424" font-family="Helvetica,sans-Serif" font-size="10.00"> </text>
<text text-anchor="start" x="366" y="-409" font-family="Helvetica,sans-Serif" font-size="10.00"> </text>
<polygon fill="#bfbfbf" stroke="#bfbfbf" points="249.5,-434 249.5,-434 486.5,-434 486.5,-434 249.5,-434"/>
<polygon fill="#bfbfbf" stroke="#bfbfbf" points="249.5,-419 249.5,-419 486.5,-419 486.5,-419 249.5,-419"/>
<polygon fill="none" stroke="#bfbfbf" points="249,-402 249,-462 486,-462 486,-402 249,-402"/>
</a>
</g>
</g>
<!-- Node4&#45;&gt;Node5 -->
<g id="edge6_Node000005_Node000004" class="edge">
<title>Node4&#45;&gt;Node5</title>
<g id="a_edge6_Node000005_Node000004"><a xlink:title=" ">
<path fill="none" stroke="orange" d="M291.86,-516.61C298.73,-512.11 305.48,-507.19 311.5,-502 324.93,-490.41 337.6,-475.31 347.47,-462.19"/>
<polygon fill="orange" stroke="orange" points="289.74,-513.81 283.13,-522.1 293.46,-519.74 289.74,-513.81"/>
</a>
</g>
<text text-anchor="start" x="331.5" y="-494" font-family="Helvetica,sans-Serif" font-size="10.00" fill="grey"> &lt; es::alrodmue::model</text>
<text text-anchor="middle" x="389" y="-483" font-family="Helvetica,sans-Serif" font-size="10.00" fill="grey">::matches::Match &gt;</text>
</g>
<!-- Node5&#45;&gt;Node1 -->
<g id="edge8_Node000001_Node000005" class="edge">
<title>Node5&#45;&gt;Node1</title>
<g id="a_edge8_Node000001_Node000005"><a xlink:title=" ">
<path fill="none" stroke="#63b8ff" d="M376.85,-401.92C378.37,-396.05 379.7,-389.87 380.5,-384 391.46,-303.26 405.83,-273.93 369.5,-201 354.61,-171.11 328.89,-145.52 303.34,-125.54"/>
<polygon fill="none" stroke="#63b8ff" points="303.15,-125.39 295.95,-124.97 293.57,-118.16 300.77,-118.59 303.15,-125.39"/>
</a>
</g>
<text text-anchor="middle" x="420" y="-275.5" font-family="Helvetica,sans-Serif" font-size="10.00" fill="grey"> &#45;matchList</text>
</g>
<!-- Node5&#45;&gt;Node2 -->
<g id="edge5_Node000002_Node000005" class="edge">
<title>Node5&#45;&gt;Node2</title>
<g id="a_edge5_Node000002_Node000005"><a xlink:title=" ">
<path fill="none" stroke="#63b8ff" d="M340.31,-401.69C329.25,-389.76 315.85,-375.33 302.2,-360.61"/>
<polygon fill="none" stroke="#63b8ff" points="301.84,-360.22 294.83,-358.54 293.68,-351.42 300.7,-353.1 301.84,-360.22"/>
</a>
</g>
<text text-anchor="middle" x="349" y="-376" font-family="Helvetica,sans-Serif" font-size="10.00" fill="grey"> &#45;matchList</text>
</g>
</g>
</svg>
