<?xml version="1.0" encoding="UTF-8" standalone="no"?>
<!DOCTYPE svg PUBLIC "-//W3C//DTD SVG 1.1//EN"
 "http://www.w3.org/Graphics/SVG/1.1/DTD/svg11.dtd">
<!-- Generated by graphviz version 2.43.0 (0)
 -->
<!-- Title: es.alrodmue.model.matches.Match.Match Pages: 1 -->
<svg width="559pt" height="182pt"
 viewBox="0.00 0.00 559.00 182.00" xmlns="http://www.w3.org/2000/svg" xmlns:xlink="http://www.w3.org/1999/xlink">
<g id="graph0" class="graph" transform="scale(1 1) rotate(0) translate(4 178)">
<title>es.alrodmue.model.matches.Match.Match</title>
<!-- Node1 -->
<g id="Node000001" class="node">
<title>Node1</title>
<g id="a_Node000001"><a xlink:title=" ">
<polygon fill="#999999" stroke="#666666" points="159,-102 0,-102 0,-72 159,-72 159,-102"/>
<text text-anchor="start" x="8" y="-90" font-family="Helvetica,sans-Serif" font-size="10.00">es.alrodmue.model.matches.</text>
<text text-anchor="middle" x="79.5" y="-79" font-family="Helvetica,sans-Serif" font-size="10.00">Match.Match</text>
</a>
</g>
</g>
<!-- Node2 -->
<g id="Node000002" class="node">
<title>Node2</title>
<g id="a_Node000002"><a xlink:href="classes_1_1alrodmue_1_1model_1_1matches_1_1Match.xhtml#a06ef3a24067373bf9dc63b3ab7b25e56" target="_top" xlink:title=" ">
<polygon fill="white" stroke="#666666" points="354.5,-174 195.5,-174 195.5,-144 354.5,-144 354.5,-174"/>
<text text-anchor="start" x="203.5" y="-162" font-family="Helvetica,sans-Serif" font-size="10.00">es.alrodmue.model.matches.</text>
<text text-anchor="middle" x="275" y="-151" font-family="Helvetica,sans-Serif" font-size="10.00">Match.calculatePoints</text>
</a>
</g>
</g>
<!-- Node1&#45;&gt;Node2 -->
<g id="edge1_Node000001_Node000002" class="edge">
<title>Node1&#45;&gt;Node2</title>
<g id="a_edge1_Node000001_Node000002"><a xlink:title=" ">
<path fill="none" stroke="#63b8ff" d="M114.21,-102.2C136.83,-112.13 167.42,-125.06 195,-135 200.53,-136.99 206.31,-138.96 212.13,-140.87"/>
<polygon fill="#63b8ff" stroke="#63b8ff" points="211.32,-144.28 221.91,-144 213.45,-137.62 211.32,-144.28"/>
</a>
</g>
</g>
<!-- Node3 -->
<g id="Node000003" class="node">
<title>Node3</title>
<g id="a_Node000003"><a xlink:href="classes_1_1alrodmue_1_1model_1_1factories_1_1FoulFactory.xhtml#ae9e2c55ac3012b2c251fd828abe7e59b" target="_top" xlink:title=" ">
<polygon fill="white" stroke="#666666" points="355,-126 195,-126 195,-96 355,-96 355,-126"/>
<text text-anchor="start" x="203" y="-114" font-family="Helvetica,sans-Serif" font-size="10.00">es.alrodmue.model.factories.</text>
<text text-anchor="middle" x="275" y="-103" font-family="Helvetica,sans-Serif" font-size="10.00">FoulFactory.getInstance</text>
</a>
</g>
</g>
<!-- Node1&#45;&gt;Node3 -->
<g id="edge2_Node000001_Node000003" class="edge">
<title>Node1&#45;&gt;Node3</title>
<g id="a_edge2_Node000001_Node000003"><a xlink:title=" ">
<path fill="none" stroke="#63b8ff" d="M159.2,-96.76C167.63,-97.81 176.24,-98.87 184.77,-99.93"/>
<polygon fill="#63b8ff" stroke="#63b8ff" points="184.38,-103.41 194.74,-101.17 185.24,-96.46 184.38,-103.41"/>
</a>
</g>
</g>
<!-- Node5 -->
<g id="Node000005" class="node">
<title>Node5</title>
<g id="a_Node000005"><a xlink:href="classes_1_1alrodmue_1_1model_1_1matches_1_1Match.xhtml#a1fa49271bd9dd891f373d45ca74073ba" target="_top" xlink:title=" ">
<polygon fill="white" stroke="#666666" points="354.5,-78 195.5,-78 195.5,-48 354.5,-48 354.5,-78"/>
<text text-anchor="start" x="203.5" y="-66" font-family="Helvetica,sans-Serif" font-size="10.00">es.alrodmue.model.matches.</text>
<text text-anchor="middle" x="275" y="-55" font-family="Helvetica,sans-Serif" font-size="10.00">Match.isDateValid</text>
</a>
</g>
</g>
<!-- Node1&#45;&gt;Node5 -->
<g id="edge4_Node000001_Node000005" class="edge">
<title>Node1&#45;&gt;Node5</title>
<g id="a_edge4_Node000001_Node000005"><a xlink:title=" ">
<path fill="none" stroke="#63b8ff" d="M159.2,-77.24C167.78,-76.17 176.55,-75.09 185.23,-74.01"/>
<polygon fill="#63b8ff" stroke="#63b8ff" points="185.87,-77.46 195.37,-72.75 185.01,-70.51 185.87,-77.46"/>
</a>
</g>
</g>
<!-- Node6 -->
<g id="Node000006" class="node">
<title>Node6</title>
<g id="a_Node000006"><a xlink:href="classes_1_1alrodmue_1_1model_1_1matches_1_1Match.xhtml#a8ac8c8ca7fe431c4290a1f56f2e269bf" target="_top" xlink:title=" ">
<polygon fill="white" stroke="#666666" points="354.5,-30 195.5,-30 195.5,0 354.5,0 354.5,-30"/>
<text text-anchor="start" x="203.5" y="-18" font-family="Helvetica,sans-Serif" font-size="10.00">es.alrodmue.model.matches.</text>
<text text-anchor="middle" x="275" y="-7" font-family="Helvetica,sans-Serif" font-size="10.00">Match.isOwnTeamWinner</text>
</a>
</g>
</g>
<!-- Node1&#45;&gt;Node6 -->
<g id="edge5_Node000001_Node000006" class="edge">
<title>Node1&#45;&gt;Node6</title>
<g id="a_edge5_Node000001_Node000006"><a xlink:title=" ">
<path fill="none" stroke="#63b8ff" d="M114.21,-71.8C136.83,-61.87 167.42,-48.94 195,-39 200.53,-37.01 206.31,-35.04 212.13,-33.13"/>
<polygon fill="#63b8ff" stroke="#63b8ff" points="213.45,-36.38 221.91,-30 211.32,-29.72 213.45,-36.38"/>
</a>
</g>
</g>
<!-- Node4 -->
<g id="Node000004" class="node">
<title>Node4</title>
<g id="a_Node000004"><a xlink:href="classes_1_1alrodmue_1_1model_1_1factories_1_1FoulFactory.xhtml#ad66557c8e50d9e956bf8b9e37545da98" target="_top" xlink:title=" ">
<polygon fill="white" stroke="#666666" points="551,-126 391,-126 391,-96 551,-96 551,-126"/>
<text text-anchor="start" x="399" y="-114" font-family="Helvetica,sans-Serif" font-size="10.00">es.alrodmue.model.factories.</text>
<text text-anchor="middle" x="471" y="-103" font-family="Helvetica,sans-Serif" font-size="10.00">FoulFactory.FoulFactory</text>
</a>
</g>
</g>
<!-- Node3&#45;&gt;Node4 -->
<g id="edge3_Node000003_Node000004" class="edge">
<title>Node3&#45;&gt;Node4</title>
<g id="a_edge3_Node000003_Node000004"><a xlink:title=" ">
<path fill="none" stroke="#63b8ff" d="M355.19,-111C363.53,-111 372.05,-111 380.5,-111"/>
<polygon fill="#63b8ff" stroke="#63b8ff" points="380.75,-114.5 390.75,-111 380.75,-107.5 380.75,-114.5"/>
</a>
</g>
</g>
</g>
</svg>
