<?xml version="1.0" encoding="UTF-8" standalone="no"?>
<!DOCTYPE svg PUBLIC "-//W3C//DTD SVG 1.1//EN"
 "http://www.w3.org/Graphics/SVG/1.1/DTD/svg11.dtd">
<!-- Generated by graphviz version 2.43.0 (0)
 -->
<!-- Title: es.alrodmue.controller.PlayerController Pages: 1 -->
<svg width="229pt" height="385pt"
 viewBox="0.00 0.00 229.00 385.00" xmlns="http://www.w3.org/2000/svg" xmlns:xlink="http://www.w3.org/1999/xlink">
<g id="graph0" class="graph" transform="scale(1 1) rotate(0) translate(4 381)">
<title>es.alrodmue.controller.PlayerController</title>
<!-- Node1 -->
<g id="Node000001" class="node">
<title>Node1</title>
<g id="a_Node000001"><a xlink:title=" ">
<polygon fill="#999999" stroke="transparent" points="154,-165 0,-165 0,0 154,0 154,-165"/>
<text text-anchor="start" x="5" y="-152.5" font-family="Helvetica,sans-Serif" font-size="10.00">es.alrodmue.controller.Player</text>
<text text-anchor="start" x="52.5" y="-141.5" font-family="Helvetica,sans-Serif" font-size="10.00">Controller</text>
<text text-anchor="start" x="75" y="-126.5" font-family="Helvetica,sans-Serif" font-size="10.00"> </text>
<text text-anchor="start" x="12.5" y="-111.5" font-family="Helvetica,sans-Serif" font-size="10.00">+</text>
<text text-anchor="start" x="34" y="-111.5" font-family="Helvetica,sans-Serif" font-size="10.00">createPlayer()</text>
<text text-anchor="start" x="12.5" y="-96.5" font-family="Helvetica,sans-Serif" font-size="10.00">+</text>
<text text-anchor="start" x="34" y="-96.5" font-family="Helvetica,sans-Serif" font-size="10.00">removePlayer()</text>
<text text-anchor="start" x="12.5" y="-81.5" font-family="Helvetica,sans-Serif" font-size="10.00">+</text>
<text text-anchor="start" x="34" y="-81.5" font-family="Helvetica,sans-Serif" font-size="10.00">showPlayerDetails()</text>
<text text-anchor="start" x="12.5" y="-66.5" font-family="Helvetica,sans-Serif" font-size="10.00">+</text>
<text text-anchor="start" x="34" y="-66.5" font-family="Helvetica,sans-Serif" font-size="10.00">showPlayerDetails()</text>
<text text-anchor="start" x="12.5" y="-51.5" font-family="Helvetica,sans-Serif" font-size="10.00">+</text>
<text text-anchor="start" x="34" y="-51.5" font-family="Helvetica,sans-Serif" font-size="10.00">getInstance()</text>
<text text-anchor="start" x="15" y="-36.5" font-family="Helvetica,sans-Serif" font-size="10.00">&#45;</text>
<text text-anchor="start" x="34" y="-36.5" font-family="Helvetica,sans-Serif" font-size="10.00">PlayerController()</text>
<text text-anchor="start" x="15" y="-21.5" font-family="Helvetica,sans-Serif" font-size="10.00">&#45;</text>
<text text-anchor="start" x="34" y="-21.5" font-family="Helvetica,sans-Serif" font-size="10.00">showError()</text>
<text text-anchor="start" x="15" y="-6.5" font-family="Helvetica,sans-Serif" font-size="10.00">&#45;</text>
<text text-anchor="start" x="34" y="-6.5" font-family="Helvetica,sans-Serif" font-size="10.00">showInfo()</text>
<polygon fill="#666666" stroke="#666666" points="0,-136.5 0,-136.5 154,-136.5 154,-136.5 0,-136.5"/>
<polygon fill="#666666" stroke="#666666" points="0,-121.5 0,-121.5 154,-121.5 154,-121.5 0,-121.5"/>
<polygon fill="none" stroke="#666666" points="0,0 0,-165 154,-165 154,0 0,0"/>
</a>
</g>
</g>
<!-- Node2 -->
<g id="Node000002" class="node">
<title>Node2</title>
<g id="a_Node000002"><a xlink:href="classes_1_1alrodmue_1_1controller_1_1PlayerController.xhtml" target="_top" xlink:title=" ">
<polygon fill="white" stroke="transparent" points="154,-377 0,-377 0,-212 154,-212 154,-377"/>
<text text-anchor="start" x="5" y="-364.5" font-family="Helvetica,sans-Serif" font-size="10.00">es.alrodmue.controller.Player</text>
<text text-anchor="start" x="52.5" y="-353.5" font-family="Helvetica,sans-Serif" font-size="10.00">Controller</text>
<text text-anchor="start" x="75" y="-338.5" font-family="Helvetica,sans-Serif" font-size="10.00"> </text>
<text text-anchor="start" x="12.5" y="-323.5" font-family="Helvetica,sans-Serif" font-size="10.00">+</text>
<text text-anchor="start" x="34" y="-323.5" font-family="Helvetica,sans-Serif" font-size="10.00">createPlayer()</text>
<text text-anchor="start" x="12.5" y="-308.5" font-family="Helvetica,sans-Serif" font-size="10.00">+</text>
<text text-anchor="start" x="34" y="-308.5" font-family="Helvetica,sans-Serif" font-size="10.00">removePlayer()</text>
<text text-anchor="start" x="12.5" y="-293.5" font-family="Helvetica,sans-Serif" font-size="10.00">+</text>
<text text-anchor="start" x="34" y="-293.5" font-family="Helvetica,sans-Serif" font-size="10.00">showPlayerDetails()</text>
<text text-anchor="start" x="12.5" y="-278.5" font-family="Helvetica,sans-Serif" font-size="10.00">+</text>
<text text-anchor="start" x="34" y="-278.5" font-family="Helvetica,sans-Serif" font-size="10.00">showPlayerDetails()</text>
<text text-anchor="start" x="12.5" y="-263.5" font-family="Helvetica,sans-Serif" font-size="10.00">+</text>
<text text-anchor="start" x="34" y="-263.5" font-family="Helvetica,sans-Serif" font-size="10.00">getInstance()</text>
<text text-anchor="start" x="15" y="-248.5" font-family="Helvetica,sans-Serif" font-size="10.00">&#45;</text>
<text text-anchor="start" x="34" y="-248.5" font-family="Helvetica,sans-Serif" font-size="10.00">PlayerController()</text>
<text text-anchor="start" x="15" y="-233.5" font-family="Helvetica,sans-Serif" font-size="10.00">&#45;</text>
<text text-anchor="start" x="34" y="-233.5" font-family="Helvetica,sans-Serif" font-size="10.00">showError()</text>
<text text-anchor="start" x="15" y="-218.5" font-family="Helvetica,sans-Serif" font-size="10.00">&#45;</text>
<text text-anchor="start" x="34" y="-218.5" font-family="Helvetica,sans-Serif" font-size="10.00">showInfo()</text>
<polygon fill="#666666" stroke="#666666" points="0,-348.5 0,-348.5 154,-348.5 154,-348.5 0,-348.5"/>
<polygon fill="#666666" stroke="#666666" points="0,-333.5 0,-333.5 154,-333.5 154,-333.5 0,-333.5"/>
<polygon fill="none" stroke="#666666" points="0,-212 0,-377 154,-377 154,-212 0,-212"/>
</a>
</g>
</g>
<!-- Node2&#45;&gt;Node1 -->
<g id="edge1_Node000001_Node000002" class="edge">
<title>Node2&#45;&gt;Node1</title>
<g id="a_edge1_Node000001_Node000002"><a xlink:title=" ">
<path fill="none" stroke="#63b8ff" d="M77,-211.71C77,-200.46 77,-188.84 77,-177.39"/>
<polygon fill="none" stroke="#63b8ff" points="77,-177.07 73,-171.07 77,-165.07 81,-171.07 77,-177.07"/>
</a>
</g>
<text text-anchor="middle" x="101.5" y="-186" font-family="Helvetica,sans-Serif" font-size="10.00" fill="grey"> &#45;instance</text>
</g>
<!-- Node2&#45;&gt;Node2 -->
<g id="edge2_Node000002_Node000002" class="edge">
<title>Node2&#45;&gt;Node2</title>
<g id="a_edge2_Node000002_Node000002"><a xlink:title=" ">
<path fill="none" stroke="#63b8ff" d="M154.16,-312.24C164.85,-309.31 172,-303.4 172,-294.5 172,-289.21 169.48,-284.98 165.19,-281.81"/>
<polygon fill="none" stroke="#63b8ff" points="165.07,-281.75 157.95,-282.9 154.16,-276.76 161.28,-275.62 165.07,-281.75"/>
</a>
</g>
<text text-anchor="middle" x="196.5" y="-292" font-family="Helvetica,sans-Serif" font-size="10.00" fill="grey"> &#45;instance</text>
</g>
</g>
</svg>
