<?xml version="1.0" encoding="UTF-8" standalone="no"?>
<!DOCTYPE svg PUBLIC "-//W3C//DTD SVG 1.1//EN"
 "http://www.w3.org/Graphics/SVG/1.1/DTD/svg11.dtd">
<!-- Generated by graphviz version 2.43.0 (0)
 -->
<!-- Title: es.alrodmue.model.fouls.FlagrantFoul Pages: 1 -->
<svg width="984pt" height="1222pt"
 viewBox="0.00 0.00 984.00 1222.00" xmlns="http://www.w3.org/2000/svg" xmlns:xlink="http://www.w3.org/1999/xlink">
<g id="graph0" class="graph" transform="scale(1 1) rotate(0) translate(4 1218)">
<title>es.alrodmue.model.fouls.FlagrantFoul</title>
<!-- Node1 -->
<g id="Node000001" class="node">
<title>Node1</title>
<g id="a_Node000001"><a xlink:title=" ">
<polygon fill="#999999" stroke="transparent" points="686.5,-75 551.5,-75 551.5,0 686.5,0 686.5,-75"/>
<text text-anchor="start" x="557" y="-62.5" font-family="Helvetica,sans-Serif" font-size="10.00">es.alrodmue.model.fouls.</text>
<text text-anchor="start" x="589" y="-51.5" font-family="Helvetica,sans-Serif" font-size="10.00">FlagrantFoul</text>
<text text-anchor="start" x="617.5" y="-36.5" font-family="Helvetica,sans-Serif" font-size="10.00"> </text>
<text text-anchor="start" x="567" y="-21.5" font-family="Helvetica,sans-Serif" font-size="10.00">+</text>
<text text-anchor="start" x="591" y="-21.5" font-family="Helvetica,sans-Serif" font-size="10.00">FlagrantFoul()</text>
<text text-anchor="start" x="567" y="-6.5" font-family="Helvetica,sans-Serif" font-size="10.00">+</text>
<text text-anchor="start" x="591" y="-6.5" font-family="Helvetica,sans-Serif" font-size="10.00">getType()</text>
<polygon fill="#666666" stroke="#666666" points="552,-46.5 552,-46.5 687,-46.5 687,-46.5 552,-46.5"/>
<polygon fill="#666666" stroke="#666666" points="552,-31.5 552,-31.5 687,-31.5 687,-31.5 552,-31.5"/>
<polygon fill="none" stroke="#666666" points="551.5,0 551.5,-75 686.5,-75 686.5,0 551.5,0"/>
</a>
</g>
</g>
<!-- Node2 -->
<g id="Node000002" class="node">
<title>Node2</title>
<g id="a_Node000002"><a xlink:href="classes_1_1alrodmue_1_1model_1_1fouls_1_1Foul.xhtml" target="_top" xlink:title=" ">
<polygon fill="white" stroke="transparent" points="696.5,-236 541.5,-236 541.5,-112 696.5,-112 696.5,-236"/>
<text text-anchor="start" x="547" y="-224" font-family="Helvetica,sans-Serif" font-size="10.00">es.alrodmue.model.fouls.Foul</text>
<text text-anchor="start" x="617.5" y="-209" font-family="Helvetica,sans-Serif" font-size="10.00"> </text>
<text text-anchor="start" x="561.5" y="-194" font-family="Helvetica,sans-Serif" font-size="10.00">+</text>
<text text-anchor="start" x="590" y="-194" font-family="Helvetica,sans-Serif" font-size="10.00">Foul()</text>
<text text-anchor="start" x="561.5" y="-179" font-family="Helvetica,sans-Serif" font-size="10.00">+</text>
<text text-anchor="start" x="590" y="-179" font-family="Helvetica,sans-Serif" font-size="10.00">getMatch()</text>
<text text-anchor="start" x="561.5" y="-164" font-family="Helvetica,sans-Serif" font-size="10.00">+</text>
<text text-anchor="start" x="590" y="-164" font-family="Helvetica,sans-Serif" font-size="10.00">getPlayer()</text>
<text text-anchor="start" x="561.5" y="-149" font-family="Helvetica,sans-Serif" font-size="10.00">+</text>
<text text-anchor="start" x="590" y="-149" font-family="Helvetica,sans-Serif" font-size="10.00">getType()</text>
<text text-anchor="start" x="561.5" y="-134" font-family="Helvetica,sans-Serif" font-size="10.00">+</text>
<text text-anchor="start" x="590" y="-134" font-family="Helvetica,sans-Serif" font-size="10.00">isMatchValid()</text>
<text text-anchor="start" x="561.5" y="-119" font-family="Helvetica,sans-Serif" font-size="10.00">+</text>
<text text-anchor="start" x="590" y="-119" font-family="Helvetica,sans-Serif" font-size="10.00">isPlayerValid()</text>
<polygon fill="#666666" stroke="#666666" points="542,-219 542,-219 697,-219 697,-219 542,-219"/>
<polygon fill="#666666" stroke="#666666" points="542,-204 542,-204 697,-204 697,-204 542,-204"/>
<polygon fill="none" stroke="#666666" points="541.5,-112 541.5,-236 696.5,-236 696.5,-112 541.5,-112"/>
</a>
</g>
</g>
<!-- Node2&#45;&gt;Node1 -->
<g id="edge1_Node000001_Node000002" class="edge">
<title>Node2&#45;&gt;Node1</title>
<g id="a_edge1_Node000001_Node000002"><a xlink:title=" ">
<path fill="none" stroke="#63b8ff" d="M619,-101.4C619,-92.32 619,-83.35 619,-75.16"/>
<polygon fill="none" stroke="#63b8ff" points="615.5,-101.65 619,-111.65 622.5,-101.65 615.5,-101.65"/>
</a>
</g>
</g>
<!-- Node3 -->
<g id="Node000003" class="node">
<title>Node3</title>
<g id="a_Node000003"><a xlink:href="classes_1_1alrodmue_1_1model_1_1players_1_1Player.xhtml" target="_top" xlink:title=" ">
<polygon fill="white" stroke="transparent" points="824.5,-967 677.5,-967 677.5,-637 824.5,-637 824.5,-967"/>
<text text-anchor="start" x="683" y="-955" font-family="Helvetica,sans-Serif" font-size="10.00">es.alrodmue.model.players.</text>
<text text-anchor="start" x="736" y="-944" font-family="Helvetica,sans-Serif" font-size="10.00">Player</text>
<text text-anchor="start" x="749.5" y="-929" font-family="Helvetica,sans-Serif" font-size="10.00"> </text>
<text text-anchor="start" x="693.5" y="-914" font-family="Helvetica,sans-Serif" font-size="10.00">+</text>
<text text-anchor="start" x="718" y="-914" font-family="Helvetica,sans-Serif" font-size="10.00">Player()</text>
<text text-anchor="start" x="693.5" y="-899" font-family="Helvetica,sans-Serif" font-size="10.00">+</text>
<text text-anchor="start" x="718" y="-899" font-family="Helvetica,sans-Serif" font-size="10.00">Player()</text>
<text text-anchor="start" x="693.5" y="-884" font-family="Helvetica,sans-Serif" font-size="10.00">+</text>
<text text-anchor="start" x="718" y="-884" font-family="Helvetica,sans-Serif" font-size="10.00">addFoul()</text>
<text text-anchor="start" x="693.5" y="-869" font-family="Helvetica,sans-Serif" font-size="10.00">+</text>
<text text-anchor="start" x="718" y="-869" font-family="Helvetica,sans-Serif" font-size="10.00">addPoints()</text>
<text text-anchor="start" x="693.5" y="-854" font-family="Helvetica,sans-Serif" font-size="10.00">+</text>
<text text-anchor="start" x="718" y="-854" font-family="Helvetica,sans-Serif" font-size="10.00">getDetail()</text>
<text text-anchor="start" x="693.5" y="-839" font-family="Helvetica,sans-Serif" font-size="10.00">+</text>
<text text-anchor="start" x="718" y="-839" font-family="Helvetica,sans-Serif" font-size="10.00">getFouls()</text>
<text text-anchor="start" x="693.5" y="-824" font-family="Helvetica,sans-Serif" font-size="10.00">+</text>
<text text-anchor="start" x="718" y="-824" font-family="Helvetica,sans-Serif" font-size="10.00">getHeight()</text>
<text text-anchor="start" x="693.5" y="-809" font-family="Helvetica,sans-Serif" font-size="10.00">+</text>
<text text-anchor="start" x="718" y="-809" font-family="Helvetica,sans-Serif" font-size="10.00">getName()</text>
<text text-anchor="start" x="693.5" y="-794" font-family="Helvetica,sans-Serif" font-size="10.00">+</text>
<text text-anchor="start" x="718" y="-794" font-family="Helvetica,sans-Serif" font-size="10.00">getNumber()</text>
<text text-anchor="start" x="693.5" y="-779" font-family="Helvetica,sans-Serif" font-size="10.00">+</text>
<text text-anchor="start" x="718" y="-779" font-family="Helvetica,sans-Serif" font-size="10.00">getPoints()</text>
<text text-anchor="start" x="693.5" y="-764" font-family="Helvetica,sans-Serif" font-size="10.00">+</text>
<text text-anchor="start" x="718" y="-764" font-family="Helvetica,sans-Serif" font-size="10.00">getSkill()</text>
<text text-anchor="start" x="693.5" y="-749" font-family="Helvetica,sans-Serif" font-size="10.00">+</text>
<text text-anchor="start" x="718" y="-749" font-family="Helvetica,sans-Serif" font-size="10.00">getType()</text>
<text text-anchor="start" x="693.5" y="-734" font-family="Helvetica,sans-Serif" font-size="10.00">+</text>
<text text-anchor="start" x="718" y="-734" font-family="Helvetica,sans-Serif" font-size="10.00">toString()</text>
<text text-anchor="start" x="693.5" y="-719" font-family="Helvetica,sans-Serif" font-size="10.00">+</text>
<text text-anchor="start" x="718" y="-719" font-family="Helvetica,sans-Serif" font-size="10.00">arePointsValid()</text>
<text text-anchor="start" x="693.5" y="-704" font-family="Helvetica,sans-Serif" font-size="10.00">+</text>
<text text-anchor="start" x="718" y="-704" font-family="Helvetica,sans-Serif" font-size="10.00">isFoulValid()</text>
<text text-anchor="start" x="693.5" y="-689" font-family="Helvetica,sans-Serif" font-size="10.00">+</text>
<text text-anchor="start" x="718" y="-689" font-family="Helvetica,sans-Serif" font-size="10.00">isHeightValid()</text>
<text text-anchor="start" x="693.5" y="-674" font-family="Helvetica,sans-Serif" font-size="10.00">+</text>
<text text-anchor="start" x="718" y="-674" font-family="Helvetica,sans-Serif" font-size="10.00">isNameValid()</text>
<text text-anchor="start" x="693.5" y="-659" font-family="Helvetica,sans-Serif" font-size="10.00">+</text>
<text text-anchor="start" x="718" y="-659" font-family="Helvetica,sans-Serif" font-size="10.00">isNumberValid()</text>
<text text-anchor="start" x="693.5" y="-644" font-family="Helvetica,sans-Serif" font-size="10.00">+</text>
<text text-anchor="start" x="718" y="-644" font-family="Helvetica,sans-Serif" font-size="10.00">isSkillValid()</text>
<polygon fill="#666666" stroke="#666666" points="678,-939 678,-939 825,-939 825,-939 678,-939"/>
<polygon fill="#666666" stroke="#666666" points="678,-924 678,-924 825,-924 825,-924 678,-924"/>
<polygon fill="none" stroke="#666666" points="677.5,-637 677.5,-967 824.5,-967 824.5,-637 677.5,-637"/>
</a>
</g>
</g>
<!-- Node3&#45;&gt;Node2 -->
<g id="edge2_Node000002_Node000003" class="edge">
<title>Node3&#45;&gt;Node2</title>
<g id="a_edge2_Node000002_Node000003"><a xlink:title=" ">
<path fill="none" stroke="#63b8ff" d="M722.85,-636.79C719.64,-619.62 716.33,-602.44 713,-586 688.9,-467.03 656.57,-329.71 636.8,-247.75"/>
<polygon fill="none" stroke="#63b8ff" points="636.79,-247.73 631.49,-242.84 633.97,-236.07 639.27,-240.96 636.79,-247.73"/>
</a>
</g>
<text text-anchor="middle" x="731.5" y="-423" font-family="Helvetica,sans-Serif" font-size="10.00" fill="grey"> #player</text>
</g>
<!-- Node9 -->
<g id="Node000009" class="node">
<title>Node9</title>
<g id="a_Node000009"><a xlink:href="classes_1_1alrodmue_1_1model_1_1matches_1_1Match.xhtml" target="_top" xlink:title=" ">
<polygon fill="white" stroke="transparent" points="536.5,-568 383.5,-568 383.5,-283 536.5,-283 536.5,-568"/>
<text text-anchor="start" x="389" y="-555.5" font-family="Helvetica,sans-Serif" font-size="10.00">es.alrodmue.model.matches.</text>
<text text-anchor="start" x="445" y="-544.5" font-family="Helvetica,sans-Serif" font-size="10.00">Match</text>
<text text-anchor="start" x="458.5" y="-529.5" font-family="Helvetica,sans-Serif" font-size="10.00"> </text>
<text text-anchor="start" x="396" y="-514.5" font-family="Helvetica,sans-Serif" font-size="10.00">+</text>
<text text-anchor="start" x="417" y="-514.5" font-family="Helvetica,sans-Serif" font-size="10.00">Match()</text>
<text text-anchor="start" x="396" y="-499.5" font-family="Helvetica,sans-Serif" font-size="10.00">+</text>
<text text-anchor="start" x="417" y="-499.5" font-family="Helvetica,sans-Serif" font-size="10.00">Match()</text>
<text text-anchor="start" x="396" y="-484.5" font-family="Helvetica,sans-Serif" font-size="10.00">+</text>
<text text-anchor="start" x="417" y="-484.5" font-family="Helvetica,sans-Serif" font-size="10.00">addFoul()</text>
<text text-anchor="start" x="396" y="-469.5" font-family="Helvetica,sans-Serif" font-size="10.00">+</text>
<text text-anchor="start" x="417" y="-469.5" font-family="Helvetica,sans-Serif" font-size="10.00">getDate()</text>
<text text-anchor="start" x="396" y="-454.5" font-family="Helvetica,sans-Serif" font-size="10.00">+</text>
<text text-anchor="start" x="417" y="-454.5" font-family="Helvetica,sans-Serif" font-size="10.00">getDetails()</text>
<text text-anchor="start" x="396" y="-439.5" font-family="Helvetica,sans-Serif" font-size="10.00">+</text>
<text text-anchor="start" x="417" y="-439.5" font-family="Helvetica,sans-Serif" font-size="10.00">getFouls()</text>
<text text-anchor="start" x="396" y="-424.5" font-family="Helvetica,sans-Serif" font-size="10.00">+</text>
<text text-anchor="start" x="417" y="-424.5" font-family="Helvetica,sans-Serif" font-size="10.00">getNumber()</text>
<text text-anchor="start" x="396" y="-409.5" font-family="Helvetica,sans-Serif" font-size="10.00">+</text>
<text text-anchor="start" x="417" y="-409.5" font-family="Helvetica,sans-Serif" font-size="10.00">getOwnPoints()</text>
<text text-anchor="start" x="396" y="-394.5" font-family="Helvetica,sans-Serif" font-size="10.00">+</text>
<text text-anchor="start" x="417" y="-394.5" font-family="Helvetica,sans-Serif" font-size="10.00">getPlayerPoints()</text>
<text text-anchor="start" x="396" y="-379.5" font-family="Helvetica,sans-Serif" font-size="10.00">+</text>
<text text-anchor="start" x="417" y="-379.5" font-family="Helvetica,sans-Serif" font-size="10.00">getPlayers()</text>
<text text-anchor="start" x="396" y="-364.5" font-family="Helvetica,sans-Serif" font-size="10.00">+</text>
<text text-anchor="start" x="417" y="-364.5" font-family="Helvetica,sans-Serif" font-size="10.00">getRivalPoints()</text>
<text text-anchor="start" x="396" y="-349.5" font-family="Helvetica,sans-Serif" font-size="10.00">+</text>
<text text-anchor="start" x="417" y="-349.5" font-family="Helvetica,sans-Serif" font-size="10.00">getType()</text>
<text text-anchor="start" x="396" y="-334.5" font-family="Helvetica,sans-Serif" font-size="10.00">+</text>
<text text-anchor="start" x="417" y="-334.5" font-family="Helvetica,sans-Serif" font-size="10.00">getWinner()</text>
<text text-anchor="start" x="396" y="-319.5" font-family="Helvetica,sans-Serif" font-size="10.00">+</text>
<text text-anchor="start" x="417" y="-319.5" font-family="Helvetica,sans-Serif" font-size="10.00">isDateValid()</text>
<text text-anchor="start" x="396" y="-304.5" font-family="Helvetica,sans-Serif" font-size="10.00">#</text>
<text text-anchor="start" x="417" y="-304.5" font-family="Helvetica,sans-Serif" font-size="10.00">isOwnTeamWinner()</text>
<text text-anchor="start" x="396" y="-289.5" font-family="Helvetica,sans-Serif" font-size="10.00">#</text>
<text text-anchor="start" x="417" y="-289.5" font-family="Helvetica,sans-Serif" font-size="10.00">calculatePoints()</text>
<polygon fill="#666666" stroke="#666666" points="384,-539.5 384,-539.5 537,-539.5 537,-539.5 384,-539.5"/>
<polygon fill="#666666" stroke="#666666" points="384,-524.5 384,-524.5 537,-524.5 537,-524.5 384,-524.5"/>
<polygon fill="none" stroke="#666666" points="383.5,-283 383.5,-568 536.5,-568 536.5,-283 383.5,-283"/>
</a>
</g>
</g>
<!-- Node3&#45;&gt;Node9 -->
<g id="edge12_Node000009_Node000003" class="edge">
<title>Node3&#45;&gt;Node9</title>
<g id="a_edge12_Node000009_Node000003"><a xlink:title=" ">
<path fill="none" stroke="#63b8ff" d="M677.25,-657.75C672.61,-650.62 667.85,-643.66 663,-637 628.52,-589.7 583.93,-542.32 545.33,-504.51"/>
<polygon fill="none" stroke="#63b8ff" points="545.28,-504.47 538.19,-503.15 536.68,-496.1 543.77,-497.42 545.28,-504.47"/>
</a>
</g>
<text text-anchor="middle" x="679" y="-600" font-family="Helvetica,sans-Serif" font-size="10.00" fill="grey"> #playerList</text>
</g>
<!-- Node4 -->
<g id="Node000004" class="node">
<title>Node4</title>
<g id="a_Node000004"><a xlink:title=" ">
<polygon fill="white" stroke="transparent" points="617.5,-1101.5 564.5,-1101.5 564.5,-1052.5 617.5,-1052.5 617.5,-1101.5"/>
<text text-anchor="start" x="570" y="-1089" font-family="Helvetica,sans-Serif" font-size="10.00">static int</text>
<text text-anchor="start" x="589.5" y="-1074" font-family="Helvetica,sans-Serif" font-size="10.00"> </text>
<text text-anchor="start" x="589.5" y="-1059" font-family="Helvetica,sans-Serif" font-size="10.00"> </text>
<polygon fill="#666666" stroke="#666666" points="565,-1084 565,-1084 618,-1084 618,-1084 565,-1084"/>
<polygon fill="#666666" stroke="#666666" points="565,-1069 565,-1069 618,-1069 618,-1069 565,-1069"/>
<polygon fill="none" stroke="#666666" points="564.5,-1052.5 564.5,-1101.5 617.5,-1101.5 617.5,-1052.5 564.5,-1052.5"/>
</a>
</g>
</g>
<!-- Node4&#45;&gt;Node3 -->
<g id="edge3_Node000003_Node000004" class="edge">
<title>Node4&#45;&gt;Node3</title>
<g id="a_edge3_Node000003_Node000004"><a xlink:title=" ">
<path fill="none" stroke="#63b8ff" d="M607.66,-1052.16C622.68,-1030.34 645.1,-996.99 663,-967 665.78,-962.35 668.57,-957.6 671.36,-952.79"/>
<polygon fill="none" stroke="#63b8ff" points="671.48,-952.59 671,-945.39 677.46,-942.18 677.94,-949.38 671.48,-952.59"/>
</a>
</g>
<text text-anchor="middle" x="686" y="-1004.5" font-family="Helvetica,sans-Serif" font-size="10.00" fill="grey"> &#45;nextNumber</text>
</g>
<!-- Node4&#45;&gt;Node9 -->
<g id="edge9_Node000009_Node000004" class="edge">
<title>Node4&#45;&gt;Node9</title>
<g id="a_edge9_Node000009_Node000004"><a xlink:title=" ">
<path fill="none" stroke="#63b8ff" d="M592.79,-1052.16C597.11,-985.3 604.95,-790.85 564,-637 558.33,-615.71 550.43,-594.04 541.48,-573.08"/>
<polygon fill="none" stroke="#63b8ff" points="541.37,-572.84 535.3,-568.96 536.55,-561.85 542.63,-565.74 541.37,-572.84"/>
</a>
</g>
<text text-anchor="middle" x="631" y="-799.5" font-family="Helvetica,sans-Serif" font-size="10.00" fill="grey"> &#45;nextNumber</text>
</g>
<!-- Node5 -->
<g id="Node000005" class="node">
<title>Node5</title>
<g id="a_Node000005"><a xlink:title=" ">
<polygon fill="white" stroke="transparent" points="911.5,-1101.5 872.5,-1101.5 872.5,-1052.5 911.5,-1052.5 911.5,-1101.5"/>
<text text-anchor="start" x="878" y="-1089" font-family="Helvetica,sans-Serif" font-size="10.00">String</text>
<text text-anchor="start" x="890.5" y="-1074" font-family="Helvetica,sans-Serif" font-size="10.00"> </text>
<text text-anchor="start" x="890.5" y="-1059" font-family="Helvetica,sans-Serif" font-size="10.00"> </text>
<polygon fill="#666666" stroke="#666666" points="873,-1084 873,-1084 912,-1084 912,-1084 873,-1084"/>
<polygon fill="#666666" stroke="#666666" points="873,-1069 873,-1069 912,-1069 912,-1069 873,-1069"/>
<polygon fill="none" stroke="#666666" points="872.5,-1052.5 872.5,-1101.5 911.5,-1101.5 911.5,-1052.5 872.5,-1052.5"/>
</a>
</g>
</g>
<!-- Node5&#45;&gt;Node3 -->
<g id="edge4_Node000003_Node000005" class="edge">
<title>Node5&#45;&gt;Node3</title>
<g id="a_edge4_Node000003_Node000005"><a xlink:title=" ">
<path fill="none" stroke="#63b8ff" d="M879.73,-1052.25C868.15,-1029.82 849.7,-994.1 830.35,-956.64"/>
<polygon fill="none" stroke="#63b8ff" points="830.11,-956.17 823.8,-952.67 824.6,-945.51 830.91,-949 830.11,-956.17"/>
</a>
</g>
<text text-anchor="middle" x="885" y="-1004.5" font-family="Helvetica,sans-Serif" font-size="10.00" fill="grey"> #name</text>
</g>
<!-- Node6 -->
<g id="Node000006" class="node">
<title>Node6</title>
<g id="a_Node000006"><a xlink:title=" ">
<polygon fill="white" stroke="transparent" points="959.5,-1101.5 936.5,-1101.5 936.5,-1052.5 959.5,-1052.5 959.5,-1101.5"/>
<text text-anchor="start" x="942" y="-1089" font-family="Helvetica,sans-Serif" font-size="10.00">int</text>
<text text-anchor="start" x="946.5" y="-1074" font-family="Helvetica,sans-Serif" font-size="10.00"> </text>
<text text-anchor="start" x="946.5" y="-1059" font-family="Helvetica,sans-Serif" font-size="10.00"> </text>
<polygon fill="#666666" stroke="#666666" points="937,-1084 937,-1084 960,-1084 960,-1084 937,-1084"/>
<polygon fill="#666666" stroke="#666666" points="937,-1069 937,-1069 960,-1069 960,-1069 937,-1069"/>
<polygon fill="none" stroke="#666666" points="936.5,-1052.5 936.5,-1101.5 959.5,-1101.5 959.5,-1052.5 936.5,-1052.5"/>
</a>
</g>
</g>
<!-- Node6&#45;&gt;Node3 -->
<g id="edge5_Node000003_Node000006" class="edge">
<title>Node6&#45;&gt;Node3</title>
<g id="a_edge5_Node000003_Node000006"><a xlink:title=" ">
<path fill="none" stroke="#63b8ff" d="M940.11,-1052.2C933.29,-1033.24 922.42,-1006.41 909,-985 887.35,-950.46 859.3,-915.85 832.85,-886.23"/>
<polygon fill="none" stroke="#63b8ff" points="832.74,-886.11 825.75,-884.34 824.7,-877.2 831.69,-878.98 832.74,-886.11"/>
</a>
</g>
<text text-anchor="middle" x="953" y="-1021" font-family="Helvetica,sans-Serif" font-size="10.00" fill="grey"> #height</text>
<text text-anchor="middle" x="953" y="-1010" font-family="Helvetica,sans-Serif" font-size="10.00" fill="grey">#number</text>
<text text-anchor="middle" x="953" y="-999" font-family="Helvetica,sans-Serif" font-size="10.00" fill="grey">#points</text>
<text text-anchor="middle" x="953" y="-988" font-family="Helvetica,sans-Serif" font-size="10.00" fill="grey">#skill</text>
</g>
<!-- Node7 -->
<g id="Node000007" class="node">
<title>Node7</title>
<g id="a_Node000007"><a xlink:title=" ">
<polygon fill="white" stroke="transparent" points="854.5,-1107 635.5,-1107 635.5,-1047 854.5,-1047 854.5,-1107"/>
<text text-anchor="start" x="641" y="-1095" font-family="Helvetica,sans-Serif" font-size="10.00">ObservableList&lt; es.alrodmue.model.fouls.</text>
<text text-anchor="start" x="729.5" y="-1084" font-family="Helvetica,sans-Serif" font-size="10.00">Foul &gt;</text>
<text text-anchor="start" x="743.5" y="-1069" font-family="Helvetica,sans-Serif" font-size="10.00"> </text>
<text text-anchor="start" x="743.5" y="-1054" font-family="Helvetica,sans-Serif" font-size="10.00"> </text>
<polygon fill="#666666" stroke="#666666" points="636,-1079 636,-1079 855,-1079 855,-1079 636,-1079"/>
<polygon fill="#666666" stroke="#666666" points="636,-1064 636,-1064 855,-1064 855,-1064 636,-1064"/>
<polygon fill="none" stroke="#666666" points="635.5,-1047 635.5,-1107 854.5,-1107 854.5,-1047 635.5,-1047"/>
</a>
</g>
</g>
<!-- Node7&#45;&gt;Node3 -->
<g id="edge6_Node000003_Node000007" class="edge">
<title>Node7&#45;&gt;Node3</title>
<g id="a_edge6_Node000003_Node000007"><a xlink:title=" ">
<path fill="none" stroke="#63b8ff" d="M745.64,-1046.78C746.03,-1029.25 746.55,-1005.33 747.13,-979.3"/>
<polygon fill="none" stroke="#63b8ff" points="747.13,-979.21 743.26,-973.12 747.39,-967.21 751.26,-973.29 747.13,-979.21"/>
</a>
</g>
<text text-anchor="middle" x="764" y="-1004.5" font-family="Helvetica,sans-Serif" font-size="10.00" fill="grey"> #fouls</text>
</g>
<!-- Node8 -->
<g id="Node000008" class="node">
<title>Node8</title>
<g id="a_Node000008"><a xlink:title=" ">
<polygon fill="white" stroke="transparent" points="786.5,-1214 703.5,-1214 703.5,-1165 786.5,-1165 786.5,-1214"/>
<text text-anchor="start" x="709" y="-1201.5" font-family="Helvetica,sans-Serif" font-size="10.00">ObservableList</text>
<text text-anchor="start" x="743.5" y="-1186.5" font-family="Helvetica,sans-Serif" font-size="10.00"> </text>
<text text-anchor="start" x="743.5" y="-1171.5" font-family="Helvetica,sans-Serif" font-size="10.00"> </text>
<polygon fill="#666666" stroke="#666666" points="704,-1196.5 704,-1196.5 787,-1196.5 787,-1196.5 704,-1196.5"/>
<polygon fill="#666666" stroke="#666666" points="704,-1181.5 704,-1181.5 787,-1181.5 787,-1181.5 704,-1181.5"/>
<polygon fill="none" stroke="#666666" points="703.5,-1165 703.5,-1214 786.5,-1214 786.5,-1165 703.5,-1165"/>
</a>
</g>
</g>
<!-- Node8&#45;&gt;Node7 -->
<g id="edge7_Node000007_Node000008" class="edge">
<title>Node8&#45;&gt;Node7</title>
<g id="a_edge7_Node000007_Node000008"><a xlink:title=" ">
<path fill="none" stroke="orange" d="M745,-1154.75C745,-1139.56 745,-1121.79 745,-1107.17"/>
<polygon fill="orange" stroke="orange" points="741.5,-1154.79 745,-1164.79 748.5,-1154.8 741.5,-1154.79"/>
</a>
</g>
<text text-anchor="start" x="745" y="-1139" font-family="Helvetica,sans-Serif" font-size="10.00" fill="grey"> &lt; es::alrodmue::model</text>
<text text-anchor="middle" x="802.5" y="-1128" font-family="Helvetica,sans-Serif" font-size="10.00" fill="grey">::fouls::Foul &gt;</text>
</g>
<!-- Node9&#45;&gt;Node2 -->
<g id="edge8_Node000002_Node000009" class="edge">
<title>Node9&#45;&gt;Node2</title>
<g id="a_edge8_Node000002_Node000009"><a xlink:title=" ">
<path fill="none" stroke="#63b8ff" d="M536.71,-304.13C549.31,-284.36 562.01,-264.43 573.53,-246.35"/>
<polygon fill="none" stroke="#63b8ff" points="573.54,-246.34 573.39,-239.13 579.99,-236.22 580.14,-243.43 573.54,-246.34"/>
</a>
</g>
<text text-anchor="middle" x="589.5" y="-257" font-family="Helvetica,sans-Serif" font-size="10.00" fill="grey"> #match</text>
</g>
<!-- Node10 -->
<g id="Node000010" class="node">
<title>Node10</title>
<g id="a_Node000010"><a xlink:title=" ">
<polygon fill="white" stroke="transparent" points="269.5,-826.5 222.5,-826.5 222.5,-777.5 269.5,-777.5 269.5,-826.5"/>
<text text-anchor="start" x="228" y="-814" font-family="Helvetica,sans-Serif" font-size="10.00">final int</text>
<text text-anchor="start" x="244.5" y="-799" font-family="Helvetica,sans-Serif" font-size="10.00"> </text>
<text text-anchor="start" x="244.5" y="-784" font-family="Helvetica,sans-Serif" font-size="10.00"> </text>
<polygon fill="#666666" stroke="#666666" points="223,-809 223,-809 270,-809 270,-809 223,-809"/>
<polygon fill="#666666" stroke="#666666" points="223,-794 223,-794 270,-794 270,-794 223,-794"/>
<polygon fill="none" stroke="#666666" points="222.5,-777.5 222.5,-826.5 269.5,-826.5 269.5,-777.5 222.5,-777.5"/>
</a>
</g>
</g>
<!-- Node10&#45;&gt;Node9 -->
<g id="edge10_Node000009_Node000010" class="edge">
<title>Node10&#45;&gt;Node9</title>
<g id="a_edge10_Node000009_Node000010"><a xlink:title=" ">
<path fill="none" stroke="#63b8ff" d="M246.81,-777.18C249.33,-735.03 259.55,-646.1 301,-586 321.84,-555.78 348.78,-526.27 374.54,-501.02"/>
<polygon fill="none" stroke="#63b8ff" points="374.6,-500.97 376.13,-493.92 383.22,-492.63 381.69,-499.67 374.6,-500.97"/>
</a>
</g>
<text text-anchor="middle" x="331.5" y="-611" font-family="Helvetica,sans-Serif" font-size="10.00" fill="grey"> #number</text>
<text text-anchor="middle" x="331.5" y="-600" font-family="Helvetica,sans-Serif" font-size="10.00" fill="grey">#ownPoints</text>
<text text-anchor="middle" x="331.5" y="-589" font-family="Helvetica,sans-Serif" font-size="10.00" fill="grey">#rivalPoints</text>
</g>
<!-- Node11 -->
<g id="Node000011" class="node">
<title>Node11</title>
<g id="a_Node000011"><a xlink:title=" ">
<polygon fill="white" stroke="transparent" points="346.5,-826.5 287.5,-826.5 287.5,-777.5 346.5,-777.5 346.5,-826.5"/>
<text text-anchor="start" x="293" y="-814" font-family="Helvetica,sans-Serif" font-size="10.00">LocalDate</text>
<text text-anchor="start" x="315.5" y="-799" font-family="Helvetica,sans-Serif" font-size="10.00"> </text>
<text text-anchor="start" x="315.5" y="-784" font-family="Helvetica,sans-Serif" font-size="10.00"> </text>
<polygon fill="#666666" stroke="#666666" points="288,-809 288,-809 347,-809 347,-809 288,-809"/>
<polygon fill="#666666" stroke="#666666" points="288,-794 288,-794 347,-794 347,-794 288,-794"/>
<polygon fill="none" stroke="#666666" points="287.5,-777.5 287.5,-826.5 346.5,-826.5 346.5,-777.5 287.5,-777.5"/>
</a>
</g>
</g>
<!-- Node11&#45;&gt;Node9 -->
<g id="edge11_Node000009_Node000011" class="edge">
<title>Node11&#45;&gt;Node9</title>
<g id="a_edge11_Node000009_Node000011"><a xlink:title=" ">
<path fill="none" stroke="#63b8ff" d="M320.88,-777.43C326.58,-745.14 338.47,-685.59 356,-637 362.88,-617.92 371.02,-598.3 379.66,-579.08"/>
<polygon fill="none" stroke="#63b8ff" points="379.67,-579.05 378.53,-571.93 384.66,-568.13 385.8,-575.25 379.67,-579.05"/>
</a>
</g>
<text text-anchor="middle" x="393" y="-600" font-family="Helvetica,sans-Serif" font-size="10.00" fill="grey"> #date</text>
</g>
<!-- Node12 -->
<g id="Node000012" class="node">
<title>Node12</title>
<g id="a_Node000012"><a xlink:title=" ">
<polygon fill="white" stroke="transparent" points="204,-832 0,-832 0,-772 204,-772 204,-832"/>
<text text-anchor="start" x="5" y="-820" font-family="Helvetica,sans-Serif" font-size="10.00">HashMap&lt; es.alrodmue.model.players.</text>
<text text-anchor="start" x="60.5" y="-809" font-family="Helvetica,sans-Serif" font-size="10.00">Player, Integer &gt;</text>
<text text-anchor="start" x="100" y="-794" font-family="Helvetica,sans-Serif" font-size="10.00"> </text>
<text text-anchor="start" x="100" y="-779" font-family="Helvetica,sans-Serif" font-size="10.00"> </text>
<polygon fill="#666666" stroke="#666666" points="0,-804 0,-804 204,-804 204,-804 0,-804"/>
<polygon fill="#666666" stroke="#666666" points="0,-789 0,-789 204,-789 204,-789 0,-789"/>
<polygon fill="none" stroke="#666666" points="0,-772 0,-832 204,-832 204,-772 0,-772"/>
</a>
</g>
</g>
<!-- Node12&#45;&gt;Node9 -->
<g id="edge13_Node000009_Node000012" class="edge">
<title>Node12&#45;&gt;Node9</title>
<g id="a_edge13_Node000009_Node000012"><a xlink:title=" ">
<path fill="none" stroke="#63b8ff" d="M110.48,-771.96C124.57,-727.67 156.37,-642.43 207,-586 253.07,-534.66 319.45,-493.65 372.67,-466.08"/>
<polygon fill="none" stroke="#63b8ff" points="372.77,-466.02 376.3,-459.73 383.46,-460.57 379.94,-466.86 372.77,-466.02"/>
</a>
</g>
<text text-anchor="middle" x="243.5" y="-600" font-family="Helvetica,sans-Serif" font-size="10.00" fill="grey"> #playerPoints</text>
</g>
<!-- Node13 -->
<g id="Node000013" class="node">
<title>Node13</title>
<g id="a_Node000013"><a xlink:title=" ">
<polygon fill="white" stroke="transparent" points="130,-1101.5 74,-1101.5 74,-1052.5 130,-1052.5 130,-1101.5"/>
<text text-anchor="start" x="79" y="-1089" font-family="Helvetica,sans-Serif" font-size="10.00">HashMap</text>
<text text-anchor="start" x="100" y="-1074" font-family="Helvetica,sans-Serif" font-size="10.00"> </text>
<text text-anchor="start" x="100" y="-1059" font-family="Helvetica,sans-Serif" font-size="10.00"> </text>
<polygon fill="#666666" stroke="#666666" points="74,-1084 74,-1084 130,-1084 130,-1084 74,-1084"/>
<polygon fill="#666666" stroke="#666666" points="74,-1069 74,-1069 130,-1069 130,-1069 74,-1069"/>
<polygon fill="none" stroke="#666666" points="74,-1052.5 74,-1101.5 130,-1101.5 130,-1052.5 74,-1052.5"/>
</a>
</g>
</g>
<!-- Node13&#45;&gt;Node12 -->
<g id="edge14_Node000012_Node000013" class="edge">
<title>Node13&#45;&gt;Node12</title>
<g id="a_edge14_Node000012_Node000013"><a xlink:title=" ">
<path fill="none" stroke="orange" d="M102,-1042.15C102,-988.08 102,-883.14 102,-832.18"/>
<polygon fill="orange" stroke="orange" points="98.5,-1042.25 102,-1052.25 105.5,-1042.25 98.5,-1042.25"/>
</a>
</g>
<text text-anchor="start" x="102" y="-1010" font-family="Helvetica,sans-Serif" font-size="10.00" fill="grey"> &lt; es::alrodmue::model</text>
<text text-anchor="middle" x="167.5" y="-999" font-family="Helvetica,sans-Serif" font-size="10.00" fill="grey">::players::Player, Integer &gt;</text>
</g>
<!-- Node14 -->
<g id="Node000014" class="node">
<title>Node14</title>
<g id="a_Node000014"><a xlink:title=" ">
<polygon fill="white" stroke="transparent" points="555,-832 365,-832 365,-772 555,-772 555,-832"/>
<text text-anchor="start" x="370" y="-820" font-family="Helvetica,sans-Serif" font-size="10.00">ArrayList&lt; es.alrodmue.model.fouls.</text>
<text text-anchor="start" x="444" y="-809" font-family="Helvetica,sans-Serif" font-size="10.00">Foul &gt;</text>
<text text-anchor="start" x="458" y="-794" font-family="Helvetica,sans-Serif" font-size="10.00"> </text>
<text text-anchor="start" x="458" y="-779" font-family="Helvetica,sans-Serif" font-size="10.00"> </text>
<polygon fill="#666666" stroke="#666666" points="365,-804 365,-804 555,-804 555,-804 365,-804"/>
<polygon fill="#666666" stroke="#666666" points="365,-789 365,-789 555,-789 555,-789 365,-789"/>
<polygon fill="none" stroke="#666666" points="365,-772 365,-832 555,-832 555,-772 365,-772"/>
</a>
</g>
</g>
<!-- Node14&#45;&gt;Node9 -->
<g id="edge15_Node000009_Node000014" class="edge">
<title>Node14&#45;&gt;Node9</title>
<g id="a_edge15_Node000009_Node000014"><a xlink:title=" ">
<path fill="none" stroke="#63b8ff" d="M460,-771.93C460,-730.74 460,-652.44 460,-580.79"/>
<polygon fill="none" stroke="#63b8ff" points="460,-580.43 456,-574.43 460,-568.43 464,-574.43 460,-580.43"/>
</a>
</g>
<text text-anchor="middle" x="478" y="-600" font-family="Helvetica,sans-Serif" font-size="10.00" fill="grey"> #fouls</text>
</g>
<!-- Node15 -->
<g id="Node000015" class="node">
<title>Node15</title>
<g id="a_Node000015"><a xlink:title=" ">
<polygon fill="white" stroke="transparent" points="487,-1101.5 433,-1101.5 433,-1052.5 487,-1052.5 487,-1101.5"/>
<text text-anchor="start" x="438" y="-1089" font-family="Helvetica,sans-Serif" font-size="10.00">ArrayList</text>
<text text-anchor="start" x="458" y="-1074" font-family="Helvetica,sans-Serif" font-size="10.00"> </text>
<text text-anchor="start" x="458" y="-1059" font-family="Helvetica,sans-Serif" font-size="10.00"> </text>
<polygon fill="#666666" stroke="#666666" points="433,-1084 433,-1084 487,-1084 487,-1084 433,-1084"/>
<polygon fill="#666666" stroke="#666666" points="433,-1069 433,-1069 487,-1069 487,-1069 433,-1069"/>
<polygon fill="none" stroke="#666666" points="433,-1052.5 433,-1101.5 487,-1101.5 487,-1052.5 433,-1052.5"/>
</a>
</g>
</g>
<!-- Node15&#45;&gt;Node14 -->
<g id="edge16_Node000014_Node000015" class="edge">
<title>Node15&#45;&gt;Node14</title>
<g id="a_edge16_Node000014_Node000015"><a xlink:title=" ">
<path fill="none" stroke="orange" d="M460,-1042.15C460,-988.08 460,-883.14 460,-832.18"/>
<polygon fill="orange" stroke="orange" points="456.5,-1042.25 460,-1052.25 463.5,-1042.25 456.5,-1042.25"/>
</a>
</g>
<text text-anchor="start" x="460" y="-1010" font-family="Helvetica,sans-Serif" font-size="10.00" fill="grey"> &lt; es::alrodmue::model</text>
<text text-anchor="middle" x="517.5" y="-999" font-family="Helvetica,sans-Serif" font-size="10.00" fill="grey">::fouls::Foul &gt;</text>
</g>
</g>
</svg>
