<?xml version="1.0" encoding="UTF-8" standalone="no"?>
<!DOCTYPE svg PUBLIC "-//W3C//DTD SVG 1.1//EN"
 "http://www.w3.org/Graphics/SVG/1.1/DTD/svg11.dtd">
<!-- Generated by graphviz version 2.43.0 (0)
 -->
<!-- Title: es.alrodmue.controller.MatchController.playMatch Pages: 1 -->
<svg width="570pt" height="508pt"
 viewBox="0.00 0.00 570.00 508.00" xmlns="http://www.w3.org/2000/svg" xmlns:xlink="http://www.w3.org/1999/xlink">
<g id="graph0" class="graph" transform="scale(1 1) rotate(0) translate(4 504)">
<title>es.alrodmue.controller.MatchController.playMatch</title>
<!-- Node1 -->
<g id="Node000001" class="node">
<title>Node1</title>
<g id="a_Node000001"><a xlink:title=" ">
<polygon fill="#999999" stroke="#666666" points="159,-270 0,-270 0,-240 159,-240 159,-270"/>
<text text-anchor="start" x="8" y="-258" font-family="Helvetica,sans-Serif" font-size="10.00">es.alrodmue.controller.Match</text>
<text text-anchor="middle" x="79.5" y="-247" font-family="Helvetica,sans-Serif" font-size="10.00">Controller.playMatch</text>
</a>
</g>
</g>
<!-- Node2 -->
<g id="Node000002" class="node">
<title>Node2</title>
<g id="a_Node000002"><a xlink:href="classes_1_1alrodmue_1_1model_1_1Team.xhtml#ac882a9cbf64c23e15bf1fd319c6e5e40" target="_top" xlink:title=" ">
<polygon fill="white" stroke="#666666" points="356,-500 195,-500 195,-470 356,-470 356,-500"/>
<text text-anchor="start" x="203" y="-488" font-family="Helvetica,sans-Serif" font-size="10.00">es.alrodmue.model.Team.add</text>
<text text-anchor="middle" x="275.5" y="-477" font-family="Helvetica,sans-Serif" font-size="10.00">Match</text>
</a>
</g>
</g>
<!-- Node1&#45;&gt;Node2 -->
<g id="edge1_Node000001_Node000002" class="edge">
<title>Node1&#45;&gt;Node2</title>
<g id="a_edge1_Node000001_Node000002"><a xlink:title=" ">
<path fill="none" stroke="#63b8ff" d="M84.55,-270C95.55,-307.93 129.69,-408.37 195,-461 196.6,-462.29 198.27,-463.51 199.99,-464.66"/>
<polygon fill="#63b8ff" stroke="#63b8ff" points="198.61,-467.91 209.01,-469.91 202.13,-461.86 198.61,-467.91"/>
</a>
</g>
</g>
<!-- Node3 -->
<g id="Node000003" class="node">
<title>Node3</title>
<g id="a_Node000003"><a xlink:href="classes_1_1alrodmue_1_1App.xhtml#a2d1fc08b3be857d074130a197f2bc7ab" target="_top" xlink:title=" ">
<polygon fill="white" stroke="#666666" points="354.5,-451.5 196.5,-451.5 196.5,-432.5 354.5,-432.5 354.5,-451.5"/>
<text text-anchor="middle" x="275.5" y="-439.5" font-family="Helvetica,sans-Serif" font-size="10.00">es.alrodmue.App.closeModal</text>
</a>
</g>
</g>
<!-- Node1&#45;&gt;Node3 -->
<g id="edge2_Node000001_Node000003" class="edge">
<title>Node1&#45;&gt;Node3</title>
<g id="a_edge2_Node000001_Node000003"><a xlink:title=" ">
<path fill="none" stroke="#63b8ff" d="M86.3,-270.1C99.87,-303.33 137.03,-383.03 195,-423 197.89,-424.99 200.97,-426.78 204.16,-428.38"/>
<polygon fill="#63b8ff" stroke="#63b8ff" points="202.88,-431.64 213.44,-432.41 205.67,-425.22 202.88,-431.64"/>
</a>
</g>
</g>
<!-- Node4 -->
<g id="Node000004" class="node">
<title>Node4</title>
<g id="a_Node000004"><a xlink:href="classes_1_1alrodmue_1_1model_1_1factories_1_1MatchFactory.xhtml#a36775be085051f997996c57dd4f68dbc" target="_top" xlink:title=" ">
<polygon fill="white" stroke="#666666" points="355.5,-414 195.5,-414 195.5,-384 355.5,-384 355.5,-414"/>
<text text-anchor="start" x="203.5" y="-402" font-family="Helvetica,sans-Serif" font-size="10.00">es.alrodmue.model.factories.</text>
<text text-anchor="middle" x="275.5" y="-391" font-family="Helvetica,sans-Serif" font-size="10.00">MatchFactory.create</text>
</a>
</g>
</g>
<!-- Node1&#45;&gt;Node4 -->
<g id="edge3_Node000001_Node000004" class="edge">
<title>Node1&#45;&gt;Node4</title>
<g id="a_edge3_Node000001_Node000004"><a xlink:title=" ">
<path fill="none" stroke="#63b8ff" d="M90.97,-270.31C109.17,-295.77 149.12,-346.81 195,-375 197.76,-376.7 200.66,-378.28 203.63,-379.76"/>
<polygon fill="#63b8ff" stroke="#63b8ff" points="202.22,-382.96 212.77,-383.89 205.1,-376.58 202.22,-382.96"/>
</a>
</g>
</g>
<!-- Node5 -->
<g id="Node000005" class="node">
<title>Node5</title>
<g id="a_Node000005"><a xlink:href="classes_1_1alrodmue_1_1model_1_1matches_1_1Match.xhtml#a1b8769f3b150aed8261c2deb95fa8be7" target="_top" xlink:title=" ">
<polygon fill="white" stroke="#666666" points="355,-366 196,-366 196,-336 355,-336 355,-366"/>
<text text-anchor="start" x="204" y="-354" font-family="Helvetica,sans-Serif" font-size="10.00">es.alrodmue.model.matches.</text>
<text text-anchor="middle" x="275.5" y="-343" font-family="Helvetica,sans-Serif" font-size="10.00">Match.getDetails</text>
</a>
</g>
</g>
<!-- Node1&#45;&gt;Node5 -->
<g id="edge4_Node000001_Node000005" class="edge">
<title>Node1&#45;&gt;Node5</title>
<g id="a_edge4_Node000001_Node000005"><a xlink:title=" ">
<path fill="none" stroke="#63b8ff" d="M100.65,-270.03C122.82,-285.98 159.95,-311.04 195,-327 199.28,-328.95 203.77,-330.79 208.34,-332.53"/>
<polygon fill="#63b8ff" stroke="#63b8ff" points="207.18,-335.83 217.78,-335.92 209.55,-329.25 207.18,-335.83"/>
</a>
</g>
</g>
<!-- Node8 -->
<g id="Node000008" class="node">
<title>Node8</title>
<g id="a_Node000008"><a xlink:href="classes_1_1alrodmue_1_1model_1_1matches_1_1Match.xhtml#a09105037c1736ab2bbaf0d3bef410b92" target="_top" xlink:title=" ">
<polygon fill="white" stroke="#666666" points="355,-318 196,-318 196,-288 355,-288 355,-318"/>
<text text-anchor="start" x="204" y="-306" font-family="Helvetica,sans-Serif" font-size="10.00">es.alrodmue.model.matches.</text>
<text text-anchor="middle" x="275.5" y="-295" font-family="Helvetica,sans-Serif" font-size="10.00">Match.getFouls</text>
</a>
</g>
</g>
<!-- Node1&#45;&gt;Node8 -->
<g id="edge7_Node000001_Node000008" class="edge">
<title>Node1&#45;&gt;Node8</title>
<g id="a_edge7_Node000001_Node000008"><a xlink:title=" ">
<path fill="none" stroke="#63b8ff" d="M141.35,-270.06C161.21,-274.97 183.44,-280.47 203.95,-285.54"/>
<polygon fill="#63b8ff" stroke="#63b8ff" points="203.32,-288.99 213.87,-288 205,-282.2 203.32,-288.99"/>
</a>
</g>
</g>
<!-- Node9 -->
<g id="Node000009" class="node">
<title>Node9</title>
<g id="a_Node000009"><a xlink:href="classes_1_1alrodmue_1_1model_1_1factories_1_1MatchFactory.xhtml#a25e27ed717f6b139a6d960f9dd57c9bd" target="_top" xlink:title=" ">
<polygon fill="white" stroke="#666666" points="355.5,-270 195.5,-270 195.5,-240 355.5,-240 355.5,-270"/>
<text text-anchor="start" x="203.5" y="-258" font-family="Helvetica,sans-Serif" font-size="10.00">es.alrodmue.model.factories.</text>
<text text-anchor="middle" x="275.5" y="-247" font-family="Helvetica,sans-Serif" font-size="10.00">MatchFactory.getInstance</text>
</a>
</g>
</g>
<!-- Node1&#45;&gt;Node9 -->
<g id="edge8_Node000001_Node000009" class="edge">
<title>Node1&#45;&gt;Node9</title>
<g id="a_edge8_Node000001_Node000009"><a xlink:title=" ">
<path fill="none" stroke="#63b8ff" d="M159.13,-255C167.73,-255 176.54,-255 185.26,-255"/>
<polygon fill="#63b8ff" stroke="#63b8ff" points="185.45,-258.5 195.45,-255 185.45,-251.5 185.45,-258.5"/>
</a>
</g>
</g>
<!-- Node11 -->
<g id="Node000011" class="node">
<title>Node11</title>
<g id="a_Node000011"><a xlink:href="classes_1_1alrodmue_1_1model_1_1Team.xhtml#a7301e45c0f5b85a4d03cd04e758cd97d" target="_top" xlink:title=" ">
<polygon fill="white" stroke="#666666" points="355,-222 196,-222 196,-192 355,-192 355,-222"/>
<text text-anchor="start" x="204" y="-210" font-family="Helvetica,sans-Serif" font-size="10.00">es.alrodmue.model.Team.get</text>
<text text-anchor="middle" x="275.5" y="-199" font-family="Helvetica,sans-Serif" font-size="10.00">Instance</text>
</a>
</g>
</g>
<!-- Node1&#45;&gt;Node11 -->
<g id="edge10_Node000001_Node000011" class="edge">
<title>Node1&#45;&gt;Node11</title>
<g id="a_edge10_Node000001_Node000011"><a xlink:title=" ">
<path fill="none" stroke="#63b8ff" d="M141.35,-239.94C161.21,-235.03 183.44,-229.53 203.95,-224.46"/>
<polygon fill="#63b8ff" stroke="#63b8ff" points="205,-227.8 213.87,-222 203.32,-221.01 205,-227.8"/>
</a>
</g>
</g>
<!-- Node13 -->
<g id="Node000013" class="node">
<title>Node13</title>
<g id="a_Node000013"><a xlink:href="classes_1_1alrodmue_1_1model_1_1Team.xhtml#aa0ae6df93bd95ace80e7f93d7607e2c9" target="_top" xlink:title=" ">
<polygon fill="white" stroke="#666666" points="355,-174 196,-174 196,-144 355,-144 355,-174"/>
<text text-anchor="start" x="204" y="-162" font-family="Helvetica,sans-Serif" font-size="10.00">es.alrodmue.model.Team.get</text>
<text text-anchor="middle" x="275.5" y="-151" font-family="Helvetica,sans-Serif" font-size="10.00">PlayerList</text>
</a>
</g>
</g>
<!-- Node1&#45;&gt;Node13 -->
<g id="edge12_Node000001_Node000013" class="edge">
<title>Node1&#45;&gt;Node13</title>
<g id="a_edge12_Node000001_Node000013"><a xlink:title=" ">
<path fill="none" stroke="#63b8ff" d="M100.65,-239.97C122.82,-224.02 159.95,-198.96 195,-183 199.28,-181.05 203.77,-179.21 208.34,-177.47"/>
<polygon fill="#63b8ff" stroke="#63b8ff" points="209.55,-180.75 217.78,-174.08 207.18,-174.17 209.55,-180.75"/>
</a>
</g>
</g>
<!-- Node14 -->
<g id="Node000014" class="node">
<title>Node14</title>
<g id="a_Node000014"><a xlink:href="classes_1_1alrodmue_1_1model_1_1matches_1_1Match.xhtml#a8f0eec5935e30674be9d41c611b92137" target="_top" xlink:title=" ">
<polygon fill="white" stroke="#666666" points="355,-126 196,-126 196,-96 355,-96 355,-126"/>
<text text-anchor="start" x="204" y="-114" font-family="Helvetica,sans-Serif" font-size="10.00">es.alrodmue.model.matches.</text>
<text text-anchor="middle" x="275.5" y="-103" font-family="Helvetica,sans-Serif" font-size="10.00">Match.getPlayerPoints</text>
</a>
</g>
</g>
<!-- Node1&#45;&gt;Node14 -->
<g id="edge13_Node000001_Node000014" class="edge">
<title>Node1&#45;&gt;Node14</title>
<g id="a_edge13_Node000001_Node000014"><a xlink:title=" ">
<path fill="none" stroke="#63b8ff" d="M90.97,-239.69C109.17,-214.23 149.12,-163.19 195,-135 197.76,-133.3 200.66,-131.72 203.63,-130.24"/>
<polygon fill="#63b8ff" stroke="#63b8ff" points="205.1,-133.42 212.77,-126.11 202.22,-127.04 205.1,-133.42"/>
</a>
</g>
</g>
<!-- Node15 -->
<g id="Node000015" class="node">
<title>Node15</title>
<g id="a_Node000015"><a xlink:href="classes_1_1alrodmue_1_1controller_1_1MatchController.xhtml#acabbacf0252370ef74ff8698035c2135" target="_top" xlink:title=" ">
<polygon fill="white" stroke="#666666" points="355,-78 196,-78 196,-48 355,-48 355,-78"/>
<text text-anchor="start" x="204" y="-66" font-family="Helvetica,sans-Serif" font-size="10.00">es.alrodmue.controller.Match</text>
<text text-anchor="middle" x="275.5" y="-55" font-family="Helvetica,sans-Serif" font-size="10.00">Controller.showError</text>
</a>
</g>
</g>
<!-- Node1&#45;&gt;Node15 -->
<g id="edge14_Node000001_Node000015" class="edge">
<title>Node1&#45;&gt;Node15</title>
<g id="a_edge14_Node000001_Node000015"><a xlink:title=" ">
<path fill="none" stroke="#63b8ff" d="M86.58,-239.9C100.59,-207.02 138.36,-128.54 195,-87 196.89,-85.61 198.86,-84.31 200.89,-83.08"/>
<polygon fill="#63b8ff" stroke="#63b8ff" points="202.97,-85.93 210.15,-78.14 199.68,-79.76 202.97,-85.93"/>
</a>
</g>
</g>
<!-- Node16 -->
<g id="Node000016" class="node">
<title>Node16</title>
<g id="a_Node000016"><a xlink:href="classes_1_1alrodmue_1_1controller_1_1MatchController.xhtml#a8445fd83e7a57496fe9ef21778263582" target="_top" xlink:title=" ">
<polygon fill="white" stroke="#666666" points="355,-30 196,-30 196,0 355,0 355,-30"/>
<text text-anchor="start" x="204" y="-18" font-family="Helvetica,sans-Serif" font-size="10.00">es.alrodmue.controller.Match</text>
<text text-anchor="middle" x="275.5" y="-7" font-family="Helvetica,sans-Serif" font-size="10.00">Controller.showInfo</text>
</a>
</g>
</g>
<!-- Node1&#45;&gt;Node16 -->
<g id="edge15_Node000001_Node000016" class="edge">
<title>Node1&#45;&gt;Node16</title>
<g id="a_edge15_Node000001_Node000016"><a xlink:title=" ">
<path fill="none" stroke="#63b8ff" d="M84.17,-239.86C94.48,-200.56 127.47,-94.54 195,-39 196.54,-37.73 198.16,-36.53 199.82,-35.39"/>
<polygon fill="#63b8ff" stroke="#63b8ff" points="201.74,-38.32 208.55,-30.2 198.16,-32.3 201.74,-38.32"/>
</a>
</g>
</g>
<!-- Node6 -->
<g id="Node000006" class="node">
<title>Node6</title>
<g id="a_Node000006"><a xlink:href="classes_1_1alrodmue_1_1model_1_1matches_1_1Match.xhtml#a18447422867e3fb9ac09a71c706db81f" target="_top" xlink:title=" ">
<polygon fill="white" stroke="#666666" points="556.5,-390 397.5,-390 397.5,-360 556.5,-360 556.5,-390"/>
<text text-anchor="start" x="405.5" y="-378" font-family="Helvetica,sans-Serif" font-size="10.00">es.alrodmue.model.matches.</text>
<text text-anchor="middle" x="477" y="-367" font-family="Helvetica,sans-Serif" font-size="10.00">Match.getType</text>
</a>
</g>
</g>
<!-- Node5&#45;&gt;Node6 -->
<g id="edge5_Node000005_Node000006" class="edge">
<title>Node5&#45;&gt;Node6</title>
<g id="a_edge5_Node000005_Node000006"><a xlink:title=" ">
<path fill="none" stroke="#63b8ff" d="M355.06,-360.45C365.56,-361.71 376.38,-363.02 387.03,-364.3"/>
<polygon fill="#63b8ff" stroke="#63b8ff" points="386.84,-367.8 397.18,-365.52 387.67,-360.85 386.84,-367.8"/>
</a>
</g>
</g>
<!-- Node7 -->
<g id="Node000007" class="node">
<title>Node7</title>
<g id="a_Node000007"><a xlink:href="classes_1_1alrodmue_1_1model_1_1matches_1_1Match.xhtml#af6551913e09c3ce7c8c7d705a75ffdb0" target="_top" xlink:title=" ">
<polygon fill="white" stroke="#666666" points="556.5,-342 397.5,-342 397.5,-312 556.5,-312 556.5,-342"/>
<text text-anchor="start" x="405.5" y="-330" font-family="Helvetica,sans-Serif" font-size="10.00">es.alrodmue.model.matches.</text>
<text text-anchor="middle" x="477" y="-319" font-family="Helvetica,sans-Serif" font-size="10.00">Match.getWinner</text>
</a>
</g>
</g>
<!-- Node5&#45;&gt;Node7 -->
<g id="edge6_Node000005_Node000007" class="edge">
<title>Node5&#45;&gt;Node7</title>
<g id="a_edge6_Node000005_Node000007"><a xlink:title=" ">
<path fill="none" stroke="#63b8ff" d="M355.06,-341.55C365.56,-340.29 376.38,-338.98 387.03,-337.7"/>
<polygon fill="#63b8ff" stroke="#63b8ff" points="387.67,-341.15 397.18,-336.48 386.84,-334.2 387.67,-341.15"/>
</a>
</g>
</g>
<!-- Node10 -->
<g id="Node000010" class="node">
<title>Node10</title>
<g id="a_Node000010"><a xlink:href="classes_1_1alrodmue_1_1model_1_1factories_1_1MatchFactory.xhtml#a790e3735b593b72239d3d7bf54bb28c0" target="_top" xlink:title=" ">
<polygon fill="white" stroke="#666666" points="557,-270 397,-270 397,-240 557,-240 557,-270"/>
<text text-anchor="start" x="405" y="-258" font-family="Helvetica,sans-Serif" font-size="10.00">es.alrodmue.model.factories.</text>
<text text-anchor="middle" x="477" y="-247" font-family="Helvetica,sans-Serif" font-size="10.00">MatchFactory.MatchFactory</text>
</a>
</g>
</g>
<!-- Node9&#45;&gt;Node10 -->
<g id="edge9_Node000009_Node000010" class="edge">
<title>Node9&#45;&gt;Node10</title>
<g id="a_edge9_Node000009_Node000010"><a xlink:title=" ">
<path fill="none" stroke="#63b8ff" d="M355.63,-255C365.83,-255 376.33,-255 386.68,-255"/>
<polygon fill="#63b8ff" stroke="#63b8ff" points="386.96,-258.5 396.96,-255 386.96,-251.5 386.96,-258.5"/>
</a>
</g>
</g>
<!-- Node12 -->
<g id="Node000012" class="node">
<title>Node12</title>
<g id="a_Node000012"><a xlink:href="classes_1_1alrodmue_1_1model_1_1Team.xhtml#ae04883a5648158af96bd5f695f924359" target="_top" xlink:title=" ">
<polygon fill="white" stroke="#666666" points="562,-216.5 392,-216.5 392,-197.5 562,-197.5 562,-216.5"/>
<text text-anchor="middle" x="477" y="-204.5" font-family="Helvetica,sans-Serif" font-size="10.00">es.alrodmue.model.Team.Team</text>
</a>
</g>
</g>
<!-- Node11&#45;&gt;Node12 -->
<g id="edge11_Node000011_Node000012" class="edge">
<title>Node11&#45;&gt;Node12</title>
<g id="a_edge11_Node000011_Node000012"><a xlink:title=" ">
<path fill="none" stroke="#63b8ff" d="M355.06,-207C363.86,-207 372.88,-207 381.84,-207"/>
<polygon fill="#63b8ff" stroke="#63b8ff" points="381.92,-210.5 391.92,-207 381.92,-203.5 381.92,-210.5"/>
</a>
</g>
</g>
</g>
</svg>
