<?xml version="1.0" encoding="UTF-8" standalone="no"?>
<!DOCTYPE svg PUBLIC "-//W3C//DTD SVG 1.1//EN"
 "http://www.w3.org/Graphics/SVG/1.1/DTD/svg11.dtd">
<!-- Generated by graphviz version 2.43.0 (0)
 -->
<!-- Title: es.alrodmue.App.showModal Pages: 1 -->
<svg width="388pt" height="86pt"
 viewBox="0.00 0.00 388.00 86.00" xmlns="http://www.w3.org/2000/svg" xmlns:xlink="http://www.w3.org/1999/xlink">
<g id="graph0" class="graph" transform="scale(1 1) rotate(0) translate(4 82)">
<title>es.alrodmue.App.showModal</title>
<!-- Node1 -->
<g id="Node000001" class="node">
<title>Node1</title>
<g id="a_Node000001"><a xlink:title=" ">
<polygon fill="#999999" stroke="#666666" points="380,-48.5 222,-48.5 222,-29.5 380,-29.5 380,-48.5"/>
<text text-anchor="middle" x="301" y="-36.5" font-family="Helvetica,sans-Serif" font-size="10.00">es.alrodmue.App.showModal</text>
</a>
</g>
</g>
<!-- Node2 -->
<g id="Node000002" class="node">
<title>Node2</title>
<g id="a_Node000002"><a xlink:href="classes_1_1alrodmue_1_1view_1_1MainViewController.xhtml#ada56e3f885dd42b6061f9032d9c3c431" target="_top" xlink:title=" ">
<polygon fill="white" stroke="#666666" points="185.5,-78 0.5,-78 0.5,-48 185.5,-48 185.5,-78"/>
<text text-anchor="start" x="8.5" y="-66" font-family="Helvetica,sans-Serif" font-size="10.00">es.alrodmue.view.MainView</text>
<text text-anchor="middle" x="93" y="-55" font-family="Helvetica,sans-Serif" font-size="10.00">Controller.onAddPlayerButtonClick</text>
</a>
</g>
</g>
<!-- Node1&#45;&gt;Node2 -->
<g id="edge1_Node000001_Node000002" class="edge">
<title>Node1&#45;&gt;Node2</title>
<g id="a_edge1_Node000001_Node000002"><a xlink:title=" ">
<path fill="none" stroke="#63b8ff" d="M211.74,-49.28C203.09,-50.29 194.29,-51.32 185.6,-52.33"/>
<polygon fill="#63b8ff" stroke="#63b8ff" points="212.3,-52.74 221.83,-48.11 211.49,-45.79 212.3,-52.74"/>
</a>
</g>
</g>
<!-- Node3 -->
<g id="Node000003" class="node">
<title>Node3</title>
<g id="a_Node000003"><a xlink:href="classes_1_1alrodmue_1_1view_1_1MainViewController.xhtml#a6df8eda1ed864fcf137e187cfee870c8" target="_top" xlink:title=" ">
<polygon fill="white" stroke="#666666" points="186,-30 0,-30 0,0 186,0 186,-30"/>
<text text-anchor="start" x="8" y="-18" font-family="Helvetica,sans-Serif" font-size="10.00">es.alrodmue.view.MainView</text>
<text text-anchor="middle" x="93" y="-7" font-family="Helvetica,sans-Serif" font-size="10.00">Controller.onPlayMatchButtonClick</text>
</a>
</g>
</g>
<!-- Node1&#45;&gt;Node3 -->
<g id="edge2_Node000001_Node000003" class="edge">
<title>Node1&#45;&gt;Node3</title>
<g id="a_edge2_Node000001_Node000003"><a xlink:title=" ">
<path fill="none" stroke="#63b8ff" d="M211.66,-28.71C203.26,-27.73 194.73,-26.74 186.29,-25.75"/>
<polygon fill="#63b8ff" stroke="#63b8ff" points="211.49,-32.21 221.83,-29.89 212.3,-25.26 211.49,-32.21"/>
</a>
</g>
</g>
</g>
</svg>
