<?xml version="1.0" encoding="UTF-8" standalone="no"?>
<!DOCTYPE svg PUBLIC "-//W3C//DTD SVG 1.1//EN"
 "http://www.w3.org/Graphics/SVG/1.1/DTD/svg11.dtd">
<!-- Generated by graphviz version 2.43.0 (0)
 -->
<!-- Title: es.alrodmue.model.fouls.TechnicalFoul Pages: 1 -->
<svg width="163pt" height="258pt"
 viewBox="0.00 0.00 163.00 258.00" xmlns="http://www.w3.org/2000/svg" xmlns:xlink="http://www.w3.org/1999/xlink">
<g id="graph0" class="graph" transform="scale(1 1) rotate(0) translate(4 254)">
<title>es.alrodmue.model.fouls.TechnicalFoul</title>
<!-- Node1 -->
<g id="Node000001" class="node">
<title>Node1</title>
<g id="a_Node000001"><a xlink:title=" ">
<polygon fill="#999999" stroke="transparent" points="145,-75 10,-75 10,0 145,0 145,-75"/>
<text text-anchor="start" x="15.5" y="-62.5" font-family="Helvetica,sans-Serif" font-size="10.00">es.alrodmue.model.fouls.</text>
<text text-anchor="start" x="45" y="-51.5" font-family="Helvetica,sans-Serif" font-size="10.00">TechnicalFoul</text>
<text text-anchor="start" x="76" y="-36.5" font-family="Helvetica,sans-Serif" font-size="10.00"> </text>
<text text-anchor="start" x="24.5" y="-21.5" font-family="Helvetica,sans-Serif" font-size="10.00">+</text>
<text text-anchor="start" x="47.5" y="-21.5" font-family="Helvetica,sans-Serif" font-size="10.00">TechnicalFoul()</text>
<text text-anchor="start" x="24.5" y="-6.5" font-family="Helvetica,sans-Serif" font-size="10.00">+</text>
<text text-anchor="start" x="47.5" y="-6.5" font-family="Helvetica,sans-Serif" font-size="10.00">getType()</text>
<polygon fill="#666666" stroke="#666666" points="10.5,-46.5 10.5,-46.5 145.5,-46.5 145.5,-46.5 10.5,-46.5"/>
<polygon fill="#666666" stroke="#666666" points="10.5,-31.5 10.5,-31.5 145.5,-31.5 145.5,-31.5 10.5,-31.5"/>
<polygon fill="none" stroke="#666666" points="10,0 10,-75 145,-75 145,0 10,0"/>
</a>
</g>
</g>
<!-- Node2 -->
<g id="Node000002" class="node">
<title>Node2</title>
<g id="a_Node000002"><a xlink:href="classes_1_1alrodmue_1_1model_1_1fouls_1_1Foul.xhtml" target="_top" xlink:title=" ">
<polygon fill="white" stroke="transparent" points="155,-250 0,-250 0,-111 155,-111 155,-250"/>
<text text-anchor="start" x="5.5" y="-237.5" font-family="Helvetica,sans-Serif" font-size="10.00">es.alrodmue.model.fouls.Foul</text>
<text text-anchor="start" x="20" y="-222.5" font-family="Helvetica,sans-Serif" font-size="10.00">#</text>
<text text-anchor="start" x="48.5" y="-222.5" font-family="Helvetica,sans-Serif" font-size="10.00">match</text>
<text text-anchor="start" x="20" y="-207.5" font-family="Helvetica,sans-Serif" font-size="10.00">#</text>
<text text-anchor="start" x="48.5" y="-207.5" font-family="Helvetica,sans-Serif" font-size="10.00">player</text>
<text text-anchor="start" x="20" y="-192.5" font-family="Helvetica,sans-Serif" font-size="10.00">+</text>
<text text-anchor="start" x="48.5" y="-192.5" font-family="Helvetica,sans-Serif" font-size="10.00">Foul()</text>
<text text-anchor="start" x="20" y="-177.5" font-family="Helvetica,sans-Serif" font-size="10.00">+</text>
<text text-anchor="start" x="48.5" y="-177.5" font-family="Helvetica,sans-Serif" font-size="10.00">getMatch()</text>
<text text-anchor="start" x="20" y="-162.5" font-family="Helvetica,sans-Serif" font-size="10.00">+</text>
<text text-anchor="start" x="48.5" y="-162.5" font-family="Helvetica,sans-Serif" font-size="10.00">getPlayer()</text>
<text text-anchor="start" x="20" y="-147.5" font-family="Helvetica,sans-Serif" font-size="10.00">+</text>
<text text-anchor="start" x="48.5" y="-147.5" font-family="Helvetica,sans-Serif" font-size="10.00">getType()</text>
<text text-anchor="start" x="20" y="-132.5" font-family="Helvetica,sans-Serif" font-size="10.00">+</text>
<text text-anchor="start" x="48.5" y="-132.5" font-family="Helvetica,sans-Serif" font-size="10.00">isMatchValid()</text>
<text text-anchor="start" x="20" y="-117.5" font-family="Helvetica,sans-Serif" font-size="10.00">+</text>
<text text-anchor="start" x="48.5" y="-117.5" font-family="Helvetica,sans-Serif" font-size="10.00">isPlayerValid()</text>
<polygon fill="#666666" stroke="#666666" points="0.5,-232.5 0.5,-232.5 155.5,-232.5 155.5,-232.5 0.5,-232.5"/>
<polygon fill="#666666" stroke="#666666" points="0.5,-202.5 0.5,-202.5 46.5,-202.5 46.5,-202.5 0.5,-202.5"/>
<polygon fill="#666666" stroke="#666666" points="46.5,-202.5 46.5,-202.5 155.5,-202.5 155.5,-202.5 46.5,-202.5"/>
<polygon fill="none" stroke="#666666" points="0,-111 0,-250 155,-250 155,-111 0,-111"/>
</a>
</g>
</g>
<!-- Node2&#45;&gt;Node1 -->
<g id="edge1_Node000001_Node000002" class="edge">
<title>Node2&#45;&gt;Node1</title>
<g id="a_edge1_Node000001_Node000002"><a xlink:title=" ">
<path fill="none" stroke="#63b8ff" d="M77.5,-100.58C77.5,-91.69 77.5,-82.99 77.5,-75.04"/>
<polygon fill="none" stroke="#63b8ff" points="74,-100.65 77.5,-110.65 81,-100.65 74,-100.65"/>
</a>
</g>
</g>
</g>
</svg>
