<?xml version="1.0" encoding="UTF-8" standalone="no"?>
<!DOCTYPE svg PUBLIC "-//W3C//DTD SVG 1.1//EN"
 "http://www.w3.org/Graphics/SVG/1.1/DTD/svg11.dtd">
<!-- Generated by graphviz version 2.43.0 (0)
 -->
<!-- Title: es.alrodmue.App.closeModal Pages: 1 -->
<svg width="622pt" height="182pt"
 viewBox="0.00 0.00 622.00 182.00" xmlns="http://www.w3.org/2000/svg" xmlns:xlink="http://www.w3.org/1999/xlink">
<g id="graph0" class="graph" transform="scale(1 1) rotate(0) translate(4 178)">
<title>es.alrodmue.App.closeModal</title>
<!-- Node1 -->
<g id="Node000001" class="node">
<title>Node1</title>
<g id="a_Node000001"><a xlink:title=" ">
<polygon fill="#999999" stroke="#666666" points="614,-96.5 456,-96.5 456,-77.5 614,-77.5 614,-96.5"/>
<text text-anchor="middle" x="535" y="-84.5" font-family="Helvetica,sans-Serif" font-size="10.00">es.alrodmue.App.closeModal</text>
</a>
</g>
</g>
<!-- Node2 -->
<g id="Node000002" class="node">
<title>Node2</title>
<g id="a_Node000002"><a xlink:href="classes_1_1alrodmue_1_1controller_1_1PlayerController.xhtml#acb71c6269a42789d433d96c23367f1bc" target="_top" xlink:title=" ">
<polygon fill="white" stroke="#666666" points="404,-174 244,-174 244,-144 404,-144 404,-174"/>
<text text-anchor="start" x="252" y="-162" font-family="Helvetica,sans-Serif" font-size="10.00">es.alrodmue.controller.Player</text>
<text text-anchor="middle" x="324" y="-151" font-family="Helvetica,sans-Serif" font-size="10.00">Controller.createPlayer</text>
</a>
</g>
</g>
<!-- Node1&#45;&gt;Node2 -->
<g id="edge1_Node000001_Node000002" class="edge">
<title>Node1&#45;&gt;Node2</title>
<g id="a_edge1_Node000001_Node000002"><a xlink:title=" ">
<path fill="none" stroke="#63b8ff" d="M504.65,-100.81C481.9,-111.15 449.4,-125.16 420,-135 410.4,-138.21 400.13,-141.23 390.02,-143.97"/>
<polygon fill="#63b8ff" stroke="#63b8ff" points="506.14,-103.97 513.76,-96.62 503.22,-97.61 506.14,-103.97"/>
</a>
</g>
</g>
<!-- Node4 -->
<g id="Node000004" class="node">
<title>Node4</title>
<g id="a_Node000004"><a xlink:href="classes_1_1alrodmue_1_1view_1_1AddMatchViewController.xhtml#a3252bfda5278b0b9f0bcb628e2889a5b" target="_top" xlink:title=" ">
<polygon fill="white" stroke="#666666" points="420,-126 228,-126 228,-96 420,-96 420,-126"/>
<text text-anchor="start" x="236" y="-114" font-family="Helvetica,sans-Serif" font-size="10.00">es.alrodmue.view.AddMatch</text>
<text text-anchor="middle" x="324" y="-103" font-family="Helvetica,sans-Serif" font-size="10.00">ViewController.onCancelButtonClick</text>
</a>
</g>
</g>
<!-- Node1&#45;&gt;Node4 -->
<g id="edge3_Node000001_Node000004" class="edge">
<title>Node1&#45;&gt;Node4</title>
<g id="a_edge3_Node000001_Node000004"><a xlink:title=" ">
<path fill="none" stroke="#63b8ff" d="M445.72,-97.14C437.33,-98.1 428.79,-99.08 420.33,-100.05"/>
<polygon fill="#63b8ff" stroke="#63b8ff" points="446.34,-100.59 455.88,-95.97 445.54,-93.63 446.34,-100.59"/>
</a>
</g>
</g>
<!-- Node5 -->
<g id="Node000005" class="node">
<title>Node5</title>
<g id="a_Node000005"><a xlink:href="classes_1_1alrodmue_1_1view_1_1AddPlayerViewController.xhtml#acb445c594b4c1a4914d47e9684551e63" target="_top" xlink:title=" ">
<polygon fill="white" stroke="#666666" points="420,-78 228,-78 228,-48 420,-48 420,-78"/>
<text text-anchor="start" x="236" y="-66" font-family="Helvetica,sans-Serif" font-size="10.00">es.alrodmue.view.AddPlayer</text>
<text text-anchor="middle" x="324" y="-55" font-family="Helvetica,sans-Serif" font-size="10.00">ViewController.onCancelButtonClick</text>
</a>
</g>
</g>
<!-- Node1&#45;&gt;Node5 -->
<g id="edge4_Node000001_Node000005" class="edge">
<title>Node1&#45;&gt;Node5</title>
<g id="a_edge4_Node000001_Node000005"><a xlink:title=" ">
<path fill="none" stroke="#63b8ff" d="M445.72,-76.86C437.33,-75.9 428.79,-74.92 420.33,-73.95"/>
<polygon fill="#63b8ff" stroke="#63b8ff" points="445.54,-80.37 455.88,-78.03 446.34,-73.41 445.54,-80.37"/>
</a>
</g>
</g>
<!-- Node6 -->
<g id="Node000006" class="node">
<title>Node6</title>
<g id="a_Node000006"><a xlink:href="classes_1_1alrodmue_1_1controller_1_1MatchController.xhtml#a42b9493f74fbd7a9a545daceae923762" target="_top" xlink:title=" ">
<polygon fill="white" stroke="#666666" points="403.5,-30 244.5,-30 244.5,0 403.5,0 403.5,-30"/>
<text text-anchor="start" x="252.5" y="-18" font-family="Helvetica,sans-Serif" font-size="10.00">es.alrodmue.controller.Match</text>
<text text-anchor="middle" x="324" y="-7" font-family="Helvetica,sans-Serif" font-size="10.00">Controller.playMatch</text>
</a>
</g>
</g>
<!-- Node1&#45;&gt;Node6 -->
<g id="edge5_Node000001_Node000006" class="edge">
<title>Node1&#45;&gt;Node6</title>
<g id="a_edge5_Node000001_Node000006"><a xlink:title=" ">
<path fill="none" stroke="#63b8ff" d="M504.65,-73.19C481.9,-62.85 449.4,-48.84 420,-39 410.4,-35.79 400.13,-32.77 390.02,-30.03"/>
<polygon fill="#63b8ff" stroke="#63b8ff" points="503.22,-76.39 513.76,-77.38 506.14,-70.03 503.22,-76.39"/>
</a>
</g>
</g>
<!-- Node3 -->
<g id="Node000003" class="node">
<title>Node3</title>
<g id="a_Node000003"><a xlink:href="classes_1_1alrodmue_1_1view_1_1AddPlayerViewController.xhtml#a9194dc8d302c529d039789001b272d94" target="_top" xlink:title=" ">
<polygon fill="white" stroke="#666666" points="192,-174 0,-174 0,-144 192,-144 192,-174"/>
<text text-anchor="start" x="8" y="-162" font-family="Helvetica,sans-Serif" font-size="10.00">es.alrodmue.view.AddPlayer</text>
<text text-anchor="middle" x="96" y="-151" font-family="Helvetica,sans-Serif" font-size="10.00">ViewController.onAcceptButtonClick</text>
</a>
</g>
</g>
<!-- Node2&#45;&gt;Node3 -->
<g id="edge2_Node000002_Node000003" class="edge">
<title>Node2&#45;&gt;Node3</title>
<g id="a_edge2_Node000002_Node000003"><a xlink:title=" ">
<path fill="none" stroke="#63b8ff" d="M233.67,-159C220.09,-159 206.02,-159 192.32,-159"/>
<polygon fill="#63b8ff" stroke="#63b8ff" points="233.96,-162.5 243.96,-159 233.96,-155.5 233.96,-162.5"/>
</a>
</g>
</g>
<!-- Node7 -->
<g id="Node000007" class="node">
<title>Node7</title>
<g id="a_Node000007"><a xlink:href="classes_1_1alrodmue_1_1view_1_1AddMatchViewController.xhtml#af484d8fbe31480a95c9d300985fce32c" target="_top" xlink:title=" ">
<polygon fill="white" stroke="#666666" points="192,-30 0,-30 0,0 192,0 192,-30"/>
<text text-anchor="start" x="8" y="-18" font-family="Helvetica,sans-Serif" font-size="10.00">es.alrodmue.view.AddMatch</text>
<text text-anchor="middle" x="96" y="-7" font-family="Helvetica,sans-Serif" font-size="10.00">ViewController.onAcceptButtonClick</text>
</a>
</g>
</g>
<!-- Node6&#45;&gt;Node7 -->
<g id="edge6_Node000006_Node000007" class="edge">
<title>Node6&#45;&gt;Node7</title>
<g id="a_edge6_Node000006_Node000007"><a xlink:title=" ">
<path fill="none" stroke="#63b8ff" d="M233.9,-15C220.2,-15 206,-15 192.17,-15"/>
<polygon fill="#63b8ff" stroke="#63b8ff" points="234.27,-18.5 244.27,-15 234.27,-11.5 234.27,-18.5"/>
</a>
</g>
</g>
</g>
</svg>
