<?xml version="1.0" encoding="UTF-8" standalone="no"?>
<!DOCTYPE svg PUBLIC "-//W3C//DTD SVG 1.1//EN"
 "http://www.w3.org/Graphics/SVG/1.1/DTD/svg11.dtd">
<!-- Generated by graphviz version 2.43.0 (0)
 -->
<!-- Title: es.alrodmue.controller.MatchController Pages: 1 -->
<svg width="228pt" height="355pt"
 viewBox="0.00 0.00 228.00 355.00" xmlns="http://www.w3.org/2000/svg" xmlns:xlink="http://www.w3.org/1999/xlink">
<g id="graph0" class="graph" transform="scale(1 1) rotate(0) translate(4 351)">
<title>es.alrodmue.controller.MatchController</title>
<!-- Node1 -->
<g id="Node000001" class="node">
<title>Node1</title>
<g id="a_Node000001"><a xlink:title=" ">
<polygon fill="#999999" stroke="transparent" points="153,-150 0,-150 0,0 153,0 153,-150"/>
<text text-anchor="start" x="5.5" y="-138" font-family="Helvetica,sans-Serif" font-size="10.00">es.alrodmue.controller.Match</text>
<text text-anchor="start" x="52.5" y="-127" font-family="Helvetica,sans-Serif" font-size="10.00">Controller</text>
<text text-anchor="start" x="75" y="-112" font-family="Helvetica,sans-Serif" font-size="10.00"> </text>
<text text-anchor="start" x="13" y="-97" font-family="Helvetica,sans-Serif" font-size="10.00">+</text>
<text text-anchor="start" x="34.5" y="-97" font-family="Helvetica,sans-Serif" font-size="10.00">playMatch()</text>
<text text-anchor="start" x="13" y="-82" font-family="Helvetica,sans-Serif" font-size="10.00">+</text>
<text text-anchor="start" x="34.5" y="-82" font-family="Helvetica,sans-Serif" font-size="10.00">showMatchDetails()</text>
<text text-anchor="start" x="13" y="-67" font-family="Helvetica,sans-Serif" font-size="10.00">+</text>
<text text-anchor="start" x="34.5" y="-67" font-family="Helvetica,sans-Serif" font-size="10.00">showMatchDetails()</text>
<text text-anchor="start" x="13" y="-52" font-family="Helvetica,sans-Serif" font-size="10.00">+</text>
<text text-anchor="start" x="34.5" y="-52" font-family="Helvetica,sans-Serif" font-size="10.00">getInstance()</text>
<text text-anchor="start" x="15.5" y="-37" font-family="Helvetica,sans-Serif" font-size="10.00">&#45;</text>
<text text-anchor="start" x="34.5" y="-37" font-family="Helvetica,sans-Serif" font-size="10.00">MatchController()</text>
<text text-anchor="start" x="15.5" y="-22" font-family="Helvetica,sans-Serif" font-size="10.00">&#45;</text>
<text text-anchor="start" x="34.5" y="-22" font-family="Helvetica,sans-Serif" font-size="10.00">showError()</text>
<text text-anchor="start" x="15.5" y="-7" font-family="Helvetica,sans-Serif" font-size="10.00">&#45;</text>
<text text-anchor="start" x="34.5" y="-7" font-family="Helvetica,sans-Serif" font-size="10.00">showInfo()</text>
<polygon fill="#666666" stroke="#666666" points="0.5,-122 0.5,-122 153.5,-122 153.5,-122 0.5,-122"/>
<polygon fill="#666666" stroke="#666666" points="0.5,-107 0.5,-107 153.5,-107 153.5,-107 0.5,-107"/>
<polygon fill="none" stroke="#666666" points="0,0 0,-150 153,-150 153,0 0,0"/>
</a>
</g>
</g>
<!-- Node2 -->
<g id="Node000002" class="node">
<title>Node2</title>
<g id="a_Node000002"><a xlink:href="classes_1_1alrodmue_1_1controller_1_1MatchController.xhtml" target="_top" xlink:title=" ">
<polygon fill="white" stroke="transparent" points="153,-347 0,-347 0,-197 153,-197 153,-347"/>
<text text-anchor="start" x="5.5" y="-335" font-family="Helvetica,sans-Serif" font-size="10.00">es.alrodmue.controller.Match</text>
<text text-anchor="start" x="52.5" y="-324" font-family="Helvetica,sans-Serif" font-size="10.00">Controller</text>
<text text-anchor="start" x="75" y="-309" font-family="Helvetica,sans-Serif" font-size="10.00"> </text>
<text text-anchor="start" x="13" y="-294" font-family="Helvetica,sans-Serif" font-size="10.00">+</text>
<text text-anchor="start" x="34.5" y="-294" font-family="Helvetica,sans-Serif" font-size="10.00">playMatch()</text>
<text text-anchor="start" x="13" y="-279" font-family="Helvetica,sans-Serif" font-size="10.00">+</text>
<text text-anchor="start" x="34.5" y="-279" font-family="Helvetica,sans-Serif" font-size="10.00">showMatchDetails()</text>
<text text-anchor="start" x="13" y="-264" font-family="Helvetica,sans-Serif" font-size="10.00">+</text>
<text text-anchor="start" x="34.5" y="-264" font-family="Helvetica,sans-Serif" font-size="10.00">showMatchDetails()</text>
<text text-anchor="start" x="13" y="-249" font-family="Helvetica,sans-Serif" font-size="10.00">+</text>
<text text-anchor="start" x="34.5" y="-249" font-family="Helvetica,sans-Serif" font-size="10.00">getInstance()</text>
<text text-anchor="start" x="15.5" y="-234" font-family="Helvetica,sans-Serif" font-size="10.00">&#45;</text>
<text text-anchor="start" x="34.5" y="-234" font-family="Helvetica,sans-Serif" font-size="10.00">MatchController()</text>
<text text-anchor="start" x="15.5" y="-219" font-family="Helvetica,sans-Serif" font-size="10.00">&#45;</text>
<text text-anchor="start" x="34.5" y="-219" font-family="Helvetica,sans-Serif" font-size="10.00">showError()</text>
<text text-anchor="start" x="15.5" y="-204" font-family="Helvetica,sans-Serif" font-size="10.00">&#45;</text>
<text text-anchor="start" x="34.5" y="-204" font-family="Helvetica,sans-Serif" font-size="10.00">showInfo()</text>
<polygon fill="#666666" stroke="#666666" points="0.5,-319 0.5,-319 153.5,-319 153.5,-319 0.5,-319"/>
<polygon fill="#666666" stroke="#666666" points="0.5,-304 0.5,-304 153.5,-304 153.5,-304 0.5,-304"/>
<polygon fill="none" stroke="#666666" points="0,-197 0,-347 153,-347 153,-197 0,-197"/>
</a>
</g>
</g>
<!-- Node2&#45;&gt;Node1 -->
<g id="edge1_Node000001_Node000002" class="edge">
<title>Node2&#45;&gt;Node1</title>
<g id="a_edge1_Node000001_Node000002"><a xlink:title=" ">
<path fill="none" stroke="#63b8ff" d="M76.5,-196.72C76.5,-185.5 76.5,-173.84 76.5,-162.39"/>
<polygon fill="none" stroke="#63b8ff" points="76.5,-162.07 72.5,-156.07 76.5,-150.07 80.5,-156.07 76.5,-162.07"/>
</a>
</g>
<text text-anchor="middle" x="101" y="-171" font-family="Helvetica,sans-Serif" font-size="10.00" fill="grey"> &#45;instance</text>
</g>
<!-- Node2&#45;&gt;Node2 -->
<g id="edge2_Node000002_Node000002" class="edge">
<title>Node2&#45;&gt;Node2</title>
<g id="a_edge2_Node000002_Node000002"><a xlink:title=" ">
<path fill="none" stroke="#63b8ff" d="M153.25,-288.4C163.89,-285.7 171,-280.23 171,-272 171,-267.24 168.62,-263.41 164.56,-260.5"/>
<polygon fill="none" stroke="#63b8ff" points="164.27,-260.37 157.17,-261.66 153.25,-255.6 160.35,-254.32 164.27,-260.37"/>
</a>
</g>
<text text-anchor="middle" x="195.5" y="-269.5" font-family="Helvetica,sans-Serif" font-size="10.00" fill="grey"> &#45;instance</text>
</g>
</g>
</svg>
