<?xml version="1.0" encoding="UTF-8" standalone="no"?>
<!DOCTYPE svg PUBLIC "-//W3C//DTD SVG 1.1//EN"
 "http://www.w3.org/Graphics/SVG/1.1/DTD/svg11.dtd">
<!-- Generated by graphviz version 2.43.0 (0)
 -->
<!-- Title: es.alrodmue.view.AddPlayerViewController Pages: 1 -->
<svg width="348pt" height="205pt"
 viewBox="0.00 0.00 348.00 205.00" xmlns="http://www.w3.org/2000/svg" xmlns:xlink="http://www.w3.org/1999/xlink">
<g id="graph0" class="graph" transform="scale(1 1) rotate(0) translate(4 201)">
<title>es.alrodmue.view.AddPlayerViewController</title>
<!-- Node1 -->
<g id="Node000001" class="node">
<title>Node1</title>
<g id="a_Node000001"><a xlink:title=" ">
<polygon fill="#999999" stroke="transparent" points="233.5,-90 84.5,-90 84.5,0 233.5,0 233.5,-90"/>
<text text-anchor="start" x="90" y="-78" font-family="Helvetica,sans-Serif" font-size="10.00">es.alrodmue.view.AddPlayer</text>
<text text-anchor="start" x="123" y="-67" font-family="Helvetica,sans-Serif" font-size="10.00">ViewController</text>
<text text-anchor="start" x="157.5" y="-52" font-family="Helvetica,sans-Serif" font-size="10.00"> </text>
<text text-anchor="start" x="93.5" y="-37" font-family="Helvetica,sans-Serif" font-size="10.00">+</text>
<text text-anchor="start" x="111" y="-37" font-family="Helvetica,sans-Serif" font-size="10.00">initialize()</text>
<text text-anchor="start" x="96" y="-22" font-family="Helvetica,sans-Serif" font-size="10.00">&#45;</text>
<text text-anchor="start" x="111" y="-22" font-family="Helvetica,sans-Serif" font-size="10.00">onAcceptButtonClick()</text>
<text text-anchor="start" x="96" y="-7" font-family="Helvetica,sans-Serif" font-size="10.00">&#45;</text>
<text text-anchor="start" x="111" y="-7" font-family="Helvetica,sans-Serif" font-size="10.00">onCancelButtonClick()</text>
<polygon fill="#666666" stroke="#666666" points="85,-62 85,-62 234,-62 234,-62 85,-62"/>
<polygon fill="#666666" stroke="#666666" points="85,-47 85,-47 234,-47 234,-47 85,-47"/>
<polygon fill="none" stroke="#666666" points="84.5,0 84.5,-90 233.5,-90 233.5,0 84.5,0"/>
</a>
</g>
</g>
<!-- Node2 -->
<g id="Node000002" class="node">
<title>Node2</title>
<g id="a_Node000002"><a xlink:title=" ">
<polygon fill="white" stroke="transparent" points="68,-197 0,-197 0,-148 68,-148 68,-197"/>
<text text-anchor="start" x="5" y="-184.5" font-family="Helvetica,sans-Serif" font-size="10.00">Initializable</text>
<text text-anchor="start" x="32" y="-169.5" font-family="Helvetica,sans-Serif" font-size="10.00"> </text>
<text text-anchor="start" x="32" y="-154.5" font-family="Helvetica,sans-Serif" font-size="10.00"> </text>
<polygon fill="#666666" stroke="#666666" points="0,-179.5 0,-179.5 68,-179.5 68,-179.5 0,-179.5"/>
<polygon fill="#666666" stroke="#666666" points="0,-164.5 0,-164.5 68,-164.5 68,-164.5 0,-164.5"/>
<polygon fill="none" stroke="#666666" points="0,-148 0,-197 68,-197 68,-148 0,-148"/>
</a>
</g>
</g>
<!-- Node2&#45;&gt;Node1 -->
<g id="edge1_Node000001_Node000002" class="edge">
<title>Node2&#45;&gt;Node1</title>
<g id="a_edge1_Node000001_Node000002"><a xlink:title=" ">
<path fill="none" stroke="#63b8ff" d="M64.67,-140.71C79.85,-125.47 98.44,-106.8 115.1,-90.07"/>
<polygon fill="none" stroke="#63b8ff" points="62.09,-138.34 57.51,-147.89 67.05,-143.28 62.09,-138.34"/>
</a>
</g>
</g>
<!-- Node3 -->
<g id="Node000003" class="node">
<title>Node3</title>
<g id="a_Node000003"><a xlink:title=" ">
<polygon fill="white" stroke="transparent" points="140,-197 86,-197 86,-148 140,-148 140,-197"/>
<text text-anchor="start" x="91" y="-184.5" font-family="Helvetica,sans-Serif" font-size="10.00">TextField</text>
<text text-anchor="start" x="111" y="-169.5" font-family="Helvetica,sans-Serif" font-size="10.00"> </text>
<text text-anchor="start" x="111" y="-154.5" font-family="Helvetica,sans-Serif" font-size="10.00"> </text>
<polygon fill="#666666" stroke="#666666" points="86,-179.5 86,-179.5 140,-179.5 140,-179.5 86,-179.5"/>
<polygon fill="#666666" stroke="#666666" points="86,-164.5 86,-164.5 140,-164.5 140,-164.5 86,-164.5"/>
<polygon fill="none" stroke="#666666" points="86,-148 86,-197 140,-197 140,-148 86,-148"/>
</a>
</g>
</g>
<!-- Node3&#45;&gt;Node1 -->
<g id="edge2_Node000001_Node000003" class="edge">
<title>Node3&#45;&gt;Node1</title>
<g id="a_edge2_Node000001_Node000003"><a xlink:title=" ">
<path fill="none" stroke="#63b8ff" d="M110.02,-147.71C109.33,-135.53 109.78,-120.66 114,-108 114.76,-105.73 115.63,-103.47 116.6,-101.23"/>
<polygon fill="none" stroke="#63b8ff" points="116.73,-100.99 115.87,-93.83 122.15,-90.28 123.01,-97.44 116.73,-100.99"/>
</a>
</g>
<text text-anchor="middle" x="149" y="-122" font-family="Helvetica,sans-Serif" font-size="10.00" fill="grey"> &#45;playerHeight</text>
<text text-anchor="middle" x="149" y="-111" font-family="Helvetica,sans-Serif" font-size="10.00" fill="grey">&#45;playerName</text>
</g>
<!-- Node4 -->
<g id="Node000004" class="node">
<title>Node4</title>
<g id="a_Node000004"><a xlink:title=" ">
<polygon fill="white" stroke="transparent" points="225,-197 187,-197 187,-148 225,-148 225,-197"/>
<text text-anchor="start" x="192" y="-184.5" font-family="Helvetica,sans-Serif" font-size="10.00">Slider</text>
<text text-anchor="start" x="204" y="-169.5" font-family="Helvetica,sans-Serif" font-size="10.00"> </text>
<text text-anchor="start" x="204" y="-154.5" font-family="Helvetica,sans-Serif" font-size="10.00"> </text>
<polygon fill="#666666" stroke="#666666" points="187,-179.5 187,-179.5 225,-179.5 225,-179.5 187,-179.5"/>
<polygon fill="#666666" stroke="#666666" points="187,-164.5 187,-164.5 225,-164.5 225,-164.5 187,-164.5"/>
<polygon fill="none" stroke="#666666" points="187,-148 187,-197 225,-197 225,-148 187,-148"/>
</a>
</g>
</g>
<!-- Node4&#45;&gt;Node1 -->
<g id="edge3_Node000001_Node000004" class="edge">
<title>Node4&#45;&gt;Node1</title>
<g id="a_edge3_Node000001_Node000004"><a xlink:title=" ">
<path fill="none" stroke="#63b8ff" d="M198.13,-147.88C194.05,-135.88 188.91,-121.11 184,-108 183.22,-105.93 182.43,-103.82 181.61,-101.7"/>
<polygon fill="none" stroke="#63b8ff" points="181.51,-101.44 175.61,-97.3 177.16,-90.26 183.06,-94.4 181.51,-101.44"/>
</a>
</g>
<text text-anchor="middle" x="220.5" y="-116.5" font-family="Helvetica,sans-Serif" font-size="10.00" fill="grey"> &#45;playerSkill</text>
</g>
<!-- Node5 -->
<g id="Node000005" class="node">
<title>Node5</title>
<g id="a_Node000005"><a xlink:title=" ">
<polygon fill="white" stroke="transparent" points="309.5,-197 266.5,-197 266.5,-148 309.5,-148 309.5,-197"/>
<text text-anchor="start" x="272" y="-184.5" font-family="Helvetica,sans-Serif" font-size="10.00">Button</text>
<text text-anchor="start" x="286.5" y="-169.5" font-family="Helvetica,sans-Serif" font-size="10.00"> </text>
<text text-anchor="start" x="286.5" y="-154.5" font-family="Helvetica,sans-Serif" font-size="10.00"> </text>
<polygon fill="#666666" stroke="#666666" points="267,-179.5 267,-179.5 310,-179.5 310,-179.5 267,-179.5"/>
<polygon fill="#666666" stroke="#666666" points="267,-164.5 267,-164.5 310,-164.5 310,-164.5 267,-164.5"/>
<polygon fill="none" stroke="#666666" points="266.5,-148 266.5,-197 309.5,-197 309.5,-148 266.5,-148"/>
</a>
</g>
</g>
<!-- Node5&#45;&gt;Node1 -->
<g id="edge4_Node000001_Node000005" class="edge">
<title>Node5&#45;&gt;Node1</title>
<g id="a_edge4_Node000001_Node000005"><a xlink:title=" ">
<path fill="none" stroke="#63b8ff" d="M278.84,-147.99C273.05,-135.18 264.65,-119.61 254,-108 250.56,-104.24 246.84,-100.61 242.94,-97.12"/>
<polygon fill="none" stroke="#63b8ff" points="242.73,-96.95 235.56,-96.16 233.54,-89.23 240.71,-90.03 242.73,-96.95"/>
</a>
</g>
<text text-anchor="middle" x="304" y="-122" font-family="Helvetica,sans-Serif" font-size="10.00" fill="grey"> &#45;acceptButton</text>
<text text-anchor="middle" x="304" y="-111" font-family="Helvetica,sans-Serif" font-size="10.00" fill="grey">&#45;cancelButton</text>
</g>
</g>
</svg>
