<?xml version="1.0" encoding="UTF-8" standalone="no"?>
<!DOCTYPE svg PUBLIC "-//W3C//DTD SVG 1.1//EN"
 "http://www.w3.org/Graphics/SVG/1.1/DTD/svg11.dtd">
<!-- Generated by graphviz version 2.43.0 (0)
 -->
<!-- Title: es.alrodmue.model.exceptions.TeamPlayerPositionFullException Pages: 1 -->
<svg width="198pt" height="249pt"
 viewBox="0.00 0.00 198.00 249.00" xmlns="http://www.w3.org/2000/svg" xmlns:xlink="http://www.w3.org/1999/xlink">
<g id="graph0" class="graph" transform="scale(1 1) rotate(0) translate(4 245)">
<title>es.alrodmue.model.exceptions.TeamPlayerPositionFullException</title>
<!-- Node1 -->
<g id="Node000001" class="node">
<title>Node1</title>
<g id="a_Node000001"><a xlink:title=" ">
<polygon fill="#999999" stroke="transparent" points="190,-60 0,-60 0,0 190,0 190,-60"/>
<text text-anchor="start" x="14" y="-48" font-family="Helvetica,sans-Serif" font-size="10.00">es.alrodmue.model.exceptions.</text>
<text text-anchor="start" x="14" y="-37" font-family="Helvetica,sans-Serif" font-size="10.00">TeamPlayerPositionFullException</text>
<text text-anchor="start" x="93" y="-22" font-family="Helvetica,sans-Serif" font-size="10.00"> </text>
<text text-anchor="start" x="4" y="-7" font-family="Helvetica,sans-Serif" font-size="10.00">+</text>
<text text-anchor="start" x="17" y="-7" font-family="Helvetica,sans-Serif" font-size="10.00">TeamPlayerPositionFullException()</text>
<polygon fill="#666666" stroke="#666666" points="0,-32 0,-32 190,-32 190,-32 0,-32"/>
<polygon fill="#666666" stroke="#666666" points="0,-17 0,-17 190,-17 190,-17 0,-17"/>
<polygon fill="none" stroke="#666666" points="0,0 0,-60 190,-60 190,0 0,0"/>
</a>
</g>
</g>
<!-- Node2 -->
<g id="Node000002" class="node">
<title>Node2</title>
<g id="a_Node000002"><a xlink:href="classes_1_1alrodmue_1_1model_1_1exceptions_1_1TeamInvalidDataException.xhtml" target="_top" xlink:title=" ">
<polygon fill="white" stroke="transparent" points="177,-156 13,-156 13,-96 177,-96 177,-156"/>
<text text-anchor="start" x="18" y="-144" font-family="Helvetica,sans-Serif" font-size="10.00">es.alrodmue.model.exceptions.</text>
<text text-anchor="start" x="29.5" y="-133" font-family="Helvetica,sans-Serif" font-size="10.00">TeamInvalidDataException</text>
<text text-anchor="start" x="93" y="-118" font-family="Helvetica,sans-Serif" font-size="10.00"> </text>
<text text-anchor="start" x="18" y="-103" font-family="Helvetica,sans-Serif" font-size="10.00">+</text>
<text text-anchor="start" x="32" y="-103" font-family="Helvetica,sans-Serif" font-size="10.00">TeamInvalidDataException()</text>
<polygon fill="#666666" stroke="#666666" points="13,-128 13,-128 177,-128 177,-128 13,-128"/>
<polygon fill="#666666" stroke="#666666" points="13,-113 13,-113 177,-113 177,-113 13,-113"/>
<polygon fill="none" stroke="#666666" points="13,-96 13,-156 177,-156 177,-96 13,-96"/>
</a>
</g>
</g>
<!-- Node2&#45;&gt;Node1 -->
<g id="edge1_Node000001_Node000002" class="edge">
<title>Node2&#45;&gt;Node1</title>
<g id="a_edge1_Node000001_Node000002"><a xlink:title=" ">
<path fill="none" stroke="#63b8ff" d="M95,-85.63C95,-77.11 95,-68.25 95,-60.21"/>
<polygon fill="none" stroke="#63b8ff" points="91.5,-85.77 95,-95.77 98.5,-85.77 91.5,-85.77"/>
</a>
</g>
</g>
<!-- Node3 -->
<g id="Node000003" class="node">
<title>Node3</title>
<g id="a_Node000003"><a xlink:href="classException.xhtml" target="_top" xlink:title=" ">
<polygon fill="white" stroke="transparent" points="124.5,-241 65.5,-241 65.5,-192 124.5,-192 124.5,-241"/>
<text text-anchor="start" x="71" y="-228.5" font-family="Helvetica,sans-Serif" font-size="10.00">Exception</text>
<text text-anchor="start" x="93.5" y="-213.5" font-family="Helvetica,sans-Serif" font-size="10.00"> </text>
<text text-anchor="start" x="93.5" y="-198.5" font-family="Helvetica,sans-Serif" font-size="10.00"> </text>
<polygon fill="#666666" stroke="#666666" points="66,-223.5 66,-223.5 125,-223.5 125,-223.5 66,-223.5"/>
<polygon fill="#666666" stroke="#666666" points="66,-208.5 66,-208.5 125,-208.5 125,-208.5 66,-208.5"/>
<polygon fill="none" stroke="#666666" points="65.5,-192 65.5,-241 124.5,-241 124.5,-192 65.5,-192"/>
</a>
</g>
</g>
<!-- Node3&#45;&gt;Node2 -->
<g id="edge2_Node000002_Node000003" class="edge">
<title>Node3&#45;&gt;Node2</title>
<g id="a_edge2_Node000002_Node000003"><a xlink:title=" ">
<path fill="none" stroke="#63b8ff" d="M95,-181.55C95,-173.18 95,-164.28 95,-156.16"/>
<polygon fill="none" stroke="#63b8ff" points="91.5,-181.78 95,-191.78 98.5,-181.78 91.5,-181.78"/>
</a>
</g>
</g>
</g>
</svg>
