<?xml version="1.0" encoding="UTF-8" standalone="no"?>
<!DOCTYPE svg PUBLIC "-//W3C//DTD SVG 1.1//EN"
 "http://www.w3.org/Graphics/SVG/1.1/DTD/svg11.dtd">
<!-- Generated by graphviz version 2.43.0 (0)
 -->
<!-- Title: es.alrodmue.controller.PersistenceController Pages: 1 -->
<svg width="397pt" height="749pt"
 viewBox="0.00 0.00 397.24 749.00" xmlns="http://www.w3.org/2000/svg" xmlns:xlink="http://www.w3.org/1999/xlink">
<g id="graph0" class="graph" transform="scale(1 1) rotate(0) translate(4 745)">
<title>es.alrodmue.controller.PersistenceController</title>
<!-- Node1 -->
<g id="Node000001" class="node">
<title>Node1</title>
<g id="a_Node000001"><a xlink:title=" ">
<polygon fill="#999999" stroke="transparent" points="231.74,-240 52.74,-240 52.74,0 231.74,0 231.74,-240"/>
<text text-anchor="start" x="58.24" y="-228" font-family="Helvetica,sans-Serif" font-size="10.00">es.alrodmue.controller.Persistence</text>
<text text-anchor="start" x="118.24" y="-217" font-family="Helvetica,sans-Serif" font-size="10.00">Controller</text>
<text text-anchor="start" x="140.74" y="-202" font-family="Helvetica,sans-Serif" font-size="10.00"> </text>
<text text-anchor="start" x="67.24" y="-187" font-family="Helvetica,sans-Serif" font-size="10.00">+</text>
<text text-anchor="start" x="90.24" y="-187" font-family="Helvetica,sans-Serif" font-size="10.00">addFoul()</text>
<text text-anchor="start" x="67.24" y="-172" font-family="Helvetica,sans-Serif" font-size="10.00">+</text>
<text text-anchor="start" x="90.24" y="-172" font-family="Helvetica,sans-Serif" font-size="10.00">addMatch()</text>
<text text-anchor="start" x="67.24" y="-157" font-family="Helvetica,sans-Serif" font-size="10.00">+</text>
<text text-anchor="start" x="90.24" y="-157" font-family="Helvetica,sans-Serif" font-size="10.00">addPlayer()</text>
<text text-anchor="start" x="67.24" y="-142" font-family="Helvetica,sans-Serif" font-size="10.00">+</text>
<text text-anchor="start" x="90.24" y="-142" font-family="Helvetica,sans-Serif" font-size="10.00">loadData()</text>
<text text-anchor="start" x="67.24" y="-127" font-family="Helvetica,sans-Serif" font-size="10.00">+</text>
<text text-anchor="start" x="90.24" y="-127" font-family="Helvetica,sans-Serif" font-size="10.00">removePlayer()</text>
<text text-anchor="start" x="67.24" y="-112" font-family="Helvetica,sans-Serif" font-size="10.00">+</text>
<text text-anchor="start" x="90.24" y="-112" font-family="Helvetica,sans-Serif" font-size="10.00">updatePlayer()</text>
<text text-anchor="start" x="67.24" y="-97" font-family="Helvetica,sans-Serif" font-size="10.00">+</text>
<text text-anchor="start" x="90.24" y="-97" font-family="Helvetica,sans-Serif" font-size="10.00">getInstance()</text>
<text text-anchor="start" x="69.74" y="-82" font-family="Helvetica,sans-Serif" font-size="10.00">&#45;</text>
<text text-anchor="start" x="90.24" y="-82" font-family="Helvetica,sans-Serif" font-size="10.00">PersistenceController()</text>
<text text-anchor="start" x="69.74" y="-67" font-family="Helvetica,sans-Serif" font-size="10.00">&#45;</text>
<text text-anchor="start" x="90.24" y="-67" font-family="Helvetica,sans-Serif" font-size="10.00">getMatchFromNumber()</text>
<text text-anchor="start" x="69.74" y="-52" font-family="Helvetica,sans-Serif" font-size="10.00">&#45;</text>
<text text-anchor="start" x="90.24" y="-52" font-family="Helvetica,sans-Serif" font-size="10.00">getPlayerFromNumber()</text>
<text text-anchor="start" x="69.74" y="-37" font-family="Helvetica,sans-Serif" font-size="10.00">&#45;</text>
<text text-anchor="start" x="90.24" y="-37" font-family="Helvetica,sans-Serif" font-size="10.00">loadFoul()</text>
<text text-anchor="start" x="69.74" y="-22" font-family="Helvetica,sans-Serif" font-size="10.00">&#45;</text>
<text text-anchor="start" x="90.24" y="-22" font-family="Helvetica,sans-Serif" font-size="10.00">loadMatch()</text>
<text text-anchor="start" x="69.74" y="-7" font-family="Helvetica,sans-Serif" font-size="10.00">&#45;</text>
<text text-anchor="start" x="90.24" y="-7" font-family="Helvetica,sans-Serif" font-size="10.00">loadPlayer()</text>
<polygon fill="#666666" stroke="#666666" points="53.24,-212 53.24,-212 232.24,-212 232.24,-212 53.24,-212"/>
<polygon fill="#666666" stroke="#666666" points="53.24,-197 53.24,-197 232.24,-197 232.24,-197 53.24,-197"/>
<polygon fill="none" stroke="#666666" points="52.74,0 52.74,-240 231.74,-240 231.74,0 52.74,0"/>
</a>
</g>
</g>
<!-- Node2 -->
<g id="Node000002" class="node">
<title>Node2</title>
<g id="a_Node000002"><a xlink:href="classes_1_1alrodmue_1_1controller_1_1PersistenceController.xhtml" target="_top" xlink:title=" ">
<polygon fill="white" stroke="transparent" points="231.74,-527 52.74,-527 52.74,-287 231.74,-287 231.74,-527"/>
<text text-anchor="start" x="58.24" y="-515" font-family="Helvetica,sans-Serif" font-size="10.00">es.alrodmue.controller.Persistence</text>
<text text-anchor="start" x="118.24" y="-504" font-family="Helvetica,sans-Serif" font-size="10.00">Controller</text>
<text text-anchor="start" x="140.74" y="-489" font-family="Helvetica,sans-Serif" font-size="10.00"> </text>
<text text-anchor="start" x="67.24" y="-474" font-family="Helvetica,sans-Serif" font-size="10.00">+</text>
<text text-anchor="start" x="90.24" y="-474" font-family="Helvetica,sans-Serif" font-size="10.00">addFoul()</text>
<text text-anchor="start" x="67.24" y="-459" font-family="Helvetica,sans-Serif" font-size="10.00">+</text>
<text text-anchor="start" x="90.24" y="-459" font-family="Helvetica,sans-Serif" font-size="10.00">addMatch()</text>
<text text-anchor="start" x="67.24" y="-444" font-family="Helvetica,sans-Serif" font-size="10.00">+</text>
<text text-anchor="start" x="90.24" y="-444" font-family="Helvetica,sans-Serif" font-size="10.00">addPlayer()</text>
<text text-anchor="start" x="67.24" y="-429" font-family="Helvetica,sans-Serif" font-size="10.00">+</text>
<text text-anchor="start" x="90.24" y="-429" font-family="Helvetica,sans-Serif" font-size="10.00">loadData()</text>
<text text-anchor="start" x="67.24" y="-414" font-family="Helvetica,sans-Serif" font-size="10.00">+</text>
<text text-anchor="start" x="90.24" y="-414" font-family="Helvetica,sans-Serif" font-size="10.00">removePlayer()</text>
<text text-anchor="start" x="67.24" y="-399" font-family="Helvetica,sans-Serif" font-size="10.00">+</text>
<text text-anchor="start" x="90.24" y="-399" font-family="Helvetica,sans-Serif" font-size="10.00">updatePlayer()</text>
<text text-anchor="start" x="67.24" y="-384" font-family="Helvetica,sans-Serif" font-size="10.00">+</text>
<text text-anchor="start" x="90.24" y="-384" font-family="Helvetica,sans-Serif" font-size="10.00">getInstance()</text>
<text text-anchor="start" x="69.74" y="-369" font-family="Helvetica,sans-Serif" font-size="10.00">&#45;</text>
<text text-anchor="start" x="90.24" y="-369" font-family="Helvetica,sans-Serif" font-size="10.00">PersistenceController()</text>
<text text-anchor="start" x="69.74" y="-354" font-family="Helvetica,sans-Serif" font-size="10.00">&#45;</text>
<text text-anchor="start" x="90.24" y="-354" font-family="Helvetica,sans-Serif" font-size="10.00">getMatchFromNumber()</text>
<text text-anchor="start" x="69.74" y="-339" font-family="Helvetica,sans-Serif" font-size="10.00">&#45;</text>
<text text-anchor="start" x="90.24" y="-339" font-family="Helvetica,sans-Serif" font-size="10.00">getPlayerFromNumber()</text>
<text text-anchor="start" x="69.74" y="-324" font-family="Helvetica,sans-Serif" font-size="10.00">&#45;</text>
<text text-anchor="start" x="90.24" y="-324" font-family="Helvetica,sans-Serif" font-size="10.00">loadFoul()</text>
<text text-anchor="start" x="69.74" y="-309" font-family="Helvetica,sans-Serif" font-size="10.00">&#45;</text>
<text text-anchor="start" x="90.24" y="-309" font-family="Helvetica,sans-Serif" font-size="10.00">loadMatch()</text>
<text text-anchor="start" x="69.74" y="-294" font-family="Helvetica,sans-Serif" font-size="10.00">&#45;</text>
<text text-anchor="start" x="90.24" y="-294" font-family="Helvetica,sans-Serif" font-size="10.00">loadPlayer()</text>
<polygon fill="#666666" stroke="#666666" points="53.24,-499 53.24,-499 232.24,-499 232.24,-499 53.24,-499"/>
<polygon fill="#666666" stroke="#666666" points="53.24,-484 53.24,-484 232.24,-484 232.24,-484 53.24,-484"/>
<polygon fill="none" stroke="#666666" points="52.74,-287 52.74,-527 231.74,-527 231.74,-287 52.74,-287"/>
</a>
</g>
</g>
<!-- Node2&#45;&gt;Node1 -->
<g id="edge1_Node000001_Node000002" class="edge">
<title>Node2&#45;&gt;Node1</title>
<g id="a_edge1_Node000001_Node000002"><a xlink:title=" ">
<path fill="none" stroke="#63b8ff" d="M142.24,-286.79C142.24,-275.47 142.24,-263.96 142.24,-252.54"/>
<polygon fill="none" stroke="#63b8ff" points="142.24,-252.19 138.24,-246.2 142.24,-240.19 146.24,-246.19 142.24,-252.19"/>
</a>
</g>
<text text-anchor="middle" x="166.74" y="-261" font-family="Helvetica,sans-Serif" font-size="10.00" fill="grey"> &#45;instance</text>
</g>
<!-- Node2&#45;&gt;Node2 -->
<g id="edge2_Node000002_Node000002" class="edge">
<title>Node2&#45;&gt;Node2</title>
<g id="a_edge2_Node000002_Node000002"><a xlink:title=" ">
<path fill="none" stroke="#63b8ff" d="M232.02,-429.88C242.74,-425.72 249.74,-418.09 249.74,-407 249.74,-400.07 247,-394.49 242.33,-390.26"/>
<polygon fill="none" stroke="#63b8ff" points="242.33,-390.26 235.13,-390.63 232.02,-384.12 239.22,-383.75 242.33,-390.26"/>
</a>
</g>
<text text-anchor="middle" x="274.24" y="-404.5" font-family="Helvetica,sans-Serif" font-size="10.00" fill="grey"> &#45;instance</text>
</g>
<!-- Node3 -->
<g id="Node000003" class="node">
<title>Node3</title>
<g id="a_Node000003"><a xlink:title=" ">
<polygon fill="white" stroke="transparent" points="68.24,-628.5 40.24,-628.5 40.24,-579.5 68.24,-579.5 68.24,-628.5"/>
<text text-anchor="start" x="45.24" y="-616" font-family="Helvetica,sans-Serif" font-size="10.00">File</text>
<text text-anchor="start" x="52.24" y="-601" font-family="Helvetica,sans-Serif" font-size="10.00"> </text>
<text text-anchor="start" x="52.24" y="-586" font-family="Helvetica,sans-Serif" font-size="10.00"> </text>
<polygon fill="#666666" stroke="#666666" points="40.24,-611 40.24,-611 68.24,-611 68.24,-611 40.24,-611"/>
<polygon fill="#666666" stroke="#666666" points="40.24,-596 40.24,-596 68.24,-596 68.24,-596 40.24,-596"/>
<polygon fill="none" stroke="#666666" points="40.24,-579.5 40.24,-628.5 68.24,-628.5 68.24,-579.5 40.24,-579.5"/>
</a>
</g>
</g>
<!-- Node3&#45;&gt;Node1 -->
<g id="edge6_Node000001_Node000003" class="edge">
<title>Node3&#45;&gt;Node1</title>
<g id="a_edge6_Node000001_Node000003"><a xlink:title=" ">
<path fill="none" stroke="#63b8ff" d="M40.89,-579.2C33.49,-564.62 25.04,-545.31 21.24,-527 -0.46,-422.56 -11.81,-388.42 21.24,-287 27.18,-268.75 35.98,-250.83 46.16,-233.92"/>
<polygon fill="none" stroke="#63b8ff" points="46.3,-233.69 46.09,-226.49 52.67,-223.52 52.87,-230.73 46.3,-233.69"/>
</a>
</g>
<text text-anchor="middle" x="32.24" y="-404.5" font-family="Helvetica,sans-Serif" font-size="10.00" fill="grey"> &#45;file</text>
</g>
<!-- Node3&#45;&gt;Node2 -->
<g id="edge3_Node000002_Node000003" class="edge">
<title>Node3&#45;&gt;Node2</title>
<g id="a_edge3_Node000002_Node000003"><a xlink:title=" ">
<path fill="none" stroke="#63b8ff" d="M64.85,-579.48C69.9,-568.29 76.38,-553.94 83.43,-538.31"/>
<polygon fill="none" stroke="#63b8ff" points="83.45,-538.26 82.27,-531.14 88.39,-527.32 89.57,-534.43 83.45,-538.26"/>
</a>
</g>
<text text-anchor="middle" x="92.24" y="-548" font-family="Helvetica,sans-Serif" font-size="10.00" fill="grey"> &#45;file</text>
</g>
<!-- Node4 -->
<g id="Node000004" class="node">
<title>Node4</title>
<g id="a_Node000004"><a xlink:title=" ">
<polygon fill="white" stroke="transparent" points="362.24,-634 160.24,-634 160.24,-574 362.24,-574 362.24,-634"/>
<text text-anchor="start" x="165.24" y="-622" font-family="Helvetica,sans-Serif" font-size="10.00">ArrayList&lt; es.alrodmue.model.players.</text>
<text text-anchor="start" x="239.74" y="-611" font-family="Helvetica,sans-Serif" font-size="10.00">Player &gt;</text>
<text text-anchor="start" x="259.24" y="-596" font-family="Helvetica,sans-Serif" font-size="10.00"> </text>
<text text-anchor="start" x="259.24" y="-581" font-family="Helvetica,sans-Serif" font-size="10.00"> </text>
<polygon fill="#666666" stroke="#666666" points="160.24,-606 160.24,-606 362.24,-606 362.24,-606 160.24,-606"/>
<polygon fill="#666666" stroke="#666666" points="160.24,-591 160.24,-591 362.24,-591 362.24,-591 160.24,-591"/>
<polygon fill="none" stroke="#666666" points="160.24,-574 160.24,-634 362.24,-634 362.24,-574 160.24,-574"/>
</a>
</g>
</g>
<!-- Node4&#45;&gt;Node1 -->
<g id="edge7_Node000001_Node000004" class="edge">
<title>Node4&#45;&gt;Node1</title>
<g id="a_edge7_Node000001_Node000004"><a xlink:title=" ">
<path fill="none" stroke="#63b8ff" d="M284.8,-573.83C294.12,-560.41 303.68,-543.77 308.24,-527 336.18,-424.06 349.05,-385.55 308.24,-287 293.74,-252 267.89,-220.54 240.84,-194.65"/>
<polygon fill="none" stroke="#63b8ff" points="240.81,-194.63 233.69,-193.46 232.03,-186.45 239.14,-187.61 240.81,-194.63"/>
</a>
</g>
<text text-anchor="middle" x="361.74" y="-404.5" font-family="Helvetica,sans-Serif" font-size="10.00" fill="grey"> &#45;playerList</text>
</g>
<!-- Node4&#45;&gt;Node2 -->
<g id="edge4_Node000002_Node000004" class="edge">
<title>Node4&#45;&gt;Node2</title>
<g id="a_edge4_Node000002_Node000004"><a xlink:title=" ">
<path fill="none" stroke="#63b8ff" d="M243.42,-573.81C237.06,-563.39 229.43,-550.89 221.25,-537.48"/>
<polygon fill="none" stroke="#63b8ff" points="221.15,-537.31 214.61,-534.27 214.9,-527.07 221.44,-530.1 221.15,-537.31"/>
</a>
</g>
<text text-anchor="middle" x="259.74" y="-548" font-family="Helvetica,sans-Serif" font-size="10.00" fill="grey"> &#45;playerList</text>
</g>
<!-- Node5 -->
<g id="Node000005" class="node">
<title>Node5</title>
<g id="a_Node000005"><a xlink:title=" ">
<polygon fill="white" stroke="transparent" points="288.24,-741 234.24,-741 234.24,-692 288.24,-692 288.24,-741"/>
<text text-anchor="start" x="239.24" y="-728.5" font-family="Helvetica,sans-Serif" font-size="10.00">ArrayList</text>
<text text-anchor="start" x="259.24" y="-713.5" font-family="Helvetica,sans-Serif" font-size="10.00"> </text>
<text text-anchor="start" x="259.24" y="-698.5" font-family="Helvetica,sans-Serif" font-size="10.00"> </text>
<polygon fill="#666666" stroke="#666666" points="234.24,-723.5 234.24,-723.5 288.24,-723.5 288.24,-723.5 234.24,-723.5"/>
<polygon fill="#666666" stroke="#666666" points="234.24,-708.5 234.24,-708.5 288.24,-708.5 288.24,-708.5 234.24,-708.5"/>
<polygon fill="none" stroke="#666666" points="234.24,-692 234.24,-741 288.24,-741 288.24,-692 234.24,-692"/>
</a>
</g>
</g>
<!-- Node5&#45;&gt;Node4 -->
<g id="edge5_Node000004_Node000005" class="edge">
<title>Node5&#45;&gt;Node4</title>
<g id="a_edge5_Node000004_Node000005"><a xlink:title=" ">
<path fill="none" stroke="orange" d="M261.24,-681.75C261.24,-666.56 261.24,-648.79 261.24,-634.17"/>
<polygon fill="orange" stroke="orange" points="257.74,-681.79 261.24,-691.79 264.74,-681.8 257.74,-681.79"/>
</a>
</g>
<text text-anchor="start" x="261.24" y="-666" font-family="Helvetica,sans-Serif" font-size="10.00" fill="grey"> &lt; es::alrodmue::model</text>
<text text-anchor="middle" x="318.74" y="-655" font-family="Helvetica,sans-Serif" font-size="10.00" fill="grey">::players::Player &gt;</text>
</g>
</g>
</svg>
