<?xml version="1.0" encoding="UTF-8" standalone="no"?>
<!DOCTYPE svg PUBLIC "-//W3C//DTD SVG 1.1//EN"
 "http://www.w3.org/Graphics/SVG/1.1/DTD/svg11.dtd">
<!-- Generated by graphviz version 2.43.0 (0)
 -->
<!-- Title: es.alrodmue.controller.PlayerController.PlayerController Pages: 1 -->
<svg width="598pt" height="182pt"
 viewBox="0.00 0.00 598.00 182.00" xmlns="http://www.w3.org/2000/svg" xmlns:xlink="http://www.w3.org/1999/xlink">
<g id="graph0" class="graph" transform="scale(1 1) rotate(0) translate(4 178)">
<title>es.alrodmue.controller.PlayerController.PlayerController</title>
<!-- Node1 -->
<g id="Node000001" class="node">
<title>Node1</title>
<g id="a_Node000001"><a xlink:title=" ">
<polygon fill="#999999" stroke="#666666" points="590,-102 430,-102 430,-72 590,-72 590,-102"/>
<text text-anchor="start" x="438" y="-90" font-family="Helvetica,sans-Serif" font-size="10.00">es.alrodmue.controller.Player</text>
<text text-anchor="middle" x="510" y="-79" font-family="Helvetica,sans-Serif" font-size="10.00">Controller.PlayerController</text>
</a>
</g>
</g>
<!-- Node2 -->
<g id="Node000002" class="node">
<title>Node2</title>
<g id="a_Node000002"><a xlink:href="classes_1_1alrodmue_1_1controller_1_1PlayerController.xhtml#a38a2929c0918e63bd49bcd1922dbc120" target="_top" xlink:title=" ">
<polygon fill="white" stroke="#666666" points="394,-102 234,-102 234,-72 394,-72 394,-102"/>
<text text-anchor="start" x="242" y="-90" font-family="Helvetica,sans-Serif" font-size="10.00">es.alrodmue.controller.Player</text>
<text text-anchor="middle" x="314" y="-79" font-family="Helvetica,sans-Serif" font-size="10.00">Controller.getInstance</text>
</a>
</g>
</g>
<!-- Node1&#45;&gt;Node2 -->
<g id="edge1_Node000001_Node000002" class="edge">
<title>Node1&#45;&gt;Node2</title>
<g id="a_edge1_Node000001_Node000002"><a xlink:title=" ">
<path fill="none" stroke="#63b8ff" d="M419.56,-87C411.12,-87 402.59,-87 394.25,-87"/>
<polygon fill="#63b8ff" stroke="#63b8ff" points="419.81,-90.5 429.81,-87 419.81,-83.5 419.81,-90.5"/>
</a>
</g>
</g>
<!-- Node3 -->
<g id="Node000003" class="node">
<title>Node3</title>
<g id="a_Node000003"><a xlink:href="classes_1_1alrodmue_1_1view_1_1AddPlayerViewController.xhtml#a9194dc8d302c529d039789001b272d94" target="_top" xlink:title=" ">
<polygon fill="white" stroke="#666666" points="195,-174 3,-174 3,-144 195,-144 195,-174"/>
<text text-anchor="start" x="11" y="-162" font-family="Helvetica,sans-Serif" font-size="10.00">es.alrodmue.view.AddPlayer</text>
<text text-anchor="middle" x="99" y="-151" font-family="Helvetica,sans-Serif" font-size="10.00">ViewController.onAcceptButtonClick</text>
</a>
</g>
</g>
<!-- Node2&#45;&gt;Node3 -->
<g id="edge2_Node000002_Node000003" class="edge">
<title>Node2&#45;&gt;Node3</title>
<g id="a_edge2_Node000002_Node000003"><a xlink:title=" ">
<path fill="none" stroke="#63b8ff" d="M271.58,-106.12C249.96,-115.63 222.88,-126.81 198,-135 188.18,-138.23 177.69,-141.24 167.34,-143.97"/>
<polygon fill="#63b8ff" stroke="#63b8ff" points="273.08,-109.29 280.79,-102.03 270.23,-102.89 273.08,-109.29"/>
</a>
</g>
</g>
<!-- Node4 -->
<g id="Node000004" class="node">
<title>Node4</title>
<g id="a_Node000004"><a xlink:href="classes_1_1alrodmue_1_1view_1_1MainViewController.xhtml#a0df6b342f9e0b4a14f7014ab895365ba" target="_top" xlink:title=" ">
<polygon fill="white" stroke="#666666" points="198,-126 0,-126 0,-96 198,-96 198,-126"/>
<text text-anchor="start" x="8" y="-114" font-family="Helvetica,sans-Serif" font-size="10.00">es.alrodmue.view.MainView</text>
<text text-anchor="middle" x="99" y="-103" font-family="Helvetica,sans-Serif" font-size="10.00">Controller.onDeletePlayerButtonClick</text>
</a>
</g>
</g>
<!-- Node2&#45;&gt;Node4 -->
<g id="edge3_Node000002_Node000004" class="edge">
<title>Node2&#45;&gt;Node4</title>
<g id="a_edge3_Node000002_Node000004"><a xlink:title=" ">
<path fill="none" stroke="#63b8ff" d="M224,-97.03C215.42,-98 206.68,-98.98 198.02,-99.96"/>
<polygon fill="#63b8ff" stroke="#63b8ff" points="224.44,-100.5 233.99,-95.9 223.66,-93.54 224.44,-100.5"/>
</a>
</g>
</g>
<!-- Node5 -->
<g id="Node000005" class="node">
<title>Node5</title>
<g id="a_Node000005"><a xlink:href="classes_1_1alrodmue_1_1view_1_1MainViewController.xhtml#a042478bdebe2b418a1e33cc8a2404d8b" target="_top" xlink:title=" ">
<polygon fill="white" stroke="#666666" points="193,-78 5,-78 5,-48 193,-48 193,-78"/>
<text text-anchor="start" x="13" y="-66" font-family="Helvetica,sans-Serif" font-size="10.00">es.alrodmue.view.MainView</text>
<text text-anchor="middle" x="99" y="-55" font-family="Helvetica,sans-Serif" font-size="10.00">Controller.onPlayerTypeButtonClick</text>
</a>
</g>
</g>
<!-- Node2&#45;&gt;Node5 -->
<g id="edge4_Node000002_Node000005" class="edge">
<title>Node2&#45;&gt;Node5</title>
<g id="a_edge4_Node000002_Node000005"><a xlink:title=" ">
<path fill="none" stroke="#63b8ff" d="M223.94,-76.97C213.81,-75.82 203.46,-74.66 193.28,-73.51"/>
<polygon fill="#63b8ff" stroke="#63b8ff" points="223.66,-80.46 233.99,-78.1 224.44,-73.5 223.66,-80.46"/>
</a>
</g>
</g>
<!-- Node6 -->
<g id="Node000006" class="node">
<title>Node6</title>
<g id="a_Node000006"><a xlink:href="classes_1_1alrodmue_1_1view_1_1MainViewController.xhtml#a028c81a521a083af5934fe5e2d612f81" target="_top" xlink:title=" ">
<polygon fill="white" stroke="#666666" points="194,-30 4,-30 4,0 194,0 194,-30"/>
<text text-anchor="start" x="12" y="-18" font-family="Helvetica,sans-Serif" font-size="10.00">es.alrodmue.view.MainView</text>
<text text-anchor="middle" x="99" y="-7" font-family="Helvetica,sans-Serif" font-size="10.00">Controller.onViewPlayerButtonClick</text>
</a>
</g>
</g>
<!-- Node2&#45;&gt;Node6 -->
<g id="edge5_Node000002_Node000006" class="edge">
<title>Node2&#45;&gt;Node6</title>
<g id="a_edge5_Node000002_Node000006"><a xlink:title=" ">
<path fill="none" stroke="#63b8ff" d="M271.58,-67.88C249.96,-58.37 222.88,-47.19 198,-39 188.18,-35.77 177.69,-32.76 167.34,-30.03"/>
<polygon fill="#63b8ff" stroke="#63b8ff" points="270.23,-71.11 280.79,-71.97 273.08,-64.71 270.23,-71.11"/>
</a>
</g>
</g>
</g>
</svg>
