<?xml version="1.0" encoding="UTF-8" standalone="no"?>
<!DOCTYPE svg PUBLIC "-//W3C//DTD SVG 1.1//EN"
 "http://www.w3.org/Graphics/SVG/1.1/DTD/svg11.dtd">
<!-- Generated by graphviz version 2.43.0 (0)
 -->
<!-- Title: es.alrodmue.view.MainViewController Pages: 1 -->
<svg width="2626pt" height="687pt"
 viewBox="0.00 0.00 2625.50 687.00" xmlns="http://www.w3.org/2000/svg" xmlns:xlink="http://www.w3.org/1999/xlink">
<g id="graph0" class="graph" transform="scale(1 1) rotate(0) translate(4 683)">
<title>es.alrodmue.view.MainViewController</title>
<!-- Node1 -->
<g id="Node000001" class="node">
<title>Node1</title>
<g id="a_Node000001"><a xlink:title=" ">
<polygon fill="#999999" stroke="transparent" points="1604,-165 1444,-165 1444,0 1604,0 1604,-165"/>
<text text-anchor="start" x="1455" y="-152.5" font-family="Helvetica,sans-Serif" font-size="10.00">es.alrodmue.view.MainView</text>
<text text-anchor="start" x="1499.5" y="-141.5" font-family="Helvetica,sans-Serif" font-size="10.00">Controller</text>
<text text-anchor="start" x="1522" y="-126.5" font-family="Helvetica,sans-Serif" font-size="10.00"> </text>
<text text-anchor="start" x="1448" y="-111.5" font-family="Helvetica,sans-Serif" font-size="10.00">+</text>
<text text-anchor="start" x="1461" y="-111.5" font-family="Helvetica,sans-Serif" font-size="10.00">initialize()</text>
<text text-anchor="start" x="1450.5" y="-96.5" font-family="Helvetica,sans-Serif" font-size="10.00">&#45;</text>
<text text-anchor="start" x="1461" y="-96.5" font-family="Helvetica,sans-Serif" font-size="10.00">onAddPlayerButtonClick()</text>
<text text-anchor="start" x="1450.5" y="-81.5" font-family="Helvetica,sans-Serif" font-size="10.00">&#45;</text>
<text text-anchor="start" x="1461" y="-81.5" font-family="Helvetica,sans-Serif" font-size="10.00">onDeletePlayerButtonClick()</text>
<text text-anchor="start" x="1450.5" y="-66.5" font-family="Helvetica,sans-Serif" font-size="10.00">&#45;</text>
<text text-anchor="start" x="1461" y="-66.5" font-family="Helvetica,sans-Serif" font-size="10.00">onLastMatchButtonClick()</text>
<text text-anchor="start" x="1450.5" y="-51.5" font-family="Helvetica,sans-Serif" font-size="10.00">&#45;</text>
<text text-anchor="start" x="1461" y="-51.5" font-family="Helvetica,sans-Serif" font-size="10.00">onPlayerTypeButtonClick()</text>
<text text-anchor="start" x="1450.5" y="-36.5" font-family="Helvetica,sans-Serif" font-size="10.00">&#45;</text>
<text text-anchor="start" x="1461" y="-36.5" font-family="Helvetica,sans-Serif" font-size="10.00">onPlayMatchButtonClick()</text>
<text text-anchor="start" x="1450.5" y="-21.5" font-family="Helvetica,sans-Serif" font-size="10.00">&#45;</text>
<text text-anchor="start" x="1461" y="-21.5" font-family="Helvetica,sans-Serif" font-size="10.00">onViewMatchButtonClick()</text>
<text text-anchor="start" x="1450.5" y="-6.5" font-family="Helvetica,sans-Serif" font-size="10.00">&#45;</text>
<text text-anchor="start" x="1461" y="-6.5" font-family="Helvetica,sans-Serif" font-size="10.00">onViewPlayerButtonClick()</text>
<polygon fill="#666666" stroke="#666666" points="1444,-136.5 1444,-136.5 1604,-136.5 1604,-136.5 1444,-136.5"/>
<polygon fill="#666666" stroke="#666666" points="1444,-121.5 1444,-121.5 1604,-121.5 1604,-121.5 1444,-121.5"/>
<polygon fill="none" stroke="#666666" points="1444,0 1444,-165 1604,-165 1604,0 1444,0"/>
</a>
</g>
</g>
<!-- Node2 -->
<g id="Node000002" class="node">
<title>Node2</title>
<g id="a_Node000002"><a xlink:title=" ">
<polygon fill="white" stroke="transparent" points="68,-379.5 0,-379.5 0,-330.5 68,-330.5 68,-379.5"/>
<text text-anchor="start" x="5" y="-367" font-family="Helvetica,sans-Serif" font-size="10.00">Initializable</text>
<text text-anchor="start" x="32" y="-352" font-family="Helvetica,sans-Serif" font-size="10.00"> </text>
<text text-anchor="start" x="32" y="-337" font-family="Helvetica,sans-Serif" font-size="10.00"> </text>
<polygon fill="#666666" stroke="#666666" points="0,-362 0,-362 68,-362 68,-362 0,-362"/>
<polygon fill="#666666" stroke="#666666" points="0,-347 0,-347 68,-347 68,-347 0,-347"/>
<polygon fill="none" stroke="#666666" points="0,-330.5 0,-379.5 68,-379.5 68,-330.5 0,-330.5"/>
</a>
</g>
</g>
<!-- Node2&#45;&gt;Node1 -->
<g id="edge1_Node000001_Node000002" class="edge">
<title>Node2&#45;&gt;Node1</title>
<g id="a_edge1_Node000001_Node000002"><a xlink:title=" ">
<path fill="none" stroke="#63b8ff" d="M46.58,-320.79C53.6,-306 63.67,-289.39 77,-278 168.65,-199.72 213.39,-209.37 331,-183 742.18,-90.81 1250.37,-82.24 1443.99,-82.66"/>
<polygon fill="none" stroke="#63b8ff" points="43.27,-319.62 42.4,-330.17 49.66,-322.47 43.27,-319.62"/>
</a>
</g>
</g>
<!-- Node3 -->
<g id="Node000003" class="node">
<title>Node3</title>
<g id="a_Node000003"><a xlink:title=" ">
<polygon fill="white" stroke="transparent" points="294,-385 86,-385 86,-325 294,-325 294,-385"/>
<text text-anchor="start" x="91" y="-373" font-family="Helvetica,sans-Serif" font-size="10.00">TableView&lt; es.alrodmue.model.players.</text>
<text text-anchor="start" x="168.5" y="-362" font-family="Helvetica,sans-Serif" font-size="10.00">Player &gt;</text>
<text text-anchor="start" x="188" y="-347" font-family="Helvetica,sans-Serif" font-size="10.00"> </text>
<text text-anchor="start" x="188" y="-332" font-family="Helvetica,sans-Serif" font-size="10.00"> </text>
<polygon fill="#666666" stroke="#666666" points="86,-357 86,-357 294,-357 294,-357 86,-357"/>
<polygon fill="#666666" stroke="#666666" points="86,-342 86,-342 294,-342 294,-342 86,-342"/>
<polygon fill="none" stroke="#666666" points="86,-325 86,-385 294,-385 294,-325 86,-325"/>
</a>
</g>
</g>
<!-- Node3&#45;&gt;Node1 -->
<g id="edge2_Node000001_Node000003" class="edge">
<title>Node3&#45;&gt;Node1</title>
<g id="a_edge2_Node000001_Node000003"><a xlink:title=" ">
<path fill="none" stroke="#63b8ff" d="M228.79,-324.94C285.38,-284.42 395.48,-212.62 502,-183 675.85,-134.66 1213.86,-100.55 1431.36,-88.39"/>
<polygon fill="none" stroke="#63b8ff" points="1431.68,-88.38 1437.44,-84.05 1443.66,-87.71 1437.89,-92.04 1431.68,-88.38"/>
</a>
</g>
<text text-anchor="middle" x="534" y="-219" font-family="Helvetica,sans-Serif" font-size="10.00" fill="grey"> &#45;playerTable</text>
</g>
<!-- Node4 -->
<g id="Node000004" class="node">
<title>Node4</title>
<g id="a_Node000004"><a xlink:title=" ">
<polygon fill="white" stroke="transparent" points="312,-566.5 252,-566.5 252,-517.5 312,-517.5 312,-566.5"/>
<text text-anchor="start" x="257" y="-554" font-family="Helvetica,sans-Serif" font-size="10.00">TableView</text>
<text text-anchor="start" x="280" y="-539" font-family="Helvetica,sans-Serif" font-size="10.00"> </text>
<text text-anchor="start" x="280" y="-524" font-family="Helvetica,sans-Serif" font-size="10.00"> </text>
<polygon fill="#666666" stroke="#666666" points="252,-549 252,-549 312,-549 312,-549 252,-549"/>
<polygon fill="#666666" stroke="#666666" points="252,-534 252,-534 312,-534 312,-534 252,-534"/>
<polygon fill="none" stroke="#666666" points="252,-517.5 252,-566.5 312,-566.5 312,-517.5 252,-517.5"/>
</a>
</g>
</g>
<!-- Node4&#45;&gt;Node3 -->
<g id="edge3_Node000003_Node000004" class="edge">
<title>Node4&#45;&gt;Node3</title>
<g id="a_edge3_Node000003_Node000004"><a xlink:title=" ">
<path fill="none" stroke="orange" d="M248.63,-509.78C244.35,-504.78 240.31,-499.45 237,-494 215.97,-459.39 202.87,-414.14 196,-385.06"/>
<polygon fill="orange" stroke="orange" points="246.18,-512.29 255.5,-517.33 251.36,-507.58 246.18,-512.29"/>
</a>
</g>
<text text-anchor="start" x="237" y="-475" font-family="Helvetica,sans-Serif" font-size="10.00" fill="grey"> &lt; es::alrodmue::model</text>
<text text-anchor="middle" x="294.5" y="-464" font-family="Helvetica,sans-Serif" font-size="10.00" fill="grey">::players::Player &gt;</text>
</g>
<!-- Node9 -->
<g id="Node000009" class="node">
<title>Node9</title>
<g id="a_Node000009"><a xlink:title=" ">
<polygon fill="white" stroke="transparent" points="526,-385 312,-385 312,-325 526,-325 526,-385"/>
<text text-anchor="start" x="317" y="-373" font-family="Helvetica,sans-Serif" font-size="10.00">TableView&lt; es.alrodmue.model.matches.</text>
<text text-anchor="start" x="398" y="-362" font-family="Helvetica,sans-Serif" font-size="10.00">Match &gt;</text>
<text text-anchor="start" x="417" y="-347" font-family="Helvetica,sans-Serif" font-size="10.00"> </text>
<text text-anchor="start" x="417" y="-332" font-family="Helvetica,sans-Serif" font-size="10.00"> </text>
<polygon fill="#666666" stroke="#666666" points="312,-357 312,-357 526,-357 526,-357 312,-357"/>
<polygon fill="#666666" stroke="#666666" points="312,-342 312,-342 526,-342 526,-342 312,-342"/>
<polygon fill="none" stroke="#666666" points="312,-325 312,-385 526,-385 526,-325 312,-325"/>
</a>
</g>
</g>
<!-- Node4&#45;&gt;Node9 -->
<g id="edge11_Node000009_Node000004" class="edge">
<title>Node4&#45;&gt;Node9</title>
<g id="a_edge11_Node000009_Node000004"><a xlink:title=" ">
<path fill="none" stroke="orange" d="M320.95,-520.06C331.95,-512.85 343.28,-504.02 352,-494 380.22,-461.54 399.5,-415.12 409.89,-385.26"/>
<polygon fill="orange" stroke="orange" points="318.89,-517.22 312.26,-525.49 322.6,-523.16 318.89,-517.22"/>
</a>
</g>
<text text-anchor="start" x="381" y="-475" font-family="Helvetica,sans-Serif" font-size="10.00" fill="grey"> &lt; es::alrodmue::model</text>
<text text-anchor="middle" x="438.5" y="-464" font-family="Helvetica,sans-Serif" font-size="10.00" fill="grey">::matches::Match &gt;</text>
</g>
<!-- Node5 -->
<g id="Node000005" class="node">
<title>Node5</title>
<g id="a_Node000005"><a xlink:title=" ">
<polygon fill="white" stroke="transparent" points="764.5,-385 543.5,-385 543.5,-325 764.5,-325 764.5,-385"/>
<text text-anchor="start" x="549" y="-373" font-family="Helvetica,sans-Serif" font-size="10.00">TableColumn&lt; es.alrodmue.model.players.</text>
<text text-anchor="start" x="616" y="-362" font-family="Helvetica,sans-Serif" font-size="10.00">Player, String &gt;</text>
<text text-anchor="start" x="652.5" y="-347" font-family="Helvetica,sans-Serif" font-size="10.00"> </text>
<text text-anchor="start" x="652.5" y="-332" font-family="Helvetica,sans-Serif" font-size="10.00"> </text>
<polygon fill="#666666" stroke="#666666" points="544,-357 544,-357 765,-357 765,-357 544,-357"/>
<polygon fill="#666666" stroke="#666666" points="544,-342 544,-342 765,-342 765,-342 544,-342"/>
<polygon fill="none" stroke="#666666" points="543.5,-325 543.5,-385 764.5,-385 764.5,-325 543.5,-325"/>
</a>
</g>
</g>
<!-- Node5&#45;&gt;Node1 -->
<g id="edge4_Node000001_Node000005" class="edge">
<title>Node5&#45;&gt;Node1</title>
<g id="a_edge4_Node000001_Node000005"><a xlink:title=" ">
<path fill="none" stroke="#63b8ff" d="M696.37,-324.92C718.92,-310.02 747.42,-292.1 774,-278 867.36,-228.47 890.97,-214.02 992,-183 1142.71,-136.72 1324.39,-108.36 1431.71,-94.32"/>
<polygon fill="none" stroke="#63b8ff" points="1431.88,-94.29 1437.31,-89.56 1443.78,-92.76 1438.34,-97.49 1431.88,-94.29"/>
</a>
</g>
<text text-anchor="middle" x="1025.5" y="-219" font-family="Helvetica,sans-Serif" font-size="10.00" fill="grey"> &#45;playerName</text>
</g>
<!-- Node6 -->
<g id="Node000006" class="node">
<title>Node6</title>
<g id="a_Node000006"><a xlink:title=" ">
<polygon fill="white" stroke="transparent" points="1197,-566.5 1123,-566.5 1123,-517.5 1197,-517.5 1197,-566.5"/>
<text text-anchor="start" x="1128" y="-554" font-family="Helvetica,sans-Serif" font-size="10.00">TableColumn</text>
<text text-anchor="start" x="1158" y="-539" font-family="Helvetica,sans-Serif" font-size="10.00"> </text>
<text text-anchor="start" x="1158" y="-524" font-family="Helvetica,sans-Serif" font-size="10.00"> </text>
<polygon fill="#666666" stroke="#666666" points="1123,-549 1123,-549 1197,-549 1197,-549 1123,-549"/>
<polygon fill="#666666" stroke="#666666" points="1123,-534 1123,-534 1197,-534 1197,-534 1123,-534"/>
<polygon fill="none" stroke="#666666" points="1123,-517.5 1123,-566.5 1197,-566.5 1197,-517.5 1123,-517.5"/>
</a>
</g>
</g>
<!-- Node6&#45;&gt;Node5 -->
<g id="edge5_Node000005_Node000006" class="edge">
<title>Node6&#45;&gt;Node5</title>
<g id="a_edge5_Node000005_Node000006"><a xlink:title=" ">
<path fill="none" stroke="orange" d="M1112.63,-540.64C1049.89,-538.67 936.82,-529.88 848,-494 784,-468.15 720.94,-417.3 684.83,-385.07"/>
<polygon fill="orange" stroke="orange" points="1112.91,-544.15 1123,-540.92 1113.09,-537.15 1112.91,-544.15"/>
</a>
</g>
<text text-anchor="start" x="848" y="-475" font-family="Helvetica,sans-Serif" font-size="10.00" fill="grey"> &lt; es::alrodmue::model</text>
<text text-anchor="middle" x="910.5" y="-464" font-family="Helvetica,sans-Serif" font-size="10.00" fill="grey">::players::Player, String &gt;</text>
</g>
<!-- Node7 -->
<g id="Node000007" class="node">
<title>Node7</title>
<g id="a_Node000007"><a xlink:title=" ">
<polygon fill="white" stroke="transparent" points="1031,-385 783,-385 783,-325 1031,-325 1031,-385"/>
<text text-anchor="start" x="788" y="-373" font-family="Helvetica,sans-Serif" font-size="10.00">TableColumn&lt; es.alrodmue.model.players.</text>
<text text-anchor="start" x="788" y="-362" font-family="Helvetica,sans-Serif" font-size="10.00">Player, es.alrodmue.model.players.PlayerType &gt;</text>
<text text-anchor="start" x="905" y="-347" font-family="Helvetica,sans-Serif" font-size="10.00"> </text>
<text text-anchor="start" x="905" y="-332" font-family="Helvetica,sans-Serif" font-size="10.00"> </text>
<polygon fill="#666666" stroke="#666666" points="783,-357 783,-357 1031,-357 1031,-357 783,-357"/>
<polygon fill="#666666" stroke="#666666" points="783,-342 783,-342 1031,-342 1031,-342 783,-342"/>
<polygon fill="none" stroke="#666666" points="783,-325 783,-385 1031,-385 1031,-325 783,-325"/>
</a>
</g>
</g>
<!-- Node6&#45;&gt;Node7 -->
<g id="edge7_Node000007_Node000006" class="edge">
<title>Node6&#45;&gt;Node7</title>
<g id="a_edge7_Node000007_Node000006"><a xlink:title=" ">
<path fill="none" stroke="orange" d="M1113.09,-531.39C1085.47,-524.18 1050.81,-512.35 1024,-494 981.36,-464.82 945.21,-416.16 924.81,-385.1"/>
<polygon fill="orange" stroke="orange" points="1112.37,-534.81 1122.92,-533.83 1114.06,-528.02 1112.37,-534.81"/>
</a>
</g>
<text text-anchor="start" x="1024" y="-486" font-family="Helvetica,sans-Serif" font-size="10.00" fill="grey"> &lt; es::alrodmue::model</text>
<text text-anchor="start" x="1024" y="-475" font-family="Helvetica,sans-Serif" font-size="10.00" fill="grey">::players::Player, es</text>
<text text-anchor="start" x="1024" y="-464" font-family="Helvetica,sans-Serif" font-size="10.00" fill="grey">::alrodmue::model::players</text>
<text text-anchor="middle" x="1090" y="-453" font-family="Helvetica,sans-Serif" font-size="10.00" fill="grey">::PlayerType &gt;</text>
</g>
<!-- Node8 -->
<g id="Node000008" class="node">
<title>Node8</title>
<g id="a_Node000008"><a xlink:title=" ">
<polygon fill="white" stroke="transparent" points="1270.5,-385 1049.5,-385 1049.5,-325 1270.5,-325 1270.5,-385"/>
<text text-anchor="start" x="1055" y="-373" font-family="Helvetica,sans-Serif" font-size="10.00">TableColumn&lt; es.alrodmue.model.players.</text>
<text text-anchor="start" x="1119" y="-362" font-family="Helvetica,sans-Serif" font-size="10.00">Player, Integer &gt;</text>
<text text-anchor="start" x="1158.5" y="-347" font-family="Helvetica,sans-Serif" font-size="10.00"> </text>
<text text-anchor="start" x="1158.5" y="-332" font-family="Helvetica,sans-Serif" font-size="10.00"> </text>
<polygon fill="#666666" stroke="#666666" points="1050,-357 1050,-357 1271,-357 1271,-357 1050,-357"/>
<polygon fill="#666666" stroke="#666666" points="1050,-342 1050,-342 1271,-342 1271,-342 1050,-342"/>
<polygon fill="none" stroke="#666666" points="1049.5,-325 1049.5,-385 1270.5,-385 1270.5,-325 1049.5,-325"/>
</a>
</g>
</g>
<!-- Node6&#45;&gt;Node8 -->
<g id="edge9_Node000008_Node000006" class="edge">
<title>Node6&#45;&gt;Node8</title>
<g id="a_edge9_Node000008_Node000006"><a xlink:title=" ">
<path fill="none" stroke="orange" d="M1160,-507C1160,-472.07 1160,-418.26 1160,-385.2"/>
<polygon fill="orange" stroke="orange" points="1156.5,-507.19 1160,-517.19 1163.5,-507.19 1156.5,-507.19"/>
</a>
</g>
<text text-anchor="start" x="1160" y="-475" font-family="Helvetica,sans-Serif" font-size="10.00" fill="grey"> &lt; es::alrodmue::model</text>
<text text-anchor="middle" x="1225.5" y="-464" font-family="Helvetica,sans-Serif" font-size="10.00" fill="grey">::players::Player, Integer &gt;</text>
</g>
<!-- Node10 -->
<g id="Node000010" class="node">
<title>Node10</title>
<g id="a_Node000010"><a xlink:title=" ">
<polygon fill="white" stroke="transparent" points="1515.5,-385 1288.5,-385 1288.5,-325 1515.5,-325 1515.5,-385"/>
<text text-anchor="start" x="1294" y="-373" font-family="Helvetica,sans-Serif" font-size="10.00">TableColumn&lt; es.alrodmue.model.matches.</text>
<text text-anchor="start" x="1354" y="-362" font-family="Helvetica,sans-Serif" font-size="10.00">Match, LocalDate &gt;</text>
<text text-anchor="start" x="1400.5" y="-347" font-family="Helvetica,sans-Serif" font-size="10.00"> </text>
<text text-anchor="start" x="1400.5" y="-332" font-family="Helvetica,sans-Serif" font-size="10.00"> </text>
<polygon fill="#666666" stroke="#666666" points="1289,-357 1289,-357 1516,-357 1516,-357 1289,-357"/>
<polygon fill="#666666" stroke="#666666" points="1289,-342 1289,-342 1516,-342 1516,-342 1289,-342"/>
<polygon fill="none" stroke="#666666" points="1288.5,-325 1288.5,-385 1515.5,-385 1515.5,-325 1288.5,-325"/>
</a>
</g>
</g>
<!-- Node6&#45;&gt;Node10 -->
<g id="edge13_Node000010_Node000006" class="edge">
<title>Node6&#45;&gt;Node10</title>
<g id="a_edge13_Node000010_Node000006"><a xlink:title=" ">
<path fill="none" stroke="orange" d="M1206.86,-531.74C1234.38,-524.66 1268.8,-512.83 1295,-494 1335.5,-464.9 1368.13,-416.21 1386.28,-385.13"/>
<polygon fill="orange" stroke="orange" points="1205.94,-528.36 1197.06,-534.14 1207.6,-535.16 1205.94,-528.36"/>
</a>
</g>
<text text-anchor="start" x="1340" y="-475" font-family="Helvetica,sans-Serif" font-size="10.00" fill="grey"> &lt; es::alrodmue::model</text>
<text text-anchor="middle" x="1415.5" y="-464" font-family="Helvetica,sans-Serif" font-size="10.00" fill="grey">::matches::Match, LocalDate &gt;</text>
</g>
<!-- Node11 -->
<g id="Node000011" class="node">
<title>Node11</title>
<g id="a_Node000011"><a xlink:title=" ">
<polygon fill="white" stroke="transparent" points="1760.5,-385 1533.5,-385 1533.5,-325 1760.5,-325 1760.5,-385"/>
<text text-anchor="start" x="1539" y="-373" font-family="Helvetica,sans-Serif" font-size="10.00">TableColumn&lt; es.alrodmue.model.matches.</text>
<text text-anchor="start" x="1609.5" y="-362" font-family="Helvetica,sans-Serif" font-size="10.00">Match, String &gt;</text>
<text text-anchor="start" x="1645.5" y="-347" font-family="Helvetica,sans-Serif" font-size="10.00"> </text>
<text text-anchor="start" x="1645.5" y="-332" font-family="Helvetica,sans-Serif" font-size="10.00"> </text>
<polygon fill="#666666" stroke="#666666" points="1534,-357 1534,-357 1761,-357 1761,-357 1534,-357"/>
<polygon fill="#666666" stroke="#666666" points="1534,-342 1534,-342 1761,-342 1761,-342 1534,-342"/>
<polygon fill="none" stroke="#666666" points="1533.5,-325 1533.5,-385 1760.5,-385 1760.5,-325 1533.5,-325"/>
</a>
</g>
</g>
<!-- Node6&#45;&gt;Node11 -->
<g id="edge15_Node000011_Node000006" class="edge">
<title>Node6&#45;&gt;Node11</title>
<g id="a_edge15_Node000011_Node000006"><a xlink:title=" ">
<path fill="none" stroke="orange" d="M1207.39,-537.8C1287.28,-531.84 1444.93,-517.46 1495,-494 1548.9,-468.74 1597.16,-417.71 1624.2,-385.28"/>
<polygon fill="orange" stroke="orange" points="1206.84,-534.33 1197.12,-538.55 1207.35,-541.31 1206.84,-534.33"/>
</a>
</g>
<text text-anchor="start" x="1561" y="-475" font-family="Helvetica,sans-Serif" font-size="10.00" fill="grey"> &lt; es::alrodmue::model</text>
<text text-anchor="middle" x="1626" y="-464" font-family="Helvetica,sans-Serif" font-size="10.00" fill="grey">::matches::Match, String &gt;</text>
</g>
<!-- Node7&#45;&gt;Node1 -->
<g id="edge6_Node000001_Node000007" class="edge">
<title>Node7&#45;&gt;Node1</title>
<g id="a_edge6_Node000001_Node000007"><a xlink:title=" ">
<path fill="none" stroke="#63b8ff" d="M954.33,-324.94C1033.53,-276.32 1184.47,-183.68 1186,-183 1266.19,-147.37 1362.64,-120.43 1431.95,-103.63"/>
<polygon fill="none" stroke="#63b8ff" points="1432.03,-103.61 1436.93,-98.32 1443.7,-100.81 1438.8,-106.1 1432.03,-103.61"/>
</a>
</g>
<text text-anchor="middle" x="1224.5" y="-219" font-family="Helvetica,sans-Serif" font-size="10.00" fill="grey"> &#45;playerPosition</text>
</g>
<!-- Node8&#45;&gt;Node1 -->
<g id="edge8_Node000001_Node000008" class="edge">
<title>Node8&#45;&gt;Node1</title>
<g id="a_edge8_Node000001_Node000008"><a xlink:title=" ">
<path fill="none" stroke="#63b8ff" d="M1191.71,-324.99C1230.89,-289.73 1300.19,-229.23 1364,-183 1385.82,-167.19 1410.17,-151.25 1433.16,-136.9"/>
<polygon fill="none" stroke="#63b8ff" points="1433.41,-136.75 1436.4,-130.19 1443.61,-130.43 1440.61,-136.99 1433.41,-136.75"/>
</a>
</g>
<text text-anchor="middle" x="1402.5" y="-219" font-family="Helvetica,sans-Serif" font-size="10.00" fill="grey"> &#45;playerNumber</text>
</g>
<!-- Node9&#45;&gt;Node1 -->
<g id="edge10_Node000001_Node000009" class="edge">
<title>Node9&#45;&gt;Node1</title>
<g id="a_edge10_Node000001_Node000009"><a xlink:title=" ">
<path fill="none" stroke="#63b8ff" d="M460.43,-324.67C519.65,-284.53 633.38,-213.94 742,-183 984.77,-113.85 1283.64,-92.69 1431.76,-86.27"/>
<polygon fill="none" stroke="#63b8ff" points="1431.9,-86.26 1437.72,-82.01 1443.89,-85.76 1438.06,-90.01 1431.9,-86.26"/>
</a>
</g>
<text text-anchor="middle" x="774" y="-219" font-family="Helvetica,sans-Serif" font-size="10.00" fill="grey"> &#45;matchTable</text>
</g>
<!-- Node10&#45;&gt;Node1 -->
<g id="edge12_Node000001_Node000010" class="edge">
<title>Node10&#45;&gt;Node1</title>
<g id="a_edge12_Node000001_Node000010"><a xlink:title=" ">
<path fill="none" stroke="#63b8ff" d="M1415.17,-324.79C1431.1,-289.48 1458.69,-228.3 1482.1,-176.39"/>
<polygon fill="none" stroke="#63b8ff" points="1482.25,-176.07 1481.07,-168.95 1487.18,-165.13 1488.36,-172.24 1482.25,-176.07"/>
</a>
</g>
<text text-anchor="middle" x="1508.5" y="-219" font-family="Helvetica,sans-Serif" font-size="10.00" fill="grey"> &#45;matchDate</text>
</g>
<!-- Node11&#45;&gt;Node1 -->
<g id="edge14_Node000001_Node000011" class="edge">
<title>Node11&#45;&gt;Node1</title>
<g id="a_edge14_Node000001_Node000011"><a xlink:title=" ">
<path fill="none" stroke="#63b8ff" d="M1633.72,-324.79C1617.63,-289.4 1589.73,-228.05 1566.09,-176.06"/>
<polygon fill="none" stroke="#63b8ff" points="1566.08,-176.05 1559.96,-172.24 1561.12,-165.13 1567.24,-168.93 1566.08,-176.05"/>
</a>
</g>
<text text-anchor="middle" x="1639" y="-224.5" font-family="Helvetica,sans-Serif" font-size="10.00" fill="grey"> &#45;matchType</text>
<text text-anchor="middle" x="1639" y="-213.5" font-family="Helvetica,sans-Serif" font-size="10.00" fill="grey">&#45;matchWinner</text>
</g>
<!-- Node12 -->
<g id="Node000012" class="node">
<title>Node12</title>
<g id="a_Node000012"><a xlink:title=" ">
<polygon fill="white" stroke="transparent" points="1989,-385 1779,-385 1779,-325 1989,-325 1989,-385"/>
<text text-anchor="start" x="1784" y="-373" font-family="Helvetica,sans-Serif" font-size="10.00">ChoiceBox&lt; es.alrodmue.model.players.</text>
<text text-anchor="start" x="1851.5" y="-362" font-family="Helvetica,sans-Serif" font-size="10.00">PlayerType &gt;</text>
<text text-anchor="start" x="1882" y="-347" font-family="Helvetica,sans-Serif" font-size="10.00"> </text>
<text text-anchor="start" x="1882" y="-332" font-family="Helvetica,sans-Serif" font-size="10.00"> </text>
<polygon fill="#666666" stroke="#666666" points="1779,-357 1779,-357 1989,-357 1989,-357 1779,-357"/>
<polygon fill="#666666" stroke="#666666" points="1779,-342 1779,-342 1989,-342 1989,-342 1779,-342"/>
<polygon fill="none" stroke="#666666" points="1779,-325 1779,-385 1989,-385 1989,-325 1779,-325"/>
</a>
</g>
</g>
<!-- Node12&#45;&gt;Node1 -->
<g id="edge16_Node000001_Node000012" class="edge">
<title>Node12&#45;&gt;Node1</title>
<g id="a_edge16_Node000001_Node000012"><a xlink:title=" ">
<path fill="none" stroke="#63b8ff" d="M1851.44,-324.9C1811.64,-289.82 1741.7,-229.76 1678,-183 1657.93,-168.27 1635.76,-153.25 1614.63,-139.5"/>
<polygon fill="none" stroke="#63b8ff" points="1614.43,-139.37 1607.22,-139.48 1604.36,-132.86 1611.57,-132.76 1614.43,-139.37"/>
</a>
</g>
<text text-anchor="middle" x="1816.5" y="-219" font-family="Helvetica,sans-Serif" font-size="10.00" fill="grey"> &#45;playerTypeSelect</text>
</g>
<!-- Node13 -->
<g id="Node000013" class="node">
<title>Node13</title>
<g id="a_Node000013"><a xlink:title=" ">
<polygon fill="white" stroke="transparent" points="1915,-566.5 1853,-566.5 1853,-517.5 1915,-517.5 1915,-566.5"/>
<text text-anchor="start" x="1858" y="-554" font-family="Helvetica,sans-Serif" font-size="10.00">ChoiceBox</text>
<text text-anchor="start" x="1882" y="-539" font-family="Helvetica,sans-Serif" font-size="10.00"> </text>
<text text-anchor="start" x="1882" y="-524" font-family="Helvetica,sans-Serif" font-size="10.00"> </text>
<polygon fill="#666666" stroke="#666666" points="1853,-549 1853,-549 1915,-549 1915,-549 1853,-549"/>
<polygon fill="#666666" stroke="#666666" points="1853,-534 1853,-534 1915,-534 1915,-534 1853,-534"/>
<polygon fill="none" stroke="#666666" points="1853,-517.5 1853,-566.5 1915,-566.5 1915,-517.5 1853,-517.5"/>
</a>
</g>
</g>
<!-- Node13&#45;&gt;Node12 -->
<g id="edge17_Node000012_Node000013" class="edge">
<title>Node13&#45;&gt;Node12</title>
<g id="a_edge17_Node000012_Node000013"><a xlink:title=" ">
<path fill="none" stroke="orange" d="M1884,-507C1884,-472.07 1884,-418.26 1884,-385.2"/>
<polygon fill="orange" stroke="orange" points="1880.5,-507.19 1884,-517.19 1887.5,-507.19 1880.5,-507.19"/>
</a>
</g>
<text text-anchor="start" x="1884" y="-475" font-family="Helvetica,sans-Serif" font-size="10.00" fill="grey"> &lt; es::alrodmue::model</text>
<text text-anchor="middle" x="1941.5" y="-464" font-family="Helvetica,sans-Serif" font-size="10.00" fill="grey">::players::PlayerType &gt;</text>
</g>
<!-- Node14 -->
<g id="Node000014" class="node">
<title>Node14</title>
<g id="a_Node000014"><a xlink:title=" ">
<polygon fill="white" stroke="transparent" points="2050.5,-379.5 2007.5,-379.5 2007.5,-330.5 2050.5,-330.5 2050.5,-379.5"/>
<text text-anchor="start" x="2013" y="-367" font-family="Helvetica,sans-Serif" font-size="10.00">Button</text>
<text text-anchor="start" x="2027.5" y="-352" font-family="Helvetica,sans-Serif" font-size="10.00"> </text>
<text text-anchor="start" x="2027.5" y="-337" font-family="Helvetica,sans-Serif" font-size="10.00"> </text>
<polygon fill="#666666" stroke="#666666" points="2008,-362 2008,-362 2051,-362 2051,-362 2008,-362"/>
<polygon fill="#666666" stroke="#666666" points="2008,-347 2008,-347 2051,-347 2051,-347 2008,-347"/>
<polygon fill="none" stroke="#666666" points="2007.5,-330.5 2007.5,-379.5 2050.5,-379.5 2050.5,-330.5 2007.5,-330.5"/>
</a>
</g>
</g>
<!-- Node14&#45;&gt;Node1 -->
<g id="edge18_Node000001_Node000014" class="edge">
<title>Node14&#45;&gt;Node1</title>
<g id="a_edge18_Node000001_Node000014"><a xlink:title=" ">
<path fill="none" stroke="#63b8ff" d="M2023.07,-330.29C2018.23,-314.33 2010.17,-293.45 1998,-278 1995.2,-274.45 1870.06,-184.98 1866,-183 1785.6,-143.82 1686.89,-117.15 1616.21,-101.36"/>
<polygon fill="none" stroke="#63b8ff" points="1615.96,-101.31 1609.24,-103.93 1604.24,-98.73 1610.96,-96.11 1615.96,-101.31"/>
</a>
</g>
<text text-anchor="middle" x="2022" y="-252" font-family="Helvetica,sans-Serif" font-size="10.00" fill="grey"> &#45;addPlayerButton</text>
<text text-anchor="middle" x="2022" y="-241" font-family="Helvetica,sans-Serif" font-size="10.00" fill="grey">&#45;deletePlayerButton</text>
<text text-anchor="middle" x="2022" y="-230" font-family="Helvetica,sans-Serif" font-size="10.00" fill="grey">&#45;lastMatchButton</text>
<text text-anchor="middle" x="2022" y="-219" font-family="Helvetica,sans-Serif" font-size="10.00" fill="grey">&#45;playMatchButton</text>
<text text-anchor="middle" x="2022" y="-208" font-family="Helvetica,sans-Serif" font-size="10.00" fill="grey">&#45;playerTypeButton</text>
<text text-anchor="middle" x="2022" y="-197" font-family="Helvetica,sans-Serif" font-size="10.00" fill="grey">&#45;viewMatchButton</text>
<text text-anchor="middle" x="2022" y="-186" font-family="Helvetica,sans-Serif" font-size="10.00" fill="grey">&#45;viewPlayerButton</text>
</g>
<!-- Node15 -->
<g id="Node000015" class="node">
<title>Node15</title>
<g id="a_Node000015"><a xlink:href="classes_1_1alrodmue_1_1model_1_1Team.xhtml" target="_top" xlink:title=" ">
<polygon fill="white" stroke="transparent" points="2294,-432 2160,-432 2160,-278 2294,-278 2294,-432"/>
<text text-anchor="start" x="2165" y="-420" font-family="Helvetica,sans-Serif" font-size="10.00">es.alrodmue.model.Team</text>
<text text-anchor="start" x="2225" y="-405" font-family="Helvetica,sans-Serif" font-size="10.00"> </text>
<text text-anchor="start" x="2173" y="-390" font-family="Helvetica,sans-Serif" font-size="10.00">+</text>
<text text-anchor="start" x="2195" y="-390" font-family="Helvetica,sans-Serif" font-size="10.00">addMatch()</text>
<text text-anchor="start" x="2173" y="-375" font-family="Helvetica,sans-Serif" font-size="10.00">+</text>
<text text-anchor="start" x="2195" y="-375" font-family="Helvetica,sans-Serif" font-size="10.00">addPlayer()</text>
<text text-anchor="start" x="2173" y="-360" font-family="Helvetica,sans-Serif" font-size="10.00">+</text>
<text text-anchor="start" x="2195" y="-360" font-family="Helvetica,sans-Serif" font-size="10.00">getMatchList()</text>
<text text-anchor="start" x="2173" y="-345" font-family="Helvetica,sans-Serif" font-size="10.00">+</text>
<text text-anchor="start" x="2195" y="-345" font-family="Helvetica,sans-Serif" font-size="10.00">getPlayerList()</text>
<text text-anchor="start" x="2173" y="-330" font-family="Helvetica,sans-Serif" font-size="10.00">+</text>
<text text-anchor="start" x="2195" y="-330" font-family="Helvetica,sans-Serif" font-size="10.00">getPlayerList()</text>
<text text-anchor="start" x="2173" y="-315" font-family="Helvetica,sans-Serif" font-size="10.00">+</text>
<text text-anchor="start" x="2195" y="-315" font-family="Helvetica,sans-Serif" font-size="10.00">removePlayer()</text>
<text text-anchor="start" x="2173" y="-300" font-family="Helvetica,sans-Serif" font-size="10.00">+</text>
<text text-anchor="start" x="2195" y="-300" font-family="Helvetica,sans-Serif" font-size="10.00">getInstance()</text>
<text text-anchor="start" x="2175.5" y="-285" font-family="Helvetica,sans-Serif" font-size="10.00">&#45;</text>
<text text-anchor="start" x="2195" y="-285" font-family="Helvetica,sans-Serif" font-size="10.00">Team()</text>
<polygon fill="#666666" stroke="#666666" points="2160,-415 2160,-415 2294,-415 2294,-415 2160,-415"/>
<polygon fill="#666666" stroke="#666666" points="2160,-400 2160,-400 2294,-400 2294,-400 2160,-400"/>
<polygon fill="none" stroke="#666666" points="2160,-278 2160,-432 2294,-432 2294,-278 2160,-278"/>
</a>
</g>
</g>
<!-- Node15&#45;&gt;Node1 -->
<g id="edge19_Node000001_Node000015" class="edge">
<title>Node15&#45;&gt;Node1</title>
<g id="a_edge19_Node000001_Node000015"><a xlink:title=" ">
<path fill="none" stroke="#63b8ff" d="M2188.64,-278C2167.43,-243.66 2137.87,-205.77 2101,-183 2021.43,-133.85 1758.13,-103.95 1616.34,-91.02"/>
<polygon fill="none" stroke="#63b8ff" points="1616.21,-91.01 1609.88,-94.45 1604.26,-89.93 1610.6,-86.49 1616.21,-91.01"/>
</a>
</g>
<text text-anchor="middle" x="2190.5" y="-219" font-family="Helvetica,sans-Serif" font-size="10.00" fill="grey"> &#45;team</text>
</g>
<!-- Node15&#45;&gt;Node15 -->
<g id="edge20_Node000015_Node000015" class="edge">
<title>Node15&#45;&gt;Node15</title>
<g id="a_edge20_Node000015_Node000015"><a xlink:title=" ">
<path fill="none" stroke="#63b8ff" d="M2294.34,-374.93C2304.84,-371.95 2312,-365.31 2312,-355 2312,-348.88 2309.48,-344.05 2305.23,-340.51"/>
<polygon fill="none" stroke="#63b8ff" points="2305.07,-340.44 2297.91,-341.33 2294.34,-335.07 2301.49,-334.17 2305.07,-340.44"/>
</a>
</g>
<text text-anchor="middle" x="2336.5" y="-352.5" font-family="Helvetica,sans-Serif" font-size="10.00" fill="grey"> &#45;instance</text>
</g>
<!-- Node16 -->
<g id="Node000016" class="node">
<title>Node16</title>
<g id="a_Node000016"><a xlink:title=" ">
<polygon fill="white" stroke="transparent" points="2226.5,-572 1995.5,-572 1995.5,-512 2226.5,-512 2226.5,-572"/>
<text text-anchor="start" x="2001" y="-560" font-family="Helvetica,sans-Serif" font-size="10.00">ObservableList&lt; es.alrodmue.model.players.</text>
<text text-anchor="start" x="2090" y="-549" font-family="Helvetica,sans-Serif" font-size="10.00">Player &gt;</text>
<text text-anchor="start" x="2109.5" y="-534" font-family="Helvetica,sans-Serif" font-size="10.00"> </text>
<text text-anchor="start" x="2109.5" y="-519" font-family="Helvetica,sans-Serif" font-size="10.00"> </text>
<polygon fill="#666666" stroke="#666666" points="1996,-544 1996,-544 2227,-544 2227,-544 1996,-544"/>
<polygon fill="#666666" stroke="#666666" points="1996,-529 1996,-529 2227,-529 2227,-529 1996,-529"/>
<polygon fill="none" stroke="#666666" points="1995.5,-512 1995.5,-572 2226.5,-572 2226.5,-512 1995.5,-512"/>
</a>
</g>
</g>
<!-- Node16&#45;&gt;Node1 -->
<g id="edge25_Node000001_Node000016" class="edge">
<title>Node16&#45;&gt;Node1</title>
<g id="a_edge25_Node000001_Node000016"><a xlink:title=" ">
<path fill="none" stroke="#63b8ff" d="M2106.64,-511.9C2103.43,-489.97 2099.12,-459.14 2096,-432 2092.83,-404.4 2091.77,-203.48 2073,-183 2012.93,-117.45 1756.68,-94.74 1616.52,-87.14"/>
<polygon fill="none" stroke="#63b8ff" points="1616.13,-87.13 1609.93,-90.81 1604.15,-86.5 1610.35,-82.82 1616.13,-87.13"/>
</a>
</g>
<text text-anchor="middle" x="2123.5" y="-352.5" font-family="Helvetica,sans-Serif" font-size="10.00" fill="grey"> &#45;playerList</text>
</g>
<!-- Node16&#45;&gt;Node15 -->
<g id="edge21_Node000015_Node000016" class="edge">
<title>Node16&#45;&gt;Node15</title>
<g id="a_edge21_Node000015_Node000016"><a xlink:title=" ">
<path fill="none" stroke="#63b8ff" d="M2129.38,-511.69C2141.17,-492.88 2157.15,-467.4 2172.76,-442.51"/>
<polygon fill="none" stroke="#63b8ff" points="2172.8,-442.43 2172.6,-435.23 2179.18,-432.27 2179.38,-439.47 2172.8,-442.43"/>
</a>
</g>
<text text-anchor="middle" x="2193.5" y="-469.5" font-family="Helvetica,sans-Serif" font-size="10.00" fill="grey"> &#45;playerList</text>
</g>
<!-- Node17 -->
<g id="Node000017" class="node">
<title>Node17</title>
<g id="a_Node000017"><a xlink:title=" ">
<polygon fill="white" stroke="transparent" points="2278.5,-679 2195.5,-679 2195.5,-630 2278.5,-630 2278.5,-679"/>
<text text-anchor="start" x="2201" y="-666.5" font-family="Helvetica,sans-Serif" font-size="10.00">ObservableList</text>
<text text-anchor="start" x="2235.5" y="-651.5" font-family="Helvetica,sans-Serif" font-size="10.00"> </text>
<text text-anchor="start" x="2235.5" y="-636.5" font-family="Helvetica,sans-Serif" font-size="10.00"> </text>
<polygon fill="#666666" stroke="#666666" points="2196,-661.5 2196,-661.5 2279,-661.5 2279,-661.5 2196,-661.5"/>
<polygon fill="#666666" stroke="#666666" points="2196,-646.5 2196,-646.5 2279,-646.5 2279,-646.5 2196,-646.5"/>
<polygon fill="none" stroke="#666666" points="2195.5,-630 2195.5,-679 2278.5,-679 2278.5,-630 2195.5,-630"/>
</a>
</g>
</g>
<!-- Node17&#45;&gt;Node16 -->
<g id="edge22_Node000016_Node000017" class="edge">
<title>Node17&#45;&gt;Node16</title>
<g id="a_edge22_Node000016_Node000017"><a xlink:title=" ">
<path fill="none" stroke="orange" d="M2201.98,-622.79C2183.94,-606.96 2162.05,-587.77 2144.27,-572.17"/>
<polygon fill="orange" stroke="orange" points="2200.14,-625.83 2209.97,-629.79 2204.76,-620.57 2200.14,-625.83"/>
</a>
</g>
<text text-anchor="start" x="2189" y="-604" font-family="Helvetica,sans-Serif" font-size="10.00" fill="grey"> &lt; es::alrodmue::model</text>
<text text-anchor="middle" x="2246.5" y="-593" font-family="Helvetica,sans-Serif" font-size="10.00" fill="grey">::players::Player &gt;</text>
</g>
<!-- Node18 -->
<g id="Node000018" class="node">
<title>Node18</title>
<g id="a_Node000018"><a xlink:title=" ">
<polygon fill="white" stroke="transparent" points="2481.5,-572 2244.5,-572 2244.5,-512 2481.5,-512 2481.5,-572"/>
<text text-anchor="start" x="2250" y="-560" font-family="Helvetica,sans-Serif" font-size="10.00">ObservableList&lt; es.alrodmue.model.matches.</text>
<text text-anchor="start" x="2342.5" y="-549" font-family="Helvetica,sans-Serif" font-size="10.00">Match &gt;</text>
<text text-anchor="start" x="2361.5" y="-534" font-family="Helvetica,sans-Serif" font-size="10.00"> </text>
<text text-anchor="start" x="2361.5" y="-519" font-family="Helvetica,sans-Serif" font-size="10.00"> </text>
<polygon fill="#666666" stroke="#666666" points="2245,-544 2245,-544 2482,-544 2482,-544 2245,-544"/>
<polygon fill="#666666" stroke="#666666" points="2245,-529 2245,-529 2482,-529 2482,-529 2245,-529"/>
<polygon fill="none" stroke="#666666" points="2244.5,-512 2244.5,-572 2481.5,-572 2481.5,-512 2244.5,-512"/>
</a>
</g>
</g>
<!-- Node17&#45;&gt;Node18 -->
<g id="edge24_Node000018_Node000017" class="edge">
<title>Node17&#45;&gt;Node18</title>
<g id="a_edge24_Node000018_Node000017"><a xlink:title=" ">
<path fill="none" stroke="orange" d="M2287.13,-627.38C2294.44,-622.68 2301.64,-617.51 2308,-612 2321.32,-600.47 2333.77,-585.38 2343.45,-572.25"/>
<polygon fill="orange" stroke="orange" points="2285.22,-624.44 2278.54,-632.66 2288.89,-630.4 2285.22,-624.44"/>
</a>
</g>
<text text-anchor="start" x="2329" y="-604" font-family="Helvetica,sans-Serif" font-size="10.00" fill="grey"> &lt; es::alrodmue::model</text>
<text text-anchor="middle" x="2386.5" y="-593" font-family="Helvetica,sans-Serif" font-size="10.00" fill="grey">::matches::Match &gt;</text>
</g>
<!-- Node18&#45;&gt;Node1 -->
<g id="edge26_Node000001_Node000018" class="edge">
<title>Node18&#45;&gt;Node1</title>
<g id="a_edge26_Node000001_Node000018"><a xlink:title=" ">
<path fill="none" stroke="#63b8ff" d="M2377.47,-512C2379.76,-506.17 2381.78,-500 2383,-494 2395.21,-434.13 2399.05,-324.98 2370,-278 2326.7,-207.99 2288.57,-210.55 2211,-183 2006.98,-110.56 1751,-90.79 1616.45,-85.44"/>
<polygon fill="none" stroke="#63b8ff" points="1616.2,-85.43 1610.05,-89.2 1604.21,-84.98 1610.35,-81.21 1616.2,-85.43"/>
</a>
</g>
<text text-anchor="middle" x="2420.5" y="-352.5" font-family="Helvetica,sans-Serif" font-size="10.00" fill="grey"> &#45;matchList</text>
</g>
<!-- Node18&#45;&gt;Node15 -->
<g id="edge23_Node000015_Node000018" class="edge">
<title>Node18&#45;&gt;Node15</title>
<g id="a_edge23_Node000015_Node000018"><a xlink:title=" ">
<path fill="none" stroke="#63b8ff" d="M2341.3,-511.94C2336.89,-506.01 2332.29,-499.81 2328,-494 2315.62,-477.23 2302.43,-459.27 2289.81,-442.05"/>
<polygon fill="none" stroke="#63b8ff" points="2289.54,-441.69 2282.77,-439.21 2282.45,-432.01 2289.23,-434.48 2289.54,-441.69"/>
</a>
</g>
<text text-anchor="middle" x="2355.5" y="-469.5" font-family="Helvetica,sans-Serif" font-size="10.00" fill="grey"> &#45;matchList</text>
</g>
<!-- Node19 -->
<g id="Node000019" class="node">
<title>Node19</title>
<g id="a_Node000019"><a xlink:href="enumes_1_1alrodmue_1_1model_1_1players_1_1PlayerType.xhtml" target="_top" xlink:title=" ">
<polygon fill="white" stroke="transparent" points="2617.5,-422.5 2470.5,-422.5 2470.5,-287.5 2617.5,-287.5 2617.5,-422.5"/>
<text text-anchor="start" x="2476" y="-410" font-family="Helvetica,sans-Serif" font-size="10.00">es.alrodmue.model.players.</text>
<text text-anchor="start" x="2517.5" y="-399" font-family="Helvetica,sans-Serif" font-size="10.00">PlayerType</text>
<text text-anchor="start" x="2483" y="-384" font-family="Helvetica,sans-Serif" font-size="10.00">+</text>
<text text-anchor="start" x="2504" y="-384" font-family="Helvetica,sans-Serif" font-size="10.00">CENTER</text>
<text text-anchor="start" x="2483" y="-369" font-family="Helvetica,sans-Serif" font-size="10.00">+</text>
<text text-anchor="start" x="2504" y="-369" font-family="Helvetica,sans-Serif" font-size="10.00">POINT_GUARD</text>
<text text-anchor="start" x="2483" y="-354" font-family="Helvetica,sans-Serif" font-size="10.00">+</text>
<text text-anchor="start" x="2504" y="-354" font-family="Helvetica,sans-Serif" font-size="10.00">POWER_FORWARD</text>
<text text-anchor="start" x="2483" y="-339" font-family="Helvetica,sans-Serif" font-size="10.00">+</text>
<text text-anchor="start" x="2504" y="-339" font-family="Helvetica,sans-Serif" font-size="10.00">SHOOTING_GUARD</text>
<text text-anchor="start" x="2483" y="-324" font-family="Helvetica,sans-Serif" font-size="10.00">+</text>
<text text-anchor="start" x="2504" y="-324" font-family="Helvetica,sans-Serif" font-size="10.00">SMALL_FORWARD</text>
<text text-anchor="start" x="2483" y="-309" font-family="Helvetica,sans-Serif" font-size="10.00">+</text>
<text text-anchor="start" x="2504" y="-309" font-family="Helvetica,sans-Serif" font-size="10.00">toString()</text>
<text text-anchor="start" x="2485.5" y="-294" font-family="Helvetica,sans-Serif" font-size="10.00">&#45;</text>
<text text-anchor="start" x="2504" y="-294" font-family="Helvetica,sans-Serif" font-size="10.00">PlayerType()</text>
<polygon fill="#666666" stroke="#666666" points="2471,-394 2471,-394 2618,-394 2618,-394 2471,-394"/>
<polygon fill="#666666" stroke="#666666" points="2471,-319 2471,-319 2502,-319 2502,-319 2471,-319"/>
<polygon fill="#666666" stroke="#666666" points="2502,-319 2502,-319 2618,-319 2618,-319 2502,-319"/>
<polygon fill="none" stroke="#666666" points="2470.5,-287.5 2470.5,-422.5 2617.5,-422.5 2617.5,-287.5 2470.5,-287.5"/>
</a>
</g>
</g>
<!-- Node19&#45;&gt;Node1 -->
<g id="edge27_Node000001_Node000019" class="edge">
<title>Node19&#45;&gt;Node1</title>
<g id="a_edge27_Node000001_Node000019"><a xlink:title=" ">
<path fill="none" stroke="#63b8ff" d="M2509.79,-287.44C2487.03,-250.29 2453.49,-206.81 2411,-183 2276.52,-107.65 1815.31,-89.32 1616.46,-84.9"/>
<polygon fill="none" stroke="#63b8ff" points="1616.31,-84.89 1610.23,-88.76 1604.32,-84.64 1610.4,-80.76 1616.31,-84.89"/>
</a>
</g>
<text text-anchor="middle" x="2524" y="-219" font-family="Helvetica,sans-Serif" font-size="10.00" fill="grey"> &#45;playerTypes</text>
</g>
<!-- Node20 -->
<g id="Node000020" class="node">
<title>Node20</title>
<g id="a_Node000020"><a xlink:title=" ">
<polygon fill="white" stroke="transparent" points="2563.5,-566.5 2524.5,-566.5 2524.5,-517.5 2563.5,-517.5 2563.5,-566.5"/>
<text text-anchor="start" x="2530" y="-554" font-family="Helvetica,sans-Serif" font-size="10.00">String</text>
<text text-anchor="start" x="2542.5" y="-539" font-family="Helvetica,sans-Serif" font-size="10.00"> </text>
<text text-anchor="start" x="2542.5" y="-524" font-family="Helvetica,sans-Serif" font-size="10.00"> </text>
<polygon fill="#666666" stroke="#666666" points="2525,-549 2525,-549 2564,-549 2564,-549 2525,-549"/>
<polygon fill="#666666" stroke="#666666" points="2525,-534 2525,-534 2564,-534 2564,-534 2525,-534"/>
<polygon fill="none" stroke="#666666" points="2524.5,-517.5 2524.5,-566.5 2563.5,-566.5 2563.5,-517.5 2524.5,-517.5"/>
</a>
</g>
</g>
<!-- Node20&#45;&gt;Node19 -->
<g id="edge28_Node000019_Node000020" class="edge">
<title>Node20&#45;&gt;Node19</title>
<g id="a_edge28_Node000019_Node000020"><a xlink:title=" ">
<path fill="none" stroke="#63b8ff" d="M2544,-517.19C2544,-496.26 2544,-464.59 2544,-434.84"/>
<polygon fill="none" stroke="#63b8ff" points="2544,-434.69 2540,-428.69 2544,-422.69 2548,-428.69 2544,-434.69"/>
</a>
</g>
<text text-anchor="middle" x="2559.5" y="-469.5" font-family="Helvetica,sans-Serif" font-size="10.00" fill="grey"> &#45;label</text>
</g>
</g>
</svg>
