<?xml version="1.0" encoding="UTF-8" standalone="no"?>
<!DOCTYPE svg PUBLIC "-//W3C//DTD SVG 1.1//EN"
 "http://www.w3.org/Graphics/SVG/1.1/DTD/svg11.dtd">
<!-- Generated by graphviz version 2.43.0 (0)
 -->
<!-- Title: es.alrodmue.model.matches.Match Pages: 1 -->
<svg width="748pt" height="868pt"
 viewBox="0.00 0.00 747.50 868.00" xmlns="http://www.w3.org/2000/svg" xmlns:xlink="http://www.w3.org/1999/xlink">
<g id="graph0" class="graph" transform="scale(1 1) rotate(0) translate(4 864)">
<title>es.alrodmue.model.matches.Match</title>
<!-- Node1 -->
<g id="Node000001" class="node">
<title>Node1</title>
<g id="a_Node000001"><a xlink:title=" ">
<polygon fill="#999999" stroke="transparent" points="292,-240 139,-240 139,0 292,0 292,-240"/>
<text text-anchor="start" x="144.5" y="-228" font-family="Helvetica,sans-Serif" font-size="10.00">es.alrodmue.model.matches.</text>
<text text-anchor="start" x="200.5" y="-217" font-family="Helvetica,sans-Serif" font-size="10.00">Match</text>
<text text-anchor="start" x="214" y="-202" font-family="Helvetica,sans-Serif" font-size="10.00"> </text>
<text text-anchor="start" x="151.5" y="-187" font-family="Helvetica,sans-Serif" font-size="10.00">+</text>
<text text-anchor="start" x="172.5" y="-187" font-family="Helvetica,sans-Serif" font-size="10.00">Match()</text>
<text text-anchor="start" x="151.5" y="-172" font-family="Helvetica,sans-Serif" font-size="10.00">+</text>
<text text-anchor="start" x="172.5" y="-172" font-family="Helvetica,sans-Serif" font-size="10.00">getDate()</text>
<text text-anchor="start" x="151.5" y="-157" font-family="Helvetica,sans-Serif" font-size="10.00">+</text>
<text text-anchor="start" x="172.5" y="-157" font-family="Helvetica,sans-Serif" font-size="10.00">getDetails()</text>
<text text-anchor="start" x="151.5" y="-142" font-family="Helvetica,sans-Serif" font-size="10.00">+</text>
<text text-anchor="start" x="172.5" y="-142" font-family="Helvetica,sans-Serif" font-size="10.00">getFouls()</text>
<text text-anchor="start" x="151.5" y="-127" font-family="Helvetica,sans-Serif" font-size="10.00">+</text>
<text text-anchor="start" x="172.5" y="-127" font-family="Helvetica,sans-Serif" font-size="10.00">getOwnPoints()</text>
<text text-anchor="start" x="151.5" y="-112" font-family="Helvetica,sans-Serif" font-size="10.00">+</text>
<text text-anchor="start" x="172.5" y="-112" font-family="Helvetica,sans-Serif" font-size="10.00">getPlayerPoints()</text>
<text text-anchor="start" x="151.5" y="-97" font-family="Helvetica,sans-Serif" font-size="10.00">+</text>
<text text-anchor="start" x="172.5" y="-97" font-family="Helvetica,sans-Serif" font-size="10.00">getPlayers()</text>
<text text-anchor="start" x="151.5" y="-82" font-family="Helvetica,sans-Serif" font-size="10.00">+</text>
<text text-anchor="start" x="172.5" y="-82" font-family="Helvetica,sans-Serif" font-size="10.00">getRivalPoints()</text>
<text text-anchor="start" x="151.5" y="-67" font-family="Helvetica,sans-Serif" font-size="10.00">+</text>
<text text-anchor="start" x="172.5" y="-67" font-family="Helvetica,sans-Serif" font-size="10.00">getType()</text>
<text text-anchor="start" x="151.5" y="-52" font-family="Helvetica,sans-Serif" font-size="10.00">+</text>
<text text-anchor="start" x="172.5" y="-52" font-family="Helvetica,sans-Serif" font-size="10.00">getWinner()</text>
<text text-anchor="start" x="151.5" y="-37" font-family="Helvetica,sans-Serif" font-size="10.00">+</text>
<text text-anchor="start" x="172.5" y="-37" font-family="Helvetica,sans-Serif" font-size="10.00">isDateValid()</text>
<text text-anchor="start" x="151.5" y="-22" font-family="Helvetica,sans-Serif" font-size="10.00">#</text>
<text text-anchor="start" x="172.5" y="-22" font-family="Helvetica,sans-Serif" font-size="10.00">isOwnTeamWinner()</text>
<text text-anchor="start" x="151.5" y="-7" font-family="Helvetica,sans-Serif" font-size="10.00">#</text>
<text text-anchor="start" x="172.5" y="-7" font-family="Helvetica,sans-Serif" font-size="10.00">calculatePoints()</text>
<polygon fill="#666666" stroke="#666666" points="139.5,-212 139.5,-212 292.5,-212 292.5,-212 139.5,-212"/>
<polygon fill="#666666" stroke="#666666" points="139.5,-197 139.5,-197 292.5,-197 292.5,-197 139.5,-197"/>
<polygon fill="none" stroke="#666666" points="139,0 139,-240 292,-240 292,0 139,0"/>
</a>
</g>
</g>
<!-- Node2 -->
<g id="Node000002" class="node">
<title>Node2</title>
<g id="a_Node000002"><a xlink:title=" ">
<polygon fill="white" stroke="transparent" points="59,-480 0,-480 0,-431 59,-431 59,-480"/>
<text text-anchor="start" x="5.5" y="-467.5" font-family="Helvetica,sans-Serif" font-size="10.00">LocalDate</text>
<text text-anchor="start" x="28" y="-452.5" font-family="Helvetica,sans-Serif" font-size="10.00"> </text>
<text text-anchor="start" x="28" y="-437.5" font-family="Helvetica,sans-Serif" font-size="10.00"> </text>
<polygon fill="#666666" stroke="#666666" points="0.5,-462.5 0.5,-462.5 59.5,-462.5 59.5,-462.5 0.5,-462.5"/>
<polygon fill="#666666" stroke="#666666" points="0.5,-447.5 0.5,-447.5 59.5,-447.5 59.5,-447.5 0.5,-447.5"/>
<polygon fill="none" stroke="#666666" points="0,-431 0,-480 59,-480 59,-431 0,-431"/>
</a>
</g>
</g>
<!-- Node2&#45;&gt;Node1 -->
<g id="edge1_Node000001_Node000002" class="edge">
<title>Node2&#45;&gt;Node1</title>
<g id="a_edge1_Node000001_Node000002"><a xlink:title=" ">
<path fill="none" stroke="#63b8ff" d="M31.85,-430.8C35.74,-399.1 45.4,-341.81 67.5,-298 83.95,-265.39 107.47,-233.55 130.92,-206.07"/>
<polygon fill="none" stroke="#63b8ff" points="130.99,-205.99 131.91,-198.84 138.86,-196.93 137.95,-204.08 130.99,-205.99"/>
</a>
</g>
<text text-anchor="middle" x="107.5" y="-266.5" font-family="Helvetica,sans-Serif" font-size="10.00" fill="grey"> #date</text>
</g>
<!-- Node3 -->
<g id="Node000003" class="node">
<title>Node3</title>
<g id="a_Node000003"><a xlink:title=" ">
<polygon fill="white" stroke="transparent" points="124,-480 77,-480 77,-431 124,-431 124,-480"/>
<text text-anchor="start" x="82.5" y="-467.5" font-family="Helvetica,sans-Serif" font-size="10.00">final int</text>
<text text-anchor="start" x="99" y="-452.5" font-family="Helvetica,sans-Serif" font-size="10.00"> </text>
<text text-anchor="start" x="99" y="-437.5" font-family="Helvetica,sans-Serif" font-size="10.00"> </text>
<polygon fill="#666666" stroke="#666666" points="77.5,-462.5 77.5,-462.5 124.5,-462.5 124.5,-462.5 77.5,-462.5"/>
<polygon fill="#666666" stroke="#666666" points="77.5,-447.5 77.5,-447.5 124.5,-447.5 124.5,-447.5 77.5,-447.5"/>
<polygon fill="none" stroke="#666666" points="77,-431 77,-480 124,-480 124,-431 77,-431"/>
</a>
</g>
</g>
<!-- Node3&#45;&gt;Node1 -->
<g id="edge2_Node000001_Node000003" class="edge">
<title>Node3&#45;&gt;Node1</title>
<g id="a_edge2_Node000001_Node000003"><a xlink:title=" ">
<path fill="none" stroke="#63b8ff" d="M103.83,-430.8C108.53,-399.81 118.16,-344.07 132.5,-298 137.29,-282.61 143.16,-266.85 149.54,-251.37"/>
<polygon fill="none" stroke="#63b8ff" points="149.6,-251.22 148.25,-244.14 154.27,-240.16 155.62,-247.25 149.6,-251.22"/>
</a>
</g>
<text text-anchor="middle" x="176.5" y="-272" font-family="Helvetica,sans-Serif" font-size="10.00" fill="grey"> #ownPoints</text>
<text text-anchor="middle" x="176.5" y="-261" font-family="Helvetica,sans-Serif" font-size="10.00" fill="grey">#rivalPoints</text>
</g>
<!-- Node4 -->
<g id="Node000004" class="node">
<title>Node4</title>
<g id="a_Node000004"><a xlink:href="classes_1_1alrodmue_1_1model_1_1players_1_1Player.xhtml" target="_top" xlink:title=" ">
<polygon fill="white" stroke="transparent" points="289,-613 142,-613 142,-298 289,-298 289,-613"/>
<text text-anchor="start" x="147.5" y="-600.5" font-family="Helvetica,sans-Serif" font-size="10.00">es.alrodmue.model.players.</text>
<text text-anchor="start" x="200.5" y="-589.5" font-family="Helvetica,sans-Serif" font-size="10.00">Player</text>
<text text-anchor="start" x="214" y="-574.5" font-family="Helvetica,sans-Serif" font-size="10.00"> </text>
<text text-anchor="start" x="158" y="-559.5" font-family="Helvetica,sans-Serif" font-size="10.00">+</text>
<text text-anchor="start" x="182.5" y="-559.5" font-family="Helvetica,sans-Serif" font-size="10.00">Player()</text>
<text text-anchor="start" x="158" y="-544.5" font-family="Helvetica,sans-Serif" font-size="10.00">+</text>
<text text-anchor="start" x="182.5" y="-544.5" font-family="Helvetica,sans-Serif" font-size="10.00">addFoul()</text>
<text text-anchor="start" x="158" y="-529.5" font-family="Helvetica,sans-Serif" font-size="10.00">+</text>
<text text-anchor="start" x="182.5" y="-529.5" font-family="Helvetica,sans-Serif" font-size="10.00">addPoints()</text>
<text text-anchor="start" x="158" y="-514.5" font-family="Helvetica,sans-Serif" font-size="10.00">+</text>
<text text-anchor="start" x="182.5" y="-514.5" font-family="Helvetica,sans-Serif" font-size="10.00">getDetail()</text>
<text text-anchor="start" x="158" y="-499.5" font-family="Helvetica,sans-Serif" font-size="10.00">+</text>
<text text-anchor="start" x="182.5" y="-499.5" font-family="Helvetica,sans-Serif" font-size="10.00">getFouls()</text>
<text text-anchor="start" x="158" y="-484.5" font-family="Helvetica,sans-Serif" font-size="10.00">+</text>
<text text-anchor="start" x="182.5" y="-484.5" font-family="Helvetica,sans-Serif" font-size="10.00">getHeight()</text>
<text text-anchor="start" x="158" y="-469.5" font-family="Helvetica,sans-Serif" font-size="10.00">+</text>
<text text-anchor="start" x="182.5" y="-469.5" font-family="Helvetica,sans-Serif" font-size="10.00">getName()</text>
<text text-anchor="start" x="158" y="-454.5" font-family="Helvetica,sans-Serif" font-size="10.00">+</text>
<text text-anchor="start" x="182.5" y="-454.5" font-family="Helvetica,sans-Serif" font-size="10.00">getNumber()</text>
<text text-anchor="start" x="158" y="-439.5" font-family="Helvetica,sans-Serif" font-size="10.00">+</text>
<text text-anchor="start" x="182.5" y="-439.5" font-family="Helvetica,sans-Serif" font-size="10.00">getPoints()</text>
<text text-anchor="start" x="158" y="-424.5" font-family="Helvetica,sans-Serif" font-size="10.00">+</text>
<text text-anchor="start" x="182.5" y="-424.5" font-family="Helvetica,sans-Serif" font-size="10.00">getSkill()</text>
<text text-anchor="start" x="158" y="-409.5" font-family="Helvetica,sans-Serif" font-size="10.00">+</text>
<text text-anchor="start" x="182.5" y="-409.5" font-family="Helvetica,sans-Serif" font-size="10.00">getType()</text>
<text text-anchor="start" x="158" y="-394.5" font-family="Helvetica,sans-Serif" font-size="10.00">+</text>
<text text-anchor="start" x="182.5" y="-394.5" font-family="Helvetica,sans-Serif" font-size="10.00">toString()</text>
<text text-anchor="start" x="158" y="-379.5" font-family="Helvetica,sans-Serif" font-size="10.00">+</text>
<text text-anchor="start" x="182.5" y="-379.5" font-family="Helvetica,sans-Serif" font-size="10.00">arePointsValid()</text>
<text text-anchor="start" x="158" y="-364.5" font-family="Helvetica,sans-Serif" font-size="10.00">+</text>
<text text-anchor="start" x="182.5" y="-364.5" font-family="Helvetica,sans-Serif" font-size="10.00">isFoulValid()</text>
<text text-anchor="start" x="158" y="-349.5" font-family="Helvetica,sans-Serif" font-size="10.00">+</text>
<text text-anchor="start" x="182.5" y="-349.5" font-family="Helvetica,sans-Serif" font-size="10.00">isHeightValid()</text>
<text text-anchor="start" x="158" y="-334.5" font-family="Helvetica,sans-Serif" font-size="10.00">+</text>
<text text-anchor="start" x="182.5" y="-334.5" font-family="Helvetica,sans-Serif" font-size="10.00">isNameValid()</text>
<text text-anchor="start" x="158" y="-319.5" font-family="Helvetica,sans-Serif" font-size="10.00">+</text>
<text text-anchor="start" x="182.5" y="-319.5" font-family="Helvetica,sans-Serif" font-size="10.00">isNumberValid()</text>
<text text-anchor="start" x="158" y="-304.5" font-family="Helvetica,sans-Serif" font-size="10.00">+</text>
<text text-anchor="start" x="182.5" y="-304.5" font-family="Helvetica,sans-Serif" font-size="10.00">isSkillValid()</text>
<polygon fill="#666666" stroke="#666666" points="142.5,-584.5 142.5,-584.5 289.5,-584.5 289.5,-584.5 142.5,-584.5"/>
<polygon fill="#666666" stroke="#666666" points="142.5,-569.5 142.5,-569.5 289.5,-569.5 289.5,-569.5 142.5,-569.5"/>
<polygon fill="none" stroke="#666666" points="142,-298 142,-613 289,-613 289,-298 142,-298"/>
</a>
</g>
</g>
<!-- Node4&#45;&gt;Node1 -->
<g id="edge3_Node000001_Node000004" class="edge">
<title>Node4&#45;&gt;Node1</title>
<g id="a_edge3_Node000001_Node000004"><a xlink:title=" ">
<path fill="none" stroke="#63b8ff" d="M215.5,-297.52C215.5,-282.47 215.5,-267.32 215.5,-252.55"/>
<polygon fill="none" stroke="#63b8ff" points="215.5,-252.25 211.5,-246.25 215.5,-240.25 219.5,-246.25 215.5,-252.25"/>
</a>
</g>
<text text-anchor="middle" x="245.5" y="-266.5" font-family="Helvetica,sans-Serif" font-size="10.00" fill="grey"> #playerList</text>
</g>
<!-- Node5 -->
<g id="Node000005" class="node">
<title>Node5</title>
<g id="a_Node000005"><a xlink:title=" ">
<polygon fill="white" stroke="transparent" points="115,-747.5 76,-747.5 76,-698.5 115,-698.5 115,-747.5"/>
<text text-anchor="start" x="81.5" y="-735" font-family="Helvetica,sans-Serif" font-size="10.00">String</text>
<text text-anchor="start" x="94" y="-720" font-family="Helvetica,sans-Serif" font-size="10.00"> </text>
<text text-anchor="start" x="94" y="-705" font-family="Helvetica,sans-Serif" font-size="10.00"> </text>
<polygon fill="#666666" stroke="#666666" points="76.5,-730 76.5,-730 115.5,-730 115.5,-730 76.5,-730"/>
<polygon fill="#666666" stroke="#666666" points="76.5,-715 76.5,-715 115.5,-715 115.5,-715 76.5,-715"/>
<polygon fill="none" stroke="#666666" points="76,-698.5 76,-747.5 115,-747.5 115,-698.5 76,-698.5"/>
</a>
</g>
</g>
<!-- Node5&#45;&gt;Node4 -->
<g id="edge4_Node000004_Node000005" class="edge">
<title>Node5&#45;&gt;Node4</title>
<g id="a_edge4_Node000004_Node000005"><a xlink:title=" ">
<path fill="none" stroke="#63b8ff" d="M98.74,-698.26C101.96,-679.33 107.99,-652.52 118.5,-631 122.95,-621.89 126.99,-621.51 132.5,-613 133.49,-611.47 134.48,-609.92 135.47,-608.36"/>
<polygon fill="none" stroke="#63b8ff" points="135.63,-608.12 135.4,-600.91 141.97,-597.93 142.19,-605.14 135.63,-608.12"/>
</a>
</g>
<text text-anchor="middle" x="138.5" y="-650.5" font-family="Helvetica,sans-Serif" font-size="10.00" fill="grey"> #name</text>
</g>
<!-- Node6 -->
<g id="Node000006" class="node">
<title>Node6</title>
<g id="a_Node000006"><a xlink:title=" ">
<polygon fill="white" stroke="transparent" points="163,-747.5 140,-747.5 140,-698.5 163,-698.5 163,-747.5"/>
<text text-anchor="start" x="145.5" y="-735" font-family="Helvetica,sans-Serif" font-size="10.00">int</text>
<text text-anchor="start" x="150" y="-720" font-family="Helvetica,sans-Serif" font-size="10.00"> </text>
<text text-anchor="start" x="150" y="-705" font-family="Helvetica,sans-Serif" font-size="10.00"> </text>
<polygon fill="#666666" stroke="#666666" points="140.5,-730 140.5,-730 163.5,-730 163.5,-730 140.5,-730"/>
<polygon fill="#666666" stroke="#666666" points="140.5,-715 140.5,-715 163.5,-715 163.5,-715 140.5,-715"/>
<polygon fill="none" stroke="#666666" points="140,-698.5 140,-747.5 163,-747.5 163,-698.5 140,-698.5"/>
</a>
</g>
</g>
<!-- Node6&#45;&gt;Node4 -->
<g id="edge5_Node000004_Node000006" class="edge">
<title>Node6&#45;&gt;Node4</title>
<g id="a_edge5_Node000004_Node000006"><a xlink:title=" ">
<path fill="none" stroke="#63b8ff" d="M156.48,-698.39C160.41,-679.99 166.11,-653.83 171.5,-631 171.95,-629.1 172.4,-627.2 172.85,-625.28"/>
<polygon fill="none" stroke="#63b8ff" points="172.9,-625.07 170.41,-618.31 175.7,-613.4 178.19,-620.17 172.9,-625.07"/>
</a>
</g>
<text text-anchor="middle" x="194.5" y="-667" font-family="Helvetica,sans-Serif" font-size="10.00" fill="grey"> #height</text>
<text text-anchor="middle" x="194.5" y="-656" font-family="Helvetica,sans-Serif" font-size="10.00" fill="grey">#number</text>
<text text-anchor="middle" x="194.5" y="-645" font-family="Helvetica,sans-Serif" font-size="10.00" fill="grey">#points</text>
<text text-anchor="middle" x="194.5" y="-634" font-family="Helvetica,sans-Serif" font-size="10.00" fill="grey">#skill</text>
</g>
<!-- Node7 -->
<g id="Node000007" class="node">
<title>Node7</title>
<g id="a_Node000007"><a xlink:title=" ">
<polygon fill="white" stroke="transparent" points="400,-753 181,-753 181,-693 400,-693 400,-753"/>
<text text-anchor="start" x="186.5" y="-741" font-family="Helvetica,sans-Serif" font-size="10.00">ObservableList&lt; es.alrodmue.model.fouls.</text>
<text text-anchor="start" x="275" y="-730" font-family="Helvetica,sans-Serif" font-size="10.00">Foul &gt;</text>
<text text-anchor="start" x="289" y="-715" font-family="Helvetica,sans-Serif" font-size="10.00"> </text>
<text text-anchor="start" x="289" y="-700" font-family="Helvetica,sans-Serif" font-size="10.00"> </text>
<polygon fill="#666666" stroke="#666666" points="181.5,-725 181.5,-725 400.5,-725 400.5,-725 181.5,-725"/>
<polygon fill="#666666" stroke="#666666" points="181.5,-710 181.5,-710 400.5,-710 400.5,-710 181.5,-710"/>
<polygon fill="none" stroke="#666666" points="181,-693 181,-753 400,-753 400,-693 181,-693"/>
</a>
</g>
</g>
<!-- Node7&#45;&gt;Node4 -->
<g id="edge6_Node000004_Node000007" class="edge">
<title>Node7&#45;&gt;Node4</title>
<g id="a_edge6_Node000004_Node000007"><a xlink:title=" ">
<path fill="none" stroke="#63b8ff" d="M282.26,-692.83C277.27,-675.17 270.46,-651.06 263.09,-624.96"/>
<polygon fill="none" stroke="#63b8ff" points="263.04,-624.8 257.56,-620.11 259.78,-613.25 265.26,-617.94 263.04,-624.8"/>
</a>
</g>
<text text-anchor="middle" x="294.5" y="-650.5" font-family="Helvetica,sans-Serif" font-size="10.00" fill="grey"> #fouls</text>
</g>
<!-- Node8 -->
<g id="Node000008" class="node">
<title>Node8</title>
<g id="a_Node000008"><a xlink:title=" ">
<polygon fill="white" stroke="transparent" points="332,-860 249,-860 249,-811 332,-811 332,-860"/>
<text text-anchor="start" x="254.5" y="-847.5" font-family="Helvetica,sans-Serif" font-size="10.00">ObservableList</text>
<text text-anchor="start" x="289" y="-832.5" font-family="Helvetica,sans-Serif" font-size="10.00"> </text>
<text text-anchor="start" x="289" y="-817.5" font-family="Helvetica,sans-Serif" font-size="10.00"> </text>
<polygon fill="#666666" stroke="#666666" points="249.5,-842.5 249.5,-842.5 332.5,-842.5 332.5,-842.5 249.5,-842.5"/>
<polygon fill="#666666" stroke="#666666" points="249.5,-827.5 249.5,-827.5 332.5,-827.5 332.5,-827.5 249.5,-827.5"/>
<polygon fill="none" stroke="#666666" points="249,-811 249,-860 332,-860 332,-811 249,-811"/>
</a>
</g>
</g>
<!-- Node8&#45;&gt;Node7 -->
<g id="edge7_Node000007_Node000008" class="edge">
<title>Node8&#45;&gt;Node7</title>
<g id="a_edge7_Node000007_Node000008"><a xlink:title=" ">
<path fill="none" stroke="orange" d="M290.5,-800.75C290.5,-785.56 290.5,-767.79 290.5,-753.17"/>
<polygon fill="orange" stroke="orange" points="287,-800.79 290.5,-810.79 294,-800.8 287,-800.79"/>
</a>
</g>
<text text-anchor="start" x="290.5" y="-785" font-family="Helvetica,sans-Serif" font-size="10.00" fill="grey"> &lt; es::alrodmue::model</text>
<text text-anchor="middle" x="348" y="-774" font-family="Helvetica,sans-Serif" font-size="10.00" fill="grey">::fouls::Foul &gt;</text>
</g>
<!-- Node9 -->
<g id="Node000009" class="node">
<title>Node9</title>
<g id="a_Node000009"><a xlink:title=" ">
<polygon fill="white" stroke="transparent" points="511.5,-485.5 307.5,-485.5 307.5,-425.5 511.5,-425.5 511.5,-485.5"/>
<text text-anchor="start" x="312.5" y="-473.5" font-family="Helvetica,sans-Serif" font-size="10.00">HashMap&lt; es.alrodmue.model.players.</text>
<text text-anchor="start" x="368" y="-462.5" font-family="Helvetica,sans-Serif" font-size="10.00">Player, Integer &gt;</text>
<text text-anchor="start" x="407.5" y="-447.5" font-family="Helvetica,sans-Serif" font-size="10.00"> </text>
<text text-anchor="start" x="407.5" y="-432.5" font-family="Helvetica,sans-Serif" font-size="10.00"> </text>
<polygon fill="#666666" stroke="#666666" points="307.5,-457.5 307.5,-457.5 511.5,-457.5 511.5,-457.5 307.5,-457.5"/>
<polygon fill="#666666" stroke="#666666" points="307.5,-442.5 307.5,-442.5 511.5,-442.5 511.5,-442.5 307.5,-442.5"/>
<polygon fill="none" stroke="#666666" points="307.5,-425.5 307.5,-485.5 511.5,-485.5 511.5,-425.5 307.5,-425.5"/>
</a>
</g>
</g>
<!-- Node9&#45;&gt;Node1 -->
<g id="edge8_Node000001_Node000009" class="edge">
<title>Node9&#45;&gt;Node1</title>
<g id="a_edge8_Node000001_Node000009"><a xlink:title=" ">
<path fill="none" stroke="#63b8ff" d="M392.62,-425.49C369.96,-386.53 328.23,-314.8 290.97,-250.74"/>
<polygon fill="none" stroke="#63b8ff" points="290.83,-250.49 284.35,-247.31 284.79,-240.12 291.27,-243.29 290.83,-250.49"/>
</a>
</g>
<text text-anchor="middle" x="344" y="-266.5" font-family="Helvetica,sans-Serif" font-size="10.00" fill="grey"> #playerPoints</text>
</g>
<!-- Node10 -->
<g id="Node000010" class="node">
<title>Node10</title>
<g id="a_Node000010"><a xlink:title=" ">
<polygon fill="white" stroke="transparent" points="474.5,-747.5 418.5,-747.5 418.5,-698.5 474.5,-698.5 474.5,-747.5"/>
<text text-anchor="start" x="423.5" y="-735" font-family="Helvetica,sans-Serif" font-size="10.00">HashMap</text>
<text text-anchor="start" x="444.5" y="-720" font-family="Helvetica,sans-Serif" font-size="10.00"> </text>
<text text-anchor="start" x="444.5" y="-705" font-family="Helvetica,sans-Serif" font-size="10.00"> </text>
<polygon fill="#666666" stroke="#666666" points="418.5,-730 418.5,-730 474.5,-730 474.5,-730 418.5,-730"/>
<polygon fill="#666666" stroke="#666666" points="418.5,-715 418.5,-715 474.5,-715 474.5,-715 418.5,-715"/>
<polygon fill="none" stroke="#666666" points="418.5,-698.5 418.5,-747.5 474.5,-747.5 474.5,-698.5 418.5,-698.5"/>
</a>
</g>
</g>
<!-- Node10&#45;&gt;Node9 -->
<g id="edge9_Node000009_Node000010" class="edge">
<title>Node10&#45;&gt;Node9</title>
<g id="a_edge9_Node000009_Node000010"><a xlink:title=" ">
<path fill="none" stroke="orange" d="M441.8,-688.29C434.48,-635.73 420.46,-535.15 413.55,-485.58"/>
<polygon fill="orange" stroke="orange" points="438.37,-689.02 443.22,-698.44 445.3,-688.05 438.37,-689.02"/>
</a>
</g>
<text text-anchor="start" x="439.5" y="-656" font-family="Helvetica,sans-Serif" font-size="10.00" fill="grey"> &lt; es::alrodmue::model</text>
<text text-anchor="middle" x="505" y="-645" font-family="Helvetica,sans-Serif" font-size="10.00" fill="grey">::players::Player, Integer &gt;</text>
</g>
<!-- Node11 -->
<g id="Node000011" class="node">
<title>Node11</title>
<g id="a_Node000011"><a xlink:title=" ">
<polygon fill="white" stroke="transparent" points="719.5,-485.5 529.5,-485.5 529.5,-425.5 719.5,-425.5 719.5,-485.5"/>
<text text-anchor="start" x="534.5" y="-473.5" font-family="Helvetica,sans-Serif" font-size="10.00">ArrayList&lt; es.alrodmue.model.fouls.</text>
<text text-anchor="start" x="608.5" y="-462.5" font-family="Helvetica,sans-Serif" font-size="10.00">Foul &gt;</text>
<text text-anchor="start" x="622.5" y="-447.5" font-family="Helvetica,sans-Serif" font-size="10.00"> </text>
<text text-anchor="start" x="622.5" y="-432.5" font-family="Helvetica,sans-Serif" font-size="10.00"> </text>
<polygon fill="#666666" stroke="#666666" points="529.5,-457.5 529.5,-457.5 719.5,-457.5 719.5,-457.5 529.5,-457.5"/>
<polygon fill="#666666" stroke="#666666" points="529.5,-442.5 529.5,-442.5 719.5,-442.5 719.5,-442.5 529.5,-442.5"/>
<polygon fill="none" stroke="#666666" points="529.5,-425.5 529.5,-485.5 719.5,-485.5 719.5,-425.5 529.5,-425.5"/>
</a>
</g>
</g>
<!-- Node11&#45;&gt;Node1 -->
<g id="edge10_Node000001_Node000011" class="edge">
<title>Node11&#45;&gt;Node1</title>
<g id="a_edge10_Node000001_Node000011"><a xlink:title=" ">
<path fill="none" stroke="#63b8ff" d="M610.39,-425.35C592.92,-391.55 560.53,-335.67 520.5,-298 456.44,-237.71 368.2,-189.34 303.11,-158.5"/>
<polygon fill="none" stroke="#63b8ff" points="302.93,-158.41 295.8,-159.49 292.06,-153.33 299.19,-152.25 302.93,-158.41"/>
</a>
</g>
<text text-anchor="middle" x="517.5" y="-266.5" font-family="Helvetica,sans-Serif" font-size="10.00" fill="grey"> #fouls</text>
</g>
<!-- Node12 -->
<g id="Node000012" class="node">
<title>Node12</title>
<g id="a_Node000012"><a xlink:title=" ">
<polygon fill="white" stroke="transparent" points="651.5,-747.5 597.5,-747.5 597.5,-698.5 651.5,-698.5 651.5,-747.5"/>
<text text-anchor="start" x="602.5" y="-735" font-family="Helvetica,sans-Serif" font-size="10.00">ArrayList</text>
<text text-anchor="start" x="622.5" y="-720" font-family="Helvetica,sans-Serif" font-size="10.00"> </text>
<text text-anchor="start" x="622.5" y="-705" font-family="Helvetica,sans-Serif" font-size="10.00"> </text>
<polygon fill="#666666" stroke="#666666" points="597.5,-730 597.5,-730 651.5,-730 651.5,-730 597.5,-730"/>
<polygon fill="#666666" stroke="#666666" points="597.5,-715 597.5,-715 651.5,-715 651.5,-715 597.5,-715"/>
<polygon fill="none" stroke="#666666" points="597.5,-698.5 597.5,-747.5 651.5,-747.5 651.5,-698.5 597.5,-698.5"/>
</a>
</g>
</g>
<!-- Node12&#45;&gt;Node11 -->
<g id="edge11_Node000011_Node000012" class="edge">
<title>Node12&#45;&gt;Node11</title>
<g id="a_edge11_Node000011_Node000012"><a xlink:title=" ">
<path fill="none" stroke="orange" d="M624.5,-688.29C624.5,-635.73 624.5,-535.15 624.5,-485.58"/>
<polygon fill="orange" stroke="orange" points="621,-688.44 624.5,-698.44 628,-688.44 621,-688.44"/>
</a>
</g>
<text text-anchor="start" x="624.5" y="-656" font-family="Helvetica,sans-Serif" font-size="10.00" fill="grey"> &lt; es::alrodmue::model</text>
<text text-anchor="middle" x="682" y="-645" font-family="Helvetica,sans-Serif" font-size="10.00" fill="grey">::fouls::Foul &gt;</text>
</g>
</g>
</svg>
