<?xml version="1.0" encoding="UTF-8" standalone="no"?>
<!DOCTYPE svg PUBLIC "-//W3C//DTD SVG 1.1//EN"
 "http://www.w3.org/Graphics/SVG/1.1/DTD/svg11.dtd">
<!-- Generated by graphviz version 2.43.0 (0)
 -->
<!-- Title: es.alrodmue.model.players.Player Pages: 1 -->
<svg width="443pt" height="585pt"
 viewBox="0.00 0.00 442.50 585.00" xmlns="http://www.w3.org/2000/svg" xmlns:xlink="http://www.w3.org/1999/xlink">
<g id="graph0" class="graph" transform="scale(1 1) rotate(0) translate(4 581)">
<title>es.alrodmue.model.players.Player</title>
<!-- Node1 -->
<g id="Node000001" class="node">
<title>Node1</title>
<g id="a_Node000001"><a xlink:title=" ">
<polygon fill="#999999" stroke="transparent" points="222,-330 75,-330 75,0 222,0 222,-330"/>
<text text-anchor="start" x="80.5" y="-318" font-family="Helvetica,sans-Serif" font-size="10.00">es.alrodmue.model.players.</text>
<text text-anchor="start" x="133.5" y="-307" font-family="Helvetica,sans-Serif" font-size="10.00">Player</text>
<text text-anchor="start" x="147" y="-292" font-family="Helvetica,sans-Serif" font-size="10.00"> </text>
<text text-anchor="start" x="91" y="-277" font-family="Helvetica,sans-Serif" font-size="10.00">+</text>
<text text-anchor="start" x="115.5" y="-277" font-family="Helvetica,sans-Serif" font-size="10.00">Player()</text>
<text text-anchor="start" x="91" y="-262" font-family="Helvetica,sans-Serif" font-size="10.00">+</text>
<text text-anchor="start" x="115.5" y="-262" font-family="Helvetica,sans-Serif" font-size="10.00">Player()</text>
<text text-anchor="start" x="91" y="-247" font-family="Helvetica,sans-Serif" font-size="10.00">+</text>
<text text-anchor="start" x="115.5" y="-247" font-family="Helvetica,sans-Serif" font-size="10.00">addFoul()</text>
<text text-anchor="start" x="91" y="-232" font-family="Helvetica,sans-Serif" font-size="10.00">+</text>
<text text-anchor="start" x="115.5" y="-232" font-family="Helvetica,sans-Serif" font-size="10.00">addPoints()</text>
<text text-anchor="start" x="91" y="-217" font-family="Helvetica,sans-Serif" font-size="10.00">+</text>
<text text-anchor="start" x="115.5" y="-217" font-family="Helvetica,sans-Serif" font-size="10.00">getDetail()</text>
<text text-anchor="start" x="91" y="-202" font-family="Helvetica,sans-Serif" font-size="10.00">+</text>
<text text-anchor="start" x="115.5" y="-202" font-family="Helvetica,sans-Serif" font-size="10.00">getFouls()</text>
<text text-anchor="start" x="91" y="-187" font-family="Helvetica,sans-Serif" font-size="10.00">+</text>
<text text-anchor="start" x="115.5" y="-187" font-family="Helvetica,sans-Serif" font-size="10.00">getHeight()</text>
<text text-anchor="start" x="91" y="-172" font-family="Helvetica,sans-Serif" font-size="10.00">+</text>
<text text-anchor="start" x="115.5" y="-172" font-family="Helvetica,sans-Serif" font-size="10.00">getName()</text>
<text text-anchor="start" x="91" y="-157" font-family="Helvetica,sans-Serif" font-size="10.00">+</text>
<text text-anchor="start" x="115.5" y="-157" font-family="Helvetica,sans-Serif" font-size="10.00">getNumber()</text>
<text text-anchor="start" x="91" y="-142" font-family="Helvetica,sans-Serif" font-size="10.00">+</text>
<text text-anchor="start" x="115.5" y="-142" font-family="Helvetica,sans-Serif" font-size="10.00">getPoints()</text>
<text text-anchor="start" x="91" y="-127" font-family="Helvetica,sans-Serif" font-size="10.00">+</text>
<text text-anchor="start" x="115.5" y="-127" font-family="Helvetica,sans-Serif" font-size="10.00">getSkill()</text>
<text text-anchor="start" x="91" y="-112" font-family="Helvetica,sans-Serif" font-size="10.00">+</text>
<text text-anchor="start" x="115.5" y="-112" font-family="Helvetica,sans-Serif" font-size="10.00">getType()</text>
<text text-anchor="start" x="91" y="-97" font-family="Helvetica,sans-Serif" font-size="10.00">+</text>
<text text-anchor="start" x="115.5" y="-97" font-family="Helvetica,sans-Serif" font-size="10.00">toString()</text>
<text text-anchor="start" x="91" y="-82" font-family="Helvetica,sans-Serif" font-size="10.00">+</text>
<text text-anchor="start" x="115.5" y="-82" font-family="Helvetica,sans-Serif" font-size="10.00">arePointsValid()</text>
<text text-anchor="start" x="91" y="-67" font-family="Helvetica,sans-Serif" font-size="10.00">+</text>
<text text-anchor="start" x="115.5" y="-67" font-family="Helvetica,sans-Serif" font-size="10.00">isFoulValid()</text>
<text text-anchor="start" x="91" y="-52" font-family="Helvetica,sans-Serif" font-size="10.00">+</text>
<text text-anchor="start" x="115.5" y="-52" font-family="Helvetica,sans-Serif" font-size="10.00">isHeightValid()</text>
<text text-anchor="start" x="91" y="-37" font-family="Helvetica,sans-Serif" font-size="10.00">+</text>
<text text-anchor="start" x="115.5" y="-37" font-family="Helvetica,sans-Serif" font-size="10.00">isNameValid()</text>
<text text-anchor="start" x="91" y="-22" font-family="Helvetica,sans-Serif" font-size="10.00">+</text>
<text text-anchor="start" x="115.5" y="-22" font-family="Helvetica,sans-Serif" font-size="10.00">isNumberValid()</text>
<text text-anchor="start" x="91" y="-7" font-family="Helvetica,sans-Serif" font-size="10.00">+</text>
<text text-anchor="start" x="115.5" y="-7" font-family="Helvetica,sans-Serif" font-size="10.00">isSkillValid()</text>
<polygon fill="#666666" stroke="#666666" points="75.5,-302 75.5,-302 222.5,-302 222.5,-302 75.5,-302"/>
<polygon fill="#666666" stroke="#666666" points="75.5,-287 75.5,-287 222.5,-287 222.5,-287 75.5,-287"/>
<polygon fill="none" stroke="#666666" points="75,0 75,-330 222,-330 222,0 75,0"/>
</a>
</g>
</g>
<!-- Node2 -->
<g id="Node000002" class="node">
<title>Node2</title>
<g id="a_Node000002"><a xlink:title=" ">
<polygon fill="white" stroke="transparent" points="53,-464.5 0,-464.5 0,-415.5 53,-415.5 53,-464.5"/>
<text text-anchor="start" x="5.5" y="-452" font-family="Helvetica,sans-Serif" font-size="10.00">static int</text>
<text text-anchor="start" x="25" y="-437" font-family="Helvetica,sans-Serif" font-size="10.00"> </text>
<text text-anchor="start" x="25" y="-422" font-family="Helvetica,sans-Serif" font-size="10.00"> </text>
<polygon fill="#666666" stroke="#666666" points="0.5,-447 0.5,-447 53.5,-447 53.5,-447 0.5,-447"/>
<polygon fill="#666666" stroke="#666666" points="0.5,-432 0.5,-432 53.5,-432 53.5,-432 0.5,-432"/>
<polygon fill="none" stroke="#666666" points="0,-415.5 0,-464.5 53,-464.5 53,-415.5 0,-415.5"/>
</a>
</g>
</g>
<!-- Node2&#45;&gt;Node1 -->
<g id="edge1_Node000001_Node000002" class="edge">
<title>Node2&#45;&gt;Node1</title>
<g id="a_edge1_Node000001_Node000002"><a xlink:title=" ">
<path fill="none" stroke="#63b8ff" d="M29.06,-415.24C31.58,-396.53 36.28,-370.03 44.5,-348 51.33,-329.7 59.87,-311.08 69.09,-293.07"/>
<polygon fill="none" stroke="#63b8ff" points="69.19,-292.88 68.43,-285.71 74.76,-282.24 75.52,-289.42 69.19,-292.88"/>
</a>
</g>
<text text-anchor="middle" x="78.5" y="-367.5" font-family="Helvetica,sans-Serif" font-size="10.00" fill="grey"> &#45;nextNumber</text>
</g>
<!-- Node3 -->
<g id="Node000003" class="node">
<title>Node3</title>
<g id="a_Node000003"><a xlink:title=" ">
<polygon fill="white" stroke="transparent" points="137,-464.5 98,-464.5 98,-415.5 137,-415.5 137,-464.5"/>
<text text-anchor="start" x="103.5" y="-452" font-family="Helvetica,sans-Serif" font-size="10.00">String</text>
<text text-anchor="start" x="116" y="-437" font-family="Helvetica,sans-Serif" font-size="10.00"> </text>
<text text-anchor="start" x="116" y="-422" font-family="Helvetica,sans-Serif" font-size="10.00"> </text>
<polygon fill="#666666" stroke="#666666" points="98.5,-447 98.5,-447 137.5,-447 137.5,-447 98.5,-447"/>
<polygon fill="#666666" stroke="#666666" points="98.5,-432 98.5,-432 137.5,-432 137.5,-432 98.5,-432"/>
<polygon fill="none" stroke="#666666" points="98,-415.5 98,-464.5 137,-464.5 137,-415.5 98,-415.5"/>
</a>
</g>
</g>
<!-- Node3&#45;&gt;Node1 -->
<g id="edge2_Node000001_Node000003" class="edge">
<title>Node3&#45;&gt;Node1</title>
<g id="a_edge2_Node000001_Node000003"><a xlink:title=" ">
<path fill="none" stroke="#63b8ff" d="M116.78,-415.38C116.45,-396.99 116.51,-370.82 118.5,-348 118.67,-346.06 118.85,-344.12 119.03,-342.16"/>
<polygon fill="none" stroke="#63b8ff" points="119.05,-341.98 115.69,-335.61 120.28,-330.05 123.64,-336.42 119.05,-341.98"/>
</a>
</g>
<text text-anchor="middle" x="138.5" y="-367.5" font-family="Helvetica,sans-Serif" font-size="10.00" fill="grey"> #name</text>
</g>
<!-- Node4 -->
<g id="Node000004" class="node">
<title>Node4</title>
<g id="a_Node000004"><a xlink:title=" ">
<polygon fill="white" stroke="transparent" points="192,-464.5 169,-464.5 169,-415.5 192,-415.5 192,-464.5"/>
<text text-anchor="start" x="174.5" y="-452" font-family="Helvetica,sans-Serif" font-size="10.00">int</text>
<text text-anchor="start" x="179" y="-437" font-family="Helvetica,sans-Serif" font-size="10.00"> </text>
<text text-anchor="start" x="179" y="-422" font-family="Helvetica,sans-Serif" font-size="10.00"> </text>
<polygon fill="#666666" stroke="#666666" points="169.5,-447 169.5,-447 192.5,-447 192.5,-447 169.5,-447"/>
<polygon fill="#666666" stroke="#666666" points="169.5,-432 169.5,-432 192.5,-432 192.5,-432 169.5,-432"/>
<polygon fill="none" stroke="#666666" points="169,-415.5 169,-464.5 192,-464.5 192,-415.5 169,-415.5"/>
</a>
</g>
</g>
<!-- Node4&#45;&gt;Node1 -->
<g id="edge3_Node000001_Node000004" class="edge">
<title>Node4&#45;&gt;Node1</title>
<g id="a_edge3_Node000001_Node000004"><a xlink:title=" ">
<path fill="none" stroke="#63b8ff" d="M177.72,-415.25C175.62,-397.41 172.55,-371.16 169.17,-342.32"/>
<polygon fill="none" stroke="#63b8ff" points="169.15,-342.18 164.48,-336.69 167.75,-330.26 172.43,-335.75 169.15,-342.18"/>
</a>
</g>
<text text-anchor="middle" x="196.5" y="-384" font-family="Helvetica,sans-Serif" font-size="10.00" fill="grey"> #height</text>
<text text-anchor="middle" x="196.5" y="-373" font-family="Helvetica,sans-Serif" font-size="10.00" fill="grey">#number</text>
<text text-anchor="middle" x="196.5" y="-362" font-family="Helvetica,sans-Serif" font-size="10.00" fill="grey">#points</text>
<text text-anchor="middle" x="196.5" y="-351" font-family="Helvetica,sans-Serif" font-size="10.00" fill="grey">#skill</text>
</g>
<!-- Node5 -->
<g id="Node000005" class="node">
<title>Node5</title>
<g id="a_Node000005"><a xlink:title=" ">
<polygon fill="white" stroke="transparent" points="429,-470 210,-470 210,-410 429,-410 429,-470"/>
<text text-anchor="start" x="215.5" y="-458" font-family="Helvetica,sans-Serif" font-size="10.00">ObservableList&lt; es.alrodmue.model.fouls.</text>
<text text-anchor="start" x="304" y="-447" font-family="Helvetica,sans-Serif" font-size="10.00">Foul &gt;</text>
<text text-anchor="start" x="318" y="-432" font-family="Helvetica,sans-Serif" font-size="10.00"> </text>
<text text-anchor="start" x="318" y="-417" font-family="Helvetica,sans-Serif" font-size="10.00"> </text>
<polygon fill="#666666" stroke="#666666" points="210.5,-442 210.5,-442 429.5,-442 429.5,-442 210.5,-442"/>
<polygon fill="#666666" stroke="#666666" points="210.5,-427 210.5,-427 429.5,-427 429.5,-427 210.5,-427"/>
<polygon fill="none" stroke="#666666" points="210,-410 210,-470 429,-470 429,-410 210,-410"/>
</a>
</g>
</g>
<!-- Node5&#45;&gt;Node1 -->
<g id="edge4_Node000001_Node000005" class="edge">
<title>Node5&#45;&gt;Node1</title>
<g id="a_edge4_Node000001_Node000005"><a xlink:title=" ">
<path fill="none" stroke="#63b8ff" d="M301.2,-409.78C283.61,-381.71 255.78,-337.26 228.66,-293.97"/>
<polygon fill="none" stroke="#63b8ff" points="228.53,-293.76 221.95,-290.8 222.16,-283.59 228.73,-286.55 228.53,-293.76"/>
</a>
</g>
<text text-anchor="middle" x="304.5" y="-367.5" font-family="Helvetica,sans-Serif" font-size="10.00" fill="grey"> #fouls</text>
</g>
<!-- Node6 -->
<g id="Node000006" class="node">
<title>Node6</title>
<g id="a_Node000006"><a xlink:title=" ">
<polygon fill="white" stroke="transparent" points="361,-577 278,-577 278,-528 361,-528 361,-577"/>
<text text-anchor="start" x="283.5" y="-564.5" font-family="Helvetica,sans-Serif" font-size="10.00">ObservableList</text>
<text text-anchor="start" x="318" y="-549.5" font-family="Helvetica,sans-Serif" font-size="10.00"> </text>
<text text-anchor="start" x="318" y="-534.5" font-family="Helvetica,sans-Serif" font-size="10.00"> </text>
<polygon fill="#666666" stroke="#666666" points="278.5,-559.5 278.5,-559.5 361.5,-559.5 361.5,-559.5 278.5,-559.5"/>
<polygon fill="#666666" stroke="#666666" points="278.5,-544.5 278.5,-544.5 361.5,-544.5 361.5,-544.5 278.5,-544.5"/>
<polygon fill="none" stroke="#666666" points="278,-528 278,-577 361,-577 361,-528 278,-528"/>
</a>
</g>
</g>
<!-- Node6&#45;&gt;Node5 -->
<g id="edge5_Node000005_Node000006" class="edge">
<title>Node6&#45;&gt;Node5</title>
<g id="a_edge5_Node000005_Node000006"><a xlink:title=" ">
<path fill="none" stroke="orange" d="M319.5,-517.75C319.5,-502.56 319.5,-484.79 319.5,-470.17"/>
<polygon fill="orange" stroke="orange" points="316,-517.79 319.5,-527.79 323,-517.8 316,-517.79"/>
</a>
</g>
<text text-anchor="start" x="319.5" y="-502" font-family="Helvetica,sans-Serif" font-size="10.00" fill="grey"> &lt; es::alrodmue::model</text>
<text text-anchor="middle" x="377" y="-491" font-family="Helvetica,sans-Serif" font-size="10.00" fill="grey">::fouls::Foul &gt;</text>
</g>
</g>
</svg>
