<?xml version="1.0" encoding="UTF-8" standalone="no"?>
<!DOCTYPE svg PUBLIC "-//W3C//DTD SVG 1.1//EN"
 "http://www.w3.org/Graphics/SVG/1.1/DTD/svg11.dtd">
<!-- Generated by graphviz version 2.43.0 (0)
 -->
<!-- Title: es.alrodmue.model.fouls.Foul Pages: 1 -->
<svg width="449pt" height="258pt"
 viewBox="0.00 0.00 449.00 258.00" xmlns="http://www.w3.org/2000/svg" xmlns:xlink="http://www.w3.org/1999/xlink">
<g id="graph0" class="graph" transform="scale(1 1) rotate(0) translate(4 254)">
<title>es.alrodmue.model.fouls.Foul</title>
<!-- Node1 -->
<g id="Node000001" class="node">
<title>Node1</title>
<g id="a_Node000001"><a xlink:title=" ">
<polygon fill="#999999" stroke="transparent" points="298,-250 143,-250 143,-111 298,-111 298,-250"/>
<text text-anchor="start" x="148.5" y="-237.5" font-family="Helvetica,sans-Serif" font-size="10.00">es.alrodmue.model.fouls.Foul</text>
<text text-anchor="start" x="163" y="-222.5" font-family="Helvetica,sans-Serif" font-size="10.00">#</text>
<text text-anchor="start" x="191.5" y="-222.5" font-family="Helvetica,sans-Serif" font-size="10.00">match</text>
<text text-anchor="start" x="163" y="-207.5" font-family="Helvetica,sans-Serif" font-size="10.00">#</text>
<text text-anchor="start" x="191.5" y="-207.5" font-family="Helvetica,sans-Serif" font-size="10.00">player</text>
<text text-anchor="start" x="163" y="-192.5" font-family="Helvetica,sans-Serif" font-size="10.00">+</text>
<text text-anchor="start" x="191.5" y="-192.5" font-family="Helvetica,sans-Serif" font-size="10.00">Foul()</text>
<text text-anchor="start" x="163" y="-177.5" font-family="Helvetica,sans-Serif" font-size="10.00">+</text>
<text text-anchor="start" x="191.5" y="-177.5" font-family="Helvetica,sans-Serif" font-size="10.00">getMatch()</text>
<text text-anchor="start" x="163" y="-162.5" font-family="Helvetica,sans-Serif" font-size="10.00">+</text>
<text text-anchor="start" x="191.5" y="-162.5" font-family="Helvetica,sans-Serif" font-size="10.00">getPlayer()</text>
<text text-anchor="start" x="163" y="-147.5" font-family="Helvetica,sans-Serif" font-size="10.00">+</text>
<text text-anchor="start" x="191.5" y="-147.5" font-family="Helvetica,sans-Serif" font-size="10.00">getType()</text>
<text text-anchor="start" x="163" y="-132.5" font-family="Helvetica,sans-Serif" font-size="10.00">+</text>
<text text-anchor="start" x="191.5" y="-132.5" font-family="Helvetica,sans-Serif" font-size="10.00">isMatchValid()</text>
<text text-anchor="start" x="163" y="-117.5" font-family="Helvetica,sans-Serif" font-size="10.00">+</text>
<text text-anchor="start" x="191.5" y="-117.5" font-family="Helvetica,sans-Serif" font-size="10.00">isPlayerValid()</text>
<polygon fill="#666666" stroke="#666666" points="143.5,-232.5 143.5,-232.5 298.5,-232.5 298.5,-232.5 143.5,-232.5"/>
<polygon fill="#666666" stroke="#666666" points="143.5,-202.5 143.5,-202.5 189.5,-202.5 189.5,-202.5 143.5,-202.5"/>
<polygon fill="#666666" stroke="#666666" points="189.5,-202.5 189.5,-202.5 298.5,-202.5 298.5,-202.5 189.5,-202.5"/>
<polygon fill="none" stroke="#666666" points="143,-111 143,-250 298,-250 298,-111 143,-111"/>
</a>
</g>
</g>
<!-- Node2 -->
<g id="Node000002" class="node">
<title>Node2</title>
<g id="a_Node000002"><a xlink:href="classes_1_1alrodmue_1_1model_1_1fouls_1_1FlagrantFoul.xhtml" target="_top" xlink:title=" ">
<polygon fill="white" stroke="transparent" points="135,-75 0,-75 0,0 135,0 135,-75"/>
<text text-anchor="start" x="5.5" y="-62.5" font-family="Helvetica,sans-Serif" font-size="10.00">es.alrodmue.model.fouls.</text>
<text text-anchor="start" x="37.5" y="-51.5" font-family="Helvetica,sans-Serif" font-size="10.00">FlagrantFoul</text>
<text text-anchor="start" x="66" y="-36.5" font-family="Helvetica,sans-Serif" font-size="10.00"> </text>
<text text-anchor="start" x="15.5" y="-21.5" font-family="Helvetica,sans-Serif" font-size="10.00">+</text>
<text text-anchor="start" x="39.5" y="-21.5" font-family="Helvetica,sans-Serif" font-size="10.00">FlagrantFoul()</text>
<text text-anchor="start" x="15.5" y="-6.5" font-family="Helvetica,sans-Serif" font-size="10.00">+</text>
<text text-anchor="start" x="39.5" y="-6.5" font-family="Helvetica,sans-Serif" font-size="10.00">getType()</text>
<polygon fill="#666666" stroke="#666666" points="0.5,-46.5 0.5,-46.5 135.5,-46.5 135.5,-46.5 0.5,-46.5"/>
<polygon fill="#666666" stroke="#666666" points="0.5,-31.5 0.5,-31.5 135.5,-31.5 135.5,-31.5 0.5,-31.5"/>
<polygon fill="none" stroke="#666666" points="0,0 0,-75 135,-75 135,0 0,0"/>
</a>
</g>
</g>
<!-- Node1&#45;&gt;Node2 -->
<g id="edge1_Node000001_Node000002" class="edge">
<title>Node1&#45;&gt;Node2</title>
<g id="a_edge1_Node000001_Node000002"><a xlink:title=" ">
<path fill="none" stroke="#63b8ff" d="M138.29,-103.73C127.46,-93.76 116.79,-83.93 107.15,-75.04"/>
<polygon fill="none" stroke="#63b8ff" points="136.07,-106.45 145.79,-110.65 140.81,-101.3 136.07,-106.45"/>
</a>
</g>
</g>
<!-- Node3 -->
<g id="Node000003" class="node">
<title>Node3</title>
<g id="a_Node000003"><a xlink:href="classes_1_1alrodmue_1_1model_1_1fouls_1_1PersonalFoul.xhtml" target="_top" xlink:title=" ">
<polygon fill="white" stroke="transparent" points="288,-75 153,-75 153,0 288,0 288,-75"/>
<text text-anchor="start" x="158.5" y="-62.5" font-family="Helvetica,sans-Serif" font-size="10.00">es.alrodmue.model.fouls.</text>
<text text-anchor="start" x="189.5" y="-51.5" font-family="Helvetica,sans-Serif" font-size="10.00">PersonalFoul</text>
<text text-anchor="start" x="219" y="-36.5" font-family="Helvetica,sans-Serif" font-size="10.00"> </text>
<text text-anchor="start" x="168.5" y="-21.5" font-family="Helvetica,sans-Serif" font-size="10.00">+</text>
<text text-anchor="start" x="192.5" y="-21.5" font-family="Helvetica,sans-Serif" font-size="10.00">PersonalFoul()</text>
<text text-anchor="start" x="168.5" y="-6.5" font-family="Helvetica,sans-Serif" font-size="10.00">+</text>
<text text-anchor="start" x="192.5" y="-6.5" font-family="Helvetica,sans-Serif" font-size="10.00">getType()</text>
<polygon fill="#666666" stroke="#666666" points="153.5,-46.5 153.5,-46.5 288.5,-46.5 288.5,-46.5 153.5,-46.5"/>
<polygon fill="#666666" stroke="#666666" points="153.5,-31.5 153.5,-31.5 288.5,-31.5 288.5,-31.5 153.5,-31.5"/>
<polygon fill="none" stroke="#666666" points="153,0 153,-75 288,-75 288,0 153,0"/>
</a>
</g>
</g>
<!-- Node1&#45;&gt;Node3 -->
<g id="edge2_Node000001_Node000003" class="edge">
<title>Node1&#45;&gt;Node3</title>
<g id="a_edge2_Node000001_Node000003"><a xlink:title=" ">
<path fill="none" stroke="#63b8ff" d="M220.5,-100.58C220.5,-91.69 220.5,-82.99 220.5,-75.04"/>
<polygon fill="none" stroke="#63b8ff" points="217,-100.65 220.5,-110.65 224,-100.65 217,-100.65"/>
</a>
</g>
</g>
<!-- Node4 -->
<g id="Node000004" class="node">
<title>Node4</title>
<g id="a_Node000004"><a xlink:href="classes_1_1alrodmue_1_1model_1_1fouls_1_1TechnicalFoul.xhtml" target="_top" xlink:title=" ">
<polygon fill="white" stroke="transparent" points="441,-75 306,-75 306,0 441,0 441,-75"/>
<text text-anchor="start" x="311.5" y="-62.5" font-family="Helvetica,sans-Serif" font-size="10.00">es.alrodmue.model.fouls.</text>
<text text-anchor="start" x="341" y="-51.5" font-family="Helvetica,sans-Serif" font-size="10.00">TechnicalFoul</text>
<text text-anchor="start" x="372" y="-36.5" font-family="Helvetica,sans-Serif" font-size="10.00"> </text>
<text text-anchor="start" x="320.5" y="-21.5" font-family="Helvetica,sans-Serif" font-size="10.00">+</text>
<text text-anchor="start" x="343.5" y="-21.5" font-family="Helvetica,sans-Serif" font-size="10.00">TechnicalFoul()</text>
<text text-anchor="start" x="320.5" y="-6.5" font-family="Helvetica,sans-Serif" font-size="10.00">+</text>
<text text-anchor="start" x="343.5" y="-6.5" font-family="Helvetica,sans-Serif" font-size="10.00">getType()</text>
<polygon fill="#666666" stroke="#666666" points="306.5,-46.5 306.5,-46.5 441.5,-46.5 441.5,-46.5 306.5,-46.5"/>
<polygon fill="#666666" stroke="#666666" points="306.5,-31.5 306.5,-31.5 441.5,-31.5 441.5,-31.5 306.5,-31.5"/>
<polygon fill="none" stroke="#666666" points="306,0 306,-75 441,-75 441,0 306,0"/>
</a>
</g>
</g>
<!-- Node1&#45;&gt;Node4 -->
<g id="edge3_Node000001_Node000004" class="edge">
<title>Node1&#45;&gt;Node4</title>
<g id="a_edge3_Node000001_Node000004"><a xlink:title=" ">
<path fill="none" stroke="#63b8ff" d="M302.71,-103.73C313.54,-93.76 324.21,-83.93 333.85,-75.04"/>
<polygon fill="none" stroke="#63b8ff" points="300.19,-101.3 295.21,-110.65 304.93,-106.45 300.19,-101.3"/>
</a>
</g>
</g>
</g>
</svg>
