<?xml version="1.0" encoding="UTF-8" standalone="no"?>
<!DOCTYPE svg PUBLIC "-//W3C//DTD SVG 1.1//EN"
 "http://www.w3.org/Graphics/SVG/1.1/DTD/svg11.dtd">
<!-- Generated by graphviz version 2.43.0 (0)
 -->
<!-- Title: es.alrodmue.model.Team.Team Pages: 1 -->
<svg width="797pt" height="248pt"
 viewBox="0.00 0.00 797.00 248.00" xmlns="http://www.w3.org/2000/svg" xmlns:xlink="http://www.w3.org/1999/xlink">
<g id="graph0" class="graph" transform="scale(1 1) rotate(0) translate(4 244)">
<title>es.alrodmue.model.Team.Team</title>
<!-- Node1 -->
<g id="Node000001" class="node">
<title>Node1</title>
<g id="a_Node000001"><a xlink:title=" ">
<polygon fill="#999999" stroke="#666666" points="789,-138.5 619,-138.5 619,-119.5 789,-119.5 789,-138.5"/>
<text text-anchor="middle" x="704" y="-126.5" font-family="Helvetica,sans-Serif" font-size="10.00">es.alrodmue.model.Team.Team</text>
</a>
</g>
</g>
<!-- Node2 -->
<g id="Node000002" class="node">
<title>Node2</title>
<g id="a_Node000002"><a xlink:href="classes_1_1alrodmue_1_1model_1_1Team.xhtml#a7301e45c0f5b85a4d03cd04e758cd97d" target="_top" xlink:title=" ">
<polygon fill="white" stroke="#666666" points="583,-144 424,-144 424,-114 583,-114 583,-144"/>
<text text-anchor="start" x="432" y="-132" font-family="Helvetica,sans-Serif" font-size="10.00">es.alrodmue.model.Team.get</text>
<text text-anchor="middle" x="503.5" y="-121" font-family="Helvetica,sans-Serif" font-size="10.00">Instance</text>
</a>
</g>
</g>
<!-- Node1&#45;&gt;Node2 -->
<g id="edge1_Node000001_Node000002" class="edge">
<title>Node1&#45;&gt;Node2</title>
<g id="a_edge1_Node000001_Node000002"><a xlink:title=" ">
<path fill="none" stroke="#63b8ff" d="M608.78,-129C600.19,-129 591.56,-129 583.13,-129"/>
<polygon fill="#63b8ff" stroke="#63b8ff" points="608.82,-132.5 618.82,-129 608.82,-125.5 608.82,-132.5"/>
</a>
</g>
</g>
<!-- Node3 -->
<g id="Node000003" class="node">
<title>Node3</title>
<g id="a_Node000003"><a xlink:href="classes_1_1alrodmue_1_1controller_1_1PlayerController.xhtml#acb71c6269a42789d433d96c23367f1bc" target="_top" xlink:title=" ">
<polygon fill="white" stroke="#666666" points="388,-240 228,-240 228,-210 388,-210 388,-240"/>
<text text-anchor="start" x="236" y="-228" font-family="Helvetica,sans-Serif" font-size="10.00">es.alrodmue.controller.Player</text>
<text text-anchor="middle" x="308" y="-217" font-family="Helvetica,sans-Serif" font-size="10.00">Controller.createPlayer</text>
</a>
</g>
</g>
<!-- Node2&#45;&gt;Node3 -->
<g id="edge2_Node000002_Node000003" class="edge">
<title>Node2&#45;&gt;Node3</title>
<g id="a_edge2_Node000002_Node000003"><a xlink:title=" ">
<path fill="none" stroke="#63b8ff" d="M473.96,-149.97C451.5,-165.71 418.93,-186.88 388,-201 380.83,-204.27 373.09,-207.25 365.36,-209.9"/>
<polygon fill="#63b8ff" stroke="#63b8ff" points="476.21,-152.66 482.34,-144.02 472.16,-146.95 476.21,-152.66"/>
</a>
</g>
</g>
<!-- Node5 -->
<g id="Node000005" class="node">
<title>Node5</title>
<g id="a_Node000005"><a xlink:href="classes_1_1alrodmue_1_1controller_1_1MatchController.xhtml#a42b9493f74fbd7a9a545daceae923762" target="_top" xlink:title=" ">
<polygon fill="white" stroke="#666666" points="387.5,-192 228.5,-192 228.5,-162 387.5,-162 387.5,-192"/>
<text text-anchor="start" x="236.5" y="-180" font-family="Helvetica,sans-Serif" font-size="10.00">es.alrodmue.controller.Match</text>
<text text-anchor="middle" x="308" y="-169" font-family="Helvetica,sans-Serif" font-size="10.00">Controller.playMatch</text>
</a>
</g>
</g>
<!-- Node2&#45;&gt;Node5 -->
<g id="edge4_Node000002_Node000005" class="edge">
<title>Node2&#45;&gt;Node5</title>
<g id="a_edge4_Node000002_Node000005"><a xlink:title=" ">
<path fill="none" stroke="#63b8ff" d="M431.91,-146.51C411.44,-151.59 389.27,-157.09 369.48,-162"/>
<polygon fill="#63b8ff" stroke="#63b8ff" points="432.94,-149.86 441.81,-144.06 431.26,-143.07 432.94,-149.86"/>
</a>
</g>
</g>
<!-- Node7 -->
<g id="Node000007" class="node">
<title>Node7</title>
<g id="a_Node000007"><a xlink:href="classes_1_1alrodmue_1_1controller_1_1PlayerController.xhtml#a55cc268435a692ae0f37a02c5b045483" target="_top" xlink:title=" ">
<polygon fill="white" stroke="#666666" points="388,-144 228,-144 228,-114 388,-114 388,-144"/>
<text text-anchor="start" x="236" y="-132" font-family="Helvetica,sans-Serif" font-size="10.00">es.alrodmue.controller.Player</text>
<text text-anchor="middle" x="308" y="-121" font-family="Helvetica,sans-Serif" font-size="10.00">Controller.removePlayer</text>
</a>
</g>
</g>
<!-- Node2&#45;&gt;Node7 -->
<g id="edge6_Node000002_Node000007" class="edge">
<title>Node2&#45;&gt;Node7</title>
<g id="a_edge6_Node000002_Node000007"><a xlink:title=" ">
<path fill="none" stroke="#63b8ff" d="M413.56,-129C405.12,-129 396.6,-129 388.26,-129"/>
<polygon fill="#63b8ff" stroke="#63b8ff" points="413.8,-132.5 423.8,-129 413.8,-125.5 413.8,-132.5"/>
</a>
</g>
</g>
<!-- Node8 -->
<g id="Node000008" class="node">
<title>Node8</title>
<g id="a_Node000008"><a xlink:href="classes_1_1alrodmue_1_1controller_1_1MatchController.xhtml#ae91a37357296af063d7527356130c011" target="_top" xlink:title=" ">
<polygon fill="white" stroke="#666666" points="387.5,-78 228.5,-78 228.5,-48 387.5,-48 387.5,-78"/>
<text text-anchor="start" x="236.5" y="-66" font-family="Helvetica,sans-Serif" font-size="10.00">es.alrodmue.controller.Match</text>
<text text-anchor="middle" x="308" y="-55" font-family="Helvetica,sans-Serif" font-size="10.00">Controller.showMatchDetails</text>
</a>
</g>
</g>
<!-- Node2&#45;&gt;Node8 -->
<g id="edge7_Node000002_Node000008" class="edge">
<title>Node2&#45;&gt;Node8</title>
<g id="a_edge7_Node000002_Node000008"><a xlink:title=" ">
<path fill="none" stroke="#63b8ff" d="M448.61,-110.62C418.53,-100.36 381.54,-87.74 353.19,-78.07"/>
<polygon fill="#63b8ff" stroke="#63b8ff" points="447.51,-113.94 458.11,-113.86 449.77,-107.32 447.51,-113.94"/>
</a>
</g>
</g>
<!-- Node9 -->
<g id="Node000009" class="node">
<title>Node9</title>
<g id="a_Node000009"><a xlink:href="classes_1_1alrodmue_1_1controller_1_1PlayerController.xhtml#af837db34e77d7805da5ccaaedc9b20f8" target="_top" xlink:title=" ">
<polygon fill="white" stroke="#666666" points="388,-30 228,-30 228,0 388,0 388,-30"/>
<text text-anchor="start" x="236" y="-18" font-family="Helvetica,sans-Serif" font-size="10.00">es.alrodmue.controller.Player</text>
<text text-anchor="middle" x="308" y="-7" font-family="Helvetica,sans-Serif" font-size="10.00">Controller.showPlayerDetails</text>
</a>
</g>
</g>
<!-- Node2&#45;&gt;Node9 -->
<g id="edge9_Node000002_Node000009" class="edge">
<title>Node2&#45;&gt;Node9</title>
<g id="a_edge9_Node000002_Node000009"><a xlink:title=" ">
<path fill="none" stroke="#63b8ff" d="M479.69,-106.82C457.78,-86.61 422.94,-57.22 388,-39 381.52,-35.62 374.48,-32.64 367.37,-30.02"/>
<polygon fill="#63b8ff" stroke="#63b8ff" points="477.46,-109.53 487.15,-113.81 482.25,-104.42 477.46,-109.53"/>
</a>
</g>
</g>
<!-- Node4 -->
<g id="Node000004" class="node">
<title>Node4</title>
<g id="a_Node000004"><a xlink:href="classes_1_1alrodmue_1_1view_1_1AddPlayerViewController.xhtml#a9194dc8d302c529d039789001b272d94" target="_top" xlink:title=" ">
<polygon fill="white" stroke="#666666" points="192,-240 0,-240 0,-210 192,-210 192,-240"/>
<text text-anchor="start" x="8" y="-228" font-family="Helvetica,sans-Serif" font-size="10.00">es.alrodmue.view.AddPlayer</text>
<text text-anchor="middle" x="96" y="-217" font-family="Helvetica,sans-Serif" font-size="10.00">ViewController.onAcceptButtonClick</text>
</a>
</g>
</g>
<!-- Node3&#45;&gt;Node4 -->
<g id="edge3_Node000003_Node000004" class="edge">
<title>Node3&#45;&gt;Node4</title>
<g id="a_edge3_Node000003_Node000004"><a xlink:title=" ">
<path fill="none" stroke="#63b8ff" d="M217.73,-225C209.31,-225 200.76,-225 192.29,-225"/>
<polygon fill="#63b8ff" stroke="#63b8ff" points="217.91,-228.5 227.91,-225 217.91,-221.5 217.91,-228.5"/>
</a>
</g>
</g>
<!-- Node6 -->
<g id="Node000006" class="node">
<title>Node6</title>
<g id="a_Node000006"><a xlink:href="classes_1_1alrodmue_1_1view_1_1AddMatchViewController.xhtml#af484d8fbe31480a95c9d300985fce32c" target="_top" xlink:title=" ">
<polygon fill="white" stroke="#666666" points="192,-192 0,-192 0,-162 192,-162 192,-192"/>
<text text-anchor="start" x="8" y="-180" font-family="Helvetica,sans-Serif" font-size="10.00">es.alrodmue.view.AddMatch</text>
<text text-anchor="middle" x="96" y="-169" font-family="Helvetica,sans-Serif" font-size="10.00">ViewController.onAcceptButtonClick</text>
</a>
</g>
</g>
<!-- Node5&#45;&gt;Node6 -->
<g id="edge5_Node000005_Node000006" class="edge">
<title>Node5&#45;&gt;Node6</title>
<g id="a_edge5_Node000005_Node000006"><a xlink:title=" ">
<path fill="none" stroke="#63b8ff" d="M218.19,-177C209.59,-177 200.84,-177 192.18,-177"/>
<polygon fill="#63b8ff" stroke="#63b8ff" points="218.21,-180.5 228.21,-177 218.21,-173.5 218.21,-180.5"/>
</a>
</g>
</g>
<!-- Node8&#45;&gt;Node8 -->
<g id="edge8_Node000008_Node000008" class="edge">
<title>Node8&#45;&gt;Node8</title>
<g id="a_edge8_Node000008_Node000008"><a xlink:title=" ">
<path fill="none" stroke="#63b8ff" d="M341.96,-88.6C337.32,-92.97 326,-96 308,-96 277.69,-96 266.32,-87.41 273.9,-78.28"/>
<polygon fill="#63b8ff" stroke="#63b8ff" points="345.46,-88.32 342.1,-78.28 338.46,-88.23 345.46,-88.32"/>
</a>
</g>
</g>
</g>
</svg>
