<?xml version="1.0" encoding="UTF-8" standalone="no"?>
<!DOCTYPE svg PUBLIC "-//W3C//DTD SVG 1.1//EN"
 "http://www.w3.org/Graphics/SVG/1.1/DTD/svg11.dtd">
<!-- Generated by graphviz version 2.43.0 (0)
 -->
<!-- Title: es.alrodmue.model.players.Player Pages: 1 -->
<svg width="443pt" height="570pt"
 viewBox="0.00 0.00 442.50 570.00" xmlns="http://www.w3.org/2000/svg" xmlns:xlink="http://www.w3.org/1999/xlink">
<g id="graph0" class="graph" transform="scale(1 1) rotate(0) translate(4 566)">
<title>es.alrodmue.model.players.Player</title>
<!-- Node1 -->
<g id="Node000001" class="node">
<title>Node1</title>
<g id="a_Node000001"><a xlink:title=" ">
<polygon fill="#999999" stroke="transparent" points="222,-315 75,-315 75,0 222,0 222,-315"/>
<text text-anchor="start" x="80.5" y="-302.5" font-family="Helvetica,sans-Serif" font-size="10.00">es.alrodmue.model.players.</text>
<text text-anchor="start" x="133.5" y="-291.5" font-family="Helvetica,sans-Serif" font-size="10.00">Player</text>
<text text-anchor="start" x="147" y="-276.5" font-family="Helvetica,sans-Serif" font-size="10.00"> </text>
<text text-anchor="start" x="91" y="-261.5" font-family="Helvetica,sans-Serif" font-size="10.00">+</text>
<text text-anchor="start" x="115.5" y="-261.5" font-family="Helvetica,sans-Serif" font-size="10.00">Player()</text>
<text text-anchor="start" x="91" y="-246.5" font-family="Helvetica,sans-Serif" font-size="10.00">+</text>
<text text-anchor="start" x="115.5" y="-246.5" font-family="Helvetica,sans-Serif" font-size="10.00">addFoul()</text>
<text text-anchor="start" x="91" y="-231.5" font-family="Helvetica,sans-Serif" font-size="10.00">+</text>
<text text-anchor="start" x="115.5" y="-231.5" font-family="Helvetica,sans-Serif" font-size="10.00">addPoints()</text>
<text text-anchor="start" x="91" y="-216.5" font-family="Helvetica,sans-Serif" font-size="10.00">+</text>
<text text-anchor="start" x="115.5" y="-216.5" font-family="Helvetica,sans-Serif" font-size="10.00">getDetail()</text>
<text text-anchor="start" x="91" y="-201.5" font-family="Helvetica,sans-Serif" font-size="10.00">+</text>
<text text-anchor="start" x="115.5" y="-201.5" font-family="Helvetica,sans-Serif" font-size="10.00">getFouls()</text>
<text text-anchor="start" x="91" y="-186.5" font-family="Helvetica,sans-Serif" font-size="10.00">+</text>
<text text-anchor="start" x="115.5" y="-186.5" font-family="Helvetica,sans-Serif" font-size="10.00">getHeight()</text>
<text text-anchor="start" x="91" y="-171.5" font-family="Helvetica,sans-Serif" font-size="10.00">+</text>
<text text-anchor="start" x="115.5" y="-171.5" font-family="Helvetica,sans-Serif" font-size="10.00">getName()</text>
<text text-anchor="start" x="91" y="-156.5" font-family="Helvetica,sans-Serif" font-size="10.00">+</text>
<text text-anchor="start" x="115.5" y="-156.5" font-family="Helvetica,sans-Serif" font-size="10.00">getNumber()</text>
<text text-anchor="start" x="91" y="-141.5" font-family="Helvetica,sans-Serif" font-size="10.00">+</text>
<text text-anchor="start" x="115.5" y="-141.5" font-family="Helvetica,sans-Serif" font-size="10.00">getPoints()</text>
<text text-anchor="start" x="91" y="-126.5" font-family="Helvetica,sans-Serif" font-size="10.00">+</text>
<text text-anchor="start" x="115.5" y="-126.5" font-family="Helvetica,sans-Serif" font-size="10.00">getSkill()</text>
<text text-anchor="start" x="91" y="-111.5" font-family="Helvetica,sans-Serif" font-size="10.00">+</text>
<text text-anchor="start" x="115.5" y="-111.5" font-family="Helvetica,sans-Serif" font-size="10.00">getType()</text>
<text text-anchor="start" x="91" y="-96.5" font-family="Helvetica,sans-Serif" font-size="10.00">+</text>
<text text-anchor="start" x="115.5" y="-96.5" font-family="Helvetica,sans-Serif" font-size="10.00">toString()</text>
<text text-anchor="start" x="91" y="-81.5" font-family="Helvetica,sans-Serif" font-size="10.00">+</text>
<text text-anchor="start" x="115.5" y="-81.5" font-family="Helvetica,sans-Serif" font-size="10.00">arePointsValid()</text>
<text text-anchor="start" x="91" y="-66.5" font-family="Helvetica,sans-Serif" font-size="10.00">+</text>
<text text-anchor="start" x="115.5" y="-66.5" font-family="Helvetica,sans-Serif" font-size="10.00">isFoulValid()</text>
<text text-anchor="start" x="91" y="-51.5" font-family="Helvetica,sans-Serif" font-size="10.00">+</text>
<text text-anchor="start" x="115.5" y="-51.5" font-family="Helvetica,sans-Serif" font-size="10.00">isHeightValid()</text>
<text text-anchor="start" x="91" y="-36.5" font-family="Helvetica,sans-Serif" font-size="10.00">+</text>
<text text-anchor="start" x="115.5" y="-36.5" font-family="Helvetica,sans-Serif" font-size="10.00">isNameValid()</text>
<text text-anchor="start" x="91" y="-21.5" font-family="Helvetica,sans-Serif" font-size="10.00">+</text>
<text text-anchor="start" x="115.5" y="-21.5" font-family="Helvetica,sans-Serif" font-size="10.00">isNumberValid()</text>
<text text-anchor="start" x="91" y="-6.5" font-family="Helvetica,sans-Serif" font-size="10.00">+</text>
<text text-anchor="start" x="115.5" y="-6.5" font-family="Helvetica,sans-Serif" font-size="10.00">isSkillValid()</text>
<polygon fill="#666666" stroke="#666666" points="75.5,-286.5 75.5,-286.5 222.5,-286.5 222.5,-286.5 75.5,-286.5"/>
<polygon fill="#666666" stroke="#666666" points="75.5,-271.5 75.5,-271.5 222.5,-271.5 222.5,-271.5 75.5,-271.5"/>
<polygon fill="none" stroke="#666666" points="75,0 75,-315 222,-315 222,0 75,0"/>
</a>
</g>
</g>
<!-- Node2 -->
<g id="Node000002" class="node">
<title>Node2</title>
<g id="a_Node000002"><a xlink:title=" ">
<polygon fill="white" stroke="transparent" points="53,-449.5 0,-449.5 0,-400.5 53,-400.5 53,-449.5"/>
<text text-anchor="start" x="5.5" y="-437" font-family="Helvetica,sans-Serif" font-size="10.00">static int</text>
<text text-anchor="start" x="25" y="-422" font-family="Helvetica,sans-Serif" font-size="10.00"> </text>
<text text-anchor="start" x="25" y="-407" font-family="Helvetica,sans-Serif" font-size="10.00"> </text>
<polygon fill="#666666" stroke="#666666" points="0.5,-432 0.5,-432 53.5,-432 53.5,-432 0.5,-432"/>
<polygon fill="#666666" stroke="#666666" points="0.5,-417 0.5,-417 53.5,-417 53.5,-417 0.5,-417"/>
<polygon fill="none" stroke="#666666" points="0,-400.5 0,-449.5 53,-449.5 53,-400.5 0,-400.5"/>
</a>
</g>
</g>
<!-- Node2&#45;&gt;Node1 -->
<g id="edge1_Node000001_Node000002" class="edge">
<title>Node2&#45;&gt;Node1</title>
<g id="a_edge1_Node000001_Node000002"><a xlink:title=" ">
<path fill="none" stroke="#63b8ff" d="M28.95,-400.19C31.41,-381.46 36.08,-354.95 44.5,-333 51.3,-315.28 59.84,-297.29 69.08,-279.94"/>
<polygon fill="none" stroke="#63b8ff" points="69.18,-279.76 68.54,-272.58 74.92,-269.22 75.56,-276.4 69.18,-279.76"/>
</a>
</g>
<text text-anchor="middle" x="78.5" y="-352.5" font-family="Helvetica,sans-Serif" font-size="10.00" fill="grey"> &#45;nextNumber</text>
</g>
<!-- Node3 -->
<g id="Node000003" class="node">
<title>Node3</title>
<g id="a_Node000003"><a xlink:title=" ">
<polygon fill="white" stroke="transparent" points="137,-449.5 98,-449.5 98,-400.5 137,-400.5 137,-449.5"/>
<text text-anchor="start" x="103.5" y="-437" font-family="Helvetica,sans-Serif" font-size="10.00">String</text>
<text text-anchor="start" x="116" y="-422" font-family="Helvetica,sans-Serif" font-size="10.00"> </text>
<text text-anchor="start" x="116" y="-407" font-family="Helvetica,sans-Serif" font-size="10.00"> </text>
<polygon fill="#666666" stroke="#666666" points="98.5,-432 98.5,-432 137.5,-432 137.5,-432 98.5,-432"/>
<polygon fill="#666666" stroke="#666666" points="98.5,-417 98.5,-417 137.5,-417 137.5,-417 98.5,-417"/>
<polygon fill="none" stroke="#666666" points="98,-400.5 98,-449.5 137,-449.5 137,-400.5 98,-400.5"/>
</a>
</g>
</g>
<!-- Node3&#45;&gt;Node1 -->
<g id="edge2_Node000001_Node000003" class="edge">
<title>Node3&#45;&gt;Node1</title>
<g id="a_edge2_Node000001_Node000003"><a xlink:title=" ">
<path fill="none" stroke="#63b8ff" d="M116.73,-400.38C116.38,-381.98 116.43,-355.82 118.5,-333 118.67,-331.09 118.86,-329.17 119.05,-327.24"/>
<polygon fill="none" stroke="#63b8ff" points="119.05,-327.23 115.71,-320.84 120.33,-315.3 123.67,-321.7 119.05,-327.23"/>
</a>
</g>
<text text-anchor="middle" x="138.5" y="-352.5" font-family="Helvetica,sans-Serif" font-size="10.00" fill="grey"> #name</text>
</g>
<!-- Node4 -->
<g id="Node000004" class="node">
<title>Node4</title>
<g id="a_Node000004"><a xlink:title=" ">
<polygon fill="white" stroke="transparent" points="192,-449.5 169,-449.5 169,-400.5 192,-400.5 192,-449.5"/>
<text text-anchor="start" x="174.5" y="-437" font-family="Helvetica,sans-Serif" font-size="10.00">int</text>
<text text-anchor="start" x="179" y="-422" font-family="Helvetica,sans-Serif" font-size="10.00"> </text>
<text text-anchor="start" x="179" y="-407" font-family="Helvetica,sans-Serif" font-size="10.00"> </text>
<polygon fill="#666666" stroke="#666666" points="169.5,-432 169.5,-432 192.5,-432 192.5,-432 169.5,-432"/>
<polygon fill="#666666" stroke="#666666" points="169.5,-417 169.5,-417 192.5,-417 192.5,-417 169.5,-417"/>
<polygon fill="none" stroke="#666666" points="169,-400.5 169,-449.5 192,-449.5 192,-400.5 169,-400.5"/>
</a>
</g>
</g>
<!-- Node4&#45;&gt;Node1 -->
<g id="edge3_Node000001_Node000004" class="edge">
<title>Node4&#45;&gt;Node1</title>
<g id="a_edge3_Node000001_Node000004"><a xlink:title=" ">
<path fill="none" stroke="#63b8ff" d="M177.66,-400.44C175.5,-382.54 172.32,-356.13 168.84,-327.27"/>
<polygon fill="none" stroke="#63b8ff" points="168.82,-327.13 164.14,-321.66 167.39,-315.22 172.08,-320.7 168.82,-327.13"/>
</a>
</g>
<text text-anchor="middle" x="196.5" y="-369" font-family="Helvetica,sans-Serif" font-size="10.00" fill="grey"> #height</text>
<text text-anchor="middle" x="196.5" y="-358" font-family="Helvetica,sans-Serif" font-size="10.00" fill="grey">#number</text>
<text text-anchor="middle" x="196.5" y="-347" font-family="Helvetica,sans-Serif" font-size="10.00" fill="grey">#points</text>
<text text-anchor="middle" x="196.5" y="-336" font-family="Helvetica,sans-Serif" font-size="10.00" fill="grey">#skill</text>
</g>
<!-- Node5 -->
<g id="Node000005" class="node">
<title>Node5</title>
<g id="a_Node000005"><a xlink:title=" ">
<polygon fill="white" stroke="transparent" points="429,-455 210,-455 210,-395 429,-395 429,-455"/>
<text text-anchor="start" x="215.5" y="-443" font-family="Helvetica,sans-Serif" font-size="10.00">ObservableList&lt; es.alrodmue.model.fouls.</text>
<text text-anchor="start" x="304" y="-432" font-family="Helvetica,sans-Serif" font-size="10.00">Foul &gt;</text>
<text text-anchor="start" x="318" y="-417" font-family="Helvetica,sans-Serif" font-size="10.00"> </text>
<text text-anchor="start" x="318" y="-402" font-family="Helvetica,sans-Serif" font-size="10.00"> </text>
<polygon fill="#666666" stroke="#666666" points="210.5,-427 210.5,-427 429.5,-427 429.5,-427 210.5,-427"/>
<polygon fill="#666666" stroke="#666666" points="210.5,-412 210.5,-412 429.5,-412 429.5,-412 210.5,-412"/>
<polygon fill="none" stroke="#666666" points="210,-395 210,-455 429,-455 429,-395 210,-395"/>
</a>
</g>
</g>
<!-- Node5&#45;&gt;Node1 -->
<g id="edge4_Node000001_Node000005" class="edge">
<title>Node5&#45;&gt;Node1</title>
<g id="a_edge4_Node000001_Node000005"><a xlink:title=" ">
<path fill="none" stroke="#63b8ff" d="M300.71,-394.83C283.12,-367.51 255.58,-324.76 228.74,-283.09"/>
<polygon fill="none" stroke="#63b8ff" points="228.62,-282.9 222.01,-280.02 222.13,-272.81 228.74,-275.69 228.62,-282.9"/>
</a>
</g>
<text text-anchor="middle" x="304.5" y="-352.5" font-family="Helvetica,sans-Serif" font-size="10.00" fill="grey"> #fouls</text>
</g>
<!-- Node6 -->
<g id="Node000006" class="node">
<title>Node6</title>
<g id="a_Node000006"><a xlink:title=" ">
<polygon fill="white" stroke="transparent" points="361,-562 278,-562 278,-513 361,-513 361,-562"/>
<text text-anchor="start" x="283.5" y="-549.5" font-family="Helvetica,sans-Serif" font-size="10.00">ObservableList</text>
<text text-anchor="start" x="318" y="-534.5" font-family="Helvetica,sans-Serif" font-size="10.00"> </text>
<text text-anchor="start" x="318" y="-519.5" font-family="Helvetica,sans-Serif" font-size="10.00"> </text>
<polygon fill="#666666" stroke="#666666" points="278.5,-544.5 278.5,-544.5 361.5,-544.5 361.5,-544.5 278.5,-544.5"/>
<polygon fill="#666666" stroke="#666666" points="278.5,-529.5 278.5,-529.5 361.5,-529.5 361.5,-529.5 278.5,-529.5"/>
<polygon fill="none" stroke="#666666" points="278,-513 278,-562 361,-562 361,-513 278,-513"/>
</a>
</g>
</g>
<!-- Node6&#45;&gt;Node5 -->
<g id="edge5_Node000005_Node000006" class="edge">
<title>Node6&#45;&gt;Node5</title>
<g id="a_edge5_Node000005_Node000006"><a xlink:title=" ">
<path fill="none" stroke="orange" d="M319.5,-502.75C319.5,-487.56 319.5,-469.79 319.5,-455.17"/>
<polygon fill="orange" stroke="orange" points="316,-502.79 319.5,-512.79 323,-502.8 316,-502.79"/>
</a>
</g>
<text text-anchor="start" x="319.5" y="-487" font-family="Helvetica,sans-Serif" font-size="10.00" fill="grey"> &lt; es::alrodmue::model</text>
<text text-anchor="middle" x="377" y="-476" font-family="Helvetica,sans-Serif" font-size="10.00" fill="grey">::fouls::Foul &gt;</text>
</g>
</g>
</svg>
