<?xml version="1.0" encoding="UTF-8" standalone="no"?>
<!DOCTYPE svg PUBLIC "-//W3C//DTD SVG 1.1//EN"
 "http://www.w3.org/Graphics/SVG/1.1/DTD/svg11.dtd">
<!-- Generated by graphviz version 2.43.0 (0)
 -->
<!-- Title: es.alrodmue.model.factories.FoulFactory Pages: 1 -->
<svg width="229pt" height="235pt"
 viewBox="0.00 0.00 229.00 235.00" xmlns="http://www.w3.org/2000/svg" xmlns:xlink="http://www.w3.org/1999/xlink">
<g id="graph0" class="graph" transform="scale(1 1) rotate(0) translate(4 231)">
<title>es.alrodmue.model.factories.FoulFactory</title>
<!-- Node1 -->
<g id="Node000001" class="node">
<title>Node1</title>
<g id="a_Node000001"><a xlink:title=" ">
<polygon fill="#999999" stroke="transparent" points="154,-90 0,-90 0,0 154,0 154,-90"/>
<text text-anchor="start" x="5" y="-78" font-family="Helvetica,sans-Serif" font-size="10.00">es.alrodmue.model.factories.</text>
<text text-anchor="start" x="49" y="-67" font-family="Helvetica,sans-Serif" font-size="10.00">FoulFactory</text>
<text text-anchor="start" x="75" y="-52" font-family="Helvetica,sans-Serif" font-size="10.00"> </text>
<text text-anchor="start" x="21" y="-37" font-family="Helvetica,sans-Serif" font-size="10.00">+</text>
<text text-anchor="start" x="51" y="-37" font-family="Helvetica,sans-Serif" font-size="10.00">create()</text>
<text text-anchor="start" x="21" y="-22" font-family="Helvetica,sans-Serif" font-size="10.00">+</text>
<text text-anchor="start" x="51" y="-22" font-family="Helvetica,sans-Serif" font-size="10.00">getInstance()</text>
<text text-anchor="start" x="23.5" y="-7" font-family="Helvetica,sans-Serif" font-size="10.00">&#45;</text>
<text text-anchor="start" x="51" y="-7" font-family="Helvetica,sans-Serif" font-size="10.00">FoulFactory()</text>
<polygon fill="#666666" stroke="#666666" points="0,-62 0,-62 154,-62 154,-62 0,-62"/>
<polygon fill="#666666" stroke="#666666" points="0,-47 0,-47 154,-47 154,-47 0,-47"/>
<polygon fill="none" stroke="#666666" points="0,0 0,-90 154,-90 154,0 0,0"/>
</a>
</g>
</g>
<!-- Node2 -->
<g id="Node000002" class="node">
<title>Node2</title>
<g id="a_Node000002"><a xlink:href="classes_1_1alrodmue_1_1model_1_1factories_1_1FoulFactory.xhtml" target="_top" xlink:title=" ">
<polygon fill="white" stroke="transparent" points="154,-227 0,-227 0,-137 154,-137 154,-227"/>
<text text-anchor="start" x="5" y="-215" font-family="Helvetica,sans-Serif" font-size="10.00">es.alrodmue.model.factories.</text>
<text text-anchor="start" x="49" y="-204" font-family="Helvetica,sans-Serif" font-size="10.00">FoulFactory</text>
<text text-anchor="start" x="75" y="-189" font-family="Helvetica,sans-Serif" font-size="10.00"> </text>
<text text-anchor="start" x="21" y="-174" font-family="Helvetica,sans-Serif" font-size="10.00">+</text>
<text text-anchor="start" x="51" y="-174" font-family="Helvetica,sans-Serif" font-size="10.00">create()</text>
<text text-anchor="start" x="21" y="-159" font-family="Helvetica,sans-Serif" font-size="10.00">+</text>
<text text-anchor="start" x="51" y="-159" font-family="Helvetica,sans-Serif" font-size="10.00">getInstance()</text>
<text text-anchor="start" x="23.5" y="-144" font-family="Helvetica,sans-Serif" font-size="10.00">&#45;</text>
<text text-anchor="start" x="51" y="-144" font-family="Helvetica,sans-Serif" font-size="10.00">FoulFactory()</text>
<polygon fill="#666666" stroke="#666666" points="0,-199 0,-199 154,-199 154,-199 0,-199"/>
<polygon fill="#666666" stroke="#666666" points="0,-184 0,-184 154,-184 154,-184 0,-184"/>
<polygon fill="none" stroke="#666666" points="0,-137 0,-227 154,-227 154,-137 0,-137"/>
</a>
</g>
</g>
<!-- Node2&#45;&gt;Node1 -->
<g id="edge1_Node000001_Node000002" class="edge">
<title>Node2&#45;&gt;Node1</title>
<g id="a_edge1_Node000001_Node000002"><a xlink:title=" ">
<path fill="none" stroke="#63b8ff" d="M77,-136.8C77,-125.84 77,-113.95 77,-102.5"/>
<polygon fill="none" stroke="#63b8ff" points="77,-102.3 73,-96.3 77,-90.3 81,-96.3 77,-102.3"/>
</a>
</g>
<text text-anchor="middle" x="101.5" y="-111" font-family="Helvetica,sans-Serif" font-size="10.00" fill="grey"> &#45;instance</text>
</g>
<!-- Node2&#45;&gt;Node2 -->
<g id="edge2_Node000002_Node000002" class="edge">
<title>Node2&#45;&gt;Node2</title>
<g id="a_edge2_Node000002_Node000002"><a xlink:title=" ">
<path fill="none" stroke="#63b8ff" d="M154.16,-193.38C164.85,-191.5 172,-187.71 172,-182 172,-178.79 169.74,-176.18 165.86,-174.18"/>
<polygon fill="none" stroke="#63b8ff" points="165.64,-174.12 158.73,-176.2 154.16,-170.62 161.06,-168.54 165.64,-174.12"/>
</a>
</g>
<text text-anchor="middle" x="196.5" y="-179.5" font-family="Helvetica,sans-Serif" font-size="10.00" fill="grey"> &#45;instance</text>
</g>
</g>
</svg>
