<?xml version="1.0" encoding="UTF-8" standalone="no"?>
<!DOCTYPE svg PUBLIC "-//W3C//DTD SVG 1.1//EN"
 "http://www.w3.org/Graphics/SVG/1.1/DTD/svg11.dtd">
<!-- Generated by graphviz version 2.43.0 (0)
 -->
<!-- Title: es.alrodmue.view.AddMatchViewController.onAcceptButtonClick Pages: 1 -->
<svg width="798pt" height="556pt"
 viewBox="0.00 0.00 798.00 556.00" xmlns="http://www.w3.org/2000/svg" xmlns:xlink="http://www.w3.org/1999/xlink">
<g id="graph0" class="graph" transform="scale(1 1) rotate(0) translate(4 552)">
<title>es.alrodmue.view.AddMatchViewController.onAcceptButtonClick</title>
<!-- Node1 -->
<g id="Node000001" class="node">
<title>Node1</title>
<g id="a_Node000001"><a xlink:title=" ">
<polygon fill="#999999" stroke="#666666" points="192,-318 0,-318 0,-288 192,-288 192,-318"/>
<text text-anchor="start" x="8" y="-306" font-family="Helvetica,sans-Serif" font-size="10.00">es.alrodmue.view.AddMatch</text>
<text text-anchor="middle" x="96" y="-295" font-family="Helvetica,sans-Serif" font-size="10.00">ViewController.onAcceptButtonClick</text>
</a>
</g>
</g>
<!-- Node2 -->
<g id="Node000002" class="node">
<title>Node2</title>
<g id="a_Node000002"><a xlink:href="classes_1_1alrodmue_1_1controller_1_1MatchController.xhtml#a12a5177304a811e40b1066255ca12a22" target="_top" xlink:title=" ">
<polygon fill="white" stroke="#666666" points="387,-445 228,-445 228,-415 387,-415 387,-445"/>
<text text-anchor="start" x="236" y="-433" font-family="Helvetica,sans-Serif" font-size="10.00">es.alrodmue.controller.Match</text>
<text text-anchor="middle" x="307.5" y="-422" font-family="Helvetica,sans-Serif" font-size="10.00">Controller.getInstance</text>
</a>
</g>
</g>
<!-- Node1&#45;&gt;Node2 -->
<g id="edge1_Node000001_Node000002" class="edge">
<title>Node1&#45;&gt;Node2</title>
<g id="a_edge1_Node000001_Node000002"><a xlink:title=" ">
<path fill="none" stroke="#63b8ff" d="M121.86,-318.07C159.42,-340.84 230.73,-384.07 272.89,-409.63"/>
<polygon fill="#63b8ff" stroke="#63b8ff" points="271.31,-412.76 281.68,-414.95 274.94,-406.78 271.31,-412.76"/>
</a>
</g>
</g>
<!-- Node4 -->
<g id="Node000004" class="node">
<title>Node4</title>
<g id="a_Node000004"><a xlink:href="classes_1_1alrodmue_1_1controller_1_1MatchController.xhtml#a42b9493f74fbd7a9a545daceae923762" target="_top" xlink:title=" ">
<polygon fill="white" stroke="#666666" points="387,-294 228,-294 228,-264 387,-264 387,-294"/>
<text text-anchor="start" x="236" y="-282" font-family="Helvetica,sans-Serif" font-size="10.00">es.alrodmue.controller.Match</text>
<text text-anchor="middle" x="307.5" y="-271" font-family="Helvetica,sans-Serif" font-size="10.00">Controller.playMatch</text>
</a>
</g>
</g>
<!-- Node1&#45;&gt;Node4 -->
<g id="edge3_Node000001_Node000004" class="edge">
<title>Node1&#45;&gt;Node4</title>
<g id="a_edge3_Node000001_Node000004"><a xlink:title=" ">
<path fill="none" stroke="#63b8ff" d="M192.25,-292.09C200.7,-291.12 209.24,-290.14 217.63,-289.18"/>
<polygon fill="#63b8ff" stroke="#63b8ff" points="218.26,-292.63 227.79,-288.02 217.46,-285.68 218.26,-292.63"/>
</a>
</g>
</g>
<!-- Node3 -->
<g id="Node000003" class="node">
<title>Node3</title>
<g id="a_Node000003"><a xlink:href="classes_1_1alrodmue_1_1controller_1_1MatchController.xhtml#a2f1ee9d732dc42e8c47bc94289827650" target="_top" xlink:title=" ">
<polygon fill="white" stroke="#666666" points="583,-548 424,-548 424,-518 583,-518 583,-548"/>
<text text-anchor="start" x="432" y="-536" font-family="Helvetica,sans-Serif" font-size="10.00">es.alrodmue.controller.Match</text>
<text text-anchor="middle" x="503.5" y="-525" font-family="Helvetica,sans-Serif" font-size="10.00">Controller.MatchController</text>
</a>
</g>
</g>
<!-- Node2&#45;&gt;Node3 -->
<g id="edge2_Node000002_Node000003" class="edge">
<title>Node2&#45;&gt;Node3</title>
<g id="a_edge2_Node000002_Node000003"><a xlink:title=" ">
<path fill="none" stroke="#63b8ff" d="M326.44,-445.04C348.1,-462.54 386.22,-491.3 423,-509 426.98,-510.92 431.15,-512.72 435.4,-514.4"/>
<polygon fill="#63b8ff" stroke="#63b8ff" points="434.21,-517.69 444.8,-517.91 436.65,-511.14 434.21,-517.69"/>
</a>
</g>
</g>
<!-- Node5 -->
<g id="Node000005" class="node">
<title>Node5</title>
<g id="a_Node000005"><a xlink:href="classes_1_1alrodmue_1_1model_1_1Team.xhtml#ac882a9cbf64c23e15bf1fd319c6e5e40" target="_top" xlink:title=" ">
<polygon fill="white" stroke="#666666" points="584,-500 423,-500 423,-470 584,-470 584,-500"/>
<text text-anchor="start" x="431" y="-488" font-family="Helvetica,sans-Serif" font-size="10.00">es.alrodmue.model.Team.add</text>
<text text-anchor="middle" x="503.5" y="-477" font-family="Helvetica,sans-Serif" font-size="10.00">Match</text>
</a>
</g>
</g>
<!-- Node4&#45;&gt;Node5 -->
<g id="edge4_Node000004_Node000005" class="edge">
<title>Node4&#45;&gt;Node5</title>
<g id="a_edge4_Node000004_Node000005"><a xlink:title=" ">
<path fill="none" stroke="#63b8ff" d="M317.88,-294.23C344.55,-337.46 419.1,-458.03 423,-461 424.82,-462.38 426.71,-463.69 428.67,-464.92"/>
<polygon fill="#63b8ff" stroke="#63b8ff" points="427.17,-468.09 437.61,-469.85 430.54,-461.96 427.17,-468.09"/>
</a>
</g>
</g>
<!-- Node6 -->
<g id="Node000006" class="node">
<title>Node6</title>
<g id="a_Node000006"><a xlink:href="classes_1_1alrodmue_1_1App.xhtml#a2d1fc08b3be857d074130a197f2bc7ab" target="_top" xlink:title=" ">
<polygon fill="white" stroke="#666666" points="582.5,-451.5 424.5,-451.5 424.5,-432.5 582.5,-432.5 582.5,-451.5"/>
<text text-anchor="middle" x="503.5" y="-439.5" font-family="Helvetica,sans-Serif" font-size="10.00">es.alrodmue.App.closeModal</text>
</a>
</g>
</g>
<!-- Node4&#45;&gt;Node6 -->
<g id="edge5_Node000004_Node000006" class="edge">
<title>Node4&#45;&gt;Node6</title>
<g id="a_edge5_Node000004_Node000006"><a xlink:title=" ">
<path fill="none" stroke="#63b8ff" d="M316.2,-294.39C331.93,-324.19 370.73,-389.73 423,-423 426.34,-425.13 429.89,-427.01 433.58,-428.69"/>
<polygon fill="#63b8ff" stroke="#63b8ff" points="432.37,-431.98 442.95,-432.44 434.97,-425.48 432.37,-431.98"/>
</a>
</g>
</g>
<!-- Node7 -->
<g id="Node000007" class="node">
<title>Node7</title>
<g id="a_Node000007"><a xlink:href="classes_1_1alrodmue_1_1model_1_1factories_1_1MatchFactory.xhtml#a36775be085051f997996c57dd4f68dbc" target="_top" xlink:title=" ">
<polygon fill="white" stroke="#666666" points="583.5,-414 423.5,-414 423.5,-384 583.5,-384 583.5,-414"/>
<text text-anchor="start" x="431.5" y="-402" font-family="Helvetica,sans-Serif" font-size="10.00">es.alrodmue.model.factories.</text>
<text text-anchor="middle" x="503.5" y="-391" font-family="Helvetica,sans-Serif" font-size="10.00">MatchFactory.create</text>
</a>
</g>
</g>
<!-- Node4&#45;&gt;Node7 -->
<g id="edge6_Node000004_Node000007" class="edge">
<title>Node4&#45;&gt;Node7</title>
<g id="a_edge6_Node000004_Node000007"><a xlink:title=" ">
<path fill="none" stroke="#63b8ff" d="M322.6,-294.19C342.89,-315.21 382.38,-353.05 423,-375 426.3,-376.78 429.75,-378.45 433.29,-380.01"/>
<polygon fill="#63b8ff" stroke="#63b8ff" points="432.23,-383.36 442.81,-383.89 434.87,-376.88 432.23,-383.36"/>
</a>
</g>
</g>
<!-- Node8 -->
<g id="Node000008" class="node">
<title>Node8</title>
<g id="a_Node000008"><a xlink:href="classes_1_1alrodmue_1_1model_1_1matches_1_1Match.xhtml#a1b8769f3b150aed8261c2deb95fa8be7" target="_top" xlink:title=" ">
<polygon fill="white" stroke="#666666" points="583,-366 424,-366 424,-336 583,-336 583,-366"/>
<text text-anchor="start" x="432" y="-354" font-family="Helvetica,sans-Serif" font-size="10.00">es.alrodmue.model.matches.</text>
<text text-anchor="middle" x="503.5" y="-343" font-family="Helvetica,sans-Serif" font-size="10.00">Match.getDetails</text>
</a>
</g>
</g>
<!-- Node4&#45;&gt;Node8 -->
<g id="edge7_Node000004_Node000008" class="edge">
<title>Node4&#45;&gt;Node8</title>
<g id="a_edge7_Node000004_Node000008"><a xlink:title=" ">
<path fill="none" stroke="#63b8ff" d="M342.21,-294.22C364.82,-304.16 395.41,-317.08 423,-327 428.48,-328.97 434.2,-330.91 439.96,-332.79"/>
<polygon fill="#63b8ff" stroke="#63b8ff" points="439.06,-336.18 449.65,-335.88 441.19,-329.51 439.06,-336.18"/>
</a>
</g>
</g>
<!-- Node11 -->
<g id="Node000011" class="node">
<title>Node11</title>
<g id="a_Node000011"><a xlink:href="classes_1_1alrodmue_1_1model_1_1matches_1_1Match.xhtml#a09105037c1736ab2bbaf0d3bef410b92" target="_top" xlink:title=" ">
<polygon fill="white" stroke="#666666" points="583,-318 424,-318 424,-288 583,-288 583,-318"/>
<text text-anchor="start" x="432" y="-306" font-family="Helvetica,sans-Serif" font-size="10.00">es.alrodmue.model.matches.</text>
<text text-anchor="middle" x="503.5" y="-295" font-family="Helvetica,sans-Serif" font-size="10.00">Match.getFouls</text>
</a>
</g>
</g>
<!-- Node4&#45;&gt;Node11 -->
<g id="edge10_Node000004_Node000011" class="edge">
<title>Node4&#45;&gt;Node11</title>
<g id="a_edge10_Node000004_Node000011"><a xlink:title=" ">
<path fill="none" stroke="#63b8ff" d="M387.13,-288.73C395.9,-289.81 404.89,-290.92 413.78,-292.02"/>
<polygon fill="#63b8ff" stroke="#63b8ff" points="413.41,-295.5 423.76,-293.26 414.27,-288.56 413.41,-295.5"/>
</a>
</g>
</g>
<!-- Node12 -->
<g id="Node000012" class="node">
<title>Node12</title>
<g id="a_Node000012"><a xlink:href="classes_1_1alrodmue_1_1model_1_1factories_1_1MatchFactory.xhtml#a25e27ed717f6b139a6d960f9dd57c9bd" target="_top" xlink:title=" ">
<polygon fill="white" stroke="#666666" points="583.5,-270 423.5,-270 423.5,-240 583.5,-240 583.5,-270"/>
<text text-anchor="start" x="431.5" y="-258" font-family="Helvetica,sans-Serif" font-size="10.00">es.alrodmue.model.factories.</text>
<text text-anchor="middle" x="503.5" y="-247" font-family="Helvetica,sans-Serif" font-size="10.00">MatchFactory.getInstance</text>
</a>
</g>
</g>
<!-- Node4&#45;&gt;Node12 -->
<g id="edge11_Node000004_Node000012" class="edge">
<title>Node4&#45;&gt;Node12</title>
<g id="a_edge11_Node000004_Node000012"><a xlink:title=" ">
<path fill="none" stroke="#63b8ff" d="M387.13,-269.27C395.73,-268.21 404.54,-267.12 413.26,-266.04"/>
<polygon fill="#63b8ff" stroke="#63b8ff" points="413.95,-269.48 423.45,-264.78 413.09,-262.53 413.95,-269.48"/>
</a>
</g>
</g>
<!-- Node14 -->
<g id="Node000014" class="node">
<title>Node14</title>
<g id="a_Node000014"><a xlink:href="classes_1_1alrodmue_1_1model_1_1Team.xhtml#a7301e45c0f5b85a4d03cd04e758cd97d" target="_top" xlink:title=" ">
<polygon fill="white" stroke="#666666" points="583,-222 424,-222 424,-192 583,-192 583,-222"/>
<text text-anchor="start" x="432" y="-210" font-family="Helvetica,sans-Serif" font-size="10.00">es.alrodmue.model.Team.get</text>
<text text-anchor="middle" x="503.5" y="-199" font-family="Helvetica,sans-Serif" font-size="10.00">Instance</text>
</a>
</g>
</g>
<!-- Node4&#45;&gt;Node14 -->
<g id="edge13_Node000004_Node000014" class="edge">
<title>Node4&#45;&gt;Node14</title>
<g id="a_edge13_Node000004_Node000014"><a xlink:title=" ">
<path fill="none" stroke="#63b8ff" d="M342.21,-263.78C364.82,-253.84 395.41,-240.92 423,-231 428.48,-229.03 434.2,-227.09 439.96,-225.21"/>
<polygon fill="#63b8ff" stroke="#63b8ff" points="441.19,-228.49 449.65,-222.12 439.06,-221.82 441.19,-228.49"/>
</a>
</g>
</g>
<!-- Node16 -->
<g id="Node000016" class="node">
<title>Node16</title>
<g id="a_Node000016"><a xlink:href="classes_1_1alrodmue_1_1model_1_1Team.xhtml#aa0ae6df93bd95ace80e7f93d7607e2c9" target="_top" xlink:title=" ">
<polygon fill="white" stroke="#666666" points="583,-174 424,-174 424,-144 583,-144 583,-174"/>
<text text-anchor="start" x="432" y="-162" font-family="Helvetica,sans-Serif" font-size="10.00">es.alrodmue.model.Team.get</text>
<text text-anchor="middle" x="503.5" y="-151" font-family="Helvetica,sans-Serif" font-size="10.00">PlayerList</text>
</a>
</g>
</g>
<!-- Node4&#45;&gt;Node16 -->
<g id="edge15_Node000004_Node000016" class="edge">
<title>Node4&#45;&gt;Node16</title>
<g id="a_edge15_Node000004_Node000016"><a xlink:title=" ">
<path fill="none" stroke="#63b8ff" d="M322.6,-263.81C342.89,-242.79 382.38,-204.95 423,-183 426.3,-181.22 429.75,-179.55 433.29,-177.99"/>
<polygon fill="#63b8ff" stroke="#63b8ff" points="434.87,-181.12 442.81,-174.11 432.23,-174.64 434.87,-181.12"/>
</a>
</g>
</g>
<!-- Node17 -->
<g id="Node000017" class="node">
<title>Node17</title>
<g id="a_Node000017"><a xlink:href="classes_1_1alrodmue_1_1model_1_1matches_1_1Match.xhtml#a8f0eec5935e30674be9d41c611b92137" target="_top" xlink:title=" ">
<polygon fill="white" stroke="#666666" points="583,-126 424,-126 424,-96 583,-96 583,-126"/>
<text text-anchor="start" x="432" y="-114" font-family="Helvetica,sans-Serif" font-size="10.00">es.alrodmue.model.matches.</text>
<text text-anchor="middle" x="503.5" y="-103" font-family="Helvetica,sans-Serif" font-size="10.00">Match.getPlayerPoints</text>
</a>
</g>
</g>
<!-- Node4&#45;&gt;Node17 -->
<g id="edge16_Node000004_Node000017" class="edge">
<title>Node4&#45;&gt;Node17</title>
<g id="a_edge16_Node000004_Node000017"><a xlink:title=" ">
<path fill="none" stroke="#63b8ff" d="M316.37,-263.87C332.41,-234.55 371.72,-169.79 423,-135 425.27,-133.46 427.64,-132.02 430.09,-130.66"/>
<polygon fill="#63b8ff" stroke="#63b8ff" points="431.81,-133.72 439.22,-126.15 428.71,-127.44 431.81,-133.72"/>
</a>
</g>
</g>
<!-- Node18 -->
<g id="Node000018" class="node">
<title>Node18</title>
<g id="a_Node000018"><a xlink:href="classes_1_1alrodmue_1_1controller_1_1MatchController.xhtml#acabbacf0252370ef74ff8698035c2135" target="_top" xlink:title=" ">
<polygon fill="white" stroke="#666666" points="583,-78 424,-78 424,-48 583,-48 583,-78"/>
<text text-anchor="start" x="432" y="-66" font-family="Helvetica,sans-Serif" font-size="10.00">es.alrodmue.controller.Match</text>
<text text-anchor="middle" x="503.5" y="-55" font-family="Helvetica,sans-Serif" font-size="10.00">Controller.showError</text>
</a>
</g>
</g>
<!-- Node4&#45;&gt;Node18 -->
<g id="edge17_Node000004_Node000018" class="edge">
<title>Node4&#45;&gt;Node18</title>
<g id="a_edge17_Node000004_Node000018"><a xlink:title=" ">
<path fill="none" stroke="#63b8ff" d="M313.21,-263.96C325.29,-227.81 360.91,-135.5 423,-87 424.8,-85.59 426.68,-84.27 428.63,-83.02"/>
<polygon fill="#63b8ff" stroke="#63b8ff" points="430.51,-85.98 437.52,-78.04 427.09,-79.87 430.51,-85.98"/>
</a>
</g>
</g>
<!-- Node19 -->
<g id="Node000019" class="node">
<title>Node19</title>
<g id="a_Node000019"><a xlink:href="classes_1_1alrodmue_1_1controller_1_1MatchController.xhtml#a8445fd83e7a57496fe9ef21778263582" target="_top" xlink:title=" ">
<polygon fill="white" stroke="#666666" points="583,-30 424,-30 424,0 583,0 583,-30"/>
<text text-anchor="start" x="432" y="-18" font-family="Helvetica,sans-Serif" font-size="10.00">es.alrodmue.controller.Match</text>
<text text-anchor="middle" x="503.5" y="-7" font-family="Helvetica,sans-Serif" font-size="10.00">Controller.showInfo</text>
</a>
</g>
</g>
<!-- Node4&#45;&gt;Node19 -->
<g id="edge18_Node000004_Node000019" class="edge">
<title>Node4&#45;&gt;Node19</title>
<g id="a_edge18_Node000004_Node000019"><a xlink:title=" ">
<path fill="none" stroke="#63b8ff" d="M311.32,-263.75C319.95,-221.47 349.97,-101.7 423,-39 424.52,-37.7 426.1,-36.46 427.75,-35.3"/>
<polygon fill="#63b8ff" stroke="#63b8ff" points="429.69,-38.22 436.39,-30.01 426.03,-32.25 429.69,-38.22"/>
</a>
</g>
</g>
<!-- Node9 -->
<g id="Node000009" class="node">
<title>Node9</title>
<g id="a_Node000009"><a xlink:href="classes_1_1alrodmue_1_1model_1_1matches_1_1Match.xhtml#a18447422867e3fb9ac09a71c706db81f" target="_top" xlink:title=" ">
<polygon fill="white" stroke="#666666" points="784.5,-390 625.5,-390 625.5,-360 784.5,-360 784.5,-390"/>
<text text-anchor="start" x="633.5" y="-378" font-family="Helvetica,sans-Serif" font-size="10.00">es.alrodmue.model.matches.</text>
<text text-anchor="middle" x="705" y="-367" font-family="Helvetica,sans-Serif" font-size="10.00">Match.getType</text>
</a>
</g>
</g>
<!-- Node8&#45;&gt;Node9 -->
<g id="edge8_Node000008_Node000009" class="edge">
<title>Node8&#45;&gt;Node9</title>
<g id="a_edge8_Node000008_Node000009"><a xlink:title=" ">
<path fill="none" stroke="#63b8ff" d="M583.06,-360.45C593.56,-361.71 604.38,-363.02 615.03,-364.3"/>
<polygon fill="#63b8ff" stroke="#63b8ff" points="614.84,-367.8 625.18,-365.52 615.67,-360.85 614.84,-367.8"/>
</a>
</g>
</g>
<!-- Node10 -->
<g id="Node000010" class="node">
<title>Node10</title>
<g id="a_Node000010"><a xlink:href="classes_1_1alrodmue_1_1model_1_1matches_1_1Match.xhtml#af6551913e09c3ce7c8c7d705a75ffdb0" target="_top" xlink:title=" ">
<polygon fill="white" stroke="#666666" points="784.5,-342 625.5,-342 625.5,-312 784.5,-312 784.5,-342"/>
<text text-anchor="start" x="633.5" y="-330" font-family="Helvetica,sans-Serif" font-size="10.00">es.alrodmue.model.matches.</text>
<text text-anchor="middle" x="705" y="-319" font-family="Helvetica,sans-Serif" font-size="10.00">Match.getWinner</text>
</a>
</g>
</g>
<!-- Node8&#45;&gt;Node10 -->
<g id="edge9_Node000008_Node000010" class="edge">
<title>Node8&#45;&gt;Node10</title>
<g id="a_edge9_Node000008_Node000010"><a xlink:title=" ">
<path fill="none" stroke="#63b8ff" d="M583.06,-341.55C593.56,-340.29 604.38,-338.98 615.03,-337.7"/>
<polygon fill="#63b8ff" stroke="#63b8ff" points="615.67,-341.15 625.18,-336.48 614.84,-334.2 615.67,-341.15"/>
</a>
</g>
</g>
<!-- Node13 -->
<g id="Node000013" class="node">
<title>Node13</title>
<g id="a_Node000013"><a xlink:href="classes_1_1alrodmue_1_1model_1_1factories_1_1MatchFactory.xhtml#a790e3735b593b72239d3d7bf54bb28c0" target="_top" xlink:title=" ">
<polygon fill="white" stroke="#666666" points="785,-270 625,-270 625,-240 785,-240 785,-270"/>
<text text-anchor="start" x="633" y="-258" font-family="Helvetica,sans-Serif" font-size="10.00">es.alrodmue.model.factories.</text>
<text text-anchor="middle" x="705" y="-247" font-family="Helvetica,sans-Serif" font-size="10.00">MatchFactory.MatchFactory</text>
</a>
</g>
</g>
<!-- Node12&#45;&gt;Node13 -->
<g id="edge12_Node000012_Node000013" class="edge">
<title>Node12&#45;&gt;Node13</title>
<g id="a_edge12_Node000012_Node000013"><a xlink:title=" ">
<path fill="none" stroke="#63b8ff" d="M583.63,-255C593.83,-255 604.33,-255 614.68,-255"/>
<polygon fill="#63b8ff" stroke="#63b8ff" points="614.96,-258.5 624.96,-255 614.96,-251.5 614.96,-258.5"/>
</a>
</g>
</g>
<!-- Node15 -->
<g id="Node000015" class="node">
<title>Node15</title>
<g id="a_Node000015"><a xlink:href="classes_1_1alrodmue_1_1model_1_1Team.xhtml#ae04883a5648158af96bd5f695f924359" target="_top" xlink:title=" ">
<polygon fill="white" stroke="#666666" points="790,-216.5 620,-216.5 620,-197.5 790,-197.5 790,-216.5"/>
<text text-anchor="middle" x="705" y="-204.5" font-family="Helvetica,sans-Serif" font-size="10.00">es.alrodmue.model.Team.Team</text>
</a>
</g>
</g>
<!-- Node14&#45;&gt;Node15 -->
<g id="edge14_Node000014_Node000015" class="edge">
<title>Node14&#45;&gt;Node15</title>
<g id="a_edge14_Node000014_Node000015"><a xlink:title=" ">
<path fill="none" stroke="#63b8ff" d="M583.06,-207C591.86,-207 600.88,-207 609.84,-207"/>
<polygon fill="#63b8ff" stroke="#63b8ff" points="609.92,-210.5 619.92,-207 609.92,-203.5 609.92,-210.5"/>
</a>
</g>
</g>
</g>
</svg>
