<?xml version="1.0" encoding="UTF-8" standalone="no"?>
<!DOCTYPE svg PUBLIC "-//W3C//DTD SVG 1.1//EN"
 "http://www.w3.org/Graphics/SVG/1.1/DTD/svg11.dtd">
<!-- Generated by graphviz version 2.43.0 (0)
 -->
<!-- Title: es.alrodmue.model.exceptions.MatchInvalidPlayerAmountException Pages: 1 -->
<svg width="199pt" height="260pt"
 viewBox="0.00 0.00 199.00 260.00" xmlns="http://www.w3.org/2000/svg" xmlns:xlink="http://www.w3.org/1999/xlink">
<g id="graph0" class="graph" transform="scale(1 1) rotate(0) translate(4 256)">
<title>es.alrodmue.model.exceptions.MatchInvalidPlayerAmountException</title>
<!-- Node1 -->
<g id="Node000001" class="node">
<title>Node1</title>
<g id="a_Node000001"><a xlink:title=" ">
<polygon fill="#999999" stroke="transparent" points="191,-71 0,-71 0,0 191,0 191,-71"/>
<text text-anchor="start" x="5.5" y="-58.5" font-family="Helvetica,sans-Serif" font-size="10.00">es.alrodmue.model.exceptions.</text>
<text text-anchor="start" x="5.5" y="-47.5" font-family="Helvetica,sans-Serif" font-size="10.00">MatchInvalidPlayerAmountException</text>
<text text-anchor="start" x="94" y="-32.5" font-family="Helvetica,sans-Serif" font-size="10.00"> </text>
<text text-anchor="start" x="13.5" y="-17.5" font-family="Helvetica,sans-Serif" font-size="10.00">+</text>
<text text-anchor="start" x="35.5" y="-17.5" font-family="Helvetica,sans-Serif" font-size="10.00">MatchInvalidPlayerAmount</text>
<text text-anchor="start" x="35.5" y="-6.5" font-family="Helvetica,sans-Serif" font-size="10.00">Exception()</text>
<polygon fill="#666666" stroke="#666666" points="0.5,-42.5 0.5,-42.5 191.5,-42.5 191.5,-42.5 0.5,-42.5"/>
<polygon fill="#666666" stroke="#666666" points="0.5,-27.5 0.5,-27.5 191.5,-27.5 191.5,-27.5 0.5,-27.5"/>
<polygon fill="none" stroke="#666666" points="0,0 0,-71 191,-71 191,0 0,0"/>
</a>
</g>
</g>
<!-- Node2 -->
<g id="Node000002" class="node">
<title>Node2</title>
<g id="a_Node000002"><a xlink:href="classes_1_1alrodmue_1_1model_1_1exceptions_1_1MatchInvalidDataException.xhtml" target="_top" xlink:title=" ">
<polygon fill="white" stroke="transparent" points="177.5,-167 13.5,-167 13.5,-107 177.5,-107 177.5,-167"/>
<text text-anchor="start" x="18.5" y="-155" font-family="Helvetica,sans-Serif" font-size="10.00">es.alrodmue.model.exceptions.</text>
<text text-anchor="start" x="28" y="-144" font-family="Helvetica,sans-Serif" font-size="10.00">MatchInvalidDataException</text>
<text text-anchor="start" x="93.5" y="-129" font-family="Helvetica,sans-Serif" font-size="10.00"> </text>
<text text-anchor="start" x="17.5" y="-114" font-family="Helvetica,sans-Serif" font-size="10.00">+</text>
<text text-anchor="start" x="30.5" y="-114" font-family="Helvetica,sans-Serif" font-size="10.00">MatchInvalidDataException()</text>
<polygon fill="#666666" stroke="#666666" points="13.5,-139 13.5,-139 177.5,-139 177.5,-139 13.5,-139"/>
<polygon fill="#666666" stroke="#666666" points="13.5,-124 13.5,-124 177.5,-124 177.5,-124 13.5,-124"/>
<polygon fill="none" stroke="#666666" points="13.5,-107 13.5,-167 177.5,-167 177.5,-107 13.5,-107"/>
</a>
</g>
</g>
<!-- Node2&#45;&gt;Node1 -->
<g id="edge1_Node000001_Node000002" class="edge">
<title>Node2&#45;&gt;Node1</title>
<g id="a_edge1_Node000001_Node000002"><a xlink:title=" ">
<path fill="none" stroke="#63b8ff" d="M95.5,-96.84C95.5,-88.32 95.5,-79.36 95.5,-71.04"/>
<polygon fill="none" stroke="#63b8ff" points="92,-96.95 95.5,-106.95 99,-96.95 92,-96.95"/>
</a>
</g>
</g>
<!-- Node3 -->
<g id="Node000003" class="node">
<title>Node3</title>
<g id="a_Node000003"><a xlink:href="classException.xhtml" target="_top" xlink:title=" ">
<polygon fill="white" stroke="transparent" points="125,-252 66,-252 66,-203 125,-203 125,-252"/>
<text text-anchor="start" x="71.5" y="-239.5" font-family="Helvetica,sans-Serif" font-size="10.00">Exception</text>
<text text-anchor="start" x="94" y="-224.5" font-family="Helvetica,sans-Serif" font-size="10.00"> </text>
<text text-anchor="start" x="94" y="-209.5" font-family="Helvetica,sans-Serif" font-size="10.00"> </text>
<polygon fill="#666666" stroke="#666666" points="66.5,-234.5 66.5,-234.5 125.5,-234.5 125.5,-234.5 66.5,-234.5"/>
<polygon fill="#666666" stroke="#666666" points="66.5,-219.5 66.5,-219.5 125.5,-219.5 125.5,-219.5 66.5,-219.5"/>
<polygon fill="none" stroke="#666666" points="66,-203 66,-252 125,-252 125,-203 66,-203"/>
</a>
</g>
</g>
<!-- Node3&#45;&gt;Node2 -->
<g id="edge2_Node000002_Node000003" class="edge">
<title>Node3&#45;&gt;Node2</title>
<g id="a_edge2_Node000002_Node000003"><a xlink:title=" ">
<path fill="none" stroke="#63b8ff" d="M95.5,-192.55C95.5,-184.18 95.5,-175.28 95.5,-167.16"/>
<polygon fill="none" stroke="#63b8ff" points="92,-192.78 95.5,-202.78 99,-192.78 92,-192.78"/>
</a>
</g>
</g>
</g>
</svg>
