<?xml version="1.0" encoding="UTF-8" standalone="no"?>
<!DOCTYPE svg PUBLIC "-//W3C//DTD SVG 1.1//EN"
 "http://www.w3.org/Graphics/SVG/1.1/DTD/svg11.dtd">
<!-- Generated by graphviz version 2.43.0 (0)
 -->
<!-- Title: es.alrodmue.App.loadFXML Pages: 1 -->
<svg width="574pt" height="101pt"
 viewBox="0.00 0.00 574.00 101.00" xmlns="http://www.w3.org/2000/svg" xmlns:xlink="http://www.w3.org/1999/xlink">
<g id="graph0" class="graph" transform="scale(1 1) rotate(0) translate(4 97)">
<title>es.alrodmue.App.loadFXML</title>
<!-- Node1 -->
<g id="Node000001" class="node">
<title>Node1</title>
<g id="a_Node000001"><a xlink:title=" ">
<polygon fill="#999999" stroke="#666666" points="566,-56 416,-56 416,-37 566,-37 566,-56"/>
<text text-anchor="middle" x="491" y="-44" font-family="Helvetica,sans-Serif" font-size="10.00">es.alrodmue.App.loadFXML</text>
</a>
</g>
</g>
<!-- Node2 -->
<g id="Node000002" class="node">
<title>Node2</title>
<g id="a_Node000002"><a xlink:href="classes_1_1alrodmue_1_1App.xhtml#ab3c698531301e7bae1411e26b36618ec" target="_top" xlink:title=" ">
<polygon fill="white" stroke="#666666" points="371,-93 231,-93 231,-74 371,-74 371,-93"/>
<text text-anchor="middle" x="301" y="-81" font-family="Helvetica,sans-Serif" font-size="10.00">es.alrodmue.App.setRoot</text>
</a>
</g>
</g>
<!-- Node1&#45;&gt;Node2 -->
<g id="edge1_Node000001_Node000002" class="edge">
<title>Node1&#45;&gt;Node2</title>
<g id="a_edge1_Node000001_Node000002"><a xlink:title=" ">
<path fill="none" stroke="#63b8ff" d="M431.49,-58.02C405.5,-63.13 375.28,-69.08 350.58,-73.94"/>
<polygon fill="#63b8ff" stroke="#63b8ff" points="432.45,-61.39 441.59,-56.03 431.1,-54.53 432.45,-61.39"/>
</a>
</g>
</g>
<!-- Node3 -->
<g id="Node000003" class="node">
<title>Node3</title>
<g id="a_Node000003"><a xlink:href="classes_1_1alrodmue_1_1App.xhtml#a06da8f0bca62bc607ffebd411d442806" target="_top" xlink:title=" ">
<polygon fill="white" stroke="#666666" points="380,-56 222,-56 222,-37 380,-37 380,-56"/>
<text text-anchor="middle" x="301" y="-44" font-family="Helvetica,sans-Serif" font-size="10.00">es.alrodmue.App.showModal</text>
</a>
</g>
</g>
<!-- Node1&#45;&gt;Node3 -->
<g id="edge2_Node000001_Node000003" class="edge">
<title>Node1&#45;&gt;Node3</title>
<g id="a_edge2_Node000001_Node000003"><a xlink:title=" ">
<path fill="none" stroke="#63b8ff" d="M405.72,-46.5C397.26,-46.5 388.69,-46.5 380.3,-46.5"/>
<polygon fill="#63b8ff" stroke="#63b8ff" points="405.97,-50 415.97,-46.5 405.97,-43 405.97,-50"/>
</a>
</g>
</g>
<!-- Node6 -->
<g id="Node000006" class="node">
<title>Node6</title>
<g id="a_Node000006"><a xlink:href="classes_1_1alrodmue_1_1App.xhtml#aa09b7540fd10e9e161529fd5af9c3808" target="_top" xlink:title=" ">
<polygon fill="white" stroke="#666666" points="363.5,-19 238.5,-19 238.5,0 363.5,0 363.5,-19"/>
<text text-anchor="middle" x="301" y="-7" font-family="Helvetica,sans-Serif" font-size="10.00">es.alrodmue.App.start</text>
</a>
</g>
</g>
<!-- Node1&#45;&gt;Node6 -->
<g id="edge5_Node000001_Node000006" class="edge">
<title>Node1&#45;&gt;Node6</title>
<g id="a_edge5_Node000001_Node000006"><a xlink:title=" ">
<path fill="none" stroke="#63b8ff" d="M431.49,-34.98C405.5,-29.87 375.28,-23.92 350.58,-19.06"/>
<polygon fill="#63b8ff" stroke="#63b8ff" points="431.1,-38.47 441.59,-36.97 432.45,-31.61 431.1,-38.47"/>
</a>
</g>
</g>
<!-- Node4 -->
<g id="Node000004" class="node">
<title>Node4</title>
<g id="a_Node000004"><a xlink:href="classes_1_1alrodmue_1_1view_1_1MainViewController.xhtml#ada56e3f885dd42b6061f9032d9c3c431" target="_top" xlink:title=" ">
<polygon fill="white" stroke="#666666" points="185.5,-85.5 0.5,-85.5 0.5,-55.5 185.5,-55.5 185.5,-85.5"/>
<text text-anchor="start" x="8.5" y="-73.5" font-family="Helvetica,sans-Serif" font-size="10.00">es.alrodmue.view.MainView</text>
<text text-anchor="middle" x="93" y="-62.5" font-family="Helvetica,sans-Serif" font-size="10.00">Controller.onAddPlayerButtonClick</text>
</a>
</g>
</g>
<!-- Node3&#45;&gt;Node4 -->
<g id="edge3_Node000003_Node000004" class="edge">
<title>Node3&#45;&gt;Node4</title>
<g id="a_edge3_Node000003_Node000004"><a xlink:title=" ">
<path fill="none" stroke="#63b8ff" d="M211.74,-56.78C203.09,-57.79 194.29,-58.82 185.6,-59.83"/>
<polygon fill="#63b8ff" stroke="#63b8ff" points="212.3,-60.24 221.83,-55.61 211.49,-53.29 212.3,-60.24"/>
</a>
</g>
</g>
<!-- Node5 -->
<g id="Node000005" class="node">
<title>Node5</title>
<g id="a_Node000005"><a xlink:href="classes_1_1alrodmue_1_1view_1_1MainViewController.xhtml#a6df8eda1ed864fcf137e187cfee870c8" target="_top" xlink:title=" ">
<polygon fill="white" stroke="#666666" points="186,-37.5 0,-37.5 0,-7.5 186,-7.5 186,-37.5"/>
<text text-anchor="start" x="8" y="-25.5" font-family="Helvetica,sans-Serif" font-size="10.00">es.alrodmue.view.MainView</text>
<text text-anchor="middle" x="93" y="-14.5" font-family="Helvetica,sans-Serif" font-size="10.00">Controller.onPlayMatchButtonClick</text>
</a>
</g>
</g>
<!-- Node3&#45;&gt;Node5 -->
<g id="edge4_Node000003_Node000005" class="edge">
<title>Node3&#45;&gt;Node5</title>
<g id="a_edge4_Node000003_Node000005"><a xlink:title=" ">
<path fill="none" stroke="#63b8ff" d="M211.66,-36.21C203.26,-35.23 194.73,-34.24 186.29,-33.25"/>
<polygon fill="#63b8ff" stroke="#63b8ff" points="211.49,-39.71 221.83,-37.39 212.3,-32.76 211.49,-39.71"/>
</a>
</g>
</g>
</g>
</svg>
