<?xml version="1.0" encoding="UTF-8" standalone="no"?>
<!DOCTYPE svg PUBLIC "-//W3C//DTD SVG 1.1//EN"
 "http://www.w3.org/Graphics/SVG/1.1/DTD/svg11.dtd">
<!-- Generated by graphviz version 2.43.0 (0)
 -->
<!-- Title: Exception Pages: 1 -->
<svg width="1703pt" height="260pt"
 viewBox="0.00 0.00 1703.00 260.00" xmlns="http://www.w3.org/2000/svg" xmlns:xlink="http://www.w3.org/1999/xlink">
<g id="graph0" class="graph" transform="scale(1 1) rotate(0) translate(4 256)">
<title>Exception</title>
<!-- Node1 -->
<g id="Node000001" class="node">
<title>Node1</title>
<g id="a_Node000001"><a xlink:title=" ">
<polygon fill="#999999" stroke="transparent" points="771.5,-252 712.5,-252 712.5,-203 771.5,-203 771.5,-252"/>
<text text-anchor="start" x="718" y="-239.5" font-family="Helvetica,sans-Serif" font-size="10.00">Exception</text>
<text text-anchor="start" x="740.5" y="-224.5" font-family="Helvetica,sans-Serif" font-size="10.00"> </text>
<text text-anchor="start" x="740.5" y="-209.5" font-family="Helvetica,sans-Serif" font-size="10.00"> </text>
<polygon fill="#666666" stroke="#666666" points="713,-234.5 713,-234.5 772,-234.5 772,-234.5 713,-234.5"/>
<polygon fill="#666666" stroke="#666666" points="713,-219.5 713,-219.5 772,-219.5 772,-219.5 713,-219.5"/>
<polygon fill="none" stroke="#666666" points="712.5,-203 712.5,-252 771.5,-252 771.5,-203 712.5,-203"/>
</a>
</g>
</g>
<!-- Node2 -->
<g id="Node000002" class="node">
<title>Node2</title>
<g id="a_Node000002"><a xlink:href="classes_1_1alrodmue_1_1model_1_1exceptions_1_1FoulInvalidDataException.xhtml" target="_top" xlink:title=" ">
<polygon fill="white" stroke="transparent" points="346,-167 182,-167 182,-107 346,-107 346,-167"/>
<text text-anchor="start" x="187" y="-155" font-family="Helvetica,sans-Serif" font-size="10.00">es.alrodmue.model.exceptions.</text>
<text text-anchor="start" x="201.5" y="-144" font-family="Helvetica,sans-Serif" font-size="10.00">FoulInvalidDataException</text>
<text text-anchor="start" x="262" y="-129" font-family="Helvetica,sans-Serif" font-size="10.00"> </text>
<text text-anchor="start" x="188.5" y="-114" font-family="Helvetica,sans-Serif" font-size="10.00">+</text>
<text text-anchor="start" x="204" y="-114" font-family="Helvetica,sans-Serif" font-size="10.00">FoulInvalidDataException()</text>
<polygon fill="#bfbfbf" stroke="#bfbfbf" points="182,-139 182,-139 346,-139 346,-139 182,-139"/>
<polygon fill="#bfbfbf" stroke="#bfbfbf" points="182,-124 182,-124 346,-124 346,-124 182,-124"/>
<polygon fill="none" stroke="#bfbfbf" points="182,-107 182,-167 346,-167 346,-107 182,-107"/>
</a>
</g>
</g>
<!-- Node1&#45;&gt;Node2 -->
<g id="edge1_Node000001_Node000002" class="edge">
<title>Node1&#45;&gt;Node2</title>
<g id="a_edge1_Node000001_Node000002"><a xlink:title=" ">
<path fill="none" stroke="#63b8ff" d="M702.58,-219.2C624.77,-204.8 450,-172.44 346.1,-153.2"/>
<polygon fill="none" stroke="#63b8ff" points="701.99,-222.65 712.46,-221.03 703.26,-215.77 701.99,-222.65"/>
</a>
</g>
</g>
<!-- Node5 -->
<g id="Node000005" class="node">
<title>Node5</title>
<g id="a_Node000005"><a xlink:href="classes_1_1alrodmue_1_1model_1_1exceptions_1_1MatchInvalidDataException.xhtml" target="_top" xlink:title=" ">
<polygon fill="white" stroke="transparent" points="724,-167 560,-167 560,-107 724,-107 724,-167"/>
<text text-anchor="start" x="565" y="-155" font-family="Helvetica,sans-Serif" font-size="10.00">es.alrodmue.model.exceptions.</text>
<text text-anchor="start" x="574.5" y="-144" font-family="Helvetica,sans-Serif" font-size="10.00">MatchInvalidDataException</text>
<text text-anchor="start" x="640" y="-129" font-family="Helvetica,sans-Serif" font-size="10.00"> </text>
<text text-anchor="start" x="564" y="-114" font-family="Helvetica,sans-Serif" font-size="10.00">+</text>
<text text-anchor="start" x="577" y="-114" font-family="Helvetica,sans-Serif" font-size="10.00">MatchInvalidDataException()</text>
<polygon fill="#bfbfbf" stroke="#bfbfbf" points="560,-139 560,-139 724,-139 724,-139 560,-139"/>
<polygon fill="#bfbfbf" stroke="#bfbfbf" points="560,-124 560,-124 724,-124 724,-124 560,-124"/>
<polygon fill="none" stroke="#bfbfbf" points="560,-107 560,-167 724,-167 724,-107 560,-107"/>
</a>
</g>
</g>
<!-- Node1&#45;&gt;Node5 -->
<g id="edge4_Node000001_Node000005" class="edge">
<title>Node1&#45;&gt;Node5</title>
<g id="a_edge4_Node000001_Node000005"><a xlink:title=" ">
<path fill="none" stroke="#63b8ff" d="M707.7,-196.14C697.1,-186.76 685.45,-176.45 674.95,-167.16"/>
<polygon fill="none" stroke="#63b8ff" points="705.39,-198.78 715.2,-202.78 710.03,-193.54 705.39,-198.78"/>
</a>
</g>
</g>
<!-- Node8 -->
<g id="Node000008" class="node">
<title>Node8</title>
<g id="a_Node000008"><a xlink:href="classes_1_1alrodmue_1_1model_1_1exceptions_1_1PlayerInvalidDataException.xhtml" target="_top" xlink:title=" ">
<polygon fill="white" stroke="transparent" points="1019,-167 855,-167 855,-107 1019,-107 1019,-167"/>
<text text-anchor="start" x="860" y="-155" font-family="Helvetica,sans-Serif" font-size="10.00">es.alrodmue.model.exceptions.</text>
<text text-anchor="start" x="869" y="-144" font-family="Helvetica,sans-Serif" font-size="10.00">PlayerInvalidDataException</text>
<text text-anchor="start" x="935" y="-129" font-family="Helvetica,sans-Serif" font-size="10.00"> </text>
<text text-anchor="start" x="859" y="-114" font-family="Helvetica,sans-Serif" font-size="10.00">+</text>
<text text-anchor="start" x="872" y="-114" font-family="Helvetica,sans-Serif" font-size="10.00">PlayerInvalidDataException()</text>
<polygon fill="#bfbfbf" stroke="#bfbfbf" points="855,-139 855,-139 1019,-139 1019,-139 855,-139"/>
<polygon fill="#bfbfbf" stroke="#bfbfbf" points="855,-124 855,-124 1019,-124 1019,-124 855,-124"/>
<polygon fill="none" stroke="#bfbfbf" points="855,-107 855,-167 1019,-167 1019,-107 855,-107"/>
</a>
</g>
</g>
<!-- Node1&#45;&gt;Node8 -->
<g id="edge7_Node000001_Node000008" class="edge">
<title>Node1&#45;&gt;Node8</title>
<g id="a_edge7_Node000001_Node000008"><a xlink:title=" ">
<path fill="none" stroke="#63b8ff" d="M780.85,-208.87C807.09,-196.96 842.36,-180.95 872.73,-167.17"/>
<polygon fill="none" stroke="#63b8ff" points="779.28,-205.74 771.62,-213.06 782.17,-212.11 779.28,-205.74"/>
</a>
</g>
</g>
<!-- Node12 -->
<g id="Node000012" class="node">
<title>Node12</title>
<g id="a_Node000012"><a xlink:href="classes_1_1alrodmue_1_1model_1_1exceptions_1_1TeamInvalidDataException.xhtml" target="_top" xlink:title=" ">
<polygon fill="white" stroke="transparent" points="1484,-167 1320,-167 1320,-107 1484,-107 1484,-167"/>
<text text-anchor="start" x="1325" y="-155" font-family="Helvetica,sans-Serif" font-size="10.00">es.alrodmue.model.exceptions.</text>
<text text-anchor="start" x="1336.5" y="-144" font-family="Helvetica,sans-Serif" font-size="10.00">TeamInvalidDataException</text>
<text text-anchor="start" x="1400" y="-129" font-family="Helvetica,sans-Serif" font-size="10.00"> </text>
<text text-anchor="start" x="1325" y="-114" font-family="Helvetica,sans-Serif" font-size="10.00">+</text>
<text text-anchor="start" x="1339" y="-114" font-family="Helvetica,sans-Serif" font-size="10.00">TeamInvalidDataException()</text>
<polygon fill="#bfbfbf" stroke="#bfbfbf" points="1320,-139 1320,-139 1484,-139 1484,-139 1320,-139"/>
<polygon fill="#bfbfbf" stroke="#bfbfbf" points="1320,-124 1320,-124 1484,-124 1484,-124 1320,-124"/>
<polygon fill="none" stroke="#bfbfbf" points="1320,-107 1320,-167 1484,-167 1484,-107 1320,-107"/>
</a>
</g>
</g>
<!-- Node1&#45;&gt;Node12 -->
<g id="edge11_Node000001_Node000012" class="edge">
<title>Node1&#45;&gt;Node12</title>
<g id="a_edge11_Node000001_Node000012"><a xlink:title=" ">
<path fill="none" stroke="#63b8ff" d="M781.55,-221.2C887.04,-207.05 1176.75,-168.2 1319.83,-149.02"/>
<polygon fill="none" stroke="#63b8ff" points="781.09,-217.73 771.64,-222.53 782.02,-224.67 781.09,-217.73"/>
</a>
</g>
</g>
<!-- Node3 -->
<g id="Node000003" class="node">
<title>Node3</title>
<g id="a_Node000003"><a xlink:href="classes_1_1alrodmue_1_1model_1_1exceptions_1_1FoulInvalidMatchException.xhtml" target="_top" xlink:title=" ">
<polygon fill="white" stroke="transparent" points="164,-65.5 0,-65.5 0,-5.5 164,-5.5 164,-65.5"/>
<text text-anchor="start" x="5" y="-53.5" font-family="Helvetica,sans-Serif" font-size="10.00">es.alrodmue.model.exceptions.</text>
<text text-anchor="start" x="16" y="-42.5" font-family="Helvetica,sans-Serif" font-size="10.00">FoulInvalidMatchException</text>
<text text-anchor="start" x="80" y="-27.5" font-family="Helvetica,sans-Serif" font-size="10.00"> </text>
<text text-anchor="start" x="5" y="-12.5" font-family="Helvetica,sans-Serif" font-size="10.00">+</text>
<text text-anchor="start" x="19" y="-12.5" font-family="Helvetica,sans-Serif" font-size="10.00">FoulInvalidMatchException()</text>
<polygon fill="#bfbfbf" stroke="#bfbfbf" points="0,-37.5 0,-37.5 164,-37.5 164,-37.5 0,-37.5"/>
<polygon fill="#bfbfbf" stroke="#bfbfbf" points="0,-22.5 0,-22.5 164,-22.5 164,-22.5 0,-22.5"/>
<polygon fill="none" stroke="#bfbfbf" points="0,-5.5 0,-65.5 164,-65.5 164,-5.5 0,-5.5"/>
</a>
</g>
</g>
<!-- Node2&#45;&gt;Node3 -->
<g id="edge2_Node000002_Node000003" class="edge">
<title>Node2&#45;&gt;Node3</title>
<g id="a_edge2_Node000002_Node000003"><a xlink:title=" ">
<path fill="none" stroke="#63b8ff" d="M202.05,-102.13C180.32,-90.25 156.14,-77.03 135.2,-65.58"/>
<polygon fill="none" stroke="#63b8ff" points="200.42,-105.23 210.87,-106.95 203.77,-99.08 200.42,-105.23"/>
</a>
</g>
</g>
<!-- Node4 -->
<g id="Node000004" class="node">
<title>Node4</title>
<g id="a_Node000004"><a xlink:href="classes_1_1alrodmue_1_1model_1_1exceptions_1_1FoulInvalidPlayerException.xhtml" target="_top" xlink:title=" ">
<polygon fill="white" stroke="transparent" points="346,-65.5 182,-65.5 182,-5.5 346,-5.5 346,-65.5"/>
<text text-anchor="start" x="187" y="-53.5" font-family="Helvetica,sans-Serif" font-size="10.00">es.alrodmue.model.exceptions.</text>
<text text-anchor="start" x="197.5" y="-42.5" font-family="Helvetica,sans-Serif" font-size="10.00">FoulInvalidPlayerException</text>
<text text-anchor="start" x="262" y="-27.5" font-family="Helvetica,sans-Serif" font-size="10.00"> </text>
<text text-anchor="start" x="186.5" y="-12.5" font-family="Helvetica,sans-Serif" font-size="10.00">+</text>
<text text-anchor="start" x="200" y="-12.5" font-family="Helvetica,sans-Serif" font-size="10.00">FoulInvalidPlayerException()</text>
<polygon fill="#bfbfbf" stroke="#bfbfbf" points="182,-37.5 182,-37.5 346,-37.5 346,-37.5 182,-37.5"/>
<polygon fill="#bfbfbf" stroke="#bfbfbf" points="182,-22.5 182,-22.5 346,-22.5 346,-22.5 182,-22.5"/>
<polygon fill="none" stroke="#bfbfbf" points="182,-5.5 182,-65.5 346,-65.5 346,-5.5 182,-5.5"/>
</a>
</g>
</g>
<!-- Node2&#45;&gt;Node4 -->
<g id="edge3_Node000002_Node000004" class="edge">
<title>Node2&#45;&gt;Node4</title>
<g id="a_edge3_Node000002_Node000004"><a xlink:title=" ">
<path fill="none" stroke="#63b8ff" d="M264,-96.87C264,-86.51 264,-75.5 264,-65.76"/>
<polygon fill="none" stroke="#63b8ff" points="260.5,-96.95 264,-106.95 267.5,-96.95 260.5,-96.95"/>
</a>
</g>
</g>
<!-- Node6 -->
<g id="Node000006" class="node">
<title>Node6</title>
<g id="a_Node000006"><a xlink:href="classes_1_1alrodmue_1_1model_1_1exceptions_1_1MatchInvalidDateException.xhtml" target="_top" xlink:title=" ">
<polygon fill="white" stroke="transparent" points="528,-65.5 364,-65.5 364,-5.5 528,-5.5 528,-65.5"/>
<text text-anchor="start" x="369" y="-53.5" font-family="Helvetica,sans-Serif" font-size="10.00">es.alrodmue.model.exceptions.</text>
<text text-anchor="start" x="378.5" y="-42.5" font-family="Helvetica,sans-Serif" font-size="10.00">MatchInvalidDateException</text>
<text text-anchor="start" x="444" y="-27.5" font-family="Helvetica,sans-Serif" font-size="10.00"> </text>
<text text-anchor="start" x="368" y="-12.5" font-family="Helvetica,sans-Serif" font-size="10.00">+</text>
<text text-anchor="start" x="381" y="-12.5" font-family="Helvetica,sans-Serif" font-size="10.00">MatchInvalidDateException()</text>
<polygon fill="#bfbfbf" stroke="#bfbfbf" points="364,-37.5 364,-37.5 528,-37.5 528,-37.5 364,-37.5"/>
<polygon fill="#bfbfbf" stroke="#bfbfbf" points="364,-22.5 364,-22.5 528,-22.5 528,-22.5 364,-22.5"/>
<polygon fill="none" stroke="#bfbfbf" points="364,-5.5 364,-65.5 528,-65.5 528,-5.5 364,-5.5"/>
</a>
</g>
</g>
<!-- Node5&#45;&gt;Node6 -->
<g id="edge5_Node000005_Node000006" class="edge">
<title>Node5&#45;&gt;Node6</title>
<g id="a_edge5_Node000005_Node000006"><a xlink:title=" ">
<path fill="none" stroke="#63b8ff" d="M575.59,-102.29C552.12,-90.37 525.94,-77.08 503.29,-65.58"/>
<polygon fill="none" stroke="#63b8ff" points="574.28,-105.55 584.78,-106.95 577.45,-99.31 574.28,-105.55"/>
</a>
</g>
</g>
<!-- Node7 -->
<g id="Node000007" class="node">
<title>Node7</title>
<g id="a_Node000007"><a xlink:href="classes_1_1alrodmue_1_1model_1_1exceptions_1_1MatchInvalidPlayerAmountException.xhtml" target="_top" xlink:title=" ">
<polygon fill="white" stroke="transparent" points="737.5,-71 546.5,-71 546.5,0 737.5,0 737.5,-71"/>
<text text-anchor="start" x="552" y="-58.5" font-family="Helvetica,sans-Serif" font-size="10.00">es.alrodmue.model.exceptions.</text>
<text text-anchor="start" x="552" y="-47.5" font-family="Helvetica,sans-Serif" font-size="10.00">MatchInvalidPlayerAmountException</text>
<text text-anchor="start" x="640.5" y="-32.5" font-family="Helvetica,sans-Serif" font-size="10.00"> </text>
<text text-anchor="start" x="560" y="-17.5" font-family="Helvetica,sans-Serif" font-size="10.00">+</text>
<text text-anchor="start" x="582" y="-17.5" font-family="Helvetica,sans-Serif" font-size="10.00">MatchInvalidPlayerAmount</text>
<text text-anchor="start" x="582" y="-6.5" font-family="Helvetica,sans-Serif" font-size="10.00">Exception()</text>
<polygon fill="#bfbfbf" stroke="#bfbfbf" points="547,-42.5 547,-42.5 738,-42.5 738,-42.5 547,-42.5"/>
<polygon fill="#bfbfbf" stroke="#bfbfbf" points="547,-27.5 547,-27.5 738,-27.5 738,-27.5 547,-27.5"/>
<polygon fill="none" stroke="#bfbfbf" points="546.5,0 546.5,-71 737.5,-71 737.5,0 546.5,0"/>
</a>
</g>
</g>
<!-- Node5&#45;&gt;Node7 -->
<g id="edge6_Node000005_Node000007" class="edge">
<title>Node5&#45;&gt;Node7</title>
<g id="a_edge6_Node000005_Node000007"><a xlink:title=" ">
<path fill="none" stroke="#63b8ff" d="M642,-96.84C642,-88.32 642,-79.36 642,-71.04"/>
<polygon fill="none" stroke="#63b8ff" points="638.5,-96.95 642,-106.95 645.5,-96.95 638.5,-96.95"/>
</a>
</g>
</g>
<!-- Node9 -->
<g id="Node000009" class="node">
<title>Node9</title>
<g id="a_Node000009"><a xlink:href="classes_1_1alrodmue_1_1model_1_1exceptions_1_1PlayerInvalidHeightException.xhtml" target="_top" xlink:title=" ">
<polygon fill="white" stroke="transparent" points="928.5,-65.5 755.5,-65.5 755.5,-5.5 928.5,-5.5 928.5,-65.5"/>
<text text-anchor="start" x="765.5" y="-53.5" font-family="Helvetica,sans-Serif" font-size="10.00">es.alrodmue.model.exceptions.</text>
<text text-anchor="start" x="770" y="-42.5" font-family="Helvetica,sans-Serif" font-size="10.00">PlayerInvalidHeightException</text>
<text text-anchor="start" x="840.5" y="-27.5" font-family="Helvetica,sans-Serif" font-size="10.00"> </text>
<text text-anchor="start" x="760" y="-12.5" font-family="Helvetica,sans-Serif" font-size="10.00">+</text>
<text text-anchor="start" x="773" y="-12.5" font-family="Helvetica,sans-Serif" font-size="10.00">PlayerInvalidHeightException()</text>
<polygon fill="#bfbfbf" stroke="#bfbfbf" points="756,-37.5 756,-37.5 929,-37.5 929,-37.5 756,-37.5"/>
<polygon fill="#bfbfbf" stroke="#bfbfbf" points="756,-22.5 756,-22.5 929,-22.5 929,-22.5 756,-22.5"/>
<polygon fill="none" stroke="#bfbfbf" points="755.5,-5.5 755.5,-65.5 928.5,-65.5 928.5,-5.5 755.5,-5.5"/>
</a>
</g>
</g>
<!-- Node8&#45;&gt;Node9 -->
<g id="edge8_Node000008_Node000009" class="edge">
<title>Node8&#45;&gt;Node9</title>
<g id="a_edge8_Node000008_Node000009"><a xlink:title=" ">
<path fill="none" stroke="#63b8ff" d="M902.1,-99.45C891.51,-88.35 880.01,-76.31 869.93,-65.76"/>
<polygon fill="none" stroke="#63b8ff" points="899.83,-102.14 909.27,-106.95 904.89,-97.3 899.83,-102.14"/>
</a>
</g>
</g>
<!-- Node10 -->
<g id="Node000010" class="node">
<title>Node10</title>
<g id="a_Node000010"><a xlink:href="classes_1_1alrodmue_1_1model_1_1exceptions_1_1PlayerInvalidNameException.xhtml" target="_top" xlink:title=" ">
<polygon fill="white" stroke="transparent" points="1117,-65.5 947,-65.5 947,-5.5 1117,-5.5 1117,-65.5"/>
<text text-anchor="start" x="955" y="-53.5" font-family="Helvetica,sans-Serif" font-size="10.00">es.alrodmue.model.exceptions.</text>
<text text-anchor="start" x="961" y="-42.5" font-family="Helvetica,sans-Serif" font-size="10.00">PlayerInvalidNameException</text>
<text text-anchor="start" x="1030" y="-27.5" font-family="Helvetica,sans-Serif" font-size="10.00"> </text>
<text text-anchor="start" x="951" y="-12.5" font-family="Helvetica,sans-Serif" font-size="10.00">+</text>
<text text-anchor="start" x="964" y="-12.5" font-family="Helvetica,sans-Serif" font-size="10.00">PlayerInvalidNameException()</text>
<polygon fill="#bfbfbf" stroke="#bfbfbf" points="947,-37.5 947,-37.5 1117,-37.5 1117,-37.5 947,-37.5"/>
<polygon fill="#bfbfbf" stroke="#bfbfbf" points="947,-22.5 947,-22.5 1117,-22.5 1117,-22.5 947,-22.5"/>
<polygon fill="none" stroke="#bfbfbf" points="947,-5.5 947,-65.5 1117,-65.5 1117,-5.5 947,-5.5"/>
</a>
</g>
</g>
<!-- Node8&#45;&gt;Node10 -->
<g id="edge9_Node000008_Node000010" class="edge">
<title>Node8&#45;&gt;Node10</title>
<g id="a_edge9_Node000008_Node000010"><a xlink:title=" ">
<path fill="none" stroke="#63b8ff" d="M971.9,-99.45C982.49,-88.35 993.99,-76.31 1004.07,-65.76"/>
<polygon fill="none" stroke="#63b8ff" points="969.11,-97.3 964.73,-106.95 974.17,-102.14 969.11,-97.3"/>
</a>
</g>
</g>
<!-- Node11 -->
<g id="Node000011" class="node">
<title>Node11</title>
<g id="a_Node000011"><a xlink:href="classes_1_1alrodmue_1_1model_1_1exceptions_1_1PlayerInvalidSkillException.xhtml" target="_top" xlink:title=" ">
<polygon fill="white" stroke="transparent" points="1299,-65.5 1135,-65.5 1135,-5.5 1299,-5.5 1299,-65.5"/>
<text text-anchor="start" x="1140" y="-53.5" font-family="Helvetica,sans-Serif" font-size="10.00">es.alrodmue.model.exceptions.</text>
<text text-anchor="start" x="1150.5" y="-42.5" font-family="Helvetica,sans-Serif" font-size="10.00">PlayerInvalidSkillException</text>
<text text-anchor="start" x="1215" y="-27.5" font-family="Helvetica,sans-Serif" font-size="10.00"> </text>
<text text-anchor="start" x="1139.5" y="-12.5" font-family="Helvetica,sans-Serif" font-size="10.00">+</text>
<text text-anchor="start" x="1153" y="-12.5" font-family="Helvetica,sans-Serif" font-size="10.00">PlayerInvalidSkillException()</text>
<polygon fill="#bfbfbf" stroke="#bfbfbf" points="1135,-37.5 1135,-37.5 1299,-37.5 1299,-37.5 1135,-37.5"/>
<polygon fill="#bfbfbf" stroke="#bfbfbf" points="1135,-22.5 1135,-22.5 1299,-22.5 1299,-22.5 1135,-22.5"/>
<polygon fill="none" stroke="#bfbfbf" points="1135,-5.5 1135,-65.5 1299,-65.5 1299,-5.5 1135,-5.5"/>
</a>
</g>
</g>
<!-- Node8&#45;&gt;Node11 -->
<g id="edge10_Node000008_Node000011" class="edge">
<title>Node8&#45;&gt;Node11</title>
<g id="a_edge10_Node000008_Node000011"><a xlink:title=" ">
<path fill="none" stroke="#63b8ff" d="M1028.56,-105.15C1059.57,-94.54 1094.36,-82.44 1126,-71 1130.77,-69.28 1135.67,-67.48 1140.6,-65.66"/>
<polygon fill="none" stroke="#63b8ff" points="1027.39,-101.85 1019.06,-108.4 1029.66,-108.48 1027.39,-101.85"/>
</a>
</g>
</g>
<!-- Node13 -->
<g id="Node000013" class="node">
<title>Node13</title>
<g id="a_Node000013"><a xlink:href="classes_1_1alrodmue_1_1model_1_1exceptions_1_1TeamPlayerListFullException.xhtml" target="_top" xlink:title=" ">
<polygon fill="white" stroke="transparent" points="1486.5,-65.5 1317.5,-65.5 1317.5,-5.5 1486.5,-5.5 1486.5,-65.5"/>
<text text-anchor="start" x="1325.5" y="-53.5" font-family="Helvetica,sans-Serif" font-size="10.00">es.alrodmue.model.exceptions.</text>
<text text-anchor="start" x="1332.5" y="-42.5" font-family="Helvetica,sans-Serif" font-size="10.00">TeamPlayerListFullException</text>
<text text-anchor="start" x="1400.5" y="-27.5" font-family="Helvetica,sans-Serif" font-size="10.00"> </text>
<text text-anchor="start" x="1322" y="-12.5" font-family="Helvetica,sans-Serif" font-size="10.00">+</text>
<text text-anchor="start" x="1335" y="-12.5" font-family="Helvetica,sans-Serif" font-size="10.00">TeamPlayerListFullException()</text>
<polygon fill="#bfbfbf" stroke="#bfbfbf" points="1318,-37.5 1318,-37.5 1487,-37.5 1487,-37.5 1318,-37.5"/>
<polygon fill="#bfbfbf" stroke="#bfbfbf" points="1318,-22.5 1318,-22.5 1487,-22.5 1487,-22.5 1318,-22.5"/>
<polygon fill="none" stroke="#bfbfbf" points="1317.5,-5.5 1317.5,-65.5 1486.5,-65.5 1486.5,-5.5 1317.5,-5.5"/>
</a>
</g>
</g>
<!-- Node12&#45;&gt;Node13 -->
<g id="edge12_Node000012_Node000013" class="edge">
<title>Node12&#45;&gt;Node13</title>
<g id="a_edge12_Node000012_Node000013"><a xlink:title=" ">
<path fill="none" stroke="#63b8ff" d="M1402,-96.87C1402,-86.51 1402,-75.5 1402,-65.76"/>
<polygon fill="none" stroke="#63b8ff" points="1398.5,-96.95 1402,-106.95 1405.5,-96.95 1398.5,-96.95"/>
</a>
</g>
</g>
<!-- Node14 -->
<g id="Node000014" class="node">
<title>Node14</title>
<g id="a_Node000014"><a xlink:href="classes_1_1alrodmue_1_1model_1_1exceptions_1_1TeamPlayerPositionFullException.xhtml" target="_top" xlink:title=" ">
<polygon fill="white" stroke="transparent" points="1695,-65.5 1505,-65.5 1505,-5.5 1695,-5.5 1695,-65.5"/>
<text text-anchor="start" x="1519" y="-53.5" font-family="Helvetica,sans-Serif" font-size="10.00">es.alrodmue.model.exceptions.</text>
<text text-anchor="start" x="1519" y="-42.5" font-family="Helvetica,sans-Serif" font-size="10.00">TeamPlayerPositionFullException</text>
<text text-anchor="start" x="1598" y="-27.5" font-family="Helvetica,sans-Serif" font-size="10.00"> </text>
<text text-anchor="start" x="1509" y="-12.5" font-family="Helvetica,sans-Serif" font-size="10.00">+</text>
<text text-anchor="start" x="1522" y="-12.5" font-family="Helvetica,sans-Serif" font-size="10.00">TeamPlayerPositionFullException()</text>
<polygon fill="#bfbfbf" stroke="#bfbfbf" points="1505,-37.5 1505,-37.5 1695,-37.5 1695,-37.5 1505,-37.5"/>
<polygon fill="#bfbfbf" stroke="#bfbfbf" points="1505,-22.5 1505,-22.5 1695,-22.5 1695,-22.5 1505,-22.5"/>
<polygon fill="none" stroke="#bfbfbf" points="1505,-5.5 1505,-65.5 1695,-65.5 1695,-5.5 1505,-5.5"/>
</a>
</g>
</g>
<!-- Node12&#45;&gt;Node14 -->
<g id="edge13_Node000012_Node000014" class="edge">
<title>Node12&#45;&gt;Node14</title>
<g id="a_edge13_Node000012_Node000014"><a xlink:title=" ">
<path fill="none" stroke="#63b8ff" d="M1468.77,-102.45C1492.56,-90.49 1519.14,-77.13 1542.13,-65.58"/>
<polygon fill="none" stroke="#63b8ff" points="1467.17,-99.34 1459.8,-106.95 1470.31,-105.59 1467.17,-99.34"/>
</a>
</g>
</g>
</g>
</svg>
