<?xml version="1.0" encoding="UTF-8" standalone="no"?>
<!DOCTYPE svg PUBLIC "-//W3C//DTD SVG 1.1//EN"
 "http://www.w3.org/Graphics/SVG/1.1/DTD/svg11.dtd">
<!-- Generated by graphviz version 2.43.0 (0)
 -->
<!-- Title: es.alrodmue.model.fouls.PersonalFoul Pages: 1 -->
<svg width="916pt" height="1151pt"
 viewBox="0.00 0.00 915.50 1151.00" xmlns="http://www.w3.org/2000/svg" xmlns:xlink="http://www.w3.org/1999/xlink">
<g id="graph0" class="graph" transform="scale(1 1) rotate(0) translate(4 1147)">
<title>es.alrodmue.model.fouls.PersonalFoul</title>
<!-- Node1 -->
<g id="Node000001" class="node">
<title>Node1</title>
<g id="a_Node000001"><a xlink:title=" ">
<polygon fill="#999999" stroke="transparent" points="632,-75 497,-75 497,0 632,0 632,-75"/>
<text text-anchor="start" x="502.5" y="-62.5" font-family="Helvetica,sans-Serif" font-size="10.00">es.alrodmue.model.fouls.</text>
<text text-anchor="start" x="533.5" y="-51.5" font-family="Helvetica,sans-Serif" font-size="10.00">PersonalFoul</text>
<text text-anchor="start" x="563" y="-36.5" font-family="Helvetica,sans-Serif" font-size="10.00"> </text>
<text text-anchor="start" x="512.5" y="-21.5" font-family="Helvetica,sans-Serif" font-size="10.00">+</text>
<text text-anchor="start" x="536.5" y="-21.5" font-family="Helvetica,sans-Serif" font-size="10.00">PersonalFoul()</text>
<text text-anchor="start" x="512.5" y="-6.5" font-family="Helvetica,sans-Serif" font-size="10.00">+</text>
<text text-anchor="start" x="536.5" y="-6.5" font-family="Helvetica,sans-Serif" font-size="10.00">getType()</text>
<polygon fill="#666666" stroke="#666666" points="497.5,-46.5 497.5,-46.5 632.5,-46.5 632.5,-46.5 497.5,-46.5"/>
<polygon fill="#666666" stroke="#666666" points="497.5,-31.5 497.5,-31.5 632.5,-31.5 632.5,-31.5 497.5,-31.5"/>
<polygon fill="none" stroke="#666666" points="497,0 497,-75 632,-75 632,0 497,0"/>
</a>
</g>
</g>
<!-- Node2 -->
<g id="Node000002" class="node">
<title>Node2</title>
<g id="a_Node000002"><a xlink:href="classes_1_1alrodmue_1_1model_1_1fouls_1_1Foul.xhtml" target="_top" xlink:title=" ">
<polygon fill="white" stroke="transparent" points="642,-236 487,-236 487,-112 642,-112 642,-236"/>
<text text-anchor="start" x="492.5" y="-224" font-family="Helvetica,sans-Serif" font-size="10.00">es.alrodmue.model.fouls.Foul</text>
<text text-anchor="start" x="563" y="-209" font-family="Helvetica,sans-Serif" font-size="10.00"> </text>
<text text-anchor="start" x="507" y="-194" font-family="Helvetica,sans-Serif" font-size="10.00">+</text>
<text text-anchor="start" x="535.5" y="-194" font-family="Helvetica,sans-Serif" font-size="10.00">Foul()</text>
<text text-anchor="start" x="507" y="-179" font-family="Helvetica,sans-Serif" font-size="10.00">+</text>
<text text-anchor="start" x="535.5" y="-179" font-family="Helvetica,sans-Serif" font-size="10.00">getMatch()</text>
<text text-anchor="start" x="507" y="-164" font-family="Helvetica,sans-Serif" font-size="10.00">+</text>
<text text-anchor="start" x="535.5" y="-164" font-family="Helvetica,sans-Serif" font-size="10.00">getPlayer()</text>
<text text-anchor="start" x="507" y="-149" font-family="Helvetica,sans-Serif" font-size="10.00">+</text>
<text text-anchor="start" x="535.5" y="-149" font-family="Helvetica,sans-Serif" font-size="10.00">getType()</text>
<text text-anchor="start" x="507" y="-134" font-family="Helvetica,sans-Serif" font-size="10.00">+</text>
<text text-anchor="start" x="535.5" y="-134" font-family="Helvetica,sans-Serif" font-size="10.00">isMatchValid()</text>
<text text-anchor="start" x="507" y="-119" font-family="Helvetica,sans-Serif" font-size="10.00">+</text>
<text text-anchor="start" x="535.5" y="-119" font-family="Helvetica,sans-Serif" font-size="10.00">isPlayerValid()</text>
<polygon fill="#666666" stroke="#666666" points="487.5,-219 487.5,-219 642.5,-219 642.5,-219 487.5,-219"/>
<polygon fill="#666666" stroke="#666666" points="487.5,-204 487.5,-204 642.5,-204 642.5,-204 487.5,-204"/>
<polygon fill="none" stroke="#666666" points="487,-112 487,-236 642,-236 642,-112 487,-112"/>
</a>
</g>
</g>
<!-- Node2&#45;&gt;Node1 -->
<g id="edge1_Node000001_Node000002" class="edge">
<title>Node2&#45;&gt;Node1</title>
<g id="a_edge1_Node000001_Node000002"><a xlink:title=" ">
<path fill="none" stroke="#63b8ff" d="M564.5,-101.4C564.5,-92.32 564.5,-83.35 564.5,-75.16"/>
<polygon fill="none" stroke="#63b8ff" points="561,-101.65 564.5,-111.65 568,-101.65 561,-101.65"/>
</a>
</g>
</g>
<!-- Node3 -->
<g id="Node000003" class="node">
<title>Node3</title>
<g id="a_Node000003"><a xlink:href="classes_1_1alrodmue_1_1model_1_1players_1_1Player.xhtml" target="_top" xlink:title=" ">
<polygon fill="white" stroke="transparent" points="720,-896 573,-896 573,-581 720,-581 720,-896"/>
<text text-anchor="start" x="578.5" y="-883.5" font-family="Helvetica,sans-Serif" font-size="10.00">es.alrodmue.model.players.</text>
<text text-anchor="start" x="631.5" y="-872.5" font-family="Helvetica,sans-Serif" font-size="10.00">Player</text>
<text text-anchor="start" x="645" y="-857.5" font-family="Helvetica,sans-Serif" font-size="10.00"> </text>
<text text-anchor="start" x="589" y="-842.5" font-family="Helvetica,sans-Serif" font-size="10.00">+</text>
<text text-anchor="start" x="613.5" y="-842.5" font-family="Helvetica,sans-Serif" font-size="10.00">Player()</text>
<text text-anchor="start" x="589" y="-827.5" font-family="Helvetica,sans-Serif" font-size="10.00">+</text>
<text text-anchor="start" x="613.5" y="-827.5" font-family="Helvetica,sans-Serif" font-size="10.00">addFoul()</text>
<text text-anchor="start" x="589" y="-812.5" font-family="Helvetica,sans-Serif" font-size="10.00">+</text>
<text text-anchor="start" x="613.5" y="-812.5" font-family="Helvetica,sans-Serif" font-size="10.00">addPoints()</text>
<text text-anchor="start" x="589" y="-797.5" font-family="Helvetica,sans-Serif" font-size="10.00">+</text>
<text text-anchor="start" x="613.5" y="-797.5" font-family="Helvetica,sans-Serif" font-size="10.00">getDetail()</text>
<text text-anchor="start" x="589" y="-782.5" font-family="Helvetica,sans-Serif" font-size="10.00">+</text>
<text text-anchor="start" x="613.5" y="-782.5" font-family="Helvetica,sans-Serif" font-size="10.00">getFouls()</text>
<text text-anchor="start" x="589" y="-767.5" font-family="Helvetica,sans-Serif" font-size="10.00">+</text>
<text text-anchor="start" x="613.5" y="-767.5" font-family="Helvetica,sans-Serif" font-size="10.00">getHeight()</text>
<text text-anchor="start" x="589" y="-752.5" font-family="Helvetica,sans-Serif" font-size="10.00">+</text>
<text text-anchor="start" x="613.5" y="-752.5" font-family="Helvetica,sans-Serif" font-size="10.00">getName()</text>
<text text-anchor="start" x="589" y="-737.5" font-family="Helvetica,sans-Serif" font-size="10.00">+</text>
<text text-anchor="start" x="613.5" y="-737.5" font-family="Helvetica,sans-Serif" font-size="10.00">getNumber()</text>
<text text-anchor="start" x="589" y="-722.5" font-family="Helvetica,sans-Serif" font-size="10.00">+</text>
<text text-anchor="start" x="613.5" y="-722.5" font-family="Helvetica,sans-Serif" font-size="10.00">getPoints()</text>
<text text-anchor="start" x="589" y="-707.5" font-family="Helvetica,sans-Serif" font-size="10.00">+</text>
<text text-anchor="start" x="613.5" y="-707.5" font-family="Helvetica,sans-Serif" font-size="10.00">getSkill()</text>
<text text-anchor="start" x="589" y="-692.5" font-family="Helvetica,sans-Serif" font-size="10.00">+</text>
<text text-anchor="start" x="613.5" y="-692.5" font-family="Helvetica,sans-Serif" font-size="10.00">getType()</text>
<text text-anchor="start" x="589" y="-677.5" font-family="Helvetica,sans-Serif" font-size="10.00">+</text>
<text text-anchor="start" x="613.5" y="-677.5" font-family="Helvetica,sans-Serif" font-size="10.00">toString()</text>
<text text-anchor="start" x="589" y="-662.5" font-family="Helvetica,sans-Serif" font-size="10.00">+</text>
<text text-anchor="start" x="613.5" y="-662.5" font-family="Helvetica,sans-Serif" font-size="10.00">arePointsValid()</text>
<text text-anchor="start" x="589" y="-647.5" font-family="Helvetica,sans-Serif" font-size="10.00">+</text>
<text text-anchor="start" x="613.5" y="-647.5" font-family="Helvetica,sans-Serif" font-size="10.00">isFoulValid()</text>
<text text-anchor="start" x="589" y="-632.5" font-family="Helvetica,sans-Serif" font-size="10.00">+</text>
<text text-anchor="start" x="613.5" y="-632.5" font-family="Helvetica,sans-Serif" font-size="10.00">isHeightValid()</text>
<text text-anchor="start" x="589" y="-617.5" font-family="Helvetica,sans-Serif" font-size="10.00">+</text>
<text text-anchor="start" x="613.5" y="-617.5" font-family="Helvetica,sans-Serif" font-size="10.00">isNameValid()</text>
<text text-anchor="start" x="589" y="-602.5" font-family="Helvetica,sans-Serif" font-size="10.00">+</text>
<text text-anchor="start" x="613.5" y="-602.5" font-family="Helvetica,sans-Serif" font-size="10.00">isNumberValid()</text>
<text text-anchor="start" x="589" y="-587.5" font-family="Helvetica,sans-Serif" font-size="10.00">+</text>
<text text-anchor="start" x="613.5" y="-587.5" font-family="Helvetica,sans-Serif" font-size="10.00">isSkillValid()</text>
<polygon fill="#666666" stroke="#666666" points="573.5,-867.5 573.5,-867.5 720.5,-867.5 720.5,-867.5 573.5,-867.5"/>
<polygon fill="#666666" stroke="#666666" points="573.5,-852.5 573.5,-852.5 720.5,-852.5 720.5,-852.5 573.5,-852.5"/>
<polygon fill="none" stroke="#666666" points="573,-581 573,-896 720,-896 720,-581 573,-581"/>
</a>
</g>
</g>
<!-- Node3&#45;&gt;Node2 -->
<g id="edge2_Node000002_Node000003" class="edge">
<title>Node3&#45;&gt;Node2</title>
<g id="a_edge2_Node000002_Node000003"><a xlink:title=" ">
<path fill="none" stroke="#63b8ff" d="M623.66,-580.81C607.8,-472.06 587.41,-332.17 575.18,-248.26"/>
<polygon fill="none" stroke="#63b8ff" points="575.17,-248.17 570.34,-242.81 573.44,-236.3 578.26,-241.66 575.17,-248.17"/>
</a>
</g>
<text text-anchor="middle" x="637" y="-400.5" font-family="Helvetica,sans-Serif" font-size="10.00" fill="grey"> #player</text>
</g>
<!-- Node8 -->
<g id="Node000008" class="node">
<title>Node8</title>
<g id="a_Node000008"><a xlink:href="classes_1_1alrodmue_1_1model_1_1matches_1_1Match.xhtml" target="_top" xlink:title=" ">
<polygon fill="white" stroke="transparent" points="413,-523 260,-523 260,-283 413,-283 413,-523"/>
<text text-anchor="start" x="265.5" y="-511" font-family="Helvetica,sans-Serif" font-size="10.00">es.alrodmue.model.matches.</text>
<text text-anchor="start" x="321.5" y="-500" font-family="Helvetica,sans-Serif" font-size="10.00">Match</text>
<text text-anchor="start" x="335" y="-485" font-family="Helvetica,sans-Serif" font-size="10.00"> </text>
<text text-anchor="start" x="272.5" y="-470" font-family="Helvetica,sans-Serif" font-size="10.00">+</text>
<text text-anchor="start" x="293.5" y="-470" font-family="Helvetica,sans-Serif" font-size="10.00">Match()</text>
<text text-anchor="start" x="272.5" y="-455" font-family="Helvetica,sans-Serif" font-size="10.00">+</text>
<text text-anchor="start" x="293.5" y="-455" font-family="Helvetica,sans-Serif" font-size="10.00">getDate()</text>
<text text-anchor="start" x="272.5" y="-440" font-family="Helvetica,sans-Serif" font-size="10.00">+</text>
<text text-anchor="start" x="293.5" y="-440" font-family="Helvetica,sans-Serif" font-size="10.00">getDetails()</text>
<text text-anchor="start" x="272.5" y="-425" font-family="Helvetica,sans-Serif" font-size="10.00">+</text>
<text text-anchor="start" x="293.5" y="-425" font-family="Helvetica,sans-Serif" font-size="10.00">getFouls()</text>
<text text-anchor="start" x="272.5" y="-410" font-family="Helvetica,sans-Serif" font-size="10.00">+</text>
<text text-anchor="start" x="293.5" y="-410" font-family="Helvetica,sans-Serif" font-size="10.00">getOwnPoints()</text>
<text text-anchor="start" x="272.5" y="-395" font-family="Helvetica,sans-Serif" font-size="10.00">+</text>
<text text-anchor="start" x="293.5" y="-395" font-family="Helvetica,sans-Serif" font-size="10.00">getPlayerPoints()</text>
<text text-anchor="start" x="272.5" y="-380" font-family="Helvetica,sans-Serif" font-size="10.00">+</text>
<text text-anchor="start" x="293.5" y="-380" font-family="Helvetica,sans-Serif" font-size="10.00">getPlayers()</text>
<text text-anchor="start" x="272.5" y="-365" font-family="Helvetica,sans-Serif" font-size="10.00">+</text>
<text text-anchor="start" x="293.5" y="-365" font-family="Helvetica,sans-Serif" font-size="10.00">getRivalPoints()</text>
<text text-anchor="start" x="272.5" y="-350" font-family="Helvetica,sans-Serif" font-size="10.00">+</text>
<text text-anchor="start" x="293.5" y="-350" font-family="Helvetica,sans-Serif" font-size="10.00">getType()</text>
<text text-anchor="start" x="272.5" y="-335" font-family="Helvetica,sans-Serif" font-size="10.00">+</text>
<text text-anchor="start" x="293.5" y="-335" font-family="Helvetica,sans-Serif" font-size="10.00">getWinner()</text>
<text text-anchor="start" x="272.5" y="-320" font-family="Helvetica,sans-Serif" font-size="10.00">+</text>
<text text-anchor="start" x="293.5" y="-320" font-family="Helvetica,sans-Serif" font-size="10.00">isDateValid()</text>
<text text-anchor="start" x="272.5" y="-305" font-family="Helvetica,sans-Serif" font-size="10.00">#</text>
<text text-anchor="start" x="293.5" y="-305" font-family="Helvetica,sans-Serif" font-size="10.00">isOwnTeamWinner()</text>
<text text-anchor="start" x="272.5" y="-290" font-family="Helvetica,sans-Serif" font-size="10.00">#</text>
<text text-anchor="start" x="293.5" y="-290" font-family="Helvetica,sans-Serif" font-size="10.00">calculatePoints()</text>
<polygon fill="#666666" stroke="#666666" points="260.5,-495 260.5,-495 413.5,-495 413.5,-495 260.5,-495"/>
<polygon fill="#666666" stroke="#666666" points="260.5,-480 260.5,-480 413.5,-480 413.5,-480 260.5,-480"/>
<polygon fill="none" stroke="#666666" points="260,-283 260,-523 413,-523 413,-283 260,-283"/>
</a>
</g>
</g>
<!-- Node3&#45;&gt;Node8 -->
<g id="edge10_Node000008_Node000003" class="edge">
<title>Node3&#45;&gt;Node8</title>
<g id="a_edge10_Node000008_Node000003"><a xlink:title=" ">
<path fill="none" stroke="#63b8ff" d="M572.77,-592.7C569.75,-588.68 566.66,-584.77 563.5,-581 523.55,-533.38 468.84,-490.26 423.14,-458.5"/>
<polygon fill="none" stroke="#63b8ff" points="423.12,-458.49 415.91,-458.39 413.23,-451.69 420.44,-451.79 423.12,-458.49"/>
</a>
</g>
<text text-anchor="middle" x="573.5" y="-549.5" font-family="Helvetica,sans-Serif" font-size="10.00" fill="grey"> #playerList</text>
</g>
<!-- Node4 -->
<g id="Node000004" class="node">
<title>Node4</title>
<g id="a_Node000004"><a xlink:title=" ">
<polygon fill="white" stroke="transparent" points="610,-1030.5 571,-1030.5 571,-981.5 610,-981.5 610,-1030.5"/>
<text text-anchor="start" x="576.5" y="-1018" font-family="Helvetica,sans-Serif" font-size="10.00">String</text>
<text text-anchor="start" x="589" y="-1003" font-family="Helvetica,sans-Serif" font-size="10.00"> </text>
<text text-anchor="start" x="589" y="-988" font-family="Helvetica,sans-Serif" font-size="10.00"> </text>
<polygon fill="#666666" stroke="#666666" points="571.5,-1013 571.5,-1013 610.5,-1013 610.5,-1013 571.5,-1013"/>
<polygon fill="#666666" stroke="#666666" points="571.5,-998 571.5,-998 610.5,-998 610.5,-998 571.5,-998"/>
<polygon fill="none" stroke="#666666" points="571,-981.5 571,-1030.5 610,-1030.5 610,-981.5 571,-981.5"/>
</a>
</g>
</g>
<!-- Node4&#45;&gt;Node3 -->
<g id="edge3_Node000003_Node000004" class="edge">
<title>Node4&#45;&gt;Node3</title>
<g id="a_edge3_Node000003_Node000004"><a xlink:title=" ">
<path fill="none" stroke="#63b8ff" d="M594.68,-981.39C597.99,-962.99 602.82,-936.83 607.5,-914 607.89,-912.1 608.28,-910.2 608.68,-908.28"/>
<polygon fill="none" stroke="#63b8ff" points="608.71,-908.15 606.02,-901.46 611.16,-896.4 613.85,-903.09 608.71,-908.15"/>
</a>
</g>
<text text-anchor="middle" x="627.5" y="-933.5" font-family="Helvetica,sans-Serif" font-size="10.00" fill="grey"> #name</text>
</g>
<!-- Node5 -->
<g id="Node000005" class="node">
<title>Node5</title>
<g id="a_Node000005"><a xlink:title=" ">
<polygon fill="white" stroke="transparent" points="665,-1030.5 642,-1030.5 642,-981.5 665,-981.5 665,-1030.5"/>
<text text-anchor="start" x="647.5" y="-1018" font-family="Helvetica,sans-Serif" font-size="10.00">int</text>
<text text-anchor="start" x="652" y="-1003" font-family="Helvetica,sans-Serif" font-size="10.00"> </text>
<text text-anchor="start" x="652" y="-988" font-family="Helvetica,sans-Serif" font-size="10.00"> </text>
<polygon fill="#666666" stroke="#666666" points="642.5,-1013 642.5,-1013 665.5,-1013 665.5,-1013 642.5,-1013"/>
<polygon fill="#666666" stroke="#666666" points="642.5,-998 642.5,-998 665.5,-998 665.5,-998 642.5,-998"/>
<polygon fill="none" stroke="#666666" points="642,-981.5 642,-1030.5 665,-1030.5 665,-981.5 642,-981.5"/>
</a>
</g>
</g>
<!-- Node5&#45;&gt;Node3 -->
<g id="edge4_Node000003_Node000005" class="edge">
<title>Node5&#45;&gt;Node3</title>
<g id="a_edge4_Node000003_Node000005"><a xlink:title=" ">
<path fill="none" stroke="#63b8ff" d="M652.88,-981.44C652.41,-963.54 651.71,-937.13 650.95,-908.27"/>
<polygon fill="none" stroke="#63b8ff" points="650.95,-908.22 646.79,-902.32 650.63,-896.22 654.79,-902.11 650.95,-908.22"/>
</a>
</g>
<text text-anchor="middle" x="675.5" y="-950" font-family="Helvetica,sans-Serif" font-size="10.00" fill="grey"> #height</text>
<text text-anchor="middle" x="675.5" y="-939" font-family="Helvetica,sans-Serif" font-size="10.00" fill="grey">#number</text>
<text text-anchor="middle" x="675.5" y="-928" font-family="Helvetica,sans-Serif" font-size="10.00" fill="grey">#points</text>
<text text-anchor="middle" x="675.5" y="-917" font-family="Helvetica,sans-Serif" font-size="10.00" fill="grey">#skill</text>
</g>
<!-- Node6 -->
<g id="Node000006" class="node">
<title>Node6</title>
<g id="a_Node000006"><a xlink:title=" ">
<polygon fill="white" stroke="transparent" points="902,-1036 683,-1036 683,-976 902,-976 902,-1036"/>
<text text-anchor="start" x="688.5" y="-1024" font-family="Helvetica,sans-Serif" font-size="10.00">ObservableList&lt; es.alrodmue.model.fouls.</text>
<text text-anchor="start" x="777" y="-1013" font-family="Helvetica,sans-Serif" font-size="10.00">Foul &gt;</text>
<text text-anchor="start" x="791" y="-998" font-family="Helvetica,sans-Serif" font-size="10.00"> </text>
<text text-anchor="start" x="791" y="-983" font-family="Helvetica,sans-Serif" font-size="10.00"> </text>
<polygon fill="#666666" stroke="#666666" points="683.5,-1008 683.5,-1008 902.5,-1008 902.5,-1008 683.5,-1008"/>
<polygon fill="#666666" stroke="#666666" points="683.5,-993 683.5,-993 902.5,-993 902.5,-993 683.5,-993"/>
<polygon fill="none" stroke="#666666" points="683,-976 683,-1036 902,-1036 902,-976 683,-976"/>
</a>
</g>
</g>
<!-- Node6&#45;&gt;Node3 -->
<g id="edge5_Node000003_Node000006" class="edge">
<title>Node6&#45;&gt;Node3</title>
<g id="a_edge5_Node000003_Node000006"><a xlink:title=" ">
<path fill="none" stroke="#63b8ff" d="M776.46,-975.83C763.84,-952.88 745.23,-919.03 726.01,-884.08"/>
<polygon fill="none" stroke="#63b8ff" points="725.81,-883.73 719.42,-880.4 720.03,-873.21 726.43,-876.54 725.81,-883.73"/>
</a>
</g>
<text text-anchor="middle" x="783.5" y="-933.5" font-family="Helvetica,sans-Serif" font-size="10.00" fill="grey"> #fouls</text>
</g>
<!-- Node7 -->
<g id="Node000007" class="node">
<title>Node7</title>
<g id="a_Node000007"><a xlink:title=" ">
<polygon fill="white" stroke="transparent" points="834,-1143 751,-1143 751,-1094 834,-1094 834,-1143"/>
<text text-anchor="start" x="756.5" y="-1130.5" font-family="Helvetica,sans-Serif" font-size="10.00">ObservableList</text>
<text text-anchor="start" x="791" y="-1115.5" font-family="Helvetica,sans-Serif" font-size="10.00"> </text>
<text text-anchor="start" x="791" y="-1100.5" font-family="Helvetica,sans-Serif" font-size="10.00"> </text>
<polygon fill="#666666" stroke="#666666" points="751.5,-1125.5 751.5,-1125.5 834.5,-1125.5 834.5,-1125.5 751.5,-1125.5"/>
<polygon fill="#666666" stroke="#666666" points="751.5,-1110.5 751.5,-1110.5 834.5,-1110.5 834.5,-1110.5 751.5,-1110.5"/>
<polygon fill="none" stroke="#666666" points="751,-1094 751,-1143 834,-1143 834,-1094 751,-1094"/>
</a>
</g>
</g>
<!-- Node7&#45;&gt;Node6 -->
<g id="edge6_Node000006_Node000007" class="edge">
<title>Node7&#45;&gt;Node6</title>
<g id="a_edge6_Node000006_Node000007"><a xlink:title=" ">
<path fill="none" stroke="orange" d="M792.5,-1083.75C792.5,-1068.56 792.5,-1050.79 792.5,-1036.17"/>
<polygon fill="orange" stroke="orange" points="789,-1083.79 792.5,-1093.79 796,-1083.8 789,-1083.79"/>
</a>
</g>
<text text-anchor="start" x="792.5" y="-1068" font-family="Helvetica,sans-Serif" font-size="10.00" fill="grey"> &lt; es::alrodmue::model</text>
<text text-anchor="middle" x="850" y="-1057" font-family="Helvetica,sans-Serif" font-size="10.00" fill="grey">::fouls::Foul &gt;</text>
</g>
<!-- Node8&#45;&gt;Node2 -->
<g id="edge7_Node000002_Node000008" class="edge">
<title>Node8&#45;&gt;Node2</title>
<g id="a_edge7_Node000002_Node000008"><a xlink:title=" ">
<path fill="none" stroke="#63b8ff" d="M413.05,-325.78C439.32,-299.63 468.57,-270.5 494.31,-244.88"/>
<polygon fill="none" stroke="#63b8ff" points="494.39,-244.8 495.82,-237.73 502.9,-236.33 501.47,-243.4 494.39,-244.8"/>
</a>
</g>
<text text-anchor="middle" x="506" y="-257" font-family="Helvetica,sans-Serif" font-size="10.00" fill="grey"> #match</text>
</g>
<!-- Node9 -->
<g id="Node000009" class="node">
<title>Node9</title>
<g id="a_Node000009"><a xlink:title=" ">
<polygon fill="white" stroke="transparent" points="59,-763 0,-763 0,-714 59,-714 59,-763"/>
<text text-anchor="start" x="5.5" y="-750.5" font-family="Helvetica,sans-Serif" font-size="10.00">LocalDate</text>
<text text-anchor="start" x="28" y="-735.5" font-family="Helvetica,sans-Serif" font-size="10.00"> </text>
<text text-anchor="start" x="28" y="-720.5" font-family="Helvetica,sans-Serif" font-size="10.00"> </text>
<polygon fill="#666666" stroke="#666666" points="0.5,-745.5 0.5,-745.5 59.5,-745.5 59.5,-745.5 0.5,-745.5"/>
<polygon fill="#666666" stroke="#666666" points="0.5,-730.5 0.5,-730.5 59.5,-730.5 59.5,-730.5 0.5,-730.5"/>
<polygon fill="none" stroke="#666666" points="0,-714 0,-763 59,-763 59,-714 0,-714"/>
</a>
</g>
</g>
<!-- Node9&#45;&gt;Node8 -->
<g id="edge8_Node000008_Node000009" class="edge">
<title>Node9&#45;&gt;Node8</title>
<g id="a_edge8_Node000008_Node000009"><a xlink:title=" ">
<path fill="none" stroke="#63b8ff" d="M31.25,-713.77C34.48,-681.79 43.4,-623.9 67.5,-581 106.76,-511.11 186.43,-463.98 248.93,-436.05"/>
<polygon fill="none" stroke="#63b8ff" points="248.99,-436.02 252.89,-429.95 259.99,-431.22 256.09,-437.29 248.99,-436.02"/>
</a>
</g>
<text text-anchor="middle" x="109.5" y="-549.5" font-family="Helvetica,sans-Serif" font-size="10.00" fill="grey"> #date</text>
</g>
<!-- Node10 -->
<g id="Node000010" class="node">
<title>Node10</title>
<g id="a_Node000010"><a xlink:title=" ">
<polygon fill="white" stroke="transparent" points="124,-763 77,-763 77,-714 124,-714 124,-763"/>
<text text-anchor="start" x="82.5" y="-750.5" font-family="Helvetica,sans-Serif" font-size="10.00">final int</text>
<text text-anchor="start" x="99" y="-735.5" font-family="Helvetica,sans-Serif" font-size="10.00"> </text>
<text text-anchor="start" x="99" y="-720.5" font-family="Helvetica,sans-Serif" font-size="10.00"> </text>
<polygon fill="#666666" stroke="#666666" points="77.5,-745.5 77.5,-745.5 124.5,-745.5 124.5,-745.5 77.5,-745.5"/>
<polygon fill="#666666" stroke="#666666" points="77.5,-730.5 77.5,-730.5 124.5,-730.5 124.5,-730.5 77.5,-730.5"/>
<polygon fill="none" stroke="#666666" points="77,-714 77,-763 124,-763 124,-714 77,-714"/>
</a>
</g>
</g>
<!-- Node10&#45;&gt;Node8 -->
<g id="edge9_Node000008_Node000010" class="edge">
<title>Node10&#45;&gt;Node8</title>
<g id="a_edge9_Node000008_Node000010"><a xlink:title=" ">
<path fill="none" stroke="#63b8ff" d="M100.89,-713.82C102.41,-681.64 108.69,-623.27 133.5,-581 162.04,-532.37 208.73,-490.29 250.15,-459.37"/>
<polygon fill="none" stroke="#63b8ff" points="250.31,-459.24 252.79,-452.47 259.99,-452.15 257.52,-458.92 250.31,-459.24"/>
</a>
</g>
<text text-anchor="middle" x="189.5" y="-555" font-family="Helvetica,sans-Serif" font-size="10.00" fill="grey"> #ownPoints</text>
<text text-anchor="middle" x="189.5" y="-544" font-family="Helvetica,sans-Serif" font-size="10.00" fill="grey">#rivalPoints</text>
</g>
<!-- Node11 -->
<g id="Node000011" class="node">
<title>Node11</title>
<g id="a_Node000011"><a xlink:title=" ">
<polygon fill="white" stroke="transparent" points="346.5,-768.5 142.5,-768.5 142.5,-708.5 346.5,-708.5 346.5,-768.5"/>
<text text-anchor="start" x="147.5" y="-756.5" font-family="Helvetica,sans-Serif" font-size="10.00">HashMap&lt; es.alrodmue.model.players.</text>
<text text-anchor="start" x="203" y="-745.5" font-family="Helvetica,sans-Serif" font-size="10.00">Player, Integer &gt;</text>
<text text-anchor="start" x="242.5" y="-730.5" font-family="Helvetica,sans-Serif" font-size="10.00"> </text>
<text text-anchor="start" x="242.5" y="-715.5" font-family="Helvetica,sans-Serif" font-size="10.00"> </text>
<polygon fill="#666666" stroke="#666666" points="142.5,-740.5 142.5,-740.5 346.5,-740.5 346.5,-740.5 142.5,-740.5"/>
<polygon fill="#666666" stroke="#666666" points="142.5,-725.5 142.5,-725.5 346.5,-725.5 346.5,-725.5 142.5,-725.5"/>
<polygon fill="none" stroke="#666666" points="142.5,-708.5 142.5,-768.5 346.5,-768.5 346.5,-708.5 142.5,-708.5"/>
</a>
</g>
</g>
<!-- Node11&#45;&gt;Node8 -->
<g id="edge11_Node000008_Node000011" class="edge">
<title>Node11&#45;&gt;Node8</title>
<g id="a_edge11_Node000008_Node000011"><a xlink:title=" ">
<path fill="none" stroke="#63b8ff" d="M252.5,-708.49C263.18,-669.77 282.79,-598.68 300.38,-534.93"/>
<polygon fill="none" stroke="#63b8ff" points="300.45,-534.68 298.19,-527.84 303.64,-523.12 305.9,-529.96 300.45,-534.68"/>
</a>
</g>
<text text-anchor="middle" x="333" y="-549.5" font-family="Helvetica,sans-Serif" font-size="10.00" fill="grey"> #playerPoints</text>
</g>
<!-- Node12 -->
<g id="Node000012" class="node">
<title>Node12</title>
<g id="a_Node000012"><a xlink:title=" ">
<polygon fill="white" stroke="transparent" points="272.5,-1030.5 216.5,-1030.5 216.5,-981.5 272.5,-981.5 272.5,-1030.5"/>
<text text-anchor="start" x="221.5" y="-1018" font-family="Helvetica,sans-Serif" font-size="10.00">HashMap</text>
<text text-anchor="start" x="242.5" y="-1003" font-family="Helvetica,sans-Serif" font-size="10.00"> </text>
<text text-anchor="start" x="242.5" y="-988" font-family="Helvetica,sans-Serif" font-size="10.00"> </text>
<polygon fill="#666666" stroke="#666666" points="216.5,-1013 216.5,-1013 272.5,-1013 272.5,-1013 216.5,-1013"/>
<polygon fill="#666666" stroke="#666666" points="216.5,-998 216.5,-998 272.5,-998 272.5,-998 216.5,-998"/>
<polygon fill="none" stroke="#666666" points="216.5,-981.5 216.5,-1030.5 272.5,-1030.5 272.5,-981.5 216.5,-981.5"/>
</a>
</g>
</g>
<!-- Node12&#45;&gt;Node11 -->
<g id="edge12_Node000011_Node000012" class="edge">
<title>Node12&#45;&gt;Node11</title>
<g id="a_edge12_Node000011_Node000012"><a xlink:title=" ">
<path fill="none" stroke="orange" d="M244.5,-971.29C244.5,-918.73 244.5,-818.15 244.5,-768.58"/>
<polygon fill="orange" stroke="orange" points="241,-971.44 244.5,-981.44 248,-971.44 241,-971.44"/>
</a>
</g>
<text text-anchor="start" x="244.5" y="-939" font-family="Helvetica,sans-Serif" font-size="10.00" fill="grey"> &lt; es::alrodmue::model</text>
<text text-anchor="middle" x="310" y="-928" font-family="Helvetica,sans-Serif" font-size="10.00" fill="grey">::players::Player, Integer &gt;</text>
</g>
<!-- Node13 -->
<g id="Node000013" class="node">
<title>Node13</title>
<g id="a_Node000013"><a xlink:title=" ">
<polygon fill="white" stroke="transparent" points="554.5,-768.5 364.5,-768.5 364.5,-708.5 554.5,-708.5 554.5,-768.5"/>
<text text-anchor="start" x="369.5" y="-756.5" font-family="Helvetica,sans-Serif" font-size="10.00">ArrayList&lt; es.alrodmue.model.fouls.</text>
<text text-anchor="start" x="443.5" y="-745.5" font-family="Helvetica,sans-Serif" font-size="10.00">Foul &gt;</text>
<text text-anchor="start" x="457.5" y="-730.5" font-family="Helvetica,sans-Serif" font-size="10.00"> </text>
<text text-anchor="start" x="457.5" y="-715.5" font-family="Helvetica,sans-Serif" font-size="10.00"> </text>
<polygon fill="#666666" stroke="#666666" points="364.5,-740.5 364.5,-740.5 554.5,-740.5 554.5,-740.5 364.5,-740.5"/>
<polygon fill="#666666" stroke="#666666" points="364.5,-725.5 364.5,-725.5 554.5,-725.5 554.5,-725.5 364.5,-725.5"/>
<polygon fill="none" stroke="#666666" points="364.5,-708.5 364.5,-768.5 554.5,-768.5 554.5,-708.5 364.5,-708.5"/>
</a>
</g>
</g>
<!-- Node13&#45;&gt;Node8 -->
<g id="edge13_Node000008_Node000013" class="edge">
<title>Node13&#45;&gt;Node8</title>
<g id="a_edge13_Node000008_Node000013"><a xlink:title=" ">
<path fill="none" stroke="#63b8ff" d="M448.8,-708.49C434.49,-669.69 408.19,-598.39 384.64,-534.53"/>
<polygon fill="none" stroke="#63b8ff" points="384.58,-534.38 378.76,-530.13 380.43,-523.12 386.26,-527.36 384.58,-534.38"/>
</a>
</g>
<text text-anchor="middle" x="412.5" y="-549.5" font-family="Helvetica,sans-Serif" font-size="10.00" fill="grey"> #fouls</text>
</g>
<!-- Node14 -->
<g id="Node000014" class="node">
<title>Node14</title>
<g id="a_Node000014"><a xlink:title=" ">
<polygon fill="white" stroke="transparent" points="479.5,-1030.5 425.5,-1030.5 425.5,-981.5 479.5,-981.5 479.5,-1030.5"/>
<text text-anchor="start" x="430.5" y="-1018" font-family="Helvetica,sans-Serif" font-size="10.00">ArrayList</text>
<text text-anchor="start" x="450.5" y="-1003" font-family="Helvetica,sans-Serif" font-size="10.00"> </text>
<text text-anchor="start" x="450.5" y="-988" font-family="Helvetica,sans-Serif" font-size="10.00"> </text>
<polygon fill="#666666" stroke="#666666" points="425.5,-1013 425.5,-1013 479.5,-1013 479.5,-1013 425.5,-1013"/>
<polygon fill="#666666" stroke="#666666" points="425.5,-998 425.5,-998 479.5,-998 479.5,-998 425.5,-998"/>
<polygon fill="none" stroke="#666666" points="425.5,-981.5 425.5,-1030.5 479.5,-1030.5 479.5,-981.5 425.5,-981.5"/>
</a>
</g>
</g>
<!-- Node14&#45;&gt;Node13 -->
<g id="edge14_Node000013_Node000014" class="edge">
<title>Node14&#45;&gt;Node13</title>
<g id="a_edge14_Node000013_Node000014"><a xlink:title=" ">
<path fill="none" stroke="orange" d="M452.68,-971.32C452.82,-954.16 453.07,-932.97 453.5,-914 454.66,-862.78 456.9,-803.14 458.29,-768.52"/>
<polygon fill="orange" stroke="orange" points="449.18,-971.4 452.61,-981.43 456.18,-971.46 449.18,-971.4"/>
</a>
</g>
<text text-anchor="start" x="453.5" y="-939" font-family="Helvetica,sans-Serif" font-size="10.00" fill="grey"> &lt; es::alrodmue::model</text>
<text text-anchor="middle" x="511" y="-928" font-family="Helvetica,sans-Serif" font-size="10.00" fill="grey">::fouls::Foul &gt;</text>
</g>
</g>
</svg>
