<?xml version="1.0" encoding="UTF-8" standalone="no"?>
<!DOCTYPE svg PUBLIC "-//W3C//DTD SVG 1.1//EN"
 "http://www.w3.org/Graphics/SVG/1.1/DTD/svg11.dtd">
<!-- Generated by graphviz version 2.43.0 (0)
 -->
<!-- Title: es.alrodmue.controller.PlayerController.createPlayer Pages: 1 -->
<svg width="571pt" height="268pt"
 viewBox="0.00 0.00 571.00 268.00" xmlns="http://www.w3.org/2000/svg" xmlns:xlink="http://www.w3.org/1999/xlink">
<g id="graph0" class="graph" transform="scale(1 1) rotate(0) translate(4 264)">
<title>es.alrodmue.controller.PlayerController.createPlayer</title>
<!-- Node1 -->
<g id="Node000001" class="node">
<title>Node1</title>
<g id="a_Node000001"><a xlink:title=" ">
<polygon fill="#999999" stroke="#666666" points="160,-150 0,-150 0,-120 160,-120 160,-150"/>
<text text-anchor="start" x="8" y="-138" font-family="Helvetica,sans-Serif" font-size="10.00">es.alrodmue.controller.Player</text>
<text text-anchor="middle" x="80" y="-127" font-family="Helvetica,sans-Serif" font-size="10.00">Controller.createPlayer</text>
</a>
</g>
</g>
<!-- Node2 -->
<g id="Node000002" class="node">
<title>Node2</title>
<g id="a_Node000002"><a xlink:href="classes_1_1alrodmue_1_1model_1_1Team.xhtml#a5e4f41c785c74d800af1c5e4e6f3885e" target="_top" xlink:title=" ">
<polygon fill="white" stroke="#666666" points="357,-260 196,-260 196,-230 357,-230 357,-260"/>
<text text-anchor="start" x="204" y="-248" font-family="Helvetica,sans-Serif" font-size="10.00">es.alrodmue.model.Team.add</text>
<text text-anchor="middle" x="276.5" y="-237" font-family="Helvetica,sans-Serif" font-size="10.00">Player</text>
</a>
</g>
</g>
<!-- Node1&#45;&gt;Node2 -->
<g id="edge1_Node000001_Node000002" class="edge">
<title>Node1&#45;&gt;Node2</title>
<g id="a_edge1_Node000001_Node000002"><a xlink:title=" ">
<path fill="none" stroke="#63b8ff" d="M97.29,-150.13C118.52,-169.12 157.5,-201.56 196,-221 199.69,-222.86 203.55,-224.61 207.5,-226.25"/>
<polygon fill="#63b8ff" stroke="#63b8ff" points="206.25,-229.51 216.83,-229.85 208.77,-222.98 206.25,-229.51"/>
</a>
</g>
</g>
<!-- Node3 -->
<g id="Node000003" class="node">
<title>Node3</title>
<g id="a_Node000003"><a xlink:href="classes_1_1alrodmue_1_1App.xhtml#a2d1fc08b3be857d074130a197f2bc7ab" target="_top" xlink:title=" ">
<polygon fill="white" stroke="#666666" points="355.5,-211.5 197.5,-211.5 197.5,-192.5 355.5,-192.5 355.5,-211.5"/>
<text text-anchor="middle" x="276.5" y="-199.5" font-family="Helvetica,sans-Serif" font-size="10.00">es.alrodmue.App.closeModal</text>
</a>
</g>
</g>
<!-- Node1&#45;&gt;Node3 -->
<g id="edge2_Node000001_Node000003" class="edge">
<title>Node1&#45;&gt;Node3</title>
<g id="a_edge2_Node000001_Node000003"><a xlink:title=" ">
<path fill="none" stroke="#63b8ff" d="M113.19,-150.08C135.96,-160.33 167.41,-173.68 196,-183 203.77,-185.53 212.07,-187.89 220.26,-190.01"/>
<polygon fill="#63b8ff" stroke="#63b8ff" points="219.61,-193.46 230.16,-192.5 221.31,-186.67 219.61,-193.46"/>
</a>
</g>
</g>
<!-- Node4 -->
<g id="Node000004" class="node">
<title>Node4</title>
<g id="a_Node000004"><a xlink:href="classes_1_1alrodmue_1_1model_1_1factories_1_1PlayerFactory.xhtml#aecc91ec27700c05282c7d1f394c28382" target="_top" xlink:title=" ">
<polygon fill="white" stroke="#666666" points="356.5,-174 196.5,-174 196.5,-144 356.5,-144 356.5,-174"/>
<text text-anchor="start" x="204.5" y="-162" font-family="Helvetica,sans-Serif" font-size="10.00">es.alrodmue.model.factories.</text>
<text text-anchor="middle" x="276.5" y="-151" font-family="Helvetica,sans-Serif" font-size="10.00">PlayerFactory.create</text>
</a>
</g>
</g>
<!-- Node1&#45;&gt;Node4 -->
<g id="edge3_Node000001_Node000004" class="edge">
<title>Node1&#45;&gt;Node4</title>
<g id="a_edge3_Node000001_Node000004"><a xlink:title=" ">
<path fill="none" stroke="#63b8ff" d="M160.11,-144.76C168.73,-145.83 177.54,-146.91 186.27,-147.99"/>
<polygon fill="#63b8ff" stroke="#63b8ff" points="186.11,-151.5 196.46,-149.25 186.96,-144.55 186.11,-151.5"/>
</a>
</g>
</g>
<!-- Node5 -->
<g id="Node000005" class="node">
<title>Node5</title>
<g id="a_Node000005"><a xlink:href="classes_1_1alrodmue_1_1model_1_1factories_1_1PlayerFactory.xhtml#a2c5498aa9c78b26e98b4aaad9935894f" target="_top" xlink:title=" ">
<polygon fill="white" stroke="#666666" points="356.5,-126 196.5,-126 196.5,-96 356.5,-96 356.5,-126"/>
<text text-anchor="start" x="204.5" y="-114" font-family="Helvetica,sans-Serif" font-size="10.00">es.alrodmue.model.factories.</text>
<text text-anchor="middle" x="276.5" y="-103" font-family="Helvetica,sans-Serif" font-size="10.00">PlayerFactory.getInstance</text>
</a>
</g>
</g>
<!-- Node1&#45;&gt;Node5 -->
<g id="edge4_Node000001_Node000005" class="edge">
<title>Node1&#45;&gt;Node5</title>
<g id="a_edge4_Node000001_Node000005"><a xlink:title=" ">
<path fill="none" stroke="#63b8ff" d="M160.11,-125.24C168.73,-124.17 177.54,-123.09 186.27,-122.01"/>
<polygon fill="#63b8ff" stroke="#63b8ff" points="186.96,-125.45 196.46,-120.75 186.11,-118.5 186.96,-125.45"/>
</a>
</g>
</g>
<!-- Node7 -->
<g id="Node000007" class="node">
<title>Node7</title>
<g id="a_Node000007"><a xlink:href="classes_1_1alrodmue_1_1model_1_1Team.xhtml#a7301e45c0f5b85a4d03cd04e758cd97d" target="_top" xlink:title=" ">
<polygon fill="white" stroke="#666666" points="356,-78 197,-78 197,-48 356,-48 356,-78"/>
<text text-anchor="start" x="205" y="-66" font-family="Helvetica,sans-Serif" font-size="10.00">es.alrodmue.model.Team.get</text>
<text text-anchor="middle" x="276.5" y="-55" font-family="Helvetica,sans-Serif" font-size="10.00">Instance</text>
</a>
</g>
</g>
<!-- Node1&#45;&gt;Node7 -->
<g id="edge6_Node000001_Node000007" class="edge">
<title>Node1&#45;&gt;Node7</title>
<g id="a_edge6_Node000001_Node000007"><a xlink:title=" ">
<path fill="none" stroke="#63b8ff" d="M114.86,-119.79C137.58,-109.86 168.3,-96.93 196,-87 201.48,-85.04 207.2,-83.09 212.96,-81.22"/>
<polygon fill="#63b8ff" stroke="#63b8ff" points="214.19,-84.5 222.65,-78.13 212.06,-77.83 214.19,-84.5"/>
</a>
</g>
</g>
<!-- Node9 -->
<g id="Node000009" class="node">
<title>Node9</title>
<g id="a_Node000009"><a xlink:href="classes_1_1alrodmue_1_1controller_1_1PlayerController.xhtml#a53079eb6a240e50711a917ff0663682c" target="_top" xlink:title=" ">
<polygon fill="white" stroke="#666666" points="356.5,-30 196.5,-30 196.5,0 356.5,0 356.5,-30"/>
<text text-anchor="start" x="204.5" y="-18" font-family="Helvetica,sans-Serif" font-size="10.00">es.alrodmue.controller.Player</text>
<text text-anchor="middle" x="276.5" y="-7" font-family="Helvetica,sans-Serif" font-size="10.00">Controller.showError</text>
</a>
</g>
</g>
<!-- Node1&#45;&gt;Node9 -->
<g id="edge8_Node000001_Node000009" class="edge">
<title>Node1&#45;&gt;Node9</title>
<g id="a_edge8_Node000001_Node000009"><a xlink:title=" ">
<path fill="none" stroke="#63b8ff" d="M95.17,-119.81C115.57,-98.8 155.25,-60.97 196,-39 199.3,-37.22 202.76,-35.55 206.3,-33.99"/>
<polygon fill="#63b8ff" stroke="#63b8ff" points="207.87,-37.13 215.82,-30.12 205.24,-30.65 207.87,-37.13"/>
</a>
</g>
</g>
<!-- Node6 -->
<g id="Node000006" class="node">
<title>Node6</title>
<g id="a_Node000006"><a xlink:href="classes_1_1alrodmue_1_1model_1_1factories_1_1PlayerFactory.xhtml#aa90466601c77d1dc541e04729d19146f" target="_top" xlink:title=" ">
<polygon fill="white" stroke="#666666" points="558,-126 398,-126 398,-96 558,-96 558,-126"/>
<text text-anchor="start" x="406" y="-114" font-family="Helvetica,sans-Serif" font-size="10.00">es.alrodmue.model.factories.</text>
<text text-anchor="middle" x="478" y="-103" font-family="Helvetica,sans-Serif" font-size="10.00">PlayerFactory.PlayerFactory</text>
</a>
</g>
</g>
<!-- Node5&#45;&gt;Node6 -->
<g id="edge5_Node000005_Node000006" class="edge">
<title>Node5&#45;&gt;Node6</title>
<g id="a_edge5_Node000005_Node000006"><a xlink:title=" ">
<path fill="none" stroke="#63b8ff" d="M356.63,-111C366.83,-111 377.33,-111 387.68,-111"/>
<polygon fill="#63b8ff" stroke="#63b8ff" points="387.96,-114.5 397.96,-111 387.96,-107.5 387.96,-114.5"/>
</a>
</g>
</g>
<!-- Node8 -->
<g id="Node000008" class="node">
<title>Node8</title>
<g id="a_Node000008"><a xlink:href="classes_1_1alrodmue_1_1model_1_1Team.xhtml#ae04883a5648158af96bd5f695f924359" target="_top" xlink:title=" ">
<polygon fill="white" stroke="#666666" points="563,-72.5 393,-72.5 393,-53.5 563,-53.5 563,-72.5"/>
<text text-anchor="middle" x="478" y="-60.5" font-family="Helvetica,sans-Serif" font-size="10.00">es.alrodmue.model.Team.Team</text>
</a>
</g>
</g>
<!-- Node7&#45;&gt;Node8 -->
<g id="edge7_Node000007_Node000008" class="edge">
<title>Node7&#45;&gt;Node8</title>
<g id="a_edge7_Node000007_Node000008"><a xlink:title=" ">
<path fill="none" stroke="#63b8ff" d="M356.06,-63C364.86,-63 373.88,-63 382.84,-63"/>
<polygon fill="#63b8ff" stroke="#63b8ff" points="382.92,-66.5 392.92,-63 382.92,-59.5 382.92,-66.5"/>
</a>
</g>
</g>
</g>
</svg>
