<?xml version="1.0" encoding="UTF-8" standalone="no"?>
<!DOCTYPE svg PUBLIC "-//W3C//DTD SVG 1.1//EN"
 "http://www.w3.org/Graphics/SVG/1.1/DTD/svg11.dtd">
<!-- Generated by graphviz version 2.43.0 (0)
 -->
<!-- Title: es.alrodmue.model.exceptions.PlayerInvalidDataException Pages: 1 -->
<svg width="552pt" height="249pt"
 viewBox="0.00 0.00 551.50 249.00" xmlns="http://www.w3.org/2000/svg" xmlns:xlink="http://www.w3.org/1999/xlink">
<g id="graph0" class="graph" transform="scale(1 1) rotate(0) translate(4 245)">
<title>es.alrodmue.model.exceptions.PlayerInvalidDataException</title>
<!-- Node1 -->
<g id="Node000001" class="node">
<title>Node1</title>
<g id="a_Node000001"><a xlink:title=" ">
<polygon fill="#999999" stroke="transparent" points="358.5,-156 194.5,-156 194.5,-96 358.5,-96 358.5,-156"/>
<text text-anchor="start" x="199.5" y="-144" font-family="Helvetica,sans-Serif" font-size="10.00">es.alrodmue.model.exceptions.</text>
<text text-anchor="start" x="208.5" y="-133" font-family="Helvetica,sans-Serif" font-size="10.00">PlayerInvalidDataException</text>
<text text-anchor="start" x="274.5" y="-118" font-family="Helvetica,sans-Serif" font-size="10.00"> </text>
<text text-anchor="start" x="198.5" y="-103" font-family="Helvetica,sans-Serif" font-size="10.00">+</text>
<text text-anchor="start" x="211.5" y="-103" font-family="Helvetica,sans-Serif" font-size="10.00">PlayerInvalidDataException()</text>
<polygon fill="#666666" stroke="#666666" points="194.5,-128 194.5,-128 358.5,-128 358.5,-128 194.5,-128"/>
<polygon fill="#666666" stroke="#666666" points="194.5,-113 194.5,-113 358.5,-113 358.5,-113 194.5,-113"/>
<polygon fill="none" stroke="#666666" points="194.5,-96 194.5,-156 358.5,-156 358.5,-96 194.5,-96"/>
</a>
</g>
</g>
<!-- Node3 -->
<g id="Node000003" class="node">
<title>Node3</title>
<g id="a_Node000003"><a xlink:href="classes_1_1alrodmue_1_1model_1_1exceptions_1_1PlayerInvalidHeightException.xhtml" target="_top" xlink:title=" ">
<polygon fill="white" stroke="transparent" points="173,-60 0,-60 0,0 173,0 173,-60"/>
<text text-anchor="start" x="10" y="-48" font-family="Helvetica,sans-Serif" font-size="10.00">es.alrodmue.model.exceptions.</text>
<text text-anchor="start" x="14.5" y="-37" font-family="Helvetica,sans-Serif" font-size="10.00">PlayerInvalidHeightException</text>
<text text-anchor="start" x="85" y="-22" font-family="Helvetica,sans-Serif" font-size="10.00"> </text>
<text text-anchor="start" x="4.5" y="-7" font-family="Helvetica,sans-Serif" font-size="10.00">+</text>
<text text-anchor="start" x="17.5" y="-7" font-family="Helvetica,sans-Serif" font-size="10.00">PlayerInvalidHeightException()</text>
<polygon fill="#666666" stroke="#666666" points="0.5,-32 0.5,-32 173.5,-32 173.5,-32 0.5,-32"/>
<polygon fill="#666666" stroke="#666666" points="0.5,-17 0.5,-17 173.5,-17 173.5,-17 0.5,-17"/>
<polygon fill="none" stroke="#666666" points="0,0 0,-60 173,-60 173,0 0,0"/>
</a>
</g>
</g>
<!-- Node1&#45;&gt;Node3 -->
<g id="edge2_Node000001_Node000003" class="edge">
<title>Node1&#45;&gt;Node3</title>
<g id="a_edge2_Node000001_Node000003"><a xlink:title=" ">
<path fill="none" stroke="#63b8ff" d="M208.64,-91.43C187.96,-81.19 165.4,-70.04 145.37,-60.12"/>
<polygon fill="none" stroke="#63b8ff" points="207.17,-94.6 217.68,-95.9 210.27,-88.33 207.17,-94.6"/>
</a>
</g>
</g>
<!-- Node4 -->
<g id="Node000004" class="node">
<title>Node4</title>
<g id="a_Node000004"><a xlink:href="classes_1_1alrodmue_1_1model_1_1exceptions_1_1PlayerInvalidNameException.xhtml" target="_top" xlink:title=" ">
<polygon fill="white" stroke="transparent" points="361.5,-60 191.5,-60 191.5,0 361.5,0 361.5,-60"/>
<text text-anchor="start" x="199.5" y="-48" font-family="Helvetica,sans-Serif" font-size="10.00">es.alrodmue.model.exceptions.</text>
<text text-anchor="start" x="205.5" y="-37" font-family="Helvetica,sans-Serif" font-size="10.00">PlayerInvalidNameException</text>
<text text-anchor="start" x="274.5" y="-22" font-family="Helvetica,sans-Serif" font-size="10.00"> </text>
<text text-anchor="start" x="195.5" y="-7" font-family="Helvetica,sans-Serif" font-size="10.00">+</text>
<text text-anchor="start" x="208.5" y="-7" font-family="Helvetica,sans-Serif" font-size="10.00">PlayerInvalidNameException()</text>
<polygon fill="#666666" stroke="#666666" points="191.5,-32 191.5,-32 361.5,-32 361.5,-32 191.5,-32"/>
<polygon fill="#666666" stroke="#666666" points="191.5,-17 191.5,-17 361.5,-17 361.5,-17 191.5,-17"/>
<polygon fill="none" stroke="#666666" points="191.5,0 191.5,-60 361.5,-60 361.5,0 191.5,0"/>
</a>
</g>
</g>
<!-- Node1&#45;&gt;Node4 -->
<g id="edge3_Node000001_Node000004" class="edge">
<title>Node1&#45;&gt;Node4</title>
<g id="a_edge3_Node000001_Node000004"><a xlink:title=" ">
<path fill="none" stroke="#63b8ff" d="M276.5,-85.63C276.5,-77.11 276.5,-68.25 276.5,-60.21"/>
<polygon fill="none" stroke="#63b8ff" points="273,-85.77 276.5,-95.77 280,-85.77 273,-85.77"/>
</a>
</g>
</g>
<!-- Node5 -->
<g id="Node000005" class="node">
<title>Node5</title>
<g id="a_Node000005"><a xlink:href="classes_1_1alrodmue_1_1model_1_1exceptions_1_1PlayerInvalidSkillException.xhtml" target="_top" xlink:title=" ">
<polygon fill="white" stroke="transparent" points="543.5,-60 379.5,-60 379.5,0 543.5,0 543.5,-60"/>
<text text-anchor="start" x="384.5" y="-48" font-family="Helvetica,sans-Serif" font-size="10.00">es.alrodmue.model.exceptions.</text>
<text text-anchor="start" x="395" y="-37" font-family="Helvetica,sans-Serif" font-size="10.00">PlayerInvalidSkillException</text>
<text text-anchor="start" x="459.5" y="-22" font-family="Helvetica,sans-Serif" font-size="10.00"> </text>
<text text-anchor="start" x="384" y="-7" font-family="Helvetica,sans-Serif" font-size="10.00">+</text>
<text text-anchor="start" x="397.5" y="-7" font-family="Helvetica,sans-Serif" font-size="10.00">PlayerInvalidSkillException()</text>
<polygon fill="#666666" stroke="#666666" points="379.5,-32 379.5,-32 543.5,-32 543.5,-32 379.5,-32"/>
<polygon fill="#666666" stroke="#666666" points="379.5,-17 379.5,-17 543.5,-17 543.5,-17 379.5,-17"/>
<polygon fill="none" stroke="#666666" points="379.5,0 379.5,-60 543.5,-60 543.5,0 379.5,0"/>
</a>
</g>
</g>
<!-- Node1&#45;&gt;Node5 -->
<g id="edge4_Node000001_Node000005" class="edge">
<title>Node1&#45;&gt;Node5</title>
<g id="a_edge4_Node000001_Node000005"><a xlink:title=" ">
<path fill="none" stroke="#63b8ff" d="M342.85,-91.29C362.91,-81.09 384.76,-69.99 404.18,-60.12"/>
<polygon fill="none" stroke="#63b8ff" points="341.1,-88.25 333.77,-95.9 344.27,-94.49 341.1,-88.25"/>
</a>
</g>
</g>
<!-- Node2 -->
<g id="Node000002" class="node">
<title>Node2</title>
<g id="a_Node000002"><a xlink:href="classException.xhtml" target="_top" xlink:title=" ">
<polygon fill="white" stroke="transparent" points="306,-241 247,-241 247,-192 306,-192 306,-241"/>
<text text-anchor="start" x="252.5" y="-228.5" font-family="Helvetica,sans-Serif" font-size="10.00">Exception</text>
<text text-anchor="start" x="275" y="-213.5" font-family="Helvetica,sans-Serif" font-size="10.00"> </text>
<text text-anchor="start" x="275" y="-198.5" font-family="Helvetica,sans-Serif" font-size="10.00"> </text>
<polygon fill="#666666" stroke="#666666" points="247.5,-223.5 247.5,-223.5 306.5,-223.5 306.5,-223.5 247.5,-223.5"/>
<polygon fill="#666666" stroke="#666666" points="247.5,-208.5 247.5,-208.5 306.5,-208.5 306.5,-208.5 247.5,-208.5"/>
<polygon fill="none" stroke="#666666" points="247,-192 247,-241 306,-241 306,-192 247,-192"/>
</a>
</g>
</g>
<!-- Node2&#45;&gt;Node1 -->
<g id="edge1_Node000001_Node000002" class="edge">
<title>Node2&#45;&gt;Node1</title>
<g id="a_edge1_Node000001_Node000002"><a xlink:title=" ">
<path fill="none" stroke="#63b8ff" d="M276.5,-181.55C276.5,-173.18 276.5,-164.28 276.5,-156.16"/>
<polygon fill="none" stroke="#63b8ff" points="273,-181.78 276.5,-191.78 280,-181.78 273,-181.78"/>
</a>
</g>
</g>
</g>
</svg>
