<?xml version="1.0" encoding="UTF-8" standalone="no"?>
<!DOCTYPE svg PUBLIC "-//W3C//DTD SVG 1.1//EN"
 "http://www.w3.org/Graphics/SVG/1.1/DTD/svg11.dtd">
<!-- Generated by graphviz version 2.43.0 (0)
 -->
<!-- Title: es.alrodmue.model.matches.ExhibitionMatch Pages: 1 -->
<svg width="748pt" height="995pt"
 viewBox="0.00 0.00 747.50 995.00" xmlns="http://www.w3.org/2000/svg" xmlns:xlink="http://www.w3.org/1999/xlink">
<g id="graph0" class="graph" transform="scale(1 1) rotate(0) translate(4 991)">
<title>es.alrodmue.model.matches.ExhibitionMatch</title>
<!-- Node1 -->
<g id="Node000001" class="node">
<title>Node1</title>
<g id="a_Node000001"><a xlink:title=" ">
<polygon fill="#999999" stroke="transparent" points="292,-90 139,-90 139,0 292,0 292,-90"/>
<text text-anchor="start" x="144.5" y="-78" font-family="Helvetica,sans-Serif" font-size="10.00">es.alrodmue.model.matches.</text>
<text text-anchor="start" x="176.5" y="-67" font-family="Helvetica,sans-Serif" font-size="10.00">ExhibitionMatch</text>
<text text-anchor="start" x="214" y="-52" font-family="Helvetica,sans-Serif" font-size="10.00"> </text>
<text text-anchor="start" x="151.5" y="-37" font-family="Helvetica,sans-Serif" font-size="10.00">+</text>
<text text-anchor="start" x="172.5" y="-37" font-family="Helvetica,sans-Serif" font-size="10.00">ExhibitionMatch()</text>
<text text-anchor="start" x="151.5" y="-22" font-family="Helvetica,sans-Serif" font-size="10.00">+</text>
<text text-anchor="start" x="172.5" y="-22" font-family="Helvetica,sans-Serif" font-size="10.00">getType()</text>
<text text-anchor="start" x="151.5" y="-7" font-family="Helvetica,sans-Serif" font-size="10.00">#</text>
<text text-anchor="start" x="172.5" y="-7" font-family="Helvetica,sans-Serif" font-size="10.00">isOwnTeamWinner()</text>
<polygon fill="#666666" stroke="#666666" points="139.5,-62 139.5,-62 292.5,-62 292.5,-62 139.5,-62"/>
<polygon fill="#666666" stroke="#666666" points="139.5,-47 139.5,-47 292.5,-47 292.5,-47 139.5,-47"/>
<polygon fill="none" stroke="#666666" points="139,0 139,-90 292,-90 292,0 139,0"/>
</a>
</g>
</g>
<!-- Node2 -->
<g id="Node000002" class="node">
<title>Node2</title>
<g id="a_Node000002"><a xlink:href="classes_1_1alrodmue_1_1model_1_1matches_1_1Match.xhtml" target="_top" xlink:title=" ">
<polygon fill="white" stroke="transparent" points="292,-367 139,-367 139,-127 292,-127 292,-367"/>
<text text-anchor="start" x="144.5" y="-355" font-family="Helvetica,sans-Serif" font-size="10.00">es.alrodmue.model.matches.</text>
<text text-anchor="start" x="200.5" y="-344" font-family="Helvetica,sans-Serif" font-size="10.00">Match</text>
<text text-anchor="start" x="214" y="-329" font-family="Helvetica,sans-Serif" font-size="10.00"> </text>
<text text-anchor="start" x="151.5" y="-314" font-family="Helvetica,sans-Serif" font-size="10.00">+</text>
<text text-anchor="start" x="172.5" y="-314" font-family="Helvetica,sans-Serif" font-size="10.00">Match()</text>
<text text-anchor="start" x="151.5" y="-299" font-family="Helvetica,sans-Serif" font-size="10.00">+</text>
<text text-anchor="start" x="172.5" y="-299" font-family="Helvetica,sans-Serif" font-size="10.00">getDate()</text>
<text text-anchor="start" x="151.5" y="-284" font-family="Helvetica,sans-Serif" font-size="10.00">+</text>
<text text-anchor="start" x="172.5" y="-284" font-family="Helvetica,sans-Serif" font-size="10.00">getDetails()</text>
<text text-anchor="start" x="151.5" y="-269" font-family="Helvetica,sans-Serif" font-size="10.00">+</text>
<text text-anchor="start" x="172.5" y="-269" font-family="Helvetica,sans-Serif" font-size="10.00">getFouls()</text>
<text text-anchor="start" x="151.5" y="-254" font-family="Helvetica,sans-Serif" font-size="10.00">+</text>
<text text-anchor="start" x="172.5" y="-254" font-family="Helvetica,sans-Serif" font-size="10.00">getOwnPoints()</text>
<text text-anchor="start" x="151.5" y="-239" font-family="Helvetica,sans-Serif" font-size="10.00">+</text>
<text text-anchor="start" x="172.5" y="-239" font-family="Helvetica,sans-Serif" font-size="10.00">getPlayerPoints()</text>
<text text-anchor="start" x="151.5" y="-224" font-family="Helvetica,sans-Serif" font-size="10.00">+</text>
<text text-anchor="start" x="172.5" y="-224" font-family="Helvetica,sans-Serif" font-size="10.00">getPlayers()</text>
<text text-anchor="start" x="151.5" y="-209" font-family="Helvetica,sans-Serif" font-size="10.00">+</text>
<text text-anchor="start" x="172.5" y="-209" font-family="Helvetica,sans-Serif" font-size="10.00">getRivalPoints()</text>
<text text-anchor="start" x="151.5" y="-194" font-family="Helvetica,sans-Serif" font-size="10.00">+</text>
<text text-anchor="start" x="172.5" y="-194" font-family="Helvetica,sans-Serif" font-size="10.00">getType()</text>
<text text-anchor="start" x="151.5" y="-179" font-family="Helvetica,sans-Serif" font-size="10.00">+</text>
<text text-anchor="start" x="172.5" y="-179" font-family="Helvetica,sans-Serif" font-size="10.00">getWinner()</text>
<text text-anchor="start" x="151.5" y="-164" font-family="Helvetica,sans-Serif" font-size="10.00">+</text>
<text text-anchor="start" x="172.5" y="-164" font-family="Helvetica,sans-Serif" font-size="10.00">isDateValid()</text>
<text text-anchor="start" x="151.5" y="-149" font-family="Helvetica,sans-Serif" font-size="10.00">#</text>
<text text-anchor="start" x="172.5" y="-149" font-family="Helvetica,sans-Serif" font-size="10.00">isOwnTeamWinner()</text>
<text text-anchor="start" x="151.5" y="-134" font-family="Helvetica,sans-Serif" font-size="10.00">#</text>
<text text-anchor="start" x="172.5" y="-134" font-family="Helvetica,sans-Serif" font-size="10.00">calculatePoints()</text>
<polygon fill="#666666" stroke="#666666" points="139.5,-339 139.5,-339 292.5,-339 292.5,-339 139.5,-339"/>
<polygon fill="#666666" stroke="#666666" points="139.5,-324 139.5,-324 292.5,-324 292.5,-324 139.5,-324"/>
<polygon fill="none" stroke="#666666" points="139,-127 139,-367 292,-367 292,-127 139,-127"/>
</a>
</g>
</g>
<!-- Node2&#45;&gt;Node1 -->
<g id="edge1_Node000001_Node000002" class="edge">
<title>Node2&#45;&gt;Node1</title>
<g id="a_edge1_Node000001_Node000002"><a xlink:title=" ">
<path fill="none" stroke="#63b8ff" d="M215.5,-116.62C215.5,-107.37 215.5,-98.5 215.5,-90.35"/>
<polygon fill="none" stroke="#63b8ff" points="212,-116.77 215.5,-126.77 219,-116.77 212,-116.77"/>
</a>
</g>
</g>
<!-- Node3 -->
<g id="Node000003" class="node">
<title>Node3</title>
<g id="a_Node000003"><a xlink:title=" ">
<polygon fill="white" stroke="transparent" points="59,-607 0,-607 0,-558 59,-558 59,-607"/>
<text text-anchor="start" x="5.5" y="-594.5" font-family="Helvetica,sans-Serif" font-size="10.00">LocalDate</text>
<text text-anchor="start" x="28" y="-579.5" font-family="Helvetica,sans-Serif" font-size="10.00"> </text>
<text text-anchor="start" x="28" y="-564.5" font-family="Helvetica,sans-Serif" font-size="10.00"> </text>
<polygon fill="#bfbfbf" stroke="#bfbfbf" points="0.5,-589.5 0.5,-589.5 59.5,-589.5 59.5,-589.5 0.5,-589.5"/>
<polygon fill="#bfbfbf" stroke="#bfbfbf" points="0.5,-574.5 0.5,-574.5 59.5,-574.5 59.5,-574.5 0.5,-574.5"/>
<polygon fill="none" stroke="#bfbfbf" points="0,-558 0,-607 59,-607 59,-558 0,-558"/>
</a>
</g>
</g>
<!-- Node3&#45;&gt;Node2 -->
<g id="edge2_Node000002_Node000003" class="edge">
<title>Node3&#45;&gt;Node2</title>
<g id="a_edge2_Node000002_Node000003"><a xlink:title=" ">
<path fill="none" stroke="#63b8ff" d="M31.85,-557.8C35.74,-526.1 45.4,-468.81 67.5,-425 83.95,-392.39 107.47,-360.55 130.92,-333.07"/>
<polygon fill="none" stroke="#63b8ff" points="130.99,-332.99 131.91,-325.84 138.86,-323.93 137.95,-331.08 130.99,-332.99"/>
</a>
</g>
<text text-anchor="middle" x="107.5" y="-393.5" font-family="Helvetica,sans-Serif" font-size="10.00" fill="grey"> #date</text>
</g>
<!-- Node4 -->
<g id="Node000004" class="node">
<title>Node4</title>
<g id="a_Node000004"><a xlink:title=" ">
<polygon fill="white" stroke="transparent" points="124,-607 77,-607 77,-558 124,-558 124,-607"/>
<text text-anchor="start" x="82.5" y="-594.5" font-family="Helvetica,sans-Serif" font-size="10.00">final int</text>
<text text-anchor="start" x="99" y="-579.5" font-family="Helvetica,sans-Serif" font-size="10.00"> </text>
<text text-anchor="start" x="99" y="-564.5" font-family="Helvetica,sans-Serif" font-size="10.00"> </text>
<polygon fill="#bfbfbf" stroke="#bfbfbf" points="77.5,-589.5 77.5,-589.5 124.5,-589.5 124.5,-589.5 77.5,-589.5"/>
<polygon fill="#bfbfbf" stroke="#bfbfbf" points="77.5,-574.5 77.5,-574.5 124.5,-574.5 124.5,-574.5 77.5,-574.5"/>
<polygon fill="none" stroke="#bfbfbf" points="77,-558 77,-607 124,-607 124,-558 77,-558"/>
</a>
</g>
</g>
<!-- Node4&#45;&gt;Node2 -->
<g id="edge3_Node000002_Node000004" class="edge">
<title>Node4&#45;&gt;Node2</title>
<g id="a_edge3_Node000002_Node000004"><a xlink:title=" ">
<path fill="none" stroke="#63b8ff" d="M103.83,-557.8C108.53,-526.81 118.16,-471.07 132.5,-425 137.29,-409.61 143.16,-393.85 149.54,-378.37"/>
<polygon fill="none" stroke="#63b8ff" points="149.6,-378.22 148.25,-371.14 154.27,-367.16 155.62,-374.25 149.6,-378.22"/>
</a>
</g>
<text text-anchor="middle" x="176.5" y="-399" font-family="Helvetica,sans-Serif" font-size="10.00" fill="grey"> #ownPoints</text>
<text text-anchor="middle" x="176.5" y="-388" font-family="Helvetica,sans-Serif" font-size="10.00" fill="grey">#rivalPoints</text>
</g>
<!-- Node5 -->
<g id="Node000005" class="node">
<title>Node5</title>
<g id="a_Node000005"><a xlink:href="classes_1_1alrodmue_1_1model_1_1players_1_1Player.xhtml" target="_top" xlink:title=" ">
<polygon fill="white" stroke="transparent" points="289,-740 142,-740 142,-425 289,-425 289,-740"/>
<text text-anchor="start" x="147.5" y="-727.5" font-family="Helvetica,sans-Serif" font-size="10.00">es.alrodmue.model.players.</text>
<text text-anchor="start" x="200.5" y="-716.5" font-family="Helvetica,sans-Serif" font-size="10.00">Player</text>
<text text-anchor="start" x="214" y="-701.5" font-family="Helvetica,sans-Serif" font-size="10.00"> </text>
<text text-anchor="start" x="158" y="-686.5" font-family="Helvetica,sans-Serif" font-size="10.00">+</text>
<text text-anchor="start" x="182.5" y="-686.5" font-family="Helvetica,sans-Serif" font-size="10.00">Player()</text>
<text text-anchor="start" x="158" y="-671.5" font-family="Helvetica,sans-Serif" font-size="10.00">+</text>
<text text-anchor="start" x="182.5" y="-671.5" font-family="Helvetica,sans-Serif" font-size="10.00">addFoul()</text>
<text text-anchor="start" x="158" y="-656.5" font-family="Helvetica,sans-Serif" font-size="10.00">+</text>
<text text-anchor="start" x="182.5" y="-656.5" font-family="Helvetica,sans-Serif" font-size="10.00">addPoints()</text>
<text text-anchor="start" x="158" y="-641.5" font-family="Helvetica,sans-Serif" font-size="10.00">+</text>
<text text-anchor="start" x="182.5" y="-641.5" font-family="Helvetica,sans-Serif" font-size="10.00">getDetail()</text>
<text text-anchor="start" x="158" y="-626.5" font-family="Helvetica,sans-Serif" font-size="10.00">+</text>
<text text-anchor="start" x="182.5" y="-626.5" font-family="Helvetica,sans-Serif" font-size="10.00">getFouls()</text>
<text text-anchor="start" x="158" y="-611.5" font-family="Helvetica,sans-Serif" font-size="10.00">+</text>
<text text-anchor="start" x="182.5" y="-611.5" font-family="Helvetica,sans-Serif" font-size="10.00">getHeight()</text>
<text text-anchor="start" x="158" y="-596.5" font-family="Helvetica,sans-Serif" font-size="10.00">+</text>
<text text-anchor="start" x="182.5" y="-596.5" font-family="Helvetica,sans-Serif" font-size="10.00">getName()</text>
<text text-anchor="start" x="158" y="-581.5" font-family="Helvetica,sans-Serif" font-size="10.00">+</text>
<text text-anchor="start" x="182.5" y="-581.5" font-family="Helvetica,sans-Serif" font-size="10.00">getNumber()</text>
<text text-anchor="start" x="158" y="-566.5" font-family="Helvetica,sans-Serif" font-size="10.00">+</text>
<text text-anchor="start" x="182.5" y="-566.5" font-family="Helvetica,sans-Serif" font-size="10.00">getPoints()</text>
<text text-anchor="start" x="158" y="-551.5" font-family="Helvetica,sans-Serif" font-size="10.00">+</text>
<text text-anchor="start" x="182.5" y="-551.5" font-family="Helvetica,sans-Serif" font-size="10.00">getSkill()</text>
<text text-anchor="start" x="158" y="-536.5" font-family="Helvetica,sans-Serif" font-size="10.00">+</text>
<text text-anchor="start" x="182.5" y="-536.5" font-family="Helvetica,sans-Serif" font-size="10.00">getType()</text>
<text text-anchor="start" x="158" y="-521.5" font-family="Helvetica,sans-Serif" font-size="10.00">+</text>
<text text-anchor="start" x="182.5" y="-521.5" font-family="Helvetica,sans-Serif" font-size="10.00">toString()</text>
<text text-anchor="start" x="158" y="-506.5" font-family="Helvetica,sans-Serif" font-size="10.00">+</text>
<text text-anchor="start" x="182.5" y="-506.5" font-family="Helvetica,sans-Serif" font-size="10.00">arePointsValid()</text>
<text text-anchor="start" x="158" y="-491.5" font-family="Helvetica,sans-Serif" font-size="10.00">+</text>
<text text-anchor="start" x="182.5" y="-491.5" font-family="Helvetica,sans-Serif" font-size="10.00">isFoulValid()</text>
<text text-anchor="start" x="158" y="-476.5" font-family="Helvetica,sans-Serif" font-size="10.00">+</text>
<text text-anchor="start" x="182.5" y="-476.5" font-family="Helvetica,sans-Serif" font-size="10.00">isHeightValid()</text>
<text text-anchor="start" x="158" y="-461.5" font-family="Helvetica,sans-Serif" font-size="10.00">+</text>
<text text-anchor="start" x="182.5" y="-461.5" font-family="Helvetica,sans-Serif" font-size="10.00">isNameValid()</text>
<text text-anchor="start" x="158" y="-446.5" font-family="Helvetica,sans-Serif" font-size="10.00">+</text>
<text text-anchor="start" x="182.5" y="-446.5" font-family="Helvetica,sans-Serif" font-size="10.00">isNumberValid()</text>
<text text-anchor="start" x="158" y="-431.5" font-family="Helvetica,sans-Serif" font-size="10.00">+</text>
<text text-anchor="start" x="182.5" y="-431.5" font-family="Helvetica,sans-Serif" font-size="10.00">isSkillValid()</text>
<polygon fill="#666666" stroke="#666666" points="142.5,-711.5 142.5,-711.5 289.5,-711.5 289.5,-711.5 142.5,-711.5"/>
<polygon fill="#666666" stroke="#666666" points="142.5,-696.5 142.5,-696.5 289.5,-696.5 289.5,-696.5 142.5,-696.5"/>
<polygon fill="none" stroke="#666666" points="142,-425 142,-740 289,-740 289,-425 142,-425"/>
</a>
</g>
</g>
<!-- Node5&#45;&gt;Node2 -->
<g id="edge4_Node000002_Node000005" class="edge">
<title>Node5&#45;&gt;Node2</title>
<g id="a_edge4_Node000002_Node000005"><a xlink:title=" ">
<path fill="none" stroke="#63b8ff" d="M215.5,-424.52C215.5,-409.47 215.5,-394.32 215.5,-379.55"/>
<polygon fill="none" stroke="#63b8ff" points="215.5,-379.25 211.5,-373.25 215.5,-367.25 219.5,-373.25 215.5,-379.25"/>
</a>
</g>
<text text-anchor="middle" x="245.5" y="-393.5" font-family="Helvetica,sans-Serif" font-size="10.00" fill="grey"> #playerList</text>
</g>
<!-- Node6 -->
<g id="Node000006" class="node">
<title>Node6</title>
<g id="a_Node000006"><a xlink:title=" ">
<polygon fill="white" stroke="transparent" points="115,-874.5 76,-874.5 76,-825.5 115,-825.5 115,-874.5"/>
<text text-anchor="start" x="81.5" y="-862" font-family="Helvetica,sans-Serif" font-size="10.00">String</text>
<text text-anchor="start" x="94" y="-847" font-family="Helvetica,sans-Serif" font-size="10.00"> </text>
<text text-anchor="start" x="94" y="-832" font-family="Helvetica,sans-Serif" font-size="10.00"> </text>
<polygon fill="#bfbfbf" stroke="#bfbfbf" points="76.5,-857 76.5,-857 115.5,-857 115.5,-857 76.5,-857"/>
<polygon fill="#bfbfbf" stroke="#bfbfbf" points="76.5,-842 76.5,-842 115.5,-842 115.5,-842 76.5,-842"/>
<polygon fill="none" stroke="#bfbfbf" points="76,-825.5 76,-874.5 115,-874.5 115,-825.5 76,-825.5"/>
</a>
</g>
</g>
<!-- Node6&#45;&gt;Node5 -->
<g id="edge5_Node000005_Node000006" class="edge">
<title>Node6&#45;&gt;Node5</title>
<g id="a_edge5_Node000005_Node000006"><a xlink:title=" ">
<path fill="none" stroke="#63b8ff" d="M98.74,-825.26C101.96,-806.33 107.99,-779.52 118.5,-758 122.95,-748.89 126.99,-748.51 132.5,-740 133.49,-738.47 134.48,-736.92 135.47,-735.36"/>
<polygon fill="none" stroke="#63b8ff" points="135.63,-735.12 135.4,-727.91 141.97,-724.93 142.19,-732.14 135.63,-735.12"/>
</a>
</g>
<text text-anchor="middle" x="138.5" y="-777.5" font-family="Helvetica,sans-Serif" font-size="10.00" fill="grey"> #name</text>
</g>
<!-- Node7 -->
<g id="Node000007" class="node">
<title>Node7</title>
<g id="a_Node000007"><a xlink:title=" ">
<polygon fill="white" stroke="transparent" points="163,-874.5 140,-874.5 140,-825.5 163,-825.5 163,-874.5"/>
<text text-anchor="start" x="145.5" y="-862" font-family="Helvetica,sans-Serif" font-size="10.00">int</text>
<text text-anchor="start" x="150" y="-847" font-family="Helvetica,sans-Serif" font-size="10.00"> </text>
<text text-anchor="start" x="150" y="-832" font-family="Helvetica,sans-Serif" font-size="10.00"> </text>
<polygon fill="#bfbfbf" stroke="#bfbfbf" points="140.5,-857 140.5,-857 163.5,-857 163.5,-857 140.5,-857"/>
<polygon fill="#bfbfbf" stroke="#bfbfbf" points="140.5,-842 140.5,-842 163.5,-842 163.5,-842 140.5,-842"/>
<polygon fill="none" stroke="#bfbfbf" points="140,-825.5 140,-874.5 163,-874.5 163,-825.5 140,-825.5"/>
</a>
</g>
</g>
<!-- Node7&#45;&gt;Node5 -->
<g id="edge6_Node000005_Node000007" class="edge">
<title>Node7&#45;&gt;Node5</title>
<g id="a_edge6_Node000005_Node000007"><a xlink:title=" ">
<path fill="none" stroke="#63b8ff" d="M156.48,-825.39C160.41,-806.99 166.11,-780.83 171.5,-758 171.95,-756.1 172.4,-754.2 172.85,-752.28"/>
<polygon fill="none" stroke="#63b8ff" points="172.9,-752.07 170.41,-745.31 175.7,-740.4 178.19,-747.17 172.9,-752.07"/>
</a>
</g>
<text text-anchor="middle" x="194.5" y="-794" font-family="Helvetica,sans-Serif" font-size="10.00" fill="grey"> #height</text>
<text text-anchor="middle" x="194.5" y="-783" font-family="Helvetica,sans-Serif" font-size="10.00" fill="grey">#number</text>
<text text-anchor="middle" x="194.5" y="-772" font-family="Helvetica,sans-Serif" font-size="10.00" fill="grey">#points</text>
<text text-anchor="middle" x="194.5" y="-761" font-family="Helvetica,sans-Serif" font-size="10.00" fill="grey">#skill</text>
</g>
<!-- Node8 -->
<g id="Node000008" class="node">
<title>Node8</title>
<g id="a_Node000008"><a xlink:title=" ">
<polygon fill="white" stroke="transparent" points="400,-880 181,-880 181,-820 400,-820 400,-880"/>
<text text-anchor="start" x="186.5" y="-868" font-family="Helvetica,sans-Serif" font-size="10.00">ObservableList&lt; es.alrodmue.model.fouls.</text>
<text text-anchor="start" x="275" y="-857" font-family="Helvetica,sans-Serif" font-size="10.00">Foul &gt;</text>
<text text-anchor="start" x="289" y="-842" font-family="Helvetica,sans-Serif" font-size="10.00"> </text>
<text text-anchor="start" x="289" y="-827" font-family="Helvetica,sans-Serif" font-size="10.00"> </text>
<polygon fill="#bfbfbf" stroke="#bfbfbf" points="181.5,-852 181.5,-852 400.5,-852 400.5,-852 181.5,-852"/>
<polygon fill="#bfbfbf" stroke="#bfbfbf" points="181.5,-837 181.5,-837 400.5,-837 400.5,-837 181.5,-837"/>
<polygon fill="none" stroke="#bfbfbf" points="181,-820 181,-880 400,-880 400,-820 181,-820"/>
</a>
</g>
</g>
<!-- Node8&#45;&gt;Node5 -->
<g id="edge7_Node000005_Node000008" class="edge">
<title>Node8&#45;&gt;Node5</title>
<g id="a_edge7_Node000005_Node000008"><a xlink:title=" ">
<path fill="none" stroke="#63b8ff" d="M282.26,-819.83C277.27,-802.17 270.46,-778.06 263.09,-751.96"/>
<polygon fill="none" stroke="#63b8ff" points="263.04,-751.8 257.56,-747.11 259.78,-740.25 265.26,-744.94 263.04,-751.8"/>
</a>
</g>
<text text-anchor="middle" x="294.5" y="-777.5" font-family="Helvetica,sans-Serif" font-size="10.00" fill="grey"> #fouls</text>
</g>
<!-- Node9 -->
<g id="Node000009" class="node">
<title>Node9</title>
<g id="a_Node000009"><a xlink:title=" ">
<polygon fill="white" stroke="transparent" points="332,-987 249,-987 249,-938 332,-938 332,-987"/>
<text text-anchor="start" x="254.5" y="-974.5" font-family="Helvetica,sans-Serif" font-size="10.00">ObservableList</text>
<text text-anchor="start" x="289" y="-959.5" font-family="Helvetica,sans-Serif" font-size="10.00"> </text>
<text text-anchor="start" x="289" y="-944.5" font-family="Helvetica,sans-Serif" font-size="10.00"> </text>
<polygon fill="#bfbfbf" stroke="#bfbfbf" points="249.5,-969.5 249.5,-969.5 332.5,-969.5 332.5,-969.5 249.5,-969.5"/>
<polygon fill="#bfbfbf" stroke="#bfbfbf" points="249.5,-954.5 249.5,-954.5 332.5,-954.5 332.5,-954.5 249.5,-954.5"/>
<polygon fill="none" stroke="#bfbfbf" points="249,-938 249,-987 332,-987 332,-938 249,-938"/>
</a>
</g>
</g>
<!-- Node9&#45;&gt;Node8 -->
<g id="edge8_Node000008_Node000009" class="edge">
<title>Node9&#45;&gt;Node8</title>
<g id="a_edge8_Node000008_Node000009"><a xlink:title=" ">
<path fill="none" stroke="orange" d="M290.5,-927.75C290.5,-912.56 290.5,-894.79 290.5,-880.17"/>
<polygon fill="orange" stroke="orange" points="287,-927.79 290.5,-937.79 294,-927.8 287,-927.79"/>
</a>
</g>
<text text-anchor="start" x="290.5" y="-912" font-family="Helvetica,sans-Serif" font-size="10.00" fill="grey"> &lt; es::alrodmue::model</text>
<text text-anchor="middle" x="348" y="-901" font-family="Helvetica,sans-Serif" font-size="10.00" fill="grey">::fouls::Foul &gt;</text>
</g>
<!-- Node10 -->
<g id="Node000010" class="node">
<title>Node10</title>
<g id="a_Node000010"><a xlink:title=" ">
<polygon fill="white" stroke="transparent" points="511.5,-612.5 307.5,-612.5 307.5,-552.5 511.5,-552.5 511.5,-612.5"/>
<text text-anchor="start" x="312.5" y="-600.5" font-family="Helvetica,sans-Serif" font-size="10.00">HashMap&lt; es.alrodmue.model.players.</text>
<text text-anchor="start" x="368" y="-589.5" font-family="Helvetica,sans-Serif" font-size="10.00">Player, Integer &gt;</text>
<text text-anchor="start" x="407.5" y="-574.5" font-family="Helvetica,sans-Serif" font-size="10.00"> </text>
<text text-anchor="start" x="407.5" y="-559.5" font-family="Helvetica,sans-Serif" font-size="10.00"> </text>
<polygon fill="#bfbfbf" stroke="#bfbfbf" points="307.5,-584.5 307.5,-584.5 511.5,-584.5 511.5,-584.5 307.5,-584.5"/>
<polygon fill="#bfbfbf" stroke="#bfbfbf" points="307.5,-569.5 307.5,-569.5 511.5,-569.5 511.5,-569.5 307.5,-569.5"/>
<polygon fill="none" stroke="#bfbfbf" points="307.5,-552.5 307.5,-612.5 511.5,-612.5 511.5,-552.5 307.5,-552.5"/>
</a>
</g>
</g>
<!-- Node10&#45;&gt;Node2 -->
<g id="edge9_Node000002_Node000010" class="edge">
<title>Node10&#45;&gt;Node2</title>
<g id="a_edge9_Node000002_Node000010"><a xlink:title=" ">
<path fill="none" stroke="#63b8ff" d="M392.62,-552.49C369.96,-513.53 328.23,-441.8 290.97,-377.74"/>
<polygon fill="none" stroke="#63b8ff" points="290.83,-377.49 284.35,-374.31 284.79,-367.12 291.27,-370.29 290.83,-377.49"/>
</a>
</g>
<text text-anchor="middle" x="344" y="-393.5" font-family="Helvetica,sans-Serif" font-size="10.00" fill="grey"> #playerPoints</text>
</g>
<!-- Node11 -->
<g id="Node000011" class="node">
<title>Node11</title>
<g id="a_Node000011"><a xlink:title=" ">
<polygon fill="white" stroke="transparent" points="474.5,-874.5 418.5,-874.5 418.5,-825.5 474.5,-825.5 474.5,-874.5"/>
<text text-anchor="start" x="423.5" y="-862" font-family="Helvetica,sans-Serif" font-size="10.00">HashMap</text>
<text text-anchor="start" x="444.5" y="-847" font-family="Helvetica,sans-Serif" font-size="10.00"> </text>
<text text-anchor="start" x="444.5" y="-832" font-family="Helvetica,sans-Serif" font-size="10.00"> </text>
<polygon fill="#bfbfbf" stroke="#bfbfbf" points="418.5,-857 418.5,-857 474.5,-857 474.5,-857 418.5,-857"/>
<polygon fill="#bfbfbf" stroke="#bfbfbf" points="418.5,-842 418.5,-842 474.5,-842 474.5,-842 418.5,-842"/>
<polygon fill="none" stroke="#bfbfbf" points="418.5,-825.5 418.5,-874.5 474.5,-874.5 474.5,-825.5 418.5,-825.5"/>
</a>
</g>
</g>
<!-- Node11&#45;&gt;Node10 -->
<g id="edge10_Node000010_Node000011" class="edge">
<title>Node11&#45;&gt;Node10</title>
<g id="a_edge10_Node000010_Node000011"><a xlink:title=" ">
<path fill="none" stroke="orange" d="M441.8,-815.29C434.48,-762.73 420.46,-662.15 413.55,-612.58"/>
<polygon fill="orange" stroke="orange" points="438.37,-816.02 443.22,-825.44 445.3,-815.05 438.37,-816.02"/>
</a>
</g>
<text text-anchor="start" x="439.5" y="-783" font-family="Helvetica,sans-Serif" font-size="10.00" fill="grey"> &lt; es::alrodmue::model</text>
<text text-anchor="middle" x="505" y="-772" font-family="Helvetica,sans-Serif" font-size="10.00" fill="grey">::players::Player, Integer &gt;</text>
</g>
<!-- Node12 -->
<g id="Node000012" class="node">
<title>Node12</title>
<g id="a_Node000012"><a xlink:title=" ">
<polygon fill="white" stroke="transparent" points="719.5,-612.5 529.5,-612.5 529.5,-552.5 719.5,-552.5 719.5,-612.5"/>
<text text-anchor="start" x="534.5" y="-600.5" font-family="Helvetica,sans-Serif" font-size="10.00">ArrayList&lt; es.alrodmue.model.fouls.</text>
<text text-anchor="start" x="608.5" y="-589.5" font-family="Helvetica,sans-Serif" font-size="10.00">Foul &gt;</text>
<text text-anchor="start" x="622.5" y="-574.5" font-family="Helvetica,sans-Serif" font-size="10.00"> </text>
<text text-anchor="start" x="622.5" y="-559.5" font-family="Helvetica,sans-Serif" font-size="10.00"> </text>
<polygon fill="#bfbfbf" stroke="#bfbfbf" points="529.5,-584.5 529.5,-584.5 719.5,-584.5 719.5,-584.5 529.5,-584.5"/>
<polygon fill="#bfbfbf" stroke="#bfbfbf" points="529.5,-569.5 529.5,-569.5 719.5,-569.5 719.5,-569.5 529.5,-569.5"/>
<polygon fill="none" stroke="#bfbfbf" points="529.5,-552.5 529.5,-612.5 719.5,-612.5 719.5,-552.5 529.5,-552.5"/>
</a>
</g>
</g>
<!-- Node12&#45;&gt;Node2 -->
<g id="edge11_Node000002_Node000012" class="edge">
<title>Node12&#45;&gt;Node2</title>
<g id="a_edge11_Node000002_Node000012"><a xlink:title=" ">
<path fill="none" stroke="#63b8ff" d="M610.39,-552.35C592.92,-518.55 560.53,-462.67 520.5,-425 456.44,-364.71 368.2,-316.34 303.11,-285.5"/>
<polygon fill="none" stroke="#63b8ff" points="302.93,-285.41 295.8,-286.49 292.06,-280.33 299.19,-279.25 302.93,-285.41"/>
</a>
</g>
<text text-anchor="middle" x="517.5" y="-393.5" font-family="Helvetica,sans-Serif" font-size="10.00" fill="grey"> #fouls</text>
</g>
<!-- Node13 -->
<g id="Node000013" class="node">
<title>Node13</title>
<g id="a_Node000013"><a xlink:title=" ">
<polygon fill="white" stroke="transparent" points="651.5,-874.5 597.5,-874.5 597.5,-825.5 651.5,-825.5 651.5,-874.5"/>
<text text-anchor="start" x="602.5" y="-862" font-family="Helvetica,sans-Serif" font-size="10.00">ArrayList</text>
<text text-anchor="start" x="622.5" y="-847" font-family="Helvetica,sans-Serif" font-size="10.00"> </text>
<text text-anchor="start" x="622.5" y="-832" font-family="Helvetica,sans-Serif" font-size="10.00"> </text>
<polygon fill="#bfbfbf" stroke="#bfbfbf" points="597.5,-857 597.5,-857 651.5,-857 651.5,-857 597.5,-857"/>
<polygon fill="#bfbfbf" stroke="#bfbfbf" points="597.5,-842 597.5,-842 651.5,-842 651.5,-842 597.5,-842"/>
<polygon fill="none" stroke="#bfbfbf" points="597.5,-825.5 597.5,-874.5 651.5,-874.5 651.5,-825.5 597.5,-825.5"/>
</a>
</g>
</g>
<!-- Node13&#45;&gt;Node12 -->
<g id="edge12_Node000012_Node000013" class="edge">
<title>Node13&#45;&gt;Node12</title>
<g id="a_edge12_Node000012_Node000013"><a xlink:title=" ">
<path fill="none" stroke="orange" d="M624.5,-815.29C624.5,-762.73 624.5,-662.15 624.5,-612.58"/>
<polygon fill="orange" stroke="orange" points="621,-815.44 624.5,-825.44 628,-815.44 621,-815.44"/>
</a>
</g>
<text text-anchor="start" x="624.5" y="-783" font-family="Helvetica,sans-Serif" font-size="10.00" fill="grey"> &lt; es::alrodmue::model</text>
<text text-anchor="middle" x="682" y="-772" font-family="Helvetica,sans-Serif" font-size="10.00" fill="grey">::fouls::Foul &gt;</text>
</g>
</g>
</svg>
