<?xml version="1.0" encoding="UTF-8" standalone="no"?>
<!DOCTYPE svg PUBLIC "-//W3C//DTD SVG 1.1//EN"
 "http://www.w3.org/Graphics/SVG/1.1/DTD/svg11.dtd">
<!-- Generated by graphviz version 2.43.0 (0)
 -->
<!-- Title: es.alrodmue.model.matches.Match Pages: 1 -->
<svg width="503pt" height="539pt"
 viewBox="0.00 0.00 503.00 539.00" xmlns="http://www.w3.org/2000/svg" xmlns:xlink="http://www.w3.org/1999/xlink">
<g id="graph0" class="graph" transform="scale(1 1) rotate(0) translate(4 535)">
<title>es.alrodmue.model.matches.Match</title>
<!-- Node1 -->
<g id="Node000001" class="node">
<title>Node1</title>
<g id="a_Node000001"><a xlink:title=" ">
<polygon fill="#999999" stroke="transparent" points="324,-531 171,-531 171,-141 324,-141 324,-531"/>
<text text-anchor="start" x="176.5" y="-519" font-family="Helvetica,sans-Serif" font-size="10.00">es.alrodmue.model.matches.</text>
<text text-anchor="start" x="232.5" y="-508" font-family="Helvetica,sans-Serif" font-size="10.00">Match</text>
<text text-anchor="start" x="183.5" y="-493" font-family="Helvetica,sans-Serif" font-size="10.00">#</text>
<text text-anchor="start" x="204.5" y="-493" font-family="Helvetica,sans-Serif" font-size="10.00">date</text>
<text text-anchor="start" x="183.5" y="-478" font-family="Helvetica,sans-Serif" font-size="10.00">#</text>
<text text-anchor="start" x="204.5" y="-478" font-family="Helvetica,sans-Serif" font-size="10.00">fouls</text>
<text text-anchor="start" x="183.5" y="-463" font-family="Helvetica,sans-Serif" font-size="10.00">#</text>
<text text-anchor="start" x="204.5" y="-463" font-family="Helvetica,sans-Serif" font-size="10.00">number</text>
<text text-anchor="start" x="183.5" y="-448" font-family="Helvetica,sans-Serif" font-size="10.00">#</text>
<text text-anchor="start" x="204.5" y="-448" font-family="Helvetica,sans-Serif" font-size="10.00">ownPoints</text>
<text text-anchor="start" x="183.5" y="-433" font-family="Helvetica,sans-Serif" font-size="10.00">#</text>
<text text-anchor="start" x="204.5" y="-433" font-family="Helvetica,sans-Serif" font-size="10.00">playerList</text>
<text text-anchor="start" x="183.5" y="-418" font-family="Helvetica,sans-Serif" font-size="10.00">#</text>
<text text-anchor="start" x="204.5" y="-418" font-family="Helvetica,sans-Serif" font-size="10.00">playerPoints</text>
<text text-anchor="start" x="183.5" y="-403" font-family="Helvetica,sans-Serif" font-size="10.00">#</text>
<text text-anchor="start" x="204.5" y="-403" font-family="Helvetica,sans-Serif" font-size="10.00">rivalPoints</text>
<text text-anchor="start" x="186" y="-388" font-family="Helvetica,sans-Serif" font-size="10.00">&#45;</text>
<text text-anchor="start" x="204.5" y="-388" font-family="Helvetica,sans-Serif" font-size="10.00">nextNumber</text>
<text text-anchor="start" x="183.5" y="-373" font-family="Helvetica,sans-Serif" font-size="10.00">+</text>
<text text-anchor="start" x="204.5" y="-373" font-family="Helvetica,sans-Serif" font-size="10.00">Match()</text>
<text text-anchor="start" x="183.5" y="-358" font-family="Helvetica,sans-Serif" font-size="10.00">+</text>
<text text-anchor="start" x="204.5" y="-358" font-family="Helvetica,sans-Serif" font-size="10.00">Match()</text>
<text text-anchor="start" x="183.5" y="-343" font-family="Helvetica,sans-Serif" font-size="10.00">+</text>
<text text-anchor="start" x="204.5" y="-343" font-family="Helvetica,sans-Serif" font-size="10.00">addFoul()</text>
<text text-anchor="start" x="183.5" y="-328" font-family="Helvetica,sans-Serif" font-size="10.00">+</text>
<text text-anchor="start" x="204.5" y="-328" font-family="Helvetica,sans-Serif" font-size="10.00">getDate()</text>
<text text-anchor="start" x="183.5" y="-313" font-family="Helvetica,sans-Serif" font-size="10.00">+</text>
<text text-anchor="start" x="204.5" y="-313" font-family="Helvetica,sans-Serif" font-size="10.00">getDetails()</text>
<text text-anchor="start" x="183.5" y="-298" font-family="Helvetica,sans-Serif" font-size="10.00">+</text>
<text text-anchor="start" x="204.5" y="-298" font-family="Helvetica,sans-Serif" font-size="10.00">getFouls()</text>
<text text-anchor="start" x="183.5" y="-283" font-family="Helvetica,sans-Serif" font-size="10.00">+</text>
<text text-anchor="start" x="204.5" y="-283" font-family="Helvetica,sans-Serif" font-size="10.00">getNumber()</text>
<text text-anchor="start" x="183.5" y="-268" font-family="Helvetica,sans-Serif" font-size="10.00">+</text>
<text text-anchor="start" x="204.5" y="-268" font-family="Helvetica,sans-Serif" font-size="10.00">getOwnPoints()</text>
<text text-anchor="start" x="183.5" y="-253" font-family="Helvetica,sans-Serif" font-size="10.00">+</text>
<text text-anchor="start" x="204.5" y="-253" font-family="Helvetica,sans-Serif" font-size="10.00">getPlayerPoints()</text>
<text text-anchor="start" x="183.5" y="-238" font-family="Helvetica,sans-Serif" font-size="10.00">+</text>
<text text-anchor="start" x="204.5" y="-238" font-family="Helvetica,sans-Serif" font-size="10.00">getPlayers()</text>
<text text-anchor="start" x="183.5" y="-223" font-family="Helvetica,sans-Serif" font-size="10.00">+</text>
<text text-anchor="start" x="204.5" y="-223" font-family="Helvetica,sans-Serif" font-size="10.00">getRivalPoints()</text>
<text text-anchor="start" x="183.5" y="-208" font-family="Helvetica,sans-Serif" font-size="10.00">+</text>
<text text-anchor="start" x="204.5" y="-208" font-family="Helvetica,sans-Serif" font-size="10.00">getType()</text>
<text text-anchor="start" x="183.5" y="-193" font-family="Helvetica,sans-Serif" font-size="10.00">+</text>
<text text-anchor="start" x="204.5" y="-193" font-family="Helvetica,sans-Serif" font-size="10.00">getWinner()</text>
<text text-anchor="start" x="183.5" y="-178" font-family="Helvetica,sans-Serif" font-size="10.00">+</text>
<text text-anchor="start" x="204.5" y="-178" font-family="Helvetica,sans-Serif" font-size="10.00">isDateValid()</text>
<text text-anchor="start" x="183.5" y="-163" font-family="Helvetica,sans-Serif" font-size="10.00">#</text>
<text text-anchor="start" x="204.5" y="-163" font-family="Helvetica,sans-Serif" font-size="10.00">isOwnTeamWinner()</text>
<text text-anchor="start" x="183.5" y="-148" font-family="Helvetica,sans-Serif" font-size="10.00">#</text>
<text text-anchor="start" x="204.5" y="-148" font-family="Helvetica,sans-Serif" font-size="10.00">calculatePoints()</text>
<polygon fill="#666666" stroke="#666666" points="171.5,-503 171.5,-503 324.5,-503 324.5,-503 171.5,-503"/>
<polygon fill="#666666" stroke="#666666" points="171.5,-383 171.5,-383 202.5,-383 202.5,-383 171.5,-383"/>
<polygon fill="#666666" stroke="#666666" points="202.5,-383 202.5,-383 324.5,-383 324.5,-383 202.5,-383"/>
<polygon fill="none" stroke="#666666" points="171,-141 171,-531 324,-531 324,-141 171,-141"/>
</a>
</g>
</g>
<!-- Node2 -->
<g id="Node000002" class="node">
<title>Node2</title>
<g id="a_Node000002"><a xlink:href="classes_1_1alrodmue_1_1model_1_1matches_1_1ExhibitionMatch.xhtml" target="_top" xlink:title=" ">
<polygon fill="white" stroke="transparent" points="153,-105 0,-105 0,0 153,0 153,-105"/>
<text text-anchor="start" x="5.5" y="-92.5" font-family="Helvetica,sans-Serif" font-size="10.00">es.alrodmue.model.matches.</text>
<text text-anchor="start" x="37.5" y="-81.5" font-family="Helvetica,sans-Serif" font-size="10.00">ExhibitionMatch</text>
<text text-anchor="start" x="75" y="-66.5" font-family="Helvetica,sans-Serif" font-size="10.00"> </text>
<text text-anchor="start" x="12.5" y="-51.5" font-family="Helvetica,sans-Serif" font-size="10.00">+</text>
<text text-anchor="start" x="33.5" y="-51.5" font-family="Helvetica,sans-Serif" font-size="10.00">ExhibitionMatch()</text>
<text text-anchor="start" x="12.5" y="-36.5" font-family="Helvetica,sans-Serif" font-size="10.00">+</text>
<text text-anchor="start" x="33.5" y="-36.5" font-family="Helvetica,sans-Serif" font-size="10.00">ExhibitionMatch()</text>
<text text-anchor="start" x="12.5" y="-21.5" font-family="Helvetica,sans-Serif" font-size="10.00">+</text>
<text text-anchor="start" x="33.5" y="-21.5" font-family="Helvetica,sans-Serif" font-size="10.00">getType()</text>
<text text-anchor="start" x="12.5" y="-6.5" font-family="Helvetica,sans-Serif" font-size="10.00">#</text>
<text text-anchor="start" x="33.5" y="-6.5" font-family="Helvetica,sans-Serif" font-size="10.00">isOwnTeamWinner()</text>
<polygon fill="#666666" stroke="#666666" points="0.5,-76.5 0.5,-76.5 153.5,-76.5 153.5,-76.5 0.5,-76.5"/>
<polygon fill="#666666" stroke="#666666" points="0.5,-61.5 0.5,-61.5 153.5,-61.5 153.5,-61.5 0.5,-61.5"/>
<polygon fill="none" stroke="#666666" points="0,0 0,-105 153,-105 153,0 0,0"/>
</a>
</g>
</g>
<!-- Node1&#45;&gt;Node2 -->
<g id="edge1_Node000001_Node000002" class="edge">
<title>Node1&#45;&gt;Node2</title>
<g id="a_edge1_Node000001_Node000002"><a xlink:title=" ">
<path fill="none" stroke="#63b8ff" d="M165.54,-200.08C145,-166.26 124.18,-131.99 107.85,-105.1"/>
<polygon fill="none" stroke="#63b8ff" points="162.57,-201.93 170.75,-208.66 168.55,-198.3 162.57,-201.93"/>
</a>
</g>
</g>
<!-- Node3 -->
<g id="Node000003" class="node">
<title>Node3</title>
<g id="a_Node000003"><a xlink:href="classes_1_1alrodmue_1_1model_1_1matches_1_1OfficialLocalMatch.xhtml" target="_top" xlink:title=" ">
<polygon fill="white" stroke="transparent" points="324,-105 171,-105 171,0 324,0 324,-105"/>
<text text-anchor="start" x="176.5" y="-92.5" font-family="Helvetica,sans-Serif" font-size="10.00">es.alrodmue.model.matches.</text>
<text text-anchor="start" x="202.5" y="-81.5" font-family="Helvetica,sans-Serif" font-size="10.00">OfficialLocalMatch</text>
<text text-anchor="start" x="246" y="-66.5" font-family="Helvetica,sans-Serif" font-size="10.00"> </text>
<text text-anchor="start" x="183.5" y="-51.5" font-family="Helvetica,sans-Serif" font-size="10.00">+</text>
<text text-anchor="start" x="204.5" y="-51.5" font-family="Helvetica,sans-Serif" font-size="10.00">OfficialLocalMatch()</text>
<text text-anchor="start" x="183.5" y="-36.5" font-family="Helvetica,sans-Serif" font-size="10.00">+</text>
<text text-anchor="start" x="204.5" y="-36.5" font-family="Helvetica,sans-Serif" font-size="10.00">OfficialLocalMatch()</text>
<text text-anchor="start" x="183.5" y="-21.5" font-family="Helvetica,sans-Serif" font-size="10.00">+</text>
<text text-anchor="start" x="204.5" y="-21.5" font-family="Helvetica,sans-Serif" font-size="10.00">getType()</text>
<text text-anchor="start" x="183.5" y="-6.5" font-family="Helvetica,sans-Serif" font-size="10.00">#</text>
<text text-anchor="start" x="204.5" y="-6.5" font-family="Helvetica,sans-Serif" font-size="10.00">isOwnTeamWinner()</text>
<polygon fill="#666666" stroke="#666666" points="171.5,-76.5 171.5,-76.5 324.5,-76.5 324.5,-76.5 171.5,-76.5"/>
<polygon fill="#666666" stroke="#666666" points="171.5,-61.5 171.5,-61.5 324.5,-61.5 324.5,-61.5 171.5,-61.5"/>
<polygon fill="none" stroke="#666666" points="171,0 171,-105 324,-105 324,0 171,0"/>
</a>
</g>
</g>
<!-- Node1&#45;&gt;Node3 -->
<g id="edge2_Node000001_Node000003" class="edge">
<title>Node1&#45;&gt;Node3</title>
<g id="a_edge2_Node000001_Node000003"><a xlink:title=" ">
<path fill="none" stroke="#63b8ff" d="M247.5,-130.38C247.5,-121.44 247.5,-112.94 247.5,-105.07"/>
<polygon fill="none" stroke="#63b8ff" points="244,-130.64 247.5,-140.64 251,-130.64 244,-130.64"/>
</a>
</g>
</g>
<!-- Node4 -->
<g id="Node000004" class="node">
<title>Node4</title>
<g id="a_Node000004"><a xlink:href="classes_1_1alrodmue_1_1model_1_1matches_1_1OfficialVisitorMatch.xhtml" target="_top" xlink:title=" ">
<polygon fill="white" stroke="transparent" points="495,-105 342,-105 342,0 495,0 495,-105"/>
<text text-anchor="start" x="347.5" y="-92.5" font-family="Helvetica,sans-Serif" font-size="10.00">es.alrodmue.model.matches.</text>
<text text-anchor="start" x="370.5" y="-81.5" font-family="Helvetica,sans-Serif" font-size="10.00">OfficialVisitorMatch</text>
<text text-anchor="start" x="417" y="-66.5" font-family="Helvetica,sans-Serif" font-size="10.00"> </text>
<text text-anchor="start" x="353.5" y="-51.5" font-family="Helvetica,sans-Serif" font-size="10.00">+</text>
<text text-anchor="start" x="373.5" y="-51.5" font-family="Helvetica,sans-Serif" font-size="10.00">OfficialVisitorMatch()</text>
<text text-anchor="start" x="353.5" y="-36.5" font-family="Helvetica,sans-Serif" font-size="10.00">+</text>
<text text-anchor="start" x="373.5" y="-36.5" font-family="Helvetica,sans-Serif" font-size="10.00">OfficialVisitorMatch()</text>
<text text-anchor="start" x="353.5" y="-21.5" font-family="Helvetica,sans-Serif" font-size="10.00">+</text>
<text text-anchor="start" x="373.5" y="-21.5" font-family="Helvetica,sans-Serif" font-size="10.00">getType()</text>
<text text-anchor="start" x="353.5" y="-6.5" font-family="Helvetica,sans-Serif" font-size="10.00">#</text>
<text text-anchor="start" x="373.5" y="-6.5" font-family="Helvetica,sans-Serif" font-size="10.00">isOwnTeamWinner()</text>
<polygon fill="#666666" stroke="#666666" points="342.5,-76.5 342.5,-76.5 495.5,-76.5 495.5,-76.5 342.5,-76.5"/>
<polygon fill="#666666" stroke="#666666" points="342.5,-61.5 342.5,-61.5 495.5,-61.5 495.5,-61.5 342.5,-61.5"/>
<polygon fill="none" stroke="#666666" points="342,0 342,-105 495,-105 495,0 342,0"/>
</a>
</g>
</g>
<!-- Node1&#45;&gt;Node4 -->
<g id="edge3_Node000001_Node000004" class="edge">
<title>Node1&#45;&gt;Node4</title>
<g id="a_edge3_Node000001_Node000004"><a xlink:title=" ">
<path fill="none" stroke="#63b8ff" d="M329.46,-200.08C350,-166.26 370.82,-131.99 387.15,-105.1"/>
<polygon fill="none" stroke="#63b8ff" points="326.45,-198.3 324.25,-208.66 332.43,-201.93 326.45,-198.3"/>
</a>
</g>
</g>
</g>
</svg>
