<?xml version="1.0" encoding="UTF-8" standalone="no"?>
<!DOCTYPE svg PUBLIC "-//W3C//DTD SVG 1.1//EN"
 "http://www.w3.org/Graphics/SVG/1.1/DTD/svg11.dtd">
<!-- Generated by graphviz version 2.43.0 (0)
 -->
<!-- Title: es.alrodmue.model.players.SmallForwardPlayer Pages: 1 -->
<svg width="345pt" height="682pt"
 viewBox="0.00 0.00 344.50 682.00" xmlns="http://www.w3.org/2000/svg" xmlns:xlink="http://www.w3.org/1999/xlink">
<g id="graph0" class="graph" transform="scale(1 1) rotate(0) translate(4 678)">
<title>es.alrodmue.model.players.SmallForwardPlayer</title>
<!-- Node1 -->
<g id="Node000001" class="node">
<title>Node1</title>
<g id="a_Node000001"><a xlink:title=" ">
<polygon fill="#999999" stroke="transparent" points="156,-75 9,-75 9,0 156,0 156,-75"/>
<text text-anchor="start" x="14.5" y="-62.5" font-family="Helvetica,sans-Serif" font-size="10.00">es.alrodmue.model.players.</text>
<text text-anchor="start" x="34" y="-51.5" font-family="Helvetica,sans-Serif" font-size="10.00">SmallForwardPlayer</text>
<text text-anchor="start" x="81" y="-36.5" font-family="Helvetica,sans-Serif" font-size="10.00"> </text>
<text text-anchor="start" x="18.5" y="-21.5" font-family="Helvetica,sans-Serif" font-size="10.00">+</text>
<text text-anchor="start" x="36.5" y="-21.5" font-family="Helvetica,sans-Serif" font-size="10.00">SmallForwardPlayer()</text>
<text text-anchor="start" x="18.5" y="-6.5" font-family="Helvetica,sans-Serif" font-size="10.00">+</text>
<text text-anchor="start" x="36.5" y="-6.5" font-family="Helvetica,sans-Serif" font-size="10.00">getType()</text>
<polygon fill="#666666" stroke="#666666" points="9.5,-46.5 9.5,-46.5 156.5,-46.5 156.5,-46.5 9.5,-46.5"/>
<polygon fill="#666666" stroke="#666666" points="9.5,-31.5 9.5,-31.5 156.5,-31.5 156.5,-31.5 9.5,-31.5"/>
<polygon fill="none" stroke="#666666" points="9,0 9,-75 156,-75 156,0 9,0"/>
</a>
</g>
</g>
<!-- Node2 -->
<g id="Node000002" class="node">
<title>Node2</title>
<g id="a_Node000002"><a xlink:href="classes_1_1alrodmue_1_1model_1_1players_1_1Player.xhtml" target="_top" xlink:title=" ">
<polygon fill="white" stroke="transparent" points="156,-427 9,-427 9,-112 156,-112 156,-427"/>
<text text-anchor="start" x="14.5" y="-414.5" font-family="Helvetica,sans-Serif" font-size="10.00">es.alrodmue.model.players.</text>
<text text-anchor="start" x="67.5" y="-403.5" font-family="Helvetica,sans-Serif" font-size="10.00">Player</text>
<text text-anchor="start" x="81" y="-388.5" font-family="Helvetica,sans-Serif" font-size="10.00"> </text>
<text text-anchor="start" x="25" y="-373.5" font-family="Helvetica,sans-Serif" font-size="10.00">+</text>
<text text-anchor="start" x="49.5" y="-373.5" font-family="Helvetica,sans-Serif" font-size="10.00">Player()</text>
<text text-anchor="start" x="25" y="-358.5" font-family="Helvetica,sans-Serif" font-size="10.00">+</text>
<text text-anchor="start" x="49.5" y="-358.5" font-family="Helvetica,sans-Serif" font-size="10.00">addFoul()</text>
<text text-anchor="start" x="25" y="-343.5" font-family="Helvetica,sans-Serif" font-size="10.00">+</text>
<text text-anchor="start" x="49.5" y="-343.5" font-family="Helvetica,sans-Serif" font-size="10.00">addPoints()</text>
<text text-anchor="start" x="25" y="-328.5" font-family="Helvetica,sans-Serif" font-size="10.00">+</text>
<text text-anchor="start" x="49.5" y="-328.5" font-family="Helvetica,sans-Serif" font-size="10.00">getDetail()</text>
<text text-anchor="start" x="25" y="-313.5" font-family="Helvetica,sans-Serif" font-size="10.00">+</text>
<text text-anchor="start" x="49.5" y="-313.5" font-family="Helvetica,sans-Serif" font-size="10.00">getFouls()</text>
<text text-anchor="start" x="25" y="-298.5" font-family="Helvetica,sans-Serif" font-size="10.00">+</text>
<text text-anchor="start" x="49.5" y="-298.5" font-family="Helvetica,sans-Serif" font-size="10.00">getHeight()</text>
<text text-anchor="start" x="25" y="-283.5" font-family="Helvetica,sans-Serif" font-size="10.00">+</text>
<text text-anchor="start" x="49.5" y="-283.5" font-family="Helvetica,sans-Serif" font-size="10.00">getName()</text>
<text text-anchor="start" x="25" y="-268.5" font-family="Helvetica,sans-Serif" font-size="10.00">+</text>
<text text-anchor="start" x="49.5" y="-268.5" font-family="Helvetica,sans-Serif" font-size="10.00">getNumber()</text>
<text text-anchor="start" x="25" y="-253.5" font-family="Helvetica,sans-Serif" font-size="10.00">+</text>
<text text-anchor="start" x="49.5" y="-253.5" font-family="Helvetica,sans-Serif" font-size="10.00">getPoints()</text>
<text text-anchor="start" x="25" y="-238.5" font-family="Helvetica,sans-Serif" font-size="10.00">+</text>
<text text-anchor="start" x="49.5" y="-238.5" font-family="Helvetica,sans-Serif" font-size="10.00">getSkill()</text>
<text text-anchor="start" x="25" y="-223.5" font-family="Helvetica,sans-Serif" font-size="10.00">+</text>
<text text-anchor="start" x="49.5" y="-223.5" font-family="Helvetica,sans-Serif" font-size="10.00">getType()</text>
<text text-anchor="start" x="25" y="-208.5" font-family="Helvetica,sans-Serif" font-size="10.00">+</text>
<text text-anchor="start" x="49.5" y="-208.5" font-family="Helvetica,sans-Serif" font-size="10.00">toString()</text>
<text text-anchor="start" x="25" y="-193.5" font-family="Helvetica,sans-Serif" font-size="10.00">+</text>
<text text-anchor="start" x="49.5" y="-193.5" font-family="Helvetica,sans-Serif" font-size="10.00">arePointsValid()</text>
<text text-anchor="start" x="25" y="-178.5" font-family="Helvetica,sans-Serif" font-size="10.00">+</text>
<text text-anchor="start" x="49.5" y="-178.5" font-family="Helvetica,sans-Serif" font-size="10.00">isFoulValid()</text>
<text text-anchor="start" x="25" y="-163.5" font-family="Helvetica,sans-Serif" font-size="10.00">+</text>
<text text-anchor="start" x="49.5" y="-163.5" font-family="Helvetica,sans-Serif" font-size="10.00">isHeightValid()</text>
<text text-anchor="start" x="25" y="-148.5" font-family="Helvetica,sans-Serif" font-size="10.00">+</text>
<text text-anchor="start" x="49.5" y="-148.5" font-family="Helvetica,sans-Serif" font-size="10.00">isNameValid()</text>
<text text-anchor="start" x="25" y="-133.5" font-family="Helvetica,sans-Serif" font-size="10.00">+</text>
<text text-anchor="start" x="49.5" y="-133.5" font-family="Helvetica,sans-Serif" font-size="10.00">isNumberValid()</text>
<text text-anchor="start" x="25" y="-118.5" font-family="Helvetica,sans-Serif" font-size="10.00">+</text>
<text text-anchor="start" x="49.5" y="-118.5" font-family="Helvetica,sans-Serif" font-size="10.00">isSkillValid()</text>
<polygon fill="#666666" stroke="#666666" points="9.5,-398.5 9.5,-398.5 156.5,-398.5 156.5,-398.5 9.5,-398.5"/>
<polygon fill="#666666" stroke="#666666" points="9.5,-383.5 9.5,-383.5 156.5,-383.5 156.5,-383.5 9.5,-383.5"/>
<polygon fill="none" stroke="#666666" points="9,-112 9,-427 156,-427 156,-112 9,-112"/>
</a>
</g>
</g>
<!-- Node2&#45;&gt;Node1 -->
<g id="edge1_Node000001_Node000002" class="edge">
<title>Node2&#45;&gt;Node1</title>
<g id="a_edge1_Node000001_Node000002"><a xlink:title=" ">
<path fill="none" stroke="#63b8ff" d="M82.5,-101.76C82.5,-92.21 82.5,-83.27 82.5,-75.29"/>
<polygon fill="none" stroke="#63b8ff" points="79,-101.91 82.5,-111.91 86,-101.91 79,-101.91"/>
</a>
</g>
</g>
<!-- Node3 -->
<g id="Node000003" class="node">
<title>Node3</title>
<g id="a_Node000003"><a xlink:title=" ">
<polygon fill="white" stroke="transparent" points="39,-561.5 0,-561.5 0,-512.5 39,-512.5 39,-561.5"/>
<text text-anchor="start" x="5.5" y="-549" font-family="Helvetica,sans-Serif" font-size="10.00">String</text>
<text text-anchor="start" x="18" y="-534" font-family="Helvetica,sans-Serif" font-size="10.00"> </text>
<text text-anchor="start" x="18" y="-519" font-family="Helvetica,sans-Serif" font-size="10.00"> </text>
<polygon fill="#666666" stroke="#666666" points="0.5,-544 0.5,-544 39.5,-544 39.5,-544 0.5,-544"/>
<polygon fill="#666666" stroke="#666666" points="0.5,-529 0.5,-529 39.5,-529 39.5,-529 0.5,-529"/>
<polygon fill="none" stroke="#666666" points="0,-512.5 0,-561.5 39,-561.5 39,-512.5 0,-512.5"/>
</a>
</g>
</g>
<!-- Node3&#45;&gt;Node2 -->
<g id="edge2_Node000002_Node000003" class="edge">
<title>Node3&#45;&gt;Node2</title>
<g id="a_edge2_Node000002_Node000003"><a xlink:title=" ">
<path fill="none" stroke="#63b8ff" d="M24.16,-512.37C27.85,-493.97 33.25,-467.8 38.5,-445 38.94,-443.1 39.38,-441.19 39.83,-439.27"/>
<polygon fill="none" stroke="#63b8ff" points="39.87,-439.07 37.35,-432.31 42.62,-427.39 45.14,-434.14 39.87,-439.07"/>
</a>
</g>
<text text-anchor="middle" x="58.5" y="-464.5" font-family="Helvetica,sans-Serif" font-size="10.00" fill="grey"> #name</text>
</g>
<!-- Node4 -->
<g id="Node000004" class="node">
<title>Node4</title>
<g id="a_Node000004"><a xlink:title=" ">
<polygon fill="white" stroke="transparent" points="94,-561.5 71,-561.5 71,-512.5 94,-512.5 94,-561.5"/>
<text text-anchor="start" x="76.5" y="-549" font-family="Helvetica,sans-Serif" font-size="10.00">int</text>
<text text-anchor="start" x="81" y="-534" font-family="Helvetica,sans-Serif" font-size="10.00"> </text>
<text text-anchor="start" x="81" y="-519" font-family="Helvetica,sans-Serif" font-size="10.00"> </text>
<polygon fill="#666666" stroke="#666666" points="71.5,-544 71.5,-544 94.5,-544 94.5,-544 71.5,-544"/>
<polygon fill="#666666" stroke="#666666" points="71.5,-529 71.5,-529 94.5,-529 94.5,-529 71.5,-529"/>
<polygon fill="none" stroke="#666666" points="71,-512.5 71,-561.5 94,-561.5 94,-512.5 71,-512.5"/>
</a>
</g>
</g>
<!-- Node4&#45;&gt;Node2 -->
<g id="edge3_Node000002_Node000004" class="edge">
<title>Node4&#45;&gt;Node2</title>
<g id="a_edge3_Node000002_Node000004"><a xlink:title=" ">
<path fill="none" stroke="#63b8ff" d="M82.5,-512.44C82.5,-494.54 82.5,-468.13 82.5,-439.27"/>
<polygon fill="none" stroke="#63b8ff" points="82.5,-439.22 78.5,-433.22 82.5,-427.22 86.5,-433.22 82.5,-439.22"/>
</a>
</g>
<text text-anchor="middle" x="105.5" y="-481" font-family="Helvetica,sans-Serif" font-size="10.00" fill="grey"> #height</text>
<text text-anchor="middle" x="105.5" y="-470" font-family="Helvetica,sans-Serif" font-size="10.00" fill="grey">#number</text>
<text text-anchor="middle" x="105.5" y="-459" font-family="Helvetica,sans-Serif" font-size="10.00" fill="grey">#points</text>
<text text-anchor="middle" x="105.5" y="-448" font-family="Helvetica,sans-Serif" font-size="10.00" fill="grey">#skill</text>
</g>
<!-- Node5 -->
<g id="Node000005" class="node">
<title>Node5</title>
<g id="a_Node000005"><a xlink:title=" ">
<polygon fill="white" stroke="transparent" points="331,-567 112,-567 112,-507 331,-507 331,-567"/>
<text text-anchor="start" x="117.5" y="-555" font-family="Helvetica,sans-Serif" font-size="10.00">ObservableList&lt; es.alrodmue.model.fouls.</text>
<text text-anchor="start" x="206" y="-544" font-family="Helvetica,sans-Serif" font-size="10.00">Foul &gt;</text>
<text text-anchor="start" x="220" y="-529" font-family="Helvetica,sans-Serif" font-size="10.00"> </text>
<text text-anchor="start" x="220" y="-514" font-family="Helvetica,sans-Serif" font-size="10.00"> </text>
<polygon fill="#666666" stroke="#666666" points="112.5,-539 112.5,-539 331.5,-539 331.5,-539 112.5,-539"/>
<polygon fill="#666666" stroke="#666666" points="112.5,-524 112.5,-524 331.5,-524 331.5,-524 112.5,-524"/>
<polygon fill="none" stroke="#666666" points="112,-507 112,-567 331,-567 331,-507 112,-507"/>
</a>
</g>
</g>
<!-- Node5&#45;&gt;Node2 -->
<g id="edge4_Node000002_Node000005" class="edge">
<title>Node5&#45;&gt;Node2</title>
<g id="a_edge4_Node000002_Node000005"><a xlink:title=" ">
<path fill="none" stroke="#63b8ff" d="M206.23,-506.83C195.01,-485.41 178.83,-454.49 161.84,-422.05"/>
<polygon fill="none" stroke="#63b8ff" points="161.62,-421.63 155.3,-418.17 156.06,-411 162.39,-414.46 161.62,-421.63"/>
</a>
</g>
<text text-anchor="middle" x="212.5" y="-464.5" font-family="Helvetica,sans-Serif" font-size="10.00" fill="grey"> #fouls</text>
</g>
<!-- Node6 -->
<g id="Node000006" class="node">
<title>Node6</title>
<g id="a_Node000006"><a xlink:title=" ">
<polygon fill="white" stroke="transparent" points="263,-674 180,-674 180,-625 263,-625 263,-674"/>
<text text-anchor="start" x="185.5" y="-661.5" font-family="Helvetica,sans-Serif" font-size="10.00">ObservableList</text>
<text text-anchor="start" x="220" y="-646.5" font-family="Helvetica,sans-Serif" font-size="10.00"> </text>
<text text-anchor="start" x="220" y="-631.5" font-family="Helvetica,sans-Serif" font-size="10.00"> </text>
<polygon fill="#666666" stroke="#666666" points="180.5,-656.5 180.5,-656.5 263.5,-656.5 263.5,-656.5 180.5,-656.5"/>
<polygon fill="#666666" stroke="#666666" points="180.5,-641.5 180.5,-641.5 263.5,-641.5 263.5,-641.5 180.5,-641.5"/>
<polygon fill="none" stroke="#666666" points="180,-625 180,-674 263,-674 263,-625 180,-625"/>
</a>
</g>
</g>
<!-- Node6&#45;&gt;Node5 -->
<g id="edge5_Node000005_Node000006" class="edge">
<title>Node6&#45;&gt;Node5</title>
<g id="a_edge5_Node000005_Node000006"><a xlink:title=" ">
<path fill="none" stroke="orange" d="M221.5,-614.75C221.5,-599.56 221.5,-581.79 221.5,-567.17"/>
<polygon fill="orange" stroke="orange" points="218,-614.79 221.5,-624.79 225,-614.8 218,-614.79"/>
</a>
</g>
<text text-anchor="start" x="221.5" y="-599" font-family="Helvetica,sans-Serif" font-size="10.00" fill="grey"> &lt; es::alrodmue::model</text>
<text text-anchor="middle" x="279" y="-588" font-family="Helvetica,sans-Serif" font-size="10.00" fill="grey">::fouls::Foul &gt;</text>
</g>
</g>
</svg>
