<?xml version="1.0" encoding="UTF-8" standalone="no"?>
<!DOCTYPE svg PUBLIC "-//W3C//DTD SVG 1.1//EN"
 "http://www.w3.org/Graphics/SVG/1.1/DTD/svg11.dtd">
<!-- Generated by graphviz version 2.43.0 (0)
 -->
<!-- Title: es.alrodmue.model.matches.Match Pages: 1 -->
<svg width="768pt" height="868pt"
 viewBox="0.00 0.00 767.50 868.00" xmlns="http://www.w3.org/2000/svg" xmlns:xlink="http://www.w3.org/1999/xlink">
<g id="graph0" class="graph" transform="scale(1 1) rotate(0) translate(4 864)">
<title>es.alrodmue.model.matches.Match</title>
<!-- Node1 -->
<g id="Node000001" class="node">
<title>Node1</title>
<g id="a_Node000001"><a xlink:title=" ">
<polygon fill="#999999" stroke="transparent" points="292,-240 139,-240 139,0 292,0 292,-240"/>
<text text-anchor="start" x="144.5" y="-228" font-family="Helvetica,sans-Serif" font-size="10.00">es.alrodmue.model.matches.</text>
<text text-anchor="start" x="200.5" y="-217" font-family="Helvetica,sans-Serif" font-size="10.00">Match</text>
<text text-anchor="start" x="214" y="-202" font-family="Helvetica,sans-Serif" font-size="10.00"> </text>
<text text-anchor="start" x="151.5" y="-187" font-family="Helvetica,sans-Serif" font-size="10.00">+</text>
<text text-anchor="start" x="172.5" y="-187" font-family="Helvetica,sans-Serif" font-size="10.00">Match()</text>
<text text-anchor="start" x="151.5" y="-172" font-family="Helvetica,sans-Serif" font-size="10.00">+</text>
<text text-anchor="start" x="172.5" y="-172" font-family="Helvetica,sans-Serif" font-size="10.00">getDate()</text>
<text text-anchor="start" x="151.5" y="-157" font-family="Helvetica,sans-Serif" font-size="10.00">+</text>
<text text-anchor="start" x="172.5" y="-157" font-family="Helvetica,sans-Serif" font-size="10.00">getDetails()</text>
<text text-anchor="start" x="151.5" y="-142" font-family="Helvetica,sans-Serif" font-size="10.00">+</text>
<text text-anchor="start" x="172.5" y="-142" font-family="Helvetica,sans-Serif" font-size="10.00">getFouls()</text>
<text text-anchor="start" x="151.5" y="-127" font-family="Helvetica,sans-Serif" font-size="10.00">+</text>
<text text-anchor="start" x="172.5" y="-127" font-family="Helvetica,sans-Serif" font-size="10.00">getOwnPoints()</text>
<text text-anchor="start" x="151.5" y="-112" font-family="Helvetica,sans-Serif" font-size="10.00">+</text>
<text text-anchor="start" x="172.5" y="-112" font-family="Helvetica,sans-Serif" font-size="10.00">getPlayerPoints()</text>
<text text-anchor="start" x="151.5" y="-97" font-family="Helvetica,sans-Serif" font-size="10.00">+</text>
<text text-anchor="start" x="172.5" y="-97" font-family="Helvetica,sans-Serif" font-size="10.00">getPlayers()</text>
<text text-anchor="start" x="151.5" y="-82" font-family="Helvetica,sans-Serif" font-size="10.00">+</text>
<text text-anchor="start" x="172.5" y="-82" font-family="Helvetica,sans-Serif" font-size="10.00">getRivalPoints()</text>
<text text-anchor="start" x="151.5" y="-67" font-family="Helvetica,sans-Serif" font-size="10.00">+</text>
<text text-anchor="start" x="172.5" y="-67" font-family="Helvetica,sans-Serif" font-size="10.00">getType()</text>
<text text-anchor="start" x="151.5" y="-52" font-family="Helvetica,sans-Serif" font-size="10.00">+</text>
<text text-anchor="start" x="172.5" y="-52" font-family="Helvetica,sans-Serif" font-size="10.00">getWinner()</text>
<text text-anchor="start" x="151.5" y="-37" font-family="Helvetica,sans-Serif" font-size="10.00">+</text>
<text text-anchor="start" x="172.5" y="-37" font-family="Helvetica,sans-Serif" font-size="10.00">isDateValid()</text>
<text text-anchor="start" x="151.5" y="-22" font-family="Helvetica,sans-Serif" font-size="10.00">#</text>
<text text-anchor="start" x="172.5" y="-22" font-family="Helvetica,sans-Serif" font-size="10.00">isOwnTeamWinner()</text>
<text text-anchor="start" x="151.5" y="-7" font-family="Helvetica,sans-Serif" font-size="10.00">#</text>
<text text-anchor="start" x="172.5" y="-7" font-family="Helvetica,sans-Serif" font-size="10.00">calculatePoints()</text>
<polygon fill="#666666" stroke="#666666" points="139.5,-212 139.5,-212 292.5,-212 292.5,-212 139.5,-212"/>
<polygon fill="#666666" stroke="#666666" points="139.5,-197 139.5,-197 292.5,-197 292.5,-197 139.5,-197"/>
<polygon fill="none" stroke="#666666" points="139,0 139,-240 292,-240 292,0 139,0"/>
</a>
</g>
</g>
<!-- Node2 -->
<g id="Node000002" class="node">
<title>Node2</title>
<g id="a_Node000002"><a xlink:title=" ">
<polygon fill="white" stroke="transparent" points="59,-480 0,-480 0,-431 59,-431 59,-480"/>
<text text-anchor="start" x="5.5" y="-467.5" font-family="Helvetica,sans-Serif" font-size="10.00">LocalDate</text>
<text text-anchor="start" x="28" y="-452.5" font-family="Helvetica,sans-Serif" font-size="10.00"> </text>
<text text-anchor="start" x="28" y="-437.5" font-family="Helvetica,sans-Serif" font-size="10.00"> </text>
<polygon fill="#bfbfbf" stroke="#bfbfbf" points="0.5,-462.5 0.5,-462.5 59.5,-462.5 59.5,-462.5 0.5,-462.5"/>
<polygon fill="#bfbfbf" stroke="#bfbfbf" points="0.5,-447.5 0.5,-447.5 59.5,-447.5 59.5,-447.5 0.5,-447.5"/>
<polygon fill="none" stroke="#bfbfbf" points="0,-431 0,-480 59,-480 59,-431 0,-431"/>
</a>
</g>
</g>
<!-- Node2&#45;&gt;Node1 -->
<g id="edge1_Node000001_Node000002" class="edge">
<title>Node2&#45;&gt;Node1</title>
<g id="a_edge1_Node000001_Node000002"><a xlink:title=" ">
<path fill="none" stroke="#63b8ff" d="M31.85,-430.8C35.74,-399.1 45.4,-341.81 67.5,-298 83.95,-265.39 107.47,-233.55 130.92,-206.07"/>
<polygon fill="none" stroke="#63b8ff" points="130.99,-205.99 131.91,-198.84 138.86,-196.93 137.95,-204.08 130.99,-205.99"/>
</a>
</g>
<text text-anchor="middle" x="107.5" y="-266.5" font-family="Helvetica,sans-Serif" font-size="10.00" fill="grey"> #date</text>
</g>
<!-- Node3 -->
<g id="Node000003" class="node">
<title>Node3</title>
<g id="a_Node000003"><a xlink:title=" ">
<polygon fill="white" stroke="transparent" points="124,-480 77,-480 77,-431 124,-431 124,-480"/>
<text text-anchor="start" x="82.5" y="-467.5" font-family="Helvetica,sans-Serif" font-size="10.00">final int</text>
<text text-anchor="start" x="99" y="-452.5" font-family="Helvetica,sans-Serif" font-size="10.00"> </text>
<text text-anchor="start" x="99" y="-437.5" font-family="Helvetica,sans-Serif" font-size="10.00"> </text>
<polygon fill="#bfbfbf" stroke="#bfbfbf" points="77.5,-462.5 77.5,-462.5 124.5,-462.5 124.5,-462.5 77.5,-462.5"/>
<polygon fill="#bfbfbf" stroke="#bfbfbf" points="77.5,-447.5 77.5,-447.5 124.5,-447.5 124.5,-447.5 77.5,-447.5"/>
<polygon fill="none" stroke="#bfbfbf" points="77,-431 77,-480 124,-480 124,-431 77,-431"/>
</a>
</g>
</g>
<!-- Node3&#45;&gt;Node1 -->
<g id="edge2_Node000001_Node000003" class="edge">
<title>Node3&#45;&gt;Node1</title>
<g id="a_edge2_Node000001_Node000003"><a xlink:title=" ">
<path fill="none" stroke="#63b8ff" d="M103.83,-430.8C108.53,-399.81 118.16,-344.07 132.5,-298 137.29,-282.61 143.16,-266.85 149.54,-251.37"/>
<polygon fill="none" stroke="#63b8ff" points="149.6,-251.22 148.25,-244.14 154.27,-240.16 155.62,-247.25 149.6,-251.22"/>
</a>
</g>
<text text-anchor="middle" x="176.5" y="-272" font-family="Helvetica,sans-Serif" font-size="10.00" fill="grey"> #ownPoints</text>
<text text-anchor="middle" x="176.5" y="-261" font-family="Helvetica,sans-Serif" font-size="10.00" fill="grey">#rivalPoints</text>
</g>
<!-- Node4 -->
<g id="Node000004" class="node">
<title>Node4</title>
<g id="a_Node000004"><a xlink:href="classes_1_1alrodmue_1_1model_1_1players_1_1Player.xhtml" target="_top" xlink:title=" ">
<polygon fill="white" stroke="transparent" points="289,-613 142,-613 142,-298 289,-298 289,-613"/>
<text text-anchor="start" x="147.5" y="-600.5" font-family="Helvetica,sans-Serif" font-size="10.00">es.alrodmue.model.players.</text>
<text text-anchor="start" x="200.5" y="-589.5" font-family="Helvetica,sans-Serif" font-size="10.00">Player</text>
<text text-anchor="start" x="214" y="-574.5" font-family="Helvetica,sans-Serif" font-size="10.00"> </text>
<text text-anchor="start" x="158" y="-559.5" font-family="Helvetica,sans-Serif" font-size="10.00">+</text>
<text text-anchor="start" x="182.5" y="-559.5" font-family="Helvetica,sans-Serif" font-size="10.00">Player()</text>
<text text-anchor="start" x="158" y="-544.5" font-family="Helvetica,sans-Serif" font-size="10.00">+</text>
<text text-anchor="start" x="182.5" y="-544.5" font-family="Helvetica,sans-Serif" font-size="10.00">addFoul()</text>
<text text-anchor="start" x="158" y="-529.5" font-family="Helvetica,sans-Serif" font-size="10.00">+</text>
<text text-anchor="start" x="182.5" y="-529.5" font-family="Helvetica,sans-Serif" font-size="10.00">addPoints()</text>
<text text-anchor="start" x="158" y="-514.5" font-family="Helvetica,sans-Serif" font-size="10.00">+</text>
<text text-anchor="start" x="182.5" y="-514.5" font-family="Helvetica,sans-Serif" font-size="10.00">getDetail()</text>
<text text-anchor="start" x="158" y="-499.5" font-family="Helvetica,sans-Serif" font-size="10.00">+</text>
<text text-anchor="start" x="182.5" y="-499.5" font-family="Helvetica,sans-Serif" font-size="10.00">getFouls()</text>
<text text-anchor="start" x="158" y="-484.5" font-family="Helvetica,sans-Serif" font-size="10.00">+</text>
<text text-anchor="start" x="182.5" y="-484.5" font-family="Helvetica,sans-Serif" font-size="10.00">getHeight()</text>
<text text-anchor="start" x="158" y="-469.5" font-family="Helvetica,sans-Serif" font-size="10.00">+</text>
<text text-anchor="start" x="182.5" y="-469.5" font-family="Helvetica,sans-Serif" font-size="10.00">getName()</text>
<text text-anchor="start" x="158" y="-454.5" font-family="Helvetica,sans-Serif" font-size="10.00">+</text>
<text text-anchor="start" x="182.5" y="-454.5" font-family="Helvetica,sans-Serif" font-size="10.00">getNumber()</text>
<text text-anchor="start" x="158" y="-439.5" font-family="Helvetica,sans-Serif" font-size="10.00">+</text>
<text text-anchor="start" x="182.5" y="-439.5" font-family="Helvetica,sans-Serif" font-size="10.00">getPoints()</text>
<text text-anchor="start" x="158" y="-424.5" font-family="Helvetica,sans-Serif" font-size="10.00">+</text>
<text text-anchor="start" x="182.5" y="-424.5" font-family="Helvetica,sans-Serif" font-size="10.00">getSkill()</text>
<text text-anchor="start" x="158" y="-409.5" font-family="Helvetica,sans-Serif" font-size="10.00">+</text>
<text text-anchor="start" x="182.5" y="-409.5" font-family="Helvetica,sans-Serif" font-size="10.00">getType()</text>
<text text-anchor="start" x="158" y="-394.5" font-family="Helvetica,sans-Serif" font-size="10.00">+</text>
<text text-anchor="start" x="182.5" y="-394.5" font-family="Helvetica,sans-Serif" font-size="10.00">toString()</text>
<text text-anchor="start" x="158" y="-379.5" font-family="Helvetica,sans-Serif" font-size="10.00">+</text>
<text text-anchor="start" x="182.5" y="-379.5" font-family="Helvetica,sans-Serif" font-size="10.00">arePointsValid()</text>
<text text-anchor="start" x="158" y="-364.5" font-family="Helvetica,sans-Serif" font-size="10.00">+</text>
<text text-anchor="start" x="182.5" y="-364.5" font-family="Helvetica,sans-Serif" font-size="10.00">isFoulValid()</text>
<text text-anchor="start" x="158" y="-349.5" font-family="Helvetica,sans-Serif" font-size="10.00">+</text>
<text text-anchor="start" x="182.5" y="-349.5" font-family="Helvetica,sans-Serif" font-size="10.00">isHeightValid()</text>
<text text-anchor="start" x="158" y="-334.5" font-family="Helvetica,sans-Serif" font-size="10.00">+</text>
<text text-anchor="start" x="182.5" y="-334.5" font-family="Helvetica,sans-Serif" font-size="10.00">isNameValid()</text>
<text text-anchor="start" x="158" y="-319.5" font-family="Helvetica,sans-Serif" font-size="10.00">+</text>
<text text-anchor="start" x="182.5" y="-319.5" font-family="Helvetica,sans-Serif" font-size="10.00">isNumberValid()</text>
<text text-anchor="start" x="158" y="-304.5" font-family="Helvetica,sans-Serif" font-size="10.00">+</text>
<text text-anchor="start" x="182.5" y="-304.5" font-family="Helvetica,sans-Serif" font-size="10.00">isSkillValid()</text>
<polygon fill="#666666" stroke="#666666" points="142.5,-584.5 142.5,-584.5 289.5,-584.5 289.5,-584.5 142.5,-584.5"/>
<polygon fill="#666666" stroke="#666666" points="142.5,-569.5 142.5,-569.5 289.5,-569.5 289.5,-569.5 142.5,-569.5"/>
<polygon fill="none" stroke="#666666" points="142,-298 142,-613 289,-613 289,-298 142,-298"/>
</a>
</g>
</g>
<!-- Node4&#45;&gt;Node1 -->
<g id="edge3_Node000001_Node000004" class="edge">
<title>Node4&#45;&gt;Node1</title>
<g id="a_edge3_Node000001_Node000004"><a xlink:title=" ">
<path fill="none" stroke="#63b8ff" d="M215.5,-297.52C215.5,-282.47 215.5,-267.32 215.5,-252.55"/>
<polygon fill="none" stroke="#63b8ff" points="215.5,-252.25 211.5,-246.25 215.5,-240.25 219.5,-246.25 215.5,-252.25"/>
</a>
</g>
<text text-anchor="middle" x="245.5" y="-266.5" font-family="Helvetica,sans-Serif" font-size="10.00" fill="grey"> #playerList</text>
</g>
<!-- Node5 -->
<g id="Node000005" class="node">
<title>Node5</title>
<g id="a_Node000005"><a xlink:title=" ">
<polygon fill="white" stroke="transparent" points="86,-747.5 33,-747.5 33,-698.5 86,-698.5 86,-747.5"/>
<text text-anchor="start" x="38.5" y="-735" font-family="Helvetica,sans-Serif" font-size="10.00">static int</text>
<text text-anchor="start" x="58" y="-720" font-family="Helvetica,sans-Serif" font-size="10.00"> </text>
<text text-anchor="start" x="58" y="-705" font-family="Helvetica,sans-Serif" font-size="10.00"> </text>
<polygon fill="#bfbfbf" stroke="#bfbfbf" points="33.5,-730 33.5,-730 86.5,-730 86.5,-730 33.5,-730"/>
<polygon fill="#bfbfbf" stroke="#bfbfbf" points="33.5,-715 33.5,-715 86.5,-715 86.5,-715 33.5,-715"/>
<polygon fill="none" stroke="#bfbfbf" points="33,-698.5 33,-747.5 86,-747.5 86,-698.5 33,-698.5"/>
</a>
</g>
</g>
<!-- Node5&#45;&gt;Node4 -->
<g id="edge4_Node000004_Node000005" class="edge">
<title>Node5&#45;&gt;Node4</title>
<g id="a_edge4_Node000004_Node000005"><a xlink:title=" ">
<path fill="none" stroke="#63b8ff" d="M59.25,-698.23C60.29,-677.98 64.94,-649.34 81.5,-631 97.61,-613.16 114.29,-628.69 132.5,-613 132.7,-612.82 132.91,-612.65 133.11,-612.47"/>
<polygon fill="none" stroke="#63b8ff" points="133.24,-612.35 134.85,-605.32 141.96,-604.11 140.35,-611.14 133.24,-612.35"/>
</a>
</g>
<text text-anchor="middle" x="115.5" y="-650.5" font-family="Helvetica,sans-Serif" font-size="10.00" fill="grey"> &#45;nextNumber</text>
</g>
<!-- Node6 -->
<g id="Node000006" class="node">
<title>Node6</title>
<g id="a_Node000006"><a xlink:title=" ">
<polygon fill="white" stroke="transparent" points="170,-747.5 131,-747.5 131,-698.5 170,-698.5 170,-747.5"/>
<text text-anchor="start" x="136.5" y="-735" font-family="Helvetica,sans-Serif" font-size="10.00">String</text>
<text text-anchor="start" x="149" y="-720" font-family="Helvetica,sans-Serif" font-size="10.00"> </text>
<text text-anchor="start" x="149" y="-705" font-family="Helvetica,sans-Serif" font-size="10.00"> </text>
<polygon fill="#bfbfbf" stroke="#bfbfbf" points="131.5,-730 131.5,-730 170.5,-730 170.5,-730 131.5,-730"/>
<polygon fill="#bfbfbf" stroke="#bfbfbf" points="131.5,-715 131.5,-715 170.5,-715 170.5,-715 131.5,-715"/>
<polygon fill="none" stroke="#bfbfbf" points="131,-698.5 131,-747.5 170,-747.5 170,-698.5 131,-698.5"/>
</a>
</g>
</g>
<!-- Node6&#45;&gt;Node4 -->
<g id="edge5_Node000004_Node000006" class="edge">
<title>Node6&#45;&gt;Node4</title>
<g id="a_edge5_Node000004_Node000006"><a xlink:title=" ">
<path fill="none" stroke="#63b8ff" d="M151.47,-698.22C152.56,-679.74 154.82,-653.54 159.5,-631 159.92,-628.97 160.36,-626.92 160.81,-624.87"/>
<polygon fill="none" stroke="#63b8ff" points="160.84,-624.73 158.29,-617.99 163.54,-613.04 166.09,-619.78 160.84,-624.73"/>
</a>
</g>
<text text-anchor="middle" x="179.5" y="-650.5" font-family="Helvetica,sans-Serif" font-size="10.00" fill="grey"> #name</text>
</g>
<!-- Node7 -->
<g id="Node000007" class="node">
<title>Node7</title>
<g id="a_Node000007"><a xlink:title=" ">
<polygon fill="white" stroke="transparent" points="211,-747.5 188,-747.5 188,-698.5 211,-698.5 211,-747.5"/>
<text text-anchor="start" x="193.5" y="-735" font-family="Helvetica,sans-Serif" font-size="10.00">int</text>
<text text-anchor="start" x="198" y="-720" font-family="Helvetica,sans-Serif" font-size="10.00"> </text>
<text text-anchor="start" x="198" y="-705" font-family="Helvetica,sans-Serif" font-size="10.00"> </text>
<polygon fill="#bfbfbf" stroke="#bfbfbf" points="188.5,-730 188.5,-730 211.5,-730 211.5,-730 188.5,-730"/>
<polygon fill="#bfbfbf" stroke="#bfbfbf" points="188.5,-715 188.5,-715 211.5,-715 211.5,-715 188.5,-715"/>
<polygon fill="none" stroke="#bfbfbf" points="188,-698.5 188,-747.5 211,-747.5 211,-698.5 188,-698.5"/>
</a>
</g>
</g>
<!-- Node7&#45;&gt;Node4 -->
<g id="edge6_Node000004_Node000007" class="edge">
<title>Node7&#45;&gt;Node4</title>
<g id="a_edge6_Node000004_Node000007"><a xlink:title=" ">
<path fill="none" stroke="#63b8ff" d="M200.92,-698.44C202,-680.54 203.59,-654.13 205.33,-625.27"/>
<polygon fill="none" stroke="#63b8ff" points="205.33,-625.2 201.7,-618.97 206.06,-613.22 209.69,-619.45 205.33,-625.2"/>
</a>
</g>
<text text-anchor="middle" x="228.5" y="-667" font-family="Helvetica,sans-Serif" font-size="10.00" fill="grey"> #height</text>
<text text-anchor="middle" x="228.5" y="-656" font-family="Helvetica,sans-Serif" font-size="10.00" fill="grey">#number</text>
<text text-anchor="middle" x="228.5" y="-645" font-family="Helvetica,sans-Serif" font-size="10.00" fill="grey">#points</text>
<text text-anchor="middle" x="228.5" y="-634" font-family="Helvetica,sans-Serif" font-size="10.00" fill="grey">#skill</text>
</g>
<!-- Node8 -->
<g id="Node000008" class="node">
<title>Node8</title>
<g id="a_Node000008"><a xlink:title=" ">
<polygon fill="white" stroke="transparent" points="448,-753 229,-753 229,-693 448,-693 448,-753"/>
<text text-anchor="start" x="234.5" y="-741" font-family="Helvetica,sans-Serif" font-size="10.00">ObservableList&lt; es.alrodmue.model.fouls.</text>
<text text-anchor="start" x="323" y="-730" font-family="Helvetica,sans-Serif" font-size="10.00">Foul &gt;</text>
<text text-anchor="start" x="337" y="-715" font-family="Helvetica,sans-Serif" font-size="10.00"> </text>
<text text-anchor="start" x="337" y="-700" font-family="Helvetica,sans-Serif" font-size="10.00"> </text>
<polygon fill="#bfbfbf" stroke="#bfbfbf" points="229.5,-725 229.5,-725 448.5,-725 448.5,-725 229.5,-725"/>
<polygon fill="#bfbfbf" stroke="#bfbfbf" points="229.5,-710 229.5,-710 448.5,-710 448.5,-710 229.5,-710"/>
<polygon fill="none" stroke="#bfbfbf" points="229,-693 229,-753 448,-753 448,-693 229,-693"/>
</a>
</g>
</g>
<!-- Node8&#45;&gt;Node4 -->
<g id="edge7_Node000004_Node000008" class="edge">
<title>Node8&#45;&gt;Node4</title>
<g id="a_edge7_Node000004_Node000008"><a xlink:title=" ">
<path fill="none" stroke="#63b8ff" d="M324.99,-692.83C316.73,-675.01 305.43,-650.62 293.22,-624.25"/>
<polygon fill="none" stroke="#63b8ff" points="293.16,-624.14 287.01,-620.38 288.12,-613.25 294.27,-617.02 293.16,-624.14"/>
</a>
</g>
<text text-anchor="middle" x="333.5" y="-650.5" font-family="Helvetica,sans-Serif" font-size="10.00" fill="grey"> #fouls</text>
</g>
<!-- Node9 -->
<g id="Node000009" class="node">
<title>Node9</title>
<g id="a_Node000009"><a xlink:title=" ">
<polygon fill="white" stroke="transparent" points="380,-860 297,-860 297,-811 380,-811 380,-860"/>
<text text-anchor="start" x="302.5" y="-847.5" font-family="Helvetica,sans-Serif" font-size="10.00">ObservableList</text>
<text text-anchor="start" x="337" y="-832.5" font-family="Helvetica,sans-Serif" font-size="10.00"> </text>
<text text-anchor="start" x="337" y="-817.5" font-family="Helvetica,sans-Serif" font-size="10.00"> </text>
<polygon fill="#bfbfbf" stroke="#bfbfbf" points="297.5,-842.5 297.5,-842.5 380.5,-842.5 380.5,-842.5 297.5,-842.5"/>
<polygon fill="#bfbfbf" stroke="#bfbfbf" points="297.5,-827.5 297.5,-827.5 380.5,-827.5 380.5,-827.5 297.5,-827.5"/>
<polygon fill="none" stroke="#bfbfbf" points="297,-811 297,-860 380,-860 380,-811 297,-811"/>
</a>
</g>
</g>
<!-- Node9&#45;&gt;Node8 -->
<g id="edge8_Node000008_Node000009" class="edge">
<title>Node9&#45;&gt;Node8</title>
<g id="a_edge8_Node000008_Node000009"><a xlink:title=" ">
<path fill="none" stroke="orange" d="M338.5,-800.75C338.5,-785.56 338.5,-767.79 338.5,-753.17"/>
<polygon fill="orange" stroke="orange" points="335,-800.79 338.5,-810.79 342,-800.8 335,-800.79"/>
</a>
</g>
<text text-anchor="start" x="338.5" y="-785" font-family="Helvetica,sans-Serif" font-size="10.00" fill="grey"> &lt; es::alrodmue::model</text>
<text text-anchor="middle" x="396" y="-774" font-family="Helvetica,sans-Serif" font-size="10.00" fill="grey">::fouls::Foul &gt;</text>
</g>
<!-- Node10 -->
<g id="Node000010" class="node">
<title>Node10</title>
<g id="a_Node000010"><a xlink:title=" ">
<polygon fill="white" stroke="transparent" points="524.5,-485.5 320.5,-485.5 320.5,-425.5 524.5,-425.5 524.5,-485.5"/>
<text text-anchor="start" x="325.5" y="-473.5" font-family="Helvetica,sans-Serif" font-size="10.00">HashMap&lt; es.alrodmue.model.players.</text>
<text text-anchor="start" x="381" y="-462.5" font-family="Helvetica,sans-Serif" font-size="10.00">Player, Integer &gt;</text>
<text text-anchor="start" x="420.5" y="-447.5" font-family="Helvetica,sans-Serif" font-size="10.00"> </text>
<text text-anchor="start" x="420.5" y="-432.5" font-family="Helvetica,sans-Serif" font-size="10.00"> </text>
<polygon fill="#bfbfbf" stroke="#bfbfbf" points="320.5,-457.5 320.5,-457.5 524.5,-457.5 524.5,-457.5 320.5,-457.5"/>
<polygon fill="#bfbfbf" stroke="#bfbfbf" points="320.5,-442.5 320.5,-442.5 524.5,-442.5 524.5,-442.5 320.5,-442.5"/>
<polygon fill="none" stroke="#bfbfbf" points="320.5,-425.5 320.5,-485.5 524.5,-485.5 524.5,-425.5 320.5,-425.5"/>
</a>
</g>
</g>
<!-- Node10&#45;&gt;Node1 -->
<g id="edge9_Node000001_Node000010" class="edge">
<title>Node10&#45;&gt;Node1</title>
<g id="a_edge9_Node000001_Node000010"><a xlink:title=" ">
<path fill="none" stroke="#63b8ff" d="M404.49,-425.49C380.26,-386.45 335.6,-314.5 295.78,-250.34"/>
<polygon fill="none" stroke="#63b8ff" points="295.76,-250.31 289.2,-247.32 289.43,-240.12 296,-243.1 295.76,-250.31"/>
</a>
</g>
<text text-anchor="middle" x="350" y="-266.5" font-family="Helvetica,sans-Serif" font-size="10.00" fill="grey"> #playerPoints</text>
</g>
<!-- Node11 -->
<g id="Node000011" class="node">
<title>Node11</title>
<g id="a_Node000011"><a xlink:title=" ">
<polygon fill="white" stroke="transparent" points="522.5,-747.5 466.5,-747.5 466.5,-698.5 522.5,-698.5 522.5,-747.5"/>
<text text-anchor="start" x="471.5" y="-735" font-family="Helvetica,sans-Serif" font-size="10.00">HashMap</text>
<text text-anchor="start" x="492.5" y="-720" font-family="Helvetica,sans-Serif" font-size="10.00"> </text>
<text text-anchor="start" x="492.5" y="-705" font-family="Helvetica,sans-Serif" font-size="10.00"> </text>
<polygon fill="#bfbfbf" stroke="#bfbfbf" points="466.5,-730 466.5,-730 522.5,-730 522.5,-730 466.5,-730"/>
<polygon fill="#bfbfbf" stroke="#bfbfbf" points="466.5,-715 466.5,-715 522.5,-715 522.5,-715 466.5,-715"/>
<polygon fill="none" stroke="#bfbfbf" points="466.5,-698.5 466.5,-747.5 522.5,-747.5 522.5,-698.5 466.5,-698.5"/>
</a>
</g>
</g>
<!-- Node11&#45;&gt;Node10 -->
<g id="edge10_Node000010_Node000011" class="edge">
<title>Node11&#45;&gt;Node10</title>
<g id="a_edge10_Node000010_Node000011"><a xlink:title=" ">
<path fill="none" stroke="orange" d="M485.45,-688.62C471.22,-636.15 443.86,-535.25 430.39,-485.58"/>
<polygon fill="orange" stroke="orange" points="482.12,-689.7 488.11,-698.44 488.87,-687.87 482.12,-689.7"/>
</a>
</g>
<text text-anchor="start" x="481.5" y="-656" font-family="Helvetica,sans-Serif" font-size="10.00" fill="grey"> &lt; es::alrodmue::model</text>
<text text-anchor="middle" x="547" y="-645" font-family="Helvetica,sans-Serif" font-size="10.00" fill="grey">::players::Player, Integer &gt;</text>
</g>
<!-- Node12 -->
<g id="Node000012" class="node">
<title>Node12</title>
<g id="a_Node000012"><a xlink:title=" ">
<polygon fill="white" stroke="transparent" points="738.5,-485.5 548.5,-485.5 548.5,-425.5 738.5,-425.5 738.5,-485.5"/>
<text text-anchor="start" x="553.5" y="-473.5" font-family="Helvetica,sans-Serif" font-size="10.00">ArrayList&lt; es.alrodmue.model.fouls.</text>
<text text-anchor="start" x="627.5" y="-462.5" font-family="Helvetica,sans-Serif" font-size="10.00">Foul &gt;</text>
<text text-anchor="start" x="641.5" y="-447.5" font-family="Helvetica,sans-Serif" font-size="10.00"> </text>
<text text-anchor="start" x="641.5" y="-432.5" font-family="Helvetica,sans-Serif" font-size="10.00"> </text>
<polygon fill="#bfbfbf" stroke="#bfbfbf" points="548.5,-457.5 548.5,-457.5 738.5,-457.5 738.5,-457.5 548.5,-457.5"/>
<polygon fill="#bfbfbf" stroke="#bfbfbf" points="548.5,-442.5 548.5,-442.5 738.5,-442.5 738.5,-442.5 548.5,-442.5"/>
<polygon fill="none" stroke="#bfbfbf" points="548.5,-425.5 548.5,-485.5 738.5,-485.5 738.5,-425.5 548.5,-425.5"/>
</a>
</g>
</g>
<!-- Node12&#45;&gt;Node1 -->
<g id="edge11_Node000001_Node000012" class="edge">
<title>Node12&#45;&gt;Node1</title>
<g id="a_edge11_Node000001_Node000012"><a xlink:title=" ">
<path fill="none" stroke="#63b8ff" d="M628.31,-425.27C609.58,-391.4 575.09,-335.44 533.5,-298 465,-236.33 371.31,-187.47 303.38,-156.84"/>
<polygon fill="none" stroke="#63b8ff" points="303.24,-156.78 296.13,-157.99 292.28,-151.9 299.39,-150.69 303.24,-156.78"/>
</a>
</g>
<text text-anchor="middle" x="529.5" y="-266.5" font-family="Helvetica,sans-Serif" font-size="10.00" fill="grey"> #fouls</text>
</g>
<!-- Node13 -->
<g id="Node000013" class="node">
<title>Node13</title>
<g id="a_Node000013"><a xlink:title=" ">
<polygon fill="white" stroke="transparent" points="672.5,-747.5 618.5,-747.5 618.5,-698.5 672.5,-698.5 672.5,-747.5"/>
<text text-anchor="start" x="623.5" y="-735" font-family="Helvetica,sans-Serif" font-size="10.00">ArrayList</text>
<text text-anchor="start" x="643.5" y="-720" font-family="Helvetica,sans-Serif" font-size="10.00"> </text>
<text text-anchor="start" x="643.5" y="-705" font-family="Helvetica,sans-Serif" font-size="10.00"> </text>
<polygon fill="#bfbfbf" stroke="#bfbfbf" points="618.5,-730 618.5,-730 672.5,-730 672.5,-730 618.5,-730"/>
<polygon fill="#bfbfbf" stroke="#bfbfbf" points="618.5,-715 618.5,-715 672.5,-715 672.5,-715 618.5,-715"/>
<polygon fill="none" stroke="#bfbfbf" points="618.5,-698.5 618.5,-747.5 672.5,-747.5 672.5,-698.5 618.5,-698.5"/>
</a>
</g>
</g>
<!-- Node13&#45;&gt;Node12 -->
<g id="edge12_Node000012_Node000013" class="edge">
<title>Node13&#45;&gt;Node12</title>
<g id="a_edge12_Node000012_Node000013"><a xlink:title=" ">
<path fill="none" stroke="orange" d="M645.25,-688.29C644.85,-635.73 644.09,-535.15 643.72,-485.58"/>
<polygon fill="orange" stroke="orange" points="641.75,-688.47 645.32,-698.44 648.75,-688.41 641.75,-688.47"/>
</a>
</g>
<text text-anchor="start" x="644.5" y="-656" font-family="Helvetica,sans-Serif" font-size="10.00" fill="grey"> &lt; es::alrodmue::model</text>
<text text-anchor="middle" x="702" y="-645" font-family="Helvetica,sans-Serif" font-size="10.00" fill="grey">::fouls::Foul &gt;</text>
</g>
</g>
</svg>
