<?xml version="1.0" encoding="UTF-8" standalone="no"?>
<!DOCTYPE svg PUBLIC "-//W3C//DTD SVG 1.1//EN"
 "http://www.w3.org/Graphics/SVG/1.1/DTD/svg11.dtd">
<!-- Generated by graphviz version 2.43.0 (0)
 -->
<!-- Title: es.alrodmue.model.matches.OfficialLocalMatch Pages: 1 -->
<svg width="869pt" height="1081pt"
 viewBox="0.00 0.00 869.41 1081.00" xmlns="http://www.w3.org/2000/svg" xmlns:xlink="http://www.w3.org/1999/xlink">
<g id="graph0" class="graph" transform="scale(1 1) rotate(0) translate(4 1077)">
<title>es.alrodmue.model.matches.OfficialLocalMatch</title>
<!-- Node1 -->
<g id="Node000001" class="node">
<title>Node1</title>
<g id="a_Node000001"><a xlink:title=" ">
<polygon fill="#999999" stroke="transparent" points="418.91,-105 265.91,-105 265.91,0 418.91,0 418.91,-105"/>
<text text-anchor="start" x="271.41" y="-92.5" font-family="Helvetica,sans-Serif" font-size="10.00">es.alrodmue.model.matches.</text>
<text text-anchor="start" x="297.41" y="-81.5" font-family="Helvetica,sans-Serif" font-size="10.00">OfficialLocalMatch</text>
<text text-anchor="start" x="340.91" y="-66.5" font-family="Helvetica,sans-Serif" font-size="10.00"> </text>
<text text-anchor="start" x="278.41" y="-51.5" font-family="Helvetica,sans-Serif" font-size="10.00">+</text>
<text text-anchor="start" x="299.41" y="-51.5" font-family="Helvetica,sans-Serif" font-size="10.00">OfficialLocalMatch()</text>
<text text-anchor="start" x="278.41" y="-36.5" font-family="Helvetica,sans-Serif" font-size="10.00">+</text>
<text text-anchor="start" x="299.41" y="-36.5" font-family="Helvetica,sans-Serif" font-size="10.00">OfficialLocalMatch()</text>
<text text-anchor="start" x="278.41" y="-21.5" font-family="Helvetica,sans-Serif" font-size="10.00">+</text>
<text text-anchor="start" x="299.41" y="-21.5" font-family="Helvetica,sans-Serif" font-size="10.00">getType()</text>
<text text-anchor="start" x="278.41" y="-6.5" font-family="Helvetica,sans-Serif" font-size="10.00">#</text>
<text text-anchor="start" x="299.41" y="-6.5" font-family="Helvetica,sans-Serif" font-size="10.00">isOwnTeamWinner()</text>
<polygon fill="#666666" stroke="#666666" points="266.41,-76.5 266.41,-76.5 419.41,-76.5 419.41,-76.5 266.41,-76.5"/>
<polygon fill="#666666" stroke="#666666" points="266.41,-61.5 266.41,-61.5 419.41,-61.5 419.41,-61.5 266.41,-61.5"/>
<polygon fill="none" stroke="#666666" points="265.91,0 265.91,-105 418.91,-105 418.91,0 265.91,0"/>
</a>
</g>
</g>
<!-- Node2 -->
<g id="Node000002" class="node">
<title>Node2</title>
<g id="a_Node000002"><a xlink:href="classes_1_1alrodmue_1_1model_1_1matches_1_1Match.xhtml" target="_top" xlink:title=" ">
<polygon fill="white" stroke="transparent" points="418.91,-427 265.91,-427 265.91,-142 418.91,-142 418.91,-427"/>
<text text-anchor="start" x="271.41" y="-414.5" font-family="Helvetica,sans-Serif" font-size="10.00">es.alrodmue.model.matches.</text>
<text text-anchor="start" x="327.41" y="-403.5" font-family="Helvetica,sans-Serif" font-size="10.00">Match</text>
<text text-anchor="start" x="340.91" y="-388.5" font-family="Helvetica,sans-Serif" font-size="10.00"> </text>
<text text-anchor="start" x="278.41" y="-373.5" font-family="Helvetica,sans-Serif" font-size="10.00">+</text>
<text text-anchor="start" x="299.41" y="-373.5" font-family="Helvetica,sans-Serif" font-size="10.00">Match()</text>
<text text-anchor="start" x="278.41" y="-358.5" font-family="Helvetica,sans-Serif" font-size="10.00">+</text>
<text text-anchor="start" x="299.41" y="-358.5" font-family="Helvetica,sans-Serif" font-size="10.00">Match()</text>
<text text-anchor="start" x="278.41" y="-343.5" font-family="Helvetica,sans-Serif" font-size="10.00">+</text>
<text text-anchor="start" x="299.41" y="-343.5" font-family="Helvetica,sans-Serif" font-size="10.00">addFoul()</text>
<text text-anchor="start" x="278.41" y="-328.5" font-family="Helvetica,sans-Serif" font-size="10.00">+</text>
<text text-anchor="start" x="299.41" y="-328.5" font-family="Helvetica,sans-Serif" font-size="10.00">getDate()</text>
<text text-anchor="start" x="278.41" y="-313.5" font-family="Helvetica,sans-Serif" font-size="10.00">+</text>
<text text-anchor="start" x="299.41" y="-313.5" font-family="Helvetica,sans-Serif" font-size="10.00">getDetails()</text>
<text text-anchor="start" x="278.41" y="-298.5" font-family="Helvetica,sans-Serif" font-size="10.00">+</text>
<text text-anchor="start" x="299.41" y="-298.5" font-family="Helvetica,sans-Serif" font-size="10.00">getFouls()</text>
<text text-anchor="start" x="278.41" y="-283.5" font-family="Helvetica,sans-Serif" font-size="10.00">+</text>
<text text-anchor="start" x="299.41" y="-283.5" font-family="Helvetica,sans-Serif" font-size="10.00">getNumber()</text>
<text text-anchor="start" x="278.41" y="-268.5" font-family="Helvetica,sans-Serif" font-size="10.00">+</text>
<text text-anchor="start" x="299.41" y="-268.5" font-family="Helvetica,sans-Serif" font-size="10.00">getOwnPoints()</text>
<text text-anchor="start" x="278.41" y="-253.5" font-family="Helvetica,sans-Serif" font-size="10.00">+</text>
<text text-anchor="start" x="299.41" y="-253.5" font-family="Helvetica,sans-Serif" font-size="10.00">getPlayerPoints()</text>
<text text-anchor="start" x="278.41" y="-238.5" font-family="Helvetica,sans-Serif" font-size="10.00">+</text>
<text text-anchor="start" x="299.41" y="-238.5" font-family="Helvetica,sans-Serif" font-size="10.00">getPlayers()</text>
<text text-anchor="start" x="278.41" y="-223.5" font-family="Helvetica,sans-Serif" font-size="10.00">+</text>
<text text-anchor="start" x="299.41" y="-223.5" font-family="Helvetica,sans-Serif" font-size="10.00">getRivalPoints()</text>
<text text-anchor="start" x="278.41" y="-208.5" font-family="Helvetica,sans-Serif" font-size="10.00">+</text>
<text text-anchor="start" x="299.41" y="-208.5" font-family="Helvetica,sans-Serif" font-size="10.00">getType()</text>
<text text-anchor="start" x="278.41" y="-193.5" font-family="Helvetica,sans-Serif" font-size="10.00">+</text>
<text text-anchor="start" x="299.41" y="-193.5" font-family="Helvetica,sans-Serif" font-size="10.00">getWinner()</text>
<text text-anchor="start" x="278.41" y="-178.5" font-family="Helvetica,sans-Serif" font-size="10.00">+</text>
<text text-anchor="start" x="299.41" y="-178.5" font-family="Helvetica,sans-Serif" font-size="10.00">isDateValid()</text>
<text text-anchor="start" x="278.41" y="-163.5" font-family="Helvetica,sans-Serif" font-size="10.00">#</text>
<text text-anchor="start" x="299.41" y="-163.5" font-family="Helvetica,sans-Serif" font-size="10.00">isOwnTeamWinner()</text>
<text text-anchor="start" x="278.41" y="-148.5" font-family="Helvetica,sans-Serif" font-size="10.00">#</text>
<text text-anchor="start" x="299.41" y="-148.5" font-family="Helvetica,sans-Serif" font-size="10.00">calculatePoints()</text>
<polygon fill="#666666" stroke="#666666" points="266.41,-398.5 266.41,-398.5 419.41,-398.5 419.41,-398.5 266.41,-398.5"/>
<polygon fill="#666666" stroke="#666666" points="266.41,-383.5 266.41,-383.5 419.41,-383.5 419.41,-383.5 266.41,-383.5"/>
<polygon fill="none" stroke="#666666" points="265.91,-142 265.91,-427 418.91,-427 418.91,-142 265.91,-142"/>
</a>
</g>
</g>
<!-- Node2&#45;&gt;Node1 -->
<g id="edge1_Node000001_Node000002" class="edge">
<title>Node2&#45;&gt;Node1</title>
<g id="a_edge1_Node000001_Node000002"><a xlink:title=" ">
<path fill="none" stroke="#63b8ff" d="M342.41,-131.57C342.41,-122.29 342.41,-113.36 342.41,-105.08"/>
<polygon fill="none" stroke="#63b8ff" points="338.91,-131.77 342.41,-141.77 345.91,-131.77 338.91,-131.77"/>
</a>
</g>
</g>
<!-- Node3 -->
<g id="Node000003" class="node">
<title>Node3</title>
<g id="a_Node000003"><a xlink:title=" ">
<polygon fill="white" stroke="transparent" points="72.91,-960.5 19.91,-960.5 19.91,-911.5 72.91,-911.5 72.91,-960.5"/>
<text text-anchor="start" x="25.41" y="-948" font-family="Helvetica,sans-Serif" font-size="10.00">static int</text>
<text text-anchor="start" x="44.91" y="-933" font-family="Helvetica,sans-Serif" font-size="10.00"> </text>
<text text-anchor="start" x="44.91" y="-918" font-family="Helvetica,sans-Serif" font-size="10.00"> </text>
<polygon fill="#666666" stroke="#666666" points="20.41,-943 20.41,-943 73.41,-943 73.41,-943 20.41,-943"/>
<polygon fill="#666666" stroke="#666666" points="20.41,-928 20.41,-928 73.41,-928 73.41,-928 20.41,-928"/>
<polygon fill="none" stroke="#666666" points="19.91,-911.5 19.91,-960.5 72.91,-960.5 72.91,-911.5 19.91,-911.5"/>
</a>
</g>
</g>
<!-- Node3&#45;&gt;Node2 -->
<g id="edge2_Node000002_Node000003" class="edge">
<title>Node3&#45;&gt;Node2</title>
<g id="a_edge2_Node000002_Node000003"><a xlink:title=" ">
<path fill="none" stroke="#63b8ff" d="M38.53,-911.31C17.09,-842.37 -35.88,-637.8 38.41,-496 83.6,-409.73 182,-351.78 254.66,-318.89"/>
<polygon fill="none" stroke="#63b8ff" points="254.67,-318.88 258.53,-312.8 265.64,-314.02 261.78,-320.11 254.67,-318.88"/>
</a>
</g>
<text text-anchor="middle" x="72.41" y="-658.5" font-family="Helvetica,sans-Serif" font-size="10.00" fill="grey"> &#45;nextNumber</text>
</g>
<!-- Node6 -->
<g id="Node000006" class="node">
<title>Node6</title>
<g id="a_Node000006"><a xlink:href="classes_1_1alrodmue_1_1model_1_1players_1_1Player.xhtml" target="_top" xlink:title=" ">
<polygon fill="white" stroke="transparent" points="262.91,-826 115.91,-826 115.91,-496 262.91,-496 262.91,-826"/>
<text text-anchor="start" x="121.41" y="-814" font-family="Helvetica,sans-Serif" font-size="10.00">es.alrodmue.model.players.</text>
<text text-anchor="start" x="174.41" y="-803" font-family="Helvetica,sans-Serif" font-size="10.00">Player</text>
<text text-anchor="start" x="187.91" y="-788" font-family="Helvetica,sans-Serif" font-size="10.00"> </text>
<text text-anchor="start" x="131.91" y="-773" font-family="Helvetica,sans-Serif" font-size="10.00">+</text>
<text text-anchor="start" x="156.41" y="-773" font-family="Helvetica,sans-Serif" font-size="10.00">Player()</text>
<text text-anchor="start" x="131.91" y="-758" font-family="Helvetica,sans-Serif" font-size="10.00">+</text>
<text text-anchor="start" x="156.41" y="-758" font-family="Helvetica,sans-Serif" font-size="10.00">Player()</text>
<text text-anchor="start" x="131.91" y="-743" font-family="Helvetica,sans-Serif" font-size="10.00">+</text>
<text text-anchor="start" x="156.41" y="-743" font-family="Helvetica,sans-Serif" font-size="10.00">addFoul()</text>
<text text-anchor="start" x="131.91" y="-728" font-family="Helvetica,sans-Serif" font-size="10.00">+</text>
<text text-anchor="start" x="156.41" y="-728" font-family="Helvetica,sans-Serif" font-size="10.00">addPoints()</text>
<text text-anchor="start" x="131.91" y="-713" font-family="Helvetica,sans-Serif" font-size="10.00">+</text>
<text text-anchor="start" x="156.41" y="-713" font-family="Helvetica,sans-Serif" font-size="10.00">getDetail()</text>
<text text-anchor="start" x="131.91" y="-698" font-family="Helvetica,sans-Serif" font-size="10.00">+</text>
<text text-anchor="start" x="156.41" y="-698" font-family="Helvetica,sans-Serif" font-size="10.00">getFouls()</text>
<text text-anchor="start" x="131.91" y="-683" font-family="Helvetica,sans-Serif" font-size="10.00">+</text>
<text text-anchor="start" x="156.41" y="-683" font-family="Helvetica,sans-Serif" font-size="10.00">getHeight()</text>
<text text-anchor="start" x="131.91" y="-668" font-family="Helvetica,sans-Serif" font-size="10.00">+</text>
<text text-anchor="start" x="156.41" y="-668" font-family="Helvetica,sans-Serif" font-size="10.00">getName()</text>
<text text-anchor="start" x="131.91" y="-653" font-family="Helvetica,sans-Serif" font-size="10.00">+</text>
<text text-anchor="start" x="156.41" y="-653" font-family="Helvetica,sans-Serif" font-size="10.00">getNumber()</text>
<text text-anchor="start" x="131.91" y="-638" font-family="Helvetica,sans-Serif" font-size="10.00">+</text>
<text text-anchor="start" x="156.41" y="-638" font-family="Helvetica,sans-Serif" font-size="10.00">getPoints()</text>
<text text-anchor="start" x="131.91" y="-623" font-family="Helvetica,sans-Serif" font-size="10.00">+</text>
<text text-anchor="start" x="156.41" y="-623" font-family="Helvetica,sans-Serif" font-size="10.00">getSkill()</text>
<text text-anchor="start" x="131.91" y="-608" font-family="Helvetica,sans-Serif" font-size="10.00">+</text>
<text text-anchor="start" x="156.41" y="-608" font-family="Helvetica,sans-Serif" font-size="10.00">getType()</text>
<text text-anchor="start" x="131.91" y="-593" font-family="Helvetica,sans-Serif" font-size="10.00">+</text>
<text text-anchor="start" x="156.41" y="-593" font-family="Helvetica,sans-Serif" font-size="10.00">toString()</text>
<text text-anchor="start" x="131.91" y="-578" font-family="Helvetica,sans-Serif" font-size="10.00">+</text>
<text text-anchor="start" x="156.41" y="-578" font-family="Helvetica,sans-Serif" font-size="10.00">arePointsValid()</text>
<text text-anchor="start" x="131.91" y="-563" font-family="Helvetica,sans-Serif" font-size="10.00">+</text>
<text text-anchor="start" x="156.41" y="-563" font-family="Helvetica,sans-Serif" font-size="10.00">isFoulValid()</text>
<text text-anchor="start" x="131.91" y="-548" font-family="Helvetica,sans-Serif" font-size="10.00">+</text>
<text text-anchor="start" x="156.41" y="-548" font-family="Helvetica,sans-Serif" font-size="10.00">isHeightValid()</text>
<text text-anchor="start" x="131.91" y="-533" font-family="Helvetica,sans-Serif" font-size="10.00">+</text>
<text text-anchor="start" x="156.41" y="-533" font-family="Helvetica,sans-Serif" font-size="10.00">isNameValid()</text>
<text text-anchor="start" x="131.91" y="-518" font-family="Helvetica,sans-Serif" font-size="10.00">+</text>
<text text-anchor="start" x="156.41" y="-518" font-family="Helvetica,sans-Serif" font-size="10.00">isNumberValid()</text>
<text text-anchor="start" x="131.91" y="-503" font-family="Helvetica,sans-Serif" font-size="10.00">+</text>
<text text-anchor="start" x="156.41" y="-503" font-family="Helvetica,sans-Serif" font-size="10.00">isSkillValid()</text>
<polygon fill="#666666" stroke="#666666" points="116.41,-798 116.41,-798 263.41,-798 263.41,-798 116.41,-798"/>
<polygon fill="#666666" stroke="#666666" points="116.41,-783 116.41,-783 263.41,-783 263.41,-783 116.41,-783"/>
<polygon fill="none" stroke="#666666" points="115.91,-496 115.91,-826 262.91,-826 262.91,-496 115.91,-496"/>
</a>
</g>
</g>
<!-- Node3&#45;&gt;Node6 -->
<g id="edge6_Node000006_Node000003" class="edge">
<title>Node3&#45;&gt;Node6</title>
<g id="a_edge6_Node000006_Node000003"><a xlink:title=" ">
<path fill="none" stroke="#63b8ff" d="M55.23,-911.42C62.69,-892.59 74.26,-865.82 87.41,-844 92.64,-835.32 95.88,-834.5 101.41,-826 104.13,-821.81 106.85,-817.53 109.55,-813.18"/>
<polygon fill="none" stroke="#63b8ff" points="109.56,-813.17 109.27,-805.96 115.82,-802.93 116.1,-810.13 109.56,-813.17"/>
</a>
</g>
<text text-anchor="middle" x="121.41" y="-863.5" font-family="Helvetica,sans-Serif" font-size="10.00" fill="grey"> &#45;nextNumber</text>
</g>
<!-- Node4 -->
<g id="Node000004" class="node">
<title>Node4</title>
<g id="a_Node000004"><a xlink:title=" ">
<polygon fill="white" stroke="transparent" points="327.91,-685.5 280.91,-685.5 280.91,-636.5 327.91,-636.5 327.91,-685.5"/>
<text text-anchor="start" x="286.41" y="-673" font-family="Helvetica,sans-Serif" font-size="10.00">final int</text>
<text text-anchor="start" x="302.91" y="-658" font-family="Helvetica,sans-Serif" font-size="10.00"> </text>
<text text-anchor="start" x="302.91" y="-643" font-family="Helvetica,sans-Serif" font-size="10.00"> </text>
<polygon fill="#666666" stroke="#666666" points="281.41,-668 281.41,-668 328.41,-668 328.41,-668 281.41,-668"/>
<polygon fill="#666666" stroke="#666666" points="281.41,-653 281.41,-653 328.41,-653 328.41,-653 281.41,-653"/>
<polygon fill="none" stroke="#666666" points="280.91,-636.5 280.91,-685.5 327.91,-685.5 327.91,-636.5 280.91,-636.5"/>
</a>
</g>
</g>
<!-- Node4&#45;&gt;Node2 -->
<g id="edge3_Node000002_Node000004" class="edge">
<title>Node4&#45;&gt;Node2</title>
<g id="a_edge3_Node000002_Node000004"><a xlink:title=" ">
<path fill="none" stroke="#63b8ff" d="M301.93,-636.34C298.26,-596.61 292.67,-514.07 301.41,-445 301.65,-443.09 301.9,-441.17 302.18,-439.25"/>
<polygon fill="none" stroke="#63b8ff" points="302.18,-439.19 299.15,-432.65 304.02,-427.33 307.05,-433.87 302.18,-439.19"/>
</a>
</g>
<text text-anchor="middle" x="331.91" y="-470" font-family="Helvetica,sans-Serif" font-size="10.00" fill="grey"> #number</text>
<text text-anchor="middle" x="331.91" y="-459" font-family="Helvetica,sans-Serif" font-size="10.00" fill="grey">#ownPoints</text>
<text text-anchor="middle" x="331.91" y="-448" font-family="Helvetica,sans-Serif" font-size="10.00" fill="grey">#rivalPoints</text>
</g>
<!-- Node5 -->
<g id="Node000005" class="node">
<title>Node5</title>
<g id="a_Node000005"><a xlink:title=" ">
<polygon fill="white" stroke="transparent" points="410.91,-685.5 351.91,-685.5 351.91,-636.5 410.91,-636.5 410.91,-685.5"/>
<text text-anchor="start" x="357.41" y="-673" font-family="Helvetica,sans-Serif" font-size="10.00">LocalDate</text>
<text text-anchor="start" x="379.91" y="-658" font-family="Helvetica,sans-Serif" font-size="10.00"> </text>
<text text-anchor="start" x="379.91" y="-643" font-family="Helvetica,sans-Serif" font-size="10.00"> </text>
<polygon fill="#666666" stroke="#666666" points="352.41,-668 352.41,-668 411.41,-668 411.41,-668 352.41,-668"/>
<polygon fill="#666666" stroke="#666666" points="352.41,-653 352.41,-653 411.41,-653 411.41,-653 352.41,-653"/>
<polygon fill="none" stroke="#666666" points="351.91,-636.5 351.91,-685.5 410.91,-685.5 410.91,-636.5 351.91,-636.5"/>
</a>
</g>
</g>
<!-- Node5&#45;&gt;Node2 -->
<g id="edge4_Node000002_Node000005" class="edge">
<title>Node5&#45;&gt;Node2</title>
<g id="a_edge4_Node000002_Node000005"><a xlink:title=" ">
<path fill="none" stroke="#63b8ff" d="M379.61,-636.43C376.52,-596.84 369.83,-514.49 362.41,-445 362.2,-443.09 361.99,-441.16 361.78,-439.23"/>
<polygon fill="none" stroke="#63b8ff" points="361.77,-439.15 357.14,-433.63 360.45,-427.22 365.09,-432.75 361.77,-439.15"/>
</a>
</g>
<text text-anchor="middle" x="383.41" y="-459" font-family="Helvetica,sans-Serif" font-size="10.00" fill="grey"> #date</text>
</g>
<!-- Node6&#45;&gt;Node2 -->
<g id="edge5_Node000002_Node000006" class="edge">
<title>Node6&#45;&gt;Node2</title>
<g id="a_edge5_Node000002_Node000006"><a xlink:title=" ">
<path fill="none" stroke="#63b8ff" d="M217.65,-495.97C222.68,-478.47 228.55,-461.17 235.41,-445 242.12,-429.16 250.47,-413.23 259.53,-397.88"/>
<polygon fill="none" stroke="#63b8ff" points="259.69,-397.62 259.37,-390.42 265.9,-387.36 266.22,-394.56 259.69,-397.62"/>
</a>
</g>
<text text-anchor="middle" x="265.41" y="-459" font-family="Helvetica,sans-Serif" font-size="10.00" fill="grey"> #playerList</text>
</g>
<!-- Node7 -->
<g id="Node000007" class="node">
<title>Node7</title>
<g id="a_Node000007"><a xlink:title=" ">
<polygon fill="white" stroke="transparent" points="172.91,-960.5 133.91,-960.5 133.91,-911.5 172.91,-911.5 172.91,-960.5"/>
<text text-anchor="start" x="139.41" y="-948" font-family="Helvetica,sans-Serif" font-size="10.00">String</text>
<text text-anchor="start" x="151.91" y="-933" font-family="Helvetica,sans-Serif" font-size="10.00"> </text>
<text text-anchor="start" x="151.91" y="-918" font-family="Helvetica,sans-Serif" font-size="10.00"> </text>
<polygon fill="#666666" stroke="#666666" points="134.41,-943 134.41,-943 173.41,-943 173.41,-943 134.41,-943"/>
<polygon fill="#666666" stroke="#666666" points="134.41,-928 134.41,-928 173.41,-928 173.41,-928 134.41,-928"/>
<polygon fill="none" stroke="#666666" points="133.91,-911.5 133.91,-960.5 172.91,-960.5 172.91,-911.5 133.91,-911.5"/>
</a>
</g>
</g>
<!-- Node7&#45;&gt;Node6 -->
<g id="edge7_Node000006_Node000007" class="edge">
<title>Node7&#45;&gt;Node6</title>
<g id="a_edge7_Node000006_Node000007"><a xlink:title=" ">
<path fill="none" stroke="#63b8ff" d="M156.15,-911.42C158.31,-893.04 161.45,-866.88 164.41,-844 164.65,-842.08 164.9,-840.15 165.16,-838.21"/>
<polygon fill="none" stroke="#63b8ff" points="165.17,-838.07 161.99,-831.61 166.73,-826.18 169.92,-832.64 165.17,-838.07"/>
</a>
</g>
<text text-anchor="middle" x="184.41" y="-863.5" font-family="Helvetica,sans-Serif" font-size="10.00" fill="grey"> #name</text>
</g>
<!-- Node8 -->
<g id="Node000008" class="node">
<title>Node8</title>
<g id="a_Node000008"><a xlink:title=" ">
<polygon fill="white" stroke="transparent" points="227.91,-960.5 204.91,-960.5 204.91,-911.5 227.91,-911.5 227.91,-960.5"/>
<text text-anchor="start" x="210.41" y="-948" font-family="Helvetica,sans-Serif" font-size="10.00">int</text>
<text text-anchor="start" x="214.91" y="-933" font-family="Helvetica,sans-Serif" font-size="10.00"> </text>
<text text-anchor="start" x="214.91" y="-918" font-family="Helvetica,sans-Serif" font-size="10.00"> </text>
<polygon fill="#666666" stroke="#666666" points="205.41,-943 205.41,-943 228.41,-943 228.41,-943 205.41,-943"/>
<polygon fill="#666666" stroke="#666666" points="205.41,-928 205.41,-928 228.41,-928 228.41,-928 205.41,-928"/>
<polygon fill="none" stroke="#666666" points="204.91,-911.5 204.91,-960.5 227.91,-960.5 227.91,-911.5 204.91,-911.5"/>
</a>
</g>
</g>
<!-- Node8&#45;&gt;Node6 -->
<g id="edge8_Node000006_Node000008" class="edge">
<title>Node8&#45;&gt;Node6</title>
<g id="a_edge8_Node000006_Node000008"><a xlink:title=" ">
<path fill="none" stroke="#63b8ff" d="M214.06,-911.25C212.29,-893.41 209.7,-867.16 206.84,-838.32"/>
<polygon fill="none" stroke="#63b8ff" points="206.83,-838.2 202.26,-832.63 205.65,-826.26 210.22,-831.84 206.83,-838.2"/>
</a>
</g>
<text text-anchor="middle" x="234.41" y="-880" font-family="Helvetica,sans-Serif" font-size="10.00" fill="grey"> #height</text>
<text text-anchor="middle" x="234.41" y="-869" font-family="Helvetica,sans-Serif" font-size="10.00" fill="grey">#number</text>
<text text-anchor="middle" x="234.41" y="-858" font-family="Helvetica,sans-Serif" font-size="10.00" fill="grey">#points</text>
<text text-anchor="middle" x="234.41" y="-847" font-family="Helvetica,sans-Serif" font-size="10.00" fill="grey">#skill</text>
</g>
<!-- Node9 -->
<g id="Node000009" class="node">
<title>Node9</title>
<g id="a_Node000009"><a xlink:title=" ">
<polygon fill="white" stroke="transparent" points="464.91,-966 245.91,-966 245.91,-906 464.91,-906 464.91,-966"/>
<text text-anchor="start" x="251.41" y="-954" font-family="Helvetica,sans-Serif" font-size="10.00">ObservableList&lt; es.alrodmue.model.fouls.</text>
<text text-anchor="start" x="339.91" y="-943" font-family="Helvetica,sans-Serif" font-size="10.00">Foul &gt;</text>
<text text-anchor="start" x="353.91" y="-928" font-family="Helvetica,sans-Serif" font-size="10.00"> </text>
<text text-anchor="start" x="353.91" y="-913" font-family="Helvetica,sans-Serif" font-size="10.00"> </text>
<polygon fill="#666666" stroke="#666666" points="246.41,-938 246.41,-938 465.41,-938 465.41,-938 246.41,-938"/>
<polygon fill="#666666" stroke="#666666" points="246.41,-923 246.41,-923 465.41,-923 465.41,-923 246.41,-923"/>
<polygon fill="none" stroke="#666666" points="245.91,-906 245.91,-966 464.91,-966 464.91,-906 245.91,-906"/>
</a>
</g>
</g>
<!-- Node9&#45;&gt;Node6 -->
<g id="edge9_Node000006_Node000009" class="edge">
<title>Node9&#45;&gt;Node6</title>
<g id="a_edge9_Node000006_Node000009"><a xlink:title=" ">
<path fill="none" stroke="#63b8ff" d="M330.24,-905.6C312.63,-884.28 289.18,-854.34 271.41,-826 270.71,-824.89 270.01,-823.77 269.32,-822.64"/>
<polygon fill="none" stroke="#63b8ff" points="269.31,-822.63 262.78,-819.56 263.1,-812.36 269.63,-815.43 269.31,-822.63"/>
</a>
</g>
<text text-anchor="middle" x="333.41" y="-863.5" font-family="Helvetica,sans-Serif" font-size="10.00" fill="grey"> #fouls</text>
</g>
<!-- Node10 -->
<g id="Node000010" class="node">
<title>Node10</title>
<g id="a_Node000010"><a xlink:title=" ">
<polygon fill="white" stroke="transparent" points="396.91,-1073 313.91,-1073 313.91,-1024 396.91,-1024 396.91,-1073"/>
<text text-anchor="start" x="319.41" y="-1060.5" font-family="Helvetica,sans-Serif" font-size="10.00">ObservableList</text>
<text text-anchor="start" x="353.91" y="-1045.5" font-family="Helvetica,sans-Serif" font-size="10.00"> </text>
<text text-anchor="start" x="353.91" y="-1030.5" font-family="Helvetica,sans-Serif" font-size="10.00"> </text>
<polygon fill="#666666" stroke="#666666" points="314.41,-1055.5 314.41,-1055.5 397.41,-1055.5 397.41,-1055.5 314.41,-1055.5"/>
<polygon fill="#666666" stroke="#666666" points="314.41,-1040.5 314.41,-1040.5 397.41,-1040.5 397.41,-1040.5 314.41,-1040.5"/>
<polygon fill="none" stroke="#666666" points="313.91,-1024 313.91,-1073 396.91,-1073 396.91,-1024 313.91,-1024"/>
</a>
</g>
</g>
<!-- Node10&#45;&gt;Node9 -->
<g id="edge10_Node000009_Node000010" class="edge">
<title>Node10&#45;&gt;Node9</title>
<g id="a_edge10_Node000009_Node000010"><a xlink:title=" ">
<path fill="none" stroke="orange" d="M355.41,-1013.75C355.41,-998.56 355.41,-980.79 355.41,-966.17"/>
<polygon fill="orange" stroke="orange" points="351.91,-1013.79 355.41,-1023.79 358.91,-1013.8 351.91,-1013.79"/>
</a>
</g>
<text text-anchor="start" x="355.41" y="-998" font-family="Helvetica,sans-Serif" font-size="10.00" fill="grey"> &lt; es::alrodmue::model</text>
<text text-anchor="middle" x="412.91" y="-987" font-family="Helvetica,sans-Serif" font-size="10.00" fill="grey">::fouls::Foul &gt;</text>
</g>
<!-- Node11 -->
<g id="Node000011" class="node">
<title>Node11</title>
<g id="a_Node000011"><a xlink:title=" ">
<polygon fill="white" stroke="transparent" points="633.41,-691 429.41,-691 429.41,-631 633.41,-631 633.41,-691"/>
<text text-anchor="start" x="434.41" y="-679" font-family="Helvetica,sans-Serif" font-size="10.00">HashMap&lt; es.alrodmue.model.players.</text>
<text text-anchor="start" x="489.91" y="-668" font-family="Helvetica,sans-Serif" font-size="10.00">Player, Integer &gt;</text>
<text text-anchor="start" x="529.41" y="-653" font-family="Helvetica,sans-Serif" font-size="10.00"> </text>
<text text-anchor="start" x="529.41" y="-638" font-family="Helvetica,sans-Serif" font-size="10.00"> </text>
<polygon fill="#666666" stroke="#666666" points="429.41,-663 429.41,-663 633.41,-663 633.41,-663 429.41,-663"/>
<polygon fill="#666666" stroke="#666666" points="429.41,-648 429.41,-648 633.41,-648 633.41,-648 429.41,-648"/>
<polygon fill="none" stroke="#666666" points="429.41,-631 429.41,-691 633.41,-691 633.41,-631 429.41,-631"/>
</a>
</g>
</g>
<!-- Node11&#45;&gt;Node2 -->
<g id="edge11_Node000002_Node000011" class="edge">
<title>Node11&#45;&gt;Node2</title>
<g id="a_edge11_Node000002_Node000011"><a xlink:title=" ">
<path fill="none" stroke="#63b8ff" d="M516.73,-630.93C495.82,-589.49 455.94,-510.47 419.6,-438.46"/>
<polygon fill="none" stroke="#63b8ff" points="419.44,-438.14 413.16,-434.59 414.03,-427.43 420.31,-430.98 419.44,-438.14"/>
</a>
</g>
<text text-anchor="middle" x="473.91" y="-459" font-family="Helvetica,sans-Serif" font-size="10.00" fill="grey"> #playerPoints</text>
</g>
<!-- Node12 -->
<g id="Node000012" class="node">
<title>Node12</title>
<g id="a_Node000012"><a xlink:title=" ">
<polygon fill="white" stroke="transparent" points="559.41,-960.5 503.41,-960.5 503.41,-911.5 559.41,-911.5 559.41,-960.5"/>
<text text-anchor="start" x="508.41" y="-948" font-family="Helvetica,sans-Serif" font-size="10.00">HashMap</text>
<text text-anchor="start" x="529.41" y="-933" font-family="Helvetica,sans-Serif" font-size="10.00"> </text>
<text text-anchor="start" x="529.41" y="-918" font-family="Helvetica,sans-Serif" font-size="10.00"> </text>
<polygon fill="#666666" stroke="#666666" points="503.41,-943 503.41,-943 559.41,-943 559.41,-943 503.41,-943"/>
<polygon fill="#666666" stroke="#666666" points="503.41,-928 503.41,-928 559.41,-928 559.41,-928 503.41,-928"/>
<polygon fill="none" stroke="#666666" points="503.41,-911.5 503.41,-960.5 559.41,-960.5 559.41,-911.5 503.41,-911.5"/>
</a>
</g>
</g>
<!-- Node12&#45;&gt;Node11 -->
<g id="edge12_Node000011_Node000012" class="edge">
<title>Node12&#45;&gt;Node11</title>
<g id="a_edge12_Node000011_Node000012"><a xlink:title=" ">
<path fill="none" stroke="orange" d="M531.41,-901.15C531.41,-847.08 531.41,-742.14 531.41,-691.18"/>
<polygon fill="orange" stroke="orange" points="527.91,-901.25 531.41,-911.25 534.91,-901.25 527.91,-901.25"/>
</a>
</g>
<text text-anchor="start" x="531.41" y="-869" font-family="Helvetica,sans-Serif" font-size="10.00" fill="grey"> &lt; es::alrodmue::model</text>
<text text-anchor="middle" x="596.91" y="-858" font-family="Helvetica,sans-Serif" font-size="10.00" fill="grey">::players::Player, Integer &gt;</text>
</g>
<!-- Node13 -->
<g id="Node000013" class="node">
<title>Node13</title>
<g id="a_Node000013"><a xlink:title=" ">
<polygon fill="white" stroke="transparent" points="841.41,-691 651.41,-691 651.41,-631 841.41,-631 841.41,-691"/>
<text text-anchor="start" x="656.41" y="-679" font-family="Helvetica,sans-Serif" font-size="10.00">ArrayList&lt; es.alrodmue.model.fouls.</text>
<text text-anchor="start" x="730.41" y="-668" font-family="Helvetica,sans-Serif" font-size="10.00">Foul &gt;</text>
<text text-anchor="start" x="744.41" y="-653" font-family="Helvetica,sans-Serif" font-size="10.00"> </text>
<text text-anchor="start" x="744.41" y="-638" font-family="Helvetica,sans-Serif" font-size="10.00"> </text>
<polygon fill="#666666" stroke="#666666" points="651.41,-663 651.41,-663 841.41,-663 841.41,-663 651.41,-663"/>
<polygon fill="#666666" stroke="#666666" points="651.41,-648 651.41,-648 841.41,-648 841.41,-648 651.41,-648"/>
<polygon fill="none" stroke="#666666" points="651.41,-631 651.41,-691 841.41,-691 841.41,-631 651.41,-631"/>
</a>
</g>
</g>
<!-- Node13&#45;&gt;Node2 -->
<g id="edge13_Node000002_Node000013" class="edge">
<title>Node13&#45;&gt;Node2</title>
<g id="a_edge13_Node000002_Node000013"><a xlink:title=" ">
<path fill="none" stroke="#63b8ff" d="M732.48,-630.95C714.85,-596.18 681.98,-537.46 642.41,-496 579.57,-430.16 493.3,-372.18 429.39,-333.83"/>
<polygon fill="none" stroke="#63b8ff" points="429.25,-333.75 422.05,-334.12 418.94,-327.61 426.14,-327.24 429.25,-333.75"/>
</a>
</g>
<text text-anchor="middle" x="640.41" y="-459" font-family="Helvetica,sans-Serif" font-size="10.00" fill="grey"> #fouls</text>
</g>
<!-- Node14 -->
<g id="Node000014" class="node">
<title>Node14</title>
<g id="a_Node000014"><a xlink:title=" ">
<polygon fill="white" stroke="transparent" points="773.41,-960.5 719.41,-960.5 719.41,-911.5 773.41,-911.5 773.41,-960.5"/>
<text text-anchor="start" x="724.41" y="-948" font-family="Helvetica,sans-Serif" font-size="10.00">ArrayList</text>
<text text-anchor="start" x="744.41" y="-933" font-family="Helvetica,sans-Serif" font-size="10.00"> </text>
<text text-anchor="start" x="744.41" y="-918" font-family="Helvetica,sans-Serif" font-size="10.00"> </text>
<polygon fill="#666666" stroke="#666666" points="719.41,-943 719.41,-943 773.41,-943 773.41,-943 719.41,-943"/>
<polygon fill="#666666" stroke="#666666" points="719.41,-928 719.41,-928 773.41,-928 773.41,-928 719.41,-928"/>
<polygon fill="none" stroke="#666666" points="719.41,-911.5 719.41,-960.5 773.41,-960.5 773.41,-911.5 719.41,-911.5"/>
</a>
</g>
</g>
<!-- Node14&#45;&gt;Node13 -->
<g id="edge14_Node000013_Node000014" class="edge">
<title>Node14&#45;&gt;Node13</title>
<g id="a_edge14_Node000013_Node000014"><a xlink:title=" ">
<path fill="none" stroke="orange" d="M746.41,-901.15C746.41,-847.08 746.41,-742.14 746.41,-691.18"/>
<polygon fill="orange" stroke="orange" points="742.91,-901.25 746.41,-911.25 749.91,-901.25 742.91,-901.25"/>
</a>
</g>
<text text-anchor="start" x="746.41" y="-869" font-family="Helvetica,sans-Serif" font-size="10.00" fill="grey"> &lt; es::alrodmue::model</text>
<text text-anchor="middle" x="803.91" y="-858" font-family="Helvetica,sans-Serif" font-size="10.00" fill="grey">::fouls::Foul &gt;</text>
</g>
</g>
</svg>
