<?xml version="1.0" encoding="UTF-8" standalone="no"?>
<!DOCTYPE svg PUBLIC "-//W3C//DTD SVG 1.1//EN"
 "http://www.w3.org/Graphics/SVG/1.1/DTD/svg11.dtd">
<!-- Generated by graphviz version 2.43.0 (0)
 -->
<!-- Title: es.alrodmue.App Pages: 1 -->
<svg width="219pt" height="228pt"
 viewBox="0.00 0.00 218.50 228.00" xmlns="http://www.w3.org/2000/svg" xmlns:xlink="http://www.w3.org/1999/xlink">
<g id="graph0" class="graph" transform="scale(1 1) rotate(0) translate(4 224)">
<title>es.alrodmue.App</title>
<!-- Node1 -->
<g id="Node000001" class="node">
<title>Node1</title>
<g id="a_Node000001"><a xlink:title=" ">
<polygon fill="#999999" stroke="transparent" points="150,-124 57,-124 57,0 150,0 150,-124"/>
<text text-anchor="start" x="62.5" y="-112" font-family="Helvetica,sans-Serif" font-size="10.00">es.alrodmue.App</text>
<text text-anchor="start" x="102" y="-97" font-family="Helvetica,sans-Serif" font-size="10.00"> </text>
<text text-anchor="start" x="63.5" y="-82" font-family="Helvetica,sans-Serif" font-size="10.00">+</text>
<text text-anchor="start" x="78.5" y="-82" font-family="Helvetica,sans-Serif" font-size="10.00">start()</text>
<text text-anchor="start" x="63.5" y="-67" font-family="Helvetica,sans-Serif" font-size="10.00">+</text>
<text text-anchor="start" x="78.5" y="-67" font-family="Helvetica,sans-Serif" font-size="10.00">closeModal()</text>
<text text-anchor="start" x="63.5" y="-52" font-family="Helvetica,sans-Serif" font-size="10.00">+</text>
<text text-anchor="start" x="78.5" y="-52" font-family="Helvetica,sans-Serif" font-size="10.00">main()</text>
<text text-anchor="start" x="63.5" y="-37" font-family="Helvetica,sans-Serif" font-size="10.00">+</text>
<text text-anchor="start" x="78.5" y="-37" font-family="Helvetica,sans-Serif" font-size="10.00">showModal()</text>
<text text-anchor="start" x="63.5" y="-22" font-family="Helvetica,sans-Serif" font-size="10.00">~</text>
<text text-anchor="start" x="78.5" y="-22" font-family="Helvetica,sans-Serif" font-size="10.00">setRoot()</text>
<text text-anchor="start" x="66" y="-7" font-family="Helvetica,sans-Serif" font-size="10.00">&#45;</text>
<text text-anchor="start" x="78.5" y="-7" font-family="Helvetica,sans-Serif" font-size="10.00">loadFXML()</text>
<polygon fill="#666666" stroke="#666666" points="57.5,-107 57.5,-107 150.5,-107 150.5,-107 57.5,-107"/>
<polygon fill="#666666" stroke="#666666" points="57.5,-92 57.5,-92 150.5,-92 150.5,-92 57.5,-92"/>
<polygon fill="none" stroke="#666666" points="57,0 57,-124 150,-124 150,0 57,0"/>
</a>
</g>
</g>
<!-- Node2 -->
<g id="Node000002" class="node">
<title>Node2</title>
<g id="a_Node000002"><a xlink:title=" ">
<polygon fill="white" stroke="transparent" points="65,-220 0,-220 0,-171 65,-171 65,-220"/>
<text text-anchor="start" x="5.5" y="-207.5" font-family="Helvetica,sans-Serif" font-size="10.00">Application</text>
<text text-anchor="start" x="31" y="-192.5" font-family="Helvetica,sans-Serif" font-size="10.00"> </text>
<text text-anchor="start" x="31" y="-177.5" font-family="Helvetica,sans-Serif" font-size="10.00"> </text>
<polygon fill="#bfbfbf" stroke="#bfbfbf" points="0.5,-202.5 0.5,-202.5 65.5,-202.5 65.5,-202.5 0.5,-202.5"/>
<polygon fill="#bfbfbf" stroke="#bfbfbf" points="0.5,-187.5 0.5,-187.5 65.5,-187.5 65.5,-187.5 0.5,-187.5"/>
<polygon fill="none" stroke="#bfbfbf" points="0,-171 0,-220 65,-220 65,-171 0,-171"/>
</a>
</g>
</g>
<!-- Node2&#45;&gt;Node1 -->
<g id="edge1_Node000001_Node000002" class="edge">
<title>Node2&#45;&gt;Node1</title>
<g id="a_edge1_Node000001_Node000002"><a xlink:title=" ">
<path fill="none" stroke="#63b8ff" d="M49.95,-162.19C56.17,-150.66 63.4,-137.27 70.5,-124.12"/>
<polygon fill="none" stroke="#63b8ff" points="46.86,-160.53 45.19,-170.99 53.02,-163.85 46.86,-160.53"/>
</a>
</g>
</g>
<!-- Node3 -->
<g id="Node000003" class="node">
<title>Node3</title>
<g id="a_Node000003"><a xlink:title=" ">
<polygon fill="white" stroke="transparent" points="123.5,-220 83.5,-220 83.5,-171 123.5,-171 123.5,-220"/>
<text text-anchor="start" x="88.5" y="-207.5" font-family="Helvetica,sans-Serif" font-size="10.00">Scene</text>
<text text-anchor="start" x="101.5" y="-192.5" font-family="Helvetica,sans-Serif" font-size="10.00"> </text>
<text text-anchor="start" x="101.5" y="-177.5" font-family="Helvetica,sans-Serif" font-size="10.00"> </text>
<polygon fill="#bfbfbf" stroke="#bfbfbf" points="83.5,-202.5 83.5,-202.5 123.5,-202.5 123.5,-202.5 83.5,-202.5"/>
<polygon fill="#bfbfbf" stroke="#bfbfbf" points="83.5,-187.5 83.5,-187.5 123.5,-187.5 123.5,-187.5 83.5,-187.5"/>
<polygon fill="none" stroke="#bfbfbf" points="83.5,-171 83.5,-220 123.5,-220 123.5,-171 83.5,-171"/>
</a>
</g>
</g>
<!-- Node3&#45;&gt;Node1 -->
<g id="edge2_Node000001_Node000003" class="edge">
<title>Node3&#45;&gt;Node1</title>
<g id="a_edge2_Node000001_Node000003"><a xlink:title=" ">
<path fill="none" stroke="#63b8ff" d="M103.5,-170.99C103.5,-161.03 103.5,-148.82 103.5,-136.24"/>
<polygon fill="none" stroke="#63b8ff" points="103.5,-136.12 99.5,-130.12 103.5,-124.12 107.5,-130.12 103.5,-136.12"/>
</a>
</g>
<text text-anchor="middle" x="121.5" y="-145" font-family="Helvetica,sans-Serif" font-size="10.00" fill="grey"> &#45;scene</text>
</g>
<!-- Node4 -->
<g id="Node000004" class="node">
<title>Node4</title>
<g id="a_Node000004"><a xlink:title=" ">
<polygon fill="white" stroke="transparent" points="181.5,-220 143.5,-220 143.5,-171 181.5,-171 181.5,-220"/>
<text text-anchor="start" x="148.5" y="-207.5" font-family="Helvetica,sans-Serif" font-size="10.00">Stage</text>
<text text-anchor="start" x="160.5" y="-192.5" font-family="Helvetica,sans-Serif" font-size="10.00"> </text>
<text text-anchor="start" x="160.5" y="-177.5" font-family="Helvetica,sans-Serif" font-size="10.00"> </text>
<polygon fill="#bfbfbf" stroke="#bfbfbf" points="143.5,-202.5 143.5,-202.5 181.5,-202.5 181.5,-202.5 143.5,-202.5"/>
<polygon fill="#bfbfbf" stroke="#bfbfbf" points="143.5,-187.5 143.5,-187.5 181.5,-187.5 181.5,-187.5 143.5,-187.5"/>
<polygon fill="none" stroke="#bfbfbf" points="143.5,-171 143.5,-220 181.5,-220 181.5,-171 143.5,-171"/>
</a>
</g>
</g>
<!-- Node4&#45;&gt;Node1 -->
<g id="edge3_Node000001_Node000004" class="edge">
<title>Node4&#45;&gt;Node1</title>
<g id="a_edge3_Node000001_Node000004"><a xlink:title=" ">
<path fill="none" stroke="#63b8ff" d="M152.85,-170.89C149.08,-161.82 144.67,-151.4 140.5,-142 139.49,-139.73 138.46,-137.42 137.42,-135.1"/>
<polygon fill="none" stroke="#63b8ff" points="137.4,-135.05 131.27,-131.25 132.43,-124.13 138.56,-127.94 137.4,-135.05"/>
</a>
</g>
<text text-anchor="middle" x="177.5" y="-145" font-family="Helvetica,sans-Serif" font-size="10.00" fill="grey"> &#45;modalStage</text>
</g>
</g>
</svg>
