<?xml version="1.0" encoding="UTF-8" standalone="no"?>
<!DOCTYPE svg PUBLIC "-//W3C//DTD SVG 1.1//EN"
 "http://www.w3.org/Graphics/SVG/1.1/DTD/svg11.dtd">
<!-- Generated by graphviz version 2.43.0 (0)
 -->
<!-- Title: es.alrodmue.model.players.PowerForwardPlayer Pages: 1 -->
<svg width="155pt" height="524pt"
 viewBox="0.00 0.00 155.00 524.00" xmlns="http://www.w3.org/2000/svg" xmlns:xlink="http://www.w3.org/1999/xlink">
<g id="graph0" class="graph" transform="scale(1 1) rotate(0) translate(4 520)">
<title>es.alrodmue.model.players.PowerForwardPlayer</title>
<!-- Node1 -->
<g id="Node000001" class="node">
<title>Node1</title>
<g id="a_Node000001"><a xlink:title=" ">
<polygon fill="#999999" stroke="transparent" points="147,-75 0,-75 0,0 147,0 147,-75"/>
<text text-anchor="start" x="5.5" y="-62.5" font-family="Helvetica,sans-Serif" font-size="10.00">es.alrodmue.model.players.</text>
<text text-anchor="start" x="24" y="-51.5" font-family="Helvetica,sans-Serif" font-size="10.00">PowerForwardPlayer</text>
<text text-anchor="start" x="72" y="-36.5" font-family="Helvetica,sans-Serif" font-size="10.00"> </text>
<text text-anchor="start" x="9" y="-21.5" font-family="Helvetica,sans-Serif" font-size="10.00">+</text>
<text text-anchor="start" x="26.5" y="-21.5" font-family="Helvetica,sans-Serif" font-size="10.00">PowerForwardPlayer()</text>
<text text-anchor="start" x="9" y="-6.5" font-family="Helvetica,sans-Serif" font-size="10.00">+</text>
<text text-anchor="start" x="26.5" y="-6.5" font-family="Helvetica,sans-Serif" font-size="10.00">getType()</text>
<polygon fill="#666666" stroke="#666666" points="0.5,-46.5 0.5,-46.5 147.5,-46.5 147.5,-46.5 0.5,-46.5"/>
<polygon fill="#666666" stroke="#666666" points="0.5,-31.5 0.5,-31.5 147.5,-31.5 147.5,-31.5 0.5,-31.5"/>
<polygon fill="none" stroke="#666666" points="0,0 0,-75 147,-75 147,0 0,0"/>
</a>
</g>
</g>
<!-- Node2 -->
<g id="Node000002" class="node">
<title>Node2</title>
<g id="a_Node000002"><a xlink:href="classes_1_1alrodmue_1_1model_1_1players_1_1Player.xhtml" target="_top" xlink:title=" ">
<polygon fill="white" stroke="transparent" points="147,-516 0,-516 0,-111 147,-111 147,-516"/>
<text text-anchor="start" x="5.5" y="-503.5" font-family="Helvetica,sans-Serif" font-size="10.00">es.alrodmue.model.players.</text>
<text text-anchor="start" x="58.5" y="-492.5" font-family="Helvetica,sans-Serif" font-size="10.00">Player</text>
<text text-anchor="start" x="16" y="-477.5" font-family="Helvetica,sans-Serif" font-size="10.00">#</text>
<text text-anchor="start" x="40.5" y="-477.5" font-family="Helvetica,sans-Serif" font-size="10.00">fouls</text>
<text text-anchor="start" x="16" y="-462.5" font-family="Helvetica,sans-Serif" font-size="10.00">#</text>
<text text-anchor="start" x="40.5" y="-462.5" font-family="Helvetica,sans-Serif" font-size="10.00">height</text>
<text text-anchor="start" x="16" y="-447.5" font-family="Helvetica,sans-Serif" font-size="10.00">#</text>
<text text-anchor="start" x="40.5" y="-447.5" font-family="Helvetica,sans-Serif" font-size="10.00">name</text>
<text text-anchor="start" x="16" y="-432.5" font-family="Helvetica,sans-Serif" font-size="10.00">#</text>
<text text-anchor="start" x="40.5" y="-432.5" font-family="Helvetica,sans-Serif" font-size="10.00">number</text>
<text text-anchor="start" x="16" y="-417.5" font-family="Helvetica,sans-Serif" font-size="10.00">#</text>
<text text-anchor="start" x="40.5" y="-417.5" font-family="Helvetica,sans-Serif" font-size="10.00">points</text>
<text text-anchor="start" x="16" y="-402.5" font-family="Helvetica,sans-Serif" font-size="10.00">#</text>
<text text-anchor="start" x="40.5" y="-402.5" font-family="Helvetica,sans-Serif" font-size="10.00">skill</text>
<text text-anchor="start" x="18.5" y="-387.5" font-family="Helvetica,sans-Serif" font-size="10.00">&#45;</text>
<text text-anchor="start" x="40.5" y="-387.5" font-family="Helvetica,sans-Serif" font-size="10.00">nextNumber</text>
<text text-anchor="start" x="16" y="-372.5" font-family="Helvetica,sans-Serif" font-size="10.00">+</text>
<text text-anchor="start" x="40.5" y="-372.5" font-family="Helvetica,sans-Serif" font-size="10.00">Player()</text>
<text text-anchor="start" x="16" y="-357.5" font-family="Helvetica,sans-Serif" font-size="10.00">+</text>
<text text-anchor="start" x="40.5" y="-357.5" font-family="Helvetica,sans-Serif" font-size="10.00">addFoul()</text>
<text text-anchor="start" x="16" y="-342.5" font-family="Helvetica,sans-Serif" font-size="10.00">+</text>
<text text-anchor="start" x="40.5" y="-342.5" font-family="Helvetica,sans-Serif" font-size="10.00">addPoints()</text>
<text text-anchor="start" x="16" y="-327.5" font-family="Helvetica,sans-Serif" font-size="10.00">+</text>
<text text-anchor="start" x="40.5" y="-327.5" font-family="Helvetica,sans-Serif" font-size="10.00">getDetail()</text>
<text text-anchor="start" x="16" y="-312.5" font-family="Helvetica,sans-Serif" font-size="10.00">+</text>
<text text-anchor="start" x="40.5" y="-312.5" font-family="Helvetica,sans-Serif" font-size="10.00">getFouls()</text>
<text text-anchor="start" x="16" y="-297.5" font-family="Helvetica,sans-Serif" font-size="10.00">+</text>
<text text-anchor="start" x="40.5" y="-297.5" font-family="Helvetica,sans-Serif" font-size="10.00">getHeight()</text>
<text text-anchor="start" x="16" y="-282.5" font-family="Helvetica,sans-Serif" font-size="10.00">+</text>
<text text-anchor="start" x="40.5" y="-282.5" font-family="Helvetica,sans-Serif" font-size="10.00">getName()</text>
<text text-anchor="start" x="16" y="-267.5" font-family="Helvetica,sans-Serif" font-size="10.00">+</text>
<text text-anchor="start" x="40.5" y="-267.5" font-family="Helvetica,sans-Serif" font-size="10.00">getNumber()</text>
<text text-anchor="start" x="16" y="-252.5" font-family="Helvetica,sans-Serif" font-size="10.00">+</text>
<text text-anchor="start" x="40.5" y="-252.5" font-family="Helvetica,sans-Serif" font-size="10.00">getPoints()</text>
<text text-anchor="start" x="16" y="-237.5" font-family="Helvetica,sans-Serif" font-size="10.00">+</text>
<text text-anchor="start" x="40.5" y="-237.5" font-family="Helvetica,sans-Serif" font-size="10.00">getSkill()</text>
<text text-anchor="start" x="16" y="-222.5" font-family="Helvetica,sans-Serif" font-size="10.00">+</text>
<text text-anchor="start" x="40.5" y="-222.5" font-family="Helvetica,sans-Serif" font-size="10.00">getType()</text>
<text text-anchor="start" x="16" y="-207.5" font-family="Helvetica,sans-Serif" font-size="10.00">+</text>
<text text-anchor="start" x="40.5" y="-207.5" font-family="Helvetica,sans-Serif" font-size="10.00">toString()</text>
<text text-anchor="start" x="16" y="-192.5" font-family="Helvetica,sans-Serif" font-size="10.00">+</text>
<text text-anchor="start" x="40.5" y="-192.5" font-family="Helvetica,sans-Serif" font-size="10.00">arePointsValid()</text>
<text text-anchor="start" x="16" y="-177.5" font-family="Helvetica,sans-Serif" font-size="10.00">+</text>
<text text-anchor="start" x="40.5" y="-177.5" font-family="Helvetica,sans-Serif" font-size="10.00">isFoulValid()</text>
<text text-anchor="start" x="16" y="-162.5" font-family="Helvetica,sans-Serif" font-size="10.00">+</text>
<text text-anchor="start" x="40.5" y="-162.5" font-family="Helvetica,sans-Serif" font-size="10.00">isHeightValid()</text>
<text text-anchor="start" x="16" y="-147.5" font-family="Helvetica,sans-Serif" font-size="10.00">+</text>
<text text-anchor="start" x="40.5" y="-147.5" font-family="Helvetica,sans-Serif" font-size="10.00">isNameValid()</text>
<text text-anchor="start" x="16" y="-132.5" font-family="Helvetica,sans-Serif" font-size="10.00">+</text>
<text text-anchor="start" x="40.5" y="-132.5" font-family="Helvetica,sans-Serif" font-size="10.00">isNumberValid()</text>
<text text-anchor="start" x="16" y="-117.5" font-family="Helvetica,sans-Serif" font-size="10.00">+</text>
<text text-anchor="start" x="40.5" y="-117.5" font-family="Helvetica,sans-Serif" font-size="10.00">isSkillValid()</text>
<polygon fill="#666666" stroke="#666666" points="0.5,-487.5 0.5,-487.5 147.5,-487.5 147.5,-487.5 0.5,-487.5"/>
<polygon fill="#666666" stroke="#666666" points="0.5,-382.5 0.5,-382.5 38.5,-382.5 38.5,-382.5 0.5,-382.5"/>
<polygon fill="#666666" stroke="#666666" points="38.5,-382.5 38.5,-382.5 147.5,-382.5 147.5,-382.5 38.5,-382.5"/>
<polygon fill="none" stroke="#666666" points="0,-111 0,-516 147,-516 147,-111 0,-111"/>
</a>
</g>
</g>
<!-- Node2&#45;&gt;Node1 -->
<g id="edge1_Node000001_Node000002" class="edge">
<title>Node2&#45;&gt;Node1</title>
<g id="a_edge1_Node000001_Node000002"><a xlink:title=" ">
<path fill="none" stroke="#63b8ff" d="M73.5,-100.55C73.5,-91.29 73.5,-82.69 73.5,-75.02"/>
<polygon fill="none" stroke="#63b8ff" points="70,-100.85 73.5,-110.85 77,-100.85 70,-100.85"/>
</a>
</g>
</g>
</g>
</svg>
