<?xml version="1.0" encoding="UTF-8" standalone="no"?>
<!DOCTYPE svg PUBLIC "-//W3C//DTD SVG 1.1//EN"
 "http://www.w3.org/Graphics/SVG/1.1/DTD/svg11.dtd">
<!-- Generated by graphviz version 2.43.0 (0)
 -->
<!-- Title: es.alrodmue.model.factories.MatchFactory Pages: 1 -->
<svg width="229pt" height="265pt"
 viewBox="0.00 0.00 229.00 265.00" xmlns="http://www.w3.org/2000/svg" xmlns:xlink="http://www.w3.org/1999/xlink">
<g id="graph0" class="graph" transform="scale(1 1) rotate(0) translate(4 261)">
<title>es.alrodmue.model.factories.MatchFactory</title>
<!-- Node1 -->
<g id="Node000001" class="node">
<title>Node1</title>
<g id="a_Node000001"><a xlink:title=" ">
<polygon fill="#999999" stroke="transparent" points="154,-105 0,-105 0,0 154,0 154,-105"/>
<text text-anchor="start" x="5" y="-92.5" font-family="Helvetica,sans-Serif" font-size="10.00">es.alrodmue.model.factories.</text>
<text text-anchor="start" x="44" y="-81.5" font-family="Helvetica,sans-Serif" font-size="10.00">MatchFactory</text>
<text text-anchor="start" x="75" y="-66.5" font-family="Helvetica,sans-Serif" font-size="10.00"> </text>
<text text-anchor="start" x="19" y="-51.5" font-family="Helvetica,sans-Serif" font-size="10.00">+</text>
<text text-anchor="start" x="47" y="-51.5" font-family="Helvetica,sans-Serif" font-size="10.00">create()</text>
<text text-anchor="start" x="19" y="-36.5" font-family="Helvetica,sans-Serif" font-size="10.00">+</text>
<text text-anchor="start" x="47" y="-36.5" font-family="Helvetica,sans-Serif" font-size="10.00">load()</text>
<text text-anchor="start" x="19" y="-21.5" font-family="Helvetica,sans-Serif" font-size="10.00">+</text>
<text text-anchor="start" x="47" y="-21.5" font-family="Helvetica,sans-Serif" font-size="10.00">getInstance()</text>
<text text-anchor="start" x="21.5" y="-6.5" font-family="Helvetica,sans-Serif" font-size="10.00">&#45;</text>
<text text-anchor="start" x="47" y="-6.5" font-family="Helvetica,sans-Serif" font-size="10.00">MatchFactory()</text>
<polygon fill="#666666" stroke="#666666" points="0,-76.5 0,-76.5 154,-76.5 154,-76.5 0,-76.5"/>
<polygon fill="#666666" stroke="#666666" points="0,-61.5 0,-61.5 154,-61.5 154,-61.5 0,-61.5"/>
<polygon fill="none" stroke="#666666" points="0,0 0,-105 154,-105 154,0 0,0"/>
</a>
</g>
</g>
<!-- Node2 -->
<g id="Node000002" class="node">
<title>Node2</title>
<g id="a_Node000002"><a xlink:href="classes_1_1alrodmue_1_1model_1_1factories_1_1MatchFactory.xhtml" target="_top" xlink:title=" ">
<polygon fill="white" stroke="transparent" points="154,-257 0,-257 0,-152 154,-152 154,-257"/>
<text text-anchor="start" x="5" y="-244.5" font-family="Helvetica,sans-Serif" font-size="10.00">es.alrodmue.model.factories.</text>
<text text-anchor="start" x="44" y="-233.5" font-family="Helvetica,sans-Serif" font-size="10.00">MatchFactory</text>
<text text-anchor="start" x="75" y="-218.5" font-family="Helvetica,sans-Serif" font-size="10.00"> </text>
<text text-anchor="start" x="19" y="-203.5" font-family="Helvetica,sans-Serif" font-size="10.00">+</text>
<text text-anchor="start" x="47" y="-203.5" font-family="Helvetica,sans-Serif" font-size="10.00">create()</text>
<text text-anchor="start" x="19" y="-188.5" font-family="Helvetica,sans-Serif" font-size="10.00">+</text>
<text text-anchor="start" x="47" y="-188.5" font-family="Helvetica,sans-Serif" font-size="10.00">load()</text>
<text text-anchor="start" x="19" y="-173.5" font-family="Helvetica,sans-Serif" font-size="10.00">+</text>
<text text-anchor="start" x="47" y="-173.5" font-family="Helvetica,sans-Serif" font-size="10.00">getInstance()</text>
<text text-anchor="start" x="21.5" y="-158.5" font-family="Helvetica,sans-Serif" font-size="10.00">&#45;</text>
<text text-anchor="start" x="47" y="-158.5" font-family="Helvetica,sans-Serif" font-size="10.00">MatchFactory()</text>
<polygon fill="#666666" stroke="#666666" points="0,-228.5 0,-228.5 154,-228.5 154,-228.5 0,-228.5"/>
<polygon fill="#666666" stroke="#666666" points="0,-213.5 0,-213.5 154,-213.5 154,-213.5 0,-213.5"/>
<polygon fill="none" stroke="#666666" points="0,-152 0,-257 154,-257 154,-152 0,-152"/>
</a>
</g>
</g>
<!-- Node2&#45;&gt;Node1 -->
<g id="edge1_Node000001_Node000002" class="edge">
<title>Node2&#45;&gt;Node1</title>
<g id="a_edge1_Node000001_Node000002"><a xlink:title=" ">
<path fill="none" stroke="#63b8ff" d="M77,-151.88C77,-140.8 77,-128.97 77,-117.49"/>
<polygon fill="none" stroke="#63b8ff" points="77,-117.22 73,-111.22 77,-105.22 81,-111.22 77,-117.22"/>
</a>
</g>
<text text-anchor="middle" x="101.5" y="-126" font-family="Helvetica,sans-Serif" font-size="10.00" fill="grey"> &#45;instance</text>
</g>
<!-- Node2&#45;&gt;Node2 -->
<g id="edge2_Node000002_Node000002" class="edge">
<title>Node2&#45;&gt;Node2</title>
<g id="a_edge2_Node000002_Node000002"><a xlink:title=" ">
<path fill="none" stroke="#63b8ff" d="M154.16,-217.22C164.85,-215.12 172,-210.88 172,-204.5 172,-200.91 169.74,-198 165.86,-195.76"/>
<polygon fill="none" stroke="#63b8ff" points="165.52,-195.65 158.55,-197.5 154.16,-191.78 161.13,-189.93 165.52,-195.65"/>
</a>
</g>
<text text-anchor="middle" x="196.5" y="-202" font-family="Helvetica,sans-Serif" font-size="10.00" fill="grey"> &#45;instance</text>
</g>
</g>
</svg>
