<?xml version="1.0" encoding="UTF-8" standalone="no"?>
<!DOCTYPE svg PUBLIC "-//W3C//DTD SVG 1.1//EN"
 "http://www.w3.org/Graphics/SVG/1.1/DTD/svg11.dtd">
<!-- Generated by graphviz version 2.43.0 (0)
 -->
<!-- Title: es.alrodmue.model.players.Player.Player Pages: 1 -->
<svg width="350pt" height="134pt"
 viewBox="0.00 0.00 350.00 134.00" xmlns="http://www.w3.org/2000/svg" xmlns:xlink="http://www.w3.org/1999/xlink">
<g id="graph0" class="graph" transform="scale(1 1) rotate(0) translate(4 130)">
<title>es.alrodmue.model.players.Player.Player</title>
<!-- Node1 -->
<g id="Node000001" class="node">
<title>Node1</title>
<g id="a_Node000001"><a xlink:title=" ">
<polygon fill="#999999" stroke="#666666" points="153,-78 0,-78 0,-48 153,-48 153,-78"/>
<text text-anchor="start" x="8" y="-66" font-family="Helvetica,sans-Serif" font-size="10.00">es.alrodmue.model.players.</text>
<text text-anchor="middle" x="76.5" y="-55" font-family="Helvetica,sans-Serif" font-size="10.00">Player.Player</text>
</a>
</g>
</g>
<!-- Node2 -->
<g id="Node000002" class="node">
<title>Node2</title>
<g id="a_Node000002"><a xlink:href="classes_1_1alrodmue_1_1model_1_1players_1_1Player.xhtml#a1c6f24f5388b60bb54fa7811964b396a" target="_top" xlink:title=" ">
<polygon fill="white" stroke="#666666" points="342,-126 189,-126 189,-96 342,-96 342,-126"/>
<text text-anchor="start" x="197" y="-114" font-family="Helvetica,sans-Serif" font-size="10.00">es.alrodmue.model.players.</text>
<text text-anchor="middle" x="265.5" y="-103" font-family="Helvetica,sans-Serif" font-size="10.00">Player.isHeightValid</text>
</a>
</g>
</g>
<!-- Node1&#45;&gt;Node2 -->
<g id="edge1_Node000001_Node000002" class="edge">
<title>Node1&#45;&gt;Node2</title>
<g id="a_edge1_Node000001_Node000002"><a xlink:title=" ">
<path fill="none" stroke="#63b8ff" d="M136.15,-78.06C155.21,-82.95 176.53,-88.42 196.23,-93.48"/>
<polygon fill="#63b8ff" stroke="#63b8ff" points="195.5,-96.9 206.05,-96 197.24,-90.12 195.5,-96.9"/>
</a>
</g>
</g>
<!-- Node3 -->
<g id="Node000003" class="node">
<title>Node3</title>
<g id="a_Node000003"><a xlink:href="classes_1_1alrodmue_1_1model_1_1players_1_1Player.xhtml#a957a1cee5507b34abed0ee8b4b51a4ac" target="_top" xlink:title=" ">
<polygon fill="white" stroke="#666666" points="342,-78 189,-78 189,-48 342,-48 342,-78"/>
<text text-anchor="start" x="197" y="-66" font-family="Helvetica,sans-Serif" font-size="10.00">es.alrodmue.model.players.</text>
<text text-anchor="middle" x="265.5" y="-55" font-family="Helvetica,sans-Serif" font-size="10.00">Player.isNameValid</text>
</a>
</g>
</g>
<!-- Node1&#45;&gt;Node3 -->
<g id="edge2_Node000001_Node000003" class="edge">
<title>Node1&#45;&gt;Node3</title>
<g id="a_edge2_Node000001_Node000003"><a xlink:title=" ">
<path fill="none" stroke="#63b8ff" d="M153.02,-63C161.47,-63 170.13,-63 178.7,-63"/>
<polygon fill="#63b8ff" stroke="#63b8ff" points="178.7,-66.5 188.7,-63 178.7,-59.5 178.7,-66.5"/>
</a>
</g>
</g>
<!-- Node4 -->
<g id="Node000004" class="node">
<title>Node4</title>
<g id="a_Node000004"><a xlink:href="classes_1_1alrodmue_1_1model_1_1players_1_1Player.xhtml#a1fb4e881dd4d2085143e62a77039af95" target="_top" xlink:title=" ">
<polygon fill="white" stroke="#666666" points="342,-30 189,-30 189,0 342,0 342,-30"/>
<text text-anchor="start" x="197" y="-18" font-family="Helvetica,sans-Serif" font-size="10.00">es.alrodmue.model.players.</text>
<text text-anchor="middle" x="265.5" y="-7" font-family="Helvetica,sans-Serif" font-size="10.00">Player.isSkillValid</text>
</a>
</g>
</g>
<!-- Node1&#45;&gt;Node4 -->
<g id="edge3_Node000001_Node000004" class="edge">
<title>Node1&#45;&gt;Node4</title>
<g id="a_edge3_Node000001_Node000004"><a xlink:title=" ">
<path fill="none" stroke="#63b8ff" d="M136.15,-47.94C155.21,-43.05 176.53,-37.58 196.23,-32.52"/>
<polygon fill="#63b8ff" stroke="#63b8ff" points="197.24,-35.88 206.05,-30 195.5,-29.1 197.24,-35.88"/>
</a>
</g>
</g>
</g>
</svg>
