<?xml version="1.0" encoding="UTF-8" standalone="no"?>
<!DOCTYPE svg PUBLIC "-//W3C//DTD SVG 1.1//EN"
 "http://www.w3.org/Graphics/SVG/1.1/DTD/svg11.dtd">
<!-- Generated by graphviz version 2.43.0 (0)
 -->
<!-- Title: es.alrodmue.model.matches.Match Pages: 1 -->
<svg width="869pt" height="939pt"
 viewBox="0.00 0.00 869.41 939.00" xmlns="http://www.w3.org/2000/svg" xmlns:xlink="http://www.w3.org/1999/xlink">
<g id="graph0" class="graph" transform="scale(1 1) rotate(0) translate(4 935)">
<title>es.alrodmue.model.matches.Match</title>
<!-- Node1 -->
<g id="Node000001" class="node">
<title>Node1</title>
<g id="a_Node000001"><a xlink:title=" ">
<polygon fill="#999999" stroke="transparent" points="418.91,-285 265.91,-285 265.91,0 418.91,0 418.91,-285"/>
<text text-anchor="start" x="271.41" y="-272.5" font-family="Helvetica,sans-Serif" font-size="10.00">es.alrodmue.model.matches.</text>
<text text-anchor="start" x="327.41" y="-261.5" font-family="Helvetica,sans-Serif" font-size="10.00">Match</text>
<text text-anchor="start" x="340.91" y="-246.5" font-family="Helvetica,sans-Serif" font-size="10.00"> </text>
<text text-anchor="start" x="278.41" y="-231.5" font-family="Helvetica,sans-Serif" font-size="10.00">+</text>
<text text-anchor="start" x="299.41" y="-231.5" font-family="Helvetica,sans-Serif" font-size="10.00">Match()</text>
<text text-anchor="start" x="278.41" y="-216.5" font-family="Helvetica,sans-Serif" font-size="10.00">+</text>
<text text-anchor="start" x="299.41" y="-216.5" font-family="Helvetica,sans-Serif" font-size="10.00">Match()</text>
<text text-anchor="start" x="278.41" y="-201.5" font-family="Helvetica,sans-Serif" font-size="10.00">+</text>
<text text-anchor="start" x="299.41" y="-201.5" font-family="Helvetica,sans-Serif" font-size="10.00">addFoul()</text>
<text text-anchor="start" x="278.41" y="-186.5" font-family="Helvetica,sans-Serif" font-size="10.00">+</text>
<text text-anchor="start" x="299.41" y="-186.5" font-family="Helvetica,sans-Serif" font-size="10.00">getDate()</text>
<text text-anchor="start" x="278.41" y="-171.5" font-family="Helvetica,sans-Serif" font-size="10.00">+</text>
<text text-anchor="start" x="299.41" y="-171.5" font-family="Helvetica,sans-Serif" font-size="10.00">getDetails()</text>
<text text-anchor="start" x="278.41" y="-156.5" font-family="Helvetica,sans-Serif" font-size="10.00">+</text>
<text text-anchor="start" x="299.41" y="-156.5" font-family="Helvetica,sans-Serif" font-size="10.00">getFouls()</text>
<text text-anchor="start" x="278.41" y="-141.5" font-family="Helvetica,sans-Serif" font-size="10.00">+</text>
<text text-anchor="start" x="299.41" y="-141.5" font-family="Helvetica,sans-Serif" font-size="10.00">getNumber()</text>
<text text-anchor="start" x="278.41" y="-126.5" font-family="Helvetica,sans-Serif" font-size="10.00">+</text>
<text text-anchor="start" x="299.41" y="-126.5" font-family="Helvetica,sans-Serif" font-size="10.00">getOwnPoints()</text>
<text text-anchor="start" x="278.41" y="-111.5" font-family="Helvetica,sans-Serif" font-size="10.00">+</text>
<text text-anchor="start" x="299.41" y="-111.5" font-family="Helvetica,sans-Serif" font-size="10.00">getPlayerPoints()</text>
<text text-anchor="start" x="278.41" y="-96.5" font-family="Helvetica,sans-Serif" font-size="10.00">+</text>
<text text-anchor="start" x="299.41" y="-96.5" font-family="Helvetica,sans-Serif" font-size="10.00">getPlayers()</text>
<text text-anchor="start" x="278.41" y="-81.5" font-family="Helvetica,sans-Serif" font-size="10.00">+</text>
<text text-anchor="start" x="299.41" y="-81.5" font-family="Helvetica,sans-Serif" font-size="10.00">getRivalPoints()</text>
<text text-anchor="start" x="278.41" y="-66.5" font-family="Helvetica,sans-Serif" font-size="10.00">+</text>
<text text-anchor="start" x="299.41" y="-66.5" font-family="Helvetica,sans-Serif" font-size="10.00">getType()</text>
<text text-anchor="start" x="278.41" y="-51.5" font-family="Helvetica,sans-Serif" font-size="10.00">+</text>
<text text-anchor="start" x="299.41" y="-51.5" font-family="Helvetica,sans-Serif" font-size="10.00">getWinner()</text>
<text text-anchor="start" x="278.41" y="-36.5" font-family="Helvetica,sans-Serif" font-size="10.00">+</text>
<text text-anchor="start" x="299.41" y="-36.5" font-family="Helvetica,sans-Serif" font-size="10.00">isDateValid()</text>
<text text-anchor="start" x="278.41" y="-21.5" font-family="Helvetica,sans-Serif" font-size="10.00">#</text>
<text text-anchor="start" x="299.41" y="-21.5" font-family="Helvetica,sans-Serif" font-size="10.00">isOwnTeamWinner()</text>
<text text-anchor="start" x="278.41" y="-6.5" font-family="Helvetica,sans-Serif" font-size="10.00">#</text>
<text text-anchor="start" x="299.41" y="-6.5" font-family="Helvetica,sans-Serif" font-size="10.00">calculatePoints()</text>
<polygon fill="#666666" stroke="#666666" points="266.41,-256.5 266.41,-256.5 419.41,-256.5 419.41,-256.5 266.41,-256.5"/>
<polygon fill="#666666" stroke="#666666" points="266.41,-241.5 266.41,-241.5 419.41,-241.5 419.41,-241.5 266.41,-241.5"/>
<polygon fill="none" stroke="#666666" points="265.91,0 265.91,-285 418.91,-285 418.91,0 265.91,0"/>
</a>
</g>
</g>
<!-- Node2 -->
<g id="Node000002" class="node">
<title>Node2</title>
<g id="a_Node000002"><a xlink:title=" ">
<polygon fill="white" stroke="transparent" points="72.91,-818.5 19.91,-818.5 19.91,-769.5 72.91,-769.5 72.91,-818.5"/>
<text text-anchor="start" x="25.41" y="-806" font-family="Helvetica,sans-Serif" font-size="10.00">static int</text>
<text text-anchor="start" x="44.91" y="-791" font-family="Helvetica,sans-Serif" font-size="10.00"> </text>
<text text-anchor="start" x="44.91" y="-776" font-family="Helvetica,sans-Serif" font-size="10.00"> </text>
<polygon fill="#666666" stroke="#666666" points="20.41,-801 20.41,-801 73.41,-801 73.41,-801 20.41,-801"/>
<polygon fill="#666666" stroke="#666666" points="20.41,-786 20.41,-786 73.41,-786 73.41,-786 20.41,-786"/>
<polygon fill="none" stroke="#666666" points="19.91,-769.5 19.91,-818.5 72.91,-818.5 72.91,-769.5 19.91,-769.5"/>
</a>
</g>
</g>
<!-- Node2&#45;&gt;Node1 -->
<g id="edge1_Node000001_Node000002" class="edge">
<title>Node2&#45;&gt;Node1</title>
<g id="a_edge1_Node000001_Node000002"><a xlink:title=" ">
<path fill="none" stroke="#63b8ff" d="M38.53,-769.31C17.09,-700.37 -35.88,-495.8 38.41,-354 83.6,-267.73 182,-209.78 254.66,-176.89"/>
<polygon fill="none" stroke="#63b8ff" points="254.67,-176.88 258.53,-170.8 265.64,-172.02 261.78,-178.11 254.67,-176.88"/>
</a>
</g>
<text text-anchor="middle" x="72.41" y="-516.5" font-family="Helvetica,sans-Serif" font-size="10.00" fill="grey"> &#45;nextNumber</text>
</g>
<!-- Node5 -->
<g id="Node000005" class="node">
<title>Node5</title>
<g id="a_Node000005"><a xlink:href="classes_1_1alrodmue_1_1model_1_1players_1_1Player.xhtml" target="_top" xlink:title=" ">
<polygon fill="white" stroke="transparent" points="262.91,-684 115.91,-684 115.91,-354 262.91,-354 262.91,-684"/>
<text text-anchor="start" x="121.41" y="-672" font-family="Helvetica,sans-Serif" font-size="10.00">es.alrodmue.model.players.</text>
<text text-anchor="start" x="174.41" y="-661" font-family="Helvetica,sans-Serif" font-size="10.00">Player</text>
<text text-anchor="start" x="187.91" y="-646" font-family="Helvetica,sans-Serif" font-size="10.00"> </text>
<text text-anchor="start" x="131.91" y="-631" font-family="Helvetica,sans-Serif" font-size="10.00">+</text>
<text text-anchor="start" x="156.41" y="-631" font-family="Helvetica,sans-Serif" font-size="10.00">Player()</text>
<text text-anchor="start" x="131.91" y="-616" font-family="Helvetica,sans-Serif" font-size="10.00">+</text>
<text text-anchor="start" x="156.41" y="-616" font-family="Helvetica,sans-Serif" font-size="10.00">Player()</text>
<text text-anchor="start" x="131.91" y="-601" font-family="Helvetica,sans-Serif" font-size="10.00">+</text>
<text text-anchor="start" x="156.41" y="-601" font-family="Helvetica,sans-Serif" font-size="10.00">addFoul()</text>
<text text-anchor="start" x="131.91" y="-586" font-family="Helvetica,sans-Serif" font-size="10.00">+</text>
<text text-anchor="start" x="156.41" y="-586" font-family="Helvetica,sans-Serif" font-size="10.00">addPoints()</text>
<text text-anchor="start" x="131.91" y="-571" font-family="Helvetica,sans-Serif" font-size="10.00">+</text>
<text text-anchor="start" x="156.41" y="-571" font-family="Helvetica,sans-Serif" font-size="10.00">getDetail()</text>
<text text-anchor="start" x="131.91" y="-556" font-family="Helvetica,sans-Serif" font-size="10.00">+</text>
<text text-anchor="start" x="156.41" y="-556" font-family="Helvetica,sans-Serif" font-size="10.00">getFouls()</text>
<text text-anchor="start" x="131.91" y="-541" font-family="Helvetica,sans-Serif" font-size="10.00">+</text>
<text text-anchor="start" x="156.41" y="-541" font-family="Helvetica,sans-Serif" font-size="10.00">getHeight()</text>
<text text-anchor="start" x="131.91" y="-526" font-family="Helvetica,sans-Serif" font-size="10.00">+</text>
<text text-anchor="start" x="156.41" y="-526" font-family="Helvetica,sans-Serif" font-size="10.00">getName()</text>
<text text-anchor="start" x="131.91" y="-511" font-family="Helvetica,sans-Serif" font-size="10.00">+</text>
<text text-anchor="start" x="156.41" y="-511" font-family="Helvetica,sans-Serif" font-size="10.00">getNumber()</text>
<text text-anchor="start" x="131.91" y="-496" font-family="Helvetica,sans-Serif" font-size="10.00">+</text>
<text text-anchor="start" x="156.41" y="-496" font-family="Helvetica,sans-Serif" font-size="10.00">getPoints()</text>
<text text-anchor="start" x="131.91" y="-481" font-family="Helvetica,sans-Serif" font-size="10.00">+</text>
<text text-anchor="start" x="156.41" y="-481" font-family="Helvetica,sans-Serif" font-size="10.00">getSkill()</text>
<text text-anchor="start" x="131.91" y="-466" font-family="Helvetica,sans-Serif" font-size="10.00">+</text>
<text text-anchor="start" x="156.41" y="-466" font-family="Helvetica,sans-Serif" font-size="10.00">getType()</text>
<text text-anchor="start" x="131.91" y="-451" font-family="Helvetica,sans-Serif" font-size="10.00">+</text>
<text text-anchor="start" x="156.41" y="-451" font-family="Helvetica,sans-Serif" font-size="10.00">toString()</text>
<text text-anchor="start" x="131.91" y="-436" font-family="Helvetica,sans-Serif" font-size="10.00">+</text>
<text text-anchor="start" x="156.41" y="-436" font-family="Helvetica,sans-Serif" font-size="10.00">arePointsValid()</text>
<text text-anchor="start" x="131.91" y="-421" font-family="Helvetica,sans-Serif" font-size="10.00">+</text>
<text text-anchor="start" x="156.41" y="-421" font-family="Helvetica,sans-Serif" font-size="10.00">isFoulValid()</text>
<text text-anchor="start" x="131.91" y="-406" font-family="Helvetica,sans-Serif" font-size="10.00">+</text>
<text text-anchor="start" x="156.41" y="-406" font-family="Helvetica,sans-Serif" font-size="10.00">isHeightValid()</text>
<text text-anchor="start" x="131.91" y="-391" font-family="Helvetica,sans-Serif" font-size="10.00">+</text>
<text text-anchor="start" x="156.41" y="-391" font-family="Helvetica,sans-Serif" font-size="10.00">isNameValid()</text>
<text text-anchor="start" x="131.91" y="-376" font-family="Helvetica,sans-Serif" font-size="10.00">+</text>
<text text-anchor="start" x="156.41" y="-376" font-family="Helvetica,sans-Serif" font-size="10.00">isNumberValid()</text>
<text text-anchor="start" x="131.91" y="-361" font-family="Helvetica,sans-Serif" font-size="10.00">+</text>
<text text-anchor="start" x="156.41" y="-361" font-family="Helvetica,sans-Serif" font-size="10.00">isSkillValid()</text>
<polygon fill="#666666" stroke="#666666" points="116.41,-656 116.41,-656 263.41,-656 263.41,-656 116.41,-656"/>
<polygon fill="#666666" stroke="#666666" points="116.41,-641 116.41,-641 263.41,-641 263.41,-641 116.41,-641"/>
<polygon fill="none" stroke="#666666" points="115.91,-354 115.91,-684 262.91,-684 262.91,-354 115.91,-354"/>
</a>
</g>
</g>
<!-- Node2&#45;&gt;Node5 -->
<g id="edge5_Node000005_Node000002" class="edge">
<title>Node2&#45;&gt;Node5</title>
<g id="a_edge5_Node000005_Node000002"><a xlink:title=" ">
<path fill="none" stroke="#63b8ff" d="M55.23,-769.42C62.69,-750.59 74.26,-723.82 87.41,-702 92.64,-693.32 95.88,-692.5 101.41,-684 104.13,-679.81 106.85,-675.53 109.55,-671.18"/>
<polygon fill="none" stroke="#63b8ff" points="109.56,-671.17 109.27,-663.96 115.82,-660.93 116.1,-668.13 109.56,-671.17"/>
</a>
</g>
<text text-anchor="middle" x="121.41" y="-721.5" font-family="Helvetica,sans-Serif" font-size="10.00" fill="grey"> &#45;nextNumber</text>
</g>
<!-- Node3 -->
<g id="Node000003" class="node">
<title>Node3</title>
<g id="a_Node000003"><a xlink:title=" ">
<polygon fill="white" stroke="transparent" points="327.91,-543.5 280.91,-543.5 280.91,-494.5 327.91,-494.5 327.91,-543.5"/>
<text text-anchor="start" x="286.41" y="-531" font-family="Helvetica,sans-Serif" font-size="10.00">final int</text>
<text text-anchor="start" x="302.91" y="-516" font-family="Helvetica,sans-Serif" font-size="10.00"> </text>
<text text-anchor="start" x="302.91" y="-501" font-family="Helvetica,sans-Serif" font-size="10.00"> </text>
<polygon fill="#666666" stroke="#666666" points="281.41,-526 281.41,-526 328.41,-526 328.41,-526 281.41,-526"/>
<polygon fill="#666666" stroke="#666666" points="281.41,-511 281.41,-511 328.41,-511 328.41,-511 281.41,-511"/>
<polygon fill="none" stroke="#666666" points="280.91,-494.5 280.91,-543.5 327.91,-543.5 327.91,-494.5 280.91,-494.5"/>
</a>
</g>
</g>
<!-- Node3&#45;&gt;Node1 -->
<g id="edge2_Node000001_Node000003" class="edge">
<title>Node3&#45;&gt;Node1</title>
<g id="a_edge2_Node000001_Node000003"><a xlink:title=" ">
<path fill="none" stroke="#63b8ff" d="M301.93,-494.34C298.26,-454.61 292.67,-372.07 301.41,-303 301.65,-301.09 301.9,-299.17 302.18,-297.25"/>
<polygon fill="none" stroke="#63b8ff" points="302.18,-297.19 299.15,-290.65 304.02,-285.33 307.05,-291.87 302.18,-297.19"/>
</a>
</g>
<text text-anchor="middle" x="331.91" y="-328" font-family="Helvetica,sans-Serif" font-size="10.00" fill="grey"> #number</text>
<text text-anchor="middle" x="331.91" y="-317" font-family="Helvetica,sans-Serif" font-size="10.00" fill="grey">#ownPoints</text>
<text text-anchor="middle" x="331.91" y="-306" font-family="Helvetica,sans-Serif" font-size="10.00" fill="grey">#rivalPoints</text>
</g>
<!-- Node4 -->
<g id="Node000004" class="node">
<title>Node4</title>
<g id="a_Node000004"><a xlink:title=" ">
<polygon fill="white" stroke="transparent" points="410.91,-543.5 351.91,-543.5 351.91,-494.5 410.91,-494.5 410.91,-543.5"/>
<text text-anchor="start" x="357.41" y="-531" font-family="Helvetica,sans-Serif" font-size="10.00">LocalDate</text>
<text text-anchor="start" x="379.91" y="-516" font-family="Helvetica,sans-Serif" font-size="10.00"> </text>
<text text-anchor="start" x="379.91" y="-501" font-family="Helvetica,sans-Serif" font-size="10.00"> </text>
<polygon fill="#666666" stroke="#666666" points="352.41,-526 352.41,-526 411.41,-526 411.41,-526 352.41,-526"/>
<polygon fill="#666666" stroke="#666666" points="352.41,-511 352.41,-511 411.41,-511 411.41,-511 352.41,-511"/>
<polygon fill="none" stroke="#666666" points="351.91,-494.5 351.91,-543.5 410.91,-543.5 410.91,-494.5 351.91,-494.5"/>
</a>
</g>
</g>
<!-- Node4&#45;&gt;Node1 -->
<g id="edge3_Node000001_Node000004" class="edge">
<title>Node4&#45;&gt;Node1</title>
<g id="a_edge3_Node000001_Node000004"><a xlink:title=" ">
<path fill="none" stroke="#63b8ff" d="M379.61,-494.43C376.52,-454.84 369.83,-372.49 362.41,-303 362.2,-301.09 361.99,-299.16 361.78,-297.23"/>
<polygon fill="none" stroke="#63b8ff" points="361.77,-297.15 357.14,-291.63 360.45,-285.22 365.09,-290.75 361.77,-297.15"/>
</a>
</g>
<text text-anchor="middle" x="383.41" y="-317" font-family="Helvetica,sans-Serif" font-size="10.00" fill="grey"> #date</text>
</g>
<!-- Node5&#45;&gt;Node1 -->
<g id="edge4_Node000001_Node000005" class="edge">
<title>Node5&#45;&gt;Node1</title>
<g id="a_edge4_Node000001_Node000005"><a xlink:title=" ">
<path fill="none" stroke="#63b8ff" d="M217.65,-353.97C222.68,-336.47 228.55,-319.17 235.41,-303 242.12,-287.16 250.47,-271.23 259.53,-255.88"/>
<polygon fill="none" stroke="#63b8ff" points="259.69,-255.62 259.37,-248.42 265.9,-245.36 266.22,-252.56 259.69,-255.62"/>
</a>
</g>
<text text-anchor="middle" x="265.41" y="-317" font-family="Helvetica,sans-Serif" font-size="10.00" fill="grey"> #playerList</text>
</g>
<!-- Node6 -->
<g id="Node000006" class="node">
<title>Node6</title>
<g id="a_Node000006"><a xlink:title=" ">
<polygon fill="white" stroke="transparent" points="172.91,-818.5 133.91,-818.5 133.91,-769.5 172.91,-769.5 172.91,-818.5"/>
<text text-anchor="start" x="139.41" y="-806" font-family="Helvetica,sans-Serif" font-size="10.00">String</text>
<text text-anchor="start" x="151.91" y="-791" font-family="Helvetica,sans-Serif" font-size="10.00"> </text>
<text text-anchor="start" x="151.91" y="-776" font-family="Helvetica,sans-Serif" font-size="10.00"> </text>
<polygon fill="#666666" stroke="#666666" points="134.41,-801 134.41,-801 173.41,-801 173.41,-801 134.41,-801"/>
<polygon fill="#666666" stroke="#666666" points="134.41,-786 134.41,-786 173.41,-786 173.41,-786 134.41,-786"/>
<polygon fill="none" stroke="#666666" points="133.91,-769.5 133.91,-818.5 172.91,-818.5 172.91,-769.5 133.91,-769.5"/>
</a>
</g>
</g>
<!-- Node6&#45;&gt;Node5 -->
<g id="edge6_Node000005_Node000006" class="edge">
<title>Node6&#45;&gt;Node5</title>
<g id="a_edge6_Node000005_Node000006"><a xlink:title=" ">
<path fill="none" stroke="#63b8ff" d="M156.15,-769.42C158.31,-751.04 161.45,-724.88 164.41,-702 164.65,-700.08 164.9,-698.15 165.16,-696.21"/>
<polygon fill="none" stroke="#63b8ff" points="165.17,-696.07 161.99,-689.61 166.73,-684.18 169.92,-690.64 165.17,-696.07"/>
</a>
</g>
<text text-anchor="middle" x="184.41" y="-721.5" font-family="Helvetica,sans-Serif" font-size="10.00" fill="grey"> #name</text>
</g>
<!-- Node7 -->
<g id="Node000007" class="node">
<title>Node7</title>
<g id="a_Node000007"><a xlink:title=" ">
<polygon fill="white" stroke="transparent" points="227.91,-818.5 204.91,-818.5 204.91,-769.5 227.91,-769.5 227.91,-818.5"/>
<text text-anchor="start" x="210.41" y="-806" font-family="Helvetica,sans-Serif" font-size="10.00">int</text>
<text text-anchor="start" x="214.91" y="-791" font-family="Helvetica,sans-Serif" font-size="10.00"> </text>
<text text-anchor="start" x="214.91" y="-776" font-family="Helvetica,sans-Serif" font-size="10.00"> </text>
<polygon fill="#666666" stroke="#666666" points="205.41,-801 205.41,-801 228.41,-801 228.41,-801 205.41,-801"/>
<polygon fill="#666666" stroke="#666666" points="205.41,-786 205.41,-786 228.41,-786 228.41,-786 205.41,-786"/>
<polygon fill="none" stroke="#666666" points="204.91,-769.5 204.91,-818.5 227.91,-818.5 227.91,-769.5 204.91,-769.5"/>
</a>
</g>
</g>
<!-- Node7&#45;&gt;Node5 -->
<g id="edge7_Node000005_Node000007" class="edge">
<title>Node7&#45;&gt;Node5</title>
<g id="a_edge7_Node000005_Node000007"><a xlink:title=" ">
<path fill="none" stroke="#63b8ff" d="M214.06,-769.25C212.29,-751.41 209.7,-725.16 206.84,-696.32"/>
<polygon fill="none" stroke="#63b8ff" points="206.83,-696.2 202.26,-690.63 205.65,-684.26 210.22,-689.84 206.83,-696.2"/>
</a>
</g>
<text text-anchor="middle" x="234.41" y="-738" font-family="Helvetica,sans-Serif" font-size="10.00" fill="grey"> #height</text>
<text text-anchor="middle" x="234.41" y="-727" font-family="Helvetica,sans-Serif" font-size="10.00" fill="grey">#number</text>
<text text-anchor="middle" x="234.41" y="-716" font-family="Helvetica,sans-Serif" font-size="10.00" fill="grey">#points</text>
<text text-anchor="middle" x="234.41" y="-705" font-family="Helvetica,sans-Serif" font-size="10.00" fill="grey">#skill</text>
</g>
<!-- Node8 -->
<g id="Node000008" class="node">
<title>Node8</title>
<g id="a_Node000008"><a xlink:title=" ">
<polygon fill="white" stroke="transparent" points="464.91,-824 245.91,-824 245.91,-764 464.91,-764 464.91,-824"/>
<text text-anchor="start" x="251.41" y="-812" font-family="Helvetica,sans-Serif" font-size="10.00">ObservableList&lt; es.alrodmue.model.fouls.</text>
<text text-anchor="start" x="339.91" y="-801" font-family="Helvetica,sans-Serif" font-size="10.00">Foul &gt;</text>
<text text-anchor="start" x="353.91" y="-786" font-family="Helvetica,sans-Serif" font-size="10.00"> </text>
<text text-anchor="start" x="353.91" y="-771" font-family="Helvetica,sans-Serif" font-size="10.00"> </text>
<polygon fill="#666666" stroke="#666666" points="246.41,-796 246.41,-796 465.41,-796 465.41,-796 246.41,-796"/>
<polygon fill="#666666" stroke="#666666" points="246.41,-781 246.41,-781 465.41,-781 465.41,-781 246.41,-781"/>
<polygon fill="none" stroke="#666666" points="245.91,-764 245.91,-824 464.91,-824 464.91,-764 245.91,-764"/>
</a>
</g>
</g>
<!-- Node8&#45;&gt;Node5 -->
<g id="edge8_Node000005_Node000008" class="edge">
<title>Node8&#45;&gt;Node5</title>
<g id="a_edge8_Node000005_Node000008"><a xlink:title=" ">
<path fill="none" stroke="#63b8ff" d="M330.24,-763.6C312.63,-742.28 289.18,-712.34 271.41,-684 270.71,-682.89 270.01,-681.77 269.32,-680.64"/>
<polygon fill="none" stroke="#63b8ff" points="269.31,-680.63 262.78,-677.56 263.1,-670.36 269.63,-673.43 269.31,-680.63"/>
</a>
</g>
<text text-anchor="middle" x="333.41" y="-721.5" font-family="Helvetica,sans-Serif" font-size="10.00" fill="grey"> #fouls</text>
</g>
<!-- Node9 -->
<g id="Node000009" class="node">
<title>Node9</title>
<g id="a_Node000009"><a xlink:title=" ">
<polygon fill="white" stroke="transparent" points="396.91,-931 313.91,-931 313.91,-882 396.91,-882 396.91,-931"/>
<text text-anchor="start" x="319.41" y="-918.5" font-family="Helvetica,sans-Serif" font-size="10.00">ObservableList</text>
<text text-anchor="start" x="353.91" y="-903.5" font-family="Helvetica,sans-Serif" font-size="10.00"> </text>
<text text-anchor="start" x="353.91" y="-888.5" font-family="Helvetica,sans-Serif" font-size="10.00"> </text>
<polygon fill="#666666" stroke="#666666" points="314.41,-913.5 314.41,-913.5 397.41,-913.5 397.41,-913.5 314.41,-913.5"/>
<polygon fill="#666666" stroke="#666666" points="314.41,-898.5 314.41,-898.5 397.41,-898.5 397.41,-898.5 314.41,-898.5"/>
<polygon fill="none" stroke="#666666" points="313.91,-882 313.91,-931 396.91,-931 396.91,-882 313.91,-882"/>
</a>
</g>
</g>
<!-- Node9&#45;&gt;Node8 -->
<g id="edge9_Node000008_Node000009" class="edge">
<title>Node9&#45;&gt;Node8</title>
<g id="a_edge9_Node000008_Node000009"><a xlink:title=" ">
<path fill="none" stroke="orange" d="M355.41,-871.75C355.41,-856.56 355.41,-838.79 355.41,-824.17"/>
<polygon fill="orange" stroke="orange" points="351.91,-871.79 355.41,-881.79 358.91,-871.8 351.91,-871.79"/>
</a>
</g>
<text text-anchor="start" x="355.41" y="-856" font-family="Helvetica,sans-Serif" font-size="10.00" fill="grey"> &lt; es::alrodmue::model</text>
<text text-anchor="middle" x="412.91" y="-845" font-family="Helvetica,sans-Serif" font-size="10.00" fill="grey">::fouls::Foul &gt;</text>
</g>
<!-- Node10 -->
<g id="Node000010" class="node">
<title>Node10</title>
<g id="a_Node000010"><a xlink:title=" ">
<polygon fill="white" stroke="transparent" points="633.41,-549 429.41,-549 429.41,-489 633.41,-489 633.41,-549"/>
<text text-anchor="start" x="434.41" y="-537" font-family="Helvetica,sans-Serif" font-size="10.00">HashMap&lt; es.alrodmue.model.players.</text>
<text text-anchor="start" x="489.91" y="-526" font-family="Helvetica,sans-Serif" font-size="10.00">Player, Integer &gt;</text>
<text text-anchor="start" x="529.41" y="-511" font-family="Helvetica,sans-Serif" font-size="10.00"> </text>
<text text-anchor="start" x="529.41" y="-496" font-family="Helvetica,sans-Serif" font-size="10.00"> </text>
<polygon fill="#666666" stroke="#666666" points="429.41,-521 429.41,-521 633.41,-521 633.41,-521 429.41,-521"/>
<polygon fill="#666666" stroke="#666666" points="429.41,-506 429.41,-506 633.41,-506 633.41,-506 429.41,-506"/>
<polygon fill="none" stroke="#666666" points="429.41,-489 429.41,-549 633.41,-549 633.41,-489 429.41,-489"/>
</a>
</g>
</g>
<!-- Node10&#45;&gt;Node1 -->
<g id="edge10_Node000001_Node000010" class="edge">
<title>Node10&#45;&gt;Node1</title>
<g id="a_edge10_Node000001_Node000010"><a xlink:title=" ">
<path fill="none" stroke="#63b8ff" d="M516.73,-488.93C495.82,-447.49 455.94,-368.47 419.6,-296.46"/>
<polygon fill="none" stroke="#63b8ff" points="419.44,-296.14 413.16,-292.59 414.03,-285.43 420.31,-288.98 419.44,-296.14"/>
</a>
</g>
<text text-anchor="middle" x="473.91" y="-317" font-family="Helvetica,sans-Serif" font-size="10.00" fill="grey"> #playerPoints</text>
</g>
<!-- Node11 -->
<g id="Node000011" class="node">
<title>Node11</title>
<g id="a_Node000011"><a xlink:title=" ">
<polygon fill="white" stroke="transparent" points="559.41,-818.5 503.41,-818.5 503.41,-769.5 559.41,-769.5 559.41,-818.5"/>
<text text-anchor="start" x="508.41" y="-806" font-family="Helvetica,sans-Serif" font-size="10.00">HashMap</text>
<text text-anchor="start" x="529.41" y="-791" font-family="Helvetica,sans-Serif" font-size="10.00"> </text>
<text text-anchor="start" x="529.41" y="-776" font-family="Helvetica,sans-Serif" font-size="10.00"> </text>
<polygon fill="#666666" stroke="#666666" points="503.41,-801 503.41,-801 559.41,-801 559.41,-801 503.41,-801"/>
<polygon fill="#666666" stroke="#666666" points="503.41,-786 503.41,-786 559.41,-786 559.41,-786 503.41,-786"/>
<polygon fill="none" stroke="#666666" points="503.41,-769.5 503.41,-818.5 559.41,-818.5 559.41,-769.5 503.41,-769.5"/>
</a>
</g>
</g>
<!-- Node11&#45;&gt;Node10 -->
<g id="edge11_Node000010_Node000011" class="edge">
<title>Node11&#45;&gt;Node10</title>
<g id="a_edge11_Node000010_Node000011"><a xlink:title=" ">
<path fill="none" stroke="orange" d="M531.41,-759.15C531.41,-705.08 531.41,-600.14 531.41,-549.18"/>
<polygon fill="orange" stroke="orange" points="527.91,-759.25 531.41,-769.25 534.91,-759.25 527.91,-759.25"/>
</a>
</g>
<text text-anchor="start" x="531.41" y="-727" font-family="Helvetica,sans-Serif" font-size="10.00" fill="grey"> &lt; es::alrodmue::model</text>
<text text-anchor="middle" x="596.91" y="-716" font-family="Helvetica,sans-Serif" font-size="10.00" fill="grey">::players::Player, Integer &gt;</text>
</g>
<!-- Node12 -->
<g id="Node000012" class="node">
<title>Node12</title>
<g id="a_Node000012"><a xlink:title=" ">
<polygon fill="white" stroke="transparent" points="841.41,-549 651.41,-549 651.41,-489 841.41,-489 841.41,-549"/>
<text text-anchor="start" x="656.41" y="-537" font-family="Helvetica,sans-Serif" font-size="10.00">ArrayList&lt; es.alrodmue.model.fouls.</text>
<text text-anchor="start" x="730.41" y="-526" font-family="Helvetica,sans-Serif" font-size="10.00">Foul &gt;</text>
<text text-anchor="start" x="744.41" y="-511" font-family="Helvetica,sans-Serif" font-size="10.00"> </text>
<text text-anchor="start" x="744.41" y="-496" font-family="Helvetica,sans-Serif" font-size="10.00"> </text>
<polygon fill="#666666" stroke="#666666" points="651.41,-521 651.41,-521 841.41,-521 841.41,-521 651.41,-521"/>
<polygon fill="#666666" stroke="#666666" points="651.41,-506 651.41,-506 841.41,-506 841.41,-506 651.41,-506"/>
<polygon fill="none" stroke="#666666" points="651.41,-489 651.41,-549 841.41,-549 841.41,-489 651.41,-489"/>
</a>
</g>
</g>
<!-- Node12&#45;&gt;Node1 -->
<g id="edge12_Node000001_Node000012" class="edge">
<title>Node12&#45;&gt;Node1</title>
<g id="a_edge12_Node000001_Node000012"><a xlink:title=" ">
<path fill="none" stroke="#63b8ff" d="M732.48,-488.95C714.85,-454.18 681.98,-395.46 642.41,-354 579.57,-288.16 493.3,-230.18 429.39,-191.83"/>
<polygon fill="none" stroke="#63b8ff" points="429.25,-191.75 422.05,-192.12 418.94,-185.61 426.14,-185.24 429.25,-191.75"/>
</a>
</g>
<text text-anchor="middle" x="640.41" y="-317" font-family="Helvetica,sans-Serif" font-size="10.00" fill="grey"> #fouls</text>
</g>
<!-- Node13 -->
<g id="Node000013" class="node">
<title>Node13</title>
<g id="a_Node000013"><a xlink:title=" ">
<polygon fill="white" stroke="transparent" points="773.41,-818.5 719.41,-818.5 719.41,-769.5 773.41,-769.5 773.41,-818.5"/>
<text text-anchor="start" x="724.41" y="-806" font-family="Helvetica,sans-Serif" font-size="10.00">ArrayList</text>
<text text-anchor="start" x="744.41" y="-791" font-family="Helvetica,sans-Serif" font-size="10.00"> </text>
<text text-anchor="start" x="744.41" y="-776" font-family="Helvetica,sans-Serif" font-size="10.00"> </text>
<polygon fill="#666666" stroke="#666666" points="719.41,-801 719.41,-801 773.41,-801 773.41,-801 719.41,-801"/>
<polygon fill="#666666" stroke="#666666" points="719.41,-786 719.41,-786 773.41,-786 773.41,-786 719.41,-786"/>
<polygon fill="none" stroke="#666666" points="719.41,-769.5 719.41,-818.5 773.41,-818.5 773.41,-769.5 719.41,-769.5"/>
</a>
</g>
</g>
<!-- Node13&#45;&gt;Node12 -->
<g id="edge13_Node000012_Node000013" class="edge">
<title>Node13&#45;&gt;Node12</title>
<g id="a_edge13_Node000012_Node000013"><a xlink:title=" ">
<path fill="none" stroke="orange" d="M746.41,-759.15C746.41,-705.08 746.41,-600.14 746.41,-549.18"/>
<polygon fill="orange" stroke="orange" points="742.91,-759.25 746.41,-769.25 749.91,-759.25 742.91,-759.25"/>
</a>
</g>
<text text-anchor="start" x="746.41" y="-727" font-family="Helvetica,sans-Serif" font-size="10.00" fill="grey"> &lt; es::alrodmue::model</text>
<text text-anchor="middle" x="803.91" y="-716" font-family="Helvetica,sans-Serif" font-size="10.00" fill="grey">::fouls::Foul &gt;</text>
</g>
</g>
</svg>
