<?xml version="1.0" encoding="UTF-8" standalone="no"?>
<!DOCTYPE svg PUBLIC "-//W3C//DTD SVG 1.1//EN"
 "http://www.w3.org/Graphics/SVG/1.1/DTD/svg11.dtd">
<!-- Generated by graphviz version 2.43.0 (0)
 -->
<!-- Title: es.alrodmue.model.fouls.Foul Pages: 1 -->
<svg width="984pt" height="1110pt"
 viewBox="0.00 0.00 984.00 1110.00" xmlns="http://www.w3.org/2000/svg" xmlns:xlink="http://www.w3.org/1999/xlink">
<g id="graph0" class="graph" transform="scale(1 1) rotate(0) translate(4 1106)">
<title>es.alrodmue.model.fouls.Foul</title>
<!-- Node1 -->
<g id="Node000001" class="node">
<title>Node1</title>
<g id="a_Node000001"><a xlink:title=" ">
<polygon fill="#999999" stroke="transparent" points="696.5,-124 541.5,-124 541.5,0 696.5,0 696.5,-124"/>
<text text-anchor="start" x="547" y="-112" font-family="Helvetica,sans-Serif" font-size="10.00">es.alrodmue.model.fouls.Foul</text>
<text text-anchor="start" x="617.5" y="-97" font-family="Helvetica,sans-Serif" font-size="10.00"> </text>
<text text-anchor="start" x="561.5" y="-82" font-family="Helvetica,sans-Serif" font-size="10.00">+</text>
<text text-anchor="start" x="590" y="-82" font-family="Helvetica,sans-Serif" font-size="10.00">Foul()</text>
<text text-anchor="start" x="561.5" y="-67" font-family="Helvetica,sans-Serif" font-size="10.00">+</text>
<text text-anchor="start" x="590" y="-67" font-family="Helvetica,sans-Serif" font-size="10.00">getMatch()</text>
<text text-anchor="start" x="561.5" y="-52" font-family="Helvetica,sans-Serif" font-size="10.00">+</text>
<text text-anchor="start" x="590" y="-52" font-family="Helvetica,sans-Serif" font-size="10.00">getPlayer()</text>
<text text-anchor="start" x="561.5" y="-37" font-family="Helvetica,sans-Serif" font-size="10.00">+</text>
<text text-anchor="start" x="590" y="-37" font-family="Helvetica,sans-Serif" font-size="10.00">getType()</text>
<text text-anchor="start" x="561.5" y="-22" font-family="Helvetica,sans-Serif" font-size="10.00">+</text>
<text text-anchor="start" x="590" y="-22" font-family="Helvetica,sans-Serif" font-size="10.00">isMatchValid()</text>
<text text-anchor="start" x="561.5" y="-7" font-family="Helvetica,sans-Serif" font-size="10.00">+</text>
<text text-anchor="start" x="590" y="-7" font-family="Helvetica,sans-Serif" font-size="10.00">isPlayerValid()</text>
<polygon fill="#666666" stroke="#666666" points="542,-107 542,-107 697,-107 697,-107 542,-107"/>
<polygon fill="#666666" stroke="#666666" points="542,-92 542,-92 697,-92 697,-92 542,-92"/>
<polygon fill="none" stroke="#666666" points="541.5,0 541.5,-124 696.5,-124 696.5,0 541.5,0"/>
</a>
</g>
</g>
<!-- Node2 -->
<g id="Node000002" class="node">
<title>Node2</title>
<g id="a_Node000002"><a xlink:href="classes_1_1alrodmue_1_1model_1_1players_1_1Player.xhtml" target="_top" xlink:title=" ">
<polygon fill="white" stroke="transparent" points="824.5,-855 677.5,-855 677.5,-525 824.5,-525 824.5,-855"/>
<text text-anchor="start" x="683" y="-843" font-family="Helvetica,sans-Serif" font-size="10.00">es.alrodmue.model.players.</text>
<text text-anchor="start" x="736" y="-832" font-family="Helvetica,sans-Serif" font-size="10.00">Player</text>
<text text-anchor="start" x="749.5" y="-817" font-family="Helvetica,sans-Serif" font-size="10.00"> </text>
<text text-anchor="start" x="693.5" y="-802" font-family="Helvetica,sans-Serif" font-size="10.00">+</text>
<text text-anchor="start" x="718" y="-802" font-family="Helvetica,sans-Serif" font-size="10.00">Player()</text>
<text text-anchor="start" x="693.5" y="-787" font-family="Helvetica,sans-Serif" font-size="10.00">+</text>
<text text-anchor="start" x="718" y="-787" font-family="Helvetica,sans-Serif" font-size="10.00">Player()</text>
<text text-anchor="start" x="693.5" y="-772" font-family="Helvetica,sans-Serif" font-size="10.00">+</text>
<text text-anchor="start" x="718" y="-772" font-family="Helvetica,sans-Serif" font-size="10.00">addFoul()</text>
<text text-anchor="start" x="693.5" y="-757" font-family="Helvetica,sans-Serif" font-size="10.00">+</text>
<text text-anchor="start" x="718" y="-757" font-family="Helvetica,sans-Serif" font-size="10.00">addPoints()</text>
<text text-anchor="start" x="693.5" y="-742" font-family="Helvetica,sans-Serif" font-size="10.00">+</text>
<text text-anchor="start" x="718" y="-742" font-family="Helvetica,sans-Serif" font-size="10.00">getDetail()</text>
<text text-anchor="start" x="693.5" y="-727" font-family="Helvetica,sans-Serif" font-size="10.00">+</text>
<text text-anchor="start" x="718" y="-727" font-family="Helvetica,sans-Serif" font-size="10.00">getFouls()</text>
<text text-anchor="start" x="693.5" y="-712" font-family="Helvetica,sans-Serif" font-size="10.00">+</text>
<text text-anchor="start" x="718" y="-712" font-family="Helvetica,sans-Serif" font-size="10.00">getHeight()</text>
<text text-anchor="start" x="693.5" y="-697" font-family="Helvetica,sans-Serif" font-size="10.00">+</text>
<text text-anchor="start" x="718" y="-697" font-family="Helvetica,sans-Serif" font-size="10.00">getName()</text>
<text text-anchor="start" x="693.5" y="-682" font-family="Helvetica,sans-Serif" font-size="10.00">+</text>
<text text-anchor="start" x="718" y="-682" font-family="Helvetica,sans-Serif" font-size="10.00">getNumber()</text>
<text text-anchor="start" x="693.5" y="-667" font-family="Helvetica,sans-Serif" font-size="10.00">+</text>
<text text-anchor="start" x="718" y="-667" font-family="Helvetica,sans-Serif" font-size="10.00">getPoints()</text>
<text text-anchor="start" x="693.5" y="-652" font-family="Helvetica,sans-Serif" font-size="10.00">+</text>
<text text-anchor="start" x="718" y="-652" font-family="Helvetica,sans-Serif" font-size="10.00">getSkill()</text>
<text text-anchor="start" x="693.5" y="-637" font-family="Helvetica,sans-Serif" font-size="10.00">+</text>
<text text-anchor="start" x="718" y="-637" font-family="Helvetica,sans-Serif" font-size="10.00">getType()</text>
<text text-anchor="start" x="693.5" y="-622" font-family="Helvetica,sans-Serif" font-size="10.00">+</text>
<text text-anchor="start" x="718" y="-622" font-family="Helvetica,sans-Serif" font-size="10.00">toString()</text>
<text text-anchor="start" x="693.5" y="-607" font-family="Helvetica,sans-Serif" font-size="10.00">+</text>
<text text-anchor="start" x="718" y="-607" font-family="Helvetica,sans-Serif" font-size="10.00">arePointsValid()</text>
<text text-anchor="start" x="693.5" y="-592" font-family="Helvetica,sans-Serif" font-size="10.00">+</text>
<text text-anchor="start" x="718" y="-592" font-family="Helvetica,sans-Serif" font-size="10.00">isFoulValid()</text>
<text text-anchor="start" x="693.5" y="-577" font-family="Helvetica,sans-Serif" font-size="10.00">+</text>
<text text-anchor="start" x="718" y="-577" font-family="Helvetica,sans-Serif" font-size="10.00">isHeightValid()</text>
<text text-anchor="start" x="693.5" y="-562" font-family="Helvetica,sans-Serif" font-size="10.00">+</text>
<text text-anchor="start" x="718" y="-562" font-family="Helvetica,sans-Serif" font-size="10.00">isNameValid()</text>
<text text-anchor="start" x="693.5" y="-547" font-family="Helvetica,sans-Serif" font-size="10.00">+</text>
<text text-anchor="start" x="718" y="-547" font-family="Helvetica,sans-Serif" font-size="10.00">isNumberValid()</text>
<text text-anchor="start" x="693.5" y="-532" font-family="Helvetica,sans-Serif" font-size="10.00">+</text>
<text text-anchor="start" x="718" y="-532" font-family="Helvetica,sans-Serif" font-size="10.00">isSkillValid()</text>
<polygon fill="#666666" stroke="#666666" points="678,-827 678,-827 825,-827 825,-827 678,-827"/>
<polygon fill="#666666" stroke="#666666" points="678,-812 678,-812 825,-812 825,-812 678,-812"/>
<polygon fill="none" stroke="#666666" points="677.5,-525 677.5,-855 824.5,-855 824.5,-525 677.5,-525"/>
</a>
</g>
</g>
<!-- Node2&#45;&gt;Node1 -->
<g id="edge1_Node000001_Node000002" class="edge">
<title>Node2&#45;&gt;Node1</title>
<g id="a_edge1_Node000001_Node000002"><a xlink:title=" ">
<path fill="none" stroke="#63b8ff" d="M722.85,-524.79C719.64,-507.62 716.33,-490.44 713,-474 688.9,-355.03 656.57,-217.71 636.8,-135.75"/>
<polygon fill="none" stroke="#63b8ff" points="636.79,-135.73 631.49,-130.84 633.97,-124.07 639.27,-128.96 636.79,-135.73"/>
</a>
</g>
<text text-anchor="middle" x="731.5" y="-311" font-family="Helvetica,sans-Serif" font-size="10.00" fill="grey"> #player</text>
</g>
<!-- Node8 -->
<g id="Node000008" class="node">
<title>Node8</title>
<g id="a_Node000008"><a xlink:href="classes_1_1alrodmue_1_1model_1_1matches_1_1Match.xhtml" target="_top" xlink:title=" ">
<polygon fill="white" stroke="transparent" points="536.5,-456 383.5,-456 383.5,-171 536.5,-171 536.5,-456"/>
<text text-anchor="start" x="389" y="-443.5" font-family="Helvetica,sans-Serif" font-size="10.00">es.alrodmue.model.matches.</text>
<text text-anchor="start" x="445" y="-432.5" font-family="Helvetica,sans-Serif" font-size="10.00">Match</text>
<text text-anchor="start" x="458.5" y="-417.5" font-family="Helvetica,sans-Serif" font-size="10.00"> </text>
<text text-anchor="start" x="396" y="-402.5" font-family="Helvetica,sans-Serif" font-size="10.00">+</text>
<text text-anchor="start" x="417" y="-402.5" font-family="Helvetica,sans-Serif" font-size="10.00">Match()</text>
<text text-anchor="start" x="396" y="-387.5" font-family="Helvetica,sans-Serif" font-size="10.00">+</text>
<text text-anchor="start" x="417" y="-387.5" font-family="Helvetica,sans-Serif" font-size="10.00">Match()</text>
<text text-anchor="start" x="396" y="-372.5" font-family="Helvetica,sans-Serif" font-size="10.00">+</text>
<text text-anchor="start" x="417" y="-372.5" font-family="Helvetica,sans-Serif" font-size="10.00">addFoul()</text>
<text text-anchor="start" x="396" y="-357.5" font-family="Helvetica,sans-Serif" font-size="10.00">+</text>
<text text-anchor="start" x="417" y="-357.5" font-family="Helvetica,sans-Serif" font-size="10.00">getDate()</text>
<text text-anchor="start" x="396" y="-342.5" font-family="Helvetica,sans-Serif" font-size="10.00">+</text>
<text text-anchor="start" x="417" y="-342.5" font-family="Helvetica,sans-Serif" font-size="10.00">getDetails()</text>
<text text-anchor="start" x="396" y="-327.5" font-family="Helvetica,sans-Serif" font-size="10.00">+</text>
<text text-anchor="start" x="417" y="-327.5" font-family="Helvetica,sans-Serif" font-size="10.00">getFouls()</text>
<text text-anchor="start" x="396" y="-312.5" font-family="Helvetica,sans-Serif" font-size="10.00">+</text>
<text text-anchor="start" x="417" y="-312.5" font-family="Helvetica,sans-Serif" font-size="10.00">getNumber()</text>
<text text-anchor="start" x="396" y="-297.5" font-family="Helvetica,sans-Serif" font-size="10.00">+</text>
<text text-anchor="start" x="417" y="-297.5" font-family="Helvetica,sans-Serif" font-size="10.00">getOwnPoints()</text>
<text text-anchor="start" x="396" y="-282.5" font-family="Helvetica,sans-Serif" font-size="10.00">+</text>
<text text-anchor="start" x="417" y="-282.5" font-family="Helvetica,sans-Serif" font-size="10.00">getPlayerPoints()</text>
<text text-anchor="start" x="396" y="-267.5" font-family="Helvetica,sans-Serif" font-size="10.00">+</text>
<text text-anchor="start" x="417" y="-267.5" font-family="Helvetica,sans-Serif" font-size="10.00">getPlayers()</text>
<text text-anchor="start" x="396" y="-252.5" font-family="Helvetica,sans-Serif" font-size="10.00">+</text>
<text text-anchor="start" x="417" y="-252.5" font-family="Helvetica,sans-Serif" font-size="10.00">getRivalPoints()</text>
<text text-anchor="start" x="396" y="-237.5" font-family="Helvetica,sans-Serif" font-size="10.00">+</text>
<text text-anchor="start" x="417" y="-237.5" font-family="Helvetica,sans-Serif" font-size="10.00">getType()</text>
<text text-anchor="start" x="396" y="-222.5" font-family="Helvetica,sans-Serif" font-size="10.00">+</text>
<text text-anchor="start" x="417" y="-222.5" font-family="Helvetica,sans-Serif" font-size="10.00">getWinner()</text>
<text text-anchor="start" x="396" y="-207.5" font-family="Helvetica,sans-Serif" font-size="10.00">+</text>
<text text-anchor="start" x="417" y="-207.5" font-family="Helvetica,sans-Serif" font-size="10.00">isDateValid()</text>
<text text-anchor="start" x="396" y="-192.5" font-family="Helvetica,sans-Serif" font-size="10.00">#</text>
<text text-anchor="start" x="417" y="-192.5" font-family="Helvetica,sans-Serif" font-size="10.00">isOwnTeamWinner()</text>
<text text-anchor="start" x="396" y="-177.5" font-family="Helvetica,sans-Serif" font-size="10.00">#</text>
<text text-anchor="start" x="417" y="-177.5" font-family="Helvetica,sans-Serif" font-size="10.00">calculatePoints()</text>
<polygon fill="#666666" stroke="#666666" points="384,-427.5 384,-427.5 537,-427.5 537,-427.5 384,-427.5"/>
<polygon fill="#666666" stroke="#666666" points="384,-412.5 384,-412.5 537,-412.5 537,-412.5 384,-412.5"/>
<polygon fill="none" stroke="#666666" points="383.5,-171 383.5,-456 536.5,-456 536.5,-171 383.5,-171"/>
</a>
</g>
</g>
<!-- Node2&#45;&gt;Node8 -->
<g id="edge11_Node000008_Node000002" class="edge">
<title>Node2&#45;&gt;Node8</title>
<g id="a_edge11_Node000008_Node000002"><a xlink:title=" ">
<path fill="none" stroke="#63b8ff" d="M677.25,-545.75C672.61,-538.62 667.85,-531.66 663,-525 628.52,-477.7 583.93,-430.32 545.33,-392.51"/>
<polygon fill="none" stroke="#63b8ff" points="545.28,-392.47 538.19,-391.15 536.68,-384.1 543.77,-385.42 545.28,-392.47"/>
</a>
</g>
<text text-anchor="middle" x="679" y="-488" font-family="Helvetica,sans-Serif" font-size="10.00" fill="grey"> #playerList</text>
</g>
<!-- Node3 -->
<g id="Node000003" class="node">
<title>Node3</title>
<g id="a_Node000003"><a xlink:title=" ">
<polygon fill="white" stroke="transparent" points="617.5,-989.5 564.5,-989.5 564.5,-940.5 617.5,-940.5 617.5,-989.5"/>
<text text-anchor="start" x="570" y="-977" font-family="Helvetica,sans-Serif" font-size="10.00">static int</text>
<text text-anchor="start" x="589.5" y="-962" font-family="Helvetica,sans-Serif" font-size="10.00"> </text>
<text text-anchor="start" x="589.5" y="-947" font-family="Helvetica,sans-Serif" font-size="10.00"> </text>
<polygon fill="#666666" stroke="#666666" points="565,-972 565,-972 618,-972 618,-972 565,-972"/>
<polygon fill="#666666" stroke="#666666" points="565,-957 565,-957 618,-957 618,-957 565,-957"/>
<polygon fill="none" stroke="#666666" points="564.5,-940.5 564.5,-989.5 617.5,-989.5 617.5,-940.5 564.5,-940.5"/>
</a>
</g>
</g>
<!-- Node3&#45;&gt;Node2 -->
<g id="edge2_Node000002_Node000003" class="edge">
<title>Node3&#45;&gt;Node2</title>
<g id="a_edge2_Node000002_Node000003"><a xlink:title=" ">
<path fill="none" stroke="#63b8ff" d="M607.66,-940.16C622.68,-918.34 645.1,-884.99 663,-855 665.78,-850.35 668.57,-845.6 671.36,-840.79"/>
<polygon fill="none" stroke="#63b8ff" points="671.48,-840.59 671,-833.39 677.46,-830.18 677.94,-837.38 671.48,-840.59"/>
</a>
</g>
<text text-anchor="middle" x="686" y="-892.5" font-family="Helvetica,sans-Serif" font-size="10.00" fill="grey"> &#45;nextNumber</text>
</g>
<!-- Node3&#45;&gt;Node8 -->
<g id="edge8_Node000008_Node000003" class="edge">
<title>Node3&#45;&gt;Node8</title>
<g id="a_edge8_Node000008_Node000003"><a xlink:title=" ">
<path fill="none" stroke="#63b8ff" d="M592.79,-940.16C597.11,-873.3 604.95,-678.85 564,-525 558.33,-503.71 550.43,-482.04 541.48,-461.08"/>
<polygon fill="none" stroke="#63b8ff" points="541.37,-460.84 535.3,-456.96 536.55,-449.85 542.63,-453.74 541.37,-460.84"/>
</a>
</g>
<text text-anchor="middle" x="631" y="-687.5" font-family="Helvetica,sans-Serif" font-size="10.00" fill="grey"> &#45;nextNumber</text>
</g>
<!-- Node4 -->
<g id="Node000004" class="node">
<title>Node4</title>
<g id="a_Node000004"><a xlink:title=" ">
<polygon fill="white" stroke="transparent" points="911.5,-989.5 872.5,-989.5 872.5,-940.5 911.5,-940.5 911.5,-989.5"/>
<text text-anchor="start" x="878" y="-977" font-family="Helvetica,sans-Serif" font-size="10.00">String</text>
<text text-anchor="start" x="890.5" y="-962" font-family="Helvetica,sans-Serif" font-size="10.00"> </text>
<text text-anchor="start" x="890.5" y="-947" font-family="Helvetica,sans-Serif" font-size="10.00"> </text>
<polygon fill="#666666" stroke="#666666" points="873,-972 873,-972 912,-972 912,-972 873,-972"/>
<polygon fill="#666666" stroke="#666666" points="873,-957 873,-957 912,-957 912,-957 873,-957"/>
<polygon fill="none" stroke="#666666" points="872.5,-940.5 872.5,-989.5 911.5,-989.5 911.5,-940.5 872.5,-940.5"/>
</a>
</g>
</g>
<!-- Node4&#45;&gt;Node2 -->
<g id="edge3_Node000002_Node000004" class="edge">
<title>Node4&#45;&gt;Node2</title>
<g id="a_edge3_Node000002_Node000004"><a xlink:title=" ">
<path fill="none" stroke="#63b8ff" d="M879.73,-940.25C868.15,-917.82 849.7,-882.1 830.35,-844.64"/>
<polygon fill="none" stroke="#63b8ff" points="830.11,-844.17 823.8,-840.67 824.6,-833.51 830.91,-837 830.11,-844.17"/>
</a>
</g>
<text text-anchor="middle" x="885" y="-892.5" font-family="Helvetica,sans-Serif" font-size="10.00" fill="grey"> #name</text>
</g>
<!-- Node5 -->
<g id="Node000005" class="node">
<title>Node5</title>
<g id="a_Node000005"><a xlink:title=" ">
<polygon fill="white" stroke="transparent" points="959.5,-989.5 936.5,-989.5 936.5,-940.5 959.5,-940.5 959.5,-989.5"/>
<text text-anchor="start" x="942" y="-977" font-family="Helvetica,sans-Serif" font-size="10.00">int</text>
<text text-anchor="start" x="946.5" y="-962" font-family="Helvetica,sans-Serif" font-size="10.00"> </text>
<text text-anchor="start" x="946.5" y="-947" font-family="Helvetica,sans-Serif" font-size="10.00"> </text>
<polygon fill="#666666" stroke="#666666" points="937,-972 937,-972 960,-972 960,-972 937,-972"/>
<polygon fill="#666666" stroke="#666666" points="937,-957 937,-957 960,-957 960,-957 937,-957"/>
<polygon fill="none" stroke="#666666" points="936.5,-940.5 936.5,-989.5 959.5,-989.5 959.5,-940.5 936.5,-940.5"/>
</a>
</g>
</g>
<!-- Node5&#45;&gt;Node2 -->
<g id="edge4_Node000002_Node000005" class="edge">
<title>Node5&#45;&gt;Node2</title>
<g id="a_edge4_Node000002_Node000005"><a xlink:title=" ">
<path fill="none" stroke="#63b8ff" d="M940.11,-940.2C933.29,-921.24 922.42,-894.41 909,-873 887.35,-838.46 859.3,-803.85 832.85,-774.23"/>
<polygon fill="none" stroke="#63b8ff" points="832.74,-774.11 825.75,-772.34 824.7,-765.2 831.69,-766.98 832.74,-774.11"/>
</a>
</g>
<text text-anchor="middle" x="953" y="-909" font-family="Helvetica,sans-Serif" font-size="10.00" fill="grey"> #height</text>
<text text-anchor="middle" x="953" y="-898" font-family="Helvetica,sans-Serif" font-size="10.00" fill="grey">#number</text>
<text text-anchor="middle" x="953" y="-887" font-family="Helvetica,sans-Serif" font-size="10.00" fill="grey">#points</text>
<text text-anchor="middle" x="953" y="-876" font-family="Helvetica,sans-Serif" font-size="10.00" fill="grey">#skill</text>
</g>
<!-- Node6 -->
<g id="Node000006" class="node">
<title>Node6</title>
<g id="a_Node000006"><a xlink:title=" ">
<polygon fill="white" stroke="transparent" points="854.5,-995 635.5,-995 635.5,-935 854.5,-935 854.5,-995"/>
<text text-anchor="start" x="641" y="-983" font-family="Helvetica,sans-Serif" font-size="10.00">ObservableList&lt; es.alrodmue.model.fouls.</text>
<text text-anchor="start" x="729.5" y="-972" font-family="Helvetica,sans-Serif" font-size="10.00">Foul &gt;</text>
<text text-anchor="start" x="743.5" y="-957" font-family="Helvetica,sans-Serif" font-size="10.00"> </text>
<text text-anchor="start" x="743.5" y="-942" font-family="Helvetica,sans-Serif" font-size="10.00"> </text>
<polygon fill="#666666" stroke="#666666" points="636,-967 636,-967 855,-967 855,-967 636,-967"/>
<polygon fill="#666666" stroke="#666666" points="636,-952 636,-952 855,-952 855,-952 636,-952"/>
<polygon fill="none" stroke="#666666" points="635.5,-935 635.5,-995 854.5,-995 854.5,-935 635.5,-935"/>
</a>
</g>
</g>
<!-- Node6&#45;&gt;Node2 -->
<g id="edge5_Node000002_Node000006" class="edge">
<title>Node6&#45;&gt;Node2</title>
<g id="a_edge5_Node000002_Node000006"><a xlink:title=" ">
<path fill="none" stroke="#63b8ff" d="M745.64,-934.78C746.03,-917.25 746.55,-893.33 747.13,-867.3"/>
<polygon fill="none" stroke="#63b8ff" points="747.13,-867.21 743.26,-861.12 747.39,-855.21 751.26,-861.29 747.13,-867.21"/>
</a>
</g>
<text text-anchor="middle" x="764" y="-892.5" font-family="Helvetica,sans-Serif" font-size="10.00" fill="grey"> #fouls</text>
</g>
<!-- Node7 -->
<g id="Node000007" class="node">
<title>Node7</title>
<g id="a_Node000007"><a xlink:title=" ">
<polygon fill="white" stroke="transparent" points="786.5,-1102 703.5,-1102 703.5,-1053 786.5,-1053 786.5,-1102"/>
<text text-anchor="start" x="709" y="-1089.5" font-family="Helvetica,sans-Serif" font-size="10.00">ObservableList</text>
<text text-anchor="start" x="743.5" y="-1074.5" font-family="Helvetica,sans-Serif" font-size="10.00"> </text>
<text text-anchor="start" x="743.5" y="-1059.5" font-family="Helvetica,sans-Serif" font-size="10.00"> </text>
<polygon fill="#666666" stroke="#666666" points="704,-1084.5 704,-1084.5 787,-1084.5 787,-1084.5 704,-1084.5"/>
<polygon fill="#666666" stroke="#666666" points="704,-1069.5 704,-1069.5 787,-1069.5 787,-1069.5 704,-1069.5"/>
<polygon fill="none" stroke="#666666" points="703.5,-1053 703.5,-1102 786.5,-1102 786.5,-1053 703.5,-1053"/>
</a>
</g>
</g>
<!-- Node7&#45;&gt;Node6 -->
<g id="edge6_Node000006_Node000007" class="edge">
<title>Node7&#45;&gt;Node6</title>
<g id="a_edge6_Node000006_Node000007"><a xlink:title=" ">
<path fill="none" stroke="orange" d="M745,-1042.75C745,-1027.56 745,-1009.79 745,-995.17"/>
<polygon fill="orange" stroke="orange" points="741.5,-1042.79 745,-1052.79 748.5,-1042.8 741.5,-1042.79"/>
</a>
</g>
<text text-anchor="start" x="745" y="-1027" font-family="Helvetica,sans-Serif" font-size="10.00" fill="grey"> &lt; es::alrodmue::model</text>
<text text-anchor="middle" x="802.5" y="-1016" font-family="Helvetica,sans-Serif" font-size="10.00" fill="grey">::fouls::Foul &gt;</text>
</g>
<!-- Node8&#45;&gt;Node1 -->
<g id="edge7_Node000001_Node000008" class="edge">
<title>Node8&#45;&gt;Node1</title>
<g id="a_edge7_Node000001_Node000008"><a xlink:title=" ">
<path fill="none" stroke="#63b8ff" d="M536.71,-192.13C549.31,-172.36 562.01,-152.43 573.53,-134.35"/>
<polygon fill="none" stroke="#63b8ff" points="573.54,-134.34 573.39,-127.13 579.99,-124.22 580.14,-131.43 573.54,-134.34"/>
</a>
</g>
<text text-anchor="middle" x="589.5" y="-145" font-family="Helvetica,sans-Serif" font-size="10.00" fill="grey"> #match</text>
</g>
<!-- Node9 -->
<g id="Node000009" class="node">
<title>Node9</title>
<g id="a_Node000009"><a xlink:title=" ">
<polygon fill="white" stroke="transparent" points="269.5,-714.5 222.5,-714.5 222.5,-665.5 269.5,-665.5 269.5,-714.5"/>
<text text-anchor="start" x="228" y="-702" font-family="Helvetica,sans-Serif" font-size="10.00">final int</text>
<text text-anchor="start" x="244.5" y="-687" font-family="Helvetica,sans-Serif" font-size="10.00"> </text>
<text text-anchor="start" x="244.5" y="-672" font-family="Helvetica,sans-Serif" font-size="10.00"> </text>
<polygon fill="#666666" stroke="#666666" points="223,-697 223,-697 270,-697 270,-697 223,-697"/>
<polygon fill="#666666" stroke="#666666" points="223,-682 223,-682 270,-682 270,-682 223,-682"/>
<polygon fill="none" stroke="#666666" points="222.5,-665.5 222.5,-714.5 269.5,-714.5 269.5,-665.5 222.5,-665.5"/>
</a>
</g>
</g>
<!-- Node9&#45;&gt;Node8 -->
<g id="edge9_Node000008_Node000009" class="edge">
<title>Node9&#45;&gt;Node8</title>
<g id="a_edge9_Node000008_Node000009"><a xlink:title=" ">
<path fill="none" stroke="#63b8ff" d="M246.81,-665.18C249.33,-623.03 259.55,-534.1 301,-474 321.84,-443.78 348.78,-414.27 374.54,-389.02"/>
<polygon fill="none" stroke="#63b8ff" points="374.6,-388.97 376.13,-381.92 383.22,-380.63 381.69,-387.67 374.6,-388.97"/>
</a>
</g>
<text text-anchor="middle" x="331.5" y="-499" font-family="Helvetica,sans-Serif" font-size="10.00" fill="grey"> #number</text>
<text text-anchor="middle" x="331.5" y="-488" font-family="Helvetica,sans-Serif" font-size="10.00" fill="grey">#ownPoints</text>
<text text-anchor="middle" x="331.5" y="-477" font-family="Helvetica,sans-Serif" font-size="10.00" fill="grey">#rivalPoints</text>
</g>
<!-- Node10 -->
<g id="Node000010" class="node">
<title>Node10</title>
<g id="a_Node000010"><a xlink:title=" ">
<polygon fill="white" stroke="transparent" points="346.5,-714.5 287.5,-714.5 287.5,-665.5 346.5,-665.5 346.5,-714.5"/>
<text text-anchor="start" x="293" y="-702" font-family="Helvetica,sans-Serif" font-size="10.00">LocalDate</text>
<text text-anchor="start" x="315.5" y="-687" font-family="Helvetica,sans-Serif" font-size="10.00"> </text>
<text text-anchor="start" x="315.5" y="-672" font-family="Helvetica,sans-Serif" font-size="10.00"> </text>
<polygon fill="#666666" stroke="#666666" points="288,-697 288,-697 347,-697 347,-697 288,-697"/>
<polygon fill="#666666" stroke="#666666" points="288,-682 288,-682 347,-682 347,-682 288,-682"/>
<polygon fill="none" stroke="#666666" points="287.5,-665.5 287.5,-714.5 346.5,-714.5 346.5,-665.5 287.5,-665.5"/>
</a>
</g>
</g>
<!-- Node10&#45;&gt;Node8 -->
<g id="edge10_Node000008_Node000010" class="edge">
<title>Node10&#45;&gt;Node8</title>
<g id="a_edge10_Node000008_Node000010"><a xlink:title=" ">
<path fill="none" stroke="#63b8ff" d="M320.88,-665.43C326.58,-633.14 338.47,-573.59 356,-525 362.88,-505.92 371.02,-486.3 379.66,-467.08"/>
<polygon fill="none" stroke="#63b8ff" points="379.67,-467.05 378.53,-459.93 384.66,-456.13 385.8,-463.25 379.67,-467.05"/>
</a>
</g>
<text text-anchor="middle" x="393" y="-488" font-family="Helvetica,sans-Serif" font-size="10.00" fill="grey"> #date</text>
</g>
<!-- Node11 -->
<g id="Node000011" class="node">
<title>Node11</title>
<g id="a_Node000011"><a xlink:title=" ">
<polygon fill="white" stroke="transparent" points="204,-720 0,-720 0,-660 204,-660 204,-720"/>
<text text-anchor="start" x="5" y="-708" font-family="Helvetica,sans-Serif" font-size="10.00">HashMap&lt; es.alrodmue.model.players.</text>
<text text-anchor="start" x="60.5" y="-697" font-family="Helvetica,sans-Serif" font-size="10.00">Player, Integer &gt;</text>
<text text-anchor="start" x="100" y="-682" font-family="Helvetica,sans-Serif" font-size="10.00"> </text>
<text text-anchor="start" x="100" y="-667" font-family="Helvetica,sans-Serif" font-size="10.00"> </text>
<polygon fill="#666666" stroke="#666666" points="0,-692 0,-692 204,-692 204,-692 0,-692"/>
<polygon fill="#666666" stroke="#666666" points="0,-677 0,-677 204,-677 204,-677 0,-677"/>
<polygon fill="none" stroke="#666666" points="0,-660 0,-720 204,-720 204,-660 0,-660"/>
</a>
</g>
</g>
<!-- Node11&#45;&gt;Node8 -->
<g id="edge12_Node000008_Node000011" class="edge">
<title>Node11&#45;&gt;Node8</title>
<g id="a_edge12_Node000008_Node000011"><a xlink:title=" ">
<path fill="none" stroke="#63b8ff" d="M110.48,-659.96C124.57,-615.67 156.37,-530.43 207,-474 253.07,-422.66 319.45,-381.65 372.67,-354.08"/>
<polygon fill="none" stroke="#63b8ff" points="372.77,-354.02 376.3,-347.73 383.46,-348.57 379.94,-354.86 372.77,-354.02"/>
</a>
</g>
<text text-anchor="middle" x="243.5" y="-488" font-family="Helvetica,sans-Serif" font-size="10.00" fill="grey"> #playerPoints</text>
</g>
<!-- Node12 -->
<g id="Node000012" class="node">
<title>Node12</title>
<g id="a_Node000012"><a xlink:title=" ">
<polygon fill="white" stroke="transparent" points="130,-989.5 74,-989.5 74,-940.5 130,-940.5 130,-989.5"/>
<text text-anchor="start" x="79" y="-977" font-family="Helvetica,sans-Serif" font-size="10.00">HashMap</text>
<text text-anchor="start" x="100" y="-962" font-family="Helvetica,sans-Serif" font-size="10.00"> </text>
<text text-anchor="start" x="100" y="-947" font-family="Helvetica,sans-Serif" font-size="10.00"> </text>
<polygon fill="#666666" stroke="#666666" points="74,-972 74,-972 130,-972 130,-972 74,-972"/>
<polygon fill="#666666" stroke="#666666" points="74,-957 74,-957 130,-957 130,-957 74,-957"/>
<polygon fill="none" stroke="#666666" points="74,-940.5 74,-989.5 130,-989.5 130,-940.5 74,-940.5"/>
</a>
</g>
</g>
<!-- Node12&#45;&gt;Node11 -->
<g id="edge13_Node000011_Node000012" class="edge">
<title>Node12&#45;&gt;Node11</title>
<g id="a_edge13_Node000011_Node000012"><a xlink:title=" ">
<path fill="none" stroke="orange" d="M102,-930.15C102,-876.08 102,-771.14 102,-720.18"/>
<polygon fill="orange" stroke="orange" points="98.5,-930.25 102,-940.25 105.5,-930.25 98.5,-930.25"/>
</a>
</g>
<text text-anchor="start" x="102" y="-898" font-family="Helvetica,sans-Serif" font-size="10.00" fill="grey"> &lt; es::alrodmue::model</text>
<text text-anchor="middle" x="167.5" y="-887" font-family="Helvetica,sans-Serif" font-size="10.00" fill="grey">::players::Player, Integer &gt;</text>
</g>
<!-- Node13 -->
<g id="Node000013" class="node">
<title>Node13</title>
<g id="a_Node000013"><a xlink:title=" ">
<polygon fill="white" stroke="transparent" points="555,-720 365,-720 365,-660 555,-660 555,-720"/>
<text text-anchor="start" x="370" y="-708" font-family="Helvetica,sans-Serif" font-size="10.00">ArrayList&lt; es.alrodmue.model.fouls.</text>
<text text-anchor="start" x="444" y="-697" font-family="Helvetica,sans-Serif" font-size="10.00">Foul &gt;</text>
<text text-anchor="start" x="458" y="-682" font-family="Helvetica,sans-Serif" font-size="10.00"> </text>
<text text-anchor="start" x="458" y="-667" font-family="Helvetica,sans-Serif" font-size="10.00"> </text>
<polygon fill="#666666" stroke="#666666" points="365,-692 365,-692 555,-692 555,-692 365,-692"/>
<polygon fill="#666666" stroke="#666666" points="365,-677 365,-677 555,-677 555,-677 365,-677"/>
<polygon fill="none" stroke="#666666" points="365,-660 365,-720 555,-720 555,-660 365,-660"/>
</a>
</g>
</g>
<!-- Node13&#45;&gt;Node8 -->
<g id="edge14_Node000008_Node000013" class="edge">
<title>Node13&#45;&gt;Node8</title>
<g id="a_edge14_Node000008_Node000013"><a xlink:title=" ">
<path fill="none" stroke="#63b8ff" d="M460,-659.93C460,-618.74 460,-540.44 460,-468.79"/>
<polygon fill="none" stroke="#63b8ff" points="460,-468.43 456,-462.43 460,-456.43 464,-462.43 460,-468.43"/>
</a>
</g>
<text text-anchor="middle" x="478" y="-488" font-family="Helvetica,sans-Serif" font-size="10.00" fill="grey"> #fouls</text>
</g>
<!-- Node14 -->
<g id="Node000014" class="node">
<title>Node14</title>
<g id="a_Node000014"><a xlink:title=" ">
<polygon fill="white" stroke="transparent" points="487,-989.5 433,-989.5 433,-940.5 487,-940.5 487,-989.5"/>
<text text-anchor="start" x="438" y="-977" font-family="Helvetica,sans-Serif" font-size="10.00">ArrayList</text>
<text text-anchor="start" x="458" y="-962" font-family="Helvetica,sans-Serif" font-size="10.00"> </text>
<text text-anchor="start" x="458" y="-947" font-family="Helvetica,sans-Serif" font-size="10.00"> </text>
<polygon fill="#666666" stroke="#666666" points="433,-972 433,-972 487,-972 487,-972 433,-972"/>
<polygon fill="#666666" stroke="#666666" points="433,-957 433,-957 487,-957 487,-957 433,-957"/>
<polygon fill="none" stroke="#666666" points="433,-940.5 433,-989.5 487,-989.5 487,-940.5 433,-940.5"/>
</a>
</g>
</g>
<!-- Node14&#45;&gt;Node13 -->
<g id="edge15_Node000013_Node000014" class="edge">
<title>Node14&#45;&gt;Node13</title>
<g id="a_edge15_Node000013_Node000014"><a xlink:title=" ">
<path fill="none" stroke="orange" d="M460,-930.15C460,-876.08 460,-771.14 460,-720.18"/>
<polygon fill="orange" stroke="orange" points="456.5,-930.25 460,-940.25 463.5,-930.25 456.5,-930.25"/>
</a>
</g>
<text text-anchor="start" x="460" y="-898" font-family="Helvetica,sans-Serif" font-size="10.00" fill="grey"> &lt; es::alrodmue::model</text>
<text text-anchor="middle" x="517.5" y="-887" font-family="Helvetica,sans-Serif" font-size="10.00" fill="grey">::fouls::Foul &gt;</text>
</g>
</g>
</svg>
