<?xml version="1.0" encoding="UTF-8" standalone="no"?>
<!DOCTYPE svg PUBLIC "-//W3C//DTD SVG 1.1//EN"
 "http://www.w3.org/Graphics/SVG/1.1/DTD/svg11.dtd">
<!-- Generated by graphviz version 2.43.0 (0)
 -->
<!-- Title: es.alrodmue.view.AddPlayerViewController.onAcceptButtonClick Pages: 1 -->
<svg width="799pt" height="316pt"
 viewBox="0.00 0.00 799.00 316.00" xmlns="http://www.w3.org/2000/svg" xmlns:xlink="http://www.w3.org/1999/xlink">
<g id="graph0" class="graph" transform="scale(1 1) rotate(0) translate(4 312)">
<title>es.alrodmue.view.AddPlayerViewController.onAcceptButtonClick</title>
<!-- Node1 -->
<g id="Node000001" class="node">
<title>Node1</title>
<g id="a_Node000001"><a xlink:title=" ">
<polygon fill="#999999" stroke="#666666" points="192,-102 0,-102 0,-72 192,-72 192,-102"/>
<text text-anchor="start" x="8" y="-90" font-family="Helvetica,sans-Serif" font-size="10.00">es.alrodmue.view.AddPlayer</text>
<text text-anchor="middle" x="96" y="-79" font-family="Helvetica,sans-Serif" font-size="10.00">ViewController.onAcceptButtonClick</text>
</a>
</g>
</g>
<!-- Node2 -->
<g id="Node000002" class="node">
<title>Node2</title>
<g id="a_Node000002"><a xlink:href="classes_1_1alrodmue_1_1controller_1_1PlayerController.xhtml#acb71c6269a42789d433d96c23367f1bc" target="_top" xlink:title=" ">
<polygon fill="white" stroke="#666666" points="388,-174 228,-174 228,-144 388,-144 388,-174"/>
<text text-anchor="start" x="236" y="-162" font-family="Helvetica,sans-Serif" font-size="10.00">es.alrodmue.controller.Player</text>
<text text-anchor="middle" x="308" y="-151" font-family="Helvetica,sans-Serif" font-size="10.00">Controller.createPlayer</text>
</a>
</g>
</g>
<!-- Node1&#45;&gt;Node2 -->
<g id="edge1_Node000001_Node000002" class="edge">
<title>Node1&#45;&gt;Node2</title>
<g id="a_edge1_Node000001_Node000002"><a xlink:title=" ">
<path fill="none" stroke="#63b8ff" d="M140.77,-102.01C173.51,-113.23 218.46,-128.64 253.37,-140.61"/>
<polygon fill="#63b8ff" stroke="#63b8ff" points="252.33,-143.96 262.93,-143.89 254.6,-137.34 252.33,-143.96"/>
</a>
</g>
</g>
<!-- Node11 -->
<g id="Node000011" class="node">
<title>Node11</title>
<g id="a_Node000011"><a xlink:href="classes_1_1alrodmue_1_1controller_1_1PlayerController.xhtml#a38a2929c0918e63bd49bcd1922dbc120" target="_top" xlink:title=" ">
<polygon fill="white" stroke="#666666" points="388,-78 228,-78 228,-48 388,-48 388,-78"/>
<text text-anchor="start" x="236" y="-66" font-family="Helvetica,sans-Serif" font-size="10.00">es.alrodmue.controller.Player</text>
<text text-anchor="middle" x="308" y="-55" font-family="Helvetica,sans-Serif" font-size="10.00">Controller.getInstance</text>
</a>
</g>
</g>
<!-- Node1&#45;&gt;Node11 -->
<g id="edge10_Node000001_Node000011" class="edge">
<title>Node1&#45;&gt;Node11</title>
<g id="a_edge10_Node000001_Node000011"><a xlink:title=" ">
<path fill="none" stroke="#63b8ff" d="M192.17,-76.12C200.66,-75.15 209.23,-74.17 217.66,-73.21"/>
<polygon fill="#63b8ff" stroke="#63b8ff" points="218.33,-76.66 227.87,-72.04 217.54,-69.7 218.33,-76.66"/>
</a>
</g>
</g>
<!-- Node3 -->
<g id="Node000003" class="node">
<title>Node3</title>
<g id="a_Node000003"><a xlink:href="classes_1_1alrodmue_1_1model_1_1Team.xhtml#a5e4f41c785c74d800af1c5e4e6f3885e" target="_top" xlink:title=" ">
<polygon fill="white" stroke="#666666" points="585,-308 424,-308 424,-278 585,-278 585,-308"/>
<text text-anchor="start" x="432" y="-296" font-family="Helvetica,sans-Serif" font-size="10.00">es.alrodmue.model.Team.add</text>
<text text-anchor="middle" x="504.5" y="-285" font-family="Helvetica,sans-Serif" font-size="10.00">Player</text>
</a>
</g>
</g>
<!-- Node2&#45;&gt;Node3 -->
<g id="edge2_Node000002_Node000003" class="edge">
<title>Node2&#45;&gt;Node3</title>
<g id="a_edge2_Node000002_Node000003"><a xlink:title=" ">
<path fill="none" stroke="#63b8ff" d="M320.75,-174.13C339.89,-197.76 380.09,-243.38 424,-269 427.02,-270.76 430.18,-272.4 433.42,-273.93"/>
<polygon fill="#63b8ff" stroke="#63b8ff" points="432.19,-277.21 442.76,-277.96 434.96,-270.79 432.19,-277.21"/>
</a>
</g>
</g>
<!-- Node4 -->
<g id="Node000004" class="node">
<title>Node4</title>
<g id="a_Node000004"><a xlink:href="classes_1_1alrodmue_1_1App.xhtml#a2d1fc08b3be857d074130a197f2bc7ab" target="_top" xlink:title=" ">
<polygon fill="white" stroke="#666666" points="583.5,-259.5 425.5,-259.5 425.5,-240.5 583.5,-240.5 583.5,-259.5"/>
<text text-anchor="middle" x="504.5" y="-247.5" font-family="Helvetica,sans-Serif" font-size="10.00">es.alrodmue.App.closeModal</text>
</a>
</g>
</g>
<!-- Node2&#45;&gt;Node4 -->
<g id="edge3_Node000002_Node000004" class="edge">
<title>Node2&#45;&gt;Node4</title>
<g id="a_edge3_Node000002_Node000004"><a xlink:title=" ">
<path fill="none" stroke="#63b8ff" d="M328.68,-174.13C350.74,-190.41 388.16,-215.97 424,-231 429.93,-233.48 436.24,-235.68 442.63,-237.62"/>
<polygon fill="#63b8ff" stroke="#63b8ff" points="442.09,-241.11 452.67,-240.46 443.99,-234.37 442.09,-241.11"/>
</a>
</g>
</g>
<!-- Node5 -->
<g id="Node000005" class="node">
<title>Node5</title>
<g id="a_Node000005"><a xlink:href="classes_1_1alrodmue_1_1model_1_1factories_1_1PlayerFactory.xhtml#aecc91ec27700c05282c7d1f394c28382" target="_top" xlink:title=" ">
<polygon fill="white" stroke="#666666" points="584.5,-222 424.5,-222 424.5,-192 584.5,-192 584.5,-222"/>
<text text-anchor="start" x="432.5" y="-210" font-family="Helvetica,sans-Serif" font-size="10.00">es.alrodmue.model.factories.</text>
<text text-anchor="middle" x="504.5" y="-199" font-family="Helvetica,sans-Serif" font-size="10.00">PlayerFactory.create</text>
</a>
</g>
</g>
<!-- Node2&#45;&gt;Node5 -->
<g id="edge4_Node000002_Node000005" class="edge">
<title>Node2&#45;&gt;Node5</title>
<g id="a_edge4_Node000002_Node000005"><a xlink:title=" ">
<path fill="none" stroke="#63b8ff" d="M370.01,-174.06C389.92,-178.97 412.2,-184.47 432.77,-189.54"/>
<polygon fill="#63b8ff" stroke="#63b8ff" points="432.16,-193 442.71,-192 433.84,-186.2 432.16,-193"/>
</a>
</g>
</g>
<!-- Node6 -->
<g id="Node000006" class="node">
<title>Node6</title>
<g id="a_Node000006"><a xlink:href="classes_1_1alrodmue_1_1model_1_1factories_1_1PlayerFactory.xhtml#a2c5498aa9c78b26e98b4aaad9935894f" target="_top" xlink:title=" ">
<polygon fill="white" stroke="#666666" points="584.5,-174 424.5,-174 424.5,-144 584.5,-144 584.5,-174"/>
<text text-anchor="start" x="432.5" y="-162" font-family="Helvetica,sans-Serif" font-size="10.00">es.alrodmue.model.factories.</text>
<text text-anchor="middle" x="504.5" y="-151" font-family="Helvetica,sans-Serif" font-size="10.00">PlayerFactory.getInstance</text>
</a>
</g>
</g>
<!-- Node2&#45;&gt;Node6 -->
<g id="edge5_Node000002_Node000006" class="edge">
<title>Node2&#45;&gt;Node6</title>
<g id="a_edge5_Node000002_Node000006"><a xlink:title=" ">
<path fill="none" stroke="#63b8ff" d="M388.11,-159C396.73,-159 405.54,-159 414.27,-159"/>
<polygon fill="#63b8ff" stroke="#63b8ff" points="414.46,-162.5 424.46,-159 414.46,-155.5 414.46,-162.5"/>
</a>
</g>
</g>
<!-- Node8 -->
<g id="Node000008" class="node">
<title>Node8</title>
<g id="a_Node000008"><a xlink:href="classes_1_1alrodmue_1_1model_1_1Team.xhtml#a7301e45c0f5b85a4d03cd04e758cd97d" target="_top" xlink:title=" ">
<polygon fill="white" stroke="#666666" points="584,-126 425,-126 425,-96 584,-96 584,-126"/>
<text text-anchor="start" x="433" y="-114" font-family="Helvetica,sans-Serif" font-size="10.00">es.alrodmue.model.Team.get</text>
<text text-anchor="middle" x="504.5" y="-103" font-family="Helvetica,sans-Serif" font-size="10.00">Instance</text>
</a>
</g>
</g>
<!-- Node2&#45;&gt;Node8 -->
<g id="edge7_Node000002_Node000008" class="edge">
<title>Node2&#45;&gt;Node8</title>
<g id="a_edge7_Node000002_Node000008"><a xlink:title=" ">
<path fill="none" stroke="#63b8ff" d="M370.01,-143.94C389.92,-139.03 412.2,-133.53 432.77,-128.46"/>
<polygon fill="#63b8ff" stroke="#63b8ff" points="433.84,-131.8 442.71,-126 432.16,-125 433.84,-131.8"/>
</a>
</g>
</g>
<!-- Node10 -->
<g id="Node000010" class="node">
<title>Node10</title>
<g id="a_Node000010"><a xlink:href="classes_1_1alrodmue_1_1controller_1_1PlayerController.xhtml#a53079eb6a240e50711a917ff0663682c" target="_top" xlink:title=" ">
<polygon fill="white" stroke="#666666" points="584.5,-78 424.5,-78 424.5,-48 584.5,-48 584.5,-78"/>
<text text-anchor="start" x="432.5" y="-66" font-family="Helvetica,sans-Serif" font-size="10.00">es.alrodmue.controller.Player</text>
<text text-anchor="middle" x="504.5" y="-55" font-family="Helvetica,sans-Serif" font-size="10.00">Controller.showError</text>
</a>
</g>
</g>
<!-- Node2&#45;&gt;Node10 -->
<g id="edge9_Node000002_Node000010" class="edge">
<title>Node2&#45;&gt;Node10</title>
<g id="a_edge9_Node000002_Node000010"><a xlink:title=" ">
<path fill="none" stroke="#63b8ff" d="M329.25,-143.98C351.52,-128.03 388.83,-102.97 424,-87 428.29,-85.05 432.77,-83.21 437.34,-81.48"/>
<polygon fill="#63b8ff" stroke="#63b8ff" points="438.56,-84.76 446.78,-78.09 436.19,-78.18 438.56,-84.76"/>
</a>
</g>
</g>
<!-- Node7 -->
<g id="Node000007" class="node">
<title>Node7</title>
<g id="a_Node000007"><a xlink:href="classes_1_1alrodmue_1_1model_1_1factories_1_1PlayerFactory.xhtml#aa90466601c77d1dc541e04729d19146f" target="_top" xlink:title=" ">
<polygon fill="white" stroke="#666666" points="786,-174 626,-174 626,-144 786,-144 786,-174"/>
<text text-anchor="start" x="634" y="-162" font-family="Helvetica,sans-Serif" font-size="10.00">es.alrodmue.model.factories.</text>
<text text-anchor="middle" x="706" y="-151" font-family="Helvetica,sans-Serif" font-size="10.00">PlayerFactory.PlayerFactory</text>
</a>
</g>
</g>
<!-- Node6&#45;&gt;Node7 -->
<g id="edge6_Node000006_Node000007" class="edge">
<title>Node6&#45;&gt;Node7</title>
<g id="a_edge6_Node000006_Node000007"><a xlink:title=" ">
<path fill="none" stroke="#63b8ff" d="M584.63,-159C594.83,-159 605.33,-159 615.68,-159"/>
<polygon fill="#63b8ff" stroke="#63b8ff" points="615.96,-162.5 625.96,-159 615.96,-155.5 615.96,-162.5"/>
</a>
</g>
</g>
<!-- Node9 -->
<g id="Node000009" class="node">
<title>Node9</title>
<g id="a_Node000009"><a xlink:href="classes_1_1alrodmue_1_1model_1_1Team.xhtml#ae04883a5648158af96bd5f695f924359" target="_top" xlink:title=" ">
<polygon fill="white" stroke="#666666" points="791,-120.5 621,-120.5 621,-101.5 791,-101.5 791,-120.5"/>
<text text-anchor="middle" x="706" y="-108.5" font-family="Helvetica,sans-Serif" font-size="10.00">es.alrodmue.model.Team.Team</text>
</a>
</g>
</g>
<!-- Node8&#45;&gt;Node9 -->
<g id="edge8_Node000008_Node000009" class="edge">
<title>Node8&#45;&gt;Node9</title>
<g id="a_edge8_Node000008_Node000009"><a xlink:title=" ">
<path fill="none" stroke="#63b8ff" d="M584.06,-111C592.86,-111 601.88,-111 610.84,-111"/>
<polygon fill="#63b8ff" stroke="#63b8ff" points="610.92,-114.5 620.92,-111 610.92,-107.5 610.92,-114.5"/>
</a>
</g>
</g>
<!-- Node12 -->
<g id="Node000012" class="node">
<title>Node12</title>
<g id="a_Node000012"><a xlink:href="classes_1_1alrodmue_1_1controller_1_1PlayerController.xhtml#a7d662190dc70153a9fdb9f3b18830a4f" target="_top" xlink:title=" ">
<polygon fill="white" stroke="#666666" points="584.5,-30 424.5,-30 424.5,0 584.5,0 584.5,-30"/>
<text text-anchor="start" x="432.5" y="-18" font-family="Helvetica,sans-Serif" font-size="10.00">es.alrodmue.controller.Player</text>
<text text-anchor="middle" x="504.5" y="-7" font-family="Helvetica,sans-Serif" font-size="10.00">Controller.PlayerController</text>
</a>
</g>
</g>
<!-- Node11&#45;&gt;Node12 -->
<g id="edge11_Node000011_Node000012" class="edge">
<title>Node11&#45;&gt;Node12</title>
<g id="a_edge11_Node000011_Node000012"><a xlink:title=" ">
<path fill="none" stroke="#63b8ff" d="M370.01,-47.94C389.92,-43.03 412.2,-37.53 432.77,-32.46"/>
<polygon fill="#63b8ff" stroke="#63b8ff" points="433.84,-35.8 442.71,-30 432.16,-29 433.84,-35.8"/>
</a>
</g>
</g>
</g>
</svg>
