<?xml version="1.0" encoding="UTF-8" standalone="no"?>
<!DOCTYPE svg PUBLIC "-//W3C//DTD SVG 1.1//EN"
 "http://www.w3.org/Graphics/SVG/1.1/DTD/svg11.dtd">
<!-- Generated by graphviz version 2.43.0 (0)
 -->
<!-- Title: es.alrodmue.model.Team.addMatch Pages: 1 -->
<svg width="592pt" height="38pt"
 viewBox="0.00 0.00 592.00 38.00" xmlns="http://www.w3.org/2000/svg" xmlns:xlink="http://www.w3.org/1999/xlink">
<g id="graph0" class="graph" transform="scale(1 1) rotate(0) translate(4 34)">
<title>es.alrodmue.model.Team.addMatch</title>
<!-- Node1 -->
<g id="Node000001" class="node">
<title>Node1</title>
<g id="a_Node000001"><a xlink:title=" ">
<polygon fill="#999999" stroke="#666666" points="584,-30 423,-30 423,0 584,0 584,-30"/>
<text text-anchor="start" x="431" y="-18" font-family="Helvetica,sans-Serif" font-size="10.00">es.alrodmue.model.Team.add</text>
<text text-anchor="middle" x="503.5" y="-7" font-family="Helvetica,sans-Serif" font-size="10.00">Match</text>
</a>
</g>
</g>
<!-- Node2 -->
<g id="Node000002" class="node">
<title>Node2</title>
<g id="a_Node000002"><a xlink:href="classes_1_1alrodmue_1_1controller_1_1MatchController.xhtml#a42b9493f74fbd7a9a545daceae923762" target="_top" xlink:title=" ">
<polygon fill="white" stroke="#666666" points="387,-30 228,-30 228,0 387,0 387,-30"/>
<text text-anchor="start" x="236" y="-18" font-family="Helvetica,sans-Serif" font-size="10.00">es.alrodmue.controller.Match</text>
<text text-anchor="middle" x="307.5" y="-7" font-family="Helvetica,sans-Serif" font-size="10.00">Controller.playMatch</text>
</a>
</g>
</g>
<!-- Node1&#45;&gt;Node2 -->
<g id="edge1_Node000001_Node000002" class="edge">
<title>Node1&#45;&gt;Node2</title>
<g id="a_edge1_Node000001_Node000002"><a xlink:title=" ">
<path fill="none" stroke="#63b8ff" d="M412.53,-15C404.11,-15 395.62,-15 387.31,-15"/>
<polygon fill="#63b8ff" stroke="#63b8ff" points="412.75,-18.5 422.75,-15 412.75,-11.5 412.75,-18.5"/>
</a>
</g>
</g>
<!-- Node3 -->
<g id="Node000003" class="node">
<title>Node3</title>
<g id="a_Node000003"><a xlink:href="classes_1_1alrodmue_1_1view_1_1AddMatchViewController.xhtml#af484d8fbe31480a95c9d300985fce32c" target="_top" xlink:title=" ">
<polygon fill="white" stroke="#666666" points="192,-30 0,-30 0,0 192,0 192,-30"/>
<text text-anchor="start" x="8" y="-18" font-family="Helvetica,sans-Serif" font-size="10.00">es.alrodmue.view.AddMatch</text>
<text text-anchor="middle" x="96" y="-7" font-family="Helvetica,sans-Serif" font-size="10.00">ViewController.onAcceptButtonClick</text>
</a>
</g>
</g>
<!-- Node2&#45;&gt;Node3 -->
<g id="edge2_Node000002_Node000003" class="edge">
<title>Node2&#45;&gt;Node3</title>
<g id="a_edge2_Node000002_Node000003"><a xlink:title=" ">
<path fill="none" stroke="#63b8ff" d="M217.73,-15C209.32,-15 200.77,-15 192.31,-15"/>
<polygon fill="#63b8ff" stroke="#63b8ff" points="217.89,-18.5 227.89,-15 217.89,-11.5 217.89,-18.5"/>
</a>
</g>
</g>
</g>
</svg>
