<?xml version="1.0" encoding="UTF-8" standalone="no"?>
<!DOCTYPE svg PUBLIC "-//W3C//DTD SVG 1.1//EN"
 "http://www.w3.org/Graphics/SVG/1.1/DTD/svg11.dtd">
<!-- Generated by graphviz version 2.43.0 (0)
 -->
<!-- Title: es.alrodmue.model.exceptions.FoulInvalidDataException Pages: 1 -->
<svg width="354pt" height="249pt"
 viewBox="0.00 0.00 354.00 249.00" xmlns="http://www.w3.org/2000/svg" xmlns:xlink="http://www.w3.org/1999/xlink">
<g id="graph0" class="graph" transform="scale(1 1) rotate(0) translate(4 245)">
<title>es.alrodmue.model.exceptions.FoulInvalidDataException</title>
<!-- Node1 -->
<g id="Node000001" class="node">
<title>Node1</title>
<g id="a_Node000001"><a xlink:title=" ">
<polygon fill="#999999" stroke="transparent" points="255,-156 91,-156 91,-96 255,-96 255,-156"/>
<text text-anchor="start" x="96" y="-144" font-family="Helvetica,sans-Serif" font-size="10.00">es.alrodmue.model.exceptions.</text>
<text text-anchor="start" x="110.5" y="-133" font-family="Helvetica,sans-Serif" font-size="10.00">FoulInvalidDataException</text>
<text text-anchor="start" x="171" y="-118" font-family="Helvetica,sans-Serif" font-size="10.00"> </text>
<text text-anchor="start" x="97.5" y="-103" font-family="Helvetica,sans-Serif" font-size="10.00">+</text>
<text text-anchor="start" x="113" y="-103" font-family="Helvetica,sans-Serif" font-size="10.00">FoulInvalidDataException()</text>
<polygon fill="#666666" stroke="#666666" points="91,-128 91,-128 255,-128 255,-128 91,-128"/>
<polygon fill="#666666" stroke="#666666" points="91,-113 91,-113 255,-113 255,-113 91,-113"/>
<polygon fill="none" stroke="#666666" points="91,-96 91,-156 255,-156 255,-96 91,-96"/>
</a>
</g>
</g>
<!-- Node3 -->
<g id="Node000003" class="node">
<title>Node3</title>
<g id="a_Node000003"><a xlink:href="classes_1_1alrodmue_1_1model_1_1exceptions_1_1FoulInvalidMatchException.xhtml" target="_top" xlink:title=" ">
<polygon fill="white" stroke="transparent" points="164,-60 0,-60 0,0 164,0 164,-60"/>
<text text-anchor="start" x="5" y="-48" font-family="Helvetica,sans-Serif" font-size="10.00">es.alrodmue.model.exceptions.</text>
<text text-anchor="start" x="16" y="-37" font-family="Helvetica,sans-Serif" font-size="10.00">FoulInvalidMatchException</text>
<text text-anchor="start" x="80" y="-22" font-family="Helvetica,sans-Serif" font-size="10.00"> </text>
<text text-anchor="start" x="5" y="-7" font-family="Helvetica,sans-Serif" font-size="10.00">+</text>
<text text-anchor="start" x="19" y="-7" font-family="Helvetica,sans-Serif" font-size="10.00">FoulInvalidMatchException()</text>
<polygon fill="#bfbfbf" stroke="#bfbfbf" points="0,-32 0,-32 164,-32 164,-32 0,-32"/>
<polygon fill="#bfbfbf" stroke="#bfbfbf" points="0,-17 0,-17 164,-17 164,-17 0,-17"/>
<polygon fill="none" stroke="#bfbfbf" points="0,0 0,-60 164,-60 164,0 0,0"/>
</a>
</g>
</g>
<!-- Node1&#45;&gt;Node3 -->
<g id="edge2_Node000001_Node000003" class="edge">
<title>Node1&#45;&gt;Node3</title>
<g id="a_edge2_Node000001_Node000003"><a xlink:title=" ">
<path fill="none" stroke="#63b8ff" d="M137.59,-88.43C128.54,-79.07 118.92,-69.14 110.28,-60.21"/>
<polygon fill="none" stroke="#63b8ff" points="135.24,-91.02 144.71,-95.77 140.27,-86.15 135.24,-91.02"/>
</a>
</g>
</g>
<!-- Node4 -->
<g id="Node000004" class="node">
<title>Node4</title>
<g id="a_Node000004"><a xlink:href="classes_1_1alrodmue_1_1model_1_1exceptions_1_1FoulInvalidPlayerException.xhtml" target="_top" xlink:title=" ">
<polygon fill="white" stroke="transparent" points="346,-60 182,-60 182,0 346,0 346,-60"/>
<text text-anchor="start" x="187" y="-48" font-family="Helvetica,sans-Serif" font-size="10.00">es.alrodmue.model.exceptions.</text>
<text text-anchor="start" x="197.5" y="-37" font-family="Helvetica,sans-Serif" font-size="10.00">FoulInvalidPlayerException</text>
<text text-anchor="start" x="262" y="-22" font-family="Helvetica,sans-Serif" font-size="10.00"> </text>
<text text-anchor="start" x="186.5" y="-7" font-family="Helvetica,sans-Serif" font-size="10.00">+</text>
<text text-anchor="start" x="200" y="-7" font-family="Helvetica,sans-Serif" font-size="10.00">FoulInvalidPlayerException()</text>
<polygon fill="#bfbfbf" stroke="#bfbfbf" points="182,-32 182,-32 346,-32 346,-32 182,-32"/>
<polygon fill="#bfbfbf" stroke="#bfbfbf" points="182,-17 182,-17 346,-17 346,-17 182,-17"/>
<polygon fill="none" stroke="#bfbfbf" points="182,0 182,-60 346,-60 346,0 182,0"/>
</a>
</g>
</g>
<!-- Node1&#45;&gt;Node4 -->
<g id="edge3_Node000001_Node000004" class="edge">
<title>Node1&#45;&gt;Node4</title>
<g id="a_edge3_Node000001_Node000004"><a xlink:title=" ">
<path fill="none" stroke="#63b8ff" d="M208.41,-88.43C217.46,-79.07 227.08,-69.14 235.72,-60.21"/>
<polygon fill="none" stroke="#63b8ff" points="205.73,-86.15 201.29,-95.77 210.76,-91.02 205.73,-86.15"/>
</a>
</g>
</g>
<!-- Node2 -->
<g id="Node000002" class="node">
<title>Node2</title>
<g id="a_Node000002"><a xlink:href="classException.xhtml" target="_top" xlink:title=" ">
<polygon fill="white" stroke="transparent" points="202.5,-241 143.5,-241 143.5,-192 202.5,-192 202.5,-241"/>
<text text-anchor="start" x="149" y="-228.5" font-family="Helvetica,sans-Serif" font-size="10.00">Exception</text>
<text text-anchor="start" x="171.5" y="-213.5" font-family="Helvetica,sans-Serif" font-size="10.00"> </text>
<text text-anchor="start" x="171.5" y="-198.5" font-family="Helvetica,sans-Serif" font-size="10.00"> </text>
<polygon fill="#bfbfbf" stroke="#bfbfbf" points="144,-223.5 144,-223.5 203,-223.5 203,-223.5 144,-223.5"/>
<polygon fill="#bfbfbf" stroke="#bfbfbf" points="144,-208.5 144,-208.5 203,-208.5 203,-208.5 144,-208.5"/>
<polygon fill="none" stroke="#bfbfbf" points="143.5,-192 143.5,-241 202.5,-241 202.5,-192 143.5,-192"/>
</a>
</g>
</g>
<!-- Node2&#45;&gt;Node1 -->
<g id="edge1_Node000001_Node000002" class="edge">
<title>Node2&#45;&gt;Node1</title>
<g id="a_edge1_Node000001_Node000002"><a xlink:title=" ">
<path fill="none" stroke="#63b8ff" d="M173,-181.55C173,-173.18 173,-164.28 173,-156.16"/>
<polygon fill="none" stroke="#63b8ff" points="169.5,-181.78 173,-191.78 176.5,-181.78 169.5,-181.78"/>
</a>
</g>
</g>
</g>
</svg>
