<?xml version="1.0" encoding="UTF-8" standalone="no"?>
<!DOCTYPE svg PUBLIC "-//W3C//DTD SVG 1.1//EN"
 "http://www.w3.org/Graphics/SVG/1.1/DTD/svg11.dtd">
<!-- Generated by graphviz version 2.43.0 (0)
 -->
<!-- Title: es.alrodmue.controller.MatchController.getInstance Pages: 1 -->
<svg width="395pt" height="134pt"
 viewBox="0.00 0.00 395.00 134.00" xmlns="http://www.w3.org/2000/svg" xmlns:xlink="http://www.w3.org/1999/xlink">
<g id="graph0" class="graph" transform="scale(1 1) rotate(0) translate(4 130)">
<title>es.alrodmue.controller.MatchController.getInstance</title>
<!-- Node1 -->
<g id="Node000001" class="node">
<title>Node1</title>
<g id="a_Node000001"><a xlink:title=" ">
<polygon fill="#999999" stroke="#666666" points="387,-78 228,-78 228,-48 387,-48 387,-78"/>
<text text-anchor="start" x="236" y="-66" font-family="Helvetica,sans-Serif" font-size="10.00">es.alrodmue.controller.Match</text>
<text text-anchor="middle" x="307.5" y="-55" font-family="Helvetica,sans-Serif" font-size="10.00">Controller.getInstance</text>
</a>
</g>
</g>
<!-- Node2 -->
<g id="Node000002" class="node">
<title>Node2</title>
<g id="a_Node000002"><a xlink:href="classes_1_1alrodmue_1_1view_1_1AddMatchViewController.xhtml#af484d8fbe31480a95c9d300985fce32c" target="_top" xlink:title=" ">
<polygon fill="white" stroke="#666666" points="192,-126 0,-126 0,-96 192,-96 192,-126"/>
<text text-anchor="start" x="8" y="-114" font-family="Helvetica,sans-Serif" font-size="10.00">es.alrodmue.view.AddMatch</text>
<text text-anchor="middle" x="96" y="-103" font-family="Helvetica,sans-Serif" font-size="10.00">ViewController.onAcceptButtonClick</text>
</a>
</g>
</g>
<!-- Node1&#45;&gt;Node2 -->
<g id="edge1_Node000001_Node000002" class="edge">
<title>Node1&#45;&gt;Node2</title>
<g id="a_edge1_Node000001_Node000002"><a xlink:title=" ">
<path fill="none" stroke="#63b8ff" d="M230.98,-80.3C208.56,-85.44 184.2,-91.02 162.48,-96"/>
<polygon fill="#63b8ff" stroke="#63b8ff" points="231.82,-83.7 240.79,-78.06 230.26,-76.88 231.82,-83.7"/>
</a>
</g>
</g>
<!-- Node3 -->
<g id="Node000003" class="node">
<title>Node3</title>
<g id="a_Node000003"><a xlink:href="classes_1_1alrodmue_1_1view_1_1MainViewController.xhtml#a431728f2d3c1dca6f49c1176b00005ec" target="_top" xlink:title=" ">
<polygon fill="white" stroke="#666666" points="188.5,-78 3.5,-78 3.5,-48 188.5,-48 188.5,-78"/>
<text text-anchor="start" x="11.5" y="-66" font-family="Helvetica,sans-Serif" font-size="10.00">es.alrodmue.view.MainView</text>
<text text-anchor="middle" x="96" y="-55" font-family="Helvetica,sans-Serif" font-size="10.00">Controller.onLastMatchButtonClick</text>
</a>
</g>
</g>
<!-- Node1&#45;&gt;Node3 -->
<g id="edge2_Node000001_Node000003" class="edge">
<title>Node1&#45;&gt;Node3</title>
<g id="a_edge2_Node000001_Node000003"><a xlink:title=" ">
<path fill="none" stroke="#63b8ff" d="M217.61,-63C208.06,-63 198.33,-63 188.74,-63"/>
<polygon fill="#63b8ff" stroke="#63b8ff" points="217.89,-66.5 227.89,-63 217.89,-59.5 217.89,-66.5"/>
</a>
</g>
</g>
<!-- Node4 -->
<g id="Node000004" class="node">
<title>Node4</title>
<g id="a_Node000004"><a xlink:href="classes_1_1alrodmue_1_1view_1_1MainViewController.xhtml#adbbc0c59f7010ebbcbc2100f292a3d25" target="_top" xlink:title=" ">
<polygon fill="white" stroke="#666666" points="190.5,-30 1.5,-30 1.5,0 190.5,0 190.5,-30"/>
<text text-anchor="start" x="9.5" y="-18" font-family="Helvetica,sans-Serif" font-size="10.00">es.alrodmue.view.MainView</text>
<text text-anchor="middle" x="96" y="-7" font-family="Helvetica,sans-Serif" font-size="10.00">Controller.onViewMatchButtonClick</text>
</a>
</g>
</g>
<!-- Node1&#45;&gt;Node4 -->
<g id="edge3_Node000001_Node000004" class="edge">
<title>Node1&#45;&gt;Node4</title>
<g id="a_edge3_Node000001_Node000004"><a xlink:title=" ">
<path fill="none" stroke="#63b8ff" d="M230.98,-45.7C208.56,-40.56 184.2,-34.98 162.48,-30"/>
<polygon fill="#63b8ff" stroke="#63b8ff" points="230.26,-49.12 240.79,-47.94 231.82,-42.3 230.26,-49.12"/>
</a>
</g>
</g>
</g>
</svg>
