<?xml version="1.0" encoding="UTF-8" standalone="no"?>
<!DOCTYPE svg PUBLIC "-//W3C//DTD SVG 1.1//EN"
 "http://www.w3.org/Graphics/SVG/1.1/DTD/svg11.dtd">
<!-- Generated by graphviz version 2.43.0 (0)
 -->
<!-- Title: es.alrodmue.view.AddMatchViewController Pages: 1 -->
<svg width="372pt" height="323pt"
 viewBox="0.00 0.00 371.50 323.00" xmlns="http://www.w3.org/2000/svg" xmlns:xlink="http://www.w3.org/1999/xlink">
<g id="graph0" class="graph" transform="scale(1 1) rotate(0) translate(4 319)">
<title>es.alrodmue.view.AddMatchViewController</title>
<!-- Node1 -->
<g id="Node000001" class="node">
<title>Node1</title>
<g id="a_Node000001"><a xlink:title=" ">
<polygon fill="#999999" stroke="transparent" points="268.5,-90 119.5,-90 119.5,0 268.5,0 268.5,-90"/>
<text text-anchor="start" x="125" y="-78" font-family="Helvetica,sans-Serif" font-size="10.00">es.alrodmue.view.AddMatch</text>
<text text-anchor="start" x="158" y="-67" font-family="Helvetica,sans-Serif" font-size="10.00">ViewController</text>
<text text-anchor="start" x="192.5" y="-52" font-family="Helvetica,sans-Serif" font-size="10.00"> </text>
<text text-anchor="start" x="128.5" y="-37" font-family="Helvetica,sans-Serif" font-size="10.00">+</text>
<text text-anchor="start" x="146" y="-37" font-family="Helvetica,sans-Serif" font-size="10.00">initialize()</text>
<text text-anchor="start" x="131" y="-22" font-family="Helvetica,sans-Serif" font-size="10.00">&#45;</text>
<text text-anchor="start" x="146" y="-22" font-family="Helvetica,sans-Serif" font-size="10.00">onAcceptButtonClick()</text>
<text text-anchor="start" x="131" y="-7" font-family="Helvetica,sans-Serif" font-size="10.00">&#45;</text>
<text text-anchor="start" x="146" y="-7" font-family="Helvetica,sans-Serif" font-size="10.00">onCancelButtonClick()</text>
<polygon fill="#666666" stroke="#666666" points="120,-62 120,-62 269,-62 269,-62 120,-62"/>
<polygon fill="#666666" stroke="#666666" points="120,-47 120,-47 269,-47 269,-47 120,-47"/>
<polygon fill="none" stroke="#666666" points="119.5,0 119.5,-90 268.5,-90 268.5,0 119.5,0"/>
</a>
</g>
</g>
<!-- Node2 -->
<g id="Node000002" class="node">
<title>Node2</title>
<g id="a_Node000002"><a xlink:title=" ">
<polygon fill="white" stroke="transparent" points="68,-202.5 0,-202.5 0,-153.5 68,-153.5 68,-202.5"/>
<text text-anchor="start" x="5" y="-190" font-family="Helvetica,sans-Serif" font-size="10.00">Initializable</text>
<text text-anchor="start" x="32" y="-175" font-family="Helvetica,sans-Serif" font-size="10.00"> </text>
<text text-anchor="start" x="32" y="-160" font-family="Helvetica,sans-Serif" font-size="10.00"> </text>
<polygon fill="#bfbfbf" stroke="#bfbfbf" points="0,-185 0,-185 68,-185 68,-185 0,-185"/>
<polygon fill="#bfbfbf" stroke="#bfbfbf" points="0,-170 0,-170 68,-170 68,-170 0,-170"/>
<polygon fill="none" stroke="#bfbfbf" points="0,-153.5 0,-202.5 68,-202.5 68,-153.5 0,-153.5"/>
</a>
</g>
</g>
<!-- Node2&#45;&gt;Node1 -->
<g id="edge1_Node000001_Node000002" class="edge">
<title>Node2&#45;&gt;Node1</title>
<g id="a_edge1_Node000001_Node000002"><a xlink:title=" ">
<path fill="none" stroke="#63b8ff" d="M70.84,-146.84C91.34,-130.05 117.25,-108.84 140,-90.21"/>
<polygon fill="none" stroke="#63b8ff" points="68.49,-144.23 62.97,-153.28 72.93,-149.65 68.49,-144.23"/>
</a>
</g>
</g>
<!-- Node3 -->
<g id="Node000003" class="node">
<title>Node3</title>
<g id="a_Node000003"><a xlink:title=" ">
<polygon fill="white" stroke="transparent" points="302,-208 86,-208 86,-148 302,-148 302,-208"/>
<text text-anchor="start" x="91" y="-196" font-family="Helvetica,sans-Serif" font-size="10.00">ChoiceBox&lt; es.alrodmue.model.matches.</text>
<text text-anchor="start" x="162" y="-185" font-family="Helvetica,sans-Serif" font-size="10.00">MatchType &gt;</text>
<text text-anchor="start" x="192" y="-170" font-family="Helvetica,sans-Serif" font-size="10.00"> </text>
<text text-anchor="start" x="192" y="-155" font-family="Helvetica,sans-Serif" font-size="10.00"> </text>
<polygon fill="#bfbfbf" stroke="#bfbfbf" points="86,-180 86,-180 302,-180 302,-180 86,-180"/>
<polygon fill="#bfbfbf" stroke="#bfbfbf" points="86,-165 86,-165 302,-165 302,-165 86,-165"/>
<polygon fill="none" stroke="#bfbfbf" points="86,-148 86,-208 302,-208 302,-148 86,-148"/>
</a>
</g>
</g>
<!-- Node3&#45;&gt;Node1 -->
<g id="edge2_Node000001_Node000003" class="edge">
<title>Node3&#45;&gt;Node1</title>
<g id="a_edge2_Node000001_Node000003"><a xlink:title=" ">
<path fill="none" stroke="#63b8ff" d="M194,-147.93C194,-134.54 194,-118.19 194,-102.53"/>
<polygon fill="none" stroke="#63b8ff" points="194,-102.19 190,-96.19 194,-90.19 198,-96.19 194,-102.19"/>
</a>
</g>
<text text-anchor="middle" x="224.5" y="-116.5" font-family="Helvetica,sans-Serif" font-size="10.00" fill="grey"> &#45;matchType</text>
</g>
<!-- Node4 -->
<g id="Node000004" class="node">
<title>Node4</title>
<g id="a_Node000004"><a xlink:title=" ">
<polygon fill="white" stroke="transparent" points="225,-315 163,-315 163,-266 225,-266 225,-315"/>
<text text-anchor="start" x="168" y="-302.5" font-family="Helvetica,sans-Serif" font-size="10.00">ChoiceBox</text>
<text text-anchor="start" x="192" y="-287.5" font-family="Helvetica,sans-Serif" font-size="10.00"> </text>
<text text-anchor="start" x="192" y="-272.5" font-family="Helvetica,sans-Serif" font-size="10.00"> </text>
<polygon fill="#bfbfbf" stroke="#bfbfbf" points="163,-297.5 163,-297.5 225,-297.5 225,-297.5 163,-297.5"/>
<polygon fill="#bfbfbf" stroke="#bfbfbf" points="163,-282.5 163,-282.5 225,-282.5 225,-282.5 163,-282.5"/>
<polygon fill="none" stroke="#bfbfbf" points="163,-266 163,-315 225,-315 225,-266 163,-266"/>
</a>
</g>
</g>
<!-- Node4&#45;&gt;Node3 -->
<g id="edge3_Node000003_Node000004" class="edge">
<title>Node4&#45;&gt;Node3</title>
<g id="a_edge3_Node000003_Node000004"><a xlink:title=" ">
<path fill="none" stroke="orange" d="M194,-255.75C194,-240.56 194,-222.79 194,-208.17"/>
<polygon fill="orange" stroke="orange" points="190.5,-255.79 194,-265.79 197.5,-255.8 190.5,-255.79"/>
</a>
</g>
<text text-anchor="start" x="194" y="-240" font-family="Helvetica,sans-Serif" font-size="10.00" fill="grey"> &lt; es::alrodmue::model</text>
<text text-anchor="middle" x="253" y="-229" font-family="Helvetica,sans-Serif" font-size="10.00" fill="grey">::matches::MatchType &gt;</text>
</g>
<!-- Node5 -->
<g id="Node000005" class="node">
<title>Node5</title>
<g id="a_Node000005"><a xlink:title=" ">
<polygon fill="white" stroke="transparent" points="363.5,-202.5 320.5,-202.5 320.5,-153.5 363.5,-153.5 363.5,-202.5"/>
<text text-anchor="start" x="326" y="-190" font-family="Helvetica,sans-Serif" font-size="10.00">Button</text>
<text text-anchor="start" x="340.5" y="-175" font-family="Helvetica,sans-Serif" font-size="10.00"> </text>
<text text-anchor="start" x="340.5" y="-160" font-family="Helvetica,sans-Serif" font-size="10.00"> </text>
<polygon fill="#bfbfbf" stroke="#bfbfbf" points="321,-185 321,-185 364,-185 364,-185 321,-185"/>
<polygon fill="#bfbfbf" stroke="#bfbfbf" points="321,-170 321,-170 364,-170 364,-170 321,-170"/>
<polygon fill="none" stroke="#bfbfbf" points="320.5,-153.5 320.5,-202.5 363.5,-202.5 363.5,-153.5 320.5,-153.5"/>
</a>
</g>
</g>
<!-- Node5&#45;&gt;Node1 -->
<g id="edge4_Node000001_Node000005" class="edge">
<title>Node5&#45;&gt;Node1</title>
<g id="a_edge4_Node000001_Node000005"><a xlink:title=" ">
<path fill="none" stroke="#63b8ff" d="M320.41,-156.62C317.27,-153.71 314.06,-150.77 311,-148 292.78,-131.54 272.71,-113.88 254.41,-97.96"/>
<polygon fill="none" stroke="#63b8ff" points="254.37,-97.92 247.22,-97 245.31,-90.05 252.46,-90.96 254.37,-97.92"/>
</a>
</g>
<text text-anchor="middle" x="324" y="-122" font-family="Helvetica,sans-Serif" font-size="10.00" fill="grey"> &#45;acceptButton</text>
<text text-anchor="middle" x="324" y="-111" font-family="Helvetica,sans-Serif" font-size="10.00" fill="grey">&#45;cancelButton</text>
</g>
</g>
</svg>
