<?xml version="1.0" encoding="UTF-8" standalone="no"?>
<!DOCTYPE svg PUBLIC "-//W3C//DTD SVG 1.1//EN"
 "http://www.w3.org/Graphics/SVG/1.1/DTD/svg11.dtd">
<!-- Generated by graphviz version 2.43.0 (0)
 -->
<!-- Title: es.alrodmue.model.players.ShootingGuardPlayer Pages: 1 -->
<svg width="443pt" height="682pt"
 viewBox="0.00 0.00 442.50 682.00" xmlns="http://www.w3.org/2000/svg" xmlns:xlink="http://www.w3.org/1999/xlink">
<g id="graph0" class="graph" transform="scale(1 1) rotate(0) translate(4 678)">
<title>es.alrodmue.model.players.ShootingGuardPlayer</title>
<!-- Node1 -->
<g id="Node000001" class="node">
<title>Node1</title>
<g id="a_Node000001"><a xlink:title=" ">
<polygon fill="#999999" stroke="transparent" points="222,-75 75,-75 75,0 222,0 222,-75"/>
<text text-anchor="start" x="80.5" y="-62.5" font-family="Helvetica,sans-Serif" font-size="10.00">es.alrodmue.model.players.</text>
<text text-anchor="start" x="97.5" y="-51.5" font-family="Helvetica,sans-Serif" font-size="10.00">ShootingGuardPlayer</text>
<text text-anchor="start" x="147" y="-36.5" font-family="Helvetica,sans-Serif" font-size="10.00"> </text>
<text text-anchor="start" x="83" y="-21.5" font-family="Helvetica,sans-Serif" font-size="10.00">+</text>
<text text-anchor="start" x="99.5" y="-21.5" font-family="Helvetica,sans-Serif" font-size="10.00">ShootingGuardPlayer()</text>
<text text-anchor="start" x="83" y="-6.5" font-family="Helvetica,sans-Serif" font-size="10.00">+</text>
<text text-anchor="start" x="99.5" y="-6.5" font-family="Helvetica,sans-Serif" font-size="10.00">getType()</text>
<polygon fill="#666666" stroke="#666666" points="75.5,-46.5 75.5,-46.5 222.5,-46.5 222.5,-46.5 75.5,-46.5"/>
<polygon fill="#666666" stroke="#666666" points="75.5,-31.5 75.5,-31.5 222.5,-31.5 222.5,-31.5 75.5,-31.5"/>
<polygon fill="none" stroke="#666666" points="75,0 75,-75 222,-75 222,0 75,0"/>
</a>
</g>
</g>
<!-- Node2 -->
<g id="Node000002" class="node">
<title>Node2</title>
<g id="a_Node000002"><a xlink:href="classes_1_1alrodmue_1_1model_1_1players_1_1Player.xhtml" target="_top" xlink:title=" ">
<polygon fill="white" stroke="transparent" points="222,-427 75,-427 75,-112 222,-112 222,-427"/>
<text text-anchor="start" x="80.5" y="-414.5" font-family="Helvetica,sans-Serif" font-size="10.00">es.alrodmue.model.players.</text>
<text text-anchor="start" x="133.5" y="-403.5" font-family="Helvetica,sans-Serif" font-size="10.00">Player</text>
<text text-anchor="start" x="147" y="-388.5" font-family="Helvetica,sans-Serif" font-size="10.00"> </text>
<text text-anchor="start" x="91" y="-373.5" font-family="Helvetica,sans-Serif" font-size="10.00">+</text>
<text text-anchor="start" x="115.5" y="-373.5" font-family="Helvetica,sans-Serif" font-size="10.00">Player()</text>
<text text-anchor="start" x="91" y="-358.5" font-family="Helvetica,sans-Serif" font-size="10.00">+</text>
<text text-anchor="start" x="115.5" y="-358.5" font-family="Helvetica,sans-Serif" font-size="10.00">addFoul()</text>
<text text-anchor="start" x="91" y="-343.5" font-family="Helvetica,sans-Serif" font-size="10.00">+</text>
<text text-anchor="start" x="115.5" y="-343.5" font-family="Helvetica,sans-Serif" font-size="10.00">addPoints()</text>
<text text-anchor="start" x="91" y="-328.5" font-family="Helvetica,sans-Serif" font-size="10.00">+</text>
<text text-anchor="start" x="115.5" y="-328.5" font-family="Helvetica,sans-Serif" font-size="10.00">getDetail()</text>
<text text-anchor="start" x="91" y="-313.5" font-family="Helvetica,sans-Serif" font-size="10.00">+</text>
<text text-anchor="start" x="115.5" y="-313.5" font-family="Helvetica,sans-Serif" font-size="10.00">getFouls()</text>
<text text-anchor="start" x="91" y="-298.5" font-family="Helvetica,sans-Serif" font-size="10.00">+</text>
<text text-anchor="start" x="115.5" y="-298.5" font-family="Helvetica,sans-Serif" font-size="10.00">getHeight()</text>
<text text-anchor="start" x="91" y="-283.5" font-family="Helvetica,sans-Serif" font-size="10.00">+</text>
<text text-anchor="start" x="115.5" y="-283.5" font-family="Helvetica,sans-Serif" font-size="10.00">getName()</text>
<text text-anchor="start" x="91" y="-268.5" font-family="Helvetica,sans-Serif" font-size="10.00">+</text>
<text text-anchor="start" x="115.5" y="-268.5" font-family="Helvetica,sans-Serif" font-size="10.00">getNumber()</text>
<text text-anchor="start" x="91" y="-253.5" font-family="Helvetica,sans-Serif" font-size="10.00">+</text>
<text text-anchor="start" x="115.5" y="-253.5" font-family="Helvetica,sans-Serif" font-size="10.00">getPoints()</text>
<text text-anchor="start" x="91" y="-238.5" font-family="Helvetica,sans-Serif" font-size="10.00">+</text>
<text text-anchor="start" x="115.5" y="-238.5" font-family="Helvetica,sans-Serif" font-size="10.00">getSkill()</text>
<text text-anchor="start" x="91" y="-223.5" font-family="Helvetica,sans-Serif" font-size="10.00">+</text>
<text text-anchor="start" x="115.5" y="-223.5" font-family="Helvetica,sans-Serif" font-size="10.00">getType()</text>
<text text-anchor="start" x="91" y="-208.5" font-family="Helvetica,sans-Serif" font-size="10.00">+</text>
<text text-anchor="start" x="115.5" y="-208.5" font-family="Helvetica,sans-Serif" font-size="10.00">toString()</text>
<text text-anchor="start" x="91" y="-193.5" font-family="Helvetica,sans-Serif" font-size="10.00">+</text>
<text text-anchor="start" x="115.5" y="-193.5" font-family="Helvetica,sans-Serif" font-size="10.00">arePointsValid()</text>
<text text-anchor="start" x="91" y="-178.5" font-family="Helvetica,sans-Serif" font-size="10.00">+</text>
<text text-anchor="start" x="115.5" y="-178.5" font-family="Helvetica,sans-Serif" font-size="10.00">isFoulValid()</text>
<text text-anchor="start" x="91" y="-163.5" font-family="Helvetica,sans-Serif" font-size="10.00">+</text>
<text text-anchor="start" x="115.5" y="-163.5" font-family="Helvetica,sans-Serif" font-size="10.00">isHeightValid()</text>
<text text-anchor="start" x="91" y="-148.5" font-family="Helvetica,sans-Serif" font-size="10.00">+</text>
<text text-anchor="start" x="115.5" y="-148.5" font-family="Helvetica,sans-Serif" font-size="10.00">isNameValid()</text>
<text text-anchor="start" x="91" y="-133.5" font-family="Helvetica,sans-Serif" font-size="10.00">+</text>
<text text-anchor="start" x="115.5" y="-133.5" font-family="Helvetica,sans-Serif" font-size="10.00">isNumberValid()</text>
<text text-anchor="start" x="91" y="-118.5" font-family="Helvetica,sans-Serif" font-size="10.00">+</text>
<text text-anchor="start" x="115.5" y="-118.5" font-family="Helvetica,sans-Serif" font-size="10.00">isSkillValid()</text>
<polygon fill="#666666" stroke="#666666" points="75.5,-398.5 75.5,-398.5 222.5,-398.5 222.5,-398.5 75.5,-398.5"/>
<polygon fill="#666666" stroke="#666666" points="75.5,-383.5 75.5,-383.5 222.5,-383.5 222.5,-383.5 75.5,-383.5"/>
<polygon fill="none" stroke="#666666" points="75,-112 75,-427 222,-427 222,-112 75,-112"/>
</a>
</g>
</g>
<!-- Node2&#45;&gt;Node1 -->
<g id="edge1_Node000001_Node000002" class="edge">
<title>Node2&#45;&gt;Node1</title>
<g id="a_edge1_Node000001_Node000002"><a xlink:title=" ">
<path fill="none" stroke="#63b8ff" d="M148.5,-101.76C148.5,-92.21 148.5,-83.27 148.5,-75.29"/>
<polygon fill="none" stroke="#63b8ff" points="145,-101.91 148.5,-111.91 152,-101.91 145,-101.91"/>
</a>
</g>
</g>
<!-- Node3 -->
<g id="Node000003" class="node">
<title>Node3</title>
<g id="a_Node000003"><a xlink:title=" ">
<polygon fill="white" stroke="transparent" points="53,-561.5 0,-561.5 0,-512.5 53,-512.5 53,-561.5"/>
<text text-anchor="start" x="5.5" y="-549" font-family="Helvetica,sans-Serif" font-size="10.00">static int</text>
<text text-anchor="start" x="25" y="-534" font-family="Helvetica,sans-Serif" font-size="10.00"> </text>
<text text-anchor="start" x="25" y="-519" font-family="Helvetica,sans-Serif" font-size="10.00"> </text>
<polygon fill="#bfbfbf" stroke="#bfbfbf" points="0.5,-544 0.5,-544 53.5,-544 53.5,-544 0.5,-544"/>
<polygon fill="#bfbfbf" stroke="#bfbfbf" points="0.5,-529 0.5,-529 53.5,-529 53.5,-529 0.5,-529"/>
<polygon fill="none" stroke="#bfbfbf" points="0,-512.5 0,-561.5 53,-561.5 53,-512.5 0,-512.5"/>
</a>
</g>
</g>
<!-- Node3&#45;&gt;Node2 -->
<g id="edge2_Node000002_Node000003" class="edge">
<title>Node3&#45;&gt;Node2</title>
<g id="a_edge2_Node000002_Node000003"><a xlink:title=" ">
<path fill="none" stroke="#63b8ff" d="M28.95,-512.19C31.41,-493.46 36.08,-466.95 44.5,-445 51.3,-427.28 59.84,-409.29 69.08,-391.94"/>
<polygon fill="none" stroke="#63b8ff" points="69.18,-391.76 68.54,-384.58 74.92,-381.22 75.56,-388.4 69.18,-391.76"/>
</a>
</g>
<text text-anchor="middle" x="78.5" y="-464.5" font-family="Helvetica,sans-Serif" font-size="10.00" fill="grey"> &#45;nextNumber</text>
</g>
<!-- Node4 -->
<g id="Node000004" class="node">
<title>Node4</title>
<g id="a_Node000004"><a xlink:title=" ">
<polygon fill="white" stroke="transparent" points="137,-561.5 98,-561.5 98,-512.5 137,-512.5 137,-561.5"/>
<text text-anchor="start" x="103.5" y="-549" font-family="Helvetica,sans-Serif" font-size="10.00">String</text>
<text text-anchor="start" x="116" y="-534" font-family="Helvetica,sans-Serif" font-size="10.00"> </text>
<text text-anchor="start" x="116" y="-519" font-family="Helvetica,sans-Serif" font-size="10.00"> </text>
<polygon fill="#bfbfbf" stroke="#bfbfbf" points="98.5,-544 98.5,-544 137.5,-544 137.5,-544 98.5,-544"/>
<polygon fill="#bfbfbf" stroke="#bfbfbf" points="98.5,-529 98.5,-529 137.5,-529 137.5,-529 98.5,-529"/>
<polygon fill="none" stroke="#bfbfbf" points="98,-512.5 98,-561.5 137,-561.5 137,-512.5 98,-512.5"/>
</a>
</g>
</g>
<!-- Node4&#45;&gt;Node2 -->
<g id="edge3_Node000002_Node000004" class="edge">
<title>Node4&#45;&gt;Node2</title>
<g id="a_edge3_Node000002_Node000004"><a xlink:title=" ">
<path fill="none" stroke="#63b8ff" d="M116.73,-512.38C116.38,-493.98 116.43,-467.82 118.5,-445 118.67,-443.09 118.86,-441.17 119.05,-439.24"/>
<polygon fill="none" stroke="#63b8ff" points="119.05,-439.23 115.71,-432.84 120.33,-427.3 123.67,-433.7 119.05,-439.23"/>
</a>
</g>
<text text-anchor="middle" x="138.5" y="-464.5" font-family="Helvetica,sans-Serif" font-size="10.00" fill="grey"> #name</text>
</g>
<!-- Node5 -->
<g id="Node000005" class="node">
<title>Node5</title>
<g id="a_Node000005"><a xlink:title=" ">
<polygon fill="white" stroke="transparent" points="192,-561.5 169,-561.5 169,-512.5 192,-512.5 192,-561.5"/>
<text text-anchor="start" x="174.5" y="-549" font-family="Helvetica,sans-Serif" font-size="10.00">int</text>
<text text-anchor="start" x="179" y="-534" font-family="Helvetica,sans-Serif" font-size="10.00"> </text>
<text text-anchor="start" x="179" y="-519" font-family="Helvetica,sans-Serif" font-size="10.00"> </text>
<polygon fill="#bfbfbf" stroke="#bfbfbf" points="169.5,-544 169.5,-544 192.5,-544 192.5,-544 169.5,-544"/>
<polygon fill="#bfbfbf" stroke="#bfbfbf" points="169.5,-529 169.5,-529 192.5,-529 192.5,-529 169.5,-529"/>
<polygon fill="none" stroke="#bfbfbf" points="169,-512.5 169,-561.5 192,-561.5 192,-512.5 169,-512.5"/>
</a>
</g>
</g>
<!-- Node5&#45;&gt;Node2 -->
<g id="edge4_Node000002_Node000005" class="edge">
<title>Node5&#45;&gt;Node2</title>
<g id="a_edge4_Node000002_Node000005"><a xlink:title=" ">
<path fill="none" stroke="#63b8ff" d="M177.66,-512.44C175.5,-494.54 172.32,-468.13 168.84,-439.27"/>
<polygon fill="none" stroke="#63b8ff" points="168.82,-439.13 164.14,-433.66 167.39,-427.22 172.08,-432.7 168.82,-439.13"/>
</a>
</g>
<text text-anchor="middle" x="196.5" y="-481" font-family="Helvetica,sans-Serif" font-size="10.00" fill="grey"> #height</text>
<text text-anchor="middle" x="196.5" y="-470" font-family="Helvetica,sans-Serif" font-size="10.00" fill="grey">#number</text>
<text text-anchor="middle" x="196.5" y="-459" font-family="Helvetica,sans-Serif" font-size="10.00" fill="grey">#points</text>
<text text-anchor="middle" x="196.5" y="-448" font-family="Helvetica,sans-Serif" font-size="10.00" fill="grey">#skill</text>
</g>
<!-- Node6 -->
<g id="Node000006" class="node">
<title>Node6</title>
<g id="a_Node000006"><a xlink:title=" ">
<polygon fill="white" stroke="transparent" points="429,-567 210,-567 210,-507 429,-507 429,-567"/>
<text text-anchor="start" x="215.5" y="-555" font-family="Helvetica,sans-Serif" font-size="10.00">ObservableList&lt; es.alrodmue.model.fouls.</text>
<text text-anchor="start" x="304" y="-544" font-family="Helvetica,sans-Serif" font-size="10.00">Foul &gt;</text>
<text text-anchor="start" x="318" y="-529" font-family="Helvetica,sans-Serif" font-size="10.00"> </text>
<text text-anchor="start" x="318" y="-514" font-family="Helvetica,sans-Serif" font-size="10.00"> </text>
<polygon fill="#bfbfbf" stroke="#bfbfbf" points="210.5,-539 210.5,-539 429.5,-539 429.5,-539 210.5,-539"/>
<polygon fill="#bfbfbf" stroke="#bfbfbf" points="210.5,-524 210.5,-524 429.5,-524 429.5,-524 210.5,-524"/>
<polygon fill="none" stroke="#bfbfbf" points="210,-507 210,-567 429,-567 429,-507 210,-507"/>
</a>
</g>
</g>
<!-- Node6&#45;&gt;Node2 -->
<g id="edge5_Node000002_Node000006" class="edge">
<title>Node6&#45;&gt;Node2</title>
<g id="a_edge5_Node000002_Node000006"><a xlink:title=" ">
<path fill="none" stroke="#63b8ff" d="M300.71,-506.83C283.12,-479.51 255.58,-436.76 228.74,-395.09"/>
<polygon fill="none" stroke="#63b8ff" points="228.62,-394.9 222.01,-392.02 222.13,-384.81 228.74,-387.69 228.62,-394.9"/>
</a>
</g>
<text text-anchor="middle" x="304.5" y="-464.5" font-family="Helvetica,sans-Serif" font-size="10.00" fill="grey"> #fouls</text>
</g>
<!-- Node7 -->
<g id="Node000007" class="node">
<title>Node7</title>
<g id="a_Node000007"><a xlink:title=" ">
<polygon fill="white" stroke="transparent" points="361,-674 278,-674 278,-625 361,-625 361,-674"/>
<text text-anchor="start" x="283.5" y="-661.5" font-family="Helvetica,sans-Serif" font-size="10.00">ObservableList</text>
<text text-anchor="start" x="318" y="-646.5" font-family="Helvetica,sans-Serif" font-size="10.00"> </text>
<text text-anchor="start" x="318" y="-631.5" font-family="Helvetica,sans-Serif" font-size="10.00"> </text>
<polygon fill="#bfbfbf" stroke="#bfbfbf" points="278.5,-656.5 278.5,-656.5 361.5,-656.5 361.5,-656.5 278.5,-656.5"/>
<polygon fill="#bfbfbf" stroke="#bfbfbf" points="278.5,-641.5 278.5,-641.5 361.5,-641.5 361.5,-641.5 278.5,-641.5"/>
<polygon fill="none" stroke="#bfbfbf" points="278,-625 278,-674 361,-674 361,-625 278,-625"/>
</a>
</g>
</g>
<!-- Node7&#45;&gt;Node6 -->
<g id="edge6_Node000006_Node000007" class="edge">
<title>Node7&#45;&gt;Node6</title>
<g id="a_edge6_Node000006_Node000007"><a xlink:title=" ">
<path fill="none" stroke="orange" d="M319.5,-614.75C319.5,-599.56 319.5,-581.79 319.5,-567.17"/>
<polygon fill="orange" stroke="orange" points="316,-614.79 319.5,-624.79 323,-614.8 316,-614.79"/>
</a>
</g>
<text text-anchor="start" x="319.5" y="-599" font-family="Helvetica,sans-Serif" font-size="10.00" fill="grey"> &lt; es::alrodmue::model</text>
<text text-anchor="middle" x="377" y="-588" font-family="Helvetica,sans-Serif" font-size="10.00" fill="grey">::fouls::Foul &gt;</text>
</g>
</g>
</svg>
