<?xml version="1.0" encoding="UTF-8" standalone="no"?>
<!DOCTYPE svg PUBLIC "-//W3C//DTD SVG 1.1//EN"
 "http://www.w3.org/Graphics/SVG/1.1/DTD/svg11.dtd">
<!-- Generated by graphviz version 2.43.0 (0)
 -->
<!-- Title: es.alrodmue.controller.PlayerController.showPlayerDetails Pages: 1 -->
<svg width="553pt" height="86pt"
 viewBox="0.00 0.00 553.00 86.00" xmlns="http://www.w3.org/2000/svg" xmlns:xlink="http://www.w3.org/1999/xlink">
<g id="graph0" class="graph" transform="scale(1 1) rotate(0) translate(4 82)">
<title>es.alrodmue.controller.PlayerController.showPlayerDetails</title>
<!-- Node1 -->
<g id="Node000001" class="node">
<title>Node1</title>
<g id="a_Node000001"><a xlink:title=" ">
<polygon fill="#999999" stroke="#666666" points="160,-54 0,-54 0,-24 160,-24 160,-54"/>
<text text-anchor="start" x="8" y="-42" font-family="Helvetica,sans-Serif" font-size="10.00">es.alrodmue.controller.Player</text>
<text text-anchor="middle" x="80" y="-31" font-family="Helvetica,sans-Serif" font-size="10.00">Controller.showPlayerDetails</text>
</a>
</g>
</g>
<!-- Node2 -->
<g id="Node000002" class="node">
<title>Node2</title>
<g id="a_Node000002"><a xlink:href="classes_1_1alrodmue_1_1model_1_1players_1_1Player.xhtml#abea8b9786e37a26e5830519c4436cb45" target="_top" xlink:title=" ">
<polygon fill="white" stroke="#666666" points="352.5,-78 199.5,-78 199.5,-48 352.5,-48 352.5,-78"/>
<text text-anchor="start" x="207.5" y="-66" font-family="Helvetica,sans-Serif" font-size="10.00">es.alrodmue.model.players.</text>
<text text-anchor="middle" x="276" y="-55" font-family="Helvetica,sans-Serif" font-size="10.00">Player.getDetail</text>
</a>
</g>
</g>
<!-- Node1&#45;&gt;Node2 -->
<g id="edge1_Node000001_Node000002" class="edge">
<title>Node1&#45;&gt;Node2</title>
<g id="a_edge1_Node000001_Node000002"><a xlink:title=" ">
<path fill="none" stroke="#63b8ff" d="M160.19,-48.8C169.75,-49.98 179.56,-51.19 189.21,-52.39"/>
<polygon fill="#63b8ff" stroke="#63b8ff" points="188.84,-55.87 199.2,-53.62 189.7,-48.92 188.84,-55.87"/>
</a>
</g>
</g>
<!-- Node4 -->
<g id="Node000004" class="node">
<title>Node4</title>
<g id="a_Node000004"><a xlink:href="classes_1_1alrodmue_1_1controller_1_1PlayerController.xhtml#a0d848334f324bc73821814c8e7705551" target="_top" xlink:title=" ">
<polygon fill="white" stroke="#666666" points="356,-30 196,-30 196,0 356,0 356,-30"/>
<text text-anchor="start" x="204" y="-18" font-family="Helvetica,sans-Serif" font-size="10.00">es.alrodmue.controller.Player</text>
<text text-anchor="middle" x="276" y="-7" font-family="Helvetica,sans-Serif" font-size="10.00">Controller.showInfo</text>
</a>
</g>
</g>
<!-- Node1&#45;&gt;Node4 -->
<g id="edge3_Node000001_Node000004" class="edge">
<title>Node1&#45;&gt;Node4</title>
<g id="a_edge3_Node000001_Node000004"><a xlink:title=" ">
<path fill="none" stroke="#63b8ff" d="M160.19,-29.2C168.62,-28.16 177.24,-27.09 185.78,-26.04"/>
<polygon fill="#63b8ff" stroke="#63b8ff" points="186.26,-29.51 195.75,-24.8 185.4,-22.56 186.26,-29.51"/>
</a>
</g>
</g>
<!-- Node3 -->
<g id="Node000003" class="node">
<title>Node3</title>
<g id="a_Node000003"><a xlink:href="classes_1_1alrodmue_1_1model_1_1players_1_1Player.xhtml#adabbcc6d07810d0bdb31b9ba01f86443" target="_top" xlink:title=" ">
<polygon fill="white" stroke="#666666" points="545,-78 392,-78 392,-48 545,-48 545,-78"/>
<text text-anchor="start" x="400" y="-66" font-family="Helvetica,sans-Serif" font-size="10.00">es.alrodmue.model.players.</text>
<text text-anchor="middle" x="468.5" y="-55" font-family="Helvetica,sans-Serif" font-size="10.00">Player.getType</text>
</a>
</g>
</g>
<!-- Node2&#45;&gt;Node3 -->
<g id="edge2_Node000002_Node000003" class="edge">
<title>Node2&#45;&gt;Node3</title>
<g id="a_edge2_Node000002_Node000003"><a xlink:title=" ">
<path fill="none" stroke="#63b8ff" d="M352.56,-63C362.12,-63 371.96,-63 381.67,-63"/>
<polygon fill="#63b8ff" stroke="#63b8ff" points="381.72,-66.5 391.72,-63 381.72,-59.5 381.72,-66.5"/>
</a>
</g>
</g>
</g>
</svg>
