<?xml version="1.0" encoding="UTF-8" standalone="no"?>
<!DOCTYPE svg PUBLIC "-//W3C//DTD SVG 1.1//EN"
 "http://www.w3.org/Graphics/SVG/1.1/DTD/svg11.dtd">
<!-- Generated by graphviz version 2.43.0 (0)
 -->
<!-- Title: es.alrodmue.controller.PlayerController.showInfo Pages: 1 -->
<svg width="364pt" height="134pt"
 viewBox="0.00 0.00 364.00 134.00" xmlns="http://www.w3.org/2000/svg" xmlns:xlink="http://www.w3.org/1999/xlink">
<g id="graph0" class="graph" transform="scale(1 1) rotate(0) translate(4 130)">
<title>es.alrodmue.controller.PlayerController.showInfo</title>
<!-- Node1 -->
<g id="Node000001" class="node">
<title>Node1</title>
<g id="a_Node000001"><a xlink:title=" ">
<polygon fill="#999999" stroke="#666666" points="356,-78 196,-78 196,-48 356,-48 356,-78"/>
<text text-anchor="start" x="204" y="-66" font-family="Helvetica,sans-Serif" font-size="10.00">es.alrodmue.controller.Player</text>
<text text-anchor="middle" x="276" y="-55" font-family="Helvetica,sans-Serif" font-size="10.00">Controller.showInfo</text>
</a>
</g>
</g>
<!-- Node2 -->
<g id="Node000002" class="node">
<title>Node2</title>
<g id="a_Node000002"><a xlink:href="classes_1_1alrodmue_1_1controller_1_1PlayerController.xhtml#a55cc268435a692ae0f37a02c5b045483" target="_top" xlink:title=" ">
<polygon fill="white" stroke="#666666" points="160,-126 0,-126 0,-96 160,-96 160,-126"/>
<text text-anchor="start" x="8" y="-114" font-family="Helvetica,sans-Serif" font-size="10.00">es.alrodmue.controller.Player</text>
<text text-anchor="middle" x="80" y="-103" font-family="Helvetica,sans-Serif" font-size="10.00">Controller.removePlayer</text>
</a>
</g>
</g>
<!-- Node1&#45;&gt;Node2 -->
<g id="edge1_Node000001_Node000002" class="edge">
<title>Node1&#45;&gt;Node2</title>
<g id="a_edge1_Node000001_Node000002"><a xlink:title=" ">
<path fill="none" stroke="#63b8ff" d="M204.23,-80.51C183.7,-85.59 161.48,-91.09 141.63,-96"/>
<polygon fill="#63b8ff" stroke="#63b8ff" points="205.28,-83.86 214.15,-78.06 203.6,-77.06 205.28,-83.86"/>
</a>
</g>
</g>
<!-- Node3 -->
<g id="Node000003" class="node">
<title>Node3</title>
<g id="a_Node000003"><a xlink:href="classes_1_1alrodmue_1_1controller_1_1PlayerController.xhtml#a58626c864713aebb02228143abb9dda3" target="_top" xlink:title=" ">
<polygon fill="white" stroke="#666666" points="160,-78 0,-78 0,-48 160,-48 160,-78"/>
<text text-anchor="start" x="8" y="-66" font-family="Helvetica,sans-Serif" font-size="10.00">es.alrodmue.controller.Player</text>
<text text-anchor="middle" x="80" y="-55" font-family="Helvetica,sans-Serif" font-size="10.00">Controller.showPlayerDetails</text>
</a>
</g>
</g>
<!-- Node1&#45;&gt;Node3 -->
<g id="edge2_Node000001_Node000003" class="edge">
<title>Node1&#45;&gt;Node3</title>
<g id="a_edge2_Node000001_Node000003"><a xlink:title=" ">
<path fill="none" stroke="#63b8ff" d="M185.56,-63C177.12,-63 168.59,-63 160.25,-63"/>
<polygon fill="#63b8ff" stroke="#63b8ff" points="185.81,-66.5 195.81,-63 185.81,-59.5 185.81,-66.5"/>
</a>
</g>
</g>
<!-- Node4 -->
<g id="Node000004" class="node">
<title>Node4</title>
<g id="a_Node000004"><a xlink:href="classes_1_1alrodmue_1_1controller_1_1PlayerController.xhtml#af837db34e77d7805da5ccaaedc9b20f8" target="_top" xlink:title=" ">
<polygon fill="white" stroke="#666666" points="160,-30 0,-30 0,0 160,0 160,-30"/>
<text text-anchor="start" x="8" y="-18" font-family="Helvetica,sans-Serif" font-size="10.00">es.alrodmue.controller.Player</text>
<text text-anchor="middle" x="80" y="-7" font-family="Helvetica,sans-Serif" font-size="10.00">Controller.showPlayerDetails</text>
</a>
</g>
</g>
<!-- Node1&#45;&gt;Node4 -->
<g id="edge3_Node000001_Node000004" class="edge">
<title>Node1&#45;&gt;Node4</title>
<g id="a_edge3_Node000001_Node000004"><a xlink:title=" ">
<path fill="none" stroke="#63b8ff" d="M204.23,-45.49C183.7,-40.41 161.48,-34.91 141.63,-30"/>
<polygon fill="#63b8ff" stroke="#63b8ff" points="203.6,-48.94 214.15,-47.94 205.28,-42.14 203.6,-48.94"/>
</a>
</g>
</g>
</g>
</svg>
