<?xml version="1.0" encoding="UTF-8" standalone="no"?>
<!DOCTYPE svg PUBLIC "-//W3C//DTD SVG 1.1//EN"
 "http://www.w3.org/Graphics/SVG/1.1/DTD/svg11.dtd">
<!-- Generated by graphviz version 2.43.0 (0)
 -->
<!-- Title: es.alrodmue.model.players.PowerForwardPlayer Pages: 1 -->
<svg width="443pt" height="712pt"
 viewBox="0.00 0.00 442.50 712.00" xmlns="http://www.w3.org/2000/svg" xmlns:xlink="http://www.w3.org/1999/xlink">
<g id="graph0" class="graph" transform="scale(1 1) rotate(0) translate(4 708)">
<title>es.alrodmue.model.players.PowerForwardPlayer</title>
<!-- Node1 -->
<g id="Node000001" class="node">
<title>Node1</title>
<g id="a_Node000001"><a xlink:title=" ">
<polygon fill="#999999" stroke="transparent" points="222,-90 75,-90 75,0 222,0 222,-90"/>
<text text-anchor="start" x="80.5" y="-78" font-family="Helvetica,sans-Serif" font-size="10.00">es.alrodmue.model.players.</text>
<text text-anchor="start" x="99" y="-67" font-family="Helvetica,sans-Serif" font-size="10.00">PowerForwardPlayer</text>
<text text-anchor="start" x="147" y="-52" font-family="Helvetica,sans-Serif" font-size="10.00"> </text>
<text text-anchor="start" x="84" y="-37" font-family="Helvetica,sans-Serif" font-size="10.00">+</text>
<text text-anchor="start" x="101.5" y="-37" font-family="Helvetica,sans-Serif" font-size="10.00">PowerForwardPlayer()</text>
<text text-anchor="start" x="84" y="-22" font-family="Helvetica,sans-Serif" font-size="10.00">+</text>
<text text-anchor="start" x="101.5" y="-22" font-family="Helvetica,sans-Serif" font-size="10.00">PowerForwardPlayer()</text>
<text text-anchor="start" x="84" y="-7" font-family="Helvetica,sans-Serif" font-size="10.00">+</text>
<text text-anchor="start" x="101.5" y="-7" font-family="Helvetica,sans-Serif" font-size="10.00">getType()</text>
<polygon fill="#666666" stroke="#666666" points="75.5,-62 75.5,-62 222.5,-62 222.5,-62 75.5,-62"/>
<polygon fill="#666666" stroke="#666666" points="75.5,-47 75.5,-47 222.5,-47 222.5,-47 75.5,-47"/>
<polygon fill="none" stroke="#666666" points="75,0 75,-90 222,-90 222,0 75,0"/>
</a>
</g>
</g>
<!-- Node2 -->
<g id="Node000002" class="node">
<title>Node2</title>
<g id="a_Node000002"><a xlink:href="classes_1_1alrodmue_1_1model_1_1players_1_1Player.xhtml" target="_top" xlink:title=" ">
<polygon fill="white" stroke="transparent" points="222,-457 75,-457 75,-127 222,-127 222,-457"/>
<text text-anchor="start" x="80.5" y="-445" font-family="Helvetica,sans-Serif" font-size="10.00">es.alrodmue.model.players.</text>
<text text-anchor="start" x="133.5" y="-434" font-family="Helvetica,sans-Serif" font-size="10.00">Player</text>
<text text-anchor="start" x="147" y="-419" font-family="Helvetica,sans-Serif" font-size="10.00"> </text>
<text text-anchor="start" x="91" y="-404" font-family="Helvetica,sans-Serif" font-size="10.00">+</text>
<text text-anchor="start" x="115.5" y="-404" font-family="Helvetica,sans-Serif" font-size="10.00">Player()</text>
<text text-anchor="start" x="91" y="-389" font-family="Helvetica,sans-Serif" font-size="10.00">+</text>
<text text-anchor="start" x="115.5" y="-389" font-family="Helvetica,sans-Serif" font-size="10.00">Player()</text>
<text text-anchor="start" x="91" y="-374" font-family="Helvetica,sans-Serif" font-size="10.00">+</text>
<text text-anchor="start" x="115.5" y="-374" font-family="Helvetica,sans-Serif" font-size="10.00">addFoul()</text>
<text text-anchor="start" x="91" y="-359" font-family="Helvetica,sans-Serif" font-size="10.00">+</text>
<text text-anchor="start" x="115.5" y="-359" font-family="Helvetica,sans-Serif" font-size="10.00">addPoints()</text>
<text text-anchor="start" x="91" y="-344" font-family="Helvetica,sans-Serif" font-size="10.00">+</text>
<text text-anchor="start" x="115.5" y="-344" font-family="Helvetica,sans-Serif" font-size="10.00">getDetail()</text>
<text text-anchor="start" x="91" y="-329" font-family="Helvetica,sans-Serif" font-size="10.00">+</text>
<text text-anchor="start" x="115.5" y="-329" font-family="Helvetica,sans-Serif" font-size="10.00">getFouls()</text>
<text text-anchor="start" x="91" y="-314" font-family="Helvetica,sans-Serif" font-size="10.00">+</text>
<text text-anchor="start" x="115.5" y="-314" font-family="Helvetica,sans-Serif" font-size="10.00">getHeight()</text>
<text text-anchor="start" x="91" y="-299" font-family="Helvetica,sans-Serif" font-size="10.00">+</text>
<text text-anchor="start" x="115.5" y="-299" font-family="Helvetica,sans-Serif" font-size="10.00">getName()</text>
<text text-anchor="start" x="91" y="-284" font-family="Helvetica,sans-Serif" font-size="10.00">+</text>
<text text-anchor="start" x="115.5" y="-284" font-family="Helvetica,sans-Serif" font-size="10.00">getNumber()</text>
<text text-anchor="start" x="91" y="-269" font-family="Helvetica,sans-Serif" font-size="10.00">+</text>
<text text-anchor="start" x="115.5" y="-269" font-family="Helvetica,sans-Serif" font-size="10.00">getPoints()</text>
<text text-anchor="start" x="91" y="-254" font-family="Helvetica,sans-Serif" font-size="10.00">+</text>
<text text-anchor="start" x="115.5" y="-254" font-family="Helvetica,sans-Serif" font-size="10.00">getSkill()</text>
<text text-anchor="start" x="91" y="-239" font-family="Helvetica,sans-Serif" font-size="10.00">+</text>
<text text-anchor="start" x="115.5" y="-239" font-family="Helvetica,sans-Serif" font-size="10.00">getType()</text>
<text text-anchor="start" x="91" y="-224" font-family="Helvetica,sans-Serif" font-size="10.00">+</text>
<text text-anchor="start" x="115.5" y="-224" font-family="Helvetica,sans-Serif" font-size="10.00">toString()</text>
<text text-anchor="start" x="91" y="-209" font-family="Helvetica,sans-Serif" font-size="10.00">+</text>
<text text-anchor="start" x="115.5" y="-209" font-family="Helvetica,sans-Serif" font-size="10.00">arePointsValid()</text>
<text text-anchor="start" x="91" y="-194" font-family="Helvetica,sans-Serif" font-size="10.00">+</text>
<text text-anchor="start" x="115.5" y="-194" font-family="Helvetica,sans-Serif" font-size="10.00">isFoulValid()</text>
<text text-anchor="start" x="91" y="-179" font-family="Helvetica,sans-Serif" font-size="10.00">+</text>
<text text-anchor="start" x="115.5" y="-179" font-family="Helvetica,sans-Serif" font-size="10.00">isHeightValid()</text>
<text text-anchor="start" x="91" y="-164" font-family="Helvetica,sans-Serif" font-size="10.00">+</text>
<text text-anchor="start" x="115.5" y="-164" font-family="Helvetica,sans-Serif" font-size="10.00">isNameValid()</text>
<text text-anchor="start" x="91" y="-149" font-family="Helvetica,sans-Serif" font-size="10.00">+</text>
<text text-anchor="start" x="115.5" y="-149" font-family="Helvetica,sans-Serif" font-size="10.00">isNumberValid()</text>
<text text-anchor="start" x="91" y="-134" font-family="Helvetica,sans-Serif" font-size="10.00">+</text>
<text text-anchor="start" x="115.5" y="-134" font-family="Helvetica,sans-Serif" font-size="10.00">isSkillValid()</text>
<polygon fill="#666666" stroke="#666666" points="75.5,-429 75.5,-429 222.5,-429 222.5,-429 75.5,-429"/>
<polygon fill="#666666" stroke="#666666" points="75.5,-414 75.5,-414 222.5,-414 222.5,-414 75.5,-414"/>
<polygon fill="none" stroke="#666666" points="75,-127 75,-457 222,-457 222,-127 75,-127"/>
</a>
</g>
</g>
<!-- Node2&#45;&gt;Node1 -->
<g id="edge1_Node000001_Node000002" class="edge">
<title>Node2&#45;&gt;Node1</title>
<g id="a_edge1_Node000001_Node000002"><a xlink:title=" ">
<path fill="none" stroke="#63b8ff" d="M148.5,-116.81C148.5,-107.3 148.5,-98.29 148.5,-90.09"/>
<polygon fill="none" stroke="#63b8ff" points="145,-116.9 148.5,-126.9 152,-116.9 145,-116.9"/>
</a>
</g>
</g>
<!-- Node3 -->
<g id="Node000003" class="node">
<title>Node3</title>
<g id="a_Node000003"><a xlink:title=" ">
<polygon fill="white" stroke="transparent" points="53,-591.5 0,-591.5 0,-542.5 53,-542.5 53,-591.5"/>
<text text-anchor="start" x="5.5" y="-579" font-family="Helvetica,sans-Serif" font-size="10.00">static int</text>
<text text-anchor="start" x="25" y="-564" font-family="Helvetica,sans-Serif" font-size="10.00"> </text>
<text text-anchor="start" x="25" y="-549" font-family="Helvetica,sans-Serif" font-size="10.00"> </text>
<polygon fill="#666666" stroke="#666666" points="0.5,-574 0.5,-574 53.5,-574 53.5,-574 0.5,-574"/>
<polygon fill="#666666" stroke="#666666" points="0.5,-559 0.5,-559 53.5,-559 53.5,-559 0.5,-559"/>
<polygon fill="none" stroke="#666666" points="0,-542.5 0,-591.5 53,-591.5 53,-542.5 0,-542.5"/>
</a>
</g>
</g>
<!-- Node3&#45;&gt;Node2 -->
<g id="edge2_Node000002_Node000003" class="edge">
<title>Node3&#45;&gt;Node2</title>
<g id="a_edge2_Node000002_Node000003"><a xlink:title=" ">
<path fill="none" stroke="#63b8ff" d="M29.06,-542.24C31.58,-523.53 36.28,-497.03 44.5,-475 51.33,-456.7 59.87,-438.08 69.09,-420.07"/>
<polygon fill="none" stroke="#63b8ff" points="69.19,-419.88 68.43,-412.71 74.76,-409.24 75.52,-416.42 69.19,-419.88"/>
</a>
</g>
<text text-anchor="middle" x="78.5" y="-494.5" font-family="Helvetica,sans-Serif" font-size="10.00" fill="grey"> &#45;nextNumber</text>
</g>
<!-- Node4 -->
<g id="Node000004" class="node">
<title>Node4</title>
<g id="a_Node000004"><a xlink:title=" ">
<polygon fill="white" stroke="transparent" points="137,-591.5 98,-591.5 98,-542.5 137,-542.5 137,-591.5"/>
<text text-anchor="start" x="103.5" y="-579" font-family="Helvetica,sans-Serif" font-size="10.00">String</text>
<text text-anchor="start" x="116" y="-564" font-family="Helvetica,sans-Serif" font-size="10.00"> </text>
<text text-anchor="start" x="116" y="-549" font-family="Helvetica,sans-Serif" font-size="10.00"> </text>
<polygon fill="#666666" stroke="#666666" points="98.5,-574 98.5,-574 137.5,-574 137.5,-574 98.5,-574"/>
<polygon fill="#666666" stroke="#666666" points="98.5,-559 98.5,-559 137.5,-559 137.5,-559 98.5,-559"/>
<polygon fill="none" stroke="#666666" points="98,-542.5 98,-591.5 137,-591.5 137,-542.5 98,-542.5"/>
</a>
</g>
</g>
<!-- Node4&#45;&gt;Node2 -->
<g id="edge3_Node000002_Node000004" class="edge">
<title>Node4&#45;&gt;Node2</title>
<g id="a_edge3_Node000002_Node000004"><a xlink:title=" ">
<path fill="none" stroke="#63b8ff" d="M116.78,-542.38C116.45,-523.99 116.51,-497.82 118.5,-475 118.67,-473.06 118.85,-471.12 119.03,-469.16"/>
<polygon fill="none" stroke="#63b8ff" points="119.05,-468.98 115.69,-462.61 120.28,-457.05 123.64,-463.42 119.05,-468.98"/>
</a>
</g>
<text text-anchor="middle" x="138.5" y="-494.5" font-family="Helvetica,sans-Serif" font-size="10.00" fill="grey"> #name</text>
</g>
<!-- Node5 -->
<g id="Node000005" class="node">
<title>Node5</title>
<g id="a_Node000005"><a xlink:title=" ">
<polygon fill="white" stroke="transparent" points="192,-591.5 169,-591.5 169,-542.5 192,-542.5 192,-591.5"/>
<text text-anchor="start" x="174.5" y="-579" font-family="Helvetica,sans-Serif" font-size="10.00">int</text>
<text text-anchor="start" x="179" y="-564" font-family="Helvetica,sans-Serif" font-size="10.00"> </text>
<text text-anchor="start" x="179" y="-549" font-family="Helvetica,sans-Serif" font-size="10.00"> </text>
<polygon fill="#666666" stroke="#666666" points="169.5,-574 169.5,-574 192.5,-574 192.5,-574 169.5,-574"/>
<polygon fill="#666666" stroke="#666666" points="169.5,-559 169.5,-559 192.5,-559 192.5,-559 169.5,-559"/>
<polygon fill="none" stroke="#666666" points="169,-542.5 169,-591.5 192,-591.5 192,-542.5 169,-542.5"/>
</a>
</g>
</g>
<!-- Node5&#45;&gt;Node2 -->
<g id="edge4_Node000002_Node000005" class="edge">
<title>Node5&#45;&gt;Node2</title>
<g id="a_edge4_Node000002_Node000005"><a xlink:title=" ">
<path fill="none" stroke="#63b8ff" d="M177.72,-542.25C175.62,-524.41 172.55,-498.16 169.17,-469.32"/>
<polygon fill="none" stroke="#63b8ff" points="169.15,-469.18 164.48,-463.69 167.75,-457.26 172.43,-462.75 169.15,-469.18"/>
</a>
</g>
<text text-anchor="middle" x="196.5" y="-511" font-family="Helvetica,sans-Serif" font-size="10.00" fill="grey"> #height</text>
<text text-anchor="middle" x="196.5" y="-500" font-family="Helvetica,sans-Serif" font-size="10.00" fill="grey">#number</text>
<text text-anchor="middle" x="196.5" y="-489" font-family="Helvetica,sans-Serif" font-size="10.00" fill="grey">#points</text>
<text text-anchor="middle" x="196.5" y="-478" font-family="Helvetica,sans-Serif" font-size="10.00" fill="grey">#skill</text>
</g>
<!-- Node6 -->
<g id="Node000006" class="node">
<title>Node6</title>
<g id="a_Node000006"><a xlink:title=" ">
<polygon fill="white" stroke="transparent" points="429,-597 210,-597 210,-537 429,-537 429,-597"/>
<text text-anchor="start" x="215.5" y="-585" font-family="Helvetica,sans-Serif" font-size="10.00">ObservableList&lt; es.alrodmue.model.fouls.</text>
<text text-anchor="start" x="304" y="-574" font-family="Helvetica,sans-Serif" font-size="10.00">Foul &gt;</text>
<text text-anchor="start" x="318" y="-559" font-family="Helvetica,sans-Serif" font-size="10.00"> </text>
<text text-anchor="start" x="318" y="-544" font-family="Helvetica,sans-Serif" font-size="10.00"> </text>
<polygon fill="#666666" stroke="#666666" points="210.5,-569 210.5,-569 429.5,-569 429.5,-569 210.5,-569"/>
<polygon fill="#666666" stroke="#666666" points="210.5,-554 210.5,-554 429.5,-554 429.5,-554 210.5,-554"/>
<polygon fill="none" stroke="#666666" points="210,-537 210,-597 429,-597 429,-537 210,-537"/>
</a>
</g>
</g>
<!-- Node6&#45;&gt;Node2 -->
<g id="edge5_Node000002_Node000006" class="edge">
<title>Node6&#45;&gt;Node2</title>
<g id="a_edge5_Node000002_Node000006"><a xlink:title=" ">
<path fill="none" stroke="#63b8ff" d="M301.2,-536.78C283.61,-508.71 255.78,-464.26 228.66,-420.97"/>
<polygon fill="none" stroke="#63b8ff" points="228.53,-420.76 221.95,-417.8 222.16,-410.59 228.73,-413.55 228.53,-420.76"/>
</a>
</g>
<text text-anchor="middle" x="304.5" y="-494.5" font-family="Helvetica,sans-Serif" font-size="10.00" fill="grey"> #fouls</text>
</g>
<!-- Node7 -->
<g id="Node000007" class="node">
<title>Node7</title>
<g id="a_Node000007"><a xlink:title=" ">
<polygon fill="white" stroke="transparent" points="361,-704 278,-704 278,-655 361,-655 361,-704"/>
<text text-anchor="start" x="283.5" y="-691.5" font-family="Helvetica,sans-Serif" font-size="10.00">ObservableList</text>
<text text-anchor="start" x="318" y="-676.5" font-family="Helvetica,sans-Serif" font-size="10.00"> </text>
<text text-anchor="start" x="318" y="-661.5" font-family="Helvetica,sans-Serif" font-size="10.00"> </text>
<polygon fill="#666666" stroke="#666666" points="278.5,-686.5 278.5,-686.5 361.5,-686.5 361.5,-686.5 278.5,-686.5"/>
<polygon fill="#666666" stroke="#666666" points="278.5,-671.5 278.5,-671.5 361.5,-671.5 361.5,-671.5 278.5,-671.5"/>
<polygon fill="none" stroke="#666666" points="278,-655 278,-704 361,-704 361,-655 278,-655"/>
</a>
</g>
</g>
<!-- Node7&#45;&gt;Node6 -->
<g id="edge6_Node000006_Node000007" class="edge">
<title>Node7&#45;&gt;Node6</title>
<g id="a_edge6_Node000006_Node000007"><a xlink:title=" ">
<path fill="none" stroke="orange" d="M319.5,-644.75C319.5,-629.56 319.5,-611.79 319.5,-597.17"/>
<polygon fill="orange" stroke="orange" points="316,-644.79 319.5,-654.79 323,-644.8 316,-644.79"/>
</a>
</g>
<text text-anchor="start" x="319.5" y="-629" font-family="Helvetica,sans-Serif" font-size="10.00" fill="grey"> &lt; es::alrodmue::model</text>
<text text-anchor="middle" x="377" y="-618" font-family="Helvetica,sans-Serif" font-size="10.00" fill="grey">::fouls::Foul &gt;</text>
</g>
</g>
</svg>
