<?xml version="1.0" encoding="UTF-8" standalone="no"?>
<!DOCTYPE svg PUBLIC "-//W3C//DTD SVG 1.1//EN"
 "http://www.w3.org/Graphics/SVG/1.1/DTD/svg11.dtd">
<!-- Generated by graphviz version 2.43.0 (0)
 -->
<!-- Title: es.alrodmue.model.matches.Match.getDetails Pages: 1 -->
<svg width="362pt" height="86pt"
 viewBox="0.00 0.00 362.00 86.00" xmlns="http://www.w3.org/2000/svg" xmlns:xlink="http://www.w3.org/1999/xlink">
<g id="graph0" class="graph" transform="scale(1 1) rotate(0) translate(4 82)">
<title>es.alrodmue.model.matches.Match.getDetails</title>
<!-- Node1 -->
<g id="Node000001" class="node">
<title>Node1</title>
<g id="a_Node000001"><a xlink:title=" ">
<polygon fill="#999999" stroke="#666666" points="159,-54 0,-54 0,-24 159,-24 159,-54"/>
<text text-anchor="start" x="8" y="-42" font-family="Helvetica,sans-Serif" font-size="10.00">es.alrodmue.model.matches.</text>
<text text-anchor="middle" x="79.5" y="-31" font-family="Helvetica,sans-Serif" font-size="10.00">Match.getDetails</text>
</a>
</g>
</g>
<!-- Node2 -->
<g id="Node000002" class="node">
<title>Node2</title>
<g id="a_Node000002"><a xlink:href="classes_1_1alrodmue_1_1model_1_1matches_1_1Match.xhtml#a18447422867e3fb9ac09a71c706db81f" target="_top" xlink:title=" ">
<polygon fill="white" stroke="#666666" points="354,-78 195,-78 195,-48 354,-48 354,-78"/>
<text text-anchor="start" x="203" y="-66" font-family="Helvetica,sans-Serif" font-size="10.00">es.alrodmue.model.matches.</text>
<text text-anchor="middle" x="274.5" y="-55" font-family="Helvetica,sans-Serif" font-size="10.00">Match.getType</text>
</a>
</g>
</g>
<!-- Node1&#45;&gt;Node2 -->
<g id="edge1_Node000001_Node000002" class="edge">
<title>Node1&#45;&gt;Node2</title>
<g id="a_edge1_Node000001_Node000002"><a xlink:title=" ">
<path fill="none" stroke="#63b8ff" d="M159,-48.76C167.48,-49.82 176.14,-50.89 184.73,-51.96"/>
<polygon fill="#63b8ff" stroke="#63b8ff" points="184.4,-55.45 194.76,-53.21 185.26,-48.5 184.4,-55.45"/>
</a>
</g>
</g>
<!-- Node3 -->
<g id="Node000003" class="node">
<title>Node3</title>
<g id="a_Node000003"><a xlink:href="classes_1_1alrodmue_1_1model_1_1matches_1_1Match.xhtml#af6551913e09c3ce7c8c7d705a75ffdb0" target="_top" xlink:title=" ">
<polygon fill="white" stroke="#666666" points="354,-30 195,-30 195,0 354,0 354,-30"/>
<text text-anchor="start" x="203" y="-18" font-family="Helvetica,sans-Serif" font-size="10.00">es.alrodmue.model.matches.</text>
<text text-anchor="middle" x="274.5" y="-7" font-family="Helvetica,sans-Serif" font-size="10.00">Match.getWinner</text>
</a>
</g>
</g>
<!-- Node1&#45;&gt;Node3 -->
<g id="edge2_Node000001_Node000003" class="edge">
<title>Node1&#45;&gt;Node3</title>
<g id="a_edge2_Node000001_Node000003"><a xlink:title=" ">
<path fill="none" stroke="#63b8ff" d="M159,-29.24C167.48,-28.18 176.14,-27.11 184.73,-26.04"/>
<polygon fill="#63b8ff" stroke="#63b8ff" points="185.26,-29.5 194.76,-24.79 184.4,-22.55 185.26,-29.5"/>
</a>
</g>
</g>
</g>
</svg>
