<?xml version="1.0" encoding="UTF-8" standalone="no"?>
<!DOCTYPE svg PUBLIC "-//W3C//DTD SVG 1.1//EN"
 "http://www.w3.org/Graphics/SVG/1.1/DTD/svg11.dtd">
<!-- Generated by graphviz version 2.43.0 (0)
 -->
<!-- Title: es.alrodmue.controller.PlayerController.removePlayer Pages: 1 -->
<svg width="591pt" height="182pt"
 viewBox="0.00 0.00 591.00 182.00" xmlns="http://www.w3.org/2000/svg" xmlns:xlink="http://www.w3.org/1999/xlink">
<g id="graph0" class="graph" transform="scale(1 1) rotate(0) translate(4 178)">
<title>es.alrodmue.controller.PlayerController.removePlayer</title>
<!-- Node1 -->
<g id="Node000001" class="node">
<title>Node1</title>
<g id="a_Node000001"><a xlink:title=" ">
<polygon fill="#999999" stroke="#666666" points="160,-102 0,-102 0,-72 160,-72 160,-102"/>
<text text-anchor="start" x="8" y="-90" font-family="Helvetica,sans-Serif" font-size="10.00">es.alrodmue.controller.Player</text>
<text text-anchor="middle" x="80" y="-79" font-family="Helvetica,sans-Serif" font-size="10.00">Controller.removePlayer</text>
</a>
</g>
</g>
<!-- Node2 -->
<g id="Node000002" class="node">
<title>Node2</title>
<g id="a_Node000002"><a xlink:href="classes_1_1alrodmue_1_1model_1_1Team.xhtml#a7301e45c0f5b85a4d03cd04e758cd97d" target="_top" xlink:title=" ">
<polygon fill="white" stroke="#666666" points="366,-174 207,-174 207,-144 366,-144 366,-174"/>
<text text-anchor="start" x="215" y="-162" font-family="Helvetica,sans-Serif" font-size="10.00">es.alrodmue.model.Team.get</text>
<text text-anchor="middle" x="286.5" y="-151" font-family="Helvetica,sans-Serif" font-size="10.00">Instance</text>
</a>
</g>
</g>
<!-- Node1&#45;&gt;Node2 -->
<g id="edge1_Node000001_Node000002" class="edge">
<title>Node1&#45;&gt;Node2</title>
<g id="a_edge1_Node000001_Node000002"><a xlink:title=" ">
<path fill="none" stroke="#63b8ff" d="M113.76,-102.05C136.53,-112.17 167.74,-125.36 196,-135 202.24,-137.13 208.78,-139.19 215.35,-141.15"/>
<polygon fill="#63b8ff" stroke="#63b8ff" points="214.41,-144.52 224.99,-143.95 216.36,-137.8 214.41,-144.52"/>
</a>
</g>
</g>
<!-- Node4 -->
<g id="Node000004" class="node">
<title>Node4</title>
<g id="a_Node000004"><a xlink:href="classes_1_1alrodmue_1_1model_1_1players_1_1Player.xhtml#add7d96cf65fc35a5ec28104aee9b9359" target="_top" xlink:title=" ">
<polygon fill="white" stroke="#666666" points="363,-126 210,-126 210,-96 363,-96 363,-126"/>
<text text-anchor="start" x="218" y="-114" font-family="Helvetica,sans-Serif" font-size="10.00">es.alrodmue.model.players.</text>
<text text-anchor="middle" x="286.5" y="-103" font-family="Helvetica,sans-Serif" font-size="10.00">Player.getName</text>
</a>
</g>
</g>
<!-- Node1&#45;&gt;Node4 -->
<g id="edge3_Node000001_Node000004" class="edge">
<title>Node1&#45;&gt;Node4</title>
<g id="a_edge3_Node000001_Node000004"><a xlink:title=" ">
<path fill="none" stroke="#63b8ff" d="M160.07,-96.28C173.05,-97.8 186.57,-99.39 199.71,-100.93"/>
<polygon fill="#63b8ff" stroke="#63b8ff" points="199.33,-104.41 209.67,-102.1 200.14,-97.46 199.33,-104.41"/>
</a>
</g>
</g>
<!-- Node5 -->
<g id="Node000005" class="node">
<title>Node5</title>
<g id="a_Node000005"><a xlink:href="classes_1_1alrodmue_1_1model_1_1Team.xhtml#a07cdbdb56935602cc8afd08649809dd5" target="_top" xlink:title=" ">
<polygon fill="white" stroke="#666666" points="377,-78 196,-78 196,-48 377,-48 377,-78"/>
<text text-anchor="start" x="204" y="-66" font-family="Helvetica,sans-Serif" font-size="10.00">es.alrodmue.model.Team.remove</text>
<text text-anchor="middle" x="286.5" y="-55" font-family="Helvetica,sans-Serif" font-size="10.00">Player</text>
</a>
</g>
</g>
<!-- Node1&#45;&gt;Node5 -->
<g id="edge4_Node000001_Node000005" class="edge">
<title>Node1&#45;&gt;Node5</title>
<g id="a_edge4_Node000001_Node000005"><a xlink:title=" ">
<path fill="none" stroke="#63b8ff" d="M160.07,-77.72C168.47,-76.73 177.09,-75.72 185.69,-74.71"/>
<polygon fill="#63b8ff" stroke="#63b8ff" points="186.23,-78.17 195.76,-73.53 185.42,-71.22 186.23,-78.17"/>
</a>
</g>
</g>
<!-- Node6 -->
<g id="Node000006" class="node">
<title>Node6</title>
<g id="a_Node000006"><a xlink:href="classes_1_1alrodmue_1_1controller_1_1PlayerController.xhtml#a0d848334f324bc73821814c8e7705551" target="_top" xlink:title=" ">
<polygon fill="white" stroke="#666666" points="366.5,-30 206.5,-30 206.5,0 366.5,0 366.5,-30"/>
<text text-anchor="start" x="214.5" y="-18" font-family="Helvetica,sans-Serif" font-size="10.00">es.alrodmue.controller.Player</text>
<text text-anchor="middle" x="286.5" y="-7" font-family="Helvetica,sans-Serif" font-size="10.00">Controller.showInfo</text>
</a>
</g>
</g>
<!-- Node1&#45;&gt;Node6 -->
<g id="edge5_Node000001_Node000006" class="edge">
<title>Node1&#45;&gt;Node6</title>
<g id="a_edge5_Node000001_Node000006"><a xlink:title=" ">
<path fill="none" stroke="#63b8ff" d="M113.76,-71.95C136.53,-61.83 167.74,-48.64 196,-39 202.24,-36.87 208.78,-34.81 215.35,-32.85"/>
<polygon fill="#63b8ff" stroke="#63b8ff" points="216.36,-36.2 224.99,-30.05 214.41,-29.48 216.36,-36.2"/>
</a>
</g>
</g>
<!-- Node3 -->
<g id="Node000003" class="node">
<title>Node3</title>
<g id="a_Node000003"><a xlink:href="classes_1_1alrodmue_1_1model_1_1Team.xhtml#ae04883a5648158af96bd5f695f924359" target="_top" xlink:title=" ">
<polygon fill="white" stroke="#666666" points="583,-168.5 413,-168.5 413,-149.5 583,-149.5 583,-168.5"/>
<text text-anchor="middle" x="498" y="-156.5" font-family="Helvetica,sans-Serif" font-size="10.00">es.alrodmue.model.Team.Team</text>
</a>
</g>
</g>
<!-- Node2&#45;&gt;Node3 -->
<g id="edge2_Node000002_Node000003" class="edge">
<title>Node2&#45;&gt;Node3</title>
<g id="a_edge2_Node000002_Node000003"><a xlink:title=" ">
<path fill="none" stroke="#63b8ff" d="M366.11,-159C377.99,-159 390.35,-159 402.53,-159"/>
<polygon fill="#63b8ff" stroke="#63b8ff" points="402.7,-162.5 412.7,-159 402.7,-155.5 402.7,-162.5"/>
</a>
</g>
</g>
</g>
</svg>
