<?xml version="1.0" encoding="UTF-8" standalone="no"?>
<!DOCTYPE svg PUBLIC "-//W3C//DTD SVG 1.1//EN"
 "http://www.w3.org/Graphics/SVG/1.1/DTD/svg11.dtd">
<!-- Generated by graphviz version 2.43.0 (0)
 -->
<!-- Title: es.alrodmue.model.factories.MatchFactory.MatchFactory Pages: 1 -->
<svg width="787pt" height="38pt"
 viewBox="0.00 0.00 787.00 38.00" xmlns="http://www.w3.org/2000/svg" xmlns:xlink="http://www.w3.org/1999/xlink">
<g id="graph0" class="graph" transform="scale(1 1) rotate(0) translate(4 34)">
<title>es.alrodmue.model.factories.MatchFactory.MatchFactory</title>
<!-- Node1 -->
<g id="Node000001" class="node">
<title>Node1</title>
<g id="a_Node000001"><a xlink:title=" ">
<polygon fill="#999999" stroke="#666666" points="779,-30 619,-30 619,0 779,0 779,-30"/>
<text text-anchor="start" x="627" y="-18" font-family="Helvetica,sans-Serif" font-size="10.00">es.alrodmue.model.factories.</text>
<text text-anchor="middle" x="699" y="-7" font-family="Helvetica,sans-Serif" font-size="10.00">MatchFactory.MatchFactory</text>
</a>
</g>
</g>
<!-- Node2 -->
<g id="Node000002" class="node">
<title>Node2</title>
<g id="a_Node000002"><a xlink:href="classes_1_1alrodmue_1_1model_1_1factories_1_1MatchFactory.xhtml#a25e27ed717f6b139a6d960f9dd57c9bd" target="_top" xlink:title=" ">
<polygon fill="white" stroke="#666666" points="583,-30 423,-30 423,0 583,0 583,-30"/>
<text text-anchor="start" x="431" y="-18" font-family="Helvetica,sans-Serif" font-size="10.00">es.alrodmue.model.factories.</text>
<text text-anchor="middle" x="503" y="-7" font-family="Helvetica,sans-Serif" font-size="10.00">MatchFactory.getInstance</text>
</a>
</g>
</g>
<!-- Node1&#45;&gt;Node2 -->
<g id="edge1_Node000001_Node000002" class="edge">
<title>Node1&#45;&gt;Node2</title>
<g id="a_edge1_Node000001_Node000002"><a xlink:title=" ">
<path fill="none" stroke="#63b8ff" d="M608.56,-15C600.12,-15 591.59,-15 583.25,-15"/>
<polygon fill="#63b8ff" stroke="#63b8ff" points="608.81,-18.5 618.81,-15 608.81,-11.5 608.81,-18.5"/>
</a>
</g>
</g>
<!-- Node3 -->
<g id="Node000003" class="node">
<title>Node3</title>
<g id="a_Node000003"><a xlink:href="classes_1_1alrodmue_1_1controller_1_1MatchController.xhtml#a42b9493f74fbd7a9a545daceae923762" target="_top" xlink:title=" ">
<polygon fill="white" stroke="#666666" points="387,-30 228,-30 228,0 387,0 387,-30"/>
<text text-anchor="start" x="236" y="-18" font-family="Helvetica,sans-Serif" font-size="10.00">es.alrodmue.controller.Match</text>
<text text-anchor="middle" x="307.5" y="-7" font-family="Helvetica,sans-Serif" font-size="10.00">Controller.playMatch</text>
</a>
</g>
</g>
<!-- Node2&#45;&gt;Node3 -->
<g id="edge2_Node000002_Node000003" class="edge">
<title>Node2&#45;&gt;Node3</title>
<g id="a_edge2_Node000002_Node000003"><a xlink:title=" ">
<path fill="none" stroke="#63b8ff" d="M412.72,-15C404.14,-15 395.48,-15 387.01,-15"/>
<polygon fill="#63b8ff" stroke="#63b8ff" points="412.74,-18.5 422.74,-15 412.74,-11.5 412.74,-18.5"/>
</a>
</g>
</g>
<!-- Node4 -->
<g id="Node000004" class="node">
<title>Node4</title>
<g id="a_Node000004"><a xlink:href="classes_1_1alrodmue_1_1view_1_1AddMatchViewController.xhtml#af484d8fbe31480a95c9d300985fce32c" target="_top" xlink:title=" ">
<polygon fill="white" stroke="#666666" points="192,-30 0,-30 0,0 192,0 192,-30"/>
<text text-anchor="start" x="8" y="-18" font-family="Helvetica,sans-Serif" font-size="10.00">es.alrodmue.view.AddMatch</text>
<text text-anchor="middle" x="96" y="-7" font-family="Helvetica,sans-Serif" font-size="10.00">ViewController.onAcceptButtonClick</text>
</a>
</g>
</g>
<!-- Node3&#45;&gt;Node4 -->
<g id="edge3_Node000003_Node000004" class="edge">
<title>Node3&#45;&gt;Node4</title>
<g id="a_edge3_Node000003_Node000004"><a xlink:title=" ">
<path fill="none" stroke="#63b8ff" d="M217.73,-15C209.32,-15 200.77,-15 192.31,-15"/>
<polygon fill="#63b8ff" stroke="#63b8ff" points="217.89,-18.5 227.89,-15 217.89,-11.5 217.89,-18.5"/>
</a>
</g>
</g>
</g>
</svg>
