<?xml version="1.0" encoding="UTF-8" standalone="no"?>
<!DOCTYPE svg PUBLIC "-//W3C//DTD SVG 1.1//EN"
 "http://www.w3.org/Graphics/SVG/1.1/DTD/svg11.dtd">
<!-- Generated by graphviz version 2.43.0 (0)
 -->
<!-- Title: es.alrodmue.model.players.Player Pages: 1 -->
<svg width="815pt" height="554pt"
 viewBox="0.00 0.00 815.00 554.00" xmlns="http://www.w3.org/2000/svg" xmlns:xlink="http://www.w3.org/1999/xlink">
<g id="graph0" class="graph" transform="scale(1 1) rotate(0) translate(4 550)">
<title>es.alrodmue.model.players.Player</title>
<!-- Node1 -->
<g id="Node000001" class="node">
<title>Node1</title>
<g id="a_Node000001"><a xlink:title=" ">
<polygon fill="#999999" stroke="transparent" points="477,-546 330,-546 330,-126 477,-126 477,-546"/>
<text text-anchor="start" x="335.5" y="-534" font-family="Helvetica,sans-Serif" font-size="10.00">es.alrodmue.model.players.</text>
<text text-anchor="start" x="388.5" y="-523" font-family="Helvetica,sans-Serif" font-size="10.00">Player</text>
<text text-anchor="start" x="346" y="-508" font-family="Helvetica,sans-Serif" font-size="10.00">#</text>
<text text-anchor="start" x="370.5" y="-508" font-family="Helvetica,sans-Serif" font-size="10.00">fouls</text>
<text text-anchor="start" x="346" y="-493" font-family="Helvetica,sans-Serif" font-size="10.00">#</text>
<text text-anchor="start" x="370.5" y="-493" font-family="Helvetica,sans-Serif" font-size="10.00">height</text>
<text text-anchor="start" x="346" y="-478" font-family="Helvetica,sans-Serif" font-size="10.00">#</text>
<text text-anchor="start" x="370.5" y="-478" font-family="Helvetica,sans-Serif" font-size="10.00">name</text>
<text text-anchor="start" x="346" y="-463" font-family="Helvetica,sans-Serif" font-size="10.00">#</text>
<text text-anchor="start" x="370.5" y="-463" font-family="Helvetica,sans-Serif" font-size="10.00">number</text>
<text text-anchor="start" x="346" y="-448" font-family="Helvetica,sans-Serif" font-size="10.00">#</text>
<text text-anchor="start" x="370.5" y="-448" font-family="Helvetica,sans-Serif" font-size="10.00">points</text>
<text text-anchor="start" x="346" y="-433" font-family="Helvetica,sans-Serif" font-size="10.00">#</text>
<text text-anchor="start" x="370.5" y="-433" font-family="Helvetica,sans-Serif" font-size="10.00">skill</text>
<text text-anchor="start" x="348.5" y="-418" font-family="Helvetica,sans-Serif" font-size="10.00">&#45;</text>
<text text-anchor="start" x="370.5" y="-418" font-family="Helvetica,sans-Serif" font-size="10.00">nextNumber</text>
<text text-anchor="start" x="346" y="-403" font-family="Helvetica,sans-Serif" font-size="10.00">+</text>
<text text-anchor="start" x="370.5" y="-403" font-family="Helvetica,sans-Serif" font-size="10.00">Player()</text>
<text text-anchor="start" x="346" y="-388" font-family="Helvetica,sans-Serif" font-size="10.00">+</text>
<text text-anchor="start" x="370.5" y="-388" font-family="Helvetica,sans-Serif" font-size="10.00">Player()</text>
<text text-anchor="start" x="346" y="-373" font-family="Helvetica,sans-Serif" font-size="10.00">+</text>
<text text-anchor="start" x="370.5" y="-373" font-family="Helvetica,sans-Serif" font-size="10.00">addFoul()</text>
<text text-anchor="start" x="346" y="-358" font-family="Helvetica,sans-Serif" font-size="10.00">+</text>
<text text-anchor="start" x="370.5" y="-358" font-family="Helvetica,sans-Serif" font-size="10.00">addPoints()</text>
<text text-anchor="start" x="346" y="-343" font-family="Helvetica,sans-Serif" font-size="10.00">+</text>
<text text-anchor="start" x="370.5" y="-343" font-family="Helvetica,sans-Serif" font-size="10.00">getDetail()</text>
<text text-anchor="start" x="346" y="-328" font-family="Helvetica,sans-Serif" font-size="10.00">+</text>
<text text-anchor="start" x="370.5" y="-328" font-family="Helvetica,sans-Serif" font-size="10.00">getFouls()</text>
<text text-anchor="start" x="346" y="-313" font-family="Helvetica,sans-Serif" font-size="10.00">+</text>
<text text-anchor="start" x="370.5" y="-313" font-family="Helvetica,sans-Serif" font-size="10.00">getHeight()</text>
<text text-anchor="start" x="346" y="-298" font-family="Helvetica,sans-Serif" font-size="10.00">+</text>
<text text-anchor="start" x="370.5" y="-298" font-family="Helvetica,sans-Serif" font-size="10.00">getName()</text>
<text text-anchor="start" x="346" y="-283" font-family="Helvetica,sans-Serif" font-size="10.00">+</text>
<text text-anchor="start" x="370.5" y="-283" font-family="Helvetica,sans-Serif" font-size="10.00">getNumber()</text>
<text text-anchor="start" x="346" y="-268" font-family="Helvetica,sans-Serif" font-size="10.00">+</text>
<text text-anchor="start" x="370.5" y="-268" font-family="Helvetica,sans-Serif" font-size="10.00">getPoints()</text>
<text text-anchor="start" x="346" y="-253" font-family="Helvetica,sans-Serif" font-size="10.00">+</text>
<text text-anchor="start" x="370.5" y="-253" font-family="Helvetica,sans-Serif" font-size="10.00">getSkill()</text>
<text text-anchor="start" x="346" y="-238" font-family="Helvetica,sans-Serif" font-size="10.00">+</text>
<text text-anchor="start" x="370.5" y="-238" font-family="Helvetica,sans-Serif" font-size="10.00">getType()</text>
<text text-anchor="start" x="346" y="-223" font-family="Helvetica,sans-Serif" font-size="10.00">+</text>
<text text-anchor="start" x="370.5" y="-223" font-family="Helvetica,sans-Serif" font-size="10.00">toString()</text>
<text text-anchor="start" x="346" y="-208" font-family="Helvetica,sans-Serif" font-size="10.00">+</text>
<text text-anchor="start" x="370.5" y="-208" font-family="Helvetica,sans-Serif" font-size="10.00">arePointsValid()</text>
<text text-anchor="start" x="346" y="-193" font-family="Helvetica,sans-Serif" font-size="10.00">+</text>
<text text-anchor="start" x="370.5" y="-193" font-family="Helvetica,sans-Serif" font-size="10.00">isFoulValid()</text>
<text text-anchor="start" x="346" y="-178" font-family="Helvetica,sans-Serif" font-size="10.00">+</text>
<text text-anchor="start" x="370.5" y="-178" font-family="Helvetica,sans-Serif" font-size="10.00">isHeightValid()</text>
<text text-anchor="start" x="346" y="-163" font-family="Helvetica,sans-Serif" font-size="10.00">+</text>
<text text-anchor="start" x="370.5" y="-163" font-family="Helvetica,sans-Serif" font-size="10.00">isNameValid()</text>
<text text-anchor="start" x="346" y="-148" font-family="Helvetica,sans-Serif" font-size="10.00">+</text>
<text text-anchor="start" x="370.5" y="-148" font-family="Helvetica,sans-Serif" font-size="10.00">isNumberValid()</text>
<text text-anchor="start" x="346" y="-133" font-family="Helvetica,sans-Serif" font-size="10.00">+</text>
<text text-anchor="start" x="370.5" y="-133" font-family="Helvetica,sans-Serif" font-size="10.00">isSkillValid()</text>
<polygon fill="#666666" stroke="#666666" points="330.5,-518 330.5,-518 477.5,-518 477.5,-518 330.5,-518"/>
<polygon fill="#666666" stroke="#666666" points="330.5,-413 330.5,-413 368.5,-413 368.5,-413 330.5,-413"/>
<polygon fill="#666666" stroke="#666666" points="368.5,-413 368.5,-413 477.5,-413 477.5,-413 368.5,-413"/>
<polygon fill="none" stroke="#666666" points="330,-126 330,-546 477,-546 477,-126 330,-126"/>
</a>
</g>
</g>
<!-- Node2 -->
<g id="Node000002" class="node">
<title>Node2</title>
<g id="a_Node000002"><a xlink:href="classes_1_1alrodmue_1_1model_1_1players_1_1CenterPlayer.xhtml" target="_top" xlink:title=" ">
<polygon fill="white" stroke="transparent" points="147,-90 0,-90 0,0 147,0 147,-90"/>
<text text-anchor="start" x="5.5" y="-78" font-family="Helvetica,sans-Serif" font-size="10.00">es.alrodmue.model.players.</text>
<text text-anchor="start" x="42" y="-67" font-family="Helvetica,sans-Serif" font-size="10.00">CenterPlayer</text>
<text text-anchor="start" x="72" y="-52" font-family="Helvetica,sans-Serif" font-size="10.00"> </text>
<text text-anchor="start" x="18" y="-37" font-family="Helvetica,sans-Serif" font-size="10.00">+</text>
<text text-anchor="start" x="44.5" y="-37" font-family="Helvetica,sans-Serif" font-size="10.00">CenterPlayer()</text>
<text text-anchor="start" x="18" y="-22" font-family="Helvetica,sans-Serif" font-size="10.00">+</text>
<text text-anchor="start" x="44.5" y="-22" font-family="Helvetica,sans-Serif" font-size="10.00">CenterPlayer()</text>
<text text-anchor="start" x="18" y="-7" font-family="Helvetica,sans-Serif" font-size="10.00">+</text>
<text text-anchor="start" x="44.5" y="-7" font-family="Helvetica,sans-Serif" font-size="10.00">getType()</text>
<polygon fill="#666666" stroke="#666666" points="0.5,-62 0.5,-62 147.5,-62 147.5,-62 0.5,-62"/>
<polygon fill="#666666" stroke="#666666" points="0.5,-47 0.5,-47 147.5,-47 147.5,-47 0.5,-47"/>
<polygon fill="none" stroke="#666666" points="0,0 0,-90 147,-90 147,0 0,0"/>
</a>
</g>
</g>
<!-- Node1&#45;&gt;Node2 -->
<g id="edge1_Node000001_Node000002" class="edge">
<title>Node1&#45;&gt;Node2</title>
<g id="a_edge1_Node000001_Node000002"><a xlink:title=" ">
<path fill="none" stroke="#63b8ff" d="M322.01,-263.64C259.97,-209.31 176.54,-136.24 123.89,-90.13"/>
<polygon fill="none" stroke="#63b8ff" points="320.02,-266.55 329.85,-270.5 324.64,-261.28 320.02,-266.55"/>
</a>
</g>
</g>
<!-- Node3 -->
<g id="Node000003" class="node">
<title>Node3</title>
<g id="a_Node000003"><a xlink:href="classes_1_1alrodmue_1_1model_1_1players_1_1PointGuardPlayer.xhtml" target="_top" xlink:title=" ">
<polygon fill="white" stroke="transparent" points="312,-90 165,-90 165,0 312,0 312,-90"/>
<text text-anchor="start" x="170.5" y="-78" font-family="Helvetica,sans-Serif" font-size="10.00">es.alrodmue.model.players.</text>
<text text-anchor="start" x="196.5" y="-67" font-family="Helvetica,sans-Serif" font-size="10.00">PointGuardPlayer</text>
<text text-anchor="start" x="237" y="-52" font-family="Helvetica,sans-Serif" font-size="10.00"> </text>
<text text-anchor="start" x="177.5" y="-37" font-family="Helvetica,sans-Serif" font-size="10.00">+</text>
<text text-anchor="start" x="198.5" y="-37" font-family="Helvetica,sans-Serif" font-size="10.00">PointGuardPlayer()</text>
<text text-anchor="start" x="177.5" y="-22" font-family="Helvetica,sans-Serif" font-size="10.00">+</text>
<text text-anchor="start" x="198.5" y="-22" font-family="Helvetica,sans-Serif" font-size="10.00">PointGuardPlayer()</text>
<text text-anchor="start" x="177.5" y="-7" font-family="Helvetica,sans-Serif" font-size="10.00">+</text>
<text text-anchor="start" x="198.5" y="-7" font-family="Helvetica,sans-Serif" font-size="10.00">getType()</text>
<polygon fill="#666666" stroke="#666666" points="165.5,-62 165.5,-62 312.5,-62 312.5,-62 165.5,-62"/>
<polygon fill="#666666" stroke="#666666" points="165.5,-47 165.5,-47 312.5,-47 312.5,-47 165.5,-47"/>
<polygon fill="none" stroke="#666666" points="165,0 165,-90 312,-90 312,0 165,0"/>
</a>
</g>
</g>
<!-- Node1&#45;&gt;Node3 -->
<g id="edge2_Node000001_Node000003" class="edge">
<title>Node1&#45;&gt;Node3</title>
<g id="a_edge2_Node000001_Node000003"><a xlink:title=" ">
<path fill="none" stroke="#63b8ff" d="M324.91,-197.35C302.77,-158.57 280.25,-119.12 263.75,-90.22"/>
<polygon fill="none" stroke="#63b8ff" points="321.93,-199.19 329.93,-206.14 328.01,-195.72 321.93,-199.19"/>
</a>
</g>
</g>
<!-- Node4 -->
<g id="Node000004" class="node">
<title>Node4</title>
<g id="a_Node000004"><a xlink:href="classes_1_1alrodmue_1_1model_1_1players_1_1PowerForwardPlayer.xhtml" target="_top" xlink:title=" ">
<polygon fill="white" stroke="transparent" points="477,-90 330,-90 330,0 477,0 477,-90"/>
<text text-anchor="start" x="335.5" y="-78" font-family="Helvetica,sans-Serif" font-size="10.00">es.alrodmue.model.players.</text>
<text text-anchor="start" x="354" y="-67" font-family="Helvetica,sans-Serif" font-size="10.00">PowerForwardPlayer</text>
<text text-anchor="start" x="402" y="-52" font-family="Helvetica,sans-Serif" font-size="10.00"> </text>
<text text-anchor="start" x="339" y="-37" font-family="Helvetica,sans-Serif" font-size="10.00">+</text>
<text text-anchor="start" x="356.5" y="-37" font-family="Helvetica,sans-Serif" font-size="10.00">PowerForwardPlayer()</text>
<text text-anchor="start" x="339" y="-22" font-family="Helvetica,sans-Serif" font-size="10.00">+</text>
<text text-anchor="start" x="356.5" y="-22" font-family="Helvetica,sans-Serif" font-size="10.00">PowerForwardPlayer()</text>
<text text-anchor="start" x="339" y="-7" font-family="Helvetica,sans-Serif" font-size="10.00">+</text>
<text text-anchor="start" x="356.5" y="-7" font-family="Helvetica,sans-Serif" font-size="10.00">getType()</text>
<polygon fill="#666666" stroke="#666666" points="330.5,-62 330.5,-62 477.5,-62 477.5,-62 330.5,-62"/>
<polygon fill="#666666" stroke="#666666" points="330.5,-47 330.5,-47 477.5,-47 477.5,-47 330.5,-47"/>
<polygon fill="none" stroke="#666666" points="330,0 330,-90 477,-90 477,0 330,0"/>
</a>
</g>
</g>
<!-- Node1&#45;&gt;Node4 -->
<g id="edge3_Node000001_Node000004" class="edge">
<title>Node1&#45;&gt;Node4</title>
<g id="a_edge3_Node000001_Node000004"><a xlink:title=" ">
<path fill="none" stroke="#63b8ff" d="M403.5,-115.66C403.5,-106.56 403.5,-98.01 403.5,-90.22"/>
<polygon fill="none" stroke="#63b8ff" points="400,-115.74 403.5,-125.74 407,-115.74 400,-115.74"/>
</a>
</g>
</g>
<!-- Node5 -->
<g id="Node000005" class="node">
<title>Node5</title>
<g id="a_Node000005"><a xlink:href="classes_1_1alrodmue_1_1model_1_1players_1_1ShootingGuardPlayer.xhtml" target="_top" xlink:title=" ">
<polygon fill="white" stroke="transparent" points="642,-90 495,-90 495,0 642,0 642,-90"/>
<text text-anchor="start" x="500.5" y="-78" font-family="Helvetica,sans-Serif" font-size="10.00">es.alrodmue.model.players.</text>
<text text-anchor="start" x="517.5" y="-67" font-family="Helvetica,sans-Serif" font-size="10.00">ShootingGuardPlayer</text>
<text text-anchor="start" x="567" y="-52" font-family="Helvetica,sans-Serif" font-size="10.00"> </text>
<text text-anchor="start" x="503" y="-37" font-family="Helvetica,sans-Serif" font-size="10.00">+</text>
<text text-anchor="start" x="519.5" y="-37" font-family="Helvetica,sans-Serif" font-size="10.00">ShootingGuardPlayer()</text>
<text text-anchor="start" x="503" y="-22" font-family="Helvetica,sans-Serif" font-size="10.00">+</text>
<text text-anchor="start" x="519.5" y="-22" font-family="Helvetica,sans-Serif" font-size="10.00">ShootingGuardPlayer()</text>
<text text-anchor="start" x="503" y="-7" font-family="Helvetica,sans-Serif" font-size="10.00">+</text>
<text text-anchor="start" x="519.5" y="-7" font-family="Helvetica,sans-Serif" font-size="10.00">getType()</text>
<polygon fill="#666666" stroke="#666666" points="495.5,-62 495.5,-62 642.5,-62 642.5,-62 495.5,-62"/>
<polygon fill="#666666" stroke="#666666" points="495.5,-47 495.5,-47 642.5,-47 642.5,-47 495.5,-47"/>
<polygon fill="none" stroke="#666666" points="495,0 495,-90 642,-90 642,0 495,0"/>
</a>
</g>
</g>
<!-- Node1&#45;&gt;Node5 -->
<g id="edge4_Node000001_Node000005" class="edge">
<title>Node1&#45;&gt;Node5</title>
<g id="a_edge4_Node000001_Node000005"><a xlink:title=" ">
<path fill="none" stroke="#63b8ff" d="M482.09,-197.35C504.23,-158.57 526.75,-119.12 543.25,-90.22"/>
<polygon fill="none" stroke="#63b8ff" points="478.99,-195.72 477.07,-206.14 485.07,-199.19 478.99,-195.72"/>
</a>
</g>
</g>
<!-- Node6 -->
<g id="Node000006" class="node">
<title>Node6</title>
<g id="a_Node000006"><a xlink:href="classes_1_1alrodmue_1_1model_1_1players_1_1SmallForwardPlayer.xhtml" target="_top" xlink:title=" ">
<polygon fill="white" stroke="transparent" points="807,-90 660,-90 660,0 807,0 807,-90"/>
<text text-anchor="start" x="665.5" y="-78" font-family="Helvetica,sans-Serif" font-size="10.00">es.alrodmue.model.players.</text>
<text text-anchor="start" x="685" y="-67" font-family="Helvetica,sans-Serif" font-size="10.00">SmallForwardPlayer</text>
<text text-anchor="start" x="732" y="-52" font-family="Helvetica,sans-Serif" font-size="10.00"> </text>
<text text-anchor="start" x="669.5" y="-37" font-family="Helvetica,sans-Serif" font-size="10.00">+</text>
<text text-anchor="start" x="687.5" y="-37" font-family="Helvetica,sans-Serif" font-size="10.00">SmallForwardPlayer()</text>
<text text-anchor="start" x="669.5" y="-22" font-family="Helvetica,sans-Serif" font-size="10.00">+</text>
<text text-anchor="start" x="687.5" y="-22" font-family="Helvetica,sans-Serif" font-size="10.00">SmallForwardPlayer()</text>
<text text-anchor="start" x="669.5" y="-7" font-family="Helvetica,sans-Serif" font-size="10.00">+</text>
<text text-anchor="start" x="687.5" y="-7" font-family="Helvetica,sans-Serif" font-size="10.00">getType()</text>
<polygon fill="#666666" stroke="#666666" points="660.5,-62 660.5,-62 807.5,-62 807.5,-62 660.5,-62"/>
<polygon fill="#666666" stroke="#666666" points="660.5,-47 660.5,-47 807.5,-47 807.5,-47 660.5,-47"/>
<polygon fill="none" stroke="#666666" points="660,0 660,-90 807,-90 807,0 660,0"/>
</a>
</g>
</g>
<!-- Node1&#45;&gt;Node6 -->
<g id="edge5_Node000001_Node000006" class="edge">
<title>Node1&#45;&gt;Node6</title>
<g id="a_edge5_Node000001_Node000006"><a xlink:title=" ">
<path fill="none" stroke="#63b8ff" d="M484.99,-263.64C547.03,-209.31 630.46,-136.24 683.11,-90.13"/>
<polygon fill="none" stroke="#63b8ff" points="482.36,-261.28 477.15,-270.5 486.98,-266.55 482.36,-261.28"/>
</a>
</g>
</g>
</g>
</svg>
