<?xml version="1.0" encoding="UTF-8" standalone="no"?>
<!DOCTYPE svg PUBLIC "-//W3C//DTD SVG 1.1//EN"
 "http://www.w3.org/Graphics/SVG/1.1/DTD/svg11.dtd">
<!-- Generated by graphviz version 2.43.0 (0)
 -->
<!-- Title: es.alrodmue.view.AddMatchViewController Pages: 1 -->
<svg width="157pt" height="213pt"
 viewBox="0.00 0.00 157.00 213.00" xmlns="http://www.w3.org/2000/svg" xmlns:xlink="http://www.w3.org/1999/xlink">
<g id="graph0" class="graph" transform="scale(1 1) rotate(0) translate(4 209)">
<title>es.alrodmue.view.AddMatchViewController</title>
<!-- Node1 -->
<g id="Node000001" class="node">
<title>Node1</title>
<g id="a_Node000001"><a xlink:title=" ">
<polygon fill="#999999" stroke="transparent" points="149,-120 0,-120 0,0 149,0 149,-120"/>
<text text-anchor="start" x="5.5" y="-108" font-family="Helvetica,sans-Serif" font-size="10.00">es.alrodmue.view.AddMatch</text>
<text text-anchor="start" x="38.5" y="-97" font-family="Helvetica,sans-Serif" font-size="10.00">ViewController</text>
<text text-anchor="start" x="11.5" y="-82" font-family="Helvetica,sans-Serif" font-size="10.00">&#45;</text>
<text text-anchor="start" x="26.5" y="-82" font-family="Helvetica,sans-Serif" font-size="10.00">acceptButton</text>
<text text-anchor="start" x="11.5" y="-67" font-family="Helvetica,sans-Serif" font-size="10.00">&#45;</text>
<text text-anchor="start" x="26.5" y="-67" font-family="Helvetica,sans-Serif" font-size="10.00">cancelButton</text>
<text text-anchor="start" x="11.5" y="-52" font-family="Helvetica,sans-Serif" font-size="10.00">&#45;</text>
<text text-anchor="start" x="26.5" y="-52" font-family="Helvetica,sans-Serif" font-size="10.00">matchType</text>
<text text-anchor="start" x="9" y="-37" font-family="Helvetica,sans-Serif" font-size="10.00">+</text>
<text text-anchor="start" x="26.5" y="-37" font-family="Helvetica,sans-Serif" font-size="10.00">initialize()</text>
<text text-anchor="start" x="11.5" y="-22" font-family="Helvetica,sans-Serif" font-size="10.00">&#45;</text>
<text text-anchor="start" x="26.5" y="-22" font-family="Helvetica,sans-Serif" font-size="10.00">onAcceptButtonClick()</text>
<text text-anchor="start" x="11.5" y="-7" font-family="Helvetica,sans-Serif" font-size="10.00">&#45;</text>
<text text-anchor="start" x="26.5" y="-7" font-family="Helvetica,sans-Serif" font-size="10.00">onCancelButtonClick()</text>
<polygon fill="#666666" stroke="#666666" points="0.5,-92 0.5,-92 149.5,-92 149.5,-92 0.5,-92"/>
<polygon fill="#666666" stroke="#666666" points="0.5,-47 0.5,-47 24.5,-47 24.5,-47 0.5,-47"/>
<polygon fill="#666666" stroke="#666666" points="24.5,-47 24.5,-47 149.5,-47 149.5,-47 24.5,-47"/>
<polygon fill="none" stroke="#666666" points="0,0 0,-120 149,-120 149,0 0,0"/>
</a>
</g>
</g>
<!-- Node2 -->
<g id="Node000002" class="node">
<title>Node2</title>
<g id="a_Node000002"><a xlink:title=" ">
<polygon fill="white" stroke="transparent" points="108.5,-205 40.5,-205 40.5,-156 108.5,-156 108.5,-205"/>
<text text-anchor="start" x="45.5" y="-192.5" font-family="Helvetica,sans-Serif" font-size="10.00">Initializable</text>
<text text-anchor="start" x="72.5" y="-177.5" font-family="Helvetica,sans-Serif" font-size="10.00"> </text>
<text text-anchor="start" x="72.5" y="-162.5" font-family="Helvetica,sans-Serif" font-size="10.00"> </text>
<polygon fill="#bfbfbf" stroke="#bfbfbf" points="40.5,-187.5 40.5,-187.5 108.5,-187.5 108.5,-187.5 40.5,-187.5"/>
<polygon fill="#bfbfbf" stroke="#bfbfbf" points="40.5,-172.5 40.5,-172.5 108.5,-172.5 108.5,-172.5 40.5,-172.5"/>
<polygon fill="none" stroke="#bfbfbf" points="40.5,-156 40.5,-205 108.5,-205 108.5,-156 40.5,-156"/>
</a>
</g>
</g>
<!-- Node2&#45;&gt;Node1 -->
<g id="edge1_Node000001_Node000002" class="edge">
<title>Node2&#45;&gt;Node1</title>
<g id="a_edge1_Node000001_Node000002"><a xlink:title=" ">
<path fill="none" stroke="#63b8ff" d="M74.5,-145.59C74.5,-137.71 74.5,-129.09 74.5,-120.47"/>
<polygon fill="none" stroke="#63b8ff" points="71,-145.8 74.5,-155.8 78,-145.8 71,-145.8"/>
</a>
</g>
</g>
</g>
</svg>
