<?xml version="1.0" encoding="UTF-8" standalone="no"?>
<!DOCTYPE svg PUBLIC "-//W3C//DTD SVG 1.1//EN"
 "http://www.w3.org/Graphics/SVG/1.1/DTD/svg11.dtd">
<!-- Generated by graphviz version 2.43.0 (0)
 -->
<!-- Title: es.alrodmue.model.matches.Match Pages: 1 -->
<svg width="503pt" height="449pt"
 viewBox="0.00 0.00 503.00 449.00" xmlns="http://www.w3.org/2000/svg" xmlns:xlink="http://www.w3.org/1999/xlink">
<g id="graph0" class="graph" transform="scale(1 1) rotate(0) translate(4 445)">
<title>es.alrodmue.model.matches.Match</title>
<!-- Node1 -->
<g id="Node000001" class="node">
<title>Node1</title>
<g id="a_Node000001"><a xlink:title=" ">
<polygon fill="#999999" stroke="transparent" points="324,-441 171,-441 171,-126 324,-126 324,-441"/>
<text text-anchor="start" x="176.5" y="-428.5" font-family="Helvetica,sans-Serif" font-size="10.00">es.alrodmue.model.matches.</text>
<text text-anchor="start" x="232.5" y="-417.5" font-family="Helvetica,sans-Serif" font-size="10.00">Match</text>
<text text-anchor="start" x="183.5" y="-402.5" font-family="Helvetica,sans-Serif" font-size="10.00">#</text>
<text text-anchor="start" x="204.5" y="-402.5" font-family="Helvetica,sans-Serif" font-size="10.00">date</text>
<text text-anchor="start" x="183.5" y="-387.5" font-family="Helvetica,sans-Serif" font-size="10.00">#</text>
<text text-anchor="start" x="204.5" y="-387.5" font-family="Helvetica,sans-Serif" font-size="10.00">fouls</text>
<text text-anchor="start" x="183.5" y="-372.5" font-family="Helvetica,sans-Serif" font-size="10.00">#</text>
<text text-anchor="start" x="204.5" y="-372.5" font-family="Helvetica,sans-Serif" font-size="10.00">ownPoints</text>
<text text-anchor="start" x="183.5" y="-357.5" font-family="Helvetica,sans-Serif" font-size="10.00">#</text>
<text text-anchor="start" x="204.5" y="-357.5" font-family="Helvetica,sans-Serif" font-size="10.00">playerList</text>
<text text-anchor="start" x="183.5" y="-342.5" font-family="Helvetica,sans-Serif" font-size="10.00">#</text>
<text text-anchor="start" x="204.5" y="-342.5" font-family="Helvetica,sans-Serif" font-size="10.00">playerPoints</text>
<text text-anchor="start" x="183.5" y="-327.5" font-family="Helvetica,sans-Serif" font-size="10.00">#</text>
<text text-anchor="start" x="204.5" y="-327.5" font-family="Helvetica,sans-Serif" font-size="10.00">rivalPoints</text>
<text text-anchor="start" x="183.5" y="-312.5" font-family="Helvetica,sans-Serif" font-size="10.00">+</text>
<text text-anchor="start" x="204.5" y="-312.5" font-family="Helvetica,sans-Serif" font-size="10.00">Match()</text>
<text text-anchor="start" x="183.5" y="-297.5" font-family="Helvetica,sans-Serif" font-size="10.00">+</text>
<text text-anchor="start" x="204.5" y="-297.5" font-family="Helvetica,sans-Serif" font-size="10.00">getDate()</text>
<text text-anchor="start" x="183.5" y="-282.5" font-family="Helvetica,sans-Serif" font-size="10.00">+</text>
<text text-anchor="start" x="204.5" y="-282.5" font-family="Helvetica,sans-Serif" font-size="10.00">getDetails()</text>
<text text-anchor="start" x="183.5" y="-267.5" font-family="Helvetica,sans-Serif" font-size="10.00">+</text>
<text text-anchor="start" x="204.5" y="-267.5" font-family="Helvetica,sans-Serif" font-size="10.00">getFouls()</text>
<text text-anchor="start" x="183.5" y="-252.5" font-family="Helvetica,sans-Serif" font-size="10.00">+</text>
<text text-anchor="start" x="204.5" y="-252.5" font-family="Helvetica,sans-Serif" font-size="10.00">getOwnPoints()</text>
<text text-anchor="start" x="183.5" y="-237.5" font-family="Helvetica,sans-Serif" font-size="10.00">+</text>
<text text-anchor="start" x="204.5" y="-237.5" font-family="Helvetica,sans-Serif" font-size="10.00">getPlayerPoints()</text>
<text text-anchor="start" x="183.5" y="-222.5" font-family="Helvetica,sans-Serif" font-size="10.00">+</text>
<text text-anchor="start" x="204.5" y="-222.5" font-family="Helvetica,sans-Serif" font-size="10.00">getPlayers()</text>
<text text-anchor="start" x="183.5" y="-207.5" font-family="Helvetica,sans-Serif" font-size="10.00">+</text>
<text text-anchor="start" x="204.5" y="-207.5" font-family="Helvetica,sans-Serif" font-size="10.00">getRivalPoints()</text>
<text text-anchor="start" x="183.5" y="-192.5" font-family="Helvetica,sans-Serif" font-size="10.00">+</text>
<text text-anchor="start" x="204.5" y="-192.5" font-family="Helvetica,sans-Serif" font-size="10.00">getType()</text>
<text text-anchor="start" x="183.5" y="-177.5" font-family="Helvetica,sans-Serif" font-size="10.00">+</text>
<text text-anchor="start" x="204.5" y="-177.5" font-family="Helvetica,sans-Serif" font-size="10.00">getWinner()</text>
<text text-anchor="start" x="183.5" y="-162.5" font-family="Helvetica,sans-Serif" font-size="10.00">+</text>
<text text-anchor="start" x="204.5" y="-162.5" font-family="Helvetica,sans-Serif" font-size="10.00">isDateValid()</text>
<text text-anchor="start" x="183.5" y="-147.5" font-family="Helvetica,sans-Serif" font-size="10.00">#</text>
<text text-anchor="start" x="204.5" y="-147.5" font-family="Helvetica,sans-Serif" font-size="10.00">isOwnTeamWinner()</text>
<text text-anchor="start" x="183.5" y="-132.5" font-family="Helvetica,sans-Serif" font-size="10.00">#</text>
<text text-anchor="start" x="204.5" y="-132.5" font-family="Helvetica,sans-Serif" font-size="10.00">calculatePoints()</text>
<polygon fill="#666666" stroke="#666666" points="171.5,-412.5 171.5,-412.5 324.5,-412.5 324.5,-412.5 171.5,-412.5"/>
<polygon fill="#666666" stroke="#666666" points="171.5,-322.5 171.5,-322.5 202.5,-322.5 202.5,-322.5 171.5,-322.5"/>
<polygon fill="#666666" stroke="#666666" points="202.5,-322.5 202.5,-322.5 324.5,-322.5 324.5,-322.5 202.5,-322.5"/>
<polygon fill="none" stroke="#666666" points="171,-126 171,-441 324,-441 324,-126 171,-126"/>
</a>
</g>
</g>
<!-- Node2 -->
<g id="Node000002" class="node">
<title>Node2</title>
<g id="a_Node000002"><a xlink:href="classes_1_1alrodmue_1_1model_1_1matches_1_1ExhibitionMatch.xhtml" target="_top" xlink:title=" ">
<polygon fill="white" stroke="transparent" points="153,-90 0,-90 0,0 153,0 153,-90"/>
<text text-anchor="start" x="5.5" y="-78" font-family="Helvetica,sans-Serif" font-size="10.00">es.alrodmue.model.matches.</text>
<text text-anchor="start" x="37.5" y="-67" font-family="Helvetica,sans-Serif" font-size="10.00">ExhibitionMatch</text>
<text text-anchor="start" x="75" y="-52" font-family="Helvetica,sans-Serif" font-size="10.00"> </text>
<text text-anchor="start" x="12.5" y="-37" font-family="Helvetica,sans-Serif" font-size="10.00">+</text>
<text text-anchor="start" x="33.5" y="-37" font-family="Helvetica,sans-Serif" font-size="10.00">ExhibitionMatch()</text>
<text text-anchor="start" x="12.5" y="-22" font-family="Helvetica,sans-Serif" font-size="10.00">+</text>
<text text-anchor="start" x="33.5" y="-22" font-family="Helvetica,sans-Serif" font-size="10.00">getType()</text>
<text text-anchor="start" x="12.5" y="-7" font-family="Helvetica,sans-Serif" font-size="10.00">#</text>
<text text-anchor="start" x="33.5" y="-7" font-family="Helvetica,sans-Serif" font-size="10.00">isOwnTeamWinner()</text>
<polygon fill="#666666" stroke="#666666" points="0.5,-62 0.5,-62 153.5,-62 153.5,-62 0.5,-62"/>
<polygon fill="#666666" stroke="#666666" points="0.5,-47 0.5,-47 153.5,-47 153.5,-47 0.5,-47"/>
<polygon fill="none" stroke="#666666" points="0,0 0,-90 153,-90 153,0 0,0"/>
</a>
</g>
</g>
<!-- Node1&#45;&gt;Node2 -->
<g id="edge1_Node000001_Node000002" class="edge">
<title>Node1&#45;&gt;Node2</title>
<g id="a_edge1_Node000001_Node000002"><a xlink:title=" ">
<path fill="none" stroke="#63b8ff" d="M164.83,-168.16C144.78,-140.44 124.53,-112.43 108.49,-90.24"/>
<polygon fill="none" stroke="#63b8ff" points="162.06,-170.3 170.75,-176.36 167.73,-166.2 162.06,-170.3"/>
</a>
</g>
</g>
<!-- Node3 -->
<g id="Node000003" class="node">
<title>Node3</title>
<g id="a_Node000003"><a xlink:href="classes_1_1alrodmue_1_1model_1_1matches_1_1OfficialLocalMatch.xhtml" target="_top" xlink:title=" ">
<polygon fill="white" stroke="transparent" points="324,-90 171,-90 171,0 324,0 324,-90"/>
<text text-anchor="start" x="176.5" y="-78" font-family="Helvetica,sans-Serif" font-size="10.00">es.alrodmue.model.matches.</text>
<text text-anchor="start" x="202.5" y="-67" font-family="Helvetica,sans-Serif" font-size="10.00">OfficialLocalMatch</text>
<text text-anchor="start" x="246" y="-52" font-family="Helvetica,sans-Serif" font-size="10.00"> </text>
<text text-anchor="start" x="183.5" y="-37" font-family="Helvetica,sans-Serif" font-size="10.00">+</text>
<text text-anchor="start" x="204.5" y="-37" font-family="Helvetica,sans-Serif" font-size="10.00">OfficialLocalMatch()</text>
<text text-anchor="start" x="183.5" y="-22" font-family="Helvetica,sans-Serif" font-size="10.00">+</text>
<text text-anchor="start" x="204.5" y="-22" font-family="Helvetica,sans-Serif" font-size="10.00">getType()</text>
<text text-anchor="start" x="183.5" y="-7" font-family="Helvetica,sans-Serif" font-size="10.00">#</text>
<text text-anchor="start" x="204.5" y="-7" font-family="Helvetica,sans-Serif" font-size="10.00">isOwnTeamWinner()</text>
<polygon fill="#666666" stroke="#666666" points="171.5,-62 171.5,-62 324.5,-62 324.5,-62 171.5,-62"/>
<polygon fill="#666666" stroke="#666666" points="171.5,-47 171.5,-47 324.5,-47 324.5,-47 171.5,-47"/>
<polygon fill="none" stroke="#666666" points="171,0 171,-90 324,-90 324,0 171,0"/>
</a>
</g>
</g>
<!-- Node1&#45;&gt;Node3 -->
<g id="edge2_Node000001_Node000003" class="edge">
<title>Node1&#45;&gt;Node3</title>
<g id="a_edge2_Node000001_Node000003"><a xlink:title=" ">
<path fill="none" stroke="#63b8ff" d="M247.5,-115.51C247.5,-106.6 247.5,-98.14 247.5,-90.39"/>
<polygon fill="none" stroke="#63b8ff" points="244,-115.74 247.5,-125.74 251,-115.74 244,-115.74"/>
</a>
</g>
</g>
<!-- Node4 -->
<g id="Node000004" class="node">
<title>Node4</title>
<g id="a_Node000004"><a xlink:href="classes_1_1alrodmue_1_1model_1_1matches_1_1OfficialVisitorMatch.xhtml" target="_top" xlink:title=" ">
<polygon fill="white" stroke="transparent" points="495,-90 342,-90 342,0 495,0 495,-90"/>
<text text-anchor="start" x="347.5" y="-78" font-family="Helvetica,sans-Serif" font-size="10.00">es.alrodmue.model.matches.</text>
<text text-anchor="start" x="370.5" y="-67" font-family="Helvetica,sans-Serif" font-size="10.00">OfficialVisitorMatch</text>
<text text-anchor="start" x="417" y="-52" font-family="Helvetica,sans-Serif" font-size="10.00"> </text>
<text text-anchor="start" x="353.5" y="-37" font-family="Helvetica,sans-Serif" font-size="10.00">+</text>
<text text-anchor="start" x="373.5" y="-37" font-family="Helvetica,sans-Serif" font-size="10.00">OfficialVisitorMatch()</text>
<text text-anchor="start" x="353.5" y="-22" font-family="Helvetica,sans-Serif" font-size="10.00">+</text>
<text text-anchor="start" x="373.5" y="-22" font-family="Helvetica,sans-Serif" font-size="10.00">getType()</text>
<text text-anchor="start" x="353.5" y="-7" font-family="Helvetica,sans-Serif" font-size="10.00">#</text>
<text text-anchor="start" x="373.5" y="-7" font-family="Helvetica,sans-Serif" font-size="10.00">isOwnTeamWinner()</text>
<polygon fill="#666666" stroke="#666666" points="342.5,-62 342.5,-62 495.5,-62 495.5,-62 342.5,-62"/>
<polygon fill="#666666" stroke="#666666" points="342.5,-47 342.5,-47 495.5,-47 495.5,-47 342.5,-47"/>
<polygon fill="none" stroke="#666666" points="342,0 342,-90 495,-90 495,0 342,0"/>
</a>
</g>
</g>
<!-- Node1&#45;&gt;Node4 -->
<g id="edge3_Node000001_Node000004" class="edge">
<title>Node1&#45;&gt;Node4</title>
<g id="a_edge3_Node000001_Node000004"><a xlink:title=" ">
<path fill="none" stroke="#63b8ff" d="M330.17,-168.16C350.22,-140.44 370.47,-112.43 386.51,-90.24"/>
<polygon fill="none" stroke="#63b8ff" points="327.27,-166.2 324.25,-176.36 332.94,-170.3 327.27,-166.2"/>
</a>
</g>
</g>
</g>
</svg>
