<?xml version="1.0" encoding="UTF-8" standalone="no"?>
<!DOCTYPE svg PUBLIC "-//W3C//DTD SVG 1.1//EN"
 "http://www.w3.org/Graphics/SVG/1.1/DTD/svg11.dtd">
<!-- Generated by graphviz version 2.43.0 (0)
 -->
<!-- Title: es.alrodmue.model.exceptions.MatchInvalidDataException Pages: 1 -->
<svg width="382pt" height="260pt"
 viewBox="0.00 0.00 381.50 260.00" xmlns="http://www.w3.org/2000/svg" xmlns:xlink="http://www.w3.org/1999/xlink">
<g id="graph0" class="graph" transform="scale(1 1) rotate(0) translate(4 256)">
<title>es.alrodmue.model.exceptions.MatchInvalidDataException</title>
<!-- Node1 -->
<g id="Node000001" class="node">
<title>Node1</title>
<g id="a_Node000001"><a xlink:title=" ">
<polygon fill="#999999" stroke="transparent" points="262,-167 98,-167 98,-107 262,-107 262,-167"/>
<text text-anchor="start" x="103" y="-155" font-family="Helvetica,sans-Serif" font-size="10.00">es.alrodmue.model.exceptions.</text>
<text text-anchor="start" x="112.5" y="-144" font-family="Helvetica,sans-Serif" font-size="10.00">MatchInvalidDataException</text>
<text text-anchor="start" x="178" y="-129" font-family="Helvetica,sans-Serif" font-size="10.00"> </text>
<text text-anchor="start" x="102" y="-114" font-family="Helvetica,sans-Serif" font-size="10.00">+</text>
<text text-anchor="start" x="115" y="-114" font-family="Helvetica,sans-Serif" font-size="10.00">MatchInvalidDataException()</text>
<polygon fill="#666666" stroke="#666666" points="98,-139 98,-139 262,-139 262,-139 98,-139"/>
<polygon fill="#666666" stroke="#666666" points="98,-124 98,-124 262,-124 262,-124 98,-124"/>
<polygon fill="none" stroke="#666666" points="98,-107 98,-167 262,-167 262,-107 98,-107"/>
</a>
</g>
</g>
<!-- Node3 -->
<g id="Node000003" class="node">
<title>Node3</title>
<g id="a_Node000003"><a xlink:href="classes_1_1alrodmue_1_1model_1_1exceptions_1_1MatchInvalidDateException.xhtml" target="_top" xlink:title=" ">
<polygon fill="white" stroke="transparent" points="164,-65.5 0,-65.5 0,-5.5 164,-5.5 164,-65.5"/>
<text text-anchor="start" x="5" y="-53.5" font-family="Helvetica,sans-Serif" font-size="10.00">es.alrodmue.model.exceptions.</text>
<text text-anchor="start" x="14.5" y="-42.5" font-family="Helvetica,sans-Serif" font-size="10.00">MatchInvalidDateException</text>
<text text-anchor="start" x="80" y="-27.5" font-family="Helvetica,sans-Serif" font-size="10.00"> </text>
<text text-anchor="start" x="4" y="-12.5" font-family="Helvetica,sans-Serif" font-size="10.00">+</text>
<text text-anchor="start" x="17" y="-12.5" font-family="Helvetica,sans-Serif" font-size="10.00">MatchInvalidDateException()</text>
<polygon fill="#666666" stroke="#666666" points="0,-37.5 0,-37.5 164,-37.5 164,-37.5 0,-37.5"/>
<polygon fill="#666666" stroke="#666666" points="0,-22.5 0,-22.5 164,-22.5 164,-22.5 0,-22.5"/>
<polygon fill="none" stroke="#666666" points="0,-5.5 0,-65.5 164,-65.5 164,-5.5 0,-5.5"/>
</a>
</g>
</g>
<!-- Node1&#45;&gt;Node3 -->
<g id="edge2_Node000001_Node000003" class="edge">
<title>Node1&#45;&gt;Node3</title>
<g id="a_edge2_Node000001_Node000003"><a xlink:title=" ">
<path fill="none" stroke="#63b8ff" d="M144.32,-99.77C133.3,-88.58 121.31,-76.41 110.81,-65.76"/>
<polygon fill="none" stroke="#63b8ff" points="141.88,-102.28 151.39,-106.95 146.87,-97.37 141.88,-102.28"/>
</a>
</g>
</g>
<!-- Node4 -->
<g id="Node000004" class="node">
<title>Node4</title>
<g id="a_Node000004"><a xlink:href="classes_1_1alrodmue_1_1model_1_1exceptions_1_1MatchInvalidPlayerAmountException.xhtml" target="_top" xlink:title=" ">
<polygon fill="white" stroke="transparent" points="373.5,-71 182.5,-71 182.5,0 373.5,0 373.5,-71"/>
<text text-anchor="start" x="188" y="-58.5" font-family="Helvetica,sans-Serif" font-size="10.00">es.alrodmue.model.exceptions.</text>
<text text-anchor="start" x="188" y="-47.5" font-family="Helvetica,sans-Serif" font-size="10.00">MatchInvalidPlayerAmountException</text>
<text text-anchor="start" x="276.5" y="-32.5" font-family="Helvetica,sans-Serif" font-size="10.00"> </text>
<text text-anchor="start" x="196" y="-17.5" font-family="Helvetica,sans-Serif" font-size="10.00">+</text>
<text text-anchor="start" x="218" y="-17.5" font-family="Helvetica,sans-Serif" font-size="10.00">MatchInvalidPlayerAmount</text>
<text text-anchor="start" x="218" y="-6.5" font-family="Helvetica,sans-Serif" font-size="10.00">Exception()</text>
<polygon fill="#666666" stroke="#666666" points="183,-42.5 183,-42.5 374,-42.5 374,-42.5 183,-42.5"/>
<polygon fill="#666666" stroke="#666666" points="183,-27.5 183,-27.5 374,-27.5 374,-27.5 183,-27.5"/>
<polygon fill="none" stroke="#666666" points="182.5,0 182.5,-71 373.5,-71 373.5,0 182.5,0"/>
</a>
</g>
</g>
<!-- Node1&#45;&gt;Node4 -->
<g id="edge3_Node000001_Node000004" class="edge">
<title>Node1&#45;&gt;Node4</title>
<g id="a_edge3_Node000001_Node000004"><a xlink:title=" ">
<path fill="none" stroke="#63b8ff" d="M215.81,-99.64C225.01,-90.3 234.88,-80.28 243.98,-71.04"/>
<polygon fill="none" stroke="#63b8ff" points="213.13,-97.37 208.61,-106.95 218.12,-102.28 213.13,-97.37"/>
</a>
</g>
</g>
<!-- Node2 -->
<g id="Node000002" class="node">
<title>Node2</title>
<g id="a_Node000002"><a xlink:href="classException.xhtml" target="_top" xlink:title=" ">
<polygon fill="white" stroke="transparent" points="209.5,-252 150.5,-252 150.5,-203 209.5,-203 209.5,-252"/>
<text text-anchor="start" x="156" y="-239.5" font-family="Helvetica,sans-Serif" font-size="10.00">Exception</text>
<text text-anchor="start" x="178.5" y="-224.5" font-family="Helvetica,sans-Serif" font-size="10.00"> </text>
<text text-anchor="start" x="178.5" y="-209.5" font-family="Helvetica,sans-Serif" font-size="10.00"> </text>
<polygon fill="#666666" stroke="#666666" points="151,-234.5 151,-234.5 210,-234.5 210,-234.5 151,-234.5"/>
<polygon fill="#666666" stroke="#666666" points="151,-219.5 151,-219.5 210,-219.5 210,-219.5 151,-219.5"/>
<polygon fill="none" stroke="#666666" points="150.5,-203 150.5,-252 209.5,-252 209.5,-203 150.5,-203"/>
</a>
</g>
</g>
<!-- Node2&#45;&gt;Node1 -->
<g id="edge1_Node000001_Node000002" class="edge">
<title>Node2&#45;&gt;Node1</title>
<g id="a_edge1_Node000001_Node000002"><a xlink:title=" ">
<path fill="none" stroke="#63b8ff" d="M180,-192.55C180,-184.18 180,-175.28 180,-167.16"/>
<polygon fill="none" stroke="#63b8ff" points="176.5,-192.78 180,-202.78 183.5,-192.78 176.5,-192.78"/>
</a>
</g>
</g>
</g>
</svg>
