<?xml version="1.0" encoding="UTF-8" standalone="no"?>
<!DOCTYPE svg PUBLIC "-//W3C//DTD SVG 1.1//EN"
 "http://www.w3.org/Graphics/SVG/1.1/DTD/svg11.dtd">
<!-- Generated by graphviz version 2.43.0 (0)
 -->
<!-- Title: es.alrodmue.model.fouls.Foul Pages: 1 -->
<svg width="916pt" height="1039pt"
 viewBox="0.00 0.00 915.50 1039.00" xmlns="http://www.w3.org/2000/svg" xmlns:xlink="http://www.w3.org/1999/xlink">
<g id="graph0" class="graph" transform="scale(1 1) rotate(0) translate(4 1035)">
<title>es.alrodmue.model.fouls.Foul</title>
<!-- Node1 -->
<g id="Node000001" class="node">
<title>Node1</title>
<g id="a_Node000001"><a xlink:title=" ">
<polygon fill="#999999" stroke="transparent" points="642,-124 487,-124 487,0 642,0 642,-124"/>
<text text-anchor="start" x="492.5" y="-112" font-family="Helvetica,sans-Serif" font-size="10.00">es.alrodmue.model.fouls.Foul</text>
<text text-anchor="start" x="563" y="-97" font-family="Helvetica,sans-Serif" font-size="10.00"> </text>
<text text-anchor="start" x="507" y="-82" font-family="Helvetica,sans-Serif" font-size="10.00">+</text>
<text text-anchor="start" x="535.5" y="-82" font-family="Helvetica,sans-Serif" font-size="10.00">Foul()</text>
<text text-anchor="start" x="507" y="-67" font-family="Helvetica,sans-Serif" font-size="10.00">+</text>
<text text-anchor="start" x="535.5" y="-67" font-family="Helvetica,sans-Serif" font-size="10.00">getMatch()</text>
<text text-anchor="start" x="507" y="-52" font-family="Helvetica,sans-Serif" font-size="10.00">+</text>
<text text-anchor="start" x="535.5" y="-52" font-family="Helvetica,sans-Serif" font-size="10.00">getPlayer()</text>
<text text-anchor="start" x="507" y="-37" font-family="Helvetica,sans-Serif" font-size="10.00">+</text>
<text text-anchor="start" x="535.5" y="-37" font-family="Helvetica,sans-Serif" font-size="10.00">getType()</text>
<text text-anchor="start" x="507" y="-22" font-family="Helvetica,sans-Serif" font-size="10.00">+</text>
<text text-anchor="start" x="535.5" y="-22" font-family="Helvetica,sans-Serif" font-size="10.00">isMatchValid()</text>
<text text-anchor="start" x="507" y="-7" font-family="Helvetica,sans-Serif" font-size="10.00">+</text>
<text text-anchor="start" x="535.5" y="-7" font-family="Helvetica,sans-Serif" font-size="10.00">isPlayerValid()</text>
<polygon fill="#666666" stroke="#666666" points="487.5,-107 487.5,-107 642.5,-107 642.5,-107 487.5,-107"/>
<polygon fill="#666666" stroke="#666666" points="487.5,-92 487.5,-92 642.5,-92 642.5,-92 487.5,-92"/>
<polygon fill="none" stroke="#666666" points="487,0 487,-124 642,-124 642,0 487,0"/>
</a>
</g>
</g>
<!-- Node2 -->
<g id="Node000002" class="node">
<title>Node2</title>
<g id="a_Node000002"><a xlink:href="classes_1_1alrodmue_1_1model_1_1players_1_1Player.xhtml" target="_top" xlink:title=" ">
<polygon fill="white" stroke="transparent" points="720,-784 573,-784 573,-469 720,-469 720,-784"/>
<text text-anchor="start" x="578.5" y="-771.5" font-family="Helvetica,sans-Serif" font-size="10.00">es.alrodmue.model.players.</text>
<text text-anchor="start" x="631.5" y="-760.5" font-family="Helvetica,sans-Serif" font-size="10.00">Player</text>
<text text-anchor="start" x="645" y="-745.5" font-family="Helvetica,sans-Serif" font-size="10.00"> </text>
<text text-anchor="start" x="589" y="-730.5" font-family="Helvetica,sans-Serif" font-size="10.00">+</text>
<text text-anchor="start" x="613.5" y="-730.5" font-family="Helvetica,sans-Serif" font-size="10.00">Player()</text>
<text text-anchor="start" x="589" y="-715.5" font-family="Helvetica,sans-Serif" font-size="10.00">+</text>
<text text-anchor="start" x="613.5" y="-715.5" font-family="Helvetica,sans-Serif" font-size="10.00">addFoul()</text>
<text text-anchor="start" x="589" y="-700.5" font-family="Helvetica,sans-Serif" font-size="10.00">+</text>
<text text-anchor="start" x="613.5" y="-700.5" font-family="Helvetica,sans-Serif" font-size="10.00">addPoints()</text>
<text text-anchor="start" x="589" y="-685.5" font-family="Helvetica,sans-Serif" font-size="10.00">+</text>
<text text-anchor="start" x="613.5" y="-685.5" font-family="Helvetica,sans-Serif" font-size="10.00">getDetail()</text>
<text text-anchor="start" x="589" y="-670.5" font-family="Helvetica,sans-Serif" font-size="10.00">+</text>
<text text-anchor="start" x="613.5" y="-670.5" font-family="Helvetica,sans-Serif" font-size="10.00">getFouls()</text>
<text text-anchor="start" x="589" y="-655.5" font-family="Helvetica,sans-Serif" font-size="10.00">+</text>
<text text-anchor="start" x="613.5" y="-655.5" font-family="Helvetica,sans-Serif" font-size="10.00">getHeight()</text>
<text text-anchor="start" x="589" y="-640.5" font-family="Helvetica,sans-Serif" font-size="10.00">+</text>
<text text-anchor="start" x="613.5" y="-640.5" font-family="Helvetica,sans-Serif" font-size="10.00">getName()</text>
<text text-anchor="start" x="589" y="-625.5" font-family="Helvetica,sans-Serif" font-size="10.00">+</text>
<text text-anchor="start" x="613.5" y="-625.5" font-family="Helvetica,sans-Serif" font-size="10.00">getNumber()</text>
<text text-anchor="start" x="589" y="-610.5" font-family="Helvetica,sans-Serif" font-size="10.00">+</text>
<text text-anchor="start" x="613.5" y="-610.5" font-family="Helvetica,sans-Serif" font-size="10.00">getPoints()</text>
<text text-anchor="start" x="589" y="-595.5" font-family="Helvetica,sans-Serif" font-size="10.00">+</text>
<text text-anchor="start" x="613.5" y="-595.5" font-family="Helvetica,sans-Serif" font-size="10.00">getSkill()</text>
<text text-anchor="start" x="589" y="-580.5" font-family="Helvetica,sans-Serif" font-size="10.00">+</text>
<text text-anchor="start" x="613.5" y="-580.5" font-family="Helvetica,sans-Serif" font-size="10.00">getType()</text>
<text text-anchor="start" x="589" y="-565.5" font-family="Helvetica,sans-Serif" font-size="10.00">+</text>
<text text-anchor="start" x="613.5" y="-565.5" font-family="Helvetica,sans-Serif" font-size="10.00">toString()</text>
<text text-anchor="start" x="589" y="-550.5" font-family="Helvetica,sans-Serif" font-size="10.00">+</text>
<text text-anchor="start" x="613.5" y="-550.5" font-family="Helvetica,sans-Serif" font-size="10.00">arePointsValid()</text>
<text text-anchor="start" x="589" y="-535.5" font-family="Helvetica,sans-Serif" font-size="10.00">+</text>
<text text-anchor="start" x="613.5" y="-535.5" font-family="Helvetica,sans-Serif" font-size="10.00">isFoulValid()</text>
<text text-anchor="start" x="589" y="-520.5" font-family="Helvetica,sans-Serif" font-size="10.00">+</text>
<text text-anchor="start" x="613.5" y="-520.5" font-family="Helvetica,sans-Serif" font-size="10.00">isHeightValid()</text>
<text text-anchor="start" x="589" y="-505.5" font-family="Helvetica,sans-Serif" font-size="10.00">+</text>
<text text-anchor="start" x="613.5" y="-505.5" font-family="Helvetica,sans-Serif" font-size="10.00">isNameValid()</text>
<text text-anchor="start" x="589" y="-490.5" font-family="Helvetica,sans-Serif" font-size="10.00">+</text>
<text text-anchor="start" x="613.5" y="-490.5" font-family="Helvetica,sans-Serif" font-size="10.00">isNumberValid()</text>
<text text-anchor="start" x="589" y="-475.5" font-family="Helvetica,sans-Serif" font-size="10.00">+</text>
<text text-anchor="start" x="613.5" y="-475.5" font-family="Helvetica,sans-Serif" font-size="10.00">isSkillValid()</text>
<polygon fill="#666666" stroke="#666666" points="573.5,-755.5 573.5,-755.5 720.5,-755.5 720.5,-755.5 573.5,-755.5"/>
<polygon fill="#666666" stroke="#666666" points="573.5,-740.5 573.5,-740.5 720.5,-740.5 720.5,-740.5 573.5,-740.5"/>
<polygon fill="none" stroke="#666666" points="573,-469 573,-784 720,-784 720,-469 573,-469"/>
</a>
</g>
</g>
<!-- Node2&#45;&gt;Node1 -->
<g id="edge1_Node000001_Node000002" class="edge">
<title>Node2&#45;&gt;Node1</title>
<g id="a_edge1_Node000001_Node000002"><a xlink:title=" ">
<path fill="none" stroke="#63b8ff" d="M623.66,-468.81C607.8,-360.06 587.41,-220.17 575.18,-136.26"/>
<polygon fill="none" stroke="#63b8ff" points="575.17,-136.17 570.34,-130.81 573.44,-124.3 578.26,-129.66 575.17,-136.17"/>
</a>
</g>
<text text-anchor="middle" x="637" y="-288.5" font-family="Helvetica,sans-Serif" font-size="10.00" fill="grey"> #player</text>
</g>
<!-- Node7 -->
<g id="Node000007" class="node">
<title>Node7</title>
<g id="a_Node000007"><a xlink:href="classes_1_1alrodmue_1_1model_1_1matches_1_1Match.xhtml" target="_top" xlink:title=" ">
<polygon fill="white" stroke="transparent" points="413,-411 260,-411 260,-171 413,-171 413,-411"/>
<text text-anchor="start" x="265.5" y="-399" font-family="Helvetica,sans-Serif" font-size="10.00">es.alrodmue.model.matches.</text>
<text text-anchor="start" x="321.5" y="-388" font-family="Helvetica,sans-Serif" font-size="10.00">Match</text>
<text text-anchor="start" x="335" y="-373" font-family="Helvetica,sans-Serif" font-size="10.00"> </text>
<text text-anchor="start" x="272.5" y="-358" font-family="Helvetica,sans-Serif" font-size="10.00">+</text>
<text text-anchor="start" x="293.5" y="-358" font-family="Helvetica,sans-Serif" font-size="10.00">Match()</text>
<text text-anchor="start" x="272.5" y="-343" font-family="Helvetica,sans-Serif" font-size="10.00">+</text>
<text text-anchor="start" x="293.5" y="-343" font-family="Helvetica,sans-Serif" font-size="10.00">getDate()</text>
<text text-anchor="start" x="272.5" y="-328" font-family="Helvetica,sans-Serif" font-size="10.00">+</text>
<text text-anchor="start" x="293.5" y="-328" font-family="Helvetica,sans-Serif" font-size="10.00">getDetails()</text>
<text text-anchor="start" x="272.5" y="-313" font-family="Helvetica,sans-Serif" font-size="10.00">+</text>
<text text-anchor="start" x="293.5" y="-313" font-family="Helvetica,sans-Serif" font-size="10.00">getFouls()</text>
<text text-anchor="start" x="272.5" y="-298" font-family="Helvetica,sans-Serif" font-size="10.00">+</text>
<text text-anchor="start" x="293.5" y="-298" font-family="Helvetica,sans-Serif" font-size="10.00">getOwnPoints()</text>
<text text-anchor="start" x="272.5" y="-283" font-family="Helvetica,sans-Serif" font-size="10.00">+</text>
<text text-anchor="start" x="293.5" y="-283" font-family="Helvetica,sans-Serif" font-size="10.00">getPlayerPoints()</text>
<text text-anchor="start" x="272.5" y="-268" font-family="Helvetica,sans-Serif" font-size="10.00">+</text>
<text text-anchor="start" x="293.5" y="-268" font-family="Helvetica,sans-Serif" font-size="10.00">getPlayers()</text>
<text text-anchor="start" x="272.5" y="-253" font-family="Helvetica,sans-Serif" font-size="10.00">+</text>
<text text-anchor="start" x="293.5" y="-253" font-family="Helvetica,sans-Serif" font-size="10.00">getRivalPoints()</text>
<text text-anchor="start" x="272.5" y="-238" font-family="Helvetica,sans-Serif" font-size="10.00">+</text>
<text text-anchor="start" x="293.5" y="-238" font-family="Helvetica,sans-Serif" font-size="10.00">getType()</text>
<text text-anchor="start" x="272.5" y="-223" font-family="Helvetica,sans-Serif" font-size="10.00">+</text>
<text text-anchor="start" x="293.5" y="-223" font-family="Helvetica,sans-Serif" font-size="10.00">getWinner()</text>
<text text-anchor="start" x="272.5" y="-208" font-family="Helvetica,sans-Serif" font-size="10.00">+</text>
<text text-anchor="start" x="293.5" y="-208" font-family="Helvetica,sans-Serif" font-size="10.00">isDateValid()</text>
<text text-anchor="start" x="272.5" y="-193" font-family="Helvetica,sans-Serif" font-size="10.00">#</text>
<text text-anchor="start" x="293.5" y="-193" font-family="Helvetica,sans-Serif" font-size="10.00">isOwnTeamWinner()</text>
<text text-anchor="start" x="272.5" y="-178" font-family="Helvetica,sans-Serif" font-size="10.00">#</text>
<text text-anchor="start" x="293.5" y="-178" font-family="Helvetica,sans-Serif" font-size="10.00">calculatePoints()</text>
<polygon fill="#666666" stroke="#666666" points="260.5,-383 260.5,-383 413.5,-383 413.5,-383 260.5,-383"/>
<polygon fill="#666666" stroke="#666666" points="260.5,-368 260.5,-368 413.5,-368 413.5,-368 260.5,-368"/>
<polygon fill="none" stroke="#666666" points="260,-171 260,-411 413,-411 413,-171 260,-171"/>
</a>
</g>
</g>
<!-- Node2&#45;&gt;Node7 -->
<g id="edge9_Node000007_Node000002" class="edge">
<title>Node2&#45;&gt;Node7</title>
<g id="a_edge9_Node000007_Node000002"><a xlink:title=" ">
<path fill="none" stroke="#63b8ff" d="M572.77,-480.7C569.75,-476.68 566.66,-472.77 563.5,-469 523.55,-421.38 468.84,-378.26 423.14,-346.5"/>
<polygon fill="none" stroke="#63b8ff" points="423.12,-346.49 415.91,-346.39 413.23,-339.69 420.44,-339.79 423.12,-346.49"/>
</a>
</g>
<text text-anchor="middle" x="573.5" y="-437.5" font-family="Helvetica,sans-Serif" font-size="10.00" fill="grey"> #playerList</text>
</g>
<!-- Node3 -->
<g id="Node000003" class="node">
<title>Node3</title>
<g id="a_Node000003"><a xlink:title=" ">
<polygon fill="white" stroke="transparent" points="610,-918.5 571,-918.5 571,-869.5 610,-869.5 610,-918.5"/>
<text text-anchor="start" x="576.5" y="-906" font-family="Helvetica,sans-Serif" font-size="10.00">String</text>
<text text-anchor="start" x="589" y="-891" font-family="Helvetica,sans-Serif" font-size="10.00"> </text>
<text text-anchor="start" x="589" y="-876" font-family="Helvetica,sans-Serif" font-size="10.00"> </text>
<polygon fill="#bfbfbf" stroke="#bfbfbf" points="571.5,-901 571.5,-901 610.5,-901 610.5,-901 571.5,-901"/>
<polygon fill="#bfbfbf" stroke="#bfbfbf" points="571.5,-886 571.5,-886 610.5,-886 610.5,-886 571.5,-886"/>
<polygon fill="none" stroke="#bfbfbf" points="571,-869.5 571,-918.5 610,-918.5 610,-869.5 571,-869.5"/>
</a>
</g>
</g>
<!-- Node3&#45;&gt;Node2 -->
<g id="edge2_Node000002_Node000003" class="edge">
<title>Node3&#45;&gt;Node2</title>
<g id="a_edge2_Node000002_Node000003"><a xlink:title=" ">
<path fill="none" stroke="#63b8ff" d="M594.68,-869.39C597.99,-850.99 602.82,-824.83 607.5,-802 607.89,-800.1 608.28,-798.2 608.68,-796.28"/>
<polygon fill="none" stroke="#63b8ff" points="608.71,-796.15 606.02,-789.46 611.16,-784.4 613.85,-791.09 608.71,-796.15"/>
</a>
</g>
<text text-anchor="middle" x="627.5" y="-821.5" font-family="Helvetica,sans-Serif" font-size="10.00" fill="grey"> #name</text>
</g>
<!-- Node4 -->
<g id="Node000004" class="node">
<title>Node4</title>
<g id="a_Node000004"><a xlink:title=" ">
<polygon fill="white" stroke="transparent" points="665,-918.5 642,-918.5 642,-869.5 665,-869.5 665,-918.5"/>
<text text-anchor="start" x="647.5" y="-906" font-family="Helvetica,sans-Serif" font-size="10.00">int</text>
<text text-anchor="start" x="652" y="-891" font-family="Helvetica,sans-Serif" font-size="10.00"> </text>
<text text-anchor="start" x="652" y="-876" font-family="Helvetica,sans-Serif" font-size="10.00"> </text>
<polygon fill="#bfbfbf" stroke="#bfbfbf" points="642.5,-901 642.5,-901 665.5,-901 665.5,-901 642.5,-901"/>
<polygon fill="#bfbfbf" stroke="#bfbfbf" points="642.5,-886 642.5,-886 665.5,-886 665.5,-886 642.5,-886"/>
<polygon fill="none" stroke="#bfbfbf" points="642,-869.5 642,-918.5 665,-918.5 665,-869.5 642,-869.5"/>
</a>
</g>
</g>
<!-- Node4&#45;&gt;Node2 -->
<g id="edge3_Node000002_Node000004" class="edge">
<title>Node4&#45;&gt;Node2</title>
<g id="a_edge3_Node000002_Node000004"><a xlink:title=" ">
<path fill="none" stroke="#63b8ff" d="M652.88,-869.44C652.41,-851.54 651.71,-825.13 650.95,-796.27"/>
<polygon fill="none" stroke="#63b8ff" points="650.95,-796.22 646.79,-790.32 650.63,-784.22 654.79,-790.11 650.95,-796.22"/>
</a>
</g>
<text text-anchor="middle" x="675.5" y="-838" font-family="Helvetica,sans-Serif" font-size="10.00" fill="grey"> #height</text>
<text text-anchor="middle" x="675.5" y="-827" font-family="Helvetica,sans-Serif" font-size="10.00" fill="grey">#number</text>
<text text-anchor="middle" x="675.5" y="-816" font-family="Helvetica,sans-Serif" font-size="10.00" fill="grey">#points</text>
<text text-anchor="middle" x="675.5" y="-805" font-family="Helvetica,sans-Serif" font-size="10.00" fill="grey">#skill</text>
</g>
<!-- Node5 -->
<g id="Node000005" class="node">
<title>Node5</title>
<g id="a_Node000005"><a xlink:title=" ">
<polygon fill="white" stroke="transparent" points="902,-924 683,-924 683,-864 902,-864 902,-924"/>
<text text-anchor="start" x="688.5" y="-912" font-family="Helvetica,sans-Serif" font-size="10.00">ObservableList&lt; es.alrodmue.model.fouls.</text>
<text text-anchor="start" x="777" y="-901" font-family="Helvetica,sans-Serif" font-size="10.00">Foul &gt;</text>
<text text-anchor="start" x="791" y="-886" font-family="Helvetica,sans-Serif" font-size="10.00"> </text>
<text text-anchor="start" x="791" y="-871" font-family="Helvetica,sans-Serif" font-size="10.00"> </text>
<polygon fill="#bfbfbf" stroke="#bfbfbf" points="683.5,-896 683.5,-896 902.5,-896 902.5,-896 683.5,-896"/>
<polygon fill="#bfbfbf" stroke="#bfbfbf" points="683.5,-881 683.5,-881 902.5,-881 902.5,-881 683.5,-881"/>
<polygon fill="none" stroke="#bfbfbf" points="683,-864 683,-924 902,-924 902,-864 683,-864"/>
</a>
</g>
</g>
<!-- Node5&#45;&gt;Node2 -->
<g id="edge4_Node000002_Node000005" class="edge">
<title>Node5&#45;&gt;Node2</title>
<g id="a_edge4_Node000002_Node000005"><a xlink:title=" ">
<path fill="none" stroke="#63b8ff" d="M776.46,-863.83C763.84,-840.88 745.23,-807.03 726.01,-772.08"/>
<polygon fill="none" stroke="#63b8ff" points="725.81,-771.73 719.42,-768.4 720.03,-761.21 726.43,-764.54 725.81,-771.73"/>
</a>
</g>
<text text-anchor="middle" x="783.5" y="-821.5" font-family="Helvetica,sans-Serif" font-size="10.00" fill="grey"> #fouls</text>
</g>
<!-- Node6 -->
<g id="Node000006" class="node">
<title>Node6</title>
<g id="a_Node000006"><a xlink:title=" ">
<polygon fill="white" stroke="transparent" points="834,-1031 751,-1031 751,-982 834,-982 834,-1031"/>
<text text-anchor="start" x="756.5" y="-1018.5" font-family="Helvetica,sans-Serif" font-size="10.00">ObservableList</text>
<text text-anchor="start" x="791" y="-1003.5" font-family="Helvetica,sans-Serif" font-size="10.00"> </text>
<text text-anchor="start" x="791" y="-988.5" font-family="Helvetica,sans-Serif" font-size="10.00"> </text>
<polygon fill="#bfbfbf" stroke="#bfbfbf" points="751.5,-1013.5 751.5,-1013.5 834.5,-1013.5 834.5,-1013.5 751.5,-1013.5"/>
<polygon fill="#bfbfbf" stroke="#bfbfbf" points="751.5,-998.5 751.5,-998.5 834.5,-998.5 834.5,-998.5 751.5,-998.5"/>
<polygon fill="none" stroke="#bfbfbf" points="751,-982 751,-1031 834,-1031 834,-982 751,-982"/>
</a>
</g>
</g>
<!-- Node6&#45;&gt;Node5 -->
<g id="edge5_Node000005_Node000006" class="edge">
<title>Node6&#45;&gt;Node5</title>
<g id="a_edge5_Node000005_Node000006"><a xlink:title=" ">
<path fill="none" stroke="orange" d="M792.5,-971.75C792.5,-956.56 792.5,-938.79 792.5,-924.17"/>
<polygon fill="orange" stroke="orange" points="789,-971.79 792.5,-981.79 796,-971.8 789,-971.79"/>
</a>
</g>
<text text-anchor="start" x="792.5" y="-956" font-family="Helvetica,sans-Serif" font-size="10.00" fill="grey"> &lt; es::alrodmue::model</text>
<text text-anchor="middle" x="850" y="-945" font-family="Helvetica,sans-Serif" font-size="10.00" fill="grey">::fouls::Foul &gt;</text>
</g>
<!-- Node7&#45;&gt;Node1 -->
<g id="edge6_Node000001_Node000007" class="edge">
<title>Node7&#45;&gt;Node1</title>
<g id="a_edge6_Node000001_Node000007"><a xlink:title=" ">
<path fill="none" stroke="#63b8ff" d="M413.05,-213.78C439.32,-187.63 468.57,-158.5 494.31,-132.88"/>
<polygon fill="none" stroke="#63b8ff" points="494.39,-132.8 495.82,-125.73 502.9,-124.33 501.47,-131.4 494.39,-132.8"/>
</a>
</g>
<text text-anchor="middle" x="506" y="-145" font-family="Helvetica,sans-Serif" font-size="10.00" fill="grey"> #match</text>
</g>
<!-- Node8 -->
<g id="Node000008" class="node">
<title>Node8</title>
<g id="a_Node000008"><a xlink:title=" ">
<polygon fill="white" stroke="transparent" points="59,-651 0,-651 0,-602 59,-602 59,-651"/>
<text text-anchor="start" x="5.5" y="-638.5" font-family="Helvetica,sans-Serif" font-size="10.00">LocalDate</text>
<text text-anchor="start" x="28" y="-623.5" font-family="Helvetica,sans-Serif" font-size="10.00"> </text>
<text text-anchor="start" x="28" y="-608.5" font-family="Helvetica,sans-Serif" font-size="10.00"> </text>
<polygon fill="#bfbfbf" stroke="#bfbfbf" points="0.5,-633.5 0.5,-633.5 59.5,-633.5 59.5,-633.5 0.5,-633.5"/>
<polygon fill="#bfbfbf" stroke="#bfbfbf" points="0.5,-618.5 0.5,-618.5 59.5,-618.5 59.5,-618.5 0.5,-618.5"/>
<polygon fill="none" stroke="#bfbfbf" points="0,-602 0,-651 59,-651 59,-602 0,-602"/>
</a>
</g>
</g>
<!-- Node8&#45;&gt;Node7 -->
<g id="edge7_Node000007_Node000008" class="edge">
<title>Node8&#45;&gt;Node7</title>
<g id="a_edge7_Node000007_Node000008"><a xlink:title=" ">
<path fill="none" stroke="#63b8ff" d="M31.25,-601.77C34.48,-569.79 43.4,-511.9 67.5,-469 106.76,-399.11 186.43,-351.98 248.93,-324.05"/>
<polygon fill="none" stroke="#63b8ff" points="248.99,-324.02 252.89,-317.95 259.99,-319.22 256.09,-325.29 248.99,-324.02"/>
</a>
</g>
<text text-anchor="middle" x="109.5" y="-437.5" font-family="Helvetica,sans-Serif" font-size="10.00" fill="grey"> #date</text>
</g>
<!-- Node9 -->
<g id="Node000009" class="node">
<title>Node9</title>
<g id="a_Node000009"><a xlink:title=" ">
<polygon fill="white" stroke="transparent" points="124,-651 77,-651 77,-602 124,-602 124,-651"/>
<text text-anchor="start" x="82.5" y="-638.5" font-family="Helvetica,sans-Serif" font-size="10.00">final int</text>
<text text-anchor="start" x="99" y="-623.5" font-family="Helvetica,sans-Serif" font-size="10.00"> </text>
<text text-anchor="start" x="99" y="-608.5" font-family="Helvetica,sans-Serif" font-size="10.00"> </text>
<polygon fill="#bfbfbf" stroke="#bfbfbf" points="77.5,-633.5 77.5,-633.5 124.5,-633.5 124.5,-633.5 77.5,-633.5"/>
<polygon fill="#bfbfbf" stroke="#bfbfbf" points="77.5,-618.5 77.5,-618.5 124.5,-618.5 124.5,-618.5 77.5,-618.5"/>
<polygon fill="none" stroke="#bfbfbf" points="77,-602 77,-651 124,-651 124,-602 77,-602"/>
</a>
</g>
</g>
<!-- Node9&#45;&gt;Node7 -->
<g id="edge8_Node000007_Node000009" class="edge">
<title>Node9&#45;&gt;Node7</title>
<g id="a_edge8_Node000007_Node000009"><a xlink:title=" ">
<path fill="none" stroke="#63b8ff" d="M100.89,-601.82C102.41,-569.64 108.69,-511.27 133.5,-469 162.04,-420.37 208.73,-378.29 250.15,-347.37"/>
<polygon fill="none" stroke="#63b8ff" points="250.31,-347.24 252.79,-340.47 259.99,-340.15 257.52,-346.92 250.31,-347.24"/>
</a>
</g>
<text text-anchor="middle" x="189.5" y="-443" font-family="Helvetica,sans-Serif" font-size="10.00" fill="grey"> #ownPoints</text>
<text text-anchor="middle" x="189.5" y="-432" font-family="Helvetica,sans-Serif" font-size="10.00" fill="grey">#rivalPoints</text>
</g>
<!-- Node10 -->
<g id="Node000010" class="node">
<title>Node10</title>
<g id="a_Node000010"><a xlink:title=" ">
<polygon fill="white" stroke="transparent" points="346.5,-656.5 142.5,-656.5 142.5,-596.5 346.5,-596.5 346.5,-656.5"/>
<text text-anchor="start" x="147.5" y="-644.5" font-family="Helvetica,sans-Serif" font-size="10.00">HashMap&lt; es.alrodmue.model.players.</text>
<text text-anchor="start" x="203" y="-633.5" font-family="Helvetica,sans-Serif" font-size="10.00">Player, Integer &gt;</text>
<text text-anchor="start" x="242.5" y="-618.5" font-family="Helvetica,sans-Serif" font-size="10.00"> </text>
<text text-anchor="start" x="242.5" y="-603.5" font-family="Helvetica,sans-Serif" font-size="10.00"> </text>
<polygon fill="#bfbfbf" stroke="#bfbfbf" points="142.5,-628.5 142.5,-628.5 346.5,-628.5 346.5,-628.5 142.5,-628.5"/>
<polygon fill="#bfbfbf" stroke="#bfbfbf" points="142.5,-613.5 142.5,-613.5 346.5,-613.5 346.5,-613.5 142.5,-613.5"/>
<polygon fill="none" stroke="#bfbfbf" points="142.5,-596.5 142.5,-656.5 346.5,-656.5 346.5,-596.5 142.5,-596.5"/>
</a>
</g>
</g>
<!-- Node10&#45;&gt;Node7 -->
<g id="edge10_Node000007_Node000010" class="edge">
<title>Node10&#45;&gt;Node7</title>
<g id="a_edge10_Node000007_Node000010"><a xlink:title=" ">
<path fill="none" stroke="#63b8ff" d="M252.5,-596.49C263.18,-557.77 282.79,-486.68 300.38,-422.93"/>
<polygon fill="none" stroke="#63b8ff" points="300.45,-422.68 298.19,-415.84 303.64,-411.12 305.9,-417.96 300.45,-422.68"/>
</a>
</g>
<text text-anchor="middle" x="333" y="-437.5" font-family="Helvetica,sans-Serif" font-size="10.00" fill="grey"> #playerPoints</text>
</g>
<!-- Node11 -->
<g id="Node000011" class="node">
<title>Node11</title>
<g id="a_Node000011"><a xlink:title=" ">
<polygon fill="white" stroke="transparent" points="272.5,-918.5 216.5,-918.5 216.5,-869.5 272.5,-869.5 272.5,-918.5"/>
<text text-anchor="start" x="221.5" y="-906" font-family="Helvetica,sans-Serif" font-size="10.00">HashMap</text>
<text text-anchor="start" x="242.5" y="-891" font-family="Helvetica,sans-Serif" font-size="10.00"> </text>
<text text-anchor="start" x="242.5" y="-876" font-family="Helvetica,sans-Serif" font-size="10.00"> </text>
<polygon fill="#bfbfbf" stroke="#bfbfbf" points="216.5,-901 216.5,-901 272.5,-901 272.5,-901 216.5,-901"/>
<polygon fill="#bfbfbf" stroke="#bfbfbf" points="216.5,-886 216.5,-886 272.5,-886 272.5,-886 216.5,-886"/>
<polygon fill="none" stroke="#bfbfbf" points="216.5,-869.5 216.5,-918.5 272.5,-918.5 272.5,-869.5 216.5,-869.5"/>
</a>
</g>
</g>
<!-- Node11&#45;&gt;Node10 -->
<g id="edge11_Node000010_Node000011" class="edge">
<title>Node11&#45;&gt;Node10</title>
<g id="a_edge11_Node000010_Node000011"><a xlink:title=" ">
<path fill="none" stroke="orange" d="M244.5,-859.29C244.5,-806.73 244.5,-706.15 244.5,-656.58"/>
<polygon fill="orange" stroke="orange" points="241,-859.44 244.5,-869.44 248,-859.44 241,-859.44"/>
</a>
</g>
<text text-anchor="start" x="244.5" y="-827" font-family="Helvetica,sans-Serif" font-size="10.00" fill="grey"> &lt; es::alrodmue::model</text>
<text text-anchor="middle" x="310" y="-816" font-family="Helvetica,sans-Serif" font-size="10.00" fill="grey">::players::Player, Integer &gt;</text>
</g>
<!-- Node12 -->
<g id="Node000012" class="node">
<title>Node12</title>
<g id="a_Node000012"><a xlink:title=" ">
<polygon fill="white" stroke="transparent" points="554.5,-656.5 364.5,-656.5 364.5,-596.5 554.5,-596.5 554.5,-656.5"/>
<text text-anchor="start" x="369.5" y="-644.5" font-family="Helvetica,sans-Serif" font-size="10.00">ArrayList&lt; es.alrodmue.model.fouls.</text>
<text text-anchor="start" x="443.5" y="-633.5" font-family="Helvetica,sans-Serif" font-size="10.00">Foul &gt;</text>
<text text-anchor="start" x="457.5" y="-618.5" font-family="Helvetica,sans-Serif" font-size="10.00"> </text>
<text text-anchor="start" x="457.5" y="-603.5" font-family="Helvetica,sans-Serif" font-size="10.00"> </text>
<polygon fill="#bfbfbf" stroke="#bfbfbf" points="364.5,-628.5 364.5,-628.5 554.5,-628.5 554.5,-628.5 364.5,-628.5"/>
<polygon fill="#bfbfbf" stroke="#bfbfbf" points="364.5,-613.5 364.5,-613.5 554.5,-613.5 554.5,-613.5 364.5,-613.5"/>
<polygon fill="none" stroke="#bfbfbf" points="364.5,-596.5 364.5,-656.5 554.5,-656.5 554.5,-596.5 364.5,-596.5"/>
</a>
</g>
</g>
<!-- Node12&#45;&gt;Node7 -->
<g id="edge12_Node000007_Node000012" class="edge">
<title>Node12&#45;&gt;Node7</title>
<g id="a_edge12_Node000007_Node000012"><a xlink:title=" ">
<path fill="none" stroke="#63b8ff" d="M448.8,-596.49C434.49,-557.69 408.19,-486.39 384.64,-422.53"/>
<polygon fill="none" stroke="#63b8ff" points="384.58,-422.38 378.76,-418.13 380.43,-411.12 386.26,-415.36 384.58,-422.38"/>
</a>
</g>
<text text-anchor="middle" x="412.5" y="-437.5" font-family="Helvetica,sans-Serif" font-size="10.00" fill="grey"> #fouls</text>
</g>
<!-- Node13 -->
<g id="Node000013" class="node">
<title>Node13</title>
<g id="a_Node000013"><a xlink:title=" ">
<polygon fill="white" stroke="transparent" points="479.5,-918.5 425.5,-918.5 425.5,-869.5 479.5,-869.5 479.5,-918.5"/>
<text text-anchor="start" x="430.5" y="-906" font-family="Helvetica,sans-Serif" font-size="10.00">ArrayList</text>
<text text-anchor="start" x="450.5" y="-891" font-family="Helvetica,sans-Serif" font-size="10.00"> </text>
<text text-anchor="start" x="450.5" y="-876" font-family="Helvetica,sans-Serif" font-size="10.00"> </text>
<polygon fill="#bfbfbf" stroke="#bfbfbf" points="425.5,-901 425.5,-901 479.5,-901 479.5,-901 425.5,-901"/>
<polygon fill="#bfbfbf" stroke="#bfbfbf" points="425.5,-886 425.5,-886 479.5,-886 479.5,-886 425.5,-886"/>
<polygon fill="none" stroke="#bfbfbf" points="425.5,-869.5 425.5,-918.5 479.5,-918.5 479.5,-869.5 425.5,-869.5"/>
</a>
</g>
</g>
<!-- Node13&#45;&gt;Node12 -->
<g id="edge13_Node000012_Node000013" class="edge">
<title>Node13&#45;&gt;Node12</title>
<g id="a_edge13_Node000012_Node000013"><a xlink:title=" ">
<path fill="none" stroke="orange" d="M452.68,-859.32C452.82,-842.16 453.07,-820.97 453.5,-802 454.66,-750.78 456.9,-691.14 458.29,-656.52"/>
<polygon fill="orange" stroke="orange" points="449.18,-859.4 452.61,-869.43 456.18,-859.46 449.18,-859.4"/>
</a>
</g>
<text text-anchor="start" x="453.5" y="-827" font-family="Helvetica,sans-Serif" font-size="10.00" fill="grey"> &lt; es::alrodmue::model</text>
<text text-anchor="middle" x="511" y="-816" font-family="Helvetica,sans-Serif" font-size="10.00" fill="grey">::fouls::Foul &gt;</text>
</g>
</g>
</svg>
