<?xml version="1.0" encoding="UTF-8" standalone="no"?>
<!DOCTYPE svg PUBLIC "-//W3C//DTD SVG 1.1//EN"
 "http://www.w3.org/Graphics/SVG/1.1/DTD/svg11.dtd">
<!-- Generated by graphviz version 2.43.0 (0)
 -->
<!-- Title: es.alrodmue.model.matches.OfficialLocalMatch Pages: 1 -->
<svg width="768pt" height="995pt"
 viewBox="0.00 0.00 767.50 995.00" xmlns="http://www.w3.org/2000/svg" xmlns:xlink="http://www.w3.org/1999/xlink">
<g id="graph0" class="graph" transform="scale(1 1) rotate(0) translate(4 991)">
<title>es.alrodmue.model.matches.OfficialLocalMatch</title>
<!-- Node1 -->
<g id="Node000001" class="node">
<title>Node1</title>
<g id="a_Node000001"><a xlink:title=" ">
<polygon fill="#999999" stroke="transparent" points="292,-90 139,-90 139,0 292,0 292,-90"/>
<text text-anchor="start" x="144.5" y="-78" font-family="Helvetica,sans-Serif" font-size="10.00">es.alrodmue.model.matches.</text>
<text text-anchor="start" x="170.5" y="-67" font-family="Helvetica,sans-Serif" font-size="10.00">OfficialLocalMatch</text>
<text text-anchor="start" x="214" y="-52" font-family="Helvetica,sans-Serif" font-size="10.00"> </text>
<text text-anchor="start" x="151.5" y="-37" font-family="Helvetica,sans-Serif" font-size="10.00">+</text>
<text text-anchor="start" x="172.5" y="-37" font-family="Helvetica,sans-Serif" font-size="10.00">OfficialLocalMatch()</text>
<text text-anchor="start" x="151.5" y="-22" font-family="Helvetica,sans-Serif" font-size="10.00">+</text>
<text text-anchor="start" x="172.5" y="-22" font-family="Helvetica,sans-Serif" font-size="10.00">getType()</text>
<text text-anchor="start" x="151.5" y="-7" font-family="Helvetica,sans-Serif" font-size="10.00">#</text>
<text text-anchor="start" x="172.5" y="-7" font-family="Helvetica,sans-Serif" font-size="10.00">isOwnTeamWinner()</text>
<polygon fill="#666666" stroke="#666666" points="139.5,-62 139.5,-62 292.5,-62 292.5,-62 139.5,-62"/>
<polygon fill="#666666" stroke="#666666" points="139.5,-47 139.5,-47 292.5,-47 292.5,-47 139.5,-47"/>
<polygon fill="none" stroke="#666666" points="139,0 139,-90 292,-90 292,0 139,0"/>
</a>
</g>
</g>
<!-- Node2 -->
<g id="Node000002" class="node">
<title>Node2</title>
<g id="a_Node000002"><a xlink:href="classes_1_1alrodmue_1_1model_1_1matches_1_1Match.xhtml" target="_top" xlink:title=" ">
<polygon fill="white" stroke="transparent" points="292,-367 139,-367 139,-127 292,-127 292,-367"/>
<text text-anchor="start" x="144.5" y="-355" font-family="Helvetica,sans-Serif" font-size="10.00">es.alrodmue.model.matches.</text>
<text text-anchor="start" x="200.5" y="-344" font-family="Helvetica,sans-Serif" font-size="10.00">Match</text>
<text text-anchor="start" x="214" y="-329" font-family="Helvetica,sans-Serif" font-size="10.00"> </text>
<text text-anchor="start" x="151.5" y="-314" font-family="Helvetica,sans-Serif" font-size="10.00">+</text>
<text text-anchor="start" x="172.5" y="-314" font-family="Helvetica,sans-Serif" font-size="10.00">Match()</text>
<text text-anchor="start" x="151.5" y="-299" font-family="Helvetica,sans-Serif" font-size="10.00">+</text>
<text text-anchor="start" x="172.5" y="-299" font-family="Helvetica,sans-Serif" font-size="10.00">getDate()</text>
<text text-anchor="start" x="151.5" y="-284" font-family="Helvetica,sans-Serif" font-size="10.00">+</text>
<text text-anchor="start" x="172.5" y="-284" font-family="Helvetica,sans-Serif" font-size="10.00">getDetails()</text>
<text text-anchor="start" x="151.5" y="-269" font-family="Helvetica,sans-Serif" font-size="10.00">+</text>
<text text-anchor="start" x="172.5" y="-269" font-family="Helvetica,sans-Serif" font-size="10.00">getFouls()</text>
<text text-anchor="start" x="151.5" y="-254" font-family="Helvetica,sans-Serif" font-size="10.00">+</text>
<text text-anchor="start" x="172.5" y="-254" font-family="Helvetica,sans-Serif" font-size="10.00">getOwnPoints()</text>
<text text-anchor="start" x="151.5" y="-239" font-family="Helvetica,sans-Serif" font-size="10.00">+</text>
<text text-anchor="start" x="172.5" y="-239" font-family="Helvetica,sans-Serif" font-size="10.00">getPlayerPoints()</text>
<text text-anchor="start" x="151.5" y="-224" font-family="Helvetica,sans-Serif" font-size="10.00">+</text>
<text text-anchor="start" x="172.5" y="-224" font-family="Helvetica,sans-Serif" font-size="10.00">getPlayers()</text>
<text text-anchor="start" x="151.5" y="-209" font-family="Helvetica,sans-Serif" font-size="10.00">+</text>
<text text-anchor="start" x="172.5" y="-209" font-family="Helvetica,sans-Serif" font-size="10.00">getRivalPoints()</text>
<text text-anchor="start" x="151.5" y="-194" font-family="Helvetica,sans-Serif" font-size="10.00">+</text>
<text text-anchor="start" x="172.5" y="-194" font-family="Helvetica,sans-Serif" font-size="10.00">getType()</text>
<text text-anchor="start" x="151.5" y="-179" font-family="Helvetica,sans-Serif" font-size="10.00">+</text>
<text text-anchor="start" x="172.5" y="-179" font-family="Helvetica,sans-Serif" font-size="10.00">getWinner()</text>
<text text-anchor="start" x="151.5" y="-164" font-family="Helvetica,sans-Serif" font-size="10.00">+</text>
<text text-anchor="start" x="172.5" y="-164" font-family="Helvetica,sans-Serif" font-size="10.00">isDateValid()</text>
<text text-anchor="start" x="151.5" y="-149" font-family="Helvetica,sans-Serif" font-size="10.00">#</text>
<text text-anchor="start" x="172.5" y="-149" font-family="Helvetica,sans-Serif" font-size="10.00">isOwnTeamWinner()</text>
<text text-anchor="start" x="151.5" y="-134" font-family="Helvetica,sans-Serif" font-size="10.00">#</text>
<text text-anchor="start" x="172.5" y="-134" font-family="Helvetica,sans-Serif" font-size="10.00">calculatePoints()</text>
<polygon fill="#666666" stroke="#666666" points="139.5,-339 139.5,-339 292.5,-339 292.5,-339 139.5,-339"/>
<polygon fill="#666666" stroke="#666666" points="139.5,-324 139.5,-324 292.5,-324 292.5,-324 139.5,-324"/>
<polygon fill="none" stroke="#666666" points="139,-127 139,-367 292,-367 292,-127 139,-127"/>
</a>
</g>
</g>
<!-- Node2&#45;&gt;Node1 -->
<g id="edge1_Node000001_Node000002" class="edge">
<title>Node2&#45;&gt;Node1</title>
<g id="a_edge1_Node000001_Node000002"><a xlink:title=" ">
<path fill="none" stroke="#63b8ff" d="M215.5,-116.62C215.5,-107.37 215.5,-98.5 215.5,-90.35"/>
<polygon fill="none" stroke="#63b8ff" points="212,-116.77 215.5,-126.77 219,-116.77 212,-116.77"/>
</a>
</g>
</g>
<!-- Node3 -->
<g id="Node000003" class="node">
<title>Node3</title>
<g id="a_Node000003"><a xlink:title=" ">
<polygon fill="white" stroke="transparent" points="59,-607 0,-607 0,-558 59,-558 59,-607"/>
<text text-anchor="start" x="5.5" y="-594.5" font-family="Helvetica,sans-Serif" font-size="10.00">LocalDate</text>
<text text-anchor="start" x="28" y="-579.5" font-family="Helvetica,sans-Serif" font-size="10.00"> </text>
<text text-anchor="start" x="28" y="-564.5" font-family="Helvetica,sans-Serif" font-size="10.00"> </text>
<polygon fill="#666666" stroke="#666666" points="0.5,-589.5 0.5,-589.5 59.5,-589.5 59.5,-589.5 0.5,-589.5"/>
<polygon fill="#666666" stroke="#666666" points="0.5,-574.5 0.5,-574.5 59.5,-574.5 59.5,-574.5 0.5,-574.5"/>
<polygon fill="none" stroke="#666666" points="0,-558 0,-607 59,-607 59,-558 0,-558"/>
</a>
</g>
</g>
<!-- Node3&#45;&gt;Node2 -->
<g id="edge2_Node000002_Node000003" class="edge">
<title>Node3&#45;&gt;Node2</title>
<g id="a_edge2_Node000002_Node000003"><a xlink:title=" ">
<path fill="none" stroke="#63b8ff" d="M31.85,-557.8C35.74,-526.1 45.4,-468.81 67.5,-425 83.95,-392.39 107.47,-360.55 130.92,-333.07"/>
<polygon fill="none" stroke="#63b8ff" points="130.99,-332.99 131.91,-325.84 138.86,-323.93 137.95,-331.08 130.99,-332.99"/>
</a>
</g>
<text text-anchor="middle" x="107.5" y="-393.5" font-family="Helvetica,sans-Serif" font-size="10.00" fill="grey"> #date</text>
</g>
<!-- Node4 -->
<g id="Node000004" class="node">
<title>Node4</title>
<g id="a_Node000004"><a xlink:title=" ">
<polygon fill="white" stroke="transparent" points="124,-607 77,-607 77,-558 124,-558 124,-607"/>
<text text-anchor="start" x="82.5" y="-594.5" font-family="Helvetica,sans-Serif" font-size="10.00">final int</text>
<text text-anchor="start" x="99" y="-579.5" font-family="Helvetica,sans-Serif" font-size="10.00"> </text>
<text text-anchor="start" x="99" y="-564.5" font-family="Helvetica,sans-Serif" font-size="10.00"> </text>
<polygon fill="#666666" stroke="#666666" points="77.5,-589.5 77.5,-589.5 124.5,-589.5 124.5,-589.5 77.5,-589.5"/>
<polygon fill="#666666" stroke="#666666" points="77.5,-574.5 77.5,-574.5 124.5,-574.5 124.5,-574.5 77.5,-574.5"/>
<polygon fill="none" stroke="#666666" points="77,-558 77,-607 124,-607 124,-558 77,-558"/>
</a>
</g>
</g>
<!-- Node4&#45;&gt;Node2 -->
<g id="edge3_Node000002_Node000004" class="edge">
<title>Node4&#45;&gt;Node2</title>
<g id="a_edge3_Node000002_Node000004"><a xlink:title=" ">
<path fill="none" stroke="#63b8ff" d="M103.83,-557.8C108.53,-526.81 118.16,-471.07 132.5,-425 137.29,-409.61 143.16,-393.85 149.54,-378.37"/>
<polygon fill="none" stroke="#63b8ff" points="149.6,-378.22 148.25,-371.14 154.27,-367.16 155.62,-374.25 149.6,-378.22"/>
</a>
</g>
<text text-anchor="middle" x="176.5" y="-399" font-family="Helvetica,sans-Serif" font-size="10.00" fill="grey"> #ownPoints</text>
<text text-anchor="middle" x="176.5" y="-388" font-family="Helvetica,sans-Serif" font-size="10.00" fill="grey">#rivalPoints</text>
</g>
<!-- Node5 -->
<g id="Node000005" class="node">
<title>Node5</title>
<g id="a_Node000005"><a xlink:href="classes_1_1alrodmue_1_1model_1_1players_1_1Player.xhtml" target="_top" xlink:title=" ">
<polygon fill="white" stroke="transparent" points="289,-740 142,-740 142,-425 289,-425 289,-740"/>
<text text-anchor="start" x="147.5" y="-727.5" font-family="Helvetica,sans-Serif" font-size="10.00">es.alrodmue.model.players.</text>
<text text-anchor="start" x="200.5" y="-716.5" font-family="Helvetica,sans-Serif" font-size="10.00">Player</text>
<text text-anchor="start" x="214" y="-701.5" font-family="Helvetica,sans-Serif" font-size="10.00"> </text>
<text text-anchor="start" x="158" y="-686.5" font-family="Helvetica,sans-Serif" font-size="10.00">+</text>
<text text-anchor="start" x="182.5" y="-686.5" font-family="Helvetica,sans-Serif" font-size="10.00">Player()</text>
<text text-anchor="start" x="158" y="-671.5" font-family="Helvetica,sans-Serif" font-size="10.00">+</text>
<text text-anchor="start" x="182.5" y="-671.5" font-family="Helvetica,sans-Serif" font-size="10.00">addFoul()</text>
<text text-anchor="start" x="158" y="-656.5" font-family="Helvetica,sans-Serif" font-size="10.00">+</text>
<text text-anchor="start" x="182.5" y="-656.5" font-family="Helvetica,sans-Serif" font-size="10.00">addPoints()</text>
<text text-anchor="start" x="158" y="-641.5" font-family="Helvetica,sans-Serif" font-size="10.00">+</text>
<text text-anchor="start" x="182.5" y="-641.5" font-family="Helvetica,sans-Serif" font-size="10.00">getDetail()</text>
<text text-anchor="start" x="158" y="-626.5" font-family="Helvetica,sans-Serif" font-size="10.00">+</text>
<text text-anchor="start" x="182.5" y="-626.5" font-family="Helvetica,sans-Serif" font-size="10.00">getFouls()</text>
<text text-anchor="start" x="158" y="-611.5" font-family="Helvetica,sans-Serif" font-size="10.00">+</text>
<text text-anchor="start" x="182.5" y="-611.5" font-family="Helvetica,sans-Serif" font-size="10.00">getHeight()</text>
<text text-anchor="start" x="158" y="-596.5" font-family="Helvetica,sans-Serif" font-size="10.00">+</text>
<text text-anchor="start" x="182.5" y="-596.5" font-family="Helvetica,sans-Serif" font-size="10.00">getName()</text>
<text text-anchor="start" x="158" y="-581.5" font-family="Helvetica,sans-Serif" font-size="10.00">+</text>
<text text-anchor="start" x="182.5" y="-581.5" font-family="Helvetica,sans-Serif" font-size="10.00">getNumber()</text>
<text text-anchor="start" x="158" y="-566.5" font-family="Helvetica,sans-Serif" font-size="10.00">+</text>
<text text-anchor="start" x="182.5" y="-566.5" font-family="Helvetica,sans-Serif" font-size="10.00">getPoints()</text>
<text text-anchor="start" x="158" y="-551.5" font-family="Helvetica,sans-Serif" font-size="10.00">+</text>
<text text-anchor="start" x="182.5" y="-551.5" font-family="Helvetica,sans-Serif" font-size="10.00">getSkill()</text>
<text text-anchor="start" x="158" y="-536.5" font-family="Helvetica,sans-Serif" font-size="10.00">+</text>
<text text-anchor="start" x="182.5" y="-536.5" font-family="Helvetica,sans-Serif" font-size="10.00">getType()</text>
<text text-anchor="start" x="158" y="-521.5" font-family="Helvetica,sans-Serif" font-size="10.00">+</text>
<text text-anchor="start" x="182.5" y="-521.5" font-family="Helvetica,sans-Serif" font-size="10.00">toString()</text>
<text text-anchor="start" x="158" y="-506.5" font-family="Helvetica,sans-Serif" font-size="10.00">+</text>
<text text-anchor="start" x="182.5" y="-506.5" font-family="Helvetica,sans-Serif" font-size="10.00">arePointsValid()</text>
<text text-anchor="start" x="158" y="-491.5" font-family="Helvetica,sans-Serif" font-size="10.00">+</text>
<text text-anchor="start" x="182.5" y="-491.5" font-family="Helvetica,sans-Serif" font-size="10.00">isFoulValid()</text>
<text text-anchor="start" x="158" y="-476.5" font-family="Helvetica,sans-Serif" font-size="10.00">+</text>
<text text-anchor="start" x="182.5" y="-476.5" font-family="Helvetica,sans-Serif" font-size="10.00">isHeightValid()</text>
<text text-anchor="start" x="158" y="-461.5" font-family="Helvetica,sans-Serif" font-size="10.00">+</text>
<text text-anchor="start" x="182.5" y="-461.5" font-family="Helvetica,sans-Serif" font-size="10.00">isNameValid()</text>
<text text-anchor="start" x="158" y="-446.5" font-family="Helvetica,sans-Serif" font-size="10.00">+</text>
<text text-anchor="start" x="182.5" y="-446.5" font-family="Helvetica,sans-Serif" font-size="10.00">isNumberValid()</text>
<text text-anchor="start" x="158" y="-431.5" font-family="Helvetica,sans-Serif" font-size="10.00">+</text>
<text text-anchor="start" x="182.5" y="-431.5" font-family="Helvetica,sans-Serif" font-size="10.00">isSkillValid()</text>
<polygon fill="#666666" stroke="#666666" points="142.5,-711.5 142.5,-711.5 289.5,-711.5 289.5,-711.5 142.5,-711.5"/>
<polygon fill="#666666" stroke="#666666" points="142.5,-696.5 142.5,-696.5 289.5,-696.5 289.5,-696.5 142.5,-696.5"/>
<polygon fill="none" stroke="#666666" points="142,-425 142,-740 289,-740 289,-425 142,-425"/>
</a>
</g>
</g>
<!-- Node5&#45;&gt;Node2 -->
<g id="edge4_Node000002_Node000005" class="edge">
<title>Node5&#45;&gt;Node2</title>
<g id="a_edge4_Node000002_Node000005"><a xlink:title=" ">
<path fill="none" stroke="#63b8ff" d="M215.5,-424.52C215.5,-409.47 215.5,-394.32 215.5,-379.55"/>
<polygon fill="none" stroke="#63b8ff" points="215.5,-379.25 211.5,-373.25 215.5,-367.25 219.5,-373.25 215.5,-379.25"/>
</a>
</g>
<text text-anchor="middle" x="245.5" y="-393.5" font-family="Helvetica,sans-Serif" font-size="10.00" fill="grey"> #playerList</text>
</g>
<!-- Node6 -->
<g id="Node000006" class="node">
<title>Node6</title>
<g id="a_Node000006"><a xlink:title=" ">
<polygon fill="white" stroke="transparent" points="86,-874.5 33,-874.5 33,-825.5 86,-825.5 86,-874.5"/>
<text text-anchor="start" x="38.5" y="-862" font-family="Helvetica,sans-Serif" font-size="10.00">static int</text>
<text text-anchor="start" x="58" y="-847" font-family="Helvetica,sans-Serif" font-size="10.00"> </text>
<text text-anchor="start" x="58" y="-832" font-family="Helvetica,sans-Serif" font-size="10.00"> </text>
<polygon fill="#666666" stroke="#666666" points="33.5,-857 33.5,-857 86.5,-857 86.5,-857 33.5,-857"/>
<polygon fill="#666666" stroke="#666666" points="33.5,-842 33.5,-842 86.5,-842 86.5,-842 33.5,-842"/>
<polygon fill="none" stroke="#666666" points="33,-825.5 33,-874.5 86,-874.5 86,-825.5 33,-825.5"/>
</a>
</g>
</g>
<!-- Node6&#45;&gt;Node5 -->
<g id="edge5_Node000005_Node000006" class="edge">
<title>Node6&#45;&gt;Node5</title>
<g id="a_edge5_Node000005_Node000006"><a xlink:title=" ">
<path fill="none" stroke="#63b8ff" d="M59.25,-825.23C60.29,-804.98 64.94,-776.34 81.5,-758 97.61,-740.16 114.29,-755.69 132.5,-740 132.7,-739.82 132.91,-739.65 133.11,-739.47"/>
<polygon fill="none" stroke="#63b8ff" points="133.24,-739.35 134.85,-732.32 141.96,-731.11 140.35,-738.14 133.24,-739.35"/>
</a>
</g>
<text text-anchor="middle" x="115.5" y="-777.5" font-family="Helvetica,sans-Serif" font-size="10.00" fill="grey"> &#45;nextNumber</text>
</g>
<!-- Node7 -->
<g id="Node000007" class="node">
<title>Node7</title>
<g id="a_Node000007"><a xlink:title=" ">
<polygon fill="white" stroke="transparent" points="170,-874.5 131,-874.5 131,-825.5 170,-825.5 170,-874.5"/>
<text text-anchor="start" x="136.5" y="-862" font-family="Helvetica,sans-Serif" font-size="10.00">String</text>
<text text-anchor="start" x="149" y="-847" font-family="Helvetica,sans-Serif" font-size="10.00"> </text>
<text text-anchor="start" x="149" y="-832" font-family="Helvetica,sans-Serif" font-size="10.00"> </text>
<polygon fill="#666666" stroke="#666666" points="131.5,-857 131.5,-857 170.5,-857 170.5,-857 131.5,-857"/>
<polygon fill="#666666" stroke="#666666" points="131.5,-842 131.5,-842 170.5,-842 170.5,-842 131.5,-842"/>
<polygon fill="none" stroke="#666666" points="131,-825.5 131,-874.5 170,-874.5 170,-825.5 131,-825.5"/>
</a>
</g>
</g>
<!-- Node7&#45;&gt;Node5 -->
<g id="edge6_Node000005_Node000007" class="edge">
<title>Node7&#45;&gt;Node5</title>
<g id="a_edge6_Node000005_Node000007"><a xlink:title=" ">
<path fill="none" stroke="#63b8ff" d="M151.47,-825.22C152.56,-806.74 154.82,-780.54 159.5,-758 159.92,-755.97 160.36,-753.92 160.81,-751.87"/>
<polygon fill="none" stroke="#63b8ff" points="160.84,-751.73 158.29,-744.99 163.54,-740.04 166.09,-746.78 160.84,-751.73"/>
</a>
</g>
<text text-anchor="middle" x="179.5" y="-777.5" font-family="Helvetica,sans-Serif" font-size="10.00" fill="grey"> #name</text>
</g>
<!-- Node8 -->
<g id="Node000008" class="node">
<title>Node8</title>
<g id="a_Node000008"><a xlink:title=" ">
<polygon fill="white" stroke="transparent" points="211,-874.5 188,-874.5 188,-825.5 211,-825.5 211,-874.5"/>
<text text-anchor="start" x="193.5" y="-862" font-family="Helvetica,sans-Serif" font-size="10.00">int</text>
<text text-anchor="start" x="198" y="-847" font-family="Helvetica,sans-Serif" font-size="10.00"> </text>
<text text-anchor="start" x="198" y="-832" font-family="Helvetica,sans-Serif" font-size="10.00"> </text>
<polygon fill="#666666" stroke="#666666" points="188.5,-857 188.5,-857 211.5,-857 211.5,-857 188.5,-857"/>
<polygon fill="#666666" stroke="#666666" points="188.5,-842 188.5,-842 211.5,-842 211.5,-842 188.5,-842"/>
<polygon fill="none" stroke="#666666" points="188,-825.5 188,-874.5 211,-874.5 211,-825.5 188,-825.5"/>
</a>
</g>
</g>
<!-- Node8&#45;&gt;Node5 -->
<g id="edge7_Node000005_Node000008" class="edge">
<title>Node8&#45;&gt;Node5</title>
<g id="a_edge7_Node000005_Node000008"><a xlink:title=" ">
<path fill="none" stroke="#63b8ff" d="M200.92,-825.44C202,-807.54 203.59,-781.13 205.33,-752.27"/>
<polygon fill="none" stroke="#63b8ff" points="205.33,-752.2 201.7,-745.97 206.06,-740.22 209.69,-746.45 205.33,-752.2"/>
</a>
</g>
<text text-anchor="middle" x="228.5" y="-794" font-family="Helvetica,sans-Serif" font-size="10.00" fill="grey"> #height</text>
<text text-anchor="middle" x="228.5" y="-783" font-family="Helvetica,sans-Serif" font-size="10.00" fill="grey">#number</text>
<text text-anchor="middle" x="228.5" y="-772" font-family="Helvetica,sans-Serif" font-size="10.00" fill="grey">#points</text>
<text text-anchor="middle" x="228.5" y="-761" font-family="Helvetica,sans-Serif" font-size="10.00" fill="grey">#skill</text>
</g>
<!-- Node9 -->
<g id="Node000009" class="node">
<title>Node9</title>
<g id="a_Node000009"><a xlink:title=" ">
<polygon fill="white" stroke="transparent" points="448,-880 229,-880 229,-820 448,-820 448,-880"/>
<text text-anchor="start" x="234.5" y="-868" font-family="Helvetica,sans-Serif" font-size="10.00">ObservableList&lt; es.alrodmue.model.fouls.</text>
<text text-anchor="start" x="323" y="-857" font-family="Helvetica,sans-Serif" font-size="10.00">Foul &gt;</text>
<text text-anchor="start" x="337" y="-842" font-family="Helvetica,sans-Serif" font-size="10.00"> </text>
<text text-anchor="start" x="337" y="-827" font-family="Helvetica,sans-Serif" font-size="10.00"> </text>
<polygon fill="#666666" stroke="#666666" points="229.5,-852 229.5,-852 448.5,-852 448.5,-852 229.5,-852"/>
<polygon fill="#666666" stroke="#666666" points="229.5,-837 229.5,-837 448.5,-837 448.5,-837 229.5,-837"/>
<polygon fill="none" stroke="#666666" points="229,-820 229,-880 448,-880 448,-820 229,-820"/>
</a>
</g>
</g>
<!-- Node9&#45;&gt;Node5 -->
<g id="edge8_Node000005_Node000009" class="edge">
<title>Node9&#45;&gt;Node5</title>
<g id="a_edge8_Node000005_Node000009"><a xlink:title=" ">
<path fill="none" stroke="#63b8ff" d="M324.99,-819.83C316.73,-802.01 305.43,-777.62 293.22,-751.25"/>
<polygon fill="none" stroke="#63b8ff" points="293.16,-751.14 287.01,-747.38 288.12,-740.25 294.27,-744.02 293.16,-751.14"/>
</a>
</g>
<text text-anchor="middle" x="333.5" y="-777.5" font-family="Helvetica,sans-Serif" font-size="10.00" fill="grey"> #fouls</text>
</g>
<!-- Node10 -->
<g id="Node000010" class="node">
<title>Node10</title>
<g id="a_Node000010"><a xlink:title=" ">
<polygon fill="white" stroke="transparent" points="380,-987 297,-987 297,-938 380,-938 380,-987"/>
<text text-anchor="start" x="302.5" y="-974.5" font-family="Helvetica,sans-Serif" font-size="10.00">ObservableList</text>
<text text-anchor="start" x="337" y="-959.5" font-family="Helvetica,sans-Serif" font-size="10.00"> </text>
<text text-anchor="start" x="337" y="-944.5" font-family="Helvetica,sans-Serif" font-size="10.00"> </text>
<polygon fill="#666666" stroke="#666666" points="297.5,-969.5 297.5,-969.5 380.5,-969.5 380.5,-969.5 297.5,-969.5"/>
<polygon fill="#666666" stroke="#666666" points="297.5,-954.5 297.5,-954.5 380.5,-954.5 380.5,-954.5 297.5,-954.5"/>
<polygon fill="none" stroke="#666666" points="297,-938 297,-987 380,-987 380,-938 297,-938"/>
</a>
</g>
</g>
<!-- Node10&#45;&gt;Node9 -->
<g id="edge9_Node000009_Node000010" class="edge">
<title>Node10&#45;&gt;Node9</title>
<g id="a_edge9_Node000009_Node000010"><a xlink:title=" ">
<path fill="none" stroke="orange" d="M338.5,-927.75C338.5,-912.56 338.5,-894.79 338.5,-880.17"/>
<polygon fill="orange" stroke="orange" points="335,-927.79 338.5,-937.79 342,-927.8 335,-927.79"/>
</a>
</g>
<text text-anchor="start" x="338.5" y="-912" font-family="Helvetica,sans-Serif" font-size="10.00" fill="grey"> &lt; es::alrodmue::model</text>
<text text-anchor="middle" x="396" y="-901" font-family="Helvetica,sans-Serif" font-size="10.00" fill="grey">::fouls::Foul &gt;</text>
</g>
<!-- Node11 -->
<g id="Node000011" class="node">
<title>Node11</title>
<g id="a_Node000011"><a xlink:title=" ">
<polygon fill="white" stroke="transparent" points="524.5,-612.5 320.5,-612.5 320.5,-552.5 524.5,-552.5 524.5,-612.5"/>
<text text-anchor="start" x="325.5" y="-600.5" font-family="Helvetica,sans-Serif" font-size="10.00">HashMap&lt; es.alrodmue.model.players.</text>
<text text-anchor="start" x="381" y="-589.5" font-family="Helvetica,sans-Serif" font-size="10.00">Player, Integer &gt;</text>
<text text-anchor="start" x="420.5" y="-574.5" font-family="Helvetica,sans-Serif" font-size="10.00"> </text>
<text text-anchor="start" x="420.5" y="-559.5" font-family="Helvetica,sans-Serif" font-size="10.00"> </text>
<polygon fill="#666666" stroke="#666666" points="320.5,-584.5 320.5,-584.5 524.5,-584.5 524.5,-584.5 320.5,-584.5"/>
<polygon fill="#666666" stroke="#666666" points="320.5,-569.5 320.5,-569.5 524.5,-569.5 524.5,-569.5 320.5,-569.5"/>
<polygon fill="none" stroke="#666666" points="320.5,-552.5 320.5,-612.5 524.5,-612.5 524.5,-552.5 320.5,-552.5"/>
</a>
</g>
</g>
<!-- Node11&#45;&gt;Node2 -->
<g id="edge10_Node000002_Node000011" class="edge">
<title>Node11&#45;&gt;Node2</title>
<g id="a_edge10_Node000002_Node000011"><a xlink:title=" ">
<path fill="none" stroke="#63b8ff" d="M404.49,-552.49C380.26,-513.45 335.6,-441.5 295.78,-377.34"/>
<polygon fill="none" stroke="#63b8ff" points="295.76,-377.31 289.2,-374.32 289.43,-367.12 296,-370.1 295.76,-377.31"/>
</a>
</g>
<text text-anchor="middle" x="350" y="-393.5" font-family="Helvetica,sans-Serif" font-size="10.00" fill="grey"> #playerPoints</text>
</g>
<!-- Node12 -->
<g id="Node000012" class="node">
<title>Node12</title>
<g id="a_Node000012"><a xlink:title=" ">
<polygon fill="white" stroke="transparent" points="522.5,-874.5 466.5,-874.5 466.5,-825.5 522.5,-825.5 522.5,-874.5"/>
<text text-anchor="start" x="471.5" y="-862" font-family="Helvetica,sans-Serif" font-size="10.00">HashMap</text>
<text text-anchor="start" x="492.5" y="-847" font-family="Helvetica,sans-Serif" font-size="10.00"> </text>
<text text-anchor="start" x="492.5" y="-832" font-family="Helvetica,sans-Serif" font-size="10.00"> </text>
<polygon fill="#666666" stroke="#666666" points="466.5,-857 466.5,-857 522.5,-857 522.5,-857 466.5,-857"/>
<polygon fill="#666666" stroke="#666666" points="466.5,-842 466.5,-842 522.5,-842 522.5,-842 466.5,-842"/>
<polygon fill="none" stroke="#666666" points="466.5,-825.5 466.5,-874.5 522.5,-874.5 522.5,-825.5 466.5,-825.5"/>
</a>
</g>
</g>
<!-- Node12&#45;&gt;Node11 -->
<g id="edge11_Node000011_Node000012" class="edge">
<title>Node12&#45;&gt;Node11</title>
<g id="a_edge11_Node000011_Node000012"><a xlink:title=" ">
<path fill="none" stroke="orange" d="M485.45,-815.62C471.22,-763.15 443.86,-662.25 430.39,-612.58"/>
<polygon fill="orange" stroke="orange" points="482.12,-816.7 488.11,-825.44 488.87,-814.87 482.12,-816.7"/>
</a>
</g>
<text text-anchor="start" x="481.5" y="-783" font-family="Helvetica,sans-Serif" font-size="10.00" fill="grey"> &lt; es::alrodmue::model</text>
<text text-anchor="middle" x="547" y="-772" font-family="Helvetica,sans-Serif" font-size="10.00" fill="grey">::players::Player, Integer &gt;</text>
</g>
<!-- Node13 -->
<g id="Node000013" class="node">
<title>Node13</title>
<g id="a_Node000013"><a xlink:title=" ">
<polygon fill="white" stroke="transparent" points="738.5,-612.5 548.5,-612.5 548.5,-552.5 738.5,-552.5 738.5,-612.5"/>
<text text-anchor="start" x="553.5" y="-600.5" font-family="Helvetica,sans-Serif" font-size="10.00">ArrayList&lt; es.alrodmue.model.fouls.</text>
<text text-anchor="start" x="627.5" y="-589.5" font-family="Helvetica,sans-Serif" font-size="10.00">Foul &gt;</text>
<text text-anchor="start" x="641.5" y="-574.5" font-family="Helvetica,sans-Serif" font-size="10.00"> </text>
<text text-anchor="start" x="641.5" y="-559.5" font-family="Helvetica,sans-Serif" font-size="10.00"> </text>
<polygon fill="#666666" stroke="#666666" points="548.5,-584.5 548.5,-584.5 738.5,-584.5 738.5,-584.5 548.5,-584.5"/>
<polygon fill="#666666" stroke="#666666" points="548.5,-569.5 548.5,-569.5 738.5,-569.5 738.5,-569.5 548.5,-569.5"/>
<polygon fill="none" stroke="#666666" points="548.5,-552.5 548.5,-612.5 738.5,-612.5 738.5,-552.5 548.5,-552.5"/>
</a>
</g>
</g>
<!-- Node13&#45;&gt;Node2 -->
<g id="edge12_Node000002_Node000013" class="edge">
<title>Node13&#45;&gt;Node2</title>
<g id="a_edge12_Node000002_Node000013"><a xlink:title=" ">
<path fill="none" stroke="#63b8ff" d="M628.31,-552.27C609.58,-518.4 575.09,-462.44 533.5,-425 465,-363.33 371.31,-314.47 303.38,-283.84"/>
<polygon fill="none" stroke="#63b8ff" points="303.24,-283.78 296.13,-284.99 292.28,-278.9 299.39,-277.69 303.24,-283.78"/>
</a>
</g>
<text text-anchor="middle" x="529.5" y="-393.5" font-family="Helvetica,sans-Serif" font-size="10.00" fill="grey"> #fouls</text>
</g>
<!-- Node14 -->
<g id="Node000014" class="node">
<title>Node14</title>
<g id="a_Node000014"><a xlink:title=" ">
<polygon fill="white" stroke="transparent" points="672.5,-874.5 618.5,-874.5 618.5,-825.5 672.5,-825.5 672.5,-874.5"/>
<text text-anchor="start" x="623.5" y="-862" font-family="Helvetica,sans-Serif" font-size="10.00">ArrayList</text>
<text text-anchor="start" x="643.5" y="-847" font-family="Helvetica,sans-Serif" font-size="10.00"> </text>
<text text-anchor="start" x="643.5" y="-832" font-family="Helvetica,sans-Serif" font-size="10.00"> </text>
<polygon fill="#666666" stroke="#666666" points="618.5,-857 618.5,-857 672.5,-857 672.5,-857 618.5,-857"/>
<polygon fill="#666666" stroke="#666666" points="618.5,-842 618.5,-842 672.5,-842 672.5,-842 618.5,-842"/>
<polygon fill="none" stroke="#666666" points="618.5,-825.5 618.5,-874.5 672.5,-874.5 672.5,-825.5 618.5,-825.5"/>
</a>
</g>
</g>
<!-- Node14&#45;&gt;Node13 -->
<g id="edge13_Node000013_Node000014" class="edge">
<title>Node14&#45;&gt;Node13</title>
<g id="a_edge13_Node000013_Node000014"><a xlink:title=" ">
<path fill="none" stroke="orange" d="M645.25,-815.29C644.85,-762.73 644.09,-662.15 643.72,-612.58"/>
<polygon fill="orange" stroke="orange" points="641.75,-815.47 645.32,-825.44 648.75,-815.41 641.75,-815.47"/>
</a>
</g>
<text text-anchor="start" x="644.5" y="-783" font-family="Helvetica,sans-Serif" font-size="10.00" fill="grey"> &lt; es::alrodmue::model</text>
<text text-anchor="middle" x="702" y="-772" font-family="Helvetica,sans-Serif" font-size="10.00" fill="grey">::fouls::Foul &gt;</text>
</g>
</g>
</svg>
