<?xml version="1.0" encoding="UTF-8" standalone="no"?>
<!DOCTYPE svg PUBLIC "-//W3C//DTD SVG 1.1//EN"
 "http://www.w3.org/Graphics/SVG/1.1/DTD/svg11.dtd">
<!-- Generated by graphviz version 2.43.0 (0)
 -->
<!-- Title: es.alrodmue.model.exceptions.TeamInvalidDataException Pages: 1 -->
<svg width="386pt" height="249pt"
 viewBox="0.00 0.00 385.50 249.00" xmlns="http://www.w3.org/2000/svg" xmlns:xlink="http://www.w3.org/1999/xlink">
<g id="graph0" class="graph" transform="scale(1 1) rotate(0) translate(4 245)">
<title>es.alrodmue.model.exceptions.TeamInvalidDataException</title>
<!-- Node1 -->
<g id="Node000001" class="node">
<title>Node1</title>
<g id="a_Node000001"><a xlink:title=" ">
<polygon fill="#999999" stroke="transparent" points="265.5,-156 101.5,-156 101.5,-96 265.5,-96 265.5,-156"/>
<text text-anchor="start" x="106.5" y="-144" font-family="Helvetica,sans-Serif" font-size="10.00">es.alrodmue.model.exceptions.</text>
<text text-anchor="start" x="118" y="-133" font-family="Helvetica,sans-Serif" font-size="10.00">TeamInvalidDataException</text>
<text text-anchor="start" x="181.5" y="-118" font-family="Helvetica,sans-Serif" font-size="10.00"> </text>
<text text-anchor="start" x="106.5" y="-103" font-family="Helvetica,sans-Serif" font-size="10.00">+</text>
<text text-anchor="start" x="120.5" y="-103" font-family="Helvetica,sans-Serif" font-size="10.00">TeamInvalidDataException()</text>
<polygon fill="#666666" stroke="#666666" points="101.5,-128 101.5,-128 265.5,-128 265.5,-128 101.5,-128"/>
<polygon fill="#666666" stroke="#666666" points="101.5,-113 101.5,-113 265.5,-113 265.5,-113 101.5,-113"/>
<polygon fill="none" stroke="#666666" points="101.5,-96 101.5,-156 265.5,-156 265.5,-96 101.5,-96"/>
</a>
</g>
</g>
<!-- Node3 -->
<g id="Node000003" class="node">
<title>Node3</title>
<g id="a_Node000003"><a xlink:href="classes_1_1alrodmue_1_1model_1_1exceptions_1_1TeamPlayerListFullException.xhtml" target="_top" xlink:title=" ">
<polygon fill="white" stroke="transparent" points="169,-60 0,-60 0,0 169,0 169,-60"/>
<text text-anchor="start" x="8" y="-48" font-family="Helvetica,sans-Serif" font-size="10.00">es.alrodmue.model.exceptions.</text>
<text text-anchor="start" x="15" y="-37" font-family="Helvetica,sans-Serif" font-size="10.00">TeamPlayerListFullException</text>
<text text-anchor="start" x="83" y="-22" font-family="Helvetica,sans-Serif" font-size="10.00"> </text>
<text text-anchor="start" x="4.5" y="-7" font-family="Helvetica,sans-Serif" font-size="10.00">+</text>
<text text-anchor="start" x="17.5" y="-7" font-family="Helvetica,sans-Serif" font-size="10.00">TeamPlayerListFullException()</text>
<polygon fill="#666666" stroke="#666666" points="0.5,-32 0.5,-32 169.5,-32 169.5,-32 0.5,-32"/>
<polygon fill="#666666" stroke="#666666" points="0.5,-17 0.5,-17 169.5,-17 169.5,-17 0.5,-17"/>
<polygon fill="none" stroke="#666666" points="0,0 0,-60 169,-60 169,0 0,0"/>
</a>
</g>
</g>
<!-- Node1&#45;&gt;Node3 -->
<g id="edge2_Node000001_Node000003" class="edge">
<title>Node1&#45;&gt;Node3</title>
<g id="a_edge2_Node000001_Node000003"><a xlink:title=" ">
<path fill="none" stroke="#63b8ff" d="M145.27,-88.7C135.34,-79.27 124.76,-69.23 115.26,-60.21"/>
<polygon fill="none" stroke="#63b8ff" points="143.06,-91.43 152.72,-95.77 147.88,-86.35 143.06,-91.43"/>
</a>
</g>
</g>
<!-- Node4 -->
<g id="Node000004" class="node">
<title>Node4</title>
<g id="a_Node000004"><a xlink:href="classes_1_1alrodmue_1_1model_1_1exceptions_1_1TeamPlayerPositionFullException.xhtml" target="_top" xlink:title=" ">
<polygon fill="white" stroke="transparent" points="377.5,-60 187.5,-60 187.5,0 377.5,0 377.5,-60"/>
<text text-anchor="start" x="201.5" y="-48" font-family="Helvetica,sans-Serif" font-size="10.00">es.alrodmue.model.exceptions.</text>
<text text-anchor="start" x="201.5" y="-37" font-family="Helvetica,sans-Serif" font-size="10.00">TeamPlayerPositionFullException</text>
<text text-anchor="start" x="280.5" y="-22" font-family="Helvetica,sans-Serif" font-size="10.00"> </text>
<text text-anchor="start" x="191.5" y="-7" font-family="Helvetica,sans-Serif" font-size="10.00">+</text>
<text text-anchor="start" x="204.5" y="-7" font-family="Helvetica,sans-Serif" font-size="10.00">TeamPlayerPositionFullException()</text>
<polygon fill="#666666" stroke="#666666" points="187.5,-32 187.5,-32 377.5,-32 377.5,-32 187.5,-32"/>
<polygon fill="#666666" stroke="#666666" points="187.5,-17 187.5,-17 377.5,-17 377.5,-17 187.5,-17"/>
<polygon fill="none" stroke="#666666" points="187.5,0 187.5,-60 377.5,-60 377.5,0 187.5,0"/>
</a>
</g>
</g>
<!-- Node1&#45;&gt;Node4 -->
<g id="edge3_Node000001_Node000004" class="edge">
<title>Node1&#45;&gt;Node4</title>
<g id="a_edge3_Node000001_Node000004"><a xlink:title=" ">
<path fill="none" stroke="#63b8ff" d="M221.73,-88.7C231.66,-79.27 242.24,-69.23 251.74,-60.21"/>
<polygon fill="none" stroke="#63b8ff" points="219.12,-86.35 214.28,-95.77 223.94,-91.43 219.12,-86.35"/>
</a>
</g>
</g>
<!-- Node2 -->
<g id="Node000002" class="node">
<title>Node2</title>
<g id="a_Node000002"><a xlink:href="classException.xhtml" target="_top" xlink:title=" ">
<polygon fill="white" stroke="transparent" points="213,-241 154,-241 154,-192 213,-192 213,-241"/>
<text text-anchor="start" x="159.5" y="-228.5" font-family="Helvetica,sans-Serif" font-size="10.00">Exception</text>
<text text-anchor="start" x="182" y="-213.5" font-family="Helvetica,sans-Serif" font-size="10.00"> </text>
<text text-anchor="start" x="182" y="-198.5" font-family="Helvetica,sans-Serif" font-size="10.00"> </text>
<polygon fill="#666666" stroke="#666666" points="154.5,-223.5 154.5,-223.5 213.5,-223.5 213.5,-223.5 154.5,-223.5"/>
<polygon fill="#666666" stroke="#666666" points="154.5,-208.5 154.5,-208.5 213.5,-208.5 213.5,-208.5 154.5,-208.5"/>
<polygon fill="none" stroke="#666666" points="154,-192 154,-241 213,-241 213,-192 154,-192"/>
</a>
</g>
</g>
<!-- Node2&#45;&gt;Node1 -->
<g id="edge1_Node000001_Node000002" class="edge">
<title>Node2&#45;&gt;Node1</title>
<g id="a_edge1_Node000001_Node000002"><a xlink:title=" ">
<path fill="none" stroke="#63b8ff" d="M183.5,-181.55C183.5,-173.18 183.5,-164.28 183.5,-156.16"/>
<polygon fill="none" stroke="#63b8ff" points="180,-181.78 183.5,-191.78 187,-181.78 180,-181.78"/>
</a>
</g>
</g>
</g>
</svg>
