<?xml version="1.0" encoding="UTF-8" standalone="no"?>
<!DOCTYPE svg PUBLIC "-//W3C//DTD SVG 1.1//EN"
 "http://www.w3.org/Graphics/SVG/1.1/DTD/svg11.dtd">
<!-- Generated by graphviz version 2.43.0 (0)
 -->
<!-- Title: es.alrodmue.model.players.Player Pages: 1 -->
<svg width="815pt" height="524pt"
 viewBox="0.00 0.00 815.00 524.00" xmlns="http://www.w3.org/2000/svg" xmlns:xlink="http://www.w3.org/1999/xlink">
<g id="graph0" class="graph" transform="scale(1 1) rotate(0) translate(4 520)">
<title>es.alrodmue.model.players.Player</title>
<!-- Node1 -->
<g id="Node000001" class="node">
<title>Node1</title>
<g id="a_Node000001"><a xlink:title=" ">
<polygon fill="#999999" stroke="transparent" points="477,-516 330,-516 330,-111 477,-111 477,-516"/>
<text text-anchor="start" x="335.5" y="-503.5" font-family="Helvetica,sans-Serif" font-size="10.00">es.alrodmue.model.players.</text>
<text text-anchor="start" x="388.5" y="-492.5" font-family="Helvetica,sans-Serif" font-size="10.00">Player</text>
<text text-anchor="start" x="346" y="-477.5" font-family="Helvetica,sans-Serif" font-size="10.00">#</text>
<text text-anchor="start" x="370.5" y="-477.5" font-family="Helvetica,sans-Serif" font-size="10.00">fouls</text>
<text text-anchor="start" x="346" y="-462.5" font-family="Helvetica,sans-Serif" font-size="10.00">#</text>
<text text-anchor="start" x="370.5" y="-462.5" font-family="Helvetica,sans-Serif" font-size="10.00">height</text>
<text text-anchor="start" x="346" y="-447.5" font-family="Helvetica,sans-Serif" font-size="10.00">#</text>
<text text-anchor="start" x="370.5" y="-447.5" font-family="Helvetica,sans-Serif" font-size="10.00">name</text>
<text text-anchor="start" x="346" y="-432.5" font-family="Helvetica,sans-Serif" font-size="10.00">#</text>
<text text-anchor="start" x="370.5" y="-432.5" font-family="Helvetica,sans-Serif" font-size="10.00">number</text>
<text text-anchor="start" x="346" y="-417.5" font-family="Helvetica,sans-Serif" font-size="10.00">#</text>
<text text-anchor="start" x="370.5" y="-417.5" font-family="Helvetica,sans-Serif" font-size="10.00">points</text>
<text text-anchor="start" x="346" y="-402.5" font-family="Helvetica,sans-Serif" font-size="10.00">#</text>
<text text-anchor="start" x="370.5" y="-402.5" font-family="Helvetica,sans-Serif" font-size="10.00">skill</text>
<text text-anchor="start" x="348.5" y="-387.5" font-family="Helvetica,sans-Serif" font-size="10.00">&#45;</text>
<text text-anchor="start" x="370.5" y="-387.5" font-family="Helvetica,sans-Serif" font-size="10.00">nextNumber</text>
<text text-anchor="start" x="346" y="-372.5" font-family="Helvetica,sans-Serif" font-size="10.00">+</text>
<text text-anchor="start" x="370.5" y="-372.5" font-family="Helvetica,sans-Serif" font-size="10.00">Player()</text>
<text text-anchor="start" x="346" y="-357.5" font-family="Helvetica,sans-Serif" font-size="10.00">+</text>
<text text-anchor="start" x="370.5" y="-357.5" font-family="Helvetica,sans-Serif" font-size="10.00">addFoul()</text>
<text text-anchor="start" x="346" y="-342.5" font-family="Helvetica,sans-Serif" font-size="10.00">+</text>
<text text-anchor="start" x="370.5" y="-342.5" font-family="Helvetica,sans-Serif" font-size="10.00">addPoints()</text>
<text text-anchor="start" x="346" y="-327.5" font-family="Helvetica,sans-Serif" font-size="10.00">+</text>
<text text-anchor="start" x="370.5" y="-327.5" font-family="Helvetica,sans-Serif" font-size="10.00">getDetail()</text>
<text text-anchor="start" x="346" y="-312.5" font-family="Helvetica,sans-Serif" font-size="10.00">+</text>
<text text-anchor="start" x="370.5" y="-312.5" font-family="Helvetica,sans-Serif" font-size="10.00">getFouls()</text>
<text text-anchor="start" x="346" y="-297.5" font-family="Helvetica,sans-Serif" font-size="10.00">+</text>
<text text-anchor="start" x="370.5" y="-297.5" font-family="Helvetica,sans-Serif" font-size="10.00">getHeight()</text>
<text text-anchor="start" x="346" y="-282.5" font-family="Helvetica,sans-Serif" font-size="10.00">+</text>
<text text-anchor="start" x="370.5" y="-282.5" font-family="Helvetica,sans-Serif" font-size="10.00">getName()</text>
<text text-anchor="start" x="346" y="-267.5" font-family="Helvetica,sans-Serif" font-size="10.00">+</text>
<text text-anchor="start" x="370.5" y="-267.5" font-family="Helvetica,sans-Serif" font-size="10.00">getNumber()</text>
<text text-anchor="start" x="346" y="-252.5" font-family="Helvetica,sans-Serif" font-size="10.00">+</text>
<text text-anchor="start" x="370.5" y="-252.5" font-family="Helvetica,sans-Serif" font-size="10.00">getPoints()</text>
<text text-anchor="start" x="346" y="-237.5" font-family="Helvetica,sans-Serif" font-size="10.00">+</text>
<text text-anchor="start" x="370.5" y="-237.5" font-family="Helvetica,sans-Serif" font-size="10.00">getSkill()</text>
<text text-anchor="start" x="346" y="-222.5" font-family="Helvetica,sans-Serif" font-size="10.00">+</text>
<text text-anchor="start" x="370.5" y="-222.5" font-family="Helvetica,sans-Serif" font-size="10.00">getType()</text>
<text text-anchor="start" x="346" y="-207.5" font-family="Helvetica,sans-Serif" font-size="10.00">+</text>
<text text-anchor="start" x="370.5" y="-207.5" font-family="Helvetica,sans-Serif" font-size="10.00">toString()</text>
<text text-anchor="start" x="346" y="-192.5" font-family="Helvetica,sans-Serif" font-size="10.00">+</text>
<text text-anchor="start" x="370.5" y="-192.5" font-family="Helvetica,sans-Serif" font-size="10.00">arePointsValid()</text>
<text text-anchor="start" x="346" y="-177.5" font-family="Helvetica,sans-Serif" font-size="10.00">+</text>
<text text-anchor="start" x="370.5" y="-177.5" font-family="Helvetica,sans-Serif" font-size="10.00">isFoulValid()</text>
<text text-anchor="start" x="346" y="-162.5" font-family="Helvetica,sans-Serif" font-size="10.00">+</text>
<text text-anchor="start" x="370.5" y="-162.5" font-family="Helvetica,sans-Serif" font-size="10.00">isHeightValid()</text>
<text text-anchor="start" x="346" y="-147.5" font-family="Helvetica,sans-Serif" font-size="10.00">+</text>
<text text-anchor="start" x="370.5" y="-147.5" font-family="Helvetica,sans-Serif" font-size="10.00">isNameValid()</text>
<text text-anchor="start" x="346" y="-132.5" font-family="Helvetica,sans-Serif" font-size="10.00">+</text>
<text text-anchor="start" x="370.5" y="-132.5" font-family="Helvetica,sans-Serif" font-size="10.00">isNumberValid()</text>
<text text-anchor="start" x="346" y="-117.5" font-family="Helvetica,sans-Serif" font-size="10.00">+</text>
<text text-anchor="start" x="370.5" y="-117.5" font-family="Helvetica,sans-Serif" font-size="10.00">isSkillValid()</text>
<polygon fill="#666666" stroke="#666666" points="330.5,-487.5 330.5,-487.5 477.5,-487.5 477.5,-487.5 330.5,-487.5"/>
<polygon fill="#666666" stroke="#666666" points="330.5,-382.5 330.5,-382.5 368.5,-382.5 368.5,-382.5 330.5,-382.5"/>
<polygon fill="#666666" stroke="#666666" points="368.5,-382.5 368.5,-382.5 477.5,-382.5 477.5,-382.5 368.5,-382.5"/>
<polygon fill="none" stroke="#666666" points="330,-111 330,-516 477,-516 477,-111 330,-111"/>
</a>
</g>
</g>
<!-- Node2 -->
<g id="Node000002" class="node">
<title>Node2</title>
<g id="a_Node000002"><a xlink:href="classes_1_1alrodmue_1_1model_1_1players_1_1CenterPlayer.xhtml" target="_top" xlink:title=" ">
<polygon fill="white" stroke="transparent" points="147,-75 0,-75 0,0 147,0 147,-75"/>
<text text-anchor="start" x="5.5" y="-62.5" font-family="Helvetica,sans-Serif" font-size="10.00">es.alrodmue.model.players.</text>
<text text-anchor="start" x="42" y="-51.5" font-family="Helvetica,sans-Serif" font-size="10.00">CenterPlayer</text>
<text text-anchor="start" x="72" y="-36.5" font-family="Helvetica,sans-Serif" font-size="10.00"> </text>
<text text-anchor="start" x="18" y="-21.5" font-family="Helvetica,sans-Serif" font-size="10.00">+</text>
<text text-anchor="start" x="44.5" y="-21.5" font-family="Helvetica,sans-Serif" font-size="10.00">CenterPlayer()</text>
<text text-anchor="start" x="18" y="-6.5" font-family="Helvetica,sans-Serif" font-size="10.00">+</text>
<text text-anchor="start" x="44.5" y="-6.5" font-family="Helvetica,sans-Serif" font-size="10.00">getType()</text>
<polygon fill="#666666" stroke="#666666" points="0.5,-46.5 0.5,-46.5 147.5,-46.5 147.5,-46.5 0.5,-46.5"/>
<polygon fill="#666666" stroke="#666666" points="0.5,-31.5 0.5,-31.5 147.5,-31.5 147.5,-31.5 0.5,-31.5"/>
<polygon fill="none" stroke="#666666" points="0,0 0,-75 147,-75 147,0 0,0"/>
</a>
</g>
</g>
<!-- Node1&#45;&gt;Node2 -->
<g id="edge1_Node000001_Node000002" class="edge">
<title>Node1&#45;&gt;Node2</title>
<g id="a_edge1_Node000001_Node000002"><a xlink:title=" ">
<path fill="none" stroke="#63b8ff" d="M322.09,-244.91C257.5,-191.27 169.67,-118.35 117.56,-75.08"/>
<polygon fill="none" stroke="#63b8ff" points="319.92,-247.65 329.85,-251.35 324.39,-242.27 319.92,-247.65"/>
</a>
</g>
</g>
<!-- Node3 -->
<g id="Node000003" class="node">
<title>Node3</title>
<g id="a_Node000003"><a xlink:href="classes_1_1alrodmue_1_1model_1_1players_1_1PointGuardPlayer.xhtml" target="_top" xlink:title=" ">
<polygon fill="white" stroke="transparent" points="312,-75 165,-75 165,0 312,0 312,-75"/>
<text text-anchor="start" x="170.5" y="-62.5" font-family="Helvetica,sans-Serif" font-size="10.00">es.alrodmue.model.players.</text>
<text text-anchor="start" x="196.5" y="-51.5" font-family="Helvetica,sans-Serif" font-size="10.00">PointGuardPlayer</text>
<text text-anchor="start" x="237" y="-36.5" font-family="Helvetica,sans-Serif" font-size="10.00"> </text>
<text text-anchor="start" x="177.5" y="-21.5" font-family="Helvetica,sans-Serif" font-size="10.00">+</text>
<text text-anchor="start" x="198.5" y="-21.5" font-family="Helvetica,sans-Serif" font-size="10.00">PointGuardPlayer()</text>
<text text-anchor="start" x="177.5" y="-6.5" font-family="Helvetica,sans-Serif" font-size="10.00">+</text>
<text text-anchor="start" x="198.5" y="-6.5" font-family="Helvetica,sans-Serif" font-size="10.00">getType()</text>
<polygon fill="#666666" stroke="#666666" points="165.5,-46.5 165.5,-46.5 312.5,-46.5 312.5,-46.5 165.5,-46.5"/>
<polygon fill="#666666" stroke="#666666" points="165.5,-31.5 165.5,-31.5 312.5,-31.5 312.5,-31.5 165.5,-31.5"/>
<polygon fill="none" stroke="#666666" points="165,0 165,-75 312,-75 312,0 165,0"/>
</a>
</g>
</g>
<!-- Node1&#45;&gt;Node3 -->
<g id="edge2_Node000001_Node000003" class="edge">
<title>Node1&#45;&gt;Node3</title>
<g id="a_edge2_Node000001_Node000003"><a xlink:title=" ">
<path fill="none" stroke="#63b8ff" d="M324.6,-181.48C301.09,-142.44 277.19,-102.74 260.55,-75.12"/>
<polygon fill="none" stroke="#63b8ff" points="321.77,-183.56 329.93,-190.32 327.77,-179.95 321.77,-183.56"/>
</a>
</g>
</g>
<!-- Node4 -->
<g id="Node000004" class="node">
<title>Node4</title>
<g id="a_Node000004"><a xlink:href="classes_1_1alrodmue_1_1model_1_1players_1_1PowerForwardPlayer.xhtml" target="_top" xlink:title=" ">
<polygon fill="white" stroke="transparent" points="477,-75 330,-75 330,0 477,0 477,-75"/>
<text text-anchor="start" x="335.5" y="-62.5" font-family="Helvetica,sans-Serif" font-size="10.00">es.alrodmue.model.players.</text>
<text text-anchor="start" x="354" y="-51.5" font-family="Helvetica,sans-Serif" font-size="10.00">PowerForwardPlayer</text>
<text text-anchor="start" x="402" y="-36.5" font-family="Helvetica,sans-Serif" font-size="10.00"> </text>
<text text-anchor="start" x="339" y="-21.5" font-family="Helvetica,sans-Serif" font-size="10.00">+</text>
<text text-anchor="start" x="356.5" y="-21.5" font-family="Helvetica,sans-Serif" font-size="10.00">PowerForwardPlayer()</text>
<text text-anchor="start" x="339" y="-6.5" font-family="Helvetica,sans-Serif" font-size="10.00">+</text>
<text text-anchor="start" x="356.5" y="-6.5" font-family="Helvetica,sans-Serif" font-size="10.00">getType()</text>
<polygon fill="#666666" stroke="#666666" points="330.5,-46.5 330.5,-46.5 477.5,-46.5 477.5,-46.5 330.5,-46.5"/>
<polygon fill="#666666" stroke="#666666" points="330.5,-31.5 330.5,-31.5 477.5,-31.5 477.5,-31.5 330.5,-31.5"/>
<polygon fill="none" stroke="#666666" points="330,0 330,-75 477,-75 477,0 330,0"/>
</a>
</g>
</g>
<!-- Node1&#45;&gt;Node4 -->
<g id="edge3_Node000001_Node000004" class="edge">
<title>Node1&#45;&gt;Node4</title>
<g id="a_edge3_Node000001_Node000004"><a xlink:title=" ">
<path fill="none" stroke="#63b8ff" d="M403.5,-100.55C403.5,-91.29 403.5,-82.69 403.5,-75.02"/>
<polygon fill="none" stroke="#63b8ff" points="400,-100.85 403.5,-110.85 407,-100.85 400,-100.85"/>
</a>
</g>
</g>
<!-- Node5 -->
<g id="Node000005" class="node">
<title>Node5</title>
<g id="a_Node000005"><a xlink:href="classes_1_1alrodmue_1_1model_1_1players_1_1ShootingGuardPlayer.xhtml" target="_top" xlink:title=" ">
<polygon fill="white" stroke="transparent" points="642,-75 495,-75 495,0 642,0 642,-75"/>
<text text-anchor="start" x="500.5" y="-62.5" font-family="Helvetica,sans-Serif" font-size="10.00">es.alrodmue.model.players.</text>
<text text-anchor="start" x="517.5" y="-51.5" font-family="Helvetica,sans-Serif" font-size="10.00">ShootingGuardPlayer</text>
<text text-anchor="start" x="567" y="-36.5" font-family="Helvetica,sans-Serif" font-size="10.00"> </text>
<text text-anchor="start" x="503" y="-21.5" font-family="Helvetica,sans-Serif" font-size="10.00">+</text>
<text text-anchor="start" x="519.5" y="-21.5" font-family="Helvetica,sans-Serif" font-size="10.00">ShootingGuardPlayer()</text>
<text text-anchor="start" x="503" y="-6.5" font-family="Helvetica,sans-Serif" font-size="10.00">+</text>
<text text-anchor="start" x="519.5" y="-6.5" font-family="Helvetica,sans-Serif" font-size="10.00">getType()</text>
<polygon fill="#666666" stroke="#666666" points="495.5,-46.5 495.5,-46.5 642.5,-46.5 642.5,-46.5 495.5,-46.5"/>
<polygon fill="#666666" stroke="#666666" points="495.5,-31.5 495.5,-31.5 642.5,-31.5 642.5,-31.5 495.5,-31.5"/>
<polygon fill="none" stroke="#666666" points="495,0 495,-75 642,-75 642,0 495,0"/>
</a>
</g>
</g>
<!-- Node1&#45;&gt;Node5 -->
<g id="edge4_Node000001_Node000005" class="edge">
<title>Node1&#45;&gt;Node5</title>
<g id="a_edge4_Node000001_Node000005"><a xlink:title=" ">
<path fill="none" stroke="#63b8ff" d="M482.4,-181.48C505.91,-142.44 529.81,-102.74 546.45,-75.12"/>
<polygon fill="none" stroke="#63b8ff" points="479.23,-179.95 477.07,-190.32 485.23,-183.56 479.23,-179.95"/>
</a>
</g>
</g>
<!-- Node6 -->
<g id="Node000006" class="node">
<title>Node6</title>
<g id="a_Node000006"><a xlink:href="classes_1_1alrodmue_1_1model_1_1players_1_1SmallForwardPlayer.xhtml" target="_top" xlink:title=" ">
<polygon fill="white" stroke="transparent" points="807,-75 660,-75 660,0 807,0 807,-75"/>
<text text-anchor="start" x="665.5" y="-62.5" font-family="Helvetica,sans-Serif" font-size="10.00">es.alrodmue.model.players.</text>
<text text-anchor="start" x="685" y="-51.5" font-family="Helvetica,sans-Serif" font-size="10.00">SmallForwardPlayer</text>
<text text-anchor="start" x="732" y="-36.5" font-family="Helvetica,sans-Serif" font-size="10.00"> </text>
<text text-anchor="start" x="669.5" y="-21.5" font-family="Helvetica,sans-Serif" font-size="10.00">+</text>
<text text-anchor="start" x="687.5" y="-21.5" font-family="Helvetica,sans-Serif" font-size="10.00">SmallForwardPlayer()</text>
<text text-anchor="start" x="669.5" y="-6.5" font-family="Helvetica,sans-Serif" font-size="10.00">+</text>
<text text-anchor="start" x="687.5" y="-6.5" font-family="Helvetica,sans-Serif" font-size="10.00">getType()</text>
<polygon fill="#666666" stroke="#666666" points="660.5,-46.5 660.5,-46.5 807.5,-46.5 807.5,-46.5 660.5,-46.5"/>
<polygon fill="#666666" stroke="#666666" points="660.5,-31.5 660.5,-31.5 807.5,-31.5 807.5,-31.5 660.5,-31.5"/>
<polygon fill="none" stroke="#666666" points="660,0 660,-75 807,-75 807,0 660,0"/>
</a>
</g>
</g>
<!-- Node1&#45;&gt;Node6 -->
<g id="edge5_Node000001_Node000006" class="edge">
<title>Node1&#45;&gt;Node6</title>
<g id="a_edge5_Node000001_Node000006"><a xlink:title=" ">
<path fill="none" stroke="#63b8ff" d="M484.91,-244.91C549.5,-191.27 637.33,-118.35 689.44,-75.08"/>
<polygon fill="none" stroke="#63b8ff" points="482.61,-242.27 477.15,-251.35 487.08,-247.65 482.61,-242.27"/>
</a>
</g>
</g>
</g>
</svg>
