<?xml version="1.0" encoding="UTF-8" standalone="no"?>
<!DOCTYPE svg PUBLIC "-//W3C//DTD SVG 1.1//EN"
 "http://www.w3.org/Graphics/SVG/1.1/DTD/svg11.dtd">
<!-- Generated by graphviz version 2.43.0 (0)
 -->
<!-- Title: es.alrodmue.model.players.PlayerType Pages: 1 -->
<svg width="155pt" height="239pt"
 viewBox="0.00 0.00 155.00 239.00" xmlns="http://www.w3.org/2000/svg" xmlns:xlink="http://www.w3.org/1999/xlink">
<g id="graph0" class="graph" transform="scale(1 1) rotate(0) translate(4 235)">
<title>es.alrodmue.model.players.PlayerType</title>
<!-- Node1 -->
<g id="Node000001" class="node">
<title>Node1</title>
<g id="a_Node000001"><a xlink:title=" ">
<polygon fill="#999999" stroke="transparent" points="147,-135 0,-135 0,0 147,0 147,-135"/>
<text text-anchor="start" x="5.5" y="-122.5" font-family="Helvetica,sans-Serif" font-size="10.00">es.alrodmue.model.players.</text>
<text text-anchor="start" x="47" y="-111.5" font-family="Helvetica,sans-Serif" font-size="10.00">PlayerType</text>
<text text-anchor="start" x="12.5" y="-96.5" font-family="Helvetica,sans-Serif" font-size="10.00">+</text>
<text text-anchor="start" x="33.5" y="-96.5" font-family="Helvetica,sans-Serif" font-size="10.00">CENTER</text>
<text text-anchor="start" x="12.5" y="-81.5" font-family="Helvetica,sans-Serif" font-size="10.00">+</text>
<text text-anchor="start" x="33.5" y="-81.5" font-family="Helvetica,sans-Serif" font-size="10.00">POINT_GUARD</text>
<text text-anchor="start" x="12.5" y="-66.5" font-family="Helvetica,sans-Serif" font-size="10.00">+</text>
<text text-anchor="start" x="33.5" y="-66.5" font-family="Helvetica,sans-Serif" font-size="10.00">POWER_FORWARD</text>
<text text-anchor="start" x="12.5" y="-51.5" font-family="Helvetica,sans-Serif" font-size="10.00">+</text>
<text text-anchor="start" x="33.5" y="-51.5" font-family="Helvetica,sans-Serif" font-size="10.00">SHOOTING_GUARD</text>
<text text-anchor="start" x="12.5" y="-36.5" font-family="Helvetica,sans-Serif" font-size="10.00">+</text>
<text text-anchor="start" x="33.5" y="-36.5" font-family="Helvetica,sans-Serif" font-size="10.00">SMALL_FORWARD</text>
<text text-anchor="start" x="12.5" y="-21.5" font-family="Helvetica,sans-Serif" font-size="10.00">+</text>
<text text-anchor="start" x="33.5" y="-21.5" font-family="Helvetica,sans-Serif" font-size="10.00">toString()</text>
<text text-anchor="start" x="15" y="-6.5" font-family="Helvetica,sans-Serif" font-size="10.00">&#45;</text>
<text text-anchor="start" x="33.5" y="-6.5" font-family="Helvetica,sans-Serif" font-size="10.00">PlayerType()</text>
<polygon fill="#666666" stroke="#666666" points="0.5,-106.5 0.5,-106.5 147.5,-106.5 147.5,-106.5 0.5,-106.5"/>
<polygon fill="#666666" stroke="#666666" points="0.5,-31.5 0.5,-31.5 31.5,-31.5 31.5,-31.5 0.5,-31.5"/>
<polygon fill="#666666" stroke="#666666" points="31.5,-31.5 31.5,-31.5 147.5,-31.5 147.5,-31.5 31.5,-31.5"/>
<polygon fill="none" stroke="#666666" points="0,0 0,-135 147,-135 147,0 0,0"/>
</a>
</g>
</g>
<!-- Node2 -->
<g id="Node000002" class="node">
<title>Node2</title>
<g id="a_Node000002"><a xlink:title=" ">
<polygon fill="white" stroke="transparent" points="93,-231 54,-231 54,-182 93,-182 93,-231"/>
<text text-anchor="start" x="59.5" y="-218.5" font-family="Helvetica,sans-Serif" font-size="10.00">String</text>
<text text-anchor="start" x="72" y="-203.5" font-family="Helvetica,sans-Serif" font-size="10.00"> </text>
<text text-anchor="start" x="72" y="-188.5" font-family="Helvetica,sans-Serif" font-size="10.00"> </text>
<polygon fill="#bfbfbf" stroke="#bfbfbf" points="54.5,-213.5 54.5,-213.5 93.5,-213.5 93.5,-213.5 54.5,-213.5"/>
<polygon fill="#bfbfbf" stroke="#bfbfbf" points="54.5,-198.5 54.5,-198.5 93.5,-198.5 93.5,-198.5 54.5,-198.5"/>
<polygon fill="none" stroke="#bfbfbf" points="54,-182 54,-231 93,-231 93,-182 54,-182"/>
</a>
</g>
</g>
<!-- Node2&#45;&gt;Node1 -->
<g id="edge1_Node000001_Node000002" class="edge">
<title>Node2&#45;&gt;Node1</title>
<g id="a_edge1_Node000001_Node000002"><a xlink:title=" ">
<path fill="none" stroke="#63b8ff" d="M73.5,-181.95C73.5,-172.03 73.5,-159.87 73.5,-147.23"/>
<polygon fill="none" stroke="#63b8ff" points="73.5,-147.03 69.5,-141.03 73.5,-135.03 77.5,-141.03 73.5,-147.03"/>
</a>
</g>
<text text-anchor="middle" x="89" y="-156" font-family="Helvetica,sans-Serif" font-size="10.00" fill="grey"> &#45;label</text>
</g>
</g>
</svg>
