<?xml version="1.0" encoding="UTF-8" standalone="no"?>
<!DOCTYPE svg PUBLIC "-//W3C//DTD SVG 1.1//EN"
 "http://www.w3.org/Graphics/SVG/1.1/DTD/svg11.dtd">
<!-- Generated by graphviz version 2.43.0 (0)
 -->
<!-- Title: es.alrodmue.model.matches.MatchType Pages: 1 -->
<svg width="161pt" height="209pt"
 viewBox="0.00 0.00 161.00 209.00" xmlns="http://www.w3.org/2000/svg" xmlns:xlink="http://www.w3.org/1999/xlink">
<g id="graph0" class="graph" transform="scale(1 1) rotate(0) translate(4 205)">
<title>es.alrodmue.model.matches.MatchType</title>
<!-- Node1 -->
<g id="Node000001" class="node">
<title>Node1</title>
<g id="a_Node000001"><a xlink:title=" ">
<polygon fill="#999999" stroke="transparent" points="153,-105 0,-105 0,0 153,0 153,-105"/>
<text text-anchor="start" x="5.5" y="-92.5" font-family="Helvetica,sans-Serif" font-size="10.00">es.alrodmue.model.matches.</text>
<text text-anchor="start" x="50.5" y="-81.5" font-family="Helvetica,sans-Serif" font-size="10.00">MatchType</text>
<text text-anchor="start" x="15" y="-66.5" font-family="Helvetica,sans-Serif" font-size="10.00">+</text>
<text text-anchor="start" x="38.5" y="-66.5" font-family="Helvetica,sans-Serif" font-size="10.00">EXHIBITION</text>
<text text-anchor="start" x="15" y="-51.5" font-family="Helvetica,sans-Serif" font-size="10.00">+</text>
<text text-anchor="start" x="38.5" y="-51.5" font-family="Helvetica,sans-Serif" font-size="10.00">OFFICIAL_LOCAL</text>
<text text-anchor="start" x="15" y="-36.5" font-family="Helvetica,sans-Serif" font-size="10.00">+</text>
<text text-anchor="start" x="38.5" y="-36.5" font-family="Helvetica,sans-Serif" font-size="10.00">OFFICIAL_VISITOR</text>
<text text-anchor="start" x="15" y="-21.5" font-family="Helvetica,sans-Serif" font-size="10.00">+</text>
<text text-anchor="start" x="38.5" y="-21.5" font-family="Helvetica,sans-Serif" font-size="10.00">toString()</text>
<text text-anchor="start" x="17.5" y="-6.5" font-family="Helvetica,sans-Serif" font-size="10.00">&#45;</text>
<text text-anchor="start" x="38.5" y="-6.5" font-family="Helvetica,sans-Serif" font-size="10.00">MatchType()</text>
<polygon fill="#666666" stroke="#666666" points="0.5,-76.5 0.5,-76.5 153.5,-76.5 153.5,-76.5 0.5,-76.5"/>
<polygon fill="#666666" stroke="#666666" points="0.5,-31.5 0.5,-31.5 36.5,-31.5 36.5,-31.5 0.5,-31.5"/>
<polygon fill="#666666" stroke="#666666" points="36.5,-31.5 36.5,-31.5 153.5,-31.5 153.5,-31.5 36.5,-31.5"/>
<polygon fill="none" stroke="#666666" points="0,0 0,-105 153,-105 153,0 0,0"/>
</a>
</g>
</g>
<!-- Node2 -->
<g id="Node000002" class="node">
<title>Node2</title>
<g id="a_Node000002"><a xlink:title=" ">
<polygon fill="white" stroke="transparent" points="108,-201 45,-201 45,-152 108,-152 108,-201"/>
<text text-anchor="start" x="50.5" y="-188.5" font-family="Helvetica,sans-Serif" font-size="10.00">final String</text>
<text text-anchor="start" x="75" y="-173.5" font-family="Helvetica,sans-Serif" font-size="10.00"> </text>
<text text-anchor="start" x="75" y="-158.5" font-family="Helvetica,sans-Serif" font-size="10.00"> </text>
<polygon fill="#bfbfbf" stroke="#bfbfbf" points="45.5,-183.5 45.5,-183.5 108.5,-183.5 108.5,-183.5 45.5,-183.5"/>
<polygon fill="#bfbfbf" stroke="#bfbfbf" points="45.5,-168.5 45.5,-168.5 108.5,-168.5 108.5,-168.5 45.5,-168.5"/>
<polygon fill="none" stroke="#bfbfbf" points="45,-152 45,-201 108,-201 108,-152 45,-152"/>
</a>
</g>
</g>
<!-- Node2&#45;&gt;Node1 -->
<g id="edge1_Node000001_Node000002" class="edge">
<title>Node2&#45;&gt;Node1</title>
<g id="a_edge1_Node000001_Node000002"><a xlink:title=" ">
<path fill="none" stroke="#63b8ff" d="M76.5,-151.98C76.5,-142.01 76.5,-129.85 76.5,-117.54"/>
<polygon fill="none" stroke="#63b8ff" points="76.5,-117.24 72.5,-111.24 76.5,-105.24 80.5,-111.24 76.5,-117.24"/>
</a>
</g>
<text text-anchor="middle" x="92" y="-126" font-family="Helvetica,sans-Serif" font-size="10.00" fill="grey"> &#45;label</text>
</g>
</g>
</svg>
