<?xml version="1.0" encoding="UTF-8" standalone="no"?>
<!DOCTYPE svg PUBLIC "-//W3C//DTD SVG 1.1//EN"
 "http://www.w3.org/Graphics/SVG/1.1/DTD/svg11.dtd">
<!-- Generated by graphviz version 2.43.0 (0)
 -->
<!-- Title: es.alrodmue.model.players.PlayerType Pages: 1 -->
<svg width="155pt" height="128pt"
 viewBox="0.00 0.00 155.00 128.00" xmlns="http://www.w3.org/2000/svg" xmlns:xlink="http://www.w3.org/1999/xlink">
<g id="graph0" class="graph" transform="scale(1 1) rotate(0) translate(4 124)">
<title>es.alrodmue.model.players.PlayerType</title>
<!-- Node1 -->
<g id="Node000001" class="node">
<title>Node1</title>
<g id="a_Node000001"><a xlink:title=" ">
<polygon fill="#999999" stroke="transparent" points="147,-120 0,-120 0,0 147,0 147,-120"/>
<text text-anchor="start" x="5.5" y="-108" font-family="Helvetica,sans-Serif" font-size="10.00">es.alrodmue.model.players.</text>
<text text-anchor="start" x="47" y="-97" font-family="Helvetica,sans-Serif" font-size="10.00">PlayerType</text>
<text text-anchor="start" x="12.5" y="-82" font-family="Helvetica,sans-Serif" font-size="10.00">+</text>
<text text-anchor="start" x="33.5" y="-82" font-family="Helvetica,sans-Serif" font-size="10.00">CENTER</text>
<text text-anchor="start" x="12.5" y="-67" font-family="Helvetica,sans-Serif" font-size="10.00">+</text>
<text text-anchor="start" x="33.5" y="-67" font-family="Helvetica,sans-Serif" font-size="10.00">POINT_GUARD</text>
<text text-anchor="start" x="12.5" y="-52" font-family="Helvetica,sans-Serif" font-size="10.00">+</text>
<text text-anchor="start" x="33.5" y="-52" font-family="Helvetica,sans-Serif" font-size="10.00">POWER_FORWARD</text>
<text text-anchor="start" x="12.5" y="-37" font-family="Helvetica,sans-Serif" font-size="10.00">+</text>
<text text-anchor="start" x="33.5" y="-37" font-family="Helvetica,sans-Serif" font-size="10.00">SHOOTING_GUARD</text>
<text text-anchor="start" x="12.5" y="-22" font-family="Helvetica,sans-Serif" font-size="10.00">+</text>
<text text-anchor="start" x="33.5" y="-22" font-family="Helvetica,sans-Serif" font-size="10.00">SMALL_FORWARD</text>
<text text-anchor="start" x="12.5" y="-7" font-family="Helvetica,sans-Serif" font-size="10.00">+</text>
<text text-anchor="start" x="33.5" y="-7" font-family="Helvetica,sans-Serif" font-size="10.00">toString()</text>
<polygon fill="#666666" stroke="#666666" points="0.5,-92 0.5,-92 147.5,-92 147.5,-92 0.5,-92"/>
<polygon fill="#666666" stroke="#666666" points="0.5,-17 0.5,-17 31.5,-17 31.5,-17 0.5,-17"/>
<polygon fill="#666666" stroke="#666666" points="31.5,-17 31.5,-17 147.5,-17 147.5,-17 31.5,-17"/>
<polygon fill="none" stroke="#666666" points="0,0 0,-120 147,-120 147,0 0,0"/>
</a>
</g>
</g>
</g>
</svg>
