<?xml version="1.0" encoding="UTF-8" standalone="no"?>
<!DOCTYPE svg PUBLIC "-//W3C//DTD SVG 1.1//EN"
 "http://www.w3.org/Graphics/SVG/1.1/DTD/svg11.dtd">
<!-- Generated by graphviz version 2.43.0 (0)
 -->
<!-- Title: Gráfico de jerarquía de clases Pages: 1 -->
<svg width="512pt" height="422pt"
 viewBox="0.00 0.00 512.00 422.00" xmlns="http://www.w3.org/2000/svg" xmlns:xlink="http://www.w3.org/1999/xlink">
<g id="graph0" class="graph" transform="scale(1 1) rotate(0) translate(4 418)">
<title>Gráfico de jerarquía de clases</title>
<!-- Node0 -->
<g id="Node000000" class="node">
<title>Node0</title>
<g id="a_Node000000"><a xlink:href="classException.xhtml" target="_top" xlink:title=" ">
<polygon fill="white" stroke="#666666" points="65,-240.5 0,-240.5 0,-221.5 65,-221.5 65,-240.5"/>
<text text-anchor="middle" x="32.5" y="-228.5" font-family="Helvetica,sans-Serif" font-size="10.00">Exception</text>
</a>
</g>
</g>
<!-- Node1 -->
<g id="Node000001" class="node">
<title>Node1</title>
<g id="a_Node000001"><a xlink:href="classes_1_1alrodmue_1_1model_1_1exceptions_1_1FoulInvalidDataException.xhtml" target="_top" xlink:title=" ">
<polygon fill="white" stroke="#666666" points="271,-366 101,-366 101,-336 271,-336 271,-366"/>
<text text-anchor="start" x="109" y="-354" font-family="Helvetica,sans-Serif" font-size="10.00">es.alrodmue.model.exceptions.</text>
<text text-anchor="middle" x="186" y="-343" font-family="Helvetica,sans-Serif" font-size="10.00">FoulInvalidDataException</text>
</a>
</g>
</g>
<!-- Node0&#45;&gt;Node1 -->
<g id="edge13_Node000000_Node000001" class="edge">
<title>Node0&#45;&gt;Node1</title>
<g id="a_edge13_Node000000_Node000001"><a xlink:title=" ">
<path fill="none" stroke="#63b8ff" d="M53.57,-246.89C82.96,-270.17 137.33,-313.24 166.06,-336"/>
<polygon fill="#63b8ff" stroke="#63b8ff" points="55.65,-244.08 45.64,-240.62 51.31,-249.57 55.65,-244.08"/>
</a>
</g>
</g>
<!-- Node4 -->
<g id="Node000004" class="node">
<title>Node4</title>
<g id="a_Node000004"><a xlink:href="classes_1_1alrodmue_1_1model_1_1exceptions_1_1MatchInvalidDataException.xhtml" target="_top" xlink:title=" ">
<polygon fill="white" stroke="#666666" points="271,-270 101,-270 101,-240 271,-240 271,-270"/>
<text text-anchor="start" x="109" y="-258" font-family="Helvetica,sans-Serif" font-size="10.00">es.alrodmue.model.exceptions.</text>
<text text-anchor="middle" x="186" y="-247" font-family="Helvetica,sans-Serif" font-size="10.00">MatchInvalidDataException</text>
</a>
</g>
</g>
<!-- Node0&#45;&gt;Node4 -->
<g id="edge16_Node000000_Node000004" class="edge">
<title>Node0&#45;&gt;Node4</title>
<g id="a_edge16_Node000000_Node000004"><a xlink:title=" ">
<path fill="none" stroke="#63b8ff" d="M75.38,-237.63C83.39,-238.9 92.04,-240.27 100.84,-241.67"/>
<polygon fill="#63b8ff" stroke="#63b8ff" points="75.68,-234.14 65.26,-236.03 74.59,-241.05 75.68,-234.14"/>
</a>
</g>
</g>
<!-- Node7 -->
<g id="Node000007" class="node">
<title>Node7</title>
<g id="a_Node000007"><a xlink:href="classes_1_1alrodmue_1_1model_1_1exceptions_1_1PlayerInvalidDataException.xhtml" target="_top" xlink:title=" ">
<polygon fill="white" stroke="#666666" points="271,-198 101,-198 101,-168 271,-168 271,-198"/>
<text text-anchor="start" x="109" y="-186" font-family="Helvetica,sans-Serif" font-size="10.00">es.alrodmue.model.exceptions.</text>
<text text-anchor="middle" x="186" y="-175" font-family="Helvetica,sans-Serif" font-size="10.00">PlayerInvalidDataException</text>
</a>
</g>
</g>
<!-- Node0&#45;&gt;Node7 -->
<g id="edge19_Node000000_Node000007" class="edge">
<title>Node0&#45;&gt;Node7</title>
<g id="a_edge19_Node000000_Node000007"><a xlink:title=" ">
<path fill="none" stroke="#63b8ff" d="M73.36,-218.37C93.01,-212.14 116.86,-204.59 137.46,-198.06"/>
<polygon fill="#63b8ff" stroke="#63b8ff" points="72.27,-215.04 63.79,-221.4 74.38,-221.72 72.27,-215.04"/>
</a>
</g>
</g>
<!-- Node11 -->
<g id="Node000011" class="node">
<title>Node11</title>
<g id="a_Node000011"><a xlink:href="classes_1_1alrodmue_1_1model_1_1exceptions_1_1TeamInvalidDataException.xhtml" target="_top" xlink:title=" ">
<polygon fill="white" stroke="#666666" points="271,-78 101,-78 101,-48 271,-48 271,-78"/>
<text text-anchor="start" x="109" y="-66" font-family="Helvetica,sans-Serif" font-size="10.00">es.alrodmue.model.exceptions.</text>
<text text-anchor="middle" x="186" y="-55" font-family="Helvetica,sans-Serif" font-size="10.00">TeamInvalidDataException</text>
</a>
</g>
</g>
<!-- Node0&#45;&gt;Node11 -->
<g id="edge23_Node000000_Node000011" class="edge">
<title>Node0&#45;&gt;Node11</title>
<g id="a_edge23_Node000000_Node000011"><a xlink:title=" ">
<path fill="none" stroke="#63b8ff" d="M48.8,-214.03C78.4,-181.21 143.03,-109.54 171.3,-78.19"/>
<polygon fill="#63b8ff" stroke="#63b8ff" points="46.18,-211.72 42.08,-221.49 51.38,-216.4 46.18,-211.72"/>
</a>
</g>
</g>
<!-- Node2 -->
<g id="Node000002" class="node">
<title>Node2</title>
<g id="a_Node000002"><a xlink:href="classes_1_1alrodmue_1_1model_1_1exceptions_1_1FoulInvalidMatchException.xhtml" target="_top" xlink:title=" ">
<polygon fill="white" stroke="#666666" points="490.5,-414 320.5,-414 320.5,-384 490.5,-384 490.5,-414"/>
<text text-anchor="start" x="328.5" y="-402" font-family="Helvetica,sans-Serif" font-size="10.00">es.alrodmue.model.exceptions.</text>
<text text-anchor="middle" x="405.5" y="-391" font-family="Helvetica,sans-Serif" font-size="10.00">FoulInvalidMatchException</text>
</a>
</g>
</g>
<!-- Node1&#45;&gt;Node2 -->
<g id="edge14_Node000001_Node000002" class="edge">
<title>Node1&#45;&gt;Node2</title>
<g id="a_edge14_Node000001_Node000002"><a xlink:title=" ">
<path fill="none" stroke="#63b8ff" d="M265.09,-368.23C288.45,-373.39 313.87,-379 336.52,-384"/>
<polygon fill="#63b8ff" stroke="#63b8ff" points="265.74,-364.79 255.22,-366.06 264.23,-371.63 265.74,-364.79"/>
</a>
</g>
</g>
<!-- Node3 -->
<g id="Node000003" class="node">
<title>Node3</title>
<g id="a_Node000003"><a xlink:href="classes_1_1alrodmue_1_1model_1_1exceptions_1_1FoulInvalidPlayerException.xhtml" target="_top" xlink:title=" ">
<polygon fill="white" stroke="#666666" points="490.5,-366 320.5,-366 320.5,-336 490.5,-336 490.5,-366"/>
<text text-anchor="start" x="328.5" y="-354" font-family="Helvetica,sans-Serif" font-size="10.00">es.alrodmue.model.exceptions.</text>
<text text-anchor="middle" x="405.5" y="-343" font-family="Helvetica,sans-Serif" font-size="10.00">FoulInvalidPlayerException</text>
</a>
</g>
</g>
<!-- Node1&#45;&gt;Node3 -->
<g id="edge15_Node000001_Node000003" class="edge">
<title>Node1&#45;&gt;Node3</title>
<g id="a_edge15_Node000001_Node000003"><a xlink:title=" ">
<path fill="none" stroke="#63b8ff" d="M281.39,-351C294.33,-351 307.54,-351 320.27,-351"/>
<polygon fill="#63b8ff" stroke="#63b8ff" points="281.09,-347.5 271.09,-351 281.09,-354.5 281.09,-347.5"/>
</a>
</g>
</g>
<!-- Node5 -->
<g id="Node000005" class="node">
<title>Node5</title>
<g id="a_Node000005"><a xlink:href="classes_1_1alrodmue_1_1model_1_1exceptions_1_1MatchInvalidDateException.xhtml" target="_top" xlink:title=" ">
<polygon fill="white" stroke="#666666" points="490.5,-318 320.5,-318 320.5,-288 490.5,-288 490.5,-318"/>
<text text-anchor="start" x="328.5" y="-306" font-family="Helvetica,sans-Serif" font-size="10.00">es.alrodmue.model.exceptions.</text>
<text text-anchor="middle" x="405.5" y="-295" font-family="Helvetica,sans-Serif" font-size="10.00">MatchInvalidDateException</text>
</a>
</g>
</g>
<!-- Node4&#45;&gt;Node5 -->
<g id="edge17_Node000004_Node000005" class="edge">
<title>Node4&#45;&gt;Node5</title>
<g id="a_edge17_Node000004_Node000005"><a xlink:title=" ">
<path fill="none" stroke="#63b8ff" d="M265.09,-272.23C288.45,-277.39 313.87,-283 336.52,-288"/>
<polygon fill="#63b8ff" stroke="#63b8ff" points="265.74,-268.79 255.22,-270.06 264.23,-275.63 265.74,-268.79"/>
</a>
</g>
</g>
<!-- Node6 -->
<g id="Node000006" class="node">
<title>Node6</title>
<g id="a_Node000006"><a xlink:href="classes_1_1alrodmue_1_1model_1_1exceptions_1_1MatchInvalidPlayerAmountException.xhtml" target="_top" xlink:title=" ">
<polygon fill="white" stroke="#666666" points="504,-270 307,-270 307,-240 504,-240 504,-270"/>
<text text-anchor="start" x="315" y="-258" font-family="Helvetica,sans-Serif" font-size="10.00">es.alrodmue.model.exceptions.</text>
<text text-anchor="middle" x="405.5" y="-247" font-family="Helvetica,sans-Serif" font-size="10.00">MatchInvalidPlayerAmountException</text>
</a>
</g>
</g>
<!-- Node4&#45;&gt;Node6 -->
<g id="edge18_Node000004_Node000006" class="edge">
<title>Node4&#45;&gt;Node6</title>
<g id="a_edge18_Node000004_Node000006"><a xlink:title=" ">
<path fill="none" stroke="#63b8ff" d="M281.34,-255C289.8,-255 298.37,-255 306.86,-255"/>
<polygon fill="#63b8ff" stroke="#63b8ff" points="281.09,-251.5 271.09,-255 281.09,-258.5 281.09,-251.5"/>
</a>
</g>
</g>
<!-- Node8 -->
<g id="Node000008" class="node">
<title>Node8</title>
<g id="a_Node000008"><a xlink:href="classes_1_1alrodmue_1_1model_1_1exceptions_1_1PlayerInvalidHeightException.xhtml" target="_top" xlink:title=" ">
<polygon fill="white" stroke="#666666" points="490.5,-222 320.5,-222 320.5,-192 490.5,-192 490.5,-222"/>
<text text-anchor="start" x="328.5" y="-210" font-family="Helvetica,sans-Serif" font-size="10.00">es.alrodmue.model.exceptions.</text>
<text text-anchor="middle" x="405.5" y="-199" font-family="Helvetica,sans-Serif" font-size="10.00">PlayerInvalidHeightException</text>
</a>
</g>
</g>
<!-- Node7&#45;&gt;Node8 -->
<g id="edge20_Node000007_Node000008" class="edge">
<title>Node7&#45;&gt;Node8</title>
<g id="a_edge20_Node000007_Node000008"><a xlink:title=" ">
<path fill="none" stroke="#63b8ff" d="M281.39,-193.42C294.33,-194.84 307.54,-196.3 320.27,-197.71"/>
<polygon fill="#63b8ff" stroke="#63b8ff" points="281.41,-189.9 271.09,-192.28 280.65,-196.85 281.41,-189.9"/>
</a>
</g>
</g>
<!-- Node9 -->
<g id="Node000009" class="node">
<title>Node9</title>
<g id="a_Node000009"><a xlink:href="classes_1_1alrodmue_1_1model_1_1exceptions_1_1PlayerInvalidNameException.xhtml" target="_top" xlink:title=" ">
<polygon fill="white" stroke="#666666" points="490.5,-174 320.5,-174 320.5,-144 490.5,-144 490.5,-174"/>
<text text-anchor="start" x="328.5" y="-162" font-family="Helvetica,sans-Serif" font-size="10.00">es.alrodmue.model.exceptions.</text>
<text text-anchor="middle" x="405.5" y="-151" font-family="Helvetica,sans-Serif" font-size="10.00">PlayerInvalidNameException</text>
</a>
</g>
</g>
<!-- Node7&#45;&gt;Node9 -->
<g id="edge21_Node000007_Node000009" class="edge">
<title>Node7&#45;&gt;Node9</title>
<g id="a_edge21_Node000007_Node000009"><a xlink:title=" ">
<path fill="none" stroke="#63b8ff" d="M281.39,-172.58C294.33,-171.16 307.54,-169.7 320.27,-168.29"/>
<polygon fill="#63b8ff" stroke="#63b8ff" points="280.65,-169.15 271.09,-173.72 281.41,-176.1 280.65,-169.15"/>
</a>
</g>
</g>
<!-- Node10 -->
<g id="Node000010" class="node">
<title>Node10</title>
<g id="a_Node000010"><a xlink:href="classes_1_1alrodmue_1_1model_1_1exceptions_1_1PlayerInvalidSkillException.xhtml" target="_top" xlink:title=" ">
<polygon fill="white" stroke="#666666" points="490.5,-126 320.5,-126 320.5,-96 490.5,-96 490.5,-126"/>
<text text-anchor="start" x="328.5" y="-114" font-family="Helvetica,sans-Serif" font-size="10.00">es.alrodmue.model.exceptions.</text>
<text text-anchor="middle" x="405.5" y="-103" font-family="Helvetica,sans-Serif" font-size="10.00">PlayerInvalidSkillException</text>
</a>
</g>
</g>
<!-- Node7&#45;&gt;Node10 -->
<g id="edge22_Node000007_Node000010" class="edge">
<title>Node7&#45;&gt;Node10</title>
<g id="a_edge22_Node000007_Node000010"><a xlink:title=" ">
<path fill="none" stroke="#63b8ff" d="M230.25,-164.01C252.84,-154.52 281.11,-143.32 307,-135 316.96,-131.8 327.6,-128.78 338.07,-126.04"/>
<polygon fill="#63b8ff" stroke="#63b8ff" points="228.78,-160.83 220.93,-167.96 231.51,-167.27 228.78,-160.83"/>
</a>
</g>
</g>
<!-- Node12 -->
<g id="Node000012" class="node">
<title>Node12</title>
<g id="a_Node000012"><a xlink:href="classes_1_1alrodmue_1_1model_1_1exceptions_1_1TeamPlayerListFullException.xhtml" target="_top" xlink:title=" ">
<polygon fill="white" stroke="#666666" points="490.5,-78 320.5,-78 320.5,-48 490.5,-48 490.5,-78"/>
<text text-anchor="start" x="328.5" y="-66" font-family="Helvetica,sans-Serif" font-size="10.00">es.alrodmue.model.exceptions.</text>
<text text-anchor="middle" x="405.5" y="-55" font-family="Helvetica,sans-Serif" font-size="10.00">TeamPlayerListFullException</text>
</a>
</g>
</g>
<!-- Node11&#45;&gt;Node12 -->
<g id="edge24_Node000011_Node000012" class="edge">
<title>Node11&#45;&gt;Node12</title>
<g id="a_edge24_Node000011_Node000012"><a xlink:title=" ">
<path fill="none" stroke="#63b8ff" d="M281.39,-63C294.33,-63 307.54,-63 320.27,-63"/>
<polygon fill="#63b8ff" stroke="#63b8ff" points="281.09,-59.5 271.09,-63 281.09,-66.5 281.09,-59.5"/>
</a>
</g>
</g>
<!-- Node13 -->
<g id="Node000013" class="node">
<title>Node13</title>
<g id="a_Node000013"><a xlink:href="classes_1_1alrodmue_1_1model_1_1exceptions_1_1TeamPlayerPositionFullException.xhtml" target="_top" xlink:title=" ">
<polygon fill="white" stroke="#666666" points="494.5,-30 316.5,-30 316.5,0 494.5,0 494.5,-30"/>
<text text-anchor="start" x="324.5" y="-18" font-family="Helvetica,sans-Serif" font-size="10.00">es.alrodmue.model.exceptions.</text>
<text text-anchor="middle" x="405.5" y="-7" font-family="Helvetica,sans-Serif" font-size="10.00">TeamPlayerPositionFullException</text>
</a>
</g>
</g>
<!-- Node11&#45;&gt;Node13 -->
<g id="edge25_Node000011_Node000013" class="edge">
<title>Node11&#45;&gt;Node13</title>
<g id="a_edge25_Node000011_Node000013"><a xlink:title=" ">
<path fill="none" stroke="#63b8ff" d="M265.09,-45.77C288.45,-40.61 313.87,-35 336.52,-30"/>
<polygon fill="#63b8ff" stroke="#63b8ff" points="264.23,-42.37 255.22,-47.94 265.74,-49.21 264.23,-42.37"/>
</a>
</g>
</g>
</g>
</svg>
