<?xml version="1.0" encoding="UTF-8" standalone="no"?>
<!DOCTYPE svg PUBLIC "-//W3C//DTD SVG 1.1//EN"
 "http://www.w3.org/Graphics/SVG/1.1/DTD/svg11.dtd">
<!-- Generated by graphviz version 2.43.0 (0)
 -->
<!-- Title: Gráfico de jerarquía de clases Pages: 1 -->
<svg width="346pt" height="134pt"
 viewBox="0.00 0.00 346.00 134.00" xmlns="http://www.w3.org/2000/svg" xmlns:xlink="http://www.w3.org/1999/xlink">
<g id="graph0" class="graph" transform="scale(1 1) rotate(0) translate(4 130)">
<title>Gráfico de jerarquía de clases</title>
<!-- Node0 -->
<g id="Node000000" class="node">
<title>Node0</title>
<g id="a_Node000000"><a xlink:href="classes_1_1alrodmue_1_1model_1_1fouls_1_1Foul.xhtml" target="_top" xlink:title=" ">
<polygon fill="white" stroke="#666666" points="161,-72.5 0,-72.5 0,-53.5 161,-53.5 161,-72.5"/>
<text text-anchor="middle" x="80.5" y="-60.5" font-family="Helvetica,sans-Serif" font-size="10.00">es.alrodmue.model.fouls.Foul</text>
</a>
</g>
</g>
<!-- Node1 -->
<g id="Node000001" class="node">
<title>Node1</title>
<g id="a_Node000001"><a xlink:href="classes_1_1alrodmue_1_1model_1_1fouls_1_1FlagrantFoul.xhtml" target="_top" xlink:title=" ">
<polygon fill="white" stroke="#666666" points="338,-126 197,-126 197,-96 338,-96 338,-126"/>
<text text-anchor="start" x="205" y="-114" font-family="Helvetica,sans-Serif" font-size="10.00">es.alrodmue.model.fouls.</text>
<text text-anchor="middle" x="267.5" y="-103" font-family="Helvetica,sans-Serif" font-size="10.00">FlagrantFoul</text>
</a>
</g>
</g>
<!-- Node0&#45;&gt;Node1 -->
<g id="edge2_Node000000_Node000001" class="edge">
<title>Node0&#45;&gt;Node1</title>
<g id="a_edge2_Node000000_Node000001"><a xlink:title=" ">
<path fill="none" stroke="#63b8ff" d="M128.21,-75.12C152.57,-81.44 182.6,-89.23 208.44,-95.94"/>
<polygon fill="#63b8ff" stroke="#63b8ff" points="129.05,-71.72 118.49,-72.6 127.29,-78.5 129.05,-71.72"/>
</a>
</g>
</g>
<!-- Node2 -->
<g id="Node000002" class="node">
<title>Node2</title>
<g id="a_Node000002"><a xlink:href="classes_1_1alrodmue_1_1model_1_1fouls_1_1PersonalFoul.xhtml" target="_top" xlink:title=" ">
<polygon fill="white" stroke="#666666" points="338,-78 197,-78 197,-48 338,-48 338,-78"/>
<text text-anchor="start" x="205" y="-66" font-family="Helvetica,sans-Serif" font-size="10.00">es.alrodmue.model.fouls.</text>
<text text-anchor="middle" x="267.5" y="-55" font-family="Helvetica,sans-Serif" font-size="10.00">PersonalFoul</text>
</a>
</g>
</g>
<!-- Node0&#45;&gt;Node2 -->
<g id="edge3_Node000000_Node000002" class="edge">
<title>Node0&#45;&gt;Node2</title>
<g id="a_edge3_Node000000_Node000002"><a xlink:title=" ">
<path fill="none" stroke="#63b8ff" d="M171.16,-63C179.82,-63 188.52,-63 196.94,-63"/>
<polygon fill="#63b8ff" stroke="#63b8ff" points="171.03,-59.5 161.03,-63 171.03,-66.5 171.03,-59.5"/>
</a>
</g>
</g>
<!-- Node3 -->
<g id="Node000003" class="node">
<title>Node3</title>
<g id="a_Node000003"><a xlink:href="classes_1_1alrodmue_1_1model_1_1fouls_1_1TechnicalFoul.xhtml" target="_top" xlink:title=" ">
<polygon fill="white" stroke="#666666" points="338,-30 197,-30 197,0 338,0 338,-30"/>
<text text-anchor="start" x="205" y="-18" font-family="Helvetica,sans-Serif" font-size="10.00">es.alrodmue.model.fouls.</text>
<text text-anchor="middle" x="267.5" y="-7" font-family="Helvetica,sans-Serif" font-size="10.00">TechnicalFoul</text>
</a>
</g>
</g>
<!-- Node0&#45;&gt;Node3 -->
<g id="edge4_Node000000_Node000003" class="edge">
<title>Node0&#45;&gt;Node3</title>
<g id="a_edge4_Node000000_Node000003"><a xlink:title=" ">
<path fill="none" stroke="#63b8ff" d="M128.21,-50.88C152.57,-44.56 182.6,-36.77 208.44,-30.06"/>
<polygon fill="#63b8ff" stroke="#63b8ff" points="127.29,-47.5 118.49,-53.4 129.05,-54.28 127.29,-47.5"/>
</a>
</g>
</g>
</g>
</svg>
