<?xml version="1.0" encoding="UTF-8" standalone="no"?>
<!DOCTYPE svg PUBLIC "-//W3C//DTD SVG 1.1//EN"
 "http://www.w3.org/Graphics/SVG/1.1/DTD/svg11.dtd">
<!-- Generated by graphviz version 2.43.0 (0)
 -->
<!-- Title: Gráfico de jerarquía de clases Pages: 1 -->
<svg width="273pt" height="134pt"
 viewBox="0.00 0.00 273.00 134.00" xmlns="http://www.w3.org/2000/svg" xmlns:xlink="http://www.w3.org/1999/xlink">
<g id="graph0" class="graph" transform="scale(1 1) rotate(0) translate(4 130)">
<title>Gráfico de jerarquía de clases</title>
<!-- Node0 -->
<g id="Node000000" class="node">
<title>Node0</title>
<g id="a_Node000000"><a xlink:title=" ">
<polygon fill="#e0e0e0" stroke="#999999" points="74,-72.5 0,-72.5 0,-53.5 74,-53.5 74,-72.5"/>
<text text-anchor="middle" x="37" y="-60.5" font-family="Helvetica,sans-Serif" font-size="10.00">Initializable</text>
</a>
</g>
</g>
<!-- Node1 -->
<g id="Node000001" class="node">
<title>Node1</title>
<g id="a_Node000001"><a xlink:href="classes_1_1alrodmue_1_1view_1_1AddMatchViewController.xhtml" target="_top" xlink:title=" ">
<polygon fill="white" stroke="#666666" points="265,-126 110,-126 110,-96 265,-96 265,-126"/>
<text text-anchor="start" x="118" y="-114" font-family="Helvetica,sans-Serif" font-size="10.00">es.alrodmue.view.AddMatch</text>
<text text-anchor="middle" x="187.5" y="-103" font-family="Helvetica,sans-Serif" font-size="10.00">ViewController</text>
</a>
</g>
</g>
<!-- Node0&#45;&gt;Node1 -->
<g id="edge26_Node000000_Node000001" class="edge">
<title>Node0&#45;&gt;Node1</title>
<g id="a_edge26_Node000000_Node000001"><a xlink:title=" ">
<path fill="none" stroke="#63b8ff" d="M76.05,-75.83C87,-79.48 98.96,-83.43 110,-87 119.01,-89.91 128.62,-92.97 137.9,-95.89"/>
<polygon fill="#63b8ff" stroke="#63b8ff" points="76.94,-72.43 66.34,-72.58 74.72,-79.07 76.94,-72.43"/>
</a>
</g>
</g>
<!-- Node2 -->
<g id="Node000002" class="node">
<title>Node2</title>
<g id="a_Node000002"><a xlink:href="classes_1_1alrodmue_1_1view_1_1AddPlayerViewController.xhtml" target="_top" xlink:title=" ">
<polygon fill="white" stroke="#666666" points="265,-78 110,-78 110,-48 265,-48 265,-78"/>
<text text-anchor="start" x="118" y="-66" font-family="Helvetica,sans-Serif" font-size="10.00">es.alrodmue.view.AddPlayer</text>
<text text-anchor="middle" x="187.5" y="-55" font-family="Helvetica,sans-Serif" font-size="10.00">ViewController</text>
</a>
</g>
</g>
<!-- Node0&#45;&gt;Node2 -->
<g id="edge27_Node000000_Node000002" class="edge">
<title>Node0&#45;&gt;Node2</title>
<g id="a_edge27_Node000000_Node000002"><a xlink:title=" ">
<path fill="none" stroke="#63b8ff" d="M84.59,-63C92.64,-63 101.21,-63 109.81,-63"/>
<polygon fill="#63b8ff" stroke="#63b8ff" points="84.33,-59.5 74.33,-63 84.33,-66.5 84.33,-59.5"/>
</a>
</g>
</g>
<!-- Node3 -->
<g id="Node000003" class="node">
<title>Node3</title>
<g id="a_Node000003"><a xlink:href="classes_1_1alrodmue_1_1view_1_1MainViewController.xhtml" target="_top" xlink:title=" ">
<polygon fill="white" stroke="#666666" points="264.5,-30 110.5,-30 110.5,0 264.5,0 264.5,-30"/>
<text text-anchor="start" x="118.5" y="-18" font-family="Helvetica,sans-Serif" font-size="10.00">es.alrodmue.view.MainView</text>
<text text-anchor="middle" x="187.5" y="-7" font-family="Helvetica,sans-Serif" font-size="10.00">Controller</text>
</a>
</g>
</g>
<!-- Node0&#45;&gt;Node3 -->
<g id="edge28_Node000000_Node000003" class="edge">
<title>Node0&#45;&gt;Node3</title>
<g id="a_edge28_Node000000_Node000003"><a xlink:title=" ">
<path fill="none" stroke="#63b8ff" d="M76.05,-50.17C87,-46.52 98.96,-42.57 110,-39 119.01,-36.09 128.62,-33.03 137.9,-30.11"/>
<polygon fill="#63b8ff" stroke="#63b8ff" points="74.72,-46.93 66.34,-53.42 76.94,-53.57 74.72,-46.93"/>
</a>
</g>
</g>
</g>
</svg>
