<?xml version="1.0" encoding="UTF-8" standalone="no"?>
<!DOCTYPE svg PUBLIC "-//W3C//DTD SVG 1.1//EN"
 "http://www.w3.org/Graphics/SVG/1.1/DTD/svg11.dtd">
<!-- Generated by graphviz version 2.43.0 (0)
 -->
<!-- Title: Gráfico de jerarquía de clases Pages: 1 -->
<svg width="350pt" height="230pt"
 viewBox="0.00 0.00 350.00 230.00" xmlns="http://www.w3.org/2000/svg" xmlns:xlink="http://www.w3.org/1999/xlink">
<g id="graph0" class="graph" transform="scale(1 1) rotate(0) translate(4 226)">
<title>Gráfico de jerarquía de clases</title>
<!-- Node0 -->
<g id="Node000000" class="node">
<title>Node0</title>
<g id="a_Node000000"><a xlink:href="classes_1_1alrodmue_1_1model_1_1players_1_1Player.xhtml" target="_top" xlink:title=" ">
<polygon fill="white" stroke="#666666" points="153,-126 0,-126 0,-96 153,-96 153,-126"/>
<text text-anchor="start" x="8" y="-114" font-family="Helvetica,sans-Serif" font-size="10.00">es.alrodmue.model.players.</text>
<text text-anchor="middle" x="76.5" y="-103" font-family="Helvetica,sans-Serif" font-size="10.00">Player</text>
</a>
</g>
</g>
<!-- Node1 -->
<g id="Node000001" class="node">
<title>Node1</title>
<g id="a_Node000001"><a xlink:href="classes_1_1alrodmue_1_1model_1_1players_1_1CenterPlayer.xhtml" target="_top" xlink:title=" ">
<polygon fill="white" stroke="#666666" points="342,-222 189,-222 189,-192 342,-192 342,-222"/>
<text text-anchor="start" x="197" y="-210" font-family="Helvetica,sans-Serif" font-size="10.00">es.alrodmue.model.players.</text>
<text text-anchor="middle" x="265.5" y="-199" font-family="Helvetica,sans-Serif" font-size="10.00">CenterPlayer</text>
</a>
</g>
</g>
<!-- Node0&#45;&gt;Node1 -->
<g id="edge8_Node000000_Node000001" class="edge">
<title>Node0&#45;&gt;Node1</title>
<g id="a_edge8_Node000000_Node000001"><a xlink:title=" ">
<path fill="none" stroke="#63b8ff" d="M105.66,-132.19C127.5,-147.87 159.01,-168.86 189,-183 195.97,-186.28 203.5,-189.28 211.01,-191.96"/>
<polygon fill="#63b8ff" stroke="#63b8ff" points="107.65,-129.31 97.5,-126.26 103.53,-134.97 107.65,-129.31"/>
</a>
</g>
</g>
<!-- Node2 -->
<g id="Node000002" class="node">
<title>Node2</title>
<g id="a_Node000002"><a xlink:href="classes_1_1alrodmue_1_1model_1_1players_1_1PointGuardPlayer.xhtml" target="_top" xlink:title=" ">
<polygon fill="white" stroke="#666666" points="342,-174 189,-174 189,-144 342,-144 342,-174"/>
<text text-anchor="start" x="197" y="-162" font-family="Helvetica,sans-Serif" font-size="10.00">es.alrodmue.model.players.</text>
<text text-anchor="middle" x="265.5" y="-151" font-family="Helvetica,sans-Serif" font-size="10.00">PointGuardPlayer</text>
</a>
</g>
</g>
<!-- Node0&#45;&gt;Node2 -->
<g id="edge9_Node000000_Node000002" class="edge">
<title>Node0&#45;&gt;Node2</title>
<g id="a_edge9_Node000000_Node000002"><a xlink:title=" ">
<path fill="none" stroke="#63b8ff" d="M145.99,-128.58C165.7,-133.64 187.01,-139.11 206.05,-144"/>
<polygon fill="#63b8ff" stroke="#63b8ff" points="146.71,-125.15 136.15,-126.06 144.97,-131.93 146.71,-125.15"/>
</a>
</g>
</g>
<!-- Node3 -->
<g id="Node000003" class="node">
<title>Node3</title>
<g id="a_Node000003"><a xlink:href="classes_1_1alrodmue_1_1model_1_1players_1_1PowerForwardPlayer.xhtml" target="_top" xlink:title=" ">
<polygon fill="white" stroke="#666666" points="342,-126 189,-126 189,-96 342,-96 342,-126"/>
<text text-anchor="start" x="197" y="-114" font-family="Helvetica,sans-Serif" font-size="10.00">es.alrodmue.model.players.</text>
<text text-anchor="middle" x="265.5" y="-103" font-family="Helvetica,sans-Serif" font-size="10.00">PowerForwardPlayer</text>
</a>
</g>
</g>
<!-- Node0&#45;&gt;Node3 -->
<g id="edge10_Node000000_Node000003" class="edge">
<title>Node0&#45;&gt;Node3</title>
<g id="a_edge10_Node000000_Node000003"><a xlink:title=" ">
<path fill="none" stroke="#63b8ff" d="M163.3,-111C171.77,-111 180.33,-111 188.7,-111"/>
<polygon fill="#63b8ff" stroke="#63b8ff" points="163.02,-107.5 153.02,-111 163.02,-114.5 163.02,-107.5"/>
</a>
</g>
</g>
<!-- Node4 -->
<g id="Node000004" class="node">
<title>Node4</title>
<g id="a_Node000004"><a xlink:href="classes_1_1alrodmue_1_1model_1_1players_1_1ShootingGuardPlayer.xhtml" target="_top" xlink:title=" ">
<polygon fill="white" stroke="#666666" points="342,-78 189,-78 189,-48 342,-48 342,-78"/>
<text text-anchor="start" x="197" y="-66" font-family="Helvetica,sans-Serif" font-size="10.00">es.alrodmue.model.players.</text>
<text text-anchor="middle" x="265.5" y="-55" font-family="Helvetica,sans-Serif" font-size="10.00">ShootingGuardPlayer</text>
</a>
</g>
</g>
<!-- Node0&#45;&gt;Node4 -->
<g id="edge11_Node000000_Node000004" class="edge">
<title>Node0&#45;&gt;Node4</title>
<g id="a_edge11_Node000000_Node000004"><a xlink:title=" ">
<path fill="none" stroke="#63b8ff" d="M145.99,-93.42C165.7,-88.36 187.01,-82.89 206.05,-78"/>
<polygon fill="#63b8ff" stroke="#63b8ff" points="144.97,-90.07 136.15,-95.94 146.71,-96.85 144.97,-90.07"/>
</a>
</g>
</g>
<!-- Node5 -->
<g id="Node000005" class="node">
<title>Node5</title>
<g id="a_Node000005"><a xlink:href="classes_1_1alrodmue_1_1model_1_1players_1_1SmallForwardPlayer.xhtml" target="_top" xlink:title=" ">
<polygon fill="white" stroke="#666666" points="342,-30 189,-30 189,0 342,0 342,-30"/>
<text text-anchor="start" x="197" y="-18" font-family="Helvetica,sans-Serif" font-size="10.00">es.alrodmue.model.players.</text>
<text text-anchor="middle" x="265.5" y="-7" font-family="Helvetica,sans-Serif" font-size="10.00">SmallForwardPlayer</text>
</a>
</g>
</g>
<!-- Node0&#45;&gt;Node5 -->
<g id="edge12_Node000000_Node000005" class="edge">
<title>Node0&#45;&gt;Node5</title>
<g id="a_edge12_Node000000_Node000005"><a xlink:title=" ">
<path fill="none" stroke="#63b8ff" d="M105.66,-89.81C127.5,-74.13 159.01,-53.14 189,-39 195.97,-35.72 203.5,-32.72 211.01,-30.04"/>
<polygon fill="#63b8ff" stroke="#63b8ff" points="103.53,-87.03 97.5,-95.74 107.65,-92.69 103.53,-87.03"/>
</a>
</g>
</g>
</g>
</svg>
